<!DOCTYPE svg PUBLIC "-//W3C//DTD SVG 20010904//EN" "http://www.w3.org/TR/2001/REC-SVG-20010904/DTD/svg10.dtd">
<svg version="1.0" xmlns="http://www.w3.org/2000/svg" width="1600px" height="937px" viewBox="0 0 16000 9370" preserveAspectRatio="xMidYMid meet">
<g id="layer101" fill="#2d2b29" stroke="none">
 <path d="M0 4685 l0 -4685 8000 0 8000 0 0 4685 0 4685 -8000 0 -8000 0 0 -4685z"/>
 </g>
<g id="layer102" fill="#5f554c" stroke="none">
 <path d="M1908 9363 c28 -2 52 -9 52 -15 0 -6 13 -9 33 -6 17 3 75 -1 127 -7 75 -10 86 -13 50 -15 l-45 -3 55 -7 c30 -5 183 -11 340 -15 269 -6 347 -12 515 -36 39 -6 167 -14 285 -18 141 -5 254 -15 330 -29 63 -11 153 -24 200 -27 47 -4 105 -12 130 -17 25 -6 95 -16 155 -23 61 -7 128 -18 150 -25 22 -7 59 -13 82 -15 23 -1 73 -8 110 -14 66 -12 90 -17 218 -47 33 -8 85 -19 115 -25 30 -6 64 -14 75 -19 11 -4 52 -15 90 -25 39 -9 86 -20 105 -25 19 -6 70 -14 114 -20 43 -6 99 -20 125 -31 83 -38 104 -41 261 -44 98 -1 184 -8 233 -19 43 -9 103 -18 135 -21 31 -3 104 -14 162 -24 58 -11 139 -25 180 -31 41 -7 120 -20 175 -30 55 -11 120 -22 145 -25 51 -7 122 -20 225 -40 68 -14 139 -26 350 -60 130 -21 167 -32 199 -62 25 -23 26 -27 20 -96 -8 -79 -43 -211 -97 -357 -33 -89 -65 -205 -90 -327 -14 -66 -36 -76 -129 -61 -80 14 -169 3 -203 -24 -15 -11 -38 -46 -52 -77 -22 -49 -24 -66 -20 -133 5 -80 22 -120 61 -149 20 -16 114 -49 196 -70 40 -11 315 -50 376 -54 22 -1 50 -6 61 -9 41 -13 140 -28 243 -36 58 -5 148 -17 200 -28 52 -11 111 -23 131 -26 44 -8 78 -41 61 -58 -7 -7 -12 -28 -12 -49 0 -37 -22 -104 -65 -194 -31 -65 -43 -101 -51 -150 -5 -32 -47 -206 -104 -434 -5 -18 -27 -52 -49 -75 -24 -25 -41 -52 -43 -71 -3 -27 -7 -30 -45 -33 -39 -3 -46 1 -85 41 -30 31 -57 49 -88 57 -58 16 -142 7 -186 -19 -44 -26 -47 -26 -59 2 -7 15 -22 24 -50 28 -22 4 -79 14 -126 23 -96 17 -122 14 -188 -28 -43 -27 -81 -78 -81 -108 0 -14 -10 -15 -79 -11 -69 5 -85 3 -134 -20 -37 -17 -65 -39 -85 -66 -48 -66 -56 -94 -44 -154 6 -28 9 -53 7 -55 -1 -2 -39 6 -83 17 -100 26 -152 26 -201 1 -40 -20 -107 -93 -135 -147 -24 -48 -21 -129 9 -180 13 -24 23 -43 22 -43 -1 0 -29 14 -61 30 -46 24 -72 30 -120 30 -74 0 -118 -23 -177 -95 -61 -73 -81 -126 -87 -226 l-4 -86 -32 -11 c-18 -7 -64 -41 -103 -76 -40 -35 -80 -67 -90 -70 -69 -20 -206 -47 -218 -42 -13 4 -15 43 -15 233 0 220 -1 230 -24 280 -14 29 -46 73 -71 99 -50 50 -50 47 -14 129 4 11 17 43 28 70 71 185 68 181 151 150 34 -13 81 -17 190 -19 138 -1 149 0 214 27 38 15 76 25 84 22 26 -10 593 -24 616 -15 34 13 64 49 117 139 77 129 104 191 122 270 20 86 21 141 6 225 -12 61 -11 62 25 130 35 65 77 173 96 245 10 41 -3 124 -25 158 -32 48 -61 57 -219 70 -295 24 -464 32 -646 33 -102 0 -248 6 -325 14 -77 7 -145 11 -152 9 -18 -7 -41 14 -60 56 -13 29 -17 74 -19 221 -1 165 2 202 27 335 39 213 41 231 30 328 -10 85 -9 88 19 145 34 69 45 146 44 297 -1 112 -21 211 -46 227 -54 34 -117 -47 -138 -177 -5 -27 -18 -99 -30 -160 -12 -61 -20 -129 -17 -153 5 -50 -6 -111 -32 -167 -21 -45 -45 -112 -71 -202 -16 -53 -18 -91 -14 -279 3 -175 1 -220 -11 -237 -8 -11 -12 -31 -8 -47 3 -15 0 -31 -6 -34 -6 -4 -11 -15 -11 -24 0 -22 -36 -90 -64 -122 -12 -14 -28 -38 -36 -54 -8 -16 -25 -35 -37 -43 -29 -19 -60 -80 -68 -136 -8 -49 5 -68 32 -45 9 7 35 14 57 14 23 1 71 6 109 11 81 11 88 7 116 -87 30 -101 30 -109 14 -147 -27 -67 -17 -263 16 -296 23 -23 12 -55 -26 -74 -30 -15 -42 -31 -72 -98 -20 -44 -56 -113 -81 -153 -25 -41 -52 -85 -60 -100 -8 -15 -46 -73 -84 -129 -89 -135 -121 -222 -111 -312 4 -38 17 -85 31 -111 20 -37 24 -59 24 -132 0 -83 22 -203 41 -223 5 -5 9 -31 9 -58 0 -41 -5 -53 -30 -78 -26 -27 -35 -30 -72 -25 -201 25 -608 36 -958 25 -151 -4 -444 -13 -650 -19 -331 -9 -618 -24 -875 -46 l-80 -6 -60 67 c-84 95 -196 237 -252 320 -58 88 -138 172 -171 180 -29 7 -67 -11 -232 -112 -63 -38 -216 -125 -340 -193 -124 -68 -257 -142 -295 -165 -101 -61 -212 -115 -219 -108 -3 4 -6 18 -6 33 0 41 -37 139 -67 179 -66 86 -167 241 -181 276 -17 44 -39 297 -41 470 -2 160 -24 325 -48 364 -20 31 -50 142 -58 216 -9 74 -16 87 -74 146 -46 47 -80 122 -97 219 -4 19 -12 41 -18 49 -12 16 -36 80 -36 99 0 8 16 32 34 54 19 22 36 50 38 62 2 16 12 22 43 26 52 7 80 -3 112 -41 16 -18 33 -29 43 -26 9 2 27 -1 40 -8 15 -8 32 -9 49 -4 14 5 45 14 69 19 30 8 42 16 42 28 0 10 11 33 25 52 14 19 25 42 25 51 0 10 4 21 10 24 5 3 14 23 20 44 5 21 21 55 35 75 28 42 34 110 11 119 -36 14 -153 -16 -233 -59 -50 -27 -96 -44 -116 -44 -18 0 -42 -7 -53 -15 -10 -8 -29 -15 -41 -15 -13 0 -35 -14 -50 -31 -36 -40 -83 -59 -128 -52 l-35 6 0 -2492 c0 -1370 3 -2491 8 -2491 4 0 46 12 95 26 48 15 90 25 93 22 3 -3 -4 -33 -16 -67 -11 -35 -25 -97 -31 -139 -38 -279 -48 -381 -54 -542 -6 -182 -20 -321 -46 -453 -11 -56 -23 -117 -26 -134 -3 -18 -9 -33 -14 -33 -5 0 -9 -74 -9 -165 0 -103 4 -165 10 -165 6 0 10 6 10 14 0 8 9 17 19 21 14 4 27 33 49 103 38 122 58 196 66 247 4 22 16 78 27 125 11 47 26 112 34 145 8 33 21 98 30 145 8 47 19 103 25 125 66 281 91 440 93 590 1 76 -3 101 -26 159 -15 37 -27 72 -27 76 0 4 102 58 228 120 228 113 332 150 422 150 29 0 50 9 84 35 26 19 52 35 60 35 17 0 342 85 381 100 15 6 74 21 129 35 56 13 135 35 176 48 192 64 258 79 280 65 18 -11 23 -10 39 11 13 17 55 35 157 68 76 24 168 49 204 56 36 7 74 18 85 24 34 19 177 64 235 74 84 15 89 18 114 57 29 46 87 68 134 50 26 -10 34 -9 50 5 10 9 26 17 36 17 9 0 27 5 39 12 12 6 56 17 97 24 41 8 118 23 170 34 52 12 122 25 155 29 127 17 218 33 242 42 14 5 29 7 34 4 5 -3 35 -1 66 4 67 12 230 28 353 35 47 3 105 10 130 15 25 6 106 15 180 21 74 6 185 15 245 21 61 5 119 7 131 5 16 -4 37 -42 87 -153 36 -82 74 -170 85 -198 26 -64 141 -291 167 -329 44 -64 80 -93 122 -101 38 -6 45 -4 68 22 24 26 25 33 19 98 -7 80 -27 151 -92 315 -85 218 -133 373 -119 386 6 7 50 19 97 28 122 24 243 53 335 81 44 13 109 31 145 39 36 9 107 25 158 37 79 18 114 21 228 17 92 -3 138 -9 143 -17 5 -8 18 -10 34 -6 31 8 97 -36 97 -65 0 -9 8 -25 19 -34 10 -9 24 -38 32 -64 7 -26 24 -62 38 -80 23 -32 27 -33 69 -27 27 4 56 2 74 -6 25 -10 34 -10 57 4 33 19 56 9 46 -22 -5 -16 -2 -21 12 -21 24 0 43 19 43 41 0 20 13 25 88 34 38 5 65 2 100 -10 45 -16 50 -16 80 -1 19 10 32 12 32 6 0 -15 -47 -31 -100 -33 -44 -2 -45 -3 -42 -35 1 -17 -2 -32 -8 -32 -5 0 -10 -13 -10 -29 0 -28 -3 -30 -42 -33 -38 -3 -43 -6 -46 -29 -2 -15 -12 -35 -23 -45 -10 -9 -19 -21 -19 -26 0 -16 -55 -57 -76 -58 -12 0 -27 -7 -34 -15 -7 -8 -18 -15 -25 -15 -6 0 -20 -9 -30 -20 -10 -11 -26 -20 -36 -20 -10 0 -25 -13 -34 -30 -9 -18 -23 -30 -36 -30 -28 0 -68 -28 -85 -61 -8 -16 -21 -29 -29 -29 -22 0 -20 -72 4 -101 17 -22 21 -22 59 -10 22 8 50 11 61 8 11 -2 29 2 40 9 26 19 177 27 202 11 14 -9 21 -9 31 1 6 6 23 12 37 12 13 0 38 4 55 10 132 40 166 44 166 15 0 -18 -64 -100 -154 -196 -45 -47 -92 -102 -106 -122 -14 -21 -35 -40 -46 -43 -13 -3 -28 -21 -37 -45 -11 -27 -25 -44 -44 -51 -21 -8 -32 -22 -44 -57 -11 -34 -25 -53 -56 -73 -25 -17 -43 -38 -46 -55 -4 -16 -30 -53 -58 -83 -52 -57 -69 -86 -69 -122 0 -11 -7 -35 -16 -54 -20 -42 -15 -57 26 -78 27 -13 35 -13 53 -2 12 8 36 17 53 21 17 3 41 17 53 30 11 14 27 25 33 25 7 0 36 25 63 56 28 31 60 60 73 65 19 7 21 11 10 28 -10 17 -9 24 9 43 12 13 25 41 29 63 12 72 41 98 63 57 16 -31 24 -259 12 -366 -23 -206 -32 -393 -20 -443 14 -62 14 -396 0 -489 -6 -40 -24 -98 -42 -134 -17 -34 -37 -83 -44 -109 -7 -25 -22 -71 -34 -101 -48 -122 -63 -329 -31 -427 5 -15 11 -44 13 -64 3 -20 8 -42 11 -48 5 -7 43 -11 102 -11 86 0 94 2 94 19 0 11 4 22 9 25 5 3 14 59 20 123 6 65 19 166 27 225 16 103 15 251 -2 406 -3 30 -1 65 5 80 6 15 13 45 16 67 2 22 10 68 18 102 8 34 12 64 10 67 -3 2 3 31 12 63 9 32 20 72 25 88 5 17 11 54 15 82 8 59 25 82 25 33 0 -53 -35 -986 -46 -1243 l-6 -137 2603 2 2604 3 -2 43 c-1 27 2 42 10 42 7 0 39 -20 72 -45 l60 -45 464 0 464 0 23 25 c23 25 68 34 79 15 3 -6 22 -10 41 -10 32 0 42 8 28 23 -4 3 -16 34 -29 69 -12 35 -36 85 -53 112 -37 58 -39 66 -14 66 22 0 52 30 52 52 0 24 -55 94 -169 216 -144 155 -158 174 -187 269 -16 54 -33 89 -48 101 -13 10 -70 30 -127 45 -121 32 -295 83 -357 104 -71 25 -251 217 -338 360 -32 52 -47 64 -95 74 -97 22 -156 51 -225 111 -38 33 -87 72 -109 86 -22 14 -49 33 -60 43 -26 21 -75 47 -210 109 -197 91 -305 148 -580 306 -33 19 -72 48 -87 64 -32 35 -39 77 -10 65 111 -46 226 -75 322 -81 102 -6 106 -6 127 18 21 23 22 27 10 68 -10 36 -19 47 -42 54 -44 13 -147 56 -172 72 -33 21 -29 37 6 29 43 -9 99 4 124 30 12 13 38 28 57 34 56 19 74 36 61 60 -16 30 -79 43 -210 42 -164 0 -400 29 -561 69 -47 12 -101 25 -121 29 -34 7 -109 47 -109 57 0 3 11 9 25 14 34 13 32 48 -5 83 -16 16 -30 32 -30 37 0 5 -21 16 -47 26 -27 10 -61 26 -77 35 -31 19 -29 21 49 34 21 4 52 13 68 22 16 8 41 13 56 10 14 -3 41 3 63 14 20 10 46 19 56 19 11 0 25 7 32 15 7 9 26 15 44 13 39 -2 56 7 56 31 0 28 -30 48 -85 55 -46 7 -208 11 -280 7 -51 -3 -149 5 -168 13 -10 5 -23 3 -32 -4 -35 -29 -179 -8 -265 39 -9 5 -36 12 -60 16 -46 7 -90 38 -90 62 0 22 -37 52 -57 47 -11 -3 -29 4 -44 18 -35 32 -76 58 -93 58 -7 0 -27 7 -42 15 -16 8 -44 15 -62 15 -25 0 -35 5 -39 20 -6 22 -13 23 -88 21 -29 -1 -61 5 -75 13 -14 8 -35 20 -47 25 -13 6 -23 13 -23 17 0 14 76 89 159 158 108 91 329 323 359 378 12 23 29 49 36 57 8 9 24 36 36 60 12 24 31 53 42 65 11 12 30 37 43 56 12 19 50 63 84 97 33 35 61 71 61 82 0 10 6 34 14 52 7 19 19 77 25 130 l12 97 -36 78 c-20 44 -40 85 -44 93 -4 8 -47 38 -97 67 -49 29 -96 57 -104 63 -10 6 4 7 42 4 57 -6 58 -5 71 25 l13 31 39 -24 c43 -26 75 -31 91 -15 11 11 17 8 227 -127 61 -40 115 -73 120 -73 4 0 47 -29 95 -64 49 -35 158 -103 243 -151 85 -48 183 -106 219 -130 195 -127 343 -217 377 -231 21 -9 76 -38 123 -64 47 -27 126 -70 176 -97 50 -26 124 -73 165 -103 71 -53 140 -99 381 -252 60 -37 141 -92 180 -123 85 -64 186 -120 259 -141 27 -8 68 -31 89 -50 39 -36 192 -145 405 -289 66 -45 152 -104 191 -132 40 -27 92 -56 115 -63 28 -10 64 -35 99 -70 80 -80 161 -132 207 -134 36 -1 38 0 36 28 -2 20 -17 45 -49 77 -41 42 -45 50 -39 78 5 23 12 31 29 31 21 0 66 -37 66 -54 0 -4 17 -30 39 -59 21 -29 41 -60 44 -70 9 -24 132 -201 152 -217 8 -7 15 -18 15 -25 0 -30 88 -138 172 -211 51 -43 115 -99 143 -124 275 -243 447 -367 524 -379 31 -6 36 -10 42 -41 8 -50 22 -72 81 -125 56 -50 130 -91 148 -80 15 10 12 62 -7 98 -14 28 -29 77 -50 166 -3 14 -15 39 -27 57 -12 17 -26 40 -32 50 -8 14 -24 19 -73 20 -57 1 -65 4 -99 37 -20 20 -49 40 -64 46 -18 7 -28 18 -28 31 0 23 -27 110 -70 220 -15 41 -34 95 -41 120 -7 25 -19 52 -26 61 -7 8 -13 24 -13 34 0 10 -9 28 -19 39 -11 12 -31 42 -44 69 -14 26 -39 65 -56 86 -17 21 -31 43 -31 49 0 5 -7 12 -15 16 -8 3 -15 14 -15 25 0 11 -4 23 -10 26 -5 3 -10 27 -10 52 0 29 -6 53 -17 65 -15 17 -15 20 3 41 31 35 46 90 34 121 -5 15 -10 40 -10 55 0 15 -4 31 -9 36 -5 6 -14 43 -20 83 -5 41 -17 82 -25 91 -9 10 -16 25 -16 33 0 9 -7 21 -15 28 -8 7 -15 29 -15 50 0 21 -7 43 -15 50 -8 7 -15 18 -15 25 0 6 -10 20 -21 31 -31 28 -109 197 -123 267 -9 42 -20 66 -37 81 -32 27 -62 74 -54 86 3 4 0 20 -6 34 -10 22 -9 29 6 46 16 17 16 24 5 44 -9 18 -10 32 -2 54 11 32 6 45 -20 55 -24 9 -23 17 7 51 19 22 22 32 14 43 -6 7 -18 13 -26 13 -7 0 -16 7 -19 15 -4 8 -14 15 -24 15 -13 0 -19 11 -24 40 -5 30 -12 43 -30 50 -78 29 -116 231 -63 335 14 28 36 57 49 65 34 21 161 80 174 80 26 0 32 85 8 119 -13 18 -14 28 -5 47 13 30 14 44 2 44 -5 0 -11 -9 -14 -21 -8 -30 -43 -21 -39 9 2 13 -2 30 -9 38 -10 12 -8 20 9 44 39 52 34 109 -14 152 -36 33 -36 33 -29 93 3 33 11 65 16 72 7 8 7 18 0 31 -15 29 2 116 31 154 13 18 27 41 31 50 3 9 21 21 39 26 37 9 52 42 20 42 -11 0 -22 -6 -25 -12 -4 -10 -7 -10 -18 0 -12 11 -11 16 5 27 10 8 22 12 26 10 11 -7 36 26 44 56 7 32 -12 53 -34 39 -23 -15 -32 -12 -22 8 5 9 15 49 22 87 17 100 19 104 46 111 26 7 30 26 14 70 -8 21 -7 31 5 44 9 10 15 36 15 67 0 38 5 54 21 69 35 32 39 47 18 89 -10 22 -18 45 -19 51 -1 46 -110 -17 -110 -63 0 -13 -6 -26 -14 -29 -7 -3 -19 -23 -26 -44 -7 -22 -21 -47 -32 -56 -10 -10 -18 -27 -18 -39 0 -13 -6 -28 -14 -34 -8 -7 -17 -31 -21 -54 -8 -50 -23 -103 -40 -137 -6 -14 -19 -61 -29 -105 -10 -44 -22 -93 -27 -110 -16 -48 -39 -177 -39 -214 0 -18 -11 -54 -24 -80 -13 -25 -27 -54 -30 -63 -3 -10 -23 -30 -45 -46 -34 -25 -52 -30 -132 -35 -81 -6 -95 -5 -124 13 -40 24 -143 27 -225 6 -30 -8 -77 -18 -105 -22 -61 -9 -115 -35 -180 -88 -99 -79 -134 -120 -180 -207 -95 -183 -117 -311 -110 -654 4 -194 19 -316 44 -363 18 -33 15 -154 -8 -356 -28 -232 -40 -258 -60 -120 -6 38 -17 150 -26 249 -9 99 -20 227 -25 285 -13 152 -28 453 -39 791 -11 330 -18 378 -82 519 -50 112 -125 289 -134 318 -4 13 -21 51 -37 85 -17 34 -34 72 -39 87 -4 14 -29 81 -55 150 -74 200 -71 247 20 298 28 16 74 37 102 46 37 12 74 38 140 99 49 45 117 107 152 136 78 67 103 111 95 172 -12 94 -68 146 -173 158 -84 10 -370 -13 -409 -33 -16 -9 -36 -16 -43 -16 -7 0 -33 -14 -58 -30 -25 -16 -50 -30 -57 -30 -15 0 -20 40 -34 230 -8 121 -18 183 -45 284 -19 70 -38 135 -43 145 -4 9 -6 21 -4 28 2 7 0 21 -6 31 -8 15 -7 28 4 49 12 24 14 63 10 194 -3 106 0 181 8 213 11 47 11 49 -16 70 l-28 23 21 54 c12 30 23 55 25 57 2 2 12 -17 23 -41 42 -95 121 -108 315 -51 25 8 22 -19 -6 -53 -52 -62 -121 -374 -134 -606 -4 -70 -2 -92 11 -112 9 -13 16 -33 16 -44 0 -11 13 -29 29 -40 35 -25 41 -26 41 -6 0 9 9 15 25 15 15 0 25 6 25 14 0 7 11 38 25 67 13 30 36 115 49 189 14 74 31 160 37 190 21 99 32 193 32 288 1 93 -2 103 -37 115 -6 2 3 20 18 40 38 49 41 115 7 151 -14 15 -21 32 -18 43 3 10 15 52 27 93 18 63 29 82 71 123 32 32 49 57 49 73 0 36 27 30 69 -15 55 -59 89 -59 361 1 152 33 206 56 262 110 27 26 28 26 28 5 0 -27 -43 -263 -110 -602 -119 -608 -189 -985 -195 -1055 -12 -131 28 -193 122 -194 40 0 82 16 258 98 401 188 938 436 1065 491 41 18 158 68 260 112 413 180 688 294 704 293 1 0 2 -48 3 -107 0 -59 6 -123 13 -143 9 -28 9 -47 -2 -90 -13 -47 -13 -65 -1 -125 8 -38 21 -80 29 -92 18 -28 48 -113 65 -179 11 -45 10 -60 -5 -114 -20 -72 -15 -125 14 -140 26 -14 25 -23 -2 -35 -14 -6 -25 -23 -30 -46 -9 -44 -47 -119 -62 -124 -6 -2 -28 -6 -49 -10 -77 -13 -95 -64 -56 -165 11 -30 31 -83 44 -118 13 -35 37 -127 54 -205 17 -78 42 -189 55 -247 14 -58 27 -125 31 -150 4 -25 13 -64 21 -88 8 -23 18 -91 24 -150 16 -168 22 -205 83 -517 49 -246 69 -354 71 -390 2 -22 8 -50 14 -62 6 -11 17 -65 23 -119 6 -55 21 -144 34 -199 22 -97 31 -169 40 -343 2 -45 7 -86 9 -91 9 -14 44 -204 51 -272 5 -48 2 -77 -10 -110 -38 -104 -45 -142 -35 -202 11 -69 25 -90 57 -84 33 6 133 -12 148 -27 7 -7 15 -21 18 -32 2 -10 5 529 6 1198 1 1063 -1 1219 -14 1232 -8 8 -15 19 -15 25 0 6 -4 11 -10 11 -5 0 -10 6 -10 14 0 8 -4 16 -8 18 -8 3 -62 92 -62 101 0 6 53 17 93 20 l27 2 0 182 c0 101 -4 183 -9 183 -5 0 -12 25 -16 55 -3 30 -19 98 -34 152 -22 76 -26 103 -18 121 8 17 7 33 -2 58 -10 28 -10 45 0 84 10 38 10 52 1 63 -7 8 -9 22 -6 31 14 35 -37 65 -137 81 -20 3 -56 20 -80 39 -24 18 -69 41 -99 51 -63 20 -85 35 -51 35 59 0 111 112 77 165 -9 13 -16 42 -16 63 0 30 7 45 33 70 18 18 38 32 45 32 9 0 10 12 6 43 -8 53 -18 72 -60 120 -19 20 -34 42 -34 47 0 5 -16 31 -35 56 -61 80 -96 174 -65 174 6 0 15 11 20 25 11 30 26 32 33 5 6 -24 30 -26 48 -4 9 11 10 20 2 32 -6 10 -7 26 -2 38 9 25 -30 119 -52 126 -8 3 -14 13 -14 23 0 26 -25 31 -32 6 -3 -12 -8 -21 -12 -21 -13 1 -43 52 -34 61 4 4 94 44 198 89 105 44 224 97 265 118 l75 39 3 482 2 481 -1339 0 -1340 0 -15 -75 c-9 -41 -23 -110 -32 -152 -23 -115 -21 -113 -54 -73 -19 23 -38 36 -57 37 -15 1 -43 5 -61 9 -20 4 -38 2 -46 -5 -11 -10 -29 -10 -75 0 -48 9 -64 9 -76 -1 -8 -7 -25 -10 -37 -7 -13 3 -32 -1 -42 -9 -11 -8 -27 -14 -36 -14 -16 0 -47 -28 -81 -73 -26 -35 -77 -56 -128 -54 -38 1 -39 2 -44 47 -6 48 -50 139 -98 200 -14 19 -31 50 -37 67 -6 18 -23 49 -38 68 l-26 35 -238 0 c-191 0 -243 -3 -266 -15 -37 -19 -64 -19 -64 0 0 13 -557 15 -4957 13 -2727 -1 -4934 -3 -4905 -5z m7472 -1093 c257 -38 688 -99 965 -136 66 -9 134 -23 152 -31 17 -8 92 -76 166 -152 114 -117 140 -149 172 -216 44 -91 80 -139 183 -245 61 -62 83 -95 129 -190 31 -63 76 -142 102 -175 45 -59 46 -62 52 -150 5 -70 13 -107 38 -165 18 -42 34 -102 38 -136 5 -56 4 -63 -21 -87 -14 -14 -26 -37 -26 -51 0 -14 -4 -27 -8 -30 -4 -2 -131 11 -282 30 -151 19 -391 48 -535 64 -143 16 -291 34 -330 40 -38 5 -137 17 -220 25 -82 9 -222 25 -310 35 -88 11 -200 25 -250 30 -311 35 -916 101 -999 110 -55 6 -105 15 -113 21 -15 13 -18 65 -4 73 16 10 40 100 34 129 -4 20 0 34 15 50 11 12 36 56 55 97 30 66 44 83 114 142 107 89 119 116 127 277 l5 125 59 60 c64 66 122 151 141 205 6 19 23 50 39 70 15 19 36 50 47 67 11 18 46 62 79 99 50 57 62 65 85 61 14 -3 150 -24 301 -46z"/>
 </g>
<g id="layer103" fill="#94735b" stroke="none">
 <path d="M2180 9363 c0 -5 152 -8 338 -8 185 0 344 -3 352 -7 8 -4 37 -10 64 -13 35 -5 45 -9 35 -16 -10 -6 -2 -9 26 -11 22 -1 63 -3 90 -5 149 -7 543 -9 562 -2 14 5 41 3 73 -7 40 -12 55 -13 66 -4 10 9 51 10 141 6 71 -3 133 -5 138 -5 6 0 43 3 84 6 68 4 75 3 100 -21 14 -14 47 -34 73 -46 26 -11 50 -25 53 -30 3 -6 15 -10 26 -10 11 0 34 -7 51 -16 17 -9 54 -20 82 -24 53 -9 203 -50 246 -68 14 -5 45 -15 70 -22 25 -6 59 -16 75 -22 17 -6 55 -16 87 -23 31 -7 60 -15 65 -18 5 -3 64 -11 132 -17 97 -9 131 -16 160 -34 56 -34 129 -48 202 -39 88 10 113 8 284 -21 83 -14 170 -26 195 -26 25 0 70 -7 100 -16 30 -9 93 -22 140 -30 126 -20 178 -29 250 -47 96 -24 321 -74 435 -97 208 -43 242 -48 329 -55 82 -7 92 -10 125 -40 l35 -33 -12 -71 c-7 -39 -12 -83 -12 -98 0 -42 -29 -131 -70 -218 -29 -60 -42 -107 -55 -190 -9 -60 -24 -121 -32 -134 -12 -18 -14 -40 -10 -87 l6 -63 -34 -11 c-19 -6 -86 -10 -162 -8 l-129 3 -41 -33 c-52 -41 -67 -83 -58 -163 15 -127 102 -165 499 -219 81 -11 152 -22 156 -25 4 -3 64 -12 132 -20 197 -23 279 -34 286 -39 4 -2 43 -9 87 -15 43 -6 105 -21 137 -32 35 -13 67 -19 82 -15 42 10 92 62 127 132 24 48 46 77 83 105 133 102 135 106 141 273 6 154 10 166 81 241 26 28 60 77 76 110 29 61 69 118 133 190 51 58 105 133 116 162 7 18 14 23 27 18 22 -8 248 -43 792 -120 102 -14 278 -39 391 -56 113 -16 217 -29 230 -29 57 0 98 -22 165 -88 177 -173 229 -235 281 -337 41 -78 72 -121 142 -195 86 -91 116 -138 174 -270 13 -30 39 -75 58 -100 63 -82 77 -118 82 -210 4 -64 13 -104 36 -162 20 -48 31 -94 31 -125 0 -26 9 -68 20 -92 11 -23 17 -48 13 -53 -4 -7 -45 -9 -122 -4 -130 8 -144 10 -506 59 -143 20 -300 41 -350 46 -49 6 -164 20 -255 31 -91 11 -268 31 -395 45 -126 15 -284 32 -350 40 -66 8 -165 19 -220 25 -55 6 -219 24 -365 40 -725 81 -699 79 -744 50 -55 -34 -84 -93 -112 -231 -14 -67 -45 -204 -70 -303 -24 -100 -47 -209 -51 -243 -3 -35 -9 -63 -12 -63 -3 1 -17 7 -31 15 -14 8 -48 14 -76 15 -47 0 -54 3 -78 35 -39 50 -93 75 -165 75 -67 0 -106 -12 -137 -41 l-22 -20 -16 22 c-18 26 -94 52 -204 71 l-74 12 -66 -34 c-62 -32 -69 -39 -87 -88 -17 -45 -23 -52 -40 -46 -108 35 -218 -3 -283 -100 -34 -51 -40 -93 -22 -155 5 -19 8 -36 6 -38 -2 -2 -38 5 -80 17 -88 23 -176 26 -215 6 -39 -21 -109 -100 -132 -149 -27 -61 -24 -111 11 -174 17 -29 28 -53 24 -53 -3 0 -25 11 -48 25 -61 36 -140 50 -196 35 -58 -15 -131 -91 -173 -180 -27 -56 -31 -75 -31 -141 l1 -76 -32 -12 c-18 -6 -65 -41 -105 -76 -39 -35 -79 -66 -88 -69 -75 -23 -247 -55 -253 -49 -5 5 -11 108 -14 230 -5 206 -7 225 -29 276 -24 53 -59 90 -97 102 -25 8 -25 46 0 99 61 131 81 188 87 255 4 39 8 71 9 71 2 0 37 -16 79 -36 72 -35 80 -36 213 -41 145 -5 159 -3 283 47 129 52 171 63 194 51 16 -9 36 -9 85 3 35 8 68 19 74 25 7 7 16 7 29 0 24 -13 48 -5 48 15 0 19 34 30 57 18 10 -4 58 -7 107 -5 131 5 180 42 252 188 33 66 38 88 42 163 4 73 1 97 -19 155 l-24 68 21 37 c136 238 129 222 132 305 4 71 2 81 -23 117 -17 25 -40 44 -64 51 -25 9 -160 13 -466 15 -239 1 -486 7 -555 14 -69 7 -168 13 -220 14 -99 3 -173 25 -186 56 -12 30 -22 142 -15 168 9 29 4 52 -9 52 -11 0 -40 -58 -40 -80 0 -9 -4 -20 -8 -26 -19 -21 -34 -94 -28 -135 3 -24 8 -57 10 -74 7 -52 56 -218 83 -283 l27 -64 -24 -67 c-45 -132 -10 -248 98 -319 l56 -37 -55 -6 c-71 -7 -117 -28 -156 -72 -35 -40 -63 -123 -63 -186 0 -37 -2 -41 -25 -41 -40 0 -106 -68 -203 -208 -39 -58 -69 -125 -83 -185 l-12 -58 46 -92 c41 -82 46 -101 51 -177 2 -47 12 -118 21 -159 20 -85 17 -199 -5 -226 -16 -19 -91 -19 -475 5 -194 12 -379 11 -1130 -9 -416 -11 -865 -35 -996 -52 -42 -5 -82 -7 -90 -3 -28 11 -222 248 -314 381 -73 106 -154 183 -192 183 -18 0 -63 -22 -118 -58 -83 -54 -179 -109 -265 -154 -19 -10 -44 -24 -55 -30 -59 -36 -118 -70 -185 -106 -78 -41 -168 -92 -280 -157 -87 -50 -215 -115 -227 -115 -5 0 -7 25 -5 59 5 75 -16 122 -97 216 -33 39 -82 102 -107 140 -26 39 -67 90 -91 114 -24 24 -53 62 -64 83 l-20 40 23 56 c12 31 28 66 34 77 7 11 15 61 18 110 3 50 8 106 11 125 16 131 8 196 -35 280 -31 59 -105 132 -142 139 -27 5 -38 16 -60 56 -15 28 -27 61 -26 75 2 105 -3 174 -12 160 -8 -12 -10 -11 -10 7 0 12 -4 25 -10 28 -5 3 -7 19 -4 35 4 18 0 37 -10 51 -15 22 -16 -43 -16 -830 0 -831 0 -853 19 -858 26 -7 31 -30 31 -151 0 -100 -1 -103 -25 -112 l-25 -10 1 -362 c0 -269 3 -357 11 -341 13 27 28 30 28 6 0 -13 3 -14 12 -5 7 7 22 12 34 12 13 0 26 5 29 10 9 15 70 -35 95 -77 12 -21 18 -43 14 -55 -7 -23 12 -48 37 -48 31 0 23 -37 -11 -55 -37 -19 -38 -37 -4 -62 23 -17 25 -23 15 -41 -19 -35 -14 -44 19 -37 28 6 30 5 30 -22 0 -35 10 -50 35 -54 14 -3 21 -13 22 -34 3 -47 21 -133 31 -152 7 -12 5 -27 -8 -53 -11 -19 -21 -43 -24 -52 -7 -25 -46 -23 -46 1 0 27 -17 35 -29 14 -10 -17 -12 -17 -30 5 -11 12 -22 22 -26 22 -10 0 -55 49 -55 59 0 5 10 12 23 16 19 7 16 9 -17 12 -52 6 -59 -5 -41 -58 23 -64 27 -140 8 -161 -12 -13 -13 -27 -7 -55 4 -21 7 -68 6 -105 -1 -58 1 -69 18 -78 27 -15 25 -29 -10 -77 -35 -47 -72 -65 -123 -60 l-37 4 0 -313 0 -313 28 9 c15 4 52 16 82 25 101 30 183 67 411 181 227 114 312 146 433 160 37 5 68 15 85 29 35 29 66 45 89 45 10 0 106 25 213 55 107 31 222 62 255 70 34 7 93 23 130 35 99 31 360 109 419 125 93 25 412 123 501 154 49 17 118 36 154 42 67 11 93 26 115 70 14 26 18 27 180 61 28 6 72 17 99 24 27 8 62 14 78 14 15 0 47 5 70 10 146 36 427 84 578 100 52 6 131 15 175 20 44 6 136 15 205 20 69 5 193 17 275 25 331 33 433 39 449 26 8 -7 22 -38 31 -68 9 -31 55 -131 102 -224 67 -132 97 -180 140 -224 48 -49 59 -56 82 -50 31 8 37 17 45 65 6 41 -18 129 -78 286 -20 50 -46 126 -60 168 l-24 77 26 13 c15 7 50 17 77 20 59 8 335 73 373 87 39 15 201 56 311 79 120 26 326 26 421 2 l65 -17 60 -90 c48 -72 71 -97 115 -123 l55 -34 199 7 c110 4 224 11 255 15 81 11 94 5 88 -38 -4 -19 -13 -42 -22 -52 -18 -20 -21 -170 -4 -318 13 -122 5 -202 -21 -202 -20 0 -93 -77 -117 -125 -9 -16 -28 -41 -43 -56 -15 -15 -39 -53 -53 -84 -30 -62 -34 -129 -16 -250 6 -38 12 -171 13 -295 2 -149 7 -243 16 -278 11 -42 12 -62 2 -97 -7 -25 -12 -70 -12 -99 0 -46 3 -56 20 -61 11 -3 24 -4 29 -1 12 8 41 93 41 122 0 12 7 35 15 50 8 16 15 40 15 55 0 73 65 289 89 297 10 3 12 -12 7 -79 -3 -46 -13 -300 -21 -564 -9 -264 -22 -642 -30 -840 -9 -198 -15 -386 -15 -417 l0 -58 2575 0 2575 0 0 70 c0 42 4 70 10 70 18 0 64 -27 108 -62 110 -87 56 -78 457 -78 245 0 354 3 350 10 -12 19 17 40 54 40 29 0 46 9 87 48 29 26 63 55 78 65 14 10 26 27 26 38 0 10 -27 70 -60 132 -45 84 -60 124 -60 154 0 29 -10 56 -39 100 -21 33 -44 64 -51 68 -22 14 -77 110 -95 167 -27 89 -47 114 -97 127 -24 5 -77 22 -118 35 -41 14 -106 34 -145 45 -228 65 -244 71 -262 97 -10 14 -49 60 -86 102 -37 42 -96 119 -131 172 l-64 97 -68 23 c-115 38 -146 55 -214 115 -99 88 -219 161 -400 246 -269 125 -501 255 -691 384 -88 60 -219 162 -219 171 0 2 18 -5 40 -16 21 -11 51 -20 65 -20 15 0 36 -5 48 -12 12 -6 50 -12 83 -12 46 -1 67 -6 83 -20 12 -11 27 -16 37 -12 11 4 27 -3 45 -20 15 -14 33 -24 41 -22 7 3 23 1 36 -3 27 -10 62 4 62 25 0 21 -41 42 -92 48 -28 3 -61 16 -80 30 -18 13 -53 30 -78 38 -83 25 -201 92 -187 106 3 3 61 1 129 -6 143 -14 301 -11 319 7 18 18 -7 43 -43 43 -16 0 -38 5 -49 11 -11 5 -68 17 -127 24 -130 18 -293 47 -387 69 -38 9 -97 23 -130 31 -33 8 -87 19 -120 26 -94 18 -284 79 -347 110 -62 31 -79 60 -59 97 18 34 14 99 -8 114 -11 8 -21 28 -23 47 -2 22 -12 41 -28 53 -34 25 -153 68 -219 79 -29 5 -69 16 -88 24 -20 8 -42 15 -51 15 -9 0 -27 14 -41 31 -18 21 -51 39 -106 58 -74 26 -213 94 -260 127 -11 8 -35 14 -55 15 -31 0 -33 1 -16 12 11 7 60 48 110 92 50 44 116 99 146 122 77 58 230 217 230 238 0 21 36 73 93 131 35 37 38 45 32 75 -4 19 -12 40 -17 46 -7 9 -5 14 8 19 40 12 49 22 47 54 -1 32 25 70 49 70 19 0 118 113 118 135 0 11 -7 31 -16 44 -14 19 -22 22 -50 16 -30 -5 -34 -3 -34 15 0 20 4 21 43 14 64 -11 68 -10 80 8 9 14 8 21 -5 35 -16 15 -16 18 6 38 21 19 24 32 25 95 0 47 6 81 16 96 17 26 11 79 -13 106 -8 10 -59 44 -113 75 -95 54 -116 73 -84 73 7 0 50 16 94 35 43 19 88 35 99 35 11 0 42 -16 68 -35 27 -19 74 -47 104 -63 30 -16 82 -47 115 -69 86 -58 123 -75 153 -71 42 5 41 40 -3 85 l-35 36 35 29 c39 33 69 92 78 158 8 60 -31 174 -72 211 -37 34 -99 44 -396 65 -304 20 -404 30 -413 39 -4 3 3 15 16 25 18 15 34 18 70 14 219 -22 348 -36 407 -45 124 -18 238 -22 282 -10 78 21 168 135 213 271 34 101 29 96 115 95 l76 0 23 -51 c26 -55 91 -117 143 -136 37 -13 39 -21 19 -69 l-14 -34 -99 0 c-87 0 -102 -3 -133 -24 -100 -69 -129 -124 -149 -281 -14 -106 -30 -200 -41 -235 -5 -16 -14 -49 -20 -73 -9 -34 -17 -46 -41 -54 -47 -16 -39 -47 29 -101 74 -58 213 -142 321 -195 46 -23 94 -50 105 -60 23 -21 115 -83 269 -182 99 -63 154 -89 193 -90 12 0 27 -6 33 -14 7 -8 47 -29 89 -47 42 -17 85 -37 95 -44 22 -16 53 -9 62 13 4 11 -1 22 -15 32 -12 8 -38 29 -57 46 l-36 31 46 46 46 46 6 -37 c5 -34 15 -66 67 -215 25 -70 68 -111 198 -191 52 -32 124 -77 160 -101 36 -23 99 -62 140 -85 41 -24 93 -60 115 -80 92 -84 203 -145 282 -155 57 -8 78 8 70 52 -3 16 -12 62 -20 103 -16 80 -33 245 -47 455 -5 72 -15 213 -24 315 -8 102 -17 264 -20 360 -17 495 -35 649 -86 732 -17 26 -30 52 -30 56 0 12 -95 231 -154 355 -31 65 -56 122 -56 127 0 18 -51 163 -70 198 -27 50 -35 115 -20 155 21 51 58 85 160 145 52 30 115 72 140 91 25 20 78 58 119 86 95 64 121 96 121 144 0 63 -18 100 -61 121 -45 24 -83 25 -290 13 -178 -11 -182 -12 -306 -120 -86 -75 -79 -85 -87 132 -6 155 -20 235 -64 365 -26 77 -73 150 -97 150 -7 0 -20 12 -30 26 -12 18 -23 24 -37 21 -32 -9 -72 11 -98 50 -83 123 -202 232 -303 278 -54 25 -133 95 -106 95 7 0 22 -7 33 -15 10 -7 42 -17 71 -20 47 -6 72 -1 212 45 87 29 177 59 201 67 61 23 96 67 116 150 32 128 106 244 91 140 -10 -62 13 -103 72 -129 55 -24 112 -21 219 11 88 26 118 52 110 94 -4 17 -16 41 -27 53 -23 25 -21 40 14 109 14 28 24 86 37 210 10 93 21 177 24 185 4 9 -4 30 -19 50 -26 35 -35 103 -15 115 24 15 9 74 -32 137 l-43 63 -179 3 c-170 2 -180 1 -202 -19 -12 -11 -48 -29 -80 -39 -52 -16 -62 -16 -86 -4 -19 10 -28 22 -28 39 l0 25 -2102 -2 -2103 -3 -2 -25 c-5 -51 -19 -105 -24 -95 -4 6 -12 27 -18 48 -7 20 -17 37 -22 37 -5 0 -9 9 -9 20 0 20 -7 20 -2630 20 -1447 0 -2630 -3 -2630 -7z"/>
 <path d="M13325 9358 c-5 -14 -63 -311 -95 -488 -12 -63 -52 -272 -90 -465 -155 -790 -192 -993 -197 -1087 -6 -112 4 -151 48 -173 61 -32 94 -22 390 115 711 332 1347 615 1909 850 200 84 600 258 658 286 l52 26 0 474 0 474 -1335 0 c-1060 0 -1337 -3 -1340 -12z"/>
 <path d="M13345 5523 c-58 -8 -200 -55 -257 -85 -65 -35 -162 -124 -196 -183 -13 -21 -39 -75 -57 -120 -29 -70 -34 -97 -43 -220 -6 -77 -8 -171 -6 -208 4 -67 37 -192 54 -202 27 -17 21 -162 -20 -485 -10 -80 -24 -197 -30 -260 -7 -63 -15 -135 -20 -159 -12 -64 3 -94 70 -143 58 -42 121 -88 249 -180 36 -26 80 -55 96 -64 17 -9 60 -38 96 -65 112 -82 208 -103 253 -54 28 31 34 56 41 199 4 79 11 119 26 147 23 46 24 72 4 89 -8 7 -15 18 -15 24 0 6 -15 23 -34 38 -42 33 -65 98 -80 222 -11 85 -6 219 8 233 10 11 28 -13 35 -48 3 -18 18 -41 32 -52 l26 -19 46 34 c25 18 50 44 56 56 19 40 31 209 29 407 -3 200 -1 216 51 345 55 137 76 224 76 321 -1 87 -4 102 -33 161 l-32 65 -52 7 c-29 3 -81 6 -115 6 -53 0 -63 3 -68 20 -3 11 -15 25 -26 30 -10 6 -19 15 -19 20 0 22 -51 118 -66 124 -16 6 -27 6 -79 -1z"/>
 </g>
<g id="layer104" fill="#798185" stroke="none">
 <path d="M7616 9333 c-4 -21 -13 -114 -20 -208 -13 -157 -16 -174 -45 -229 -24 -45 -31 -71 -31 -116 0 -53 4 -62 49 -122 60 -79 97 -111 153 -132 24 -9 138 -29 253 -45 269 -38 281 -36 406 65 36 29 109 76 162 103 228 119 237 126 265 212 20 63 22 64 130 23 61 -23 80 -36 123 -85 42 -49 60 -61 114 -79 36 -12 65 -27 65 -35 0 -8 -30 -22 -72 -35 -133 -40 -185 -81 -209 -160 -15 -49 -6 -83 34 -126 30 -32 39 -36 132 -49 426 -64 1241 -179 1340 -190 60 -6 61 -6 105 33 41 36 44 42 44 89 0 87 -68 168 -297 352 -98 79 -98 93 -7 128 36 14 113 49 171 79 110 56 124 60 148 45 12 -8 11 -18 -8 -61 -37 -87 -8 -149 83 -180 28 -9 39 -22 65 -75 26 -56 42 -74 118 -132 48 -38 126 -104 174 -149 148 -139 212 -174 317 -174 96 0 323 82 394 142 17 14 43 61 68 121 22 54 63 128 90 166 64 88 70 106 59 166 -14 75 -60 129 -156 186 -39 22 -41 40 -13 119 11 30 19 58 20 62 0 4 -27 37 -59 73 -43 47 -65 82 -81 128 -12 34 -27 77 -33 95 l-12 32 -2017 0 -2016 0 -6 -37z"/>
 <path d="M13329 9358 c0 -7 -2 -20 -4 -28 -12 -49 -210 -1055 -326 -1650 -55 -285 -70 -439 -49 -490 7 -17 25 -37 41 -45 61 -32 94 -22 390 115 655 305 952 439 1569 705 124 53 306 132 405 175 99 42 270 116 380 163 110 47 215 93 233 102 l32 16 0 475 0 474 -1335 0 c-1061 0 -1335 -3 -1336 -12z"/>
 <path d="M10652 8168 c-18 -18 -14 -74 8 -118 11 -21 17 -45 14 -53 -7 -18 21 -47 46 -47 10 0 29 -13 43 -30 14 -16 53 -52 86 -80 54 -45 61 -55 61 -87 0 -31 31 -118 63 -180 12 -21 91 -106 142 -153 42 -38 76 -98 80 -141 5 -52 67 -162 122 -216 l44 -43 20 -147 c10 -82 19 -177 19 -213 0 -43 7 -80 20 -109 11 -23 17 -48 13 -53 -4 -7 -45 -9 -122 -4 -130 8 -144 10 -506 59 -143 20 -300 41 -350 46 -49 6 -164 20 -255 31 -91 11 -268 31 -395 45 -126 15 -284 32 -350 40 -66 8 -165 19 -220 25 -55 6 -219 24 -365 40 -725 81 -699 79 -744 50 -55 -34 -84 -93 -112 -231 -14 -67 -45 -204 -70 -303 -25 -100 -48 -211 -51 -248 l-6 -67 -28 14 c-32 17 -106 20 -129 5 -10 -6 -15 -28 -16 -67 -1 -32 -5 -70 -9 -84 -5 -18 -2 -31 10 -42 22 -23 53 -21 93 3 29 18 33 25 27 49 -12 55 57 52 100 -5 21 -27 33 -34 61 -34 30 0 34 -3 34 -25 0 -48 32 -156 49 -165 11 -6 26 -4 42 5 13 8 34 19 47 24 21 10 32 51 13 51 -42 0 -45 82 -3 88 17 3 26 -7 46 -47 14 -28 39 -71 56 -97 16 -26 32 -67 36 -92 4 -26 15 -64 25 -87 10 -22 19 -55 19 -72 0 -55 93 -143 134 -127 8 3 25 29 38 59 16 37 42 70 86 109 54 48 68 56 102 56 55 0 75 -31 65 -97 -11 -65 -14 -314 -4 -334 4 -8 33 -28 63 -43 31 -16 59 -32 61 -36 6 -10 136 -80 195 -105 25 -11 51 -28 58 -38 20 -26 87 -20 87 8 0 11 -12 25 -30 35 -16 8 -32 16 -34 17 -14 8 144 182 193 212 25 16 50 21 98 21 66 0 88 -10 88 -41 0 -9 8 -27 19 -40 16 -21 21 -22 36 -9 11 9 15 23 11 41 -6 32 5 36 107 38 54 2 85 9 147 37 43 18 87 34 98 34 11 0 42 -16 68 -35 27 -19 74 -47 104 -63 30 -16 82 -47 115 -69 86 -58 123 -75 153 -71 42 5 41 40 -3 85 l-35 36 35 29 c39 33 69 92 78 158 8 60 -31 174 -72 211 -37 34 -99 44 -396 65 -304 20 -404 30 -413 39 -4 3 3 15 16 25 18 15 34 18 70 14 219 -22 348 -36 407 -45 124 -18 238 -22 282 -10 78 21 168 135 213 271 34 101 29 96 115 95 l76 0 23 -50 c26 -56 74 -103 134 -131 46 -21 48 -27 28 -75 l-14 -34 -94 0 c-106 0 -135 -11 -204 -79 -47 -47 -67 -100 -83 -226 -14 -106 -30 -200 -41 -235 -5 -16 -14 -49 -20 -73 -9 -34 -17 -46 -41 -54 -47 -16 -39 -47 29 -101 74 -58 213 -142 321 -195 46 -23 94 -50 105 -60 23 -21 115 -83 269 -182 95 -61 154 -89 189 -90 9 0 34 -11 54 -25 67 -46 119 -34 108 25 -5 22 0 28 30 43 20 9 42 28 48 42 16 35 26 31 33 -12 3 -21 18 -69 31 -108 14 -38 32 -91 40 -117 19 -58 68 -105 194 -182 52 -32 124 -77 160 -101 36 -23 99 -62 140 -85 41 -24 93 -60 115 -80 92 -84 203 -145 282 -155 57 -8 79 8 70 52 -3 16 -12 64 -21 108 -14 72 -23 172 -55 565 -17 198 -30 417 -42 665 -24 498 -25 508 -72 602 -15 28 -35 73 -46 99 -47 117 -82 198 -145 325 -36 75 -66 145 -66 155 0 20 -14 60 -70 200 -48 121 -36 151 108 274 12 11 48 32 79 46 31 15 72 41 92 58 20 18 69 54 109 80 95 64 132 106 132 153 0 43 -33 99 -63 109 -34 11 -120 12 -273 4 -121 -6 -146 -10 -182 -30 -33 -19 -45 -32 -53 -64 -6 -21 -24 -63 -41 -92 -16 -29 -40 -83 -53 -119 -28 -77 -81 -154 -107 -155 -3 0 -20 11 -36 25 -25 21 -31 36 -42 102 -7 43 -17 89 -22 103 -5 14 -14 81 -19 149 -12 170 -32 228 -111 311 -33 36 -87 106 -119 155 -32 50 -70 106 -84 125 -55 76 -111 156 -123 180 -26 49 -131 113 -304 187 -21 9 -40 24 -44 35 -3 10 -25 28 -50 39 -24 12 -44 25 -44 30 0 15 -205 109 -237 109 -16 0 -34 -5 -41 -12z"/>
 <path d="M5236 7298 c-9 -17 -16 -38 -16 -48 0 -9 -4 -20 -8 -25 -19 -22 -34 -95 -28 -136 3 -24 8 -57 10 -74 7 -52 56 -218 83 -283 l27 -64 -24 -67 c-45 -132 -10 -248 98 -319 l56 -37 -55 -6 c-71 -7 -117 -28 -156 -72 -35 -40 -63 -123 -63 -186 0 -37 -2 -41 -25 -41 -40 0 -106 -68 -202 -208 -44 -64 -93 -186 -93 -233 0 -10 20 -56 43 -101 40 -76 44 -92 50 -178 4 -52 13 -122 22 -155 19 -78 19 -176 0 -222 l-15 -36 -128 7 c-70 3 -185 11 -257 16 -189 14 -591 12 -980 -5 -187 -8 -407 -15 -490 -16 -82 0 -188 -5 -235 -11 -47 -5 -112 -11 -145 -12 -106 -4 -166 -17 -163 -34 3 -15 34 -18 158 -13 8 0 69 -1 135 -3 66 -2 156 0 200 5 77 8 229 10 545 5 80 -1 150 -4 155 -6 6 -2 29 2 53 9 24 7 53 9 65 5 12 -4 139 -9 282 -10 334 -4 561 -15 610 -31 17 -6 90 -11 160 -12 11 0 38 -1 60 -2 181 -8 343 5 435 35 140 45 341 133 354 155 3 5 35 19 71 32 42 15 67 29 71 42 5 17 12 18 48 13 22 -4 87 -9 142 -13 l101 -6 47 43 c52 48 64 77 45 112 -7 12 -12 28 -10 33 1 6 4 28 6 50 1 22 6 56 10 77 6 30 4 38 -12 46 -10 5 -24 7 -31 5 -6 -3 -30 9 -51 26 -84 67 -188 89 -264 58 -45 -19 -123 -115 -154 -189 -21 -50 -26 -78 -25 -134 l2 -70 -35 -13 c-19 -7 -58 -33 -87 -59 -29 -26 -63 -55 -74 -65 -24 -20 -275 -80 -286 -69 -4 4 -10 109 -13 234 -5 211 -7 230 -29 281 -24 53 -59 90 -97 102 -25 8 -25 46 0 99 61 131 81 188 87 255 4 39 8 71 9 71 2 0 37 -16 79 -36 72 -35 80 -36 213 -41 145 -5 159 -3 283 47 129 52 171 63 194 51 16 -9 36 -9 85 3 35 8 68 19 74 25 7 7 16 7 29 0 24 -13 48 -5 48 15 0 19 34 30 57 18 10 -4 58 -7 107 -5 131 5 180 42 252 188 33 66 38 88 42 163 4 73 1 97 -19 155 l-24 68 21 37 c136 238 129 222 132 305 4 71 2 81 -23 117 -17 25 -40 44 -64 51 -25 9 -160 13 -466 15 -239 1 -486 7 -555 14 -69 7 -168 13 -220 14 -99 3 -173 25 -186 56 -12 30 -22 142 -15 168 16 55 -9 70 -33 20z"/>
 <path d="M0 5741 c0 -831 0 -853 19 -858 26 -7 31 -30 31 -151 0 -100 -1 -103 -25 -112 l-25 -10 0 -140 0 -140 23 5 c32 8 78 8 109 0 24 -6 28 -4 28 15 0 46 65 68 76 25 8 -31 31 -38 102 -29 l57 6 -27 -21 c-38 -30 -35 -49 8 -67 30 -13 45 -13 88 -4 28 7 67 14 86 16 19 2 44 8 55 13 20 9 97 31 107 31 3 0 8 -10 11 -21 5 -17 11 -20 29 -15 13 3 45 6 71 6 58 0 71 19 37 56 l-23 24 21 0 c12 0 31 -9 43 -21 23 -23 23 -23 154 16 92 27 225 45 305 40 40 -3 158 24 202 46 33 17 50 11 43 -13 -3 -13 -3 -18 2 -12 14 19 139 52 157 42 9 -5 30 -7 46 -3 32 7 105 -12 121 -32 6 -7 26 -13 44 -13 34 0 45 -13 45 -51 0 -10 7 -19 15 -19 8 0 15 7 15 15 0 23 45 37 75 23 18 -8 24 -17 20 -29 -8 -24 33 -35 76 -20 46 16 72 14 65 -4 -3 -9 0 -25 7 -35 9 -16 19 -19 44 -14 29 5 32 4 35 -23 3 -24 7 -28 33 -28 27 0 30 -3 28 -30 -3 -35 22 -65 54 -65 12 0 23 -4 23 -10 0 -5 -4 -10 -10 -10 -5 0 -10 -7 -10 -15 0 -8 5 -15 10 -15 6 0 10 -15 10 -34 0 -19 4 -38 10 -41 6 -3 10 -17 10 -31 0 -21 -4 -24 -20 -19 -20 6 -28 -9 -10 -20 19 -12 -2 -37 -26 -31 -19 5 -26 0 -39 -26 -23 -48 -66 -96 -72 -80 -2 6 -9 12 -15 12 -6 0 -7 -7 -4 -15 3 -9 -5 -34 -19 -55 -14 -22 -25 -49 -25 -60 0 -22 -26 -28 -33 -7 -3 10 -9 10 -26 0 -11 -7 -34 -13 -51 -13 -33 0 -41 -23 -14 -38 24 -13 9 -30 -31 -38 -42 -8 -55 -23 -26 -31 36 -9 24 -31 -21 -38 -29 -5 -53 -18 -78 -43 -19 -20 -44 -36 -55 -37 -12 -1 -23 -12 -27 -28 -5 -15 -12 -39 -16 -54 -6 -23 -13 -28 -41 -29 -30 0 -38 -7 -67 -51 -21 -34 -41 -53 -60 -57 -15 -4 -48 -24 -73 -44 -80 -65 -105 -75 -143 -59 -23 10 -40 28 -57 61 -13 26 -27 44 -31 39 -4 -4 -3 -43 2 -86 5 -44 7 -85 4 -93 -3 -8 -19 -14 -37 -14 -35 0 -129 -41 -170 -75 -24 -19 -114 -66 -181 -93 -21 -9 -28 -19 -29 -39 -2 -46 1 -57 22 -75 22 -19 25 -41 5 -57 -17 -14 -22 -8 -31 44 -4 22 -13 47 -20 55 -6 8 -15 23 -18 33 -12 32 -41 19 -63 -28 -17 -38 -19 -52 -11 -83 16 -59 -5 -90 -88 -134 -38 -20 -91 -44 -116 -52 -51 -16 -53 -17 -156 -69 -40 -20 -86 -37 -104 -37 -31 0 -31 0 -24 41 7 38 5 42 -33 75 -22 19 -50 54 -62 79 -21 43 -80 105 -101 105 -43 0 -189 -113 -189 -147 0 -8 -10 -29 -23 -46 -21 -30 -22 -43 -25 -229 l-3 -197 28 8 c15 5 53 17 83 26 101 30 183 67 411 181 227 114 312 146 433 160 37 5 68 15 85 29 35 29 66 45 89 45 10 0 106 25 213 55 107 31 222 62 255 70 34 7 93 23 130 35 99 31 360 109 419 125 93 25 412 123 501 154 49 17 118 36 154 42 68 11 93 26 116 71 10 19 27 31 54 38 22 5 59 15 83 21 83 23 212 49 337 68 30 5 75 13 100 19 116 27 230 45 395 63 44 5 109 13 145 19 36 6 142 17 235 25 94 8 217 19 274 24 57 6 107 9 111 6 5 -3 39 1 77 9 37 8 118 17 178 21 128 8 124 10 149 -79 10 -32 56 -134 103 -227 67 -132 97 -180 140 -224 48 -49 59 -56 82 -50 31 8 37 17 45 65 6 38 -22 150 -60 235 -14 32 -104 292 -104 300 0 7 62 24 105 30 57 7 333 71 373 86 43 16 209 59 312 80 129 26 330 27 420 2 65 -18 65 -18 120 -101 44 -67 68 -91 115 -120 l59 -37 190 2 c105 2 222 7 259 13 87 13 105 5 99 -47 -2 -21 -11 -44 -20 -51 -23 -17 -28 -140 -12 -298 14 -142 7 -214 -20 -214 -20 0 -93 -78 -117 -125 -9 -16 -28 -41 -43 -56 -15 -15 -39 -53 -54 -84 -25 -54 -26 -62 -21 -168 3 -61 9 -115 12 -120 3 -5 7 -114 8 -241 1 -148 7 -252 15 -289 10 -45 11 -68 2 -108 -23 -98 -10 -170 29 -157 15 5 48 85 48 119 1 15 8 40 16 55 8 16 15 43 15 59 1 69 73 315 92 315 7 0 8 -34 4 -97 -3 -54 -13 -309 -21 -568 -9 -258 -22 -634 -30 -835 -8 -201 -15 -391 -15 -422 l0 -58 2575 0 2575 0 0 70 c0 42 4 70 10 70 18 0 64 -27 108 -62 110 -87 56 -78 457 -78 245 0 354 3 350 10 -12 19 17 40 54 40 29 0 46 9 87 48 29 26 63 55 78 65 14 10 26 27 26 38 0 10 -27 70 -60 132 -45 84 -60 124 -60 154 0 29 -10 56 -39 100 -21 33 -44 64 -51 68 -22 14 -77 110 -95 167 -27 89 -47 114 -97 127 -24 5 -77 22 -118 35 -41 14 -106 34 -145 45 -228 65 -244 71 -262 97 -10 14 -49 60 -86 102 -37 42 -96 119 -131 172 l-64 97 -68 23 c-115 38 -146 55 -214 115 -99 88 -219 161 -400 246 -269 125 -501 255 -691 384 -88 60 -219 162 -219 171 0 2 18 -5 40 -16 21 -11 51 -20 65 -20 15 0 36 -5 48 -12 12 -6 50 -12 83 -12 46 -1 67 -6 83 -20 12 -11 27 -16 37 -12 11 4 27 -3 45 -20 15 -14 33 -24 41 -22 7 3 23 1 36 -3 27 -10 62 4 62 25 0 21 -41 42 -92 48 -28 3 -61 16 -80 30 -18 13 -53 30 -78 38 -83 25 -201 92 -187 106 3 3 61 1 129 -6 143 -14 301 -11 319 7 18 18 -7 43 -43 43 -16 0 -38 5 -49 11 -11 5 -68 17 -127 24 -130 18 -293 47 -387 69 -38 9 -97 23 -130 31 -33 8 -87 19 -120 26 -94 18 -284 79 -347 110 -62 31 -79 60 -59 97 18 34 14 99 -8 114 -11 8 -21 28 -23 47 -2 22 -12 41 -28 53 -34 25 -153 68 -219 79 -29 5 -69 16 -88 24 -20 8 -42 15 -51 15 -9 0 -27 14 -41 31 -18 21 -51 39 -106 58 -74 26 -213 94 -260 127 -11 8 -35 14 -55 15 -31 0 -33 1 -16 12 11 7 60 48 110 92 50 44 116 99 146 122 77 58 230 217 230 238 0 25 65 117 101 144 37 28 37 53 -2 84 -37 29 -34 53 8 63 54 11 56 13 49 45 -5 25 -2 32 14 36 11 3 20 9 20 14 0 5 8 9 19 9 23 0 45 25 36 40 -4 7 2 14 14 17 16 4 21 13 21 38 0 47 -23 63 -44 31 -9 -14 -16 -30 -16 -36 0 -5 -7 -10 -15 -10 -9 0 -24 -13 -33 -30 -9 -16 -23 -30 -29 -30 -19 0 -16 13 7 33 15 12 20 29 20 63 0 49 -15 88 -31 79 -5 -4 -27 -8 -49 -9 -37 -3 -70 -20 -70 -36 0 -4 -9 -28 -21 -54 -18 -42 -22 -45 -41 -35 -19 10 -25 7 -50 -20 -31 -35 -36 -75 -13 -101 12 -13 13 -23 6 -43 -14 -35 -28 -41 -57 -22 -31 20 -62 11 -70 -20 -3 -13 -17 -34 -31 -47 -14 -12 -40 -47 -59 -75 -19 -29 -38 -53 -43 -53 -4 0 -40 -38 -79 -85 -40 -47 -100 -108 -134 -136 -35 -29 -70 -59 -78 -69 -18 -19 -53 -40 -69 -40 -6 0 -11 9 -11 20 0 28 -37 59 -79 66 -62 10 -71 15 -87 45 -21 42 -54 79 -86 95 -40 21 -62 69 -62 137 -1 46 2 58 17 63 18 6 22 30 8 53 -7 10 -4 19 6 26 19 14 11 45 -12 45 -14 0 -17 -4 -19 -32 -1 -7 -12 -23 -26 -35 -22 -19 -24 -24 -12 -44 13 -20 12 -21 -8 -16 -17 4 -24 1 -27 -14 -3 -11 -26 -31 -52 -43 -25 -13 -55 -34 -66 -46 -29 -32 -108 -69 -163 -77 -26 -3 -64 -14 -84 -24 -21 -11 -48 -19 -61 -19 -13 0 -36 -9 -50 -20 -14 -11 -32 -20 -41 -20 -8 0 -27 -11 -42 -25 -15 -14 -31 -25 -37 -25 -6 0 -26 -12 -46 -27 -20 -16 -51 -30 -70 -33 -24 -3 -37 -11 -41 -25 -14 -52 -59 -89 -147 -121 -29 -10 -34 -9 -54 14 -20 23 -25 24 -94 19 -40 -4 -94 -12 -119 -19 -37 -10 -51 -10 -67 0 -16 10 -20 10 -26 -3 -4 -13 -14 -15 -47 -10 -22 3 -53 11 -68 16 -18 8 -33 7 -48 -1 -18 -10 -25 -9 -39 7 -10 10 -38 25 -62 32 -55 17 -109 37 -177 67 -29 13 -54 24 -57 24 -2 0 -20 11 -40 24 -29 20 -45 24 -99 21 -58 -2 -67 0 -88 22 -24 26 -79 53 -107 53 -9 0 -29 7 -45 15 -15 8 -35 15 -42 15 -8 0 -23 5 -34 12 -17 11 -24 7 -56 -31 -26 -30 -43 -41 -56 -38 -10 3 -24 0 -31 -7 -28 -27 -343 -136 -393 -136 -9 0 -37 -11 -63 -24 -66 -34 -115 -48 -145 -40 -17 4 -35 0 -50 -9 -24 -16 -100 -13 -123 5 -7 5 -17 7 -23 3 -5 -3 -10 1 -10 10 0 24 -25 28 -60 10 -27 -14 -37 -15 -55 -5 -17 9 -28 9 -43 1 -11 -6 -52 -11 -91 -11 -38 0 -72 -4 -75 -9 -12 -18 -137 -52 -170 -46 -19 4 -48 0 -71 -9 -65 -24 -130 -29 -145 -11 -16 19 -56 20 -64 0 -4 -11 -22 -15 -70 -15 -35 0 -87 -8 -116 -17 -41 -13 -55 -14 -68 -5 -33 24 -45 25 -91 8 -54 -19 -153 -21 -182 -3 -17 10 -22 9 -33 -5 -9 -13 -33 -18 -95 -22 -57 -4 -89 -10 -102 -21 -11 -10 -41 -18 -78 -21 -34 -2 -70 -8 -80 -14 -11 -5 -32 -10 -47 -10 -15 0 -35 -6 -43 -13 -13 -11 -135 -43 -273 -71 -70 -15 -84 -20 -104 -37 -11 -11 -47 -26 -80 -34 -32 -9 -81 -29 -108 -46 -50 -31 -65 -28 -66 11 0 33 -80 326 -123 451 -65 189 -90 255 -117 310 -17 32 -30 63 -30 69 0 33 -165 340 -253 470 -87 128 -110 159 -182 240 -102 116 -279 340 -302 382 -23 44 -111 125 -144 133 -19 5 -40 -4 -89 -38 -60 -40 -187 -114 -279 -162 -21 -11 -45 -25 -52 -31 -8 -7 -48 -30 -89 -52 -41 -22 -107 -58 -145 -80 -39 -22 -88 -47 -109 -56 -21 -9 -50 -26 -66 -39 -15 -13 -72 -46 -127 -72 -54 -26 -109 -55 -123 -65 -14 -10 -35 -20 -46 -24 -21 -6 -22 -4 -17 57 7 81 -13 126 -96 222 -33 39 -82 102 -107 140 -26 39 -67 90 -91 114 -24 24 -53 62 -64 83 l-20 40 23 56 c12 31 28 66 34 77 7 11 15 61 18 110 3 50 8 106 11 125 16 131 8 196 -35 280 -31 59 -105 132 -142 139 -27 5 -38 16 -60 56 -15 28 -27 61 -26 75 2 105 -3 174 -12 160 -8 -12 -10 -11 -10 7 0 12 -4 25 -10 28 -5 3 -7 19 -4 35 4 18 0 37 -10 51 -15 22 -16 -43 -16 -830z"/>
 <path d="M13345 5523 c-58 -8 -200 -55 -257 -85 -65 -35 -162 -124 -196 -183 -13 -21 -39 -75 -57 -120 -29 -70 -34 -97 -43 -220 -6 -77 -8 -171 -6 -208 4 -67 37 -192 54 -202 27 -17 21 -162 -20 -485 -10 -80 -24 -197 -30 -260 -7 -63 -15 -135 -20 -159 -12 -64 3 -94 70 -143 58 -42 121 -88 249 -180 36 -26 80 -55 96 -64 17 -9 60 -38 96 -65 112 -82 208 -103 253 -54 28 31 34 56 41 199 4 79 11 119 26 147 23 46 24 72 4 89 -8 7 -15 18 -15 24 0 6 -15 23 -34 38 -42 33 -65 98 -80 222 -11 85 -6 219 8 233 10 11 28 -13 35 -48 3 -18 18 -41 32 -52 l26 -19 46 34 c25 18 50 44 56 56 19 40 31 209 29 407 -3 200 -1 216 51 345 35 85 73 223 78 279 7 76 -12 167 -45 221 -23 38 -34 45 -62 48 -19 1 -70 5 -112 8 -65 5 -78 9 -83 25 -4 10 -15 24 -26 29 -10 6 -19 15 -19 20 0 22 -51 118 -66 124 -16 6 -27 6 -79 -1z"/>
 </g>
<g id="layer105" fill="#c6997a" stroke="none">
 <path d="M7616 9333 c-4 -21 -13 -114 -20 -208 -13 -157 -16 -174 -45 -229 -24 -45 -31 -70 -31 -116 0 -50 4 -63 37 -106 57 -78 95 -115 132 -131 30 -13 364 -68 487 -80 72 -7 111 9 209 85 50 40 139 95 218 135 74 37 146 80 160 95 15 16 35 53 45 83 20 63 22 64 130 23 61 -23 80 -36 123 -85 42 -49 60 -61 114 -79 36 -12 65 -27 65 -35 0 -7 -35 -24 -83 -39 -96 -29 -142 -57 -174 -105 -46 -67 -37 -148 19 -185 21 -14 213 -46 478 -81 58 -8 130 -19 160 -24 65 -12 241 -37 400 -56 148 -18 322 -42 398 -54 113 -18 176 21 176 108 0 85 -70 167 -297 350 -98 79 -98 93 -7 128 36 14 113 49 171 79 110 56 124 60 148 45 12 -8 11 -18 -8 -61 -38 -89 -6 -154 89 -180 34 -9 41 -16 50 -48 17 -63 45 -97 137 -168 48 -37 124 -102 168 -144 185 -175 269 -202 437 -139 46 17 115 41 154 54 109 34 134 58 183 177 23 55 56 121 74 146 63 88 67 96 67 150 0 59 -20 105 -74 166 -27 31 -43 41 -77 45 -51 7 -52 13 -20 105 30 85 28 98 -33 166 -38 42 -61 80 -76 123 -12 34 -27 77 -33 95 l-12 32 -2017 0 -2016 0 -6 -37z"/>
 <path d="M13311 9258 c-12 -62 -40 -207 -62 -323 -21 -115 -73 -379 -113 -585 -213 -1072 -217 -1100 -177 -1166 22 -36 77 -59 120 -51 14 3 159 67 321 142 399 185 754 345 1130 510 173 76 421 184 550 240 129 57 361 158 515 225 154 67 308 135 343 151 l62 30 0 469 0 470 -1333 0 -1333 0 -23 -112z"/>
 <path d="M10652 8168 c-7 -7 -12 -28 -12 -48 0 -63 86 -178 213 -283 51 -43 57 -52 57 -86 0 -60 54 -155 140 -246 100 -104 145 -170 165 -240 10 -33 44 -97 82 -153 61 -91 66 -102 75 -177 5 -44 23 -130 39 -191 16 -61 29 -131 29 -155 1 -24 7 -55 15 -69 8 -14 14 -33 15 -43 0 -15 -7 -16 -54 -11 -30 4 -67 2 -83 -3 -37 -13 -248 8 -410 42 -67 14 -140 25 -162 25 -22 0 -42 4 -45 9 -9 13 -228 46 -441 66 -38 4 -89 11 -113 16 -24 5 -105 16 -180 24 -143 16 -381 43 -612 70 -74 9 -202 22 -285 30 -82 9 -199 22 -260 29 -60 8 -162 20 -225 26 -63 6 -164 18 -225 26 -205 26 -249 16 -299 -68 -29 -50 -38 -83 -71 -273 -22 -130 -40 -204 -80 -345 -11 -37 -15 -76 -11 -117 3 -35 4 -63 2 -63 -2 0 -24 11 -47 25 -46 26 -111 33 -139 15 -10 -6 -15 -28 -16 -67 -1 -32 -5 -70 -9 -84 -5 -18 -2 -31 10 -42 22 -23 53 -21 93 3 29 18 33 24 27 50 -5 25 -3 30 17 35 25 7 78 -9 78 -23 0 -20 43 -52 70 -52 25 0 30 -4 30 -25 0 -48 32 -156 49 -165 11 -6 26 -4 42 5 13 8 34 19 47 24 21 10 32 51 13 51 -37 0 -46 71 -12 90 24 12 35 3 64 -57 15 -28 38 -68 52 -88 13 -20 27 -53 30 -74 4 -20 15 -61 26 -92 10 -31 19 -70 19 -87 0 -54 93 -142 134 -126 8 3 25 29 38 59 16 37 42 70 86 109 54 48 68 56 102 56 55 0 75 -31 65 -97 -13 -79 -13 -322 -1 -338 6 -7 33 -25 61 -40 27 -14 56 -31 65 -39 23 -19 118 -70 180 -97 30 -13 61 -31 68 -42 20 -26 87 -20 87 8 0 13 -12 25 -32 35 -18 8 -33 19 -33 23 0 20 72 117 121 161 93 84 76 80 360 70 l136 -5 82 36 c96 42 114 40 202 -26 30 -22 77 -46 105 -55 29 -8 63 -27 79 -44 16 -17 44 -33 64 -36 20 -4 41 -11 48 -16 23 -19 36 3 15 26 -21 22 -46 66 -40 70 2 1 16 10 31 20 33 21 77 111 77 159 0 41 -33 157 -54 189 -9 14 -28 30 -43 37 -14 7 -143 21 -287 31 -343 26 -478 38 -485 45 -3 3 13 24 35 46 l41 40 174 -15 c96 -9 237 -23 313 -32 225 -26 291 0 377 147 35 61 42 82 53 173 7 64 19 114 30 131 17 26 19 26 94 20 42 -4 80 -9 83 -11 3 -2 9 -37 12 -77 3 -45 13 -90 25 -114 25 -49 84 -102 144 -131 l46 -23 -22 -52 c-33 -81 -32 -80 -94 -74 -79 8 -152 -21 -218 -87 -51 -51 -51 -51 -64 -146 -7 -52 -26 -156 -41 -230 -16 -74 -29 -138 -29 -143 0 -4 -14 -21 -32 -37 -28 -26 -30 -32 -21 -53 21 -45 341 -237 395 -237 10 0 25 -12 35 -26 19 -30 290 -214 368 -250 53 -25 110 -29 198 -15 56 9 89 37 123 104 37 72 60 51 63 -58 1 -27 9 -68 17 -90 9 -22 27 -71 41 -110 13 -38 36 -82 51 -98 14 -15 78 -59 142 -98 63 -39 144 -89 180 -112 35 -23 100 -56 144 -73 64 -27 82 -38 92 -62 13 -32 95 -102 153 -131 20 -10 60 -24 89 -32 50 -12 54 -12 74 9 21 21 21 22 4 74 -19 59 -29 157 -51 478 -8 118 -22 280 -31 360 -9 80 -17 195 -18 255 -4 187 -26 597 -36 655 -6 30 -34 109 -64 175 -29 66 -63 147 -76 180 -12 33 -51 118 -87 188 -65 132 -93 199 -93 229 0 9 -23 62 -51 118 -60 118 -60 132 2 225 40 59 83 97 162 143 22 12 64 45 94 72 31 28 90 67 138 89 46 22 89 49 94 60 19 35 13 90 -13 116 -21 21 -30 23 -87 18 -35 -3 -116 -7 -179 -8 -140 -4 -178 -11 -208 -39 -30 -27 -104 -163 -130 -238 -24 -69 -79 -147 -104 -148 -3 0 -20 11 -36 25 -25 21 -31 36 -42 102 -7 43 -17 89 -22 103 -5 14 -14 81 -19 149 -12 170 -32 228 -111 311 -33 36 -87 106 -119 155 -32 50 -70 106 -84 125 -55 76 -111 156 -123 180 -26 49 -131 113 -304 187 -21 9 -40 24 -44 35 -3 10 -25 28 -50 39 -24 12 -44 25 -44 30 0 15 -205 109 -237 109 -16 0 -34 -5 -41 -12z"/>
 <path d="M5430 7009 c-82 -11 -102 -21 -130 -71 -28 -50 -22 -100 22 -178 l31 -55 -18 -88 c-22 -107 -16 -202 16 -253 11 -19 46 -52 77 -75 32 -22 57 -46 57 -52 0 -8 -27 -14 -75 -18 -42 -4 -89 -13 -106 -22 -106 -55 -152 -217 -87 -305 66 -89 314 -139 476 -97 176 46 337 184 337 290 0 21 -47 66 -99 94 l-55 30 35 15 c59 27 269 77 269 64 0 -13 -56 -108 -75 -128 -43 -45 -42 -73 2 -121 l40 -42 147 -15 c122 -12 155 -12 187 -2 75 25 172 155 192 257 11 58 -10 142 -54 214 l-41 69 41 45 c22 24 41 49 41 54 0 6 19 27 41 48 52 48 69 87 69 160 0 81 -15 127 -52 158 -36 30 -44 30 -263 1 -85 -12 -165 -15 -275 -12 -211 7 -479 24 -541 36 -59 11 -116 11 -209 -1z"/>
 <path d="M13318 5380 c-35 -33 -46 -37 -54 -16 -8 20 -44 17 -69 -5 -11 -10 -42 -23 -68 -29 -54 -12 -116 -56 -147 -104 -11 -17 -26 -40 -34 -51 -20 -27 -56 -165 -56 -214 0 -29 10 -54 40 -99 48 -72 49 -87 20 -367 -32 -315 -40 -373 -80 -585 -11 -63 -5 -224 11 -284 7 -27 27 -56 57 -85 44 -42 45 -44 33 -77 -11 -30 -10 -37 10 -63 22 -30 122 -105 229 -173 30 -19 75 -51 98 -71 32 -27 53 -37 78 -37 42 0 53 19 61 108 3 37 12 92 19 122 16 63 18 200 4 249 -39 137 -63 399 -45 493 4 20 8 49 9 65 4 47 29 143 37 143 9 0 52 -90 66 -135 9 -32 36 -44 58 -25 27 23 48 120 40 194 -7 78 -21 113 -45 121 -10 3 -25 26 -35 51 -15 40 -20 45 -41 40 -16 -4 -26 -2 -28 6 -36 121 -40 144 -37 213 l1 30 103 0 c61 1 111 6 125 13 32 18 87 135 101 214 21 124 -22 208 -108 208 -58 0 -127 -25 -166 -59 -45 -39 -86 -41 -121 -6 -22 22 -24 30 -18 77 3 29 10 68 16 87 8 24 7 39 -3 57 -16 31 -23 30 -61 -6z"/>
 <path d="M0 5178 c0 -177 6 -210 34 -173 21 29 47 -45 52 -153 3 -57 12 -115 24 -150 24 -67 25 -82 6 -82 -8 0 -28 -12 -45 -26 -17 -14 -39 -26 -51 -27 -19 -1 -20 -8 -20 -119 0 -118 0 -118 23 -113 32 8 78 8 110 0 23 -6 27 -4 27 15 0 46 65 68 76 25 8 -31 31 -38 102 -29 l57 6 -27 -21 c-38 -30 -35 -49 8 -67 30 -13 45 -13 88 -4 28 7 67 14 86 16 19 2 44 8 55 13 20 9 97 31 107 31 3 0 8 -10 11 -21 5 -17 11 -20 29 -15 13 3 45 6 71 6 58 0 71 19 37 56 l-23 24 21 0 c12 0 31 -9 43 -21 23 -23 23 -23 154 16 92 27 225 45 305 40 40 -3 158 24 202 46 33 17 50 11 43 -13 -3 -13 -3 -18 2 -12 14 19 139 52 157 42 9 -5 30 -7 46 -3 32 7 105 -12 121 -32 6 -7 26 -13 44 -13 34 0 45 -13 45 -51 0 -10 7 -19 15 -19 8 0 15 7 15 15 0 23 45 37 75 23 18 -8 24 -17 20 -29 -8 -24 33 -35 76 -20 46 16 72 14 65 -4 -3 -9 0 -25 7 -35 9 -16 19 -19 44 -14 29 5 32 4 35 -23 3 -24 7 -28 33 -28 27 0 30 -3 28 -30 -3 -35 22 -65 54 -65 12 0 23 -4 23 -10 0 -5 -4 -10 -10 -10 -5 0 -10 -7 -10 -15 0 -8 5 -15 10 -15 6 0 10 -15 10 -34 0 -19 5 -38 10 -41 6 -3 10 -17 10 -31 0 -21 -4 -24 -20 -19 -20 6 -28 -9 -10 -20 19 -12 -2 -37 -26 -31 -19 5 -26 0 -39 -26 -23 -48 -66 -96 -72 -80 -2 6 -9 12 -15 12 -6 0 -7 -7 -4 -15 3 -9 -5 -34 -19 -55 -14 -22 -25 -49 -25 -60 0 -22 -26 -28 -33 -7 -3 10 -9 10 -26 0 -11 -7 -34 -13 -51 -13 -33 0 -41 -23 -14 -38 24 -13 9 -30 -31 -38 -42 -8 -55 -23 -26 -31 36 -9 24 -31 -21 -38 -29 -5 -53 -18 -78 -43 -19 -20 -44 -36 -55 -37 -12 -1 -23 -12 -27 -28 -5 -15 -12 -39 -16 -54 -6 -23 -13 -28 -41 -29 -30 0 -38 -7 -67 -51 -21 -34 -41 -53 -60 -57 -15 -4 -48 -24 -73 -44 -80 -65 -105 -75 -143 -59 -23 10 -40 28 -57 61 -13 26 -27 44 -31 39 -4 -4 -3 -43 2 -86 5 -44 7 -85 4 -93 -3 -8 -19 -14 -37 -14 -35 0 -129 -41 -170 -75 -24 -19 -114 -66 -181 -93 -21 -9 -28 -19 -29 -39 -2 -46 1 -57 22 -75 22 -19 25 -41 5 -57 -17 -14 -22 -8 -31 44 -4 22 -13 47 -20 55 -6 8 -15 23 -18 33 -12 32 -41 19 -63 -28 -17 -38 -19 -52 -11 -83 16 -59 -5 -90 -88 -134 -38 -20 -91 -44 -116 -52 -51 -16 -53 -17 -156 -69 -40 -20 -86 -37 -104 -37 -31 0 -31 0 -24 41 7 38 5 42 -33 75 -22 19 -50 54 -62 79 -21 43 -80 105 -101 105 -43 0 -189 -113 -189 -147 0 -8 -10 -29 -22 -46 -22 -30 -23 -44 -26 -224 -3 -145 -1 -193 8 -193 7 0 60 16 119 35 97 33 249 103 521 240 109 55 238 95 308 95 31 0 52 8 86 35 26 19 53 35 62 35 9 0 100 23 203 52 102 28 233 63 291 79 107 27 183 50 255 74 40 13 86 27 225 66 41 12 138 41 215 64 77 24 201 62 275 85 74 23 155 48 179 56 25 8 58 14 73 14 42 0 65 16 87 59 19 36 23 38 103 55 46 10 101 22 123 27 39 10 111 24 272 53 46 8 97 19 115 24 18 6 110 20 203 31 94 12 197 26 230 31 120 18 223 30 355 40 74 6 203 17 285 25 288 28 450 38 478 32 20 -5 27 -14 27 -30 0 -48 112 -247 151 -268 11 -6 23 -9 25 -6 3 3 5 36 6 75 0 79 -20 152 -58 203 l-25 34 28 11 c15 6 80 21 143 33 122 23 203 43 395 96 347 96 535 117 693 76 41 -11 77 -22 80 -26 3 -3 29 -40 57 -82 86 -132 157 -170 300 -160 300 21 418 28 422 23 3 -2 0 -141 -6 -308 -6 -167 -16 -449 -21 -628 -6 -179 -17 -521 -25 -760 -8 -239 -20 -595 -25 -790 -6 -195 -15 -443 -20 -550 -5 -107 -10 -232 -10 -277 l0 -83 2560 0 2560 0 0 83 c0 45 4 88 9 96 11 17 40 -1 128 -76 33 -29 64 -53 67 -53 4 0 24 -11 46 -25 l40 -25 298 0 299 0 -12 48 c-47 176 -122 262 -230 262 -57 0 -125 -77 -125 -142 0 -49 -17 -43 -68 25 -58 78 -104 161 -150 272 -22 55 -56 136 -75 180 -43 104 -60 204 -56 333 3 86 7 105 22 113 33 19 20 63 -43 139 -21 25 -63 79 -93 120 -99 135 -106 140 -212 190 -64 30 -120 65 -155 97 -84 76 -200 150 -339 215 -401 188 -688 356 -907 529 -124 99 -314 261 -314 269 0 4 26 1 58 -7 112 -27 129 -28 137 -3 9 29 -3 39 -51 46 -21 3 -56 12 -77 20 -54 20 -88 18 -94 -6 -3 -11 -7 -20 -10 -20 -3 0 -28 20 -56 45 -42 36 -70 51 -151 76 -55 17 -130 46 -166 64 -60 30 -223 145 -236 167 -10 16 2 18 35 7 38 -13 48 -8 25 15 -11 12 -31 16 -65 15 -37 -2 -56 3 -86 23 -238 158 -316 208 -358 232 -111 62 -315 196 -315 206 0 4 19 13 43 19 33 8 65 33 155 121 112 109 113 110 110 152 -4 54 -30 63 -53 19 -11 -22 -23 -31 -41 -31 -14 0 -37 -9 -50 -19 -36 -28 -93 -35 -129 -17 -46 24 -94 20 -144 -14 -51 -35 -71 -38 -71 -10 0 28 -37 59 -79 66 -62 10 -71 15 -87 45 -21 42 -54 79 -86 95 -40 21 -62 69 -62 137 -1 46 2 58 17 63 18 6 22 30 8 53 -7 10 -4 19 6 26 19 14 11 45 -12 45 -14 0 -17 -4 -19 -32 -1 -7 -12 -23 -26 -35 -22 -19 -24 -24 -12 -44 13 -20 12 -21 -8 -16 -17 4 -24 1 -27 -14 -3 -11 -26 -31 -52 -43 -25 -13 -55 -34 -66 -46 -29 -32 -108 -69 -163 -77 -26 -3 -64 -14 -84 -24 -21 -11 -48 -19 -61 -19 -13 0 -36 -9 -50 -20 -14 -11 -32 -20 -41 -20 -8 0 -27 -11 -42 -25 -15 -14 -31 -25 -37 -25 -6 0 -26 -12 -46 -27 -20 -16 -51 -30 -70 -33 -24 -3 -37 -11 -41 -25 -14 -52 -59 -89 -147 -121 -29 -10 -34 -9 -54 14 -20 23 -25 24 -94 19 -40 -4 -94 -12 -119 -19 -37 -10 -51 -10 -67 0 -16 10 -20 10 -26 -3 -4 -13 -14 -15 -47 -10 -22 3 -53 11 -68 16 -18 8 -33 7 -48 -1 -18 -10 -25 -9 -39 7 -10 10 -38 25 -62 32 -55 17 -109 37 -177 67 -29 13 -54 24 -57 24 -2 0 -20 11 -40 24 -29 20 -45 24 -99 21 -58 -2 -67 0 -88 22 -24 26 -79 53 -107 53 -9 0 -29 7 -45 15 -15 8 -35 15 -42 15 -8 0 -23 5 -34 12 -17 11 -24 7 -56 -31 -26 -30 -43 -41 -56 -38 -10 3 -24 0 -31 -7 -28 -27 -343 -136 -393 -136 -9 0 -37 -11 -63 -24 -66 -34 -115 -48 -145 -40 -17 4 -35 0 -50 -9 -24 -16 -100 -13 -123 5 -7 5 -17 7 -23 3 -5 -3 -10 1 -10 10 0 24 -25 28 -60 10 -27 -14 -37 -15 -55 -5 -17 9 -28 9 -43 1 -11 -6 -52 -11 -91 -11 -38 0 -72 -4 -75 -9 -12 -18 -137 -52 -170 -46 -19 4 -48 0 -71 -9 -65 -24 -130 -29 -145 -11 -16 19 -56 20 -64 0 -4 -11 -22 -15 -70 -15 -35 0 -87 -8 -116 -17 -41 -13 -55 -14 -68 -5 -33 24 -45 25 -91 8 -54 -19 -153 -21 -182 -3 -17 10 -22 9 -33 -5 -9 -13 -33 -18 -95 -22 -57 -4 -89 -10 -102 -21 -11 -10 -41 -18 -78 -21 -34 -2 -70 -8 -80 -14 -11 -5 -32 -10 -47 -10 -15 0 -35 -6 -43 -13 -13 -11 -138 -44 -276 -72 -68 -14 -81 -18 -101 -36 -11 -11 -47 -26 -80 -34 -32 -9 -81 -29 -108 -46 -50 -31 -65 -28 -66 11 0 33 -80 326 -123 451 -65 189 -90 255 -117 310 -17 32 -30 63 -30 69 0 33 -165 340 -253 470 -87 128 -110 159 -182 240 -94 107 -278 339 -295 371 -7 13 -37 50 -68 82 -71 72 -100 75 -182 18 -57 -40 -325 -194 -578 -332 -81 -45 -176 -98 -212 -120 -109 -65 -543 -277 -575 -281 -47 -5 -37 22 23 62 31 21 65 55 83 83 16 26 35 50 42 52 7 2 24 6 40 9 38 9 67 41 67 74 0 19 -15 44 -51 82 -50 53 -81 95 -125 167 -35 56 -85 102 -159 145 -38 22 -93 58 -122 79 -55 41 -73 47 -73 27 0 -9 -4 -8 -10 2 -6 10 -10 -44 -10 -162z"/>
 </g>
<g id="layer106" fill="#b3aba4" stroke="none">
 <path d="M7616 9333 c-4 -21 -13 -114 -20 -208 -13 -157 -16 -174 -45 -229 -24 -45 -31 -70 -31 -116 0 -50 4 -63 37 -106 57 -78 95 -115 132 -131 30 -13 364 -68 487 -80 72 -7 111 9 209 85 50 40 139 95 218 135 74 37 146 80 160 95 15 16 35 53 45 83 20 63 22 64 130 23 61 -23 80 -36 123 -85 42 -49 60 -61 114 -79 36 -12 65 -27 65 -35 0 -7 -35 -24 -83 -39 -96 -29 -142 -57 -174 -105 -46 -67 -37 -148 19 -185 21 -14 213 -46 478 -81 58 -8 130 -19 160 -24 65 -12 241 -37 400 -56 148 -18 322 -42 398 -54 113 -18 162 16 162 112 0 93 -60 167 -283 346 -98 79 -98 93 -7 128 36 14 113 49 171 79 110 56 124 60 148 45 12 -8 11 -18 -8 -61 -38 -89 -6 -154 89 -180 34 -9 41 -16 50 -48 17 -63 45 -97 137 -168 48 -37 124 -102 168 -144 185 -175 269 -202 437 -139 46 17 115 41 154 54 109 34 134 58 183 177 23 55 56 121 74 146 63 88 67 96 67 150 0 59 -20 105 -74 166 -27 31 -43 41 -77 45 -51 7 -52 13 -20 105 30 85 28 98 -33 166 -38 42 -61 80 -76 123 -12 34 -27 77 -33 95 l-12 32 -2017 0 -2016 0 -6 -37z"/>
 <path d="M13311 9258 c-12 -62 -40 -207 -62 -323 -21 -115 -73 -379 -113 -585 -213 -1072 -217 -1100 -177 -1166 22 -36 77 -59 120 -51 14 3 159 67 321 142 399 185 754 345 1130 510 173 76 421 184 550 240 129 57 361 158 515 225 154 67 308 135 343 151 l62 30 0 469 0 470 -1333 0 -1333 0 -23 -112z"/>
 <path d="M10988 7848 c-24 -37 -48 -119 -48 -162 0 -51 28 -96 120 -191 89 -92 135 -161 155 -229 17 -57 116 -217 154 -248 14 -12 21 -29 21 -54 0 -20 7 -63 16 -96 8 -33 12 -73 9 -88 -3 -15 1 -55 9 -88 9 -33 16 -79 16 -103 1 -24 7 -55 15 -69 8 -14 14 -33 15 -43 0 -15 -7 -16 -54 -11 -30 4 -67 2 -83 -3 -37 -13 -248 8 -410 42 -67 14 -140 25 -162 25 -22 0 -42 4 -45 9 -9 13 -228 46 -441 66 -38 4 -89 11 -113 16 -24 5 -105 16 -180 24 -143 16 -381 43 -612 70 -74 9 -202 22 -285 30 -82 9 -199 22 -260 29 -60 8 -162 20 -225 26 -63 6 -164 18 -225 26 -205 26 -249 16 -299 -68 -29 -50 -38 -83 -71 -273 -22 -130 -40 -204 -80 -345 -11 -37 -15 -76 -11 -117 3 -35 4 -63 2 -63 -2 0 -24 11 -47 25 -48 27 -105 32 -133 12 -15 -11 -16 -22 -10 -75 9 -82 22 -92 68 -51 32 28 42 31 78 26 24 -3 48 -13 55 -24 35 -49 43 -53 92 -53 44 0 49 -2 44 -20 -6 -22 12 -50 31 -50 7 0 21 8 32 19 29 27 59 41 71 33 6 -4 22 -30 36 -59 15 -28 38 -68 52 -88 13 -20 27 -53 30 -74 4 -20 15 -61 26 -92 10 -31 19 -70 19 -87 0 -54 93 -142 134 -126 8 3 25 29 38 59 16 37 42 70 86 109 54 48 68 56 102 56 55 0 75 -31 65 -97 -13 -79 -13 -322 -1 -338 6 -7 36 -27 66 -43 30 -16 79 -44 109 -61 64 -38 147 -71 179 -71 16 0 33 17 66 68 39 61 118 144 171 178 22 14 79 16 286 8 l136 -5 82 36 c96 42 114 40 202 -26 30 -22 77 -46 105 -55 29 -8 63 -27 79 -44 16 -17 44 -33 64 -36 20 -4 41 -11 48 -16 23 -19 36 3 15 26 -21 22 -46 66 -40 70 2 1 16 10 31 20 33 21 77 111 77 159 0 41 -33 157 -54 189 -9 14 -28 30 -43 37 -14 7 -143 21 -287 31 -343 26 -478 38 -485 45 -3 3 13 24 35 46 l41 40 174 -15 c96 -9 237 -23 313 -32 225 -26 291 0 377 147 35 61 42 82 53 173 7 64 19 114 30 131 17 26 19 26 94 20 42 -4 80 -9 83 -11 3 -2 9 -37 12 -77 3 -45 13 -90 25 -114 25 -49 84 -102 144 -131 l46 -23 -22 -52 c-33 -81 -32 -80 -94 -74 -79 8 -152 -21 -218 -87 -51 -51 -51 -51 -64 -146 -7 -52 -26 -156 -41 -230 -16 -74 -29 -138 -29 -143 0 -4 -14 -21 -32 -37 -28 -26 -30 -32 -21 -53 21 -45 341 -237 395 -237 10 0 25 -12 35 -26 19 -30 290 -214 368 -250 53 -25 110 -29 198 -15 56 9 89 37 123 104 37 72 60 51 63 -58 1 -27 9 -68 17 -90 9 -22 27 -71 41 -110 13 -38 36 -82 51 -98 14 -15 78 -59 142 -98 63 -39 144 -89 180 -112 35 -23 100 -56 144 -73 64 -27 82 -38 92 -62 13 -32 95 -102 153 -131 20 -10 60 -24 89 -32 50 -12 54 -12 74 9 21 21 21 22 4 74 -19 59 -29 157 -51 478 -8 118 -22 280 -31 360 -9 80 -17 195 -18 255 -4 187 -26 597 -36 655 -6 30 -34 109 -64 175 -29 66 -63 147 -76 180 -12 33 -51 118 -87 188 -65 132 -93 199 -93 229 0 9 -23 62 -51 118 -60 118 -60 132 2 225 40 59 83 97 162 143 22 12 64 45 94 72 31 28 90 67 138 89 46 22 89 49 94 60 19 35 13 90 -13 116 -21 21 -30 23 -87 18 -35 -3 -116 -7 -179 -8 -140 -4 -178 -11 -208 -39 -29 -26 -105 -164 -127 -231 -18 -54 -72 -141 -93 -150 -7 -2 -26 2 -42 10 -16 8 -35 15 -43 15 -64 0 -121 178 -118 363 3 142 -13 182 -105 272 -41 40 -74 75 -74 80 0 8 -77 131 -111 175 -10 14 -40 61 -66 105 -97 165 -143 197 -304 210 -72 5 -77 4 -91 -17z"/>
 <path d="M5430 7009 c-82 -11 -102 -21 -130 -71 -28 -50 -22 -100 22 -178 l31 -55 -18 -88 c-22 -107 -16 -202 16 -253 11 -19 46 -52 77 -75 32 -22 57 -46 57 -52 0 -8 -27 -14 -75 -18 -42 -4 -89 -13 -106 -22 -106 -55 -152 -217 -87 -305 66 -89 314 -139 476 -97 176 46 337 184 337 290 0 21 -47 66 -99 94 l-55 30 35 15 c59 27 269 77 269 64 0 -13 -56 -108 -75 -128 -43 -45 -42 -73 2 -121 l40 -42 147 -15 c122 -12 155 -12 187 -2 75 25 172 155 192 257 11 58 -10 142 -54 214 l-41 69 41 45 c22 24 41 49 41 54 0 6 19 27 41 48 52 48 69 87 69 160 0 81 -15 127 -52 158 -36 30 -44 30 -263 1 -85 -12 -165 -15 -275 -12 -211 7 -479 24 -541 36 -59 11 -116 11 -209 -1z"/>
 <path d="M13318 5380 c-35 -33 -46 -37 -54 -16 -8 20 -44 17 -69 -5 -11 -10 -42 -23 -68 -29 -54 -12 -116 -56 -147 -104 -11 -17 -26 -40 -34 -51 -20 -27 -56 -165 -56 -214 0 -29 10 -54 40 -99 48 -72 49 -87 20 -367 -32 -315 -40 -373 -80 -585 -11 -63 -5 -224 11 -284 7 -27 27 -56 57 -85 44 -42 45 -44 33 -77 -11 -30 -10 -37 10 -63 22 -30 122 -105 229 -173 30 -19 75 -51 98 -71 32 -27 53 -37 78 -37 42 0 53 19 61 108 3 37 12 92 19 122 16 63 18 200 4 249 -39 137 -63 399 -45 493 4 20 8 49 9 65 4 47 29 143 37 143 9 0 52 -90 66 -135 9 -32 36 -44 58 -25 27 23 48 120 40 194 -7 78 -21 113 -45 121 -10 3 -25 26 -35 51 -15 40 -20 45 -41 40 -16 -4 -26 -2 -28 6 -36 121 -40 144 -37 213 l1 30 103 0 c61 1 111 6 125 13 32 18 87 135 101 214 21 124 -22 208 -108 208 -58 0 -127 -25 -166 -59 -45 -39 -86 -41 -121 -6 -22 22 -24 30 -18 77 3 29 10 68 16 87 8 24 7 39 -3 57 -16 31 -23 30 -61 -6z"/>
 <path d="M8340 4025 c-36 -19 -83 -39 -105 -45 -96 -25 -122 -35 -156 -62 -20 -15 -48 -28 -63 -28 -15 0 -30 -8 -35 -19 -7 -12 -27 -21 -56 -25 -39 -6 -49 -13 -70 -47 -14 -21 -32 -39 -39 -39 -8 0 -23 -10 -33 -23 -10 -12 -36 -33 -58 -46 -22 -14 -56 -41 -75 -62 -46 -51 -104 -70 -167 -57 -27 6 -58 19 -70 30 -20 19 -27 19 -85 10 -35 -6 -113 -12 -174 -14 -95 -3 -115 0 -131 15 -11 9 -28 17 -39 17 -39 0 -105 27 -120 48 -8 12 -24 22 -35 22 -22 0 -61 18 -113 54 -27 18 -55 25 -123 30 -94 8 -109 14 -165 70 -50 50 -87 48 -225 -8 -109 -45 -405 -146 -427 -146 -6 0 -47 -12 -91 -26 -44 -14 -100 -29 -125 -34 -25 -5 -67 -14 -95 -20 -27 -6 -97 -13 -155 -15 -58 -3 -126 -9 -151 -14 -26 -6 -87 -10 -135 -9 -49 0 -102 -5 -118 -11 -15 -6 -49 -11 -75 -10 -25 1 -55 -3 -66 -9 -18 -10 -144 -24 -370 -41 -49 -4 -98 -11 -108 -15 -10 -5 -23 -4 -30 2 -16 13 -125 10 -152 -5 -19 -10 -186 -29 -284 -32 -25 -1 -49 -5 -55 -9 -6 -3 -33 -7 -61 -8 -28 -1 -68 -11 -90 -22 -22 -11 -87 -28 -145 -37 -58 -9 -127 -23 -155 -31 -27 -7 -77 -20 -110 -28 -126 -30 -219 -58 -248 -72 -31 -17 -46 -8 -47 26 0 41 -106 417 -126 447 -8 12 -14 33 -14 45 0 13 -8 37 -18 53 -10 17 -24 53 -32 80 -18 66 -37 105 -54 105 -27 0 -39 -30 -38 -98 0 -37 -6 -80 -13 -97 -8 -16 -16 -38 -19 -47 -3 -10 -26 -27 -51 -39 -48 -23 -54 -33 -29 -47 24 -14 1 -52 -31 -52 -23 0 -25 4 -25 48 0 89 -52 113 -64 30 -10 -63 -17 -72 -49 -57 -23 10 -30 9 -46 -5 -10 -9 -35 -18 -54 -19 -20 -1 -44 -10 -55 -20 -10 -9 -33 -17 -50 -17 -37 0 -53 -19 -23 -27 36 -9 24 -31 -21 -38 -29 -5 -53 -18 -78 -43 -19 -20 -44 -36 -55 -37 -19 -2 -22 -7 -44 -85 -5 -20 -13 -25 -40 -26 -30 0 -38 -7 -67 -51 -21 -34 -41 -53 -60 -57 -15 -4 -48 -24 -73 -44 -80 -65 -105 -75 -143 -59 -23 10 -40 28 -57 61 -13 26 -27 44 -31 39 -4 -4 -3 -43 2 -86 5 -44 7 -85 4 -93 -3 -8 -19 -14 -37 -14 -35 0 -129 -41 -170 -75 -24 -19 -114 -66 -181 -93 -21 -9 -28 -19 -29 -39 -2 -46 1 -57 22 -75 22 -19 25 -41 5 -57 -17 -14 -22 -8 -31 44 -4 22 -13 47 -20 55 -6 8 -15 23 -18 33 -12 32 -41 19 -63 -28 -17 -38 -19 -52 -11 -83 16 -59 -5 -90 -88 -134 -38 -20 -91 -44 -116 -52 -51 -16 -53 -17 -156 -69 -40 -20 -86 -37 -104 -37 -31 0 -31 0 -24 41 7 38 5 42 -33 75 -22 19 -50 54 -62 79 -21 43 -80 105 -101 105 -43 0 -189 -113 -189 -147 0 -8 -10 -29 -22 -46 -22 -30 -23 -44 -26 -224 -3 -145 -1 -193 8 -193 7 0 60 16 119 35 97 33 249 103 521 240 109 55 238 95 308 95 31 0 52 8 86 35 26 19 53 35 62 35 9 0 100 23 203 52 102 28 233 63 291 79 107 27 183 50 255 74 40 13 86 27 225 66 41 12 138 41 215 64 77 24 201 62 275 85 74 23 155 48 179 56 25 8 58 14 73 14 42 0 65 16 87 59 19 36 23 38 103 55 46 10 101 22 123 27 39 10 111 24 272 53 46 8 97 19 115 24 18 6 110 20 203 31 94 12 197 26 230 31 120 18 223 30 355 40 74 6 203 17 285 25 288 28 450 38 478 32 20 -5 27 -14 27 -30 0 -48 112 -247 151 -268 11 -6 23 -9 25 -6 3 3 5 36 6 75 0 79 -20 152 -58 203 l-25 34 28 11 c15 6 80 21 143 33 122 23 203 43 395 96 347 96 535 117 693 76 41 -11 77 -22 80 -26 3 -3 29 -40 57 -82 86 -132 157 -170 300 -160 300 21 418 28 422 23 3 -2 0 -141 -6 -308 -6 -167 -16 -449 -21 -628 -6 -179 -17 -521 -25 -760 -8 -239 -20 -595 -25 -790 -6 -195 -15 -443 -20 -550 -5 -107 -10 -232 -10 -277 l0 -83 2560 0 2560 0 0 83 c0 45 4 88 9 96 11 17 40 -1 128 -76 33 -29 64 -53 67 -53 4 0 24 -11 46 -25 l40 -25 298 0 299 0 -12 48 c-47 176 -122 262 -230 262 -57 0 -125 -77 -125 -142 0 -49 -17 -43 -68 25 -58 78 -104 161 -150 272 -22 55 -56 136 -75 180 -43 104 -60 204 -56 333 3 86 7 105 22 113 33 19 20 63 -43 139 -21 25 -63 79 -93 120 -99 135 -106 140 -212 190 -64 30 -120 65 -155 97 -84 76 -200 150 -339 215 -401 188 -688 356 -907 529 -124 99 -314 261 -314 269 0 4 26 1 58 -7 112 -27 129 -28 137 -3 9 29 -3 39 -51 46 -21 3 -56 12 -77 20 -54 20 -88 18 -94 -6 -3 -11 -7 -20 -10 -20 -3 0 -28 20 -56 45 -42 36 -70 51 -151 76 -55 17 -130 46 -166 64 -60 30 -223 145 -236 167 -10 16 2 18 35 7 38 -13 48 -8 25 15 -11 12 -31 16 -65 15 -37 -2 -56 3 -86 23 -238 158 -316 208 -358 232 -111 62 -315 196 -315 206 0 4 19 13 43 19 33 8 65 33 155 121 112 109 113 110 110 152 -4 54 -30 63 -53 19 -11 -22 -23 -31 -41 -31 -14 0 -37 -9 -50 -19 -36 -28 -93 -35 -129 -17 -44 23 -96 20 -134 -8 -18 -13 -46 -30 -62 -36 -26 -11 -33 -10 -52 7 -26 25 -80 53 -100 53 -26 0 -93 57 -146 124 -28 37 -63 71 -77 76 -13 5 -24 14 -24 20 0 18 -40 50 -62 50 -13 -1 -52 -16 -88 -35z"/>
 </g>
<g id="layer107" fill="#edeae7" stroke="none">
 <path d="M7641 9268 c-6 -57 -16 -146 -21 -198 -6 -69 -16 -112 -36 -155 -28 -61 -41 -144 -30 -188 9 -39 103 -143 144 -160 38 -16 386 -78 479 -85 66 -5 133 24 218 94 35 29 117 78 196 116 90 44 145 78 164 99 25 31 27 38 23 116 -1 46 -2 83 0 83 2 0 34 -17 70 -39 37 -21 89 -46 116 -57 30 -11 74 -41 110 -75 61 -56 112 -89 139 -89 21 0 48 -35 41 -54 -4 -10 -39 -26 -91 -42 -67 -20 -93 -34 -128 -67 -71 -68 -71 -158 -1 -194 28 -15 291 -59 496 -83 47 -6 110 -15 140 -20 116 -20 191 -30 385 -55 110 -14 241 -32 291 -40 140 -23 167 -21 198 16 33 38 36 111 7 167 -22 42 -138 151 -253 236 -112 82 -107 109 32 166 41 17 109 51 151 75 56 32 89 45 117 45 41 0 62 14 62 42 0 10 11 23 24 28 29 11 48 42 44 73 -3 20 2 22 67 28 95 9 156 28 256 83 47 25 93 46 102 46 33 0 47 -29 47 -97 0 -65 -1 -67 -44 -107 -24 -23 -56 -63 -71 -89 -39 -68 -84 -100 -129 -92 -19 4 -51 2 -71 -5 -35 -12 -36 -11 -79 34 -51 56 -79 59 -102 14 -9 -18 -25 -44 -35 -57 -41 -52 -6 -141 55 -141 29 0 56 -33 56 -68 0 -49 40 -102 133 -176 50 -40 132 -110 181 -155 115 -106 157 -130 237 -137 56 -5 75 -2 149 26 111 41 158 57 195 65 51 11 125 98 163 191 17 44 50 105 73 135 40 53 41 55 37 125 -5 109 -58 174 -142 174 -17 0 -41 6 -51 14 -18 13 -18 18 -6 67 8 30 20 63 27 74 30 43 18 77 -51 145 -48 47 -68 76 -75 105 -6 22 -18 64 -27 93 l-17 52 -1583 0 c-953 0 -1583 -4 -1583 -9 0 -5 4 -11 8 -13 4 -1 20 -25 36 -51 15 -27 70 -92 122 -144 52 -53 92 -98 90 -100 -2 -2 -20 3 -40 11 -67 28 -119 30 -171 7 -26 -12 -51 -21 -56 -21 -15 0 -49 92 -77 207 l-27 113 -336 0 -336 0 -12 -102z"/>
 <path d="M13347 9348 c-34 -163 -122 -606 -136 -693 -5 -33 -28 -148 -51 -255 -23 -107 -59 -287 -80 -400 -21 -113 -48 -248 -59 -300 -67 -323 -85 -465 -62 -508 18 -34 68 -55 111 -48 21 3 87 29 146 57 277 130 710 325 1249 561 161 70 363 161 790 356 127 57 271 121 320 142 82 35 294 131 388 176 l37 18 0 458 0 458 -1324 0 -1324 0 -5 -22z"/>
 <path d="M8194 6791 c-86 -39 -143 -150 -145 -281 0 -61 -17 -172 -44 -293 -26 -121 -11 -232 38 -273 28 -24 37 -26 87 -20 30 3 67 8 81 12 35 8 43 -15 24 -69 -25 -72 -18 -98 55 -213 16 -26 32 -67 36 -93 4 -25 15 -64 26 -85 13 -25 18 -49 14 -68 -5 -24 1 -36 35 -73 23 -24 50 -47 61 -51 26 -8 49 15 63 61 7 22 33 54 79 95 75 65 104 78 145 64 39 -14 51 -49 39 -114 -6 -30 -7 -88 -4 -129 4 -45 1 -89 -6 -113 -10 -34 -9 -42 8 -65 11 -15 41 -38 66 -52 25 -14 74 -42 109 -62 35 -21 87 -44 115 -52 45 -13 55 -13 72 -1 25 17 75 101 69 117 -2 8 -27 12 -68 12 l-64 0 3 34 c3 37 -20 81 -43 81 -8 0 -26 5 -40 12 l-25 11 1 146 c1 167 11 268 23 236 42 -109 68 -146 127 -176 22 -11 39 -22 39 -25 0 -3 -7 -19 -16 -35 -14 -28 -14 -33 1 -56 22 -33 73 -53 135 -53 39 0 55 -5 72 -22 25 -25 107 -35 305 -37 89 -1 114 3 193 30 108 36 116 35 240 -27 114 -57 135 -57 182 0 66 78 62 185 -10 263 l-39 42 -179 0 c-98 0 -231 3 -294 6 -71 4 -147 1 -198 -6 -45 -7 -85 -9 -88 -6 -4 4 27 44 67 89 41 46 96 109 123 140 55 66 71 73 123 58 37 -11 63 -15 278 -40 55 -6 117 -16 138 -21 27 -7 55 -7 94 1 69 15 118 57 163 141 32 61 33 63 34 208 1 81 6 152 10 160 19 31 80 45 207 46 l127 2 11 -36 c8 -28 7 -47 -4 -85 -21 -68 -19 -171 4 -221 22 -50 93 -116 160 -150 28 -14 51 -28 51 -32 0 -4 -9 -26 -20 -49 -12 -23 -25 -67 -30 -98 -13 -82 7 -131 91 -221 69 -75 120 -162 158 -270 11 -32 38 -88 60 -125 46 -77 76 -148 67 -157 -4 -4 -32 18 -64 49 -112 110 -200 116 -305 19 -69 -64 -69 -212 1 -279 47 -45 238 -173 282 -189 52 -18 125 -16 168 6 73 38 99 75 128 179 5 19 11 23 37 20 29 -3 34 -8 51 -58 10 -30 20 -84 23 -120 3 -36 14 -81 23 -100 10 -19 28 -67 40 -107 12 -39 27 -78 33 -86 15 -18 119 -88 174 -115 23 -12 58 -33 78 -46 20 -14 56 -33 82 -42 45 -18 46 -18 64 5 18 22 18 24 -1 72 -22 56 -26 158 -9 224 16 62 15 77 -6 89 -11 6 -23 15 -26 19 -6 9 2 60 20 117 33 106 5 148 -166 254 -24 14 -43 33 -43 42 0 9 13 34 30 57 33 47 36 72 25 212 -4 57 -16 113 -31 153 -29 74 -32 111 -7 70 17 -26 83 -68 133 -83 37 -12 80 -46 97 -79 18 -35 64 -181 94 -300 9 -34 7 -44 -12 -69 -19 -27 -20 -35 -12 -90 9 -53 8 -65 -7 -87 -10 -14 -21 -39 -24 -57 -4 -26 -1 -35 17 -48 12 -8 31 -15 42 -15 37 0 44 -15 60 -123 14 -92 15 -137 6 -308 -7 -131 -8 -207 -1 -219 25 -47 147 -120 201 -120 45 0 54 23 35 81 -9 28 -16 74 -16 103 0 79 -29 380 -46 486 -16 99 -33 355 -37 545 -3 121 -32 495 -46 590 -10 63 -28 120 -55 170 -9 17 -16 33 -16 37 0 4 -21 51 -46 105 -26 54 -58 127 -71 163 -14 36 -30 72 -37 80 -12 13 -59 116 -112 240 -10 25 -34 62 -53 83 -62 69 -93 44 -110 -90 -6 -51 -16 -105 -22 -120 -13 -36 -36 -159 -44 -244 -13 -134 -48 -213 -51 -115 -1 24 -7 53 -13 64 -6 11 -11 46 -11 76 0 30 -5 66 -11 80 -10 21 -9 30 6 52 14 21 17 45 16 98 -3 99 -24 129 -117 172 -40 19 -77 34 -83 34 -5 0 -25 9 -44 20 -54 32 -189 54 -234 39 -20 -6 -86 -12 -147 -13 -140 -2 -284 -35 -334 -78 -40 -34 -46 -35 -59 -5 -8 17 -25 26 -63 35 -28 7 -59 12 -69 12 -10 0 -50 22 -89 50 -76 53 -172 105 -225 121 -113 35 -195 51 -339 69 -218 26 -313 38 -340 45 -75 17 -442 56 -566 61 -81 3 -194 14 -252 24 -58 11 -130 22 -160 25 -56 6 -174 23 -358 50 -126 18 -118 19 -168 -4z"/>
 <path d="M8299 3987 c-31 -18 -62 -37 -70 -43 -8 -7 -84 -47 -169 -91 -176 -89 -246 -132 -361 -218 -136 -102 -143 -105 -239 -105 -47 0 -130 7 -184 15 -55 8 -134 15 -175 15 -45 0 -85 5 -96 13 -22 14 -74 32 -121 42 -17 3 -48 22 -69 41 -50 45 -122 94 -140 94 -8 0 -17 -4 -20 -10 -10 -15 -21 -12 -53 15 -17 14 -42 25 -56 25 -42 0 -101 29 -125 60 -16 22 -30 30 -53 30 -40 0 -86 -14 -332 -104 -71 -26 -157 -54 -190 -61 -85 -20 -124 -30 -179 -50 -117 -40 -593 -125 -617 -110 -4 2 -52 -2 -106 -10 -177 -25 -443 -54 -554 -60 -129 -7 -383 -31 -475 -45 -33 -5 -109 -16 -170 -25 -60 -9 -131 -21 -156 -26 -26 -6 -71 -14 -100 -19 -30 -4 -81 -15 -114 -23 -33 -8 -98 -23 -145 -32 -47 -9 -104 -25 -128 -36 -23 -10 -53 -19 -65 -19 -12 0 -42 -12 -66 -25 -51 -29 -56 -26 -66 44 -11 74 -62 222 -86 247 -21 22 -24 23 -41 7 -10 -9 -18 -26 -18 -38 0 -11 -5 -26 -11 -32 -7 -7 -8 -20 -3 -34 22 -68 -20 -136 -106 -171 -66 -26 -91 -41 -148 -86 -23 -18 -80 -50 -125 -69 -45 -19 -89 -41 -97 -48 -8 -7 -31 -15 -50 -19 -19 -3 -48 -13 -65 -22 -54 -29 -164 -64 -231 -73 -36 -6 -74 -17 -83 -25 -9 -8 -55 -27 -101 -41 -47 -15 -114 -39 -150 -55 -36 -16 -90 -32 -120 -35 -81 -9 -189 -34 -220 -50 -16 -8 -63 -26 -106 -40 -43 -14 -83 -34 -91 -45 -7 -10 -30 -22 -51 -26 -61 -11 -240 -88 -425 -182 -184 -95 -356 -172 -383 -172 -8 0 -48 -13 -87 -29 -40 -16 -80 -31 -89 -35 -13 -4 -18 -16 -18 -41 0 -36 1 -36 32 -30 102 20 241 78 528 221 194 96 275 126 380 139 60 8 81 17 122 50 15 12 48 26 75 30 52 8 264 65 353 95 30 10 82 24 115 30 33 7 91 22 130 35 38 12 104 32 145 44 41 12 86 26 100 31 14 4 66 19 115 34 133 38 434 130 560 171 61 20 130 38 155 42 59 7 86 25 100 65 12 33 14 34 119 54 58 12 207 42 331 67 235 48 436 81 605 98 55 5 156 16 225 24 69 8 193 19 275 25 83 6 202 17 265 25 63 8 183 17 265 21 83 3 193 15 245 25 52 11 131 26 175 34 86 16 122 25 315 80 329 92 550 119 715 87 81 -16 121 -47 160 -123 31 -59 106 -126 159 -140 27 -8 84 -9 166 -5 69 4 161 9 205 10 44 2 106 7 138 11 l57 7 0 -113 c0 -63 -5 -217 -10 -344 -6 -126 -14 -390 -20 -585 -5 -195 -16 -611 -24 -925 -9 -313 -23 -732 -31 -930 -9 -198 -15 -395 -14 -437 l3 -78 2536 0 2536 0 2 108 c4 172 15 206 53 157 23 -29 135 -120 214 -174 62 -42 144 -54 175 -26 34 31 24 65 -48 171 -38 54 -90 140 -117 189 -95 179 -103 186 -200 195 -60 5 -60 5 -72 45 -7 22 -26 132 -44 244 -25 166 -30 221 -25 290 20 275 21 260 -5 287 -13 14 -55 40 -94 58 -38 18 -96 56 -129 85 -110 98 -242 176 -476 282 -120 54 -423 223 -549 306 -132 88 -254 180 -391 298 -294 253 -280 242 -406 286 -151 52 -190 72 -310 162 -54 40 -155 111 -224 157 -69 45 -152 102 -185 125 -33 23 -91 60 -130 82 -115 66 -317 199 -317 209 0 5 19 15 43 21 24 7 49 19 55 25 22 23 25 55 9 72 -22 21 -42 20 -62 -4 -23 -26 -30 -25 -83 11 -45 30 -77 34 -123 14 -13 -5 -27 3 -55 33 -25 28 -51 44 -82 52 -83 21 -171 94 -213 176 -19 38 -94 84 -134 83 -15 0 -53 -15 -84 -32z"/>
 </g>

</svg>