<!DOCTYPE svg PUBLIC "-//W3C//DTD SVG 20010904//EN" "http://www.w3.org/TR/2001/REC-SVG-20010904/DTD/svg10.dtd">
<svg version="1.0" xmlns="http://www.w3.org/2000/svg" width="1600px" height="1060px" viewBox="0 0 16000 10600" preserveAspectRatio="xMidYMid meet">
<g id="layer101" fill="#23202a" stroke="none">
 <path d="M0 5300 l0 -5300 8000 0 8000 0 0 5300 0 5300 -8000 0 -8000 0 0 -5300z"/>
 </g>
<g id="layer102" fill="#772d1e" stroke="none">
 <path d="M0 9925 c0 -564 2 -675 14 -675 8 0 23 -28 36 -67 12 -38 30 -76 38 -86 16 -18 17 -18 34 3 10 13 18 40 19 64 l1 41 14 -35 c8 -19 19 -42 24 -50 6 -8 20 -36 32 -62 16 -37 26 -48 44 -48 35 0 66 46 58 87 -3 18 -3 49 1 69 10 57 30 25 31 -51 0 -38 6 -71 14 -80 8 -10 14 -29 15 -43 l0 -27 109 3 109 3 -33 -31 c-27 -26 -38 -30 -50 -21 -47 34 -68 21 -51 -32 17 -50 45 -61 141 -54 78 5 82 4 90 -18 12 -31 60 -42 94 -20 23 16 27 15 102 -25 42 -22 93 -55 112 -71 30 -27 40 -30 74 -25 38 6 38 6 38 -28 0 -38 19 -63 56 -72 33 -8 53 1 64 31 15 41 12 61 -15 93 -14 17 -25 33 -25 36 0 13 23 5 36 -11 10 -14 17 -16 31 -7 24 15 28 48 9 67 -22 22 -21 51 2 42 36 -15 47 -11 50 22 2 22 7 30 17 27 17 -7 30 15 17 28 -8 8 -15 8 -25 -1 -17 -13 -27 4 -27 45 0 33 -17 64 -35 64 -16 0 -18 -6 -19 -60 -1 -26 -5 -34 -16 -30 -8 2 -43 6 -77 8 -35 2 -63 6 -63 10 0 3 6 13 14 21 9 10 17 51 20 110 9 127 13 141 42 141 25 0 44 -26 44 -59 0 -12 5 -21 10 -21 6 0 10 7 10 15 0 11 11 15 40 15 31 0 47 6 64 24 19 21 27 24 58 17 44 -10 58 -19 58 -35 0 -7 9 -21 19 -30 11 -10 21 -28 23 -39 4 -28 38 -35 54 -12 18 24 44 12 44 -19 0 -40 30 -105 52 -112 11 -3 68 -5 126 -4 59 1 113 2 120 1 10 -1 12 -19 6 -84 -4 -57 -3 -91 5 -105 21 -39 71 -22 71 25 0 23 23 32 35 13 3 -5 15 -10 26 -10 10 0 19 -7 19 -15 0 -9 11 -20 24 -25 24 -9 24 -9 9 -57 -9 -26 -20 -56 -24 -65 -7 -13 -3 -17 18 -20 26 -3 27 -5 28 -68 1 -74 11 -110 29 -110 18 0 36 21 36 42 0 11 12 23 28 29 58 24 72 33 78 51 8 27 42 42 60 27 24 -20 80 15 101 63 9 21 19 38 23 38 3 0 14 -16 24 -35 15 -27 17 -38 8 -47 -18 -18 -14 -28 11 -28 29 0 67 39 67 68 0 19 6 22 38 22 20 0 57 -9 81 -20 48 -22 76 -19 84 9 5 22 -2 35 -25 44 -13 5 -18 17 -18 47 0 58 22 51 56 -17 l29 -58 70 -2 c39 -1 106 -2 150 -1 102 1 99 1 170 -8 64 -8 79 -18 64 -45 -12 -24 -4 -41 30 -60 27 -16 29 -20 33 -110 3 -52 1 -101 -3 -110 -5 -10 -3 -23 6 -35 8 -11 19 -36 25 -57 6 -21 17 -40 24 -43 24 -9 84 35 91 66 8 36 21 46 40 30 28 -24 36 0 32 101 -2 54 -6 102 -10 105 -4 4 -7 18 -7 30 0 19 7 24 46 30 61 9 98 -8 90 -40 -4 -15 0 -28 10 -37 11 -9 14 -22 10 -42 -5 -23 1 -37 30 -72 20 -24 33 -49 29 -55 -3 -5 -1 -46 6 -90 10 -73 10 -83 -6 -100 -26 -29 -52 -25 -70 10 -32 62 -78 18 -48 -47 9 -21 20 -46 24 -55 7 -14 -1 -21 -36 -37 -47 -21 -55 -34 -31 -48 8 -4 26 -26 41 -47 l26 -39 -20 -21 -21 -21 -43 24 c-38 21 -47 22 -85 11 -37 -9 -47 -9 -69 6 -19 12 -40 15 -77 12 -62 -6 -76 -2 -76 24 0 11 3 18 8 16 4 -2 18 -9 32 -16 36 -18 71 -2 94 42 18 34 19 39 4 64 -9 15 -14 40 -11 57 3 23 -1 36 -20 54 -29 26 -47 21 -47 -13 0 -42 -51 -65 -150 -67 -14 0 -33 -8 -43 -17 -15 -13 -22 -14 -37 -4 -27 17 -27 17 -35 -28 -5 -31 -11 -40 -27 -40 -30 0 -99 -73 -96 -101 3 -20 -2 -25 -25 -27 -34 -4 -34 -35 1 -40 13 -2 24 -12 26 -25 13 -61 14 -102 5 -118 -12 -23 2 -55 39 -86 24 -20 25 -25 14 -43 -6 -11 -12 -28 -12 -39 0 -21 -18 -31 -57 -31 -40 0 -76 -45 -70 -86 7 -43 -12 -92 -38 -100 -11 -4 -28 -14 -38 -23 -17 -15 -20 -14 -34 4 -10 14 -13 33 -9 63 5 40 4 43 -16 40 -16 -2 -26 -16 -37 -50 -9 -26 -22 -53 -28 -60 -19 -18 -16 -27 14 -39 20 -7 23 -13 15 -21 -21 -21 -13 -46 16 -56 l27 -9 -32 -16 c-39 -21 -62 -21 -87 -2 -11 8 -28 15 -39 15 -15 0 -18 5 -13 25 5 20 2 27 -19 37 -26 12 -26 12 -118 -38 -15 -8 -27 -19 -27 -25 0 -5 -11 -9 -24 -9 -47 0 -61 -55 -16 -67 18 -5 18 -7 3 -30 -18 -27 -7 -48 21 -37 12 5 17 16 15 38 -5 72 0 86 26 86 18 0 25 5 25 19 0 26 19 31 58 14 37 -15 40 -25 12 -53 -27 -27 -28 -90 -1 -97 23 -6 35 -29 20 -39 -6 -3 -21 -3 -33 0 -33 8 -51 -15 -36 -44 11 -21 10 -22 -26 -18 -38 3 -38 2 -47 -39 -9 -46 -21 -55 -30 -23 -3 11 -13 20 -23 20 -10 0 -28 10 -40 21 -30 28 -74 20 -74 -14 0 -13 5 -28 12 -35 17 -17 5 -24 -48 -24 -27 0 -57 -4 -67 -10 -26 -14 -33 -3 -16 28 7 15 13 44 13 65 -1 21 2 36 6 34 19 -12 40 9 40 37 0 27 3 30 23 24 12 -3 25 -6 30 -6 4 0 12 -12 17 -26 11 -28 36 -29 54 -2 8 13 5 22 -18 43 l-28 26 31 28 c34 32 46 69 36 109 -3 15 -9 41 -12 59 -8 47 -23 56 -72 43 -50 -13 -55 -22 -40 -65 10 -27 10 -38 1 -47 -10 -10 -16 -7 -28 10 -21 30 -64 30 -64 0 0 -40 -14 -8 -17 39 -2 42 -10 56 -38 66 -6 2 -4 11 4 20 16 20 3 42 -30 52 -10 4 -19 14 -19 24 0 10 -7 24 -15 31 -20 17 -48 -5 -40 -31 9 -29 -20 -24 -39 7 -12 17 -25 24 -39 22 -23 -3 -23 -1 -12 -93 17 -142 17 -151 1 -164 -18 -15 -21 -47 -6 -56 6 -4 1 -18 -12 -35 -18 -25 -19 -32 -9 -59 7 -16 19 -32 27 -35 9 -4 14 -21 14 -54 0 -27 6 -57 15 -68 28 -37 13 -47 -23 -14 -12 11 -26 38 -32 59 -5 21 -17 42 -26 45 -8 3 -14 16 -13 28 5 55 -1 80 -21 85 -16 4 -18 11 -13 31 3 15 16 34 27 43 17 14 20 27 19 90 -1 41 -1 95 -2 122 0 51 -19 70 -45 47 -11 -8 -24 -8 -55 1 -37 11 -56 29 -31 29 6 0 15 10 20 23 9 22 9 22 9 1 1 -28 30 -39 50 -19 14 14 14 18 -1 43 -14 23 -24 27 -69 29 -53 3 -69 13 -69 47 0 12 5 16 15 12 19 -7 75 41 75 65 0 27 -33 42 -56 25 -13 -10 -24 -11 -37 -4 -39 21 -126 -3 -127 -34 0 -12 -34 -10 -46 2 -6 6 -57 13 -115 16 -63 4 -110 11 -119 19 -12 10 -37 11 -113 4 -97 -8 -99 -9 -138 -47 -25 -25 -39 -49 -39 -65 0 -14 -8 -35 -19 -48 l-19 -23 -36 27 c-20 16 -36 34 -36 42 0 7 16 27 37 44 50 41 34 61 -49 61 -53 0 -59 2 -53 18 4 9 7 29 6 45 -2 30 5 33 33 12 11 -8 28 -15 37 -15 10 0 23 -8 28 -17 10 -17 12 -16 30 7 11 14 21 38 23 54 3 25 7 29 36 30 26 1 32 -3 32 -20 0 -40 54 -61 80 -30 18 23 -8 71 -40 71 -24 0 -60 32 -60 53 0 14 -33 40 -55 42 -58 6 -76 0 -86 -29 -13 -37 -39 -48 -56 -25 -7 10 -13 24 -13 30 0 7 -5 25 -12 39 -14 31 -48 33 -73 5 -23 -25 -32 -25 -40 1 -6 17 -12 20 -37 15 -22 -4 -34 -1 -43 10 -10 15 -13 15 -29 -2 -16 -16 -18 -40 -5 -82 2 -8 -6 -20 -17 -28 -19 -13 -24 -13 -36 0 -17 16 -16 138 2 144 25 9 40 34 34 59 -6 23 -5 25 12 18 44 -18 62 -17 69 4 3 12 13 21 20 21 20 0 29 20 16 33 -8 8 -14 8 -22 0 -9 -9 -19 -8 -41 3 -19 10 -43 13 -66 10 -43 -7 -53 -2 -70 37 -11 25 -10 32 8 54 24 31 25 46 3 84 -14 24 -15 33 -5 49 19 32 14 63 -18 107 -19 25 -27 44 -20 48 10 6 22 4 92 -17 29 -8 41 -8 52 1 14 12 13 17 -4 52 -30 57 -27 69 18 69 32 0 39 -5 54 -34 16 -33 16 -34 -3 -39 -29 -8 -35 -36 -12 -58 18 -18 21 -19 56 -4 45 19 47 19 47 0 0 -8 7 -15 15 -15 17 0 20 25 5 35 -34 21 22 105 71 105 14 0 30 5 37 12 9 9 15 8 25 -6 11 -15 21 -17 49 -12 42 8 55 -2 28 -21 -11 -8 -20 -22 -20 -32 0 -21 37 -58 64 -63 11 -1 27 -16 36 -33 20 -36 55 -45 65 -16 4 14 18 22 43 26 74 13 81 23 58 79 l-15 36 -84 0 c-46 0 -86 3 -90 6 -3 4 3 19 14 34 24 31 22 68 -3 84 -13 8 -24 6 -45 -10 -34 -26 -86 -34 -131 -22 -25 7 -37 18 -48 44 -8 19 -18 34 -23 34 -4 0 -8 17 -7 38 1 34 -1 37 -26 35 -16 -1 -28 2 -28 7 0 5 -18 14 -41 20 -58 16 -69 4 -62 -67 6 -50 4 -55 -13 -51 -14 2 -19 12 -19 33 0 23 -5 31 -22 33 -17 3 -23 -2 -23 -15 0 -11 5 -24 10 -29 15 -15 -44 -55 -90 -61 -67 -9 -130 6 -163 38 -28 29 -29 31 -12 49 15 16 15 22 5 35 -7 8 -18 15 -26 15 -8 0 -14 15 -16 38 -3 34 -6 37 -37 40 -18 2 -38 -1 -44 -7 -13 -13 -37 -80 -37 -104 0 -24 -18 -12 -33 21 -10 21 -13 -81 -15 -493 -1 -286 2 -521 6 -523 5 -1 6 -16 4 -32 -2 -17 0 -30 6 -30 5 0 13 -17 16 -37 4 -21 9 -46 12 -55 4 -12 0 -18 -10 -18 -10 0 -16 10 -17 28 l-1 27 -8 -30 c-4 -16 -8 -110 -9 -207 l-1 -178 30 0 c17 0 30 -4 30 -10 0 -5 -13 -10 -30 -10 l-30 0 0 -3575 0 -3575 8000 0 8000 0 0 5300 0 5300 -8000 0 -8000 0 0 -675z"/>
 </g>
<g id="layer103" fill="#605e61" stroke="none">
 <path d="M0 9925 c0 -564 2 -675 14 -675 8 0 23 -28 36 -67 12 -38 30 -76 38 -86 16 -18 17 -18 34 3 10 13 18 40 19 64 l1 41 14 -35 c8 -19 19 -42 24 -50 6 -8 20 -36 32 -62 16 -37 26 -48 44 -48 35 0 66 46 58 87 -3 18 -3 49 1 69 10 57 30 25 31 -51 0 -38 6 -71 14 -80 8 -10 14 -29 15 -43 l0 -27 109 3 109 3 -33 -31 c-27 -26 -38 -30 -50 -21 -47 34 -68 21 -51 -32 17 -50 45 -61 141 -54 78 5 82 4 90 -18 12 -31 60 -42 94 -20 23 16 27 15 102 -25 42 -22 93 -55 112 -71 30 -27 40 -30 74 -25 38 6 38 6 38 -28 0 -38 19 -63 56 -72 33 -8 53 1 64 31 18 47 12 65 -25 81 -40 16 -43 24 -16 48 18 16 20 16 35 -6 13 -18 20 -21 34 -12 23 15 27 48 8 67 -22 22 -21 51 2 42 36 -15 47 -11 50 22 2 22 7 30 17 27 17 -7 30 15 17 28 -8 8 -15 8 -25 -1 -17 -13 -27 4 -27 45 0 33 -17 64 -35 64 -16 0 -18 -6 -19 -60 -1 -26 -5 -34 -16 -30 -8 2 -43 6 -77 8 -35 2 -63 6 -63 10 0 3 6 13 14 21 9 10 17 51 20 110 9 127 13 141 42 141 25 0 44 -26 44 -59 0 -12 5 -21 10 -21 6 0 10 7 10 15 0 11 11 15 40 15 31 0 47 6 64 24 19 21 27 24 58 17 44 -10 58 -19 58 -35 0 -7 9 -21 19 -30 11 -10 21 -28 23 -39 4 -28 38 -35 54 -12 18 24 44 12 44 -19 0 -40 30 -105 52 -112 11 -3 68 -5 126 -4 59 1 113 2 120 1 10 -1 12 -19 6 -84 -4 -57 -3 -91 5 -105 21 -39 71 -22 71 25 0 23 23 32 35 13 3 -5 15 -10 26 -10 10 0 19 -7 19 -15 0 -9 11 -20 24 -25 24 -9 24 -9 9 -57 -9 -26 -20 -56 -24 -65 -7 -13 -3 -17 18 -20 26 -3 27 -5 28 -68 1 -36 5 -75 9 -88 21 -62 78 23 73 110 -2 51 5 62 44 72 23 5 28 2 33 -19 5 -19 13 -25 34 -25 15 0 33 -5 39 -11 24 -24 103 34 103 77 0 28 15 34 57 21 28 -9 32 -14 26 -35 -3 -15 -1 -27 7 -32 21 -13 40 0 40 26 0 21 5 24 38 24 20 0 57 -9 81 -20 48 -22 76 -19 84 9 5 22 -2 35 -25 44 -13 5 -18 17 -18 47 0 58 22 51 56 -17 l29 -58 70 -2 c39 -1 106 -2 150 -1 102 1 99 1 170 -8 64 -8 79 -18 64 -45 -13 -25 -2 -45 31 -59 27 -11 28 -13 32 -108 3 -53 1 -104 -3 -113 -17 -34 54 -55 128 -39 32 8 49 7 59 -1 27 -23 35 1 31 102 -2 54 -6 102 -10 105 -17 17 -6 52 18 58 14 4 25 13 25 21 0 17 3 17 76 15 29 -1 55 3 59 9 3 6 18 11 33 11 15 0 37 7 48 15 13 8 51 15 95 17 69 3 74 5 77 26 2 13 -3 31 -11 40 -27 31 -40 65 -43 114 -3 39 0 49 16 58 11 6 19 16 17 23 -3 16 50 22 67 8 10 -9 11 -23 3 -61 -11 -57 0 -80 38 -80 25 0 35 10 53 53 10 23 9 30 -8 47 -36 36 -27 39 73 31 13 -1 17 -10 17 -43 0 -24 4 -49 8 -55 17 -27 114 -47 214 -44 l98 3 10 -27 c11 -29 33 -29 38 1 2 10 10 33 19 51 14 26 15 36 5 59 -11 22 -10 29 3 44 12 13 14 32 9 92 -9 101 8 106 30 10 23 -99 31 -112 64 -112 34 0 52 16 52 48 0 14 7 30 16 37 15 10 15 16 3 48 -13 36 -9 54 9 43 5 -3 16 -26 23 -51 9 -32 19 -45 31 -45 13 0 18 8 18 25 0 20 5 25 26 25 19 0 25 -4 20 -15 -3 -9 8 -57 25 -108 28 -82 30 -95 19 -127 -18 -51 -28 -60 -67 -60 -19 0 -43 -5 -54 -11 -19 -10 -37 -6 -121 23 -57 21 -90 -19 -48 -57 18 -16 19 -20 5 -27 -8 -5 -15 -20 -15 -34 l0 -26 -136 3 c-138 3 -143 2 -157 -36 -3 -6 -18 -3 -38 7 -50 24 -113 37 -225 44 -61 4 -110 13 -127 23 -23 13 -31 14 -60 2 -17 -8 -63 -17 -102 -20 -78 -7 -93 -23 -56 -60 23 -23 8 -22 349 -27 151 -2 187 -5 201 -18 22 -20 35 -20 55 0 13 12 45 16 170 17 153 1 154 1 189 -26 20 -15 38 -27 41 -27 11 0 75 75 76 88 0 24 38 12 64 -20 15 -18 31 -39 37 -46 24 -29 1 -56 -88 -102 -65 -34 -90 -52 -97 -72 -15 -42 6 -58 74 -58 47 0 71 7 135 40 87 45 97 47 115 25 22 -26 33 -1 34 72 1 62 3 68 23 71 12 2 31 -6 44 -19 l22 -22 27 31 c29 35 83 45 94 17 3 -8 17 -15 31 -15 15 0 35 -5 45 -10 15 -8 23 -5 40 12 l20 22 16 -22 c8 -12 23 -22 32 -22 10 0 23 -9 30 -20 7 -11 17 -20 22 -20 11 0 34 46 34 70 1 8 11 16 22 18 12 2 30 12 40 23 24 26 49 24 62 -6 6 -14 18 -25 26 -25 14 0 27 -28 29 -65 2 -26 32 -26 32 -1 0 34 20 27 37 -13 10 -23 27 -42 40 -47 22 -7 47 -31 48 -46 0 -4 -7 -13 -15 -22 -23 -22 -62 -1 -86 47 -11 21 -25 37 -32 34 -7 -2 -14 -28 -17 -58 -3 -36 -13 -64 -28 -84 -23 -28 -23 -29 -4 -45 11 -8 22 -23 26 -33 3 -11 15 -21 26 -24 15 -4 18 -11 14 -32 -5 -22 1 -32 38 -61 l43 -35 -65 -7 c-36 -4 -77 -8 -92 -8 -23 0 -27 -5 -30 -32 -4 -46 -24 -45 -47 1 -27 51 -52 66 -92 52 -23 -8 -47 -7 -96 5 -70 16 -60 19 -131 -32 -15 -11 -44 -17 -84 -18 -58 -1 -62 1 -68 24 -8 34 -39 38 -61 9 -19 -25 -18 -26 -33 25 -3 10 -31 15 -105 18 -84 3 -104 7 -123 25 -23 20 -33 21 -588 28 -558 6 -566 6 -584 -14 -10 -11 -15 -25 -11 -30 4 -7 -13 -19 -39 -31 -45 -19 -59 -37 -33 -44 6 -2 30 -9 51 -16 39 -12 39 -12 71 25 26 32 34 36 50 27 12 -6 19 -21 20 -39 0 -25 4 -28 37 -31 48 -4 62 -21 47 -56 -8 -16 -18 -25 -26 -22 -7 3 -49 9 -92 12 -65 6 -83 4 -109 -11 -29 -18 -31 -17 -66 5 -33 20 -41 21 -83 11 -38 -10 -49 -9 -70 4 -15 10 -44 16 -81 15 -75 -1 -195 10 -205 20 -5 4 27 10 70 12 58 4 83 2 100 -9 28 -19 54 -6 83 43 18 29 21 40 12 59 -6 13 -9 39 -6 57 5 26 1 38 -19 57 -29 26 -47 21 -47 -13 0 -30 -26 -52 -73 -60 -47 -9 -177 -74 -184 -93 -3 -8 3 -20 13 -28 28 -20 15 -26 -60 -27 -71 -1 -88 -11 -84 -49 3 -20 -2 -25 -25 -27 -34 -4 -34 -35 0 -40 12 -2 24 -11 27 -20 9 -28 10 -116 2 -133 -8 -19 34 -75 65 -84 35 -11 49 12 49 79 0 64 19 111 38 91 6 -5 12 -57 13 -115 l4 -105 -47 -5 c-29 -4 -53 -13 -61 -24 -7 -10 -32 -20 -57 -23 -60 -8 -94 -43 -87 -89 7 -43 -12 -92 -38 -100 -11 -4 -28 -14 -38 -23 -17 -15 -20 -14 -34 4 -10 14 -13 33 -9 63 5 40 4 43 -16 40 -16 -2 -26 -16 -37 -50 -9 -26 -22 -53 -28 -60 -19 -18 -16 -27 14 -39 20 -7 23 -13 15 -21 -21 -21 -13 -46 16 -56 l27 -9 -32 -16 c-39 -21 -62 -21 -87 -2 -11 8 -28 15 -39 15 -15 0 -18 5 -13 25 5 20 2 27 -19 37 -26 12 -26 12 -118 -38 -15 -8 -27 -19 -27 -25 0 -5 -11 -9 -24 -9 -47 0 -61 -55 -16 -67 18 -5 18 -7 3 -30 -18 -27 -7 -48 21 -37 12 5 17 16 15 38 -5 72 0 86 26 86 18 0 25 5 25 19 0 26 19 31 58 14 37 -15 40 -25 12 -53 -27 -27 -28 -90 -1 -97 23 -6 35 -29 20 -39 -6 -3 -21 -3 -33 0 -33 8 -51 -15 -36 -44 11 -21 10 -22 -26 -18 -38 3 -38 2 -47 -39 -9 -46 -21 -55 -30 -23 -3 11 -13 20 -23 20 -10 0 -28 10 -40 21 -30 28 -74 20 -74 -14 0 -13 5 -28 12 -35 17 -17 5 -24 -48 -24 -27 0 -57 -4 -67 -10 -26 -14 -33 -3 -16 28 7 15 13 44 13 65 -1 21 2 36 6 34 19 -12 40 9 40 37 0 27 3 30 23 24 12 -3 25 -6 30 -6 4 0 12 -12 17 -26 11 -28 36 -29 54 -2 8 13 5 22 -18 43 l-28 26 31 28 c34 32 46 69 36 109 -3 15 -9 41 -12 59 -8 47 -23 56 -72 43 -50 -13 -55 -22 -40 -65 10 -27 10 -38 1 -47 -10 -10 -16 -7 -28 10 -21 30 -64 30 -64 0 0 -40 -14 -8 -17 39 -2 42 -10 56 -38 66 -6 2 -4 11 4 20 16 20 3 42 -30 52 -10 4 -19 14 -19 24 0 10 -7 24 -15 31 -20 17 -48 -5 -40 -31 9 -29 -20 -24 -39 7 -12 17 -25 24 -39 22 -23 -3 -23 -1 -12 -93 17 -142 17 -151 1 -164 -18 -15 -21 -47 -6 -56 6 -4 1 -18 -12 -35 -18 -25 -19 -32 -9 -59 7 -16 19 -32 27 -35 9 -4 14 -21 14 -54 0 -27 6 -57 15 -68 28 -37 13 -47 -23 -14 -12 11 -26 38 -32 59 -5 21 -17 42 -26 45 -8 3 -14 16 -13 28 5 55 -1 80 -21 85 -16 4 -18 11 -13 31 3 15 16 34 27 43 17 14 20 27 19 90 -1 41 -1 95 -2 122 0 51 -19 70 -45 47 -11 -8 -24 -8 -55 1 -37 11 -56 29 -31 29 6 0 15 10 20 23 9 22 9 22 9 1 1 -28 30 -39 50 -19 14 14 14 18 -1 43 -14 23 -24 27 -69 29 -53 3 -69 13 -69 47 0 12 5 16 15 12 19 -7 75 41 75 65 0 27 -33 42 -56 25 -13 -10 -24 -11 -37 -4 -39 21 -126 -3 -127 -34 0 -12 -34 -10 -46 2 -6 6 -57 13 -115 16 -63 4 -110 11 -119 19 -12 10 -37 11 -113 4 -97 -8 -99 -9 -138 -47 -25 -25 -39 -49 -39 -65 0 -14 -8 -35 -19 -48 l-19 -23 -36 27 c-20 16 -36 34 -36 42 0 7 16 27 37 44 50 41 34 61 -49 61 -53 0 -59 2 -53 18 4 9 7 29 6 45 -2 30 5 33 33 12 11 -8 28 -15 37 -15 10 0 23 -8 28 -17 10 -17 12 -16 30 7 11 14 21 39 23 55 3 26 7 30 29 27 14 -2 31 4 39 13 11 13 10 18 -4 33 -9 10 -16 23 -16 29 0 15 -32 41 -55 43 -58 6 -76 0 -86 -29 -11 -30 -36 -48 -50 -34 -4 4 -14 26 -21 48 -17 53 -56 60 -99 19 -16 -15 -29 -33 -29 -39 0 -15 43 -55 58 -55 20 0 13 -55 -12 -92 -16 -25 -21 -40 -14 -51 7 -13 3 -18 -15 -23 -40 -10 -83 -1 -78 16 2 8 5 40 6 70 2 30 6 63 10 73 4 10 2 24 -6 33 -7 9 -13 35 -14 60 -1 54 -15 72 -40 48 -12 -12 -15 -26 -11 -48 13 -63 12 -71 -10 -74 -38 -5 -51 20 -48 89 2 35 8 65 14 67 25 9 40 34 34 59 -6 23 -5 25 12 18 44 -18 62 -17 69 4 3 12 13 21 20 21 20 0 29 20 16 33 -8 8 -14 8 -22 0 -9 -9 -19 -8 -41 3 -20 10 -42 13 -73 8 -43 -6 -44 -6 -59 31 -15 35 -15 39 4 62 24 31 25 47 3 84 -14 24 -15 33 -5 49 19 32 14 63 -18 107 -19 25 -27 44 -20 48 10 6 22 4 92 -17 29 -8 41 -8 52 1 14 11 12 19 -9 62 -14 26 -25 51 -25 54 0 3 19 5 43 5 38 0 44 -4 59 -34 16 -33 16 -34 -3 -39 -29 -8 -35 -36 -12 -58 18 -18 21 -19 56 -4 45 19 47 19 47 0 0 -8 7 -15 15 -15 17 0 20 25 5 35 -16 10 -12 41 12 80 19 33 25 36 51 31 17 -3 36 -1 44 5 11 9 17 8 27 -6 10 -14 21 -16 48 -11 42 8 55 -2 28 -21 -11 -8 -20 -22 -20 -32 0 -21 37 -58 64 -63 11 -1 27 -16 36 -33 20 -36 55 -45 65 -16 4 14 18 22 43 26 74 13 81 23 58 79 l-15 36 -84 0 c-46 0 -86 3 -90 6 -3 4 3 19 14 34 24 31 22 68 -3 84 -13 8 -24 5 -48 -12 -21 -16 -46 -23 -78 -24 -57 -2 -90 14 -98 47 -6 25 -9 27 -53 29 -13 1 -26 7 -29 15 -3 9 1 11 14 7 27 -8 46 8 42 35 -2 19 -8 24 -31 22 -15 -1 -27 2 -27 7 0 5 -18 14 -41 20 -58 16 -69 4 -62 -67 6 -50 4 -55 -13 -51 -14 2 -19 12 -19 33 0 23 -5 31 -22 33 -17 3 -23 -2 -23 -15 0 -11 5 -24 10 -29 8 -8 -1 -19 -28 -37 -63 -44 -190 -33 -232 20 -19 24 -19 27 -4 44 20 22 6 46 -29 51 -15 2 -23 11 -25 30 -4 36 -27 53 -53 42 -21 -10 -49 -71 -49 -107 0 -24 -18 -12 -33 21 -10 21 -13 -81 -15 -493 -1 -286 2 -521 6 -523 5 -1 6 -16 4 -32 -2 -17 0 -30 6 -30 5 0 13 -17 16 -37 4 -21 9 -46 12 -55 4 -12 0 -18 -10 -18 -10 0 -16 10 -17 28 l-1 27 -8 -30 c-4 -16 -8 -110 -9 -207 l-1 -178 30 0 c17 0 30 -4 30 -10 0 -5 -13 -10 -30 -10 l-30 0 0 -3575 0 -3575 8000 0 8000 0 0 5300 0 5300 -8000 0 -8000 0 0 -675z m6315 -3110 l40 -19 -50 -7 c-27 -4 -68 -5 -90 -2 -26 3 -47 -1 -60 -11 -19 -14 -19 -15 17 -30 21 -9 48 -16 60 -17 l23 0 -22 -11 c-13 -6 -23 -17 -23 -24 0 -8 -10 -38 -22 -68 -16 -38 -29 -56 -43 -58 -12 -2 -20 -11 -20 -23 0 -18 8 -20 81 -23 57 -2 84 1 92 10 14 17 -3 40 -45 62 -39 19 -39 20 -13 56 19 27 23 28 80 23 59 -6 97 7 84 28 -3 5 -8 22 -10 37 -3 15 -9 31 -15 37 -16 16 -10 25 16 25 14 0 42 7 62 15 43 18 40 18 47 0 3 -8 -5 -26 -18 -39 -33 -36 -70 -112 -63 -130 4 -9 13 -16 22 -16 8 0 15 -9 15 -20 0 -11 -6 -20 -14 -20 -17 0 -26 -22 -26 -60 0 -49 71 -80 100 -45 25 30 64 9 75 -41 5 -28 3 -32 -19 -38 -27 -7 -66 -69 -66 -104 0 -11 18 -38 40 -60 35 -35 40 -45 40 -86 0 -26 -5 -56 -10 -67 -7 -13 -7 -25 0 -38 5 -11 11 -61 12 -113 2 -116 17 -158 56 -158 18 0 37 -9 50 -25 24 -28 32 -29 207 -26 96 2 133 6 243 27 12 3 32 14 43 25 19 19 19 28 13 159 -4 77 -4 140 0 140 4 0 16 -5 26 -10 24 -13 70 4 70 26 0 9 9 29 20 44 11 16 17 35 14 44 -7 18 -45 21 -61 5 -18 -18 -57 15 -58 48 0 23 -5 29 -28 31 -20 3 -27 8 -25 20 3 11 12 16 28 14 44 -5 68 7 91 45 12 21 31 48 42 60 17 20 19 27 8 49 -10 22 -9 30 4 44 18 19 11 75 -12 102 -10 11 -12 21 -4 35 5 10 12 26 15 36 8 26 26 11 26 -22 0 -15 5 -42 11 -60 8 -24 8 -39 -1 -61 -17 -41 5 -86 40 -82 14 2 28 7 32 10 4 4 9 47 12 96 6 102 17 123 47 87 29 -35 31 -57 21 -187 -8 -106 -8 -122 8 -144 14 -20 26 -25 61 -25 l44 0 3 108 c2 89 6 109 19 114 25 10 49 -29 78 -123 14 -47 33 -88 41 -91 21 -8 42 13 49 50 11 55 26 97 35 97 26 0 38 -32 33 -83 -6 -60 10 -87 53 -87 13 0 24 -5 24 -11 0 -9 -60 -11 -222 -8 -211 4 -223 3 -226 -15 -2 -10 0 -22 6 -28 19 -19 426 -30 660 -17 201 10 226 10 257 -5 19 -10 35 -23 35 -31 0 -8 7 -15 15 -15 18 0 20 21 3 38 -9 9 -9 15 -1 23 8 8 15 3 27 -19 21 -41 20 -59 -5 -72 -19 -11 -19 -13 -5 -29 48 -53 -3 -67 -299 -84 -197 -11 -300 -12 -487 -4 -255 11 -268 9 -268 -38 0 -31 36 -60 74 -60 29 0 31 -2 36 -45 7 -60 36 -105 90 -142 31 -21 38 -29 21 -25 -79 19 -81 -71 -3 -100 l23 -9 -26 -24 c-24 -23 -25 -23 -25 -3 0 23 -33 68 -60 83 -15 8 -23 5 -39 -11 l-20 -22 -12 27 c-13 29 -5 46 13 28 8 -8 19 -5 42 15 52 43 51 48 -5 103 -28 27 -55 50 -60 50 -5 0 -18 -19 -30 -42 -12 -24 -28 -51 -37 -61 -14 -16 -16 -16 -29 3 -9 12 -25 20 -44 20 -24 0 -29 4 -29 25 0 39 -33 32 -49 -10 -7 -20 -22 -44 -33 -54 -12 -12 -21 -35 -23 -63 -2 -23 -4 -46 -4 -50 -1 -11 -41 -10 -41 0 0 5 -11 14 -25 20 -32 15 -38 15 -30 2 3 -5 -4 -20 -17 -33 -14 -14 -22 -33 -21 -47 l3 -25 -12 23 c-8 17 -19 22 -37 20 -15 -2 -34 5 -44 15 -12 12 -25 16 -40 11 -37 -11 -47 -24 -40 -55 4 -22 2 -29 -10 -29 -8 0 -17 -7 -21 -15 -3 -8 -12 -15 -21 -15 -12 0 -13 3 -4 19 10 15 7 24 -16 55 -29 38 -33 40 -59 30 -35 -14 -43 -74 -10 -74 9 0 14 -11 14 -30 0 -36 -11 -39 -25 -7 -10 22 -21 24 -62 11 -17 -5 -23 -2 -23 10 0 12 6 15 25 10 21 -5 25 -3 25 17 0 33 -63 83 -95 75 -28 -7 -42 -54 -25 -85 10 -20 8 -21 -29 -21 -34 0 -42 4 -55 31 -12 24 -13 35 -4 55 9 20 8 28 -4 41 -27 26 -41 6 -35 -48 5 -43 4 -49 -12 -49 -38 0 -48 30 -26 83 6 14 2 17 -19 17 -33 0 -34 16 -2 24 25 6 42 34 28 48 -4 4 -44 11 -87 14 -44 4 -90 13 -103 20 -14 9 -28 12 -40 6 -9 -5 -84 -5 -167 -1 -127 7 -232 3 -319 -13 -10 -2 -23 4 -28 12 -8 12 -2 24 25 51 32 32 57 89 57 131 0 11 14 24 34 32 42 17 54 48 32 81 -20 31 -32 31 -148 0 -79 -21 -127 -25 -321 -32 -288 -10 -472 -3 -495 20 -22 23 -10 30 30 19 20 -5 136 -6 288 -2 140 4 258 6 262 4 14 -8 213 27 235 41 29 19 74 19 99 0 10 -8 35 -15 54 -15 63 -1 80 -9 80 -41 0 -16 -4 -29 -9 -29 -17 0 -41 -31 -41 -52 0 -29 28 -58 55 -58 34 0 48 24 41 69 -5 36 -4 39 21 44 39 7 55 -1 43 -23 -18 -33 -12 -69 15 -86 54 -35 102 13 77 78 -8 23 -8 28 4 28 8 0 19 11 24 24 14 39 90 48 90 10 0 -19 6 -18 30 6 25 25 107 31 192 15 56 -11 59 12 9 75 -42 53 -45 70 -10 70 24 0 37 29 18 41 -8 4 -39 6 -71 2 -83 -8 -93 -2 -66 43 l21 36 20 -26 c21 -29 67 -36 67 -11 0 23 -86 105 -110 105 -12 0 -28 -12 -40 -32 -10 -18 -24 -39 -30 -45 -26 -31 -90 -1 -90 42 0 28 -18 45 -50 45 -33 0 -51 -15 -84 -67 -20 -32 -33 -43 -51 -43 -25 0 -34 7 -78 64 -20 25 -27 27 -55 21 -18 -4 -40 -18 -48 -31 -9 -13 -20 -24 -25 -24 -16 0 -41 62 -35 86 4 13 13 90 21 171 21 203 20 200 58 207 18 4 55 7 84 6 28 -1 54 4 58 9 3 6 25 11 48 11 49 0 91 24 83 47 -5 13 5 15 66 11 41 -3 91 -13 113 -23z"/>
 </g>
<g id="layer104" fill="#98644f" stroke="none">
 <path d="M0 9925 c0 -656 1 -675 19 -675 20 0 31 -18 31 -50 0 -12 10 -21 30 -25 37 -8 61 9 58 39 -5 38 16 32 23 -6 11 -68 56 -92 112 -61 40 22 47 31 47 63 l0 25 13 -25 c20 -39 54 -51 129 -47 63 4 66 3 47 -12 -19 -15 -18 -51 1 -51 4 0 19 -11 34 -25 19 -18 38 -25 67 -25 21 0 48 -5 58 -12 17 -10 23 -8 40 13 11 13 20 30 21 37 0 17 25 15 40 -3 7 -8 23 -15 36 -15 26 0 30 -10 13 -27 -6 -6 -8 -16 -4 -23 9 -15 97 -2 108 16 13 23 53 17 65 -11 10 -23 14 -24 38 -13 24 11 29 10 42 -10 8 -12 21 -22 30 -22 12 0 14 9 9 45 -4 25 -2 47 3 50 6 3 10 26 10 50 0 68 14 95 49 95 19 0 34 -7 40 -19 7 -12 27 -21 57 -26 39 -6 49 -3 69 15 20 19 30 21 67 15 24 -4 48 -11 53 -16 6 -4 40 -9 75 -11 l65 -3 5 -92 c7 -128 6 -127 167 -124 146 2 162 -3 145 -46 -14 -35 -11 -138 5 -154 6 -6 19 -9 29 -5 13 5 15 14 11 42 -6 35 -6 35 26 29 18 -3 53 -16 79 -28 43 -20 47 -25 50 -62 3 -45 1 -44 113 -30 38 4 74 17 97 32 21 15 44 23 53 19 9 -3 25 -1 37 5 11 6 26 8 34 5 12 -4 12 -9 2 -25 -16 -26 5 -52 41 -49 15 1 33 -2 41 -7 7 -4 40 -10 73 -11 57 -2 59 -2 53 21 -5 20 -1 24 22 30 19 4 31 15 39 35 9 23 15 28 33 23 12 -3 27 -14 33 -24 7 -11 23 -19 36 -19 23 0 23 -1 8 -18 -21 -23 -21 -38 -1 -46 26 -10 33 -7 61 24 32 36 53 39 53 6 0 -14 4 -27 9 -30 4 -3 46 -5 92 -5 46 0 105 0 131 -1 43 -1 48 1 54 25 4 15 1 45 -5 66 -9 31 -9 47 0 74 16 44 0 65 -50 65 -40 0 -62 15 -54 36 3 10 22 14 59 14 65 0 78 16 63 76 -24 91 -25 84 16 84 33 0 36 -2 28 -22 -12 -35 -5 -150 11 -166 16 -17 44 -10 74 19 25 22 30 86 10 118 -29 48 38 69 116 36 32 -14 51 -45 26 -45 -14 0 -12 -37 3 -47 21 -14 76 -31 82 -25 3 3 5 20 5 39 l0 33 50 0 c42 0 50 -3 50 -19 0 -29 28 -47 51 -33 25 16 26 16 32 -15 8 -37 37 -53 99 -55 43 -1 55 3 67 21 l14 22 21 -26 c19 -24 29 -27 101 -30 111 -4 117 -8 110 -59 -8 -51 -1 -58 73 -74 72 -16 274 -16 290 0 20 20 15 66 -9 79 l-21 11 23 12 c22 11 24 18 25 94 0 48 5 87 12 94 14 14 18 4 26 -66 8 -68 35 -112 67 -108 38 6 49 24 56 95 3 37 10 67 14 67 5 0 16 -11 25 -25 13 -20 19 -23 30 -14 8 6 14 18 14 25 0 16 10 17 43 5 22 -9 26 -17 32 -83 9 -94 28 -118 87 -110 35 4 40 3 36 -14 -2 -13 -14 -21 -38 -24 -28 -4 -38 -12 -52 -40 -9 -19 -17 -43 -18 -52 0 -22 -13 -29 -63 -35 -78 -9 -146 -4 -172 13 -29 19 -55 12 -55 -14 0 -27 32 -52 67 -52 33 0 73 -35 73 -64 0 -12 -7 -17 -23 -16 -32 3 -40 1 -61 -15 -19 -14 -18 -16 9 -55 15 -22 31 -40 34 -40 12 0 81 75 81 88 0 24 39 11 64 -20 15 -18 31 -38 36 -45 6 -7 10 -23 10 -37 0 -21 -13 -31 -95 -70 -76 -36 -95 -49 -101 -70 -10 -41 10 -56 77 -56 46 0 64 5 79 20 11 11 24 20 30 20 16 0 147 69 159 84 10 11 7 18 -11 30 -22 16 -22 16 -3 31 24 18 27 18 90 19 42 1 52 5 60 24 6 13 19 22 31 22 11 0 24 3 27 7 11 10 -13 32 -29 26 -21 -8 -17 15 5 27 29 15 51 13 45 -5 -16 -42 23 -88 53 -63 14 11 25 3 36 -26 2 -5 13 -3 24 5 20 12 25 10 47 -14 21 -22 29 -26 45 -18 10 6 22 22 25 36 4 16 13 25 26 25 13 0 20 7 20 20 0 15 9 22 30 26 47 10 50 19 38 137 -10 105 -6 137 12 107 6 -10 12 -11 18 -5 17 19 33 107 26 150 -8 54 0 69 26 52 16 -9 24 -9 41 1 31 20 39 4 28 -56 -8 -44 -7 -58 6 -78 8 -13 22 -24 30 -24 20 0 30 46 16 76 -15 34 -14 59 3 73 11 9 14 41 15 129 0 64 8 173 17 242 18 138 20 182 9 223 -6 23 -4 27 13 27 40 0 42 -17 26 -205 -16 -186 -14 -213 23 -312 12 -33 21 -43 38 -43 29 0 38 13 60 79 19 57 23 229 10 376 -6 55 -4 74 7 83 13 10 15 3 16 -46 0 -31 7 -74 16 -94 11 -27 16 -72 17 -155 1 -195 11 -278 36 -305 11 -13 23 -32 25 -43 4 -26 68 -34 88 -11 7 9 25 16 40 16 40 0 57 27 63 103 6 69 9 87 53 317 14 74 28 149 31 165 10 55 43 76 43 28 0 -16 7 -64 15 -108 8 -44 14 -125 15 -180 0 -56 6 -125 14 -155 8 -30 17 -75 21 -99 4 -24 14 -59 21 -77 8 -18 14 -44 14 -57 0 -15 8 -28 24 -35 21 -9 24 -20 31 -85 4 -51 12 -80 23 -90 26 -22 325 -47 337 -28 5 10 9 47 20 200 6 84 13 84 87 3 23 -24 22 -31 -2 -56 -21 -23 -36 -94 -23 -112 12 -15 106 -34 117 -23 6 5 5 17 -2 31 -16 32 -30 154 -20 172 6 11 17 14 32 10 14 -3 27 1 35 10 14 17 51 22 51 7 0 -4 -5 -23 -11 -40 -9 -24 -9 -35 0 -44 27 -27 -10 -168 -52 -199 -25 -18 -26 -22 -20 -88 6 -74 -4 -91 -26 -44 -11 24 -15 26 -58 21 -39 -4 -46 -2 -50 14 -6 21 -38 26 -50 7 -4 -7 -7 -104 -5 -216 1 -159 -1 -211 -13 -238 -9 -22 -11 -42 -6 -57 5 -14 3 -29 -6 -44 -11 -17 -12 -26 -3 -42 6 -12 15 -21 20 -21 21 0 8 -30 -23 -54 -53 -41 -92 -35 -144 19 -37 39 -43 51 -43 89 0 51 -30 87 -57 70 -19 -12 -41 -67 -42 -102 -1 -39 -38 -79 -85 -95 -41 -14 -46 -14 -74 3 -40 25 -66 65 -57 87 15 36 23 108 13 126 -8 16 -7 18 11 12 12 -3 37 -1 56 6 27 10 38 10 47 1 9 -9 4 -12 -25 -12 -29 0 -37 -4 -37 -18 0 -26 20 -42 51 -42 58 0 73 18 43 52 -18 19 -21 16 32 33 8 3 14 13 12 22 -2 13 -15 19 -46 21 l-42 3 0 43 c0 24 -5 57 -11 75 -10 28 -9 34 7 46 17 12 17 17 6 47 -6 19 -12 48 -12 66 0 20 -7 36 -22 46 -20 14 -24 14 -45 -6 -19 -18 -22 -30 -21 -83 3 -84 -29 -124 -60 -75 -7 11 -23 20 -36 20 -30 0 -72 33 -62 49 5 7 20 9 42 5 42 -8 64 8 64 46 0 31 -10 41 -60 60 -19 7 -43 22 -54 33 -15 15 -27 17 -70 12 -55 -8 -88 -30 -113 -80 -9 -16 -27 -38 -40 -49 -25 -19 -27 -44 -8 -103 6 -19 2 -25 -19 -33 -15 -5 -52 -21 -82 -35 -30 -14 -58 -25 -62 -25 -4 0 -15 -9 -25 -20 -9 -11 -24 -20 -32 -20 -19 0 -20 29 0 36 27 11 17 42 -20 60 -33 15 -37 15 -54 0 -9 -9 -27 -16 -39 -16 -32 0 -29 -38 3 -50 14 -5 25 -14 25 -19 0 -5 9 -13 20 -16 11 -4 18 -11 14 -16 -3 -5 -9 -23 -14 -39 -7 -25 -4 -35 17 -60 l25 -30 -56 0 c-55 0 -56 -1 -76 -40 -24 -48 -64 -77 -83 -62 -8 7 -35 9 -69 5 -44 -4 -57 -10 -61 -24 -4 -15 -14 -19 -44 -19 -49 0 -53 4 -43 40 6 23 4 35 -11 54 -10 13 -19 31 -19 40 0 26 -39 19 -50 -9 -6 -15 -17 -25 -29 -25 -11 0 -33 -11 -49 -25 -17 -14 -35 -25 -41 -25 -23 0 -99 40 -104 54 -7 19 -62 11 -115 -15 l-36 -19 -12 28 c-14 32 -4 48 22 34 25 -12 44 -5 44 18 0 23 -19 30 -43 18 -11 -6 -23 -6 -30 0 -7 5 -33 12 -58 16 -26 4 -54 15 -64 26 -16 17 -40 19 -413 21 -726 6 -726 6 -730 -12 -3 -18 63 -61 111 -73 15 -4 27 -12 26 -19 -3 -28 3 -35 48 -52 36 -14 50 -15 64 -6 23 14 99 14 119 0 12 -8 9 -9 -11 -5 -15 3 -43 -1 -63 -9 -43 -18 -49 -52 -14 -87 16 -16 22 -34 22 -76 1 -41 6 -58 19 -66 28 -18 51 5 57 56 3 25 12 53 19 62 11 13 11 20 -3 41 -23 35 -12 47 24 27 37 -21 63 -8 70 34 l5 29 143 0 c134 0 143 1 148 20 9 28 23 35 74 35 25 0 60 4 78 9 18 6 40 7 48 4 21 -8 17 -33 -6 -33 -11 0 -20 -6 -20 -13 0 -16 78 -67 104 -67 18 0 18 -1 1 -20 -12 -13 -15 -27 -11 -44 4 -15 -1 -39 -10 -59 -16 -34 -46 -47 -139 -60 -14 -1 -20 -10 -20 -27 0 -20 5 -25 25 -26 47 0 53 -11 47 -80 -5 -70 5 -88 45 -82 21 3 23 9 28 73 l5 70 30 0 30 0 1 -66 c1 -75 6 -89 38 -89 16 0 27 8 34 28 19 50 25 77 24 103 -2 21 4 29 27 37 42 15 51 -1 51 -84 0 -85 13 -103 57 -82 25 12 29 21 37 81 7 55 12 67 27 67 25 0 29 -10 31 -82 1 -62 11 -96 32 -111 7 -5 4 -13 -9 -23 -16 -13 -33 -14 -85 -8 -36 4 -76 7 -90 7 -53 -2 -387 17 -423 23 -41 7 -67 41 -77 98 -6 37 -23 43 -48 18 -28 -28 -18 -62 34 -116 50 -53 55 -82 20 -122 -22 -27 -24 -27 -33 -8 -6 10 -14 50 -18 87 -6 61 -9 69 -33 78 -35 14 -55 8 -62 -18 -3 -12 -21 -32 -40 -45 -31 -21 -35 -29 -33 -64 l3 -39 -20 40 c-11 22 -20 46 -20 52 0 7 -12 20 -26 29 -24 16 -27 16 -52 -3 -15 -11 -32 -37 -39 -59 -35 -113 -37 -125 -25 -133 40 -25 523 -84 550 -67 6 4 30 1 54 -5 129 -34 1008 -52 1096 -23 25 9 56 13 71 9 115 -28 190 -37 429 -51 67 -4 125 -11 128 -16 5 -7 -225 -13 -366 -9 -45 2 -60 -3 -85 -22 l-29 -24 -28 20 c-31 23 -23 23 -383 7 -294 -13 -622 -3 -649 19 -13 11 -19 11 -31 1 -9 -8 -27 -10 -47 -6 -18 4 -56 11 -84 15 -32 6 -61 18 -79 35 -25 23 -36 26 -102 26 -41 0 -150 5 -243 11 -147 9 -173 8 -199 -5 -16 -9 -43 -16 -60 -16 -50 0 -83 -17 -79 -42 2 -17 19 -27 81 -47 73 -25 76 -27 61 -43 -22 -21 -8 -40 47 -69 51 -25 74 -24 97 6 l20 25 6 -26 c8 -29 6 -32 -26 -48 -30 -15 -46 -61 -30 -86 17 -29 15 -53 -4 -46 -9 3 -18 6 -20 6 -2 0 -4 11 -4 25 0 16 -6 25 -15 25 -11 0 -15 -12 -15 -44 0 -44 -12 -66 -25 -46 -3 5 -16 10 -28 10 -12 0 -31 7 -41 15 -24 18 -50 19 -75 3 -14 -9 -23 -8 -42 5 -25 18 -79 22 -107 8 -9 -4 -31 -15 -47 -24 -28 -14 -33 -14 -82 9 -43 21 -58 24 -87 16 -26 -8 -39 -6 -55 4 -11 8 -30 12 -43 9 -18 -5 -29 1 -46 24 l-22 30 23 3 c29 4 29 32 0 36 -47 7 -11 103 48 131 23 11 35 24 37 41 2 14 8 29 13 35 5 5 9 17 9 26 0 25 12 30 49 19 42 -12 81 3 81 30 0 28 -40 46 -68 31 -40 -21 -55 -14 -49 23 3 19 -1 51 -8 72 -22 61 -20 68 18 59 34 -9 109 -15 222 -18 60 -2 70 0 73 16 7 34 -7 67 -28 67 -11 0 -20 4 -20 9 0 16 -76 50 -91 40 -22 -14 -27 -11 -31 19 -4 32 -32 37 -36 5 -2 -12 5 -27 17 -35 12 -8 18 -18 14 -21 -12 -13 -41 -7 -47 9 -5 12 -14 15 -40 10 -21 -4 -37 -2 -41 4 -4 6 -23 10 -44 9 -50 -2 -140 12 -147 23 -4 5 14 29 39 52 l46 42 -6 97 -6 97 24 0 c13 0 46 7 73 15 63 19 66 19 66 -5 0 -13 7 -20 20 -20 13 0 20 7 20 18 0 11 9 27 20 37 27 25 63 13 81 -27 9 -21 21 -33 34 -33 22 0 31 26 19 53 -4 9 -6 27 -5 40 1 12 -3 23 -11 23 -49 5 -77 8 -105 14 -24 5 -36 2 -51 -13 -19 -19 -26 -20 -99 -10 -77 9 -112 8 -145 -6 -11 -5 -23 -1 -35 13 -21 25 -27 26 -53 4 -34 -29 -25 -59 25 -89 50 -29 52 -32 28 -49 -13 -10 -17 -28 -17 -76 l-1 -64 -39 0 -40 0 -17 80 -17 80 24 23 c29 27 28 21 8 82 -9 27 -23 52 -33 54 -27 9 -234 10 -257 3 -19 -7 -22 -15 -20 -60 1 -29 8 -70 15 -93 11 -35 11 -45 -2 -70 -18 -35 -9 -66 27 -90 41 -26 56 -13 56 48 0 71 9 100 29 96 13 -3 18 -23 24 -103 4 -55 5 -105 3 -111 -2 -6 -25 -15 -50 -18 -32 -5 -47 -13 -51 -27 -7 -21 -53 -49 -83 -49 -45 0 -57 -54 -16 -72 22 -10 28 -10 39 5 9 13 20 16 39 11 31 -7 34 -20 6 -27 -32 -8 -37 -37 -10 -57 15 -11 20 -22 15 -30 -6 -10 -19 -1 -46 31 -32 37 -41 42 -56 33 -11 -7 -19 -26 -21 -47 -2 -19 -10 -41 -18 -47 -8 -7 -14 -19 -14 -27 0 -10 -4 -11 -19 -3 -11 5 -29 10 -41 10 -27 0 -45 -45 -31 -78 15 -31 14 -32 -12 -32 -59 0 -145 -78 -130 -117 3 -7 -6 -17 -20 -22 -14 -5 -28 -15 -32 -21 -4 -6 -18 -16 -32 -21 -20 -7 -24 -15 -20 -34 5 -30 -6 -40 -29 -27 -21 12 -83 -26 -84 -50 0 -10 14 -25 31 -33 17 -9 29 -18 27 -20 -1 -1 -33 2 -70 7 -61 9 -68 8 -97 -13 -28 -21 -30 -26 -28 -81 2 -50 5 -58 19 -55 25 7 36 -13 31 -55 -6 -46 -17 -48 -38 -8 -15 30 -60 60 -90 60 -8 0 -24 -5 -34 -12 -15 -9 -24 -8 -45 5 -32 21 -40 21 -61 1 -10 -11 -14 -25 -11 -40 5 -20 2 -24 -16 -24 -12 0 -32 -9 -44 -21 -21 -20 -23 -20 -49 -3 -27 17 -28 17 -44 -2 -15 -18 -25 -20 -109 -16 -78 4 -94 7 -103 23 -7 15 -6 21 6 25 19 8 48 67 43 91 -6 30 -33 21 -36 -12 -2 -17 -18 -43 -37 -62 -40 -39 -47 -41 -39 -9 8 34 -63 111 -94 102 -11 -4 -24 -16 -27 -27 -4 -12 -15 -19 -30 -19 -19 0 -30 10 -46 41 -21 43 -23 43 -86 24 -17 -6 -23 -3 -23 9 0 9 5 16 11 16 21 0 98 55 99 70 0 23 -20 40 -48 40 -13 0 -30 6 -38 14 -7 8 -19 17 -26 20 -10 3 -8 8 5 16 23 15 22 40 -3 40 -25 0 -70 28 -70 43 0 6 -7 18 -16 28 -14 16 -14 18 5 29 21 10 30 58 14 74 -4 3 -12 22 -19 41 -8 26 -9 37 0 43 21 15 86 33 96 27 18 -11 41 16 34 38 -6 20 9 37 36 37 12 -1 11 -4 -3 -15 -15 -11 -17 -20 -11 -47 4 -18 8 -38 8 -43 1 -6 17 -30 37 -54 l35 -43 37 16 c20 8 37 20 37 25 0 6 13 11 29 11 33 0 43 16 29 44 -8 15 -17 17 -47 12 -29 -4 -40 -1 -54 14 -9 11 -25 20 -36 20 -10 0 -24 6 -31 14 -9 12 -7 21 12 46 21 29 22 32 5 41 -9 6 -17 16 -17 24 0 8 -11 17 -25 21 -14 3 -30 15 -36 25 -9 17 -6 21 20 30 17 6 31 17 31 24 0 14 47 14 69 0 16 -9 36 9 26 25 -4 6 -14 9 -22 6 -9 -4 -18 4 -25 24 -12 37 -41 55 -66 41 -18 -9 -50 2 -63 22 -9 13 -131 26 -151 16 -25 -13 -32 -11 -43 14 -7 15 -20 23 -41 25 -27 3 -37 -4 -69 -42 -21 -26 -45 -46 -55 -46 -11 0 -29 -18 -44 -45 -29 -49 -38 -52 -84 -30 -32 17 -47 45 -43 82 2 18 -7 27 -42 43 -39 19 -59 21 -149 17 -56 -2 -178 -6 -269 -8 l-167 -4 14 25 c34 62 45 69 128 77 90 9 108 23 88 68 -11 24 -16 26 -45 20 -18 -3 -55 -8 -83 -10 l-51 -3 -7 51 c-3 29 -6 68 -6 88 0 38 -14 59 -41 59 -27 0 -36 -21 -42 -102 -5 -60 -2 -87 13 -128 22 -60 18 -75 -21 -96 -17 -8 -29 -23 -29 -34 0 -14 -8 -20 -33 -22 l-32 -3 -3 -165 -2 -166 67 3 c38 2 129 8 203 13 127 9 136 8 155 -10 12 -13 16 -23 10 -29 -8 -8 -316 -31 -407 -31 l-28 0 0 -3570 0 -3570 8000 0 8000 0 0 5300 0 5300 -8000 0 -8000 0 0 -675z m11016 -817 c2 -24 9 -88 16 -143 l13 -100 37 -17 c26 -12 38 -26 43 -47 8 -38 28 -55 60 -49 16 3 30 -1 41 -13 10 -11 30 -19 45 -19 15 0 31 -4 34 -10 4 -6 -6 -10 -24 -10 -16 0 -40 -4 -54 -9 -28 -11 -61 -58 -59 -85 0 -10 -9 -31 -20 -47 -18 -24 -20 -33 -10 -53 10 -22 8 -29 -13 -54 -13 -16 -29 -41 -35 -56 -6 -16 -24 -33 -44 -41 -32 -13 -39 -13 -85 8 -33 15 -60 36 -81 65 -29 40 -30 45 -16 61 34 37 7 122 -33 105 -9 -4 -68 -9 -131 -11 -99 -3 -119 -7 -145 -26 -31 -22 -45 -24 -256 -26 -42 -1 -58 -5 -63 -16 -7 -20 39 -95 59 -95 9 0 31 16 51 35 19 19 38 35 42 35 5 0 22 -16 39 -35 36 -40 52 -43 78 -15 12 13 25 18 38 14 11 -3 30 -1 43 6 33 18 54 6 54 -32 0 -23 -8 -38 -27 -54 -22 -17 -28 -32 -33 -74 l-5 -53 -59 -12 c-62 -13 -86 -32 -86 -71 0 -20 8 -23 86 -34 76 -11 86 -15 95 -37 5 -14 18 -27 29 -30 30 -8 24 -30 -10 -36 -21 -5 -31 -14 -36 -32 -4 -18 -16 -28 -43 -35 -58 -16 -65 -25 -76 -92 l-10 -63 -35 0 c-19 0 -45 -4 -57 -8 -22 -8 -22 -8 3 38 36 63 29 72 -52 73 -57 1 -71 5 -94 27 -29 28 -43 31 -59 12 -7 -9 -8 -24 -1 -47 13 -45 -15 -76 -71 -82 -32 -3 -45 2 -69 24 -17 15 -30 36 -30 47 0 12 -3 21 -7 21 -13 0 -53 -65 -53 -86 0 -11 -5 -25 -12 -32 -15 -15 -74 -16 -83 -1 -4 6 -19 7 -36 4 -25 -6 -29 -4 -29 14 0 13 -12 29 -31 40 -17 10 -37 28 -46 40 -13 20 -21 21 -68 16 -67 -9 -81 -1 -60 31 13 21 15 36 7 87 -8 48 -7 68 4 89 8 15 14 41 14 58 0 26 3 30 28 30 15 0 38 7 50 16 20 14 24 14 38 -1 21 -20 54 -16 68 9 6 11 24 31 40 46 l29 27 -17 44 c-10 24 -23 47 -29 51 -7 4 -49 8 -93 8 -84 0 -97 -5 -107 -45 -4 -19 -5 -19 -6 1 0 12 -8 27 -17 35 -13 10 -19 8 -40 -14 -28 -30 -36 -32 -63 -15 -16 10 -31 8 -77 -7 -59 -21 -65 -26 -89 -87 -14 -35 -19 -38 -53 -38 -21 0 -47 -7 -60 -15 -16 -12 -41 -15 -89 -13 l-68 3 -8 107 c-9 128 -1 158 42 158 16 0 32 -6 34 -12 4 -10 8 -10 15 1 8 11 41 15 134 17 189 5 312 14 325 26 9 7 21 7 40 -1 28 -11 168 -9 180 3 4 3 28 6 53 6 54 0 72 15 63 51 -8 34 -22 49 -46 49 -11 0 -28 7 -38 16 -18 16 -17 22 9 63 1 3 12 -6 23 -18 32 -34 63 -25 67 20 5 54 -12 61 -161 71 -116 8 -133 7 -143 -7 -12 -17 -8 -51 8 -61 5 -3 16 0 24 7 19 15 20 13 28 -43 8 -50 -5 -63 -32 -36 -10 10 -17 10 -31 1 -30 -19 -45 8 -42 77 2 48 -1 61 -16 68 -10 6 -80 13 -156 17 -80 4 -135 11 -130 16 5 5 111 10 236 10 207 1 229 3 251 20 29 23 74 24 121 5 18 -8 36 -12 39 -8 3 3 17 0 30 -8 14 -7 37 -10 52 -7 15 3 36 0 46 -6 14 -9 23 -9 39 1 16 10 24 10 35 1 8 -7 29 -9 48 -6 29 5 37 1 51 -19 18 -28 32 -30 56 -8 15 13 37 14 180 5 250 -16 340 -16 369 0 14 8 44 32 67 54 37 36 42 48 52 110 6 39 15 86 21 105 5 19 10 49 10 66 0 30 9 49 18 39 3 -2 6 -24 8 -47z m-3211 -1777 c8 -13 -22 -28 -92 -46 -67 -17 -77 -28 -99 -104 -22 -77 -15 -85 79 -89 71 -3 77 -1 92 22 21 32 62 42 86 20 17 -15 45 -16 321 -9 166 4 312 11 324 16 16 5 26 4 34 -6 20 -25 4 -41 -51 -53 -68 -14 -449 -32 -686 -32 -165 0 -183 -2 -195 -18 -21 -31 -57 -46 -74 -31 -10 8 -14 8 -14 0 0 -6 5 -11 11 -11 7 0 8 -11 4 -31 -5 -22 -2 -36 10 -49 9 -10 34 -71 55 -137 32 -98 36 -119 24 -121 -9 -2 -24 4 -34 13 -10 9 -25 15 -32 13 -14 -5 -17 -28 -24 -226 -6 -163 -2 -175 55 -170 l36 3 3 108 c2 89 6 109 19 114 25 10 49 -29 78 -123 14 -47 33 -88 41 -91 21 -8 42 13 49 50 11 55 26 97 35 97 26 0 38 -32 33 -83 -6 -60 10 -87 53 -87 13 0 24 -5 24 -11 0 -9 -59 -11 -217 -8 -206 4 -218 3 -221 -15 -2 -10 0 -22 6 -28 19 -19 414 -30 650 -17 201 10 226 10 257 -5 19 -10 35 -23 35 -31 0 -8 7 -15 15 -15 18 0 20 21 3 38 -9 9 -9 15 -1 23 8 8 15 3 27 -19 21 -41 20 -59 -5 -72 -19 -11 -19 -13 -5 -29 48 -53 -3 -67 -299 -84 -193 -11 -300 -13 -469 -5 -227 10 -266 7 -266 -17 0 -35 23 -64 54 -67 29 -3 31 -6 38 -56 7 -59 40 -109 99 -151 28 -20 30 -23 10 -18 -32 8 -61 -9 -61 -34 0 -25 43 -69 69 -69 17 0 16 -3 -9 -30 -33 -35 -40 -37 -40 -10 0 29 -26 76 -46 84 -9 4 -28 -1 -41 -10 -23 -14 -26 -14 -39 3 -7 10 -14 28 -14 41 0 19 5 22 39 22 52 0 71 8 71 31 0 24 -60 69 -94 69 -20 0 -34 -11 -59 -46 -29 -41 -32 -43 -41 -25 -19 44 -60 33 -71 -19 -3 -15 -15 -36 -26 -46 -10 -9 -19 -24 -19 -32 0 -12 -3 -12 -15 -2 -8 7 -15 19 -15 27 0 22 -35 11 -36 -12 -2 -48 -5 -55 -19 -55 -7 0 -18 6 -22 14 -8 13 -45 36 -58 36 -3 0 -3 -4 0 -10 3 -5 -4 -20 -17 -33 -14 -13 -22 -32 -20 -45 4 -28 -14 -29 -21 -1 -4 16 -11 20 -27 16 -14 -4 -29 2 -41 14 -14 14 -27 18 -42 13 -36 -11 -44 -22 -39 -54 3 -22 11 -32 28 -36 15 -4 24 -13 24 -25 0 -27 -25 -23 -45 7 -15 24 -18 24 -34 10 -25 -23 -44 -21 -30 3 10 15 7 24 -16 55 -29 39 -36 41 -64 26 -37 -19 -36 -70 1 -70 15 0 19 -6 16 -27 -4 -34 -20 -39 -33 -11 -10 23 -21 25 -61 13 -28 -9 -45 28 -30 67 13 35 -2 53 -37 44 -33 -8 -46 -59 -23 -85 12 -13 14 -25 8 -42 l-9 -23 -12 22 c-8 15 -21 22 -42 22 -17 0 -32 6 -35 15 -4 8 -10 15 -15 15 -5 0 -9 -7 -9 -15 0 -8 -3 -15 -6 -15 -7 0 -66 48 -100 81 -26 25 -59 22 -59 -6 0 -13 8 -21 23 -23 29 -4 20 -19 -24 -37 -76 -32 -17 -129 65 -105 24 7 31 5 31 -5 0 -25 79 -113 135 -150 66 -44 157 -133 152 -149 -2 -6 -35 -14 -73 -19 -38 -4 -96 -11 -128 -16 -50 -7 -62 -5 -76 9 -21 21 -105 16 -132 -7 -13 -12 -35 -14 -100 -9 -46 3 -135 8 -198 11 -98 5 -117 8 -133 26 -15 16 -28 20 -56 17 -79 -10 -150 28 -151 80 0 28 -5 35 -31 44 l-30 10 30 19 c41 25 41 57 1 72 l-29 11 -3 116 c-3 110 -4 115 -25 118 -36 5 -53 -51 -53 -174 0 -114 3 -110 -75 -116 l-40 -3 0 167 0 167 -40 -6 c-78 -11 -75 -5 -75 -184 l0 -159 -84 2 -85 2 0 153 c0 84 -3 158 -6 163 -3 6 -18 10 -33 10 -15 0 -38 7 -50 16 -12 8 -22 12 -23 7 0 -4 0 -84 1 -176 l2 -168 -43 3 -42 3 1 70 c1 39 -4 95 -11 125 -10 45 -17 56 -35 58 -23 4 -37 27 -52 90 -7 26 -5 34 11 43 10 5 19 16 19 24 0 20 -67 107 -92 120 -24 12 -24 11 -7 48 18 40 58 34 73 -11 16 -45 57 -94 99 -117 34 -18 38 -18 53 -3 15 15 14 18 -9 38 -21 18 -24 27 -16 42 5 10 14 16 18 13 5 -2 16 7 26 21 25 38 58 29 66 -19 7 -45 12 -51 37 -43 18 6 33 29 46 69 7 21 52 23 60 2 3 -8 0 -27 -6 -41 -14 -31 -4 -40 57 -50 22 -3 48 -15 58 -25 37 -39 159 -12 205 45 11 15 24 40 27 57 7 33 36 49 86 49 27 0 29 -3 29 -35 0 -32 -2 -35 -24 -29 -29 7 -42 -18 -21 -40 21 -21 18 -27 -9 -20 -30 7 -85 -39 -88 -75 -2 -18 2 -24 23 -26 40 -5 73 16 79 50 4 24 12 31 44 40 61 17 106 86 106 162 0 15 8 25 24 29 13 3 29 16 36 29 11 20 10 28 -4 50 -20 31 -22 31 -138 0 -79 -21 -127 -25 -321 -32 -288 -10 -472 -3 -495 20 -22 23 -10 30 30 19 20 -5 136 -6 288 -2 140 4 258 6 262 3 13 -7 213 29 235 43 28 18 81 17 113 -1 36 -21 159 -20 167 1 7 20 -9 51 -57 102 -47 52 -74 54 -101 7 -12 -19 -27 -35 -35 -35 -16 0 -19 16 -5 25 11 6 2 152 -11 177 -5 10 -4 45 2 85 5 37 17 131 25 207 16 151 23 167 82 191 28 12 39 11 102 -11 83 -29 121 -22 121 21 l0 26 73 -6 c39 -4 95 -16 123 -27 68 -27 116 -19 157 28 37 41 57 44 57 7 0 -16 3 -37 6 -49 5 -17 0 -22 -24 -27 -47 -10 -98 -112 -67 -137 7 -6 15 -22 18 -35 3 -19 0 -25 -13 -25 -19 0 -30 -19 -30 -54 0 -43 46 -61 85 -32 14 10 26 11 47 4 32 -11 43 -27 52 -80 6 -33 5 -36 -14 -31 -28 7 -70 -32 -70 -65 0 -15 15 -42 38 -66 l38 -41 -3 -183 c-2 -211 7 -252 55 -252 18 0 37 -9 50 -25 24 -28 32 -29 207 -26 96 2 133 6 243 27 12 3 32 14 43 25 19 19 19 28 13 161 -7 137 -6 141 12 133 45 -19 79 -1 89 47 5 21 3 33 -6 39 -21 13 -25 12 -63 -22 l-35 -30 -3 68 -3 68 -67 0 c-77 0 -97 12 -76 44 7 12 21 24 31 27 9 3 31 17 47 30 l30 25 23 -26 c36 -42 77 -29 123 41 30 45 34 57 24 69 -10 12 -10 21 -1 41 15 35 14 65 -5 93 -12 17 -14 28 -6 44 36 78 38 135 6 185 -15 23 -58 30 -69 12 -11 -19 -22 -10 -29 22 -10 49 32 68 52 23 13 -28 39 -32 68 -11 19 14 18 15 -8 43 -16 16 -28 34 -28 39 0 6 -13 23 -29 38 -18 17 -31 41 -33 60 -2 24 -8 32 -26 34 -33 5 -21 26 16 30 20 2 33 10 37 22 8 24 43 15 70 -17 19 -22 25 -23 83 -17 73 8 80 17 63 75 -14 46 -41 61 -96 52 -25 -4 -40 -13 -47 -29 -12 -25 -34 -22 -43 7 -4 11 -16 19 -30 19 -23 0 -41 25 -25 35 5 3 19 3 32 0 13 -3 47 -1 76 4 42 6 55 5 59 -5 8 -22 27 -17 57 15 27 28 29 28 55 13 24 -13 33 -14 60 -3 17 8 31 17 31 21 0 5 7 16 16 24 17 18 158 23 169 7z m-2937 -1950 c3 -54 0 -67 -17 -83 -25 -23 -25 -21 -5 -60 11 -22 13 -33 5 -41 -29 -29 4 -85 60 -102 21 -7 26 -25 7 -25 -7 0 -28 11 -47 24 -28 18 -45 22 -78 19 -50 -6 -53 -17 -19 -72 45 -71 75 -88 173 -98 125 -12 442 -6 543 9 72 11 87 17 95 36 5 12 16 22 23 22 7 0 15 7 18 15 3 8 21 19 40 25 30 10 37 9 67 -14 36 -28 84 -34 120 -15 18 10 23 8 35 -10 8 -11 23 -21 33 -21 12 0 23 -10 29 -25 7 -19 17 -25 42 -26 47 -2 92 -5 180 -13 93 -9 134 -2 141 25 7 28 51 24 80 -7 l24 -26 139 17 c233 27 273 35 279 53 8 26 62 52 106 52 21 0 39 5 39 10 0 6 11 10 24 10 14 0 28 -4 31 -10 3 -5 15 -10 26 -10 15 0 19 7 19 36 0 27 7 43 31 65 17 16 35 26 41 23 6 -4 6 -10 -1 -17 -19 -19 -12 -44 25 -93 31 -41 35 -50 25 -71 -6 -13 -11 -35 -11 -49 0 -16 -8 -28 -24 -35 -23 -11 -46 -47 -46 -73 0 -8 -7 -36 -15 -62 -8 -27 -17 -75 -20 -106 -7 -63 -24 -76 -44 -32 -10 22 -16 25 -41 21 -28 -6 -29 -4 -40 45 -12 56 -8 63 33 73 23 6 27 4 27 -14 0 -25 35 -29 44 -5 8 20 -12 47 -30 40 -10 -4 -12 2 -8 22 2 15 1 32 -3 39 -8 11 -171 34 -185 26 -5 -2 -8 -13 -8 -24 0 -10 -4 -19 -10 -19 -5 0 -10 13 -10 29 0 32 -31 51 -53 33 -14 -11 -153 -24 -263 -25 -55 0 -78 4 -92 16 -36 33 -83 10 -103 -50 -10 -31 -9 -38 5 -48 9 -7 16 -22 16 -35 0 -12 14 -35 30 -50 l30 -28 -32 -20 c-45 -29 -59 -20 -51 35 5 41 4 45 -13 41 -11 -2 -20 -13 -22 -26 -2 -12 -12 -27 -23 -32 -29 -16 -25 -50 6 -50 13 0 28 -7 33 -16 12 -22 -8 -64 -31 -64 -10 0 -34 -7 -54 -15 -20 -9 -45 -12 -57 -8 -20 6 -20 7 4 13 41 10 37 36 -6 43 -42 7 -54 3 -54 -19 0 -9 -10 -24 -21 -33 -21 -17 -21 -18 -4 -44 9 -15 25 -27 34 -27 9 0 26 -3 39 -6 17 -5 22 -2 22 12 0 11 4 25 9 33 7 11 14 3 30 -29 12 -24 21 -52 21 -63 0 -15 5 -18 25 -15 14 3 30 -1 36 -8 6 -8 17 -14 23 -14 6 0 17 -13 23 -29 7 -19 22 -33 47 -42 20 -7 36 -19 36 -26 0 -15 -16 -17 -25 -3 -4 6 -11 8 -16 4 -5 -3 -17 3 -27 14 -12 15 -35 22 -79 27 -75 8 -78 4 -65 -77 l9 -56 -26 1 c-20 2 -27 -3 -29 -22 -3 -20 -8 -22 -34 -17 -70 14 -71 61 -1 61 37 0 38 1 41 37 2 28 -2 40 -20 52 -17 12 -18 16 -6 16 26 0 41 25 23 40 -8 7 -15 21 -15 32 0 13 -6 18 -17 16 -11 -2 -17 -11 -15 -21 4 -21 -21 -22 -38 -2 -9 10 -9 15 -1 15 6 0 11 7 11 15 0 8 -7 15 -15 15 -8 0 -15 -4 -15 -10 0 -17 -22 -11 -47 12 -27 25 -29 38 -8 38 8 0 15 7 15 15 0 18 -26 20 -33 3 -7 -20 -37 57 -37 97 0 31 -3 35 -25 35 -20 0 -24 5 -22 23 2 19 -2 22 -25 19 -27 -3 -28 -1 -28 47 0 127 -106 320 -164 298 -32 -12 -28 -61 11 -143 37 -76 38 -83 38 -184 0 -95 -3 -111 -29 -168 -26 -55 -59 -92 -72 -79 -3 2 5 26 16 53 26 61 36 188 21 269 -13 71 -58 162 -93 188 -21 15 -28 16 -51 6 -38 -17 -41 -37 -16 -136 25 -103 23 -272 -3 -333 -9 -19 -21 -48 -27 -64 -11 -27 -13 -28 -29 -13 -13 14 -17 42 -19 149 -4 186 -19 278 -54 333 -16 25 -35 45 -43 45 -30 0 -66 -82 -71 -161 -12 -174 -18 -331 -16 -434 1 -62 -2 -105 -7 -100 -18 20 -52 115 -52 143 0 16 -8 44 -17 63 -25 47 -31 268 -10 318 13 30 13 40 1 73 -40 114 -72 124 -118 38 -31 -58 -66 -182 -66 -237 0 -17 -4 -35 -10 -38 -15 -9 -12 -41 5 -55 8 -7 15 -27 15 -45 0 -36 44 -151 67 -177 11 -12 12 -18 4 -18 -27 0 -99 87 -131 159 -42 93 -49 176 -24 281 25 111 29 174 10 189 -21 18 -49 0 -79 -51 -47 -82 -69 -158 -70 -245 -1 -46 -5 -83 -9 -83 -11 0 -28 70 -28 115 0 57 16 109 62 199 21 43 37 84 34 92 -9 23 -35 16 -68 -16 -17 -17 -32 -30 -33 -28 -1 2 -5 26 -8 54 -5 46 -3 54 19 75 30 28 31 59 3 66 -15 4 -19 11 -14 27 26 89 15 116 -46 116 -48 0 -61 -21 -49 -75 5 -23 5 -46 -1 -56 -14 -27 -11 -75 6 -89 19 -15 20 -69 1 -95 -7 -11 -13 -41 -13 -66 1 -87 -25 -87 -78 1 -36 59 -146 180 -164 180 -21 0 -22 -22 -2 -64 12 -23 28 -69 37 -101 15 -60 37 -104 84 -165 40 -52 51 -76 71 -158 25 -99 24 -109 -15 -195 -19 -41 -37 -94 -41 -118 -9 -54 -21 -79 -40 -79 -14 0 -35 57 -35 95 0 11 -7 30 -15 42 -8 11 -20 34 -25 50 -9 22 -9 26 1 16 7 -7 21 -13 31 -13 36 0 18 50 -54 154 -48 69 -58 96 -37 96 18 0 63 -55 97 -118 18 -33 39 -62 47 -66 30 -11 64 71 57 140 -3 33 -16 55 -73 119 -39 43 -79 94 -90 112 -11 18 -25 33 -29 33 -5 0 -23 14 -40 30 -36 35 -70 40 -70 10 0 -39 -31 -36 -64 6 -17 21 -48 54 -68 73 -36 33 -45 51 -68 139 -6 25 -17 42 -25 42 -64 0 21 -257 118 -357 17 -18 28 -33 23 -33 -22 0 -67 35 -116 89 -45 51 -60 61 -87 61 -29 0 -34 5 -53 48 -30 66 -37 144 -16 176 9 14 16 37 16 50 0 47 31 105 75 141 l44 35 51 -20 c28 -11 74 -20 103 -20 41 0 55 -4 65 -20 15 -25 37 -26 54 -2 10 14 28 17 88 17 l75 0 -1 36 c-1 31 3 36 32 45 36 12 43 9 60 -21 6 -11 21 -21 33 -23 12 -2 25 -10 28 -18 7 -20 43 -18 43 2 0 9 -8 23 -17 30 -16 12 -15 13 13 14 17 0 37 7 44 15 7 8 22 15 34 15 12 0 43 18 70 40 30 25 57 40 70 38 18 -3 21 -11 24 -67z"/>
 </g>
<g id="layer105" fill="#9a958f" stroke="none">
 <path d="M0 9925 c0 -656 1 -675 19 -675 20 0 31 -18 31 -50 0 -12 10 -21 30 -25 37 -8 61 9 58 39 -5 38 16 32 23 -6 11 -68 56 -92 112 -61 40 22 47 31 47 63 l0 25 13 -25 c20 -39 54 -51 129 -47 63 4 66 3 47 -12 -19 -15 -18 -51 1 -51 4 0 19 -11 34 -25 19 -18 38 -25 67 -25 21 0 48 -5 58 -12 17 -10 23 -8 40 13 11 13 20 30 21 37 0 17 25 15 40 -3 7 -8 23 -15 36 -15 26 0 30 -10 13 -27 -6 -6 -8 -16 -4 -23 9 -15 97 -2 108 16 13 23 53 17 65 -11 10 -23 14 -24 38 -13 24 11 29 10 42 -10 8 -12 21 -22 30 -22 12 0 14 9 9 45 -4 25 -2 47 3 50 6 3 10 26 10 50 0 68 14 95 49 95 19 0 34 -7 40 -19 7 -12 27 -21 57 -26 39 -6 49 -3 69 15 20 19 30 21 67 15 24 -4 48 -11 53 -16 6 -4 40 -9 75 -11 l65 -3 5 -92 c7 -128 6 -127 167 -124 146 2 162 -3 145 -46 -14 -35 -11 -138 5 -154 6 -6 19 -9 29 -5 13 5 15 14 11 42 -6 35 -6 35 26 29 18 -3 53 -16 79 -28 43 -20 47 -25 50 -62 3 -45 1 -44 113 -30 38 4 74 17 97 32 21 15 44 23 53 19 9 -3 25 -1 37 5 11 6 26 8 34 5 12 -4 12 -9 2 -25 -16 -26 5 -52 41 -49 15 1 33 -2 41 -7 7 -4 40 -10 73 -11 57 -2 59 -2 53 21 -5 20 -1 24 22 30 19 4 31 15 39 35 9 23 15 28 33 23 12 -3 27 -14 33 -24 7 -11 23 -19 36 -19 23 0 23 -1 8 -18 -21 -23 -21 -38 -1 -46 26 -10 33 -7 61 24 32 36 53 39 53 6 0 -14 4 -27 9 -30 4 -3 46 -5 92 -5 46 0 105 0 131 -1 43 -1 48 1 54 25 4 15 1 45 -5 66 -9 31 -9 47 0 74 16 44 0 65 -50 65 -40 0 -62 15 -54 36 3 10 22 14 59 14 65 0 78 16 63 76 -24 91 -25 84 16 84 33 0 36 -2 28 -22 -12 -35 -5 -150 11 -166 16 -17 44 -10 74 19 25 22 30 86 10 118 -29 48 38 69 116 36 32 -14 51 -45 26 -45 -14 0 -12 -37 3 -47 21 -14 76 -31 82 -25 3 3 5 20 5 39 l0 33 50 0 c42 0 50 -3 50 -19 0 -29 28 -47 51 -33 25 16 26 16 32 -15 8 -37 37 -53 99 -55 43 -1 55 3 67 21 l14 22 21 -26 c19 -24 29 -27 101 -30 111 -4 117 -8 110 -59 -8 -51 -1 -58 73 -74 72 -16 274 -16 290 0 20 20 15 66 -9 79 l-21 11 23 12 c22 11 24 18 25 94 0 48 5 87 12 94 14 14 18 4 26 -66 8 -68 35 -112 67 -108 38 6 49 24 56 95 3 37 10 67 14 67 5 0 16 -11 25 -25 13 -20 19 -23 30 -14 8 6 14 18 14 25 0 16 10 17 43 5 22 -9 26 -17 32 -83 9 -94 28 -118 87 -110 35 4 40 3 36 -14 -2 -13 -13 -20 -35 -22 -38 -4 -46 -13 -66 -72 -13 -38 -20 -46 -48 -53 -19 -4 -45 -12 -59 -16 -14 -4 -35 -4 -45 0 -11 4 -34 8 -52 8 -17 1 -35 6 -38 11 -10 15 -45 12 -52 -5 -9 -24 26 -55 61 -55 35 0 67 -23 86 -59 11 -22 16 -23 86 -19 41 3 77 1 80 -3 7 -12 117 -11 148 1 14 5 33 7 41 4 18 -7 20 -35 3 -52 -9 -9 -8 -13 5 -17 25 -10 62 -1 63 15 1 8 2 20 3 26 2 23 47 31 136 25 78 -5 90 -8 87 -23 -1 -10 6 -23 18 -30 14 -9 20 -23 20 -46 0 -26 4 -33 17 -30 9 2 20 14 23 28 4 16 14 26 28 28 12 2 22 10 22 19 0 11 -7 14 -25 11 -17 -4 -31 2 -46 18 l-23 24 75 -6 c41 -3 79 -1 86 3 9 6 9 34 1 116 -10 105 -6 137 12 107 6 -10 12 -11 18 -5 17 19 33 107 26 150 -8 54 0 69 26 52 16 -9 24 -9 41 1 31 20 39 4 28 -56 -8 -44 -7 -58 6 -78 8 -13 22 -24 30 -24 20 0 30 46 16 76 -15 34 -14 59 3 73 11 9 14 41 15 129 0 64 8 173 17 242 18 138 20 182 9 223 -6 23 -4 27 13 27 40 0 42 -17 26 -205 -16 -186 -14 -213 23 -312 12 -33 21 -43 38 -43 29 0 38 13 60 79 19 57 23 229 10 376 -6 55 -4 74 7 83 13 10 15 3 16 -46 0 -31 7 -74 16 -94 11 -27 16 -72 17 -155 1 -195 11 -278 36 -305 11 -13 23 -32 25 -43 4 -26 68 -34 88 -11 7 9 25 16 40 16 40 0 57 27 63 103 6 69 9 87 53 317 14 74 28 149 31 165 10 55 43 76 43 28 0 -16 7 -64 15 -108 8 -44 14 -125 15 -180 0 -56 6 -125 14 -155 8 -30 17 -75 21 -99 4 -24 14 -59 21 -77 8 -18 14 -44 14 -57 0 -15 8 -28 24 -35 21 -9 24 -20 31 -85 4 -51 12 -80 23 -90 26 -22 325 -47 337 -28 5 10 9 47 20 200 6 84 13 84 87 3 23 -24 22 -31 -2 -56 -21 -23 -36 -94 -23 -112 12 -15 106 -34 117 -23 6 5 5 17 -2 31 -16 32 -30 154 -20 172 6 11 17 14 32 10 14 -3 27 1 35 10 14 17 51 22 51 7 0 -4 -5 -23 -11 -40 -9 -24 -9 -35 0 -44 27 -27 -9 -165 -52 -200 -26 -21 -27 -24 -19 -89 8 -65 2 -98 -18 -98 -6 0 -10 13 -10 29 0 39 -22 55 -66 47 -31 -6 -36 -4 -41 13 -6 23 -37 28 -49 9 -4 -6 -6 -73 -5 -147 1 -75 2 -162 1 -194 -1 -42 4 -68 19 -93 25 -41 26 -48 7 -41 -8 3 -22 0 -32 -8 -15 -11 -16 -17 -7 -38 10 -20 9 -28 -3 -37 -21 -18 -17 -33 16 -65 29 -27 31 -34 28 -90 l-3 -60 -35 -5 c-28 -5 -41 -1 -67 21 -19 17 -50 30 -78 35 -29 4 -49 13 -56 25 -11 21 -34 25 -44 8 -4 -5 -1 -18 7 -27 9 -11 14 -37 13 -72 l-1 -55 -37 -3 c-41 -4 -59 17 -37 43 10 12 10 21 1 44 -11 26 -18 29 -74 34 -72 6 -91 -4 -85 -45 5 -31 -3 -36 -22 -13 -7 8 -21 15 -31 15 -10 0 -34 14 -53 30 -28 25 -34 37 -32 68 0 24 5 36 14 34 24 -5 52 18 52 43 0 16 -9 29 -26 38 -17 9 -23 17 -15 21 16 10 14 51 -4 66 -13 11 -13 16 0 47 18 43 19 107 2 147 -12 26 -14 27 -27 11 -7 -9 -16 -44 -18 -76 l-4 -60 -39 3 c-46 4 -58 22 -14 23 24 0 31 5 33 24 5 32 -16 52 -29 29 -15 -28 -34 -21 -47 15 -16 45 -17 44 23 51 28 6 35 11 35 30 0 26 -15 42 -45 48 -17 3 -20 11 -20 53 0 37 4 50 15 51 8 1 21 2 28 3 16 1 16 36 -1 50 -8 6 -33 8 -63 4 -43 -5 -53 -11 -79 -46 -16 -22 -45 -55 -64 -74 -34 -34 -34 -36 -22 -77 28 -90 4 -160 -55 -161 -32 0 -56 -31 -35 -44 7 -5 22 -6 32 -4 10 3 26 3 34 -1 13 -5 13 -9 3 -26 -15 -23 -6 -34 35 -44 16 -4 27 -2 27 4 0 5 15 16 33 25 17 8 40 20 49 27 14 10 20 10 29 1 10 -10 9 -17 -4 -31 -21 -23 -21 -31 0 -55 17 -18 17 -19 0 -28 -9 -6 -17 -18 -17 -28 0 -20 -35 -31 -96 -31 -38 0 -48 -24 -14 -33 23 -6 25 -15 6 -39 -11 -15 -25 -16 -103 -11 -91 6 -91 6 -81 29 9 18 20 24 57 26 38 3 46 6 46 23 0 18 -8 20 -87 23 -76 2 -88 5 -93 22 -7 22 -44 35 -73 26 -10 -4 -40 -28 -66 -54 l-47 -47 22 -17 c17 -15 19 -21 9 -33 -17 -21 -52 -19 -71 3 -15 17 -15 20 4 31 17 11 17 15 6 26 -10 10 -30 13 -72 8 -55 -6 -58 -7 -53 -29 6 -23 4 -24 -48 -24 -30 0 -57 4 -60 9 -3 5 1 22 9 37 12 24 12 32 1 49 -17 26 -51 31 -81 11 -20 -13 -22 -21 -18 -56 l6 -40 -36 0 c-43 0 -69 9 -61 21 3 5 -10 16 -28 23 -18 8 -46 26 -61 40 -34 32 -78 34 -132 6 l-40 -20 -7 21 c-6 16 -14 20 -33 15 -21 -5 -26 -2 -31 21 -10 40 -23 53 -53 53 -18 0 -29 7 -36 23 -8 17 -18 22 -50 22 -993 11 -1070 10 -1073 -6 -3 -18 63 -61 111 -73 15 -4 27 -12 26 -19 -3 -28 3 -35 48 -52 36 -14 50 -15 64 -6 23 14 99 14 119 0 12 -9 10 -10 -9 -6 -27 7 -91 -21 -91 -39 0 -6 10 -15 23 -18 38 -10 52 -23 40 -38 -6 -7 -13 -31 -16 -53 -3 -22 -7 -48 -9 -59 -1 -10 5 -23 15 -30 28 -18 51 4 57 56 3 25 11 52 18 61 14 17 7 43 -15 51 -12 5 -13 9 -4 20 10 12 16 12 41 -2 37 -21 63 -8 70 34 l5 29 143 0 c134 0 143 1 148 20 9 28 23 35 74 35 25 0 60 4 78 9 18 6 40 7 48 4 21 -8 17 -33 -6 -33 -11 0 -20 -6 -20 -13 0 -16 78 -67 104 -67 16 0 17 -3 8 -12 -7 -7 -12 -42 -12 -85 l0 -74 -37 1 c-21 1 -60 -2 -88 -7 -44 -7 -50 -11 -50 -33 0 -22 4 -25 40 -26 22 0 73 -4 113 -8 89 -9 182 1 182 19 0 7 -5 15 -11 17 -8 3 -9 21 -4 56 9 71 27 62 40 -19 l10 -64 50 -3 c46 -2 70 -9 118 -33 11 -6 25 -5 39 2 14 7 47 10 90 6 47 -4 81 -1 109 8 25 9 47 11 57 6 10 -5 46 -12 82 -15 35 -4 72 -12 81 -17 12 -6 32 -3 64 11 l47 20 -17 26 c-9 14 -15 27 -13 29 2 1 13 7 25 14 12 6 27 27 33 46 11 34 14 36 53 33 l42 -3 3 -52 3 -51 -43 -7 c-89 -15 -84 -55 8 -55 29 0 56 -4 59 -10 4 -6 -13 -10 -45 -10 -53 0 -73 -17 -52 -43 6 -7 9 -22 6 -34 -8 -29 9 -36 63 -28 41 6 44 9 39 30 -4 14 0 27 9 35 7 6 11 18 8 26 -4 11 9 14 68 14 40 0 88 6 107 12 31 12 36 11 51 -8 14 -18 24 -20 68 -14 28 3 63 15 79 25 26 18 45 19 203 17 168 -3 174 -3 197 19 l24 22 23 -20 c31 -29 87 -37 114 -18 20 14 25 14 46 0 16 -10 52 -15 116 -17 75 -1 98 -6 118 -21 22 -18 25 -18 42 -3 12 11 37 16 79 16 85 0 109 11 118 55 8 47 17 50 38 15 27 -47 51 -55 90 -30 35 21 46 38 46 71 0 11 7 42 16 70 12 35 15 68 10 117 -3 37 -8 96 -11 132 -2 36 -8 90 -13 120 -10 60 -8 70 14 70 14 0 18 -16 15 -60 -1 -15 11 -45 28 -70 21 -31 31 -57 31 -83 0 -22 8 -52 17 -68 16 -27 16 -31 0 -58 -21 -36 -22 -109 -1 -139 15 -21 14 -24 -8 -42 -13 -11 -31 -22 -40 -25 -14 -5 -18 -17 -18 -51 0 -24 4 -44 10 -44 5 0 17 -16 25 -36 19 -46 19 -47 -4 -32 -15 9 -25 9 -46 0 -14 -7 -35 -12 -45 -12 -15 0 -20 -7 -20 -25 0 -14 -4 -25 -10 -25 -5 0 -8 19 -6 44 6 64 -5 70 -98 56 -97 -15 -75 -15 -361 -1 -394 18 -763 20 -777 4 -21 -26 13 -43 157 -82 57 -16 73 -27 58 -42 -10 -10 -18 -10 -38 -1 -42 19 -77 14 -119 -18 -22 -17 -45 -30 -52 -30 -30 0 -63 25 -84 63 -19 33 -21 43 -11 59 7 11 9 28 6 38 -5 16 -10 17 -36 7 -26 -10 -30 -16 -25 -39 4 -20 1 -28 -8 -28 -7 0 -25 -18 -40 -40 -32 -48 -67 -60 -108 -35 -20 12 -40 15 -63 11 -28 -6 -35 -3 -40 14 -3 11 -13 20 -21 20 -16 0 -19 -26 -4 -35 6 -3 10 -19 10 -36 0 -22 5 -29 19 -29 11 0 21 5 23 10 2 7 16 5 36 -6 33 -16 92 -16 180 2 24 5 38 2 52 -11 17 -15 33 -17 103 -13 46 3 92 1 101 -4 13 -7 22 -5 35 6 22 20 30 20 53 -1 17 -15 19 -15 37 1 14 13 24 15 38 7 10 -5 26 -12 36 -15 10 -3 17 -12 14 -19 -4 -12 -139 -15 -482 -10 -331 5 -341 4 -355 -12 -10 -12 -7 -19 19 -42 37 -32 40 -59 9 -66 -29 -7 -541 -2 -758 7 -95 4 -192 14 -227 23 l-63 16 0 40 0 40 83 -6 c45 -4 262 -10 483 -13 l401 -7 28 37 c19 25 25 40 18 47 -19 19 -137 29 -353 29 -213 0 -700 23 -773 36 -41 7 -67 41 -77 98 -6 37 -23 43 -48 18 -28 -28 -18 -62 34 -116 50 -53 55 -82 20 -122 -22 -27 -24 -27 -33 -8 -6 10 -14 50 -18 87 -6 61 -9 69 -33 78 -35 14 -55 8 -62 -18 -3 -12 -21 -32 -40 -45 -31 -21 -35 -29 -33 -64 l3 -39 -20 40 c-11 22 -20 46 -20 52 0 7 -12 20 -26 29 -24 16 -27 16 -52 -3 -25 -19 -33 -35 -63 -141 -10 -35 -10 -45 0 -51 37 -23 434 -71 561 -68 19 0 71 -5 115 -11 49 -8 257 -15 531 -19 419 -6 453 -5 480 11 26 16 36 16 70 6 69 -21 127 -31 219 -40 119 -10 439 -30 544 -33 47 -1 86 -7 88 -12 2 -7 -107 -11 -324 -11 -312 0 -407 -6 -427 -24 -5 -5 -20 0 -35 11 -21 16 -38 18 -91 14 -166 -12 -585 -25 -675 -20 -55 2 -167 7 -250 10 -161 7 -224 22 -261 60 -19 21 -35 24 -160 31 -265 15 -487 5 -516 -24 -24 -24 -2 -46 75 -71 73 -25 76 -27 61 -43 -22 -21 -8 -40 49 -69 49 -25 77 -21 96 13 14 24 14 28 -2 46 -9 10 -17 22 -17 27 0 15 163 -5 194 -25 26 -15 50 -18 141 -18 71 1 119 -3 134 -11 31 -17 88 -24 183 -23 80 1 111 -11 55 -22 -17 -4 -40 -7 -49 -7 -9 0 -22 -7 -28 -14 -10 -12 -18 -10 -51 11 -50 31 -63 24 -55 -30 3 -22 5 -48 5 -56 -7 -87 1 -152 21 -181 35 -48 47 -24 53 99 3 57 8 106 11 109 8 9 22 -34 36 -115 12 -67 12 -73 -5 -86 -16 -12 -19 -33 -22 -209 -3 -173 -6 -201 -23 -229 -10 -18 -16 -39 -12 -45 12 -19 60 -33 113 -33 38 0 52 4 61 20 7 11 20 20 29 20 20 0 37 40 68 160 27 100 55 164 59 134 1 -10 -1 -71 -5 -134 -8 -113 -8 -115 -33 -118 -35 -5 -50 -20 -50 -52 0 -24 -5 -28 -52 -39 -29 -6 -71 -12 -93 -14 -33 -2 -40 -6 -40 -22 0 -29 69 -37 318 -38 211 0 236 4 224 37 -5 14 -29 16 -157 16 -93 0 -150 4 -150 10 0 6 53 10 139 10 103 0 143 4 153 13 8 8 27 12 48 9 19 -2 61 -6 93 -9 71 -6 75 -23 5 -23 -60 0 -84 -11 -75 -34 12 -31 228 -18 248 16 13 21 -10 37 -49 32 l-37 -4 40 15 c22 8 45 22 51 31 16 21 6 52 -23 71 -24 16 -25 20 -21 102 3 47 1 145 -4 216 -7 105 -12 135 -28 157 -24 32 -24 48 -6 110 21 67 53 101 91 94 16 -3 46 -2 65 3 48 11 61 5 50 -23 -6 -16 -3 -29 10 -46 18 -23 19 -24 59 -8 39 15 43 15 110 -8 83 -29 121 -22 121 21 l0 26 73 -6 c39 -4 95 -16 123 -27 68 -27 116 -19 157 28 38 42 81 48 71 10 -7 -30 10 -86 38 -121 23 -30 19 -40 -12 -30 -14 4 -19 12 -15 24 7 24 -28 55 -54 46 -25 -8 -64 -68 -59 -92 3 -18 29 -26 126 -40 39 -5 46 -3 71 24 l27 30 -33 38 c-18 21 -38 56 -43 76 -6 21 -15 41 -20 44 -18 11 -10 25 13 25 13 0 32 -9 42 -20 25 -28 124 -29 148 -2 21 23 22 71 1 100 -19 27 -9 43 37 62 25 11 32 10 48 -4 30 -27 38 -18 40 47 5 123 2 118 53 87 36 -22 103 -27 114 -9 7 12 -62 78 -82 79 -7 0 -14 9 -17 20 -4 17 -11 19 -31 14 -31 -7 -35 10 -6 26 11 6 20 20 20 30 0 16 7 20 33 20 18 0 38 -5 44 -11 6 -6 31 -11 57 -12 25 -1 46 -5 46 -9 0 -19 21 -5 35 21 14 28 5 55 -10 31 -5 -8 -11 -7 -21 1 -19 16 -18 26 7 40 16 8 23 8 29 -1 5 -8 9 -7 13 4 7 18 57 22 57 5 0 -6 -5 -19 -11 -30 -6 -11 -15 -44 -20 -72 -6 -29 -12 -64 -15 -78 -3 -15 -24 -48 -45 -75 -35 -42 -38 -49 -25 -62 13 -13 11 -17 -16 -36 -17 -12 -36 -30 -42 -41 -5 -11 -19 -33 -29 -48 -11 -17 -16 -36 -12 -48 4 -12 1 -27 -9 -38 -14 -15 -14 -20 -1 -38 20 -29 63 -37 111 -21 30 11 39 18 38 36 0 13 5 22 13 22 9 0 12 -7 9 -17 -22 -76 -17 -125 10 -102 25 20 35 80 19 106 -15 22 -14 23 21 38 48 20 51 19 58 -10 5 -18 13 -25 31 -25 36 0 40 18 11 49 -14 15 -26 31 -26 35 0 13 -47 54 -70 61 -23 7 -27 25 -5 25 8 0 15 6 15 14 0 23 -18 28 -29 9 -8 -14 -12 -16 -22 -5 -7 6 -22 12 -33 12 -18 0 -18 1 4 25 17 18 34 25 61 25 28 0 39 5 44 19 8 25 43 17 70 -16 19 -22 25 -23 83 -17 73 8 80 17 63 75 -14 46 -41 61 -96 52 -25 -4 -40 -13 -47 -29 -12 -25 -34 -22 -43 7 -4 11 -16 19 -30 19 -23 0 -41 25 -25 35 5 3 19 3 32 0 13 -3 47 -1 76 4 42 6 55 5 59 -5 8 -22 27 -17 57 15 27 28 29 28 55 13 24 -13 33 -14 60 -3 17 8 31 17 31 21 0 5 7 16 16 24 11 12 35 16 89 16 113 0 108 -24 -12 -55 -32 -8 -64 -22 -70 -32 -22 -29 -46 -126 -35 -143 15 -23 136 -18 171 7 49 35 156 82 225 98 70 16 96 29 96 48 0 6 -19 7 -50 3 -27 -4 -50 -4 -50 0 0 14 36 33 61 34 28 0 74 39 82 69 2 10 -2 35 -9 56 -9 27 -10 44 -3 57 6 11 9 34 7 51 -3 35 -9 33 95 29 l43 -2 -1 -42 c-1 -24 -5 -51 -9 -60 -15 -33 -3 -63 27 -66 49 -6 57 10 50 100 l-6 80 44 -7 c24 -4 45 -8 45 -9 1 0 -2 -30 -7 -66 -11 -75 -7 -90 21 -90 24 0 60 -17 60 -28 0 -15 -72 -44 -83 -33 -6 6 -20 2 -39 -12 l-29 -21 -25 27 c-14 15 -36 27 -49 27 -14 0 -29 8 -35 20 -6 11 -20 20 -30 20 -23 0 -25 -10 -7 -29 10 -10 7 -17 -15 -35 -31 -24 -36 -47 -13 -66 19 -16 325 -6 357 11 25 14 38 3 38 -31 0 -25 -5 -31 -37 -40 -21 -6 -153 -15 -292 -20 -140 -6 -259 -14 -264 -19 -5 -5 -7 -17 -5 -27 3 -18 14 -19 158 -15 85 2 214 7 285 11 112 6 132 5 143 -8 22 -28 13 -41 -39 -56 -28 -9 -54 -14 -58 -12 -3 2 -78 0 -166 -5 -88 -5 -264 -11 -390 -14 -221 -4 -233 -5 -289 -30 -45 -20 -61 -23 -72 -14 -10 8 -14 8 -14 0 0 -6 5 -11 10 -11 7 0 8 -13 4 -35 -6 -31 -4 -35 22 -41 16 -4 35 -12 43 -18 7 -5 34 -13 60 -16 l46 -5 3 -127 c2 -123 2 -128 -18 -128 -26 0 -26 -22 1 -80 19 -41 22 -44 34 -27 12 17 16 17 59 3 26 -9 53 -16 61 -16 10 0 15 -10 15 -29 0 -16 7 -34 15 -41 10 -9 15 -32 15 -74 0 -35 5 -67 12 -74 16 -16 113 -15 126 1 7 8 13 69 14 148 l3 134 25 0 c20 0 27 -8 40 -44 18 -52 47 -72 36 -25 -18 75 -19 84 -2 84 8 0 20 -9 26 -21 15 -27 54 -22 58 8 2 12 10 27 18 33 19 16 21 299 2 318 -7 7 -33 12 -58 12 -25 0 -51 -5 -58 -12 -8 -8 -12 -53 -12 -135 0 -68 -3 -123 -8 -123 -12 0 -30 34 -42 79 -7 26 -17 41 -27 41 -12 0 -14 -7 -9 -32 22 -103 21 -105 -21 -111 -21 -4 -57 -7 -80 -7 l-43 0 0 123 c0 84 4 127 12 135 10 10 10 17 1 31 -7 10 -9 22 -6 25 4 3 82 6 175 6 149 0 177 3 233 22 63 22 65 22 95 5 23 -14 41 -17 70 -12 36 6 40 5 40 -14 0 -27 -15 -34 -40 -21 -34 18 -50 -4 -50 -65 0 -35 5 -57 15 -65 11 -9 15 -33 15 -91 l0 -78 -34 6 c-67 11 -69 4 -68 -172 0 -170 2 -175 54 -175 50 0 58 20 58 151 0 67 4 119 9 119 6 0 12 -48 14 -107 2 -60 6 -117 8 -127 3 -13 -6 -25 -26 -37 -44 -26 -460 -52 -681 -43 -175 7 -254 1 -254 -21 0 -18 47 -24 265 -33 264 -10 631 7 696 33 18 7 33 -39 43 -127 5 -45 4 -48 -30 -69 -31 -18 -59 -23 -197 -32 -89 -6 -307 -11 -484 -11 -233 -1 -325 -4 -334 -13 -7 -7 -9 -22 -5 -37 5 -22 12 -26 41 -26 33 0 34 -1 40 -47 12 -80 45 -126 113 -156 66 -30 108 -34 137 -13 11 7 31 17 43 21 23 7 23 7 7 -19 -23 -35 -13 -90 21 -112 31 -21 104 -13 119 12 21 35 41 53 65 59 22 5 27 2 35 -27 16 -54 85 -48 85 8 0 26 -30 47 -62 42 -12 -2 -23 2 -25 7 -2 6 26 10 70 10 39 0 84 3 99 8 60 16 131 105 148 182 3 17 13 31 23 33 14 3 17 -4 17 -42 0 -25 -5 -56 -11 -69 -8 -18 -8 -30 1 -48 13 -23 12 -24 -7 -6 -28 25 -48 21 -77 -13 -14 -17 -41 -37 -60 -45 -47 -20 -60 -45 -39 -74 12 -19 22 -22 46 -17 17 4 42 16 55 29 l24 22 -7 -25 c-4 -14 -15 -33 -25 -44 -16 -16 -22 -17 -53 -6 -59 22 -75 4 -68 -82 1 -14 -3 -29 -8 -33 -13 -8 -14 -124 -1 -145 14 -23 -8 -40 -51 -40 l-39 0 0 104 c0 59 4 108 10 111 21 13 9 45 -27 70 -43 29 -65 31 -83 10 -9 -11 -9 -19 -2 -28 6 -7 12 -71 13 -147 l2 -135 -83 0 -83 0 2 136 c2 111 0 138 -13 148 -8 7 -20 29 -27 49 -15 49 -27 62 -53 62 -27 0 -46 -18 -46 -42 0 -10 -15 -27 -32 -38 -48 -28 -60 -40 -56 -58 4 -21 48 -21 95 -1 18 7 34 11 37 8 3 -2 6 -63 7 -134 l1 -130 -35 -3 c-47 -4 -66 -26 -43 -50 20 -23 21 -52 2 -52 -7 0 -19 -6 -25 -14 -9 -11 -8 -17 4 -28 9 -7 26 -23 38 -36 l21 -22 23 21 22 22 21 -24 21 -24 15 23 c19 25 34 29 34 8 0 -26 23 -30 41 -8 22 27 41 28 57 2 15 -24 48 -26 60 -4 8 14 10 14 21 0 17 -20 35 -20 51 -1 9 11 16 13 24 5 17 -17 48 -11 53 10 3 12 18 27 34 35 27 15 29 14 43 -12 13 -25 12 -32 -5 -66 -16 -30 -23 -36 -37 -29 -9 5 -40 12 -69 15 -41 5 -57 2 -75 -12 -24 -19 -64 -20 -248 -7 -41 3 -99 3 -128 0 -50 -5 -53 -7 -50 -32 2 -21 10 -28 38 -34 61 -13 268 -19 275 -7 4 5 19 7 35 4 20 -4 35 0 58 20 35 29 40 30 78 10 34 -18 84 -19 118 -4 22 10 28 8 60 -24 24 -25 36 -46 36 -64 0 -16 7 -39 16 -51 13 -19 14 -28 4 -52 -7 -16 -9 -42 -5 -58 3 -17 2 -33 -4 -36 -6 -4 -15 -25 -21 -46 -8 -28 -16 -40 -29 -40 -10 0 -24 -7 -31 -16 -10 -11 -23 -14 -51 -9 -33 6 -40 3 -55 -19 -13 -21 -19 -24 -30 -15 -8 6 -14 20 -14 30 0 24 -29 39 -57 28 -15 -5 -23 -17 -23 -31 0 -30 -15 -52 -29 -44 -6 4 -11 18 -11 32 0 33 -40 52 -76 35 -20 -9 -25 -17 -22 -38 2 -16 -2 -28 -11 -31 -11 -4 -13 2 -8 27 6 27 3 33 -19 41 -57 22 -84 9 -84 -42 0 -26 -24 -18 -28 11 -4 26 -46 56 -67 47 -18 -6 -20 -37 -3 -54 16 -16 1 -29 -20 -16 -10 7 -17 24 -17 40 0 29 -9 35 -77 49 -15 3 -40 16 -55 29 -25 22 -26 26 -14 49 12 22 11 29 -5 56 -18 30 -18 32 -1 61 11 18 16 39 12 51 -4 11 -1 27 6 36 7 8 16 44 20 79 4 38 13 72 23 83 25 27 45 118 48 217 3 89 3 89 -22 89 -20 0 -26 -6 -30 -30 -9 -51 -29 -34 -66 55 -19 47 -37 91 -40 97 -5 10 1 10 25 2 17 -6 31 -17 31 -25 0 -20 27 -17 61 7 25 17 29 27 29 65 0 31 -6 50 -20 64 -24 24 -29 24 -58 4 -22 -15 -24 -15 -37 2 -8 11 -15 29 -15 42 0 19 5 22 39 22 52 0 71 8 71 31 0 24 -60 69 -94 69 -20 0 -34 -11 -59 -46 -29 -41 -32 -43 -41 -25 -12 28 -37 35 -55 16 -13 -12 -16 -39 -17 -123 0 -121 -17 -186 -46 -179 -23 6 -39 -14 -31 -41 5 -22 -3 -27 -31 -16 -8 3 -12 12 -9 19 2 8 2 19 -2 25 -9 14 -63 -18 -71 -43 -9 -29 -64 -58 -86 -46 -19 10 -25 49 -8 49 6 0 10 5 10 11 0 6 -7 8 -17 5 -10 -4 -26 2 -42 18 -32 29 -91 38 -147 21 -35 -11 -46 -10 -78 6 -43 21 -113 22 -141 3 -17 -12 -22 -11 -42 8 -18 16 -30 20 -62 15 -31 -4 -44 -1 -57 14 -9 10 -23 19 -30 19 -31 0 -37 -65 -7 -83 7 -4 13 -19 13 -32 0 -37 39 -88 105 -136 32 -24 98 -83 146 -132 76 -76 92 -88 123 -89 20 -1 42 4 48 10 7 7 31 12 54 12 28 0 44 5 48 15 3 8 11 15 18 15 7 1 22 15 33 33 11 17 29 36 40 42 11 6 36 21 55 33 45 28 52 28 67 -4 10 -22 9 -26 -12 -36 -43 -19 -40 -53 8 -105 17 -19 19 -27 9 -48 -7 -14 -12 -37 -12 -51 0 -16 -8 -28 -24 -36 -14 -6 -29 -22 -35 -37 -28 -75 -72 -340 -76 -456 -2 -59 -9 -98 -29 -146 -14 -36 -26 -79 -26 -95 0 -30 -24 -74 -40 -74 -5 0 -10 16 -12 36 -4 44 -29 65 -55 48 -13 -8 -19 -27 -21 -63 -3 -58 11 -72 54 -53 24 12 24 12 24 -49 0 -38 6 -69 16 -84 9 -13 13 -29 9 -35 -9 -15 -32 -12 -39 5 -3 8 -12 15 -21 15 -12 0 -14 -8 -9 -42 4 -24 11 -48 16 -55 15 -19 -40 -41 -102 -39 -41 1 -55 5 -55 16 0 16 -59 32 -87 24 -10 -3 -33 0 -52 7 -40 14 -105 -1 -141 -32 -12 -11 -30 -16 -45 -13 -33 7 -70 -20 -52 -37 23 -24 12 -26 -65 -12 -43 7 -102 16 -130 20 -29 3 -53 10 -53 15 0 6 20 7 50 3 46 -6 50 -5 50 14 0 24 -28 41 -67 41 -32 0 -73 -25 -73 -44 0 -17 -82 -49 -104 -40 -25 10 -74 -15 -78 -39 -4 -28 -31 -29 -36 -2 -6 32 -22 45 -69 56 -24 6 -46 15 -48 20 -9 13 33 21 54 10 47 -25 89 0 60 36 -8 9 -13 24 -11 35 2 11 -3 18 -12 18 -9 0 -16 -7 -16 -16 0 -16 -27 -43 -42 -44 -14 0 -9 45 7 66 9 12 14 44 15 92 0 75 6 84 33 54 21 -23 22 -59 2 -78 -34 -34 -5 -66 41 -46 16 8 24 20 24 36 0 16 7 27 20 31 24 8 26 31 3 43 -13 8 -16 24 -14 88 1 64 -2 85 -19 111 -23 39 -52 42 -73 9 -20 -30 -46 -56 -57 -56 -21 0 -38 69 -38 155 -1 76 3 96 22 130 13 22 31 61 41 88 15 40 21 46 38 41 22 -7 37 10 37 44 0 18 -5 23 -22 20 -21 -3 -23 2 -29 67 -8 86 -39 169 -84 228 -51 67 -88 74 -100 19 -4 -21 4 -49 32 -108 37 -76 38 -83 38 -184 0 -95 -3 -111 -29 -168 -26 -55 -59 -92 -72 -79 -3 2 5 26 18 53 19 42 22 66 22 169 -1 129 -10 167 -59 244 -29 48 -59 63 -92 48 -34 -15 -36 -37 -12 -134 25 -103 23 -272 -3 -333 -9 -19 -21 -48 -27 -64 -11 -27 -13 -28 -29 -13 -13 14 -17 42 -19 149 -4 186 -19 278 -54 333 -16 25 -35 45 -43 45 -30 0 -66 -82 -71 -161 -12 -174 -18 -331 -16 -434 1 -62 -2 -105 -7 -100 -18 20 -52 115 -52 143 0 16 -8 44 -17 63 -25 47 -31 268 -10 318 13 30 13 40 1 73 -40 114 -72 124 -118 38 -31 -58 -66 -182 -66 -237 0 -17 -5 -35 -10 -38 -15 -9 -12 -41 5 -55 8 -7 15 -27 15 -45 0 -36 44 -151 67 -177 11 -12 12 -18 4 -18 -27 0 -99 87 -131 159 -42 93 -49 176 -24 281 25 111 29 174 10 189 -21 18 -49 0 -79 -51 -47 -82 -69 -158 -70 -245 -1 -46 -5 -83 -9 -83 -11 0 -28 70 -28 115 0 57 16 109 62 199 21 43 37 84 34 92 -10 25 -38 15 -78 -28 l-38 -41 0 61 c0 39 6 71 18 92 17 31 17 31 -7 51 -18 15 -21 23 -13 31 16 16 15 101 0 116 -7 7 -21 12 -33 12 -44 0 -57 -42 -31 -104 12 -30 12 -34 -5 -44 -24 -15 -24 -33 1 -65 26 -33 26 -81 -1 -106 -15 -14 -20 -27 -16 -43 8 -28 -2 -98 -13 -98 -5 0 -23 16 -42 36 -18 20 -43 46 -55 57 -13 11 -23 26 -23 33 0 16 -39 25 -62 13 -10 -5 -18 -16 -18 -23 0 -29 31 -99 67 -152 67 -98 75 -113 94 -190 25 -102 25 -111 -15 -197 -19 -41 -37 -94 -41 -118 -9 -54 -21 -79 -40 -79 -14 0 -35 57 -35 95 0 11 -7 30 -15 42 -8 11 -20 34 -25 50 -9 22 -9 26 1 15 18 -17 49 -15 49 3 0 29 -40 101 -86 153 -28 31 -44 58 -40 67 13 36 54 1 110 -95 54 -92 63 -95 93 -33 10 23 16 56 15 86 -2 44 -8 57 -50 104 -26 29 -67 79 -90 111 -24 31 -51 61 -60 66 -10 5 -27 20 -39 33 -12 12 -31 23 -43 23 -28 0 -27 -48 1 -84 38 -48 11 -40 -41 12 -27 28 -50 53 -50 56 0 3 -22 27 -49 54 -46 47 -57 67 -81 160 -6 25 -17 42 -25 42 -64 0 21 -257 118 -358 17 -17 28 -32 23 -32 -22 0 -67 35 -116 89 -45 51 -60 61 -87 61 -29 0 -34 5 -53 48 -30 66 -37 144 -16 176 9 14 16 37 16 50 0 46 31 105 75 141 28 23 46 46 50 68 10 46 10 46 62 30 63 -19 278 -34 315 -21 36 13 36 30 -2 47 -22 9 -65 12 -148 10 -111 -4 -119 -3 -149 20 -40 30 -48 78 -10 67 51 -15 166 -19 182 -6 27 23 -1 40 -66 40 -72 0 -111 16 -107 44 2 14 10 20 23 19 11 -1 63 -5 117 -9 85 -6 99 -10 124 -33 l29 -26 -39 -5 c-81 -10 -40 -50 50 -50 25 0 55 -5 67 -11 32 -17 87 -70 103 -101 12 -24 21 -28 58 -28 27 0 48 6 56 15 7 8 22 15 34 15 13 0 40 15 62 33 21 18 54 43 71 56 25 17 33 30 33 53 0 23 -21 85 -36 106 -2 3 -30 10 -48 11 -23 2 12 20 44 23 48 4 52 35 10 88 -45 57 -65 53 -85 -15 -9 -31 -13 -59 -11 -64 9 -13 -38 -30 -57 -20 -9 5 -39 11 -66 14 -28 2 -61 11 -73 19 -29 21 -33 20 -57 -5 -21 -23 -40 -21 -99 9 -31 16 -34 16 -43 0 -6 -10 -16 -18 -23 -18 -32 0 -36 93 -6 125 18 19 19 29 13 76 -8 53 -9 54 -45 57 -46 4 -47 0 -51 -153 l-2 -110 -30 -3 c-66 -6 -140 51 -85 65 16 4 20 14 20 44 0 32 -3 39 -20 39 -25 0 -36 40 -20 70 9 17 9 25 -2 38 -15 18 -38 67 -38 82 0 5 9 12 20 15 30 10 24 38 -16 79 -36 37 -36 39 -25 77 10 33 16 40 33 37 14 -2 24 -13 29 -32 16 -58 84 -106 149 -106 47 0 88 26 111 71 19 39 22 41 55 35 32 -7 34 -5 34 22 0 34 -16 52 -47 52 -12 0 -42 14 -66 31 -40 28 -52 31 -148 36 -57 3 -111 9 -119 13 -9 5 -23 4 -33 -1 -12 -7 -30 -4 -64 12 -52 23 -44 38 9 20 38 -13 352 -18 386 -7 29 10 67 -20 67 -54 0 -20 6 -26 29 -28 40 -5 54 12 31 38 -18 19 -18 20 1 20 11 0 26 6 33 13 7 7 41 12 90 12 51 0 84 5 95 14 19 16 21 76 4 91 -52 43 -94 70 -109 70 -10 0 -34 -14 -54 -31 -36 -32 -93 -47 -139 -35 -14 3 -43 25 -65 47 -47 50 -79 49 -104 -3 -20 -41 -9 -61 42 -77 72 -21 61 -57 -14 -46 -22 4 -87 10 -145 15 -58 5 -122 12 -143 15 -41 8 -43 13 -50 106 -3 53 -2 58 24 73 15 9 32 16 38 16 17 0 13 -78 -5 -110 -29 -49 4 -80 85 -80 60 0 94 51 51 78 -17 11 -20 23 -20 96 0 99 -5 116 -34 116 -11 0 -30 7 -40 15 -24 18 -50 19 -75 3 -14 -9 -23 -8 -42 5 -25 18 -79 22 -107 8 -9 -4 -31 -15 -47 -24 -28 -14 -33 -14 -82 9 -43 21 -58 24 -87 16 -26 -8 -39 -6 -55 5 -12 8 -30 12 -41 8 -22 -7 -70 21 -70 40 0 8 10 15 23 17 12 2 22 10 22 18 0 8 -10 16 -22 18 -47 7 -11 103 48 131 23 11 35 24 37 41 2 14 8 30 13 37 19 22 27 154 12 202 -18 62 -18 65 20 56 34 -9 109 -15 222 -18 60 -2 70 0 73 16 7 34 -7 67 -28 67 -11 0 -20 4 -20 10 0 15 -70 40 -95 34 -15 -4 -24 0 -28 10 -4 9 -11 16 -17 16 -16 0 -12 -30 5 -36 8 -4 12 -10 9 -15 -9 -15 -41 -10 -48 7 -5 12 -14 15 -40 10 -21 -4 -37 -2 -41 4 -4 6 -25 11 -48 10 -100 -1 -356 13 -368 21 -25 15 -2 19 101 20 95 0 106 2 133 25 15 13 34 24 42 24 29 0 35 26 27 120 -5 62 -5 93 2 95 6 1 41 10 78 19 82 20 78 20 78 -4 0 -13 7 -20 20 -20 13 0 20 7 20 18 0 32 34 55 69 47 24 -5 31 -12 31 -30 0 -12 7 -28 16 -35 23 -20 54 12 37 38 -6 10 -9 30 -6 45 4 18 1 27 -8 28 -47 4 -78 8 -106 14 -24 5 -36 2 -51 -13 -19 -19 -26 -20 -99 -10 -77 9 -112 8 -145 -6 -11 -5 -23 -1 -35 13 -21 25 -27 26 -53 4 -34 -29 -25 -59 25 -89 50 -29 52 -32 28 -49 -13 -10 -17 -28 -17 -76 l-1 -64 -40 0 c-35 0 -40 3 -46 30 -4 17 -12 52 -18 79 -11 47 -11 51 14 73 30 28 29 22 9 83 -9 27 -23 52 -33 54 -27 9 -234 10 -258 2 -19 -6 -21 -13 -19 -66 1 -39 8 -65 19 -78 21 -23 22 -42 2 -68 -28 -37 -9 -94 32 -94 14 0 23 11 31 38 7 20 11 44 10 52 -4 42 2 51 30 48 26 -3 27 -6 30 -63 1 -33 6 -69 11 -80 5 -11 12 -44 15 -72 l5 -53 -64 0 c-47 0 -74 -5 -97 -20 -18 -11 -42 -20 -54 -20 -47 0 -60 -53 -18 -72 22 -10 28 -10 39 5 9 13 20 16 39 11 31 -7 34 -20 6 -27 -32 -8 -37 -37 -10 -57 15 -11 20 -22 15 -30 -6 -10 -19 -1 -46 31 -32 37 -41 42 -56 33 -11 -7 -19 -26 -21 -47 -2 -19 -10 -41 -18 -47 -8 -7 -14 -19 -14 -27 0 -10 -4 -11 -19 -3 -11 5 -29 10 -41 10 -27 0 -45 -45 -31 -78 15 -31 14 -32 -12 -32 -59 0 -145 -78 -130 -117 3 -7 -6 -17 -20 -22 -14 -5 -28 -15 -32 -21 -4 -6 -18 -16 -32 -21 -20 -7 -24 -15 -20 -34 5 -30 -6 -40 -29 -27 -21 12 -83 -26 -84 -50 0 -10 14 -25 31 -33 17 -9 29 -18 27 -20 -1 -1 -33 2 -70 7 -61 9 -68 8 -97 -13 -28 -21 -30 -26 -28 -81 2 -50 5 -58 19 -55 25 7 36 -13 31 -55 -6 -46 -17 -48 -38 -8 -15 30 -60 60 -90 60 -8 0 -24 -5 -34 -12 -15 -9 -24 -8 -45 5 -32 21 -40 21 -61 1 -10 -11 -14 -25 -11 -40 5 -20 2 -24 -16 -24 -12 0 -32 -9 -44 -21 -21 -20 -23 -20 -49 -3 -27 17 -28 17 -44 -2 -15 -18 -25 -20 -109 -16 -78 4 -94 7 -103 23 -7 15 -6 21 6 25 19 8 48 67 43 91 -6 30 -33 21 -36 -12 -2 -17 -18 -43 -37 -62 -40 -39 -47 -41 -39 -9 8 34 -63 111 -94 102 -11 -4 -24 -16 -27 -27 -4 -12 -15 -19 -30 -19 -19 0 -30 10 -46 41 -21 43 -23 43 -86 24 -17 -6 -23 -3 -23 9 0 9 5 16 11 16 21 0 98 55 99 70 0 23 -20 40 -48 40 -13 0 -30 6 -38 14 -7 8 -19 17 -26 20 -10 3 -8 8 5 16 23 15 22 40 -3 40 -25 0 -70 28 -70 43 0 6 -7 18 -16 28 -14 16 -14 18 5 29 21 10 30 58 14 74 -4 3 -12 22 -19 41 -8 26 -9 37 0 43 21 15 86 33 96 27 18 -11 41 16 34 38 -6 20 9 37 36 37 12 -1 11 -4 -3 -15 -15 -11 -17 -20 -11 -47 4 -18 8 -38 8 -43 1 -6 17 -30 37 -54 l35 -43 37 16 c20 8 37 20 37 25 0 6 13 11 29 11 33 0 43 16 29 44 -8 15 -17 17 -47 12 -29 -4 -40 -1 -54 14 -9 11 -25 20 -36 20 -10 0 -24 6 -31 14 -9 12 -7 21 12 46 21 29 22 32 5 41 -9 6 -17 16 -17 24 0 8 -11 17 -25 21 -14 3 -30 15 -36 25 -9 17 -6 21 20 30 17 6 31 17 31 24 0 14 47 14 69 0 16 -9 36 9 26 25 -4 6 -14 9 -22 6 -9 -4 -18 4 -25 24 -12 37 -41 55 -66 41 -18 -9 -50 2 -63 22 -9 13 -131 26 -151 16 -25 -13 -32 -11 -43 14 -7 15 -20 23 -41 25 -27 3 -37 -4 -69 -42 -21 -26 -45 -46 -55 -46 -11 0 -29 -18 -44 -45 -29 -49 -38 -52 -84 -30 -32 17 -47 45 -43 82 2 18 -7 27 -42 43 -39 19 -59 21 -149 17 -56 -2 -177 -6 -268 -8 l-165 -4 0 25 c0 18 -6 26 -22 28 -31 4 -63 -15 -63 -38 0 -14 -8 -20 -33 -22 l-32 -3 -3 -165 -2 -166 67 3 c38 2 129 8 203 13 127 9 136 8 155 -10 12 -13 16 -23 10 -29 -8 -8 -316 -31 -407 -31 l-28 0 0 -3570 0 -3570 8000 0 8000 0 0 5300 0 5300 -8000 0 -8000 0 0 -675z m8087 -397 c15 -7 29 -12 30 -13 1 0 -10 -25 -25 -55 -33 -67 -34 -154 -3 -246 11 -32 23 -84 26 -114 7 -58 23 -117 38 -137 5 -7 20 -13 33 -13 32 0 39 -16 24 -61 -15 -44 -3 -69 32 -69 16 0 19 -5 14 -27 -17 -85 -16 -98 3 -130 24 -38 78 -55 96 -29 7 9 15 41 19 72 5 46 3 60 -10 76 -11 12 -18 39 -20 76 -1 31 -5 98 -8 147 -13 230 -14 218 22 234 39 18 43 27 49 131 5 82 4 87 -22 118 -15 18 -25 35 -22 38 3 3 36 2 74 -1 l68 -7 0 -117 c1 -141 7 -169 40 -177 13 -3 29 -11 34 -18 16 -19 -5 -389 -24 -425 -13 -26 -13 -34 0 -71 8 -24 15 -57 15 -74 0 -17 4 -37 9 -45 6 -10 5 -25 -5 -42 -13 -26 -12 -30 13 -61 15 -18 32 -36 37 -40 15 -10 119 3 143 18 20 13 24 12 39 -11 21 -32 54 -34 54 -2 0 24 25 67 40 67 5 0 10 -17 12 -37 2 -30 7 -38 23 -38 14 0 21 8 23 28 2 15 8 27 13 27 13 0 11 -34 -2 -47 -7 -7 -9 -28 -5 -55 20 -152 25 -222 15 -234 -6 -8 -8 -30 -5 -51 3 -21 2 -45 -4 -53 -8 -13 -11 -13 -25 1 -14 13 -15 23 -7 53 8 29 7 39 -5 51 -18 19 -18 19 -37 -1 -9 -8 -16 -32 -16 -53 0 -73 -12 -132 -26 -127 -17 6 -38 -20 -30 -39 7 -20 32 -19 41 3 6 16 7 16 16 0 11 -20 44 -24 54 -8 8 13 65 -19 65 -37 0 -7 -11 -13 -24 -13 -34 0 -93 -27 -100 -45 -9 -25 -26 -8 -26 26 0 33 -22 48 -45 29 -8 -7 -15 -23 -15 -36 0 -28 -16 -31 -42 -7 -24 22 -23 41 5 45 13 2 23 11 25 24 4 27 -22 38 -42 18 -13 -12 -67 -15 -335 -17 -234 -1 -323 -5 -332 -14 -9 -9 -18 -9 -31 -2 -11 6 -36 9 -55 7 l-36 -3 -13 60 c-19 90 -20 88 26 80 44 -7 70 5 70 35 0 31 -35 52 -82 49 l-43 -4 -6 40 c-4 22 -5 53 -2 69 4 18 1 31 -8 37 -19 12 -162 11 -195 -1 -33 -13 -35 -10 -65 85 -26 84 -54 119 -86 110 -22 -5 -23 -3 -23 62 1 66 1 67 16 41 8 -16 19 -28 24 -28 5 0 16 12 24 28 8 15 26 37 41 50 23 20 26 29 20 60 -11 66 -15 73 -38 70 -16 -2 -25 -14 -32 -43 -5 -23 -20 -54 -32 -70 l-22 -30 -1 36 c0 19 -7 59 -16 88 -8 28 -12 60 -9 71 3 10 1 27 -6 37 -9 15 -7 26 11 56 12 20 28 37 34 37 26 0 73 -78 63 -105 -8 -20 28 -57 51 -53 11 2 19 17 24 43 9 54 26 113 27 97 1 -8 7 -28 15 -45 8 -18 17 -57 20 -87 3 -30 9 -82 12 -115 7 -66 17 -85 45 -85 29 0 44 -37 28 -67 -12 -23 -11 -27 10 -44 31 -25 66 -24 85 3 22 31 21 121 -1 144 -13 13 -16 32 -14 87 1 39 7 77 13 85 7 7 13 21 15 30 11 68 18 88 36 103 18 14 21 28 21 105 1 53 -7 123 -18 174 -16 73 -18 96 -8 165 6 44 8 92 5 108 -3 15 0 34 7 42 15 18 78 20 117 3z m2929 -420 c2 -24 9 -88 16 -143 l13 -100 37 -17 c26 -12 38 -26 43 -47 8 -38 28 -55 60 -49 16 3 30 -1 41 -13 10 -11 30 -19 45 -19 15 0 31 -4 34 -10 4 -6 -6 -10 -24 -10 -16 0 -40 -4 -54 -9 -28 -11 -61 -58 -59 -85 0 -10 -9 -31 -20 -47 -18 -24 -20 -33 -10 -53 10 -22 8 -29 -13 -54 -13 -16 -29 -41 -35 -56 -6 -17 -24 -33 -46 -42 -35 -15 -40 -14 -85 7 -31 15 -59 39 -79 67 -28 40 -30 46 -16 61 34 37 7 122 -33 105 -9 -4 -68 -9 -131 -11 -99 -3 -119 -7 -145 -26 -31 -22 -45 -24 -256 -26 -42 -1 -58 -5 -63 -16 -7 -20 39 -95 59 -95 9 0 31 16 51 35 19 19 38 35 42 35 5 0 22 -16 39 -35 36 -40 52 -43 78 -15 12 13 25 18 38 14 11 -3 30 -1 43 6 33 18 54 6 54 -32 0 -23 -8 -38 -27 -54 -22 -17 -28 -32 -33 -74 l-5 -53 -59 -12 c-62 -13 -86 -32 -86 -71 0 -20 8 -23 86 -34 76 -11 86 -15 95 -37 5 -14 18 -27 29 -30 30 -8 24 -30 -10 -36 -21 -5 -31 -14 -36 -32 -4 -18 -16 -28 -43 -35 -58 -16 -65 -25 -76 -92 l-10 -63 -35 0 c-19 0 -45 -4 -57 -8 -22 -8 -22 -8 3 38 36 63 29 72 -52 73 -57 1 -71 5 -94 27 -29 28 -43 31 -59 12 -7 -9 -8 -24 -1 -47 13 -45 -15 -76 -71 -82 -32 -3 -45 2 -69 24 -17 15 -30 36 -30 47 0 12 -3 21 -7 21 -13 0 -53 -65 -53 -86 0 -11 -5 -25 -12 -32 -15 -15 -74 -16 -83 -1 -4 6 -19 7 -36 4 -25 -6 -29 -4 -29 14 0 13 -12 29 -31 40 -17 10 -37 28 -46 40 -13 20 -21 21 -68 16 -67 -9 -81 -1 -60 31 13 21 15 36 7 87 -8 48 -7 68 4 89 8 15 14 41 14 58 0 26 3 30 28 30 15 0 38 7 50 16 20 14 24 14 38 -1 21 -20 54 -16 68 9 6 11 24 31 40 46 l29 27 -17 44 c-10 24 -23 47 -29 51 -7 4 -49 8 -93 8 -84 0 -97 -5 -107 -45 -4 -19 -5 -19 -6 1 0 12 -8 27 -17 35 -13 10 -19 8 -40 -14 -28 -30 -36 -32 -63 -15 -16 10 -31 8 -77 -7 -59 -21 -65 -26 -89 -87 -14 -35 -19 -38 -53 -38 -21 0 -47 -7 -58 -15 -22 -17 -145 -21 -174 -5 -18 9 -18 12 -4 47 10 23 14 50 10 72 -16 91 0 141 43 141 16 0 32 -6 34 -12 4 -10 8 -10 15 1 8 11 41 15 134 17 189 5 312 14 325 26 9 7 21 7 40 -1 28 -11 168 -9 180 3 4 3 28 6 53 6 54 0 70 13 63 52 -8 42 -9 42 -133 65 l-35 7 34 6 c19 3 39 14 45 25 6 11 12 22 14 24 1 3 12 -6 23 -18 32 -34 63 -25 67 20 5 54 -12 61 -161 71 -116 8 -133 7 -143 -7 -12 -17 -8 -51 8 -61 5 -3 16 0 24 7 19 15 20 13 28 -43 8 -50 -5 -63 -32 -36 -10 10 -17 10 -31 1 -30 -19 -45 8 -42 77 2 48 -1 61 -16 68 -10 6 -80 13 -156 17 -80 4 -135 11 -130 16 5 5 111 10 236 10 207 1 229 3 251 20 29 23 74 24 121 5 18 -8 36 -12 39 -8 3 3 17 0 30 -8 14 -7 37 -10 52 -7 15 3 36 0 46 -6 14 -9 23 -9 39 1 16 10 24 10 35 1 8 -6 28 -9 47 -6 23 3 39 -1 55 -14 18 -14 29 -16 49 -8 17 6 81 6 187 0 247 -16 337 -16 366 0 14 8 44 32 67 54 37 36 42 48 52 110 6 39 15 86 21 105 5 19 10 49 10 66 0 30 9 49 18 39 3 -2 6 -24 8 -47z"/>
 </g>
<g id="layer106" fill="#e0e4ea" stroke="none">
 <path d="M2 9928 c3 -632 4 -673 20 -670 14 2 19 -7 24 -38 6 -39 8 -41 38 -38 27 3 31 7 31 33 1 25 5 30 25 30 22 0 25 -5 25 -33 0 -44 19 -54 85 -47 61 6 73 17 64 59 -4 20 -3 27 7 24 7 -2 13 -14 14 -26 1 -13 7 -28 13 -34 15 -15 98 -27 114 -17 20 13 101 10 118 -4 8 -7 15 -19 15 -27 0 -8 10 -16 23 -18 17 -3 25 2 29 17 3 12 12 21 21 21 8 0 24 8 34 17 17 15 21 15 51 0 26 -13 28 -16 11 -16 -12 -1 -26 -7 -33 -14 -16 -20 6 -37 50 -37 20 0 42 -6 48 -14 13 -16 120 -29 136 -17 5 5 33 5 60 1 73 -11 92 4 87 70 -1 8 3 27 10 43 8 22 17 27 45 27 20 0 46 -9 60 -20 30 -23 80 -26 107 -5 24 18 109 20 139 3 33 -18 118 -19 145 -2 26 17 27 41 8 133 -11 54 -11 74 0 120 7 31 13 75 14 99 0 36 3 42 20 42 19 0 20 -4 13 -37 -4 -21 -8 -94 -8 -163 0 -96 4 -132 17 -155 23 -44 53 -67 80 -63 20 3 24 10 30 68 5 45 3 80 -7 115 -19 68 -36 218 -25 229 5 5 16 6 24 3 12 -5 14 -12 7 -30 -7 -18 -3 -46 13 -103 13 -44 26 -119 30 -168 6 -67 13 -96 29 -120 12 -17 23 -32 23 -34 1 -2 11 2 22 9 18 11 24 10 40 -4 10 -9 32 -17 49 -17 37 0 64 -40 43 -65 -10 -12 -10 -25 -1 -60 7 -28 8 -52 2 -63 -5 -9 -12 -36 -16 -58 -6 -37 -3 -44 20 -62 15 -12 35 -24 45 -27 10 -3 28 -22 39 -41 16 -26 27 -35 44 -32 17 2 21 9 19 29 l-2 26 97 7 c54 3 116 11 138 17 22 6 69 14 105 18 l65 6 3 43 c2 27 -3 53 -12 67 -14 21 -14 27 -1 52 13 24 13 30 0 50 -8 12 -15 31 -15 41 0 31 -22 42 -82 42 -33 0 -58 4 -58 10 0 15 388 9 394 -7 6 -15 -27 -23 -70 -16 -19 3 -40 1 -48 -6 -21 -17 -40 -139 -25 -157 9 -11 8 -24 -6 -60 -17 -44 -17 -47 1 -65 16 -15 46 -21 174 -30 93 -7 168 -18 188 -27 26 -11 38 -12 58 -3 22 10 26 8 34 -14 12 -33 28 -32 36 3 4 15 13 35 20 46 7 10 10 24 7 32 -3 8 2 17 11 20 9 3 16 15 16 26 0 18 -4 19 -35 14 -27 -5 -38 -3 -52 14 -23 26 -47 25 -66 -2 -15 -21 -16 -21 -16 -4 -1 11 16 34 36 53 32 28 35 35 23 43 -22 14 -7 12 32 -5 34 -14 36 -13 62 14 23 24 25 32 20 74 -6 39 -4 48 11 53 18 7 206 -8 335 -27 41 -6 100 -12 130 -14 30 -1 64 -3 75 -4 11 -1 26 -5 34 -10 12 -8 12 -12 -2 -26 -20 -19 -14 -63 11 -82 9 -7 42 -13 75 -13 50 0 60 3 64 20 7 26 11 25 44 -6 26 -25 32 -26 185 -31 100 -3 179 -10 214 -20 77 -22 157 -28 176 -12 12 10 15 31 12 98 -2 71 0 86 12 86 10 0 17 -16 22 -50 16 -112 48 -147 98 -107 19 15 23 29 24 80 1 34 5 64 9 68 15 16 122 3 143 -17 12 -11 35 -19 57 -19 20 0 39 -5 42 -10 6 -10 -1 -14 -47 -24 -26 -6 -28 -10 -28 -54 0 -59 12 -72 65 -72 22 0 47 -5 55 -10 24 -15 -1 -44 -41 -48 -44 -5 -53 -13 -69 -63 -8 -22 -22 -47 -33 -54 -15 -11 -18 -21 -14 -44 8 -37 -13 -43 -34 -10 -8 11 -25 22 -39 23 -14 2 -39 6 -56 10 -35 8 -88 -9 -79 -24 4 -6 11 -8 16 -4 17 10 70 -18 80 -43 14 -38 49 -44 198 -37 75 3 145 6 156 6 127 -3 278 0 353 6 52 4 97 3 102 -2 5 -5 16 -6 24 -3 12 5 16 22 16 74 0 119 -10 174 -34 183 -20 8 -20 8 -2 16 13 5 21 2 28 -9 14 -26 42 -20 61 13 15 25 16 33 6 52 -14 25 -13 77 2 92 5 6 17 2 29 -9 17 -16 24 -16 44 -6 19 10 27 10 44 0 34 -21 55 4 48 56 -4 23 -2 95 5 161 6 65 12 144 14 174 2 30 9 74 14 98 11 41 7 59 -27 125 -2 4 15 7 37 7 38 0 46 -6 42 -32 0 -4 -8 -86 -16 -182 -16 -183 -14 -213 23 -314 13 -37 19 -43 41 -40 20 2 30 13 46 53 18 45 20 72 20 275 0 190 2 225 15 225 11 0 13 -12 11 -50 -1 -28 5 -72 14 -99 17 -49 37 -331 28 -392 -4 -24 2 -39 26 -66 17 -20 31 -41 31 -47 0 -6 5 -11 10 -11 6 0 10 5 10 10 0 6 28 10 65 10 79 0 90 12 99 115 3 39 11 90 16 115 5 25 19 99 30 165 12 66 25 135 31 152 8 26 7 40 -5 65 -9 17 -15 32 -14 33 2 1 13 7 25 14 19 10 24 8 38 -12 8 -13 13 -31 10 -39 -4 -9 1 -53 9 -98 9 -45 16 -131 16 -190 0 -80 5 -125 20 -172 11 -34 20 -79 20 -99 0 -42 13 -56 59 -65 20 -4 30 -11 27 -19 -2 -7 1 -21 8 -31 14 -21 15 -62 3 -81 -4 -7 -5 -40 -1 -73 6 -56 8 -60 39 -70 52 -17 84 7 53 39 -13 12 -18 46 -19 124 -1 32 -4 37 -25 37 -13 0 -24 5 -24 10 0 6 5 10 10 10 6 0 15 12 20 26 10 25 11 26 83 19 39 -3 119 -8 177 -9 127 -4 165 -12 149 -32 -17 -21 -3 -44 26 -44 29 0 43 23 26 44 -9 10 -8 15 3 19 9 4 18 1 22 -5 4 -6 24 -8 53 -4 53 7 83 -6 63 -26 -15 -15 -15 -49 0 -83 10 -21 9 -31 -5 -55 -24 -39 -21 -67 7 -85 13 -9 26 -25 29 -35 7 -26 33 -26 47 0 13 25 30 25 75 0 20 -11 40 -20 45 -20 17 0 12 116 -5 130 -9 7 -13 20 -10 28 3 8 1 30 -5 48 -11 33 -38 48 -99 56 -14 2 -26 9 -29 16 -3 9 14 12 62 12 l66 0 25 40 c14 22 29 40 33 40 18 -1 36 -21 46 -52 9 -27 17 -34 44 -36 42 -4 62 12 62 49 0 16 5 29 10 29 6 0 10 -13 10 -29 0 -29 17 -55 42 -63 10 -4 10 -8 0 -21 -10 -12 -12 -30 -6 -69 4 -29 6 -65 5 -80 -3 -37 15 -68 41 -68 11 0 38 5 59 12 33 9 39 15 39 38 0 15 -7 33 -15 40 -16 13 -12 75 6 95 5 5 9 16 9 25 0 8 10 20 23 25 14 7 23 21 25 40 2 16 12 35 23 43 17 11 19 26 19 114 0 60 -6 125 -16 162 -12 47 -14 80 -8 141 4 44 6 103 5 132 -1 41 2 53 16 57 38 11 99 9 123 -5 14 -8 26 -14 27 -15 2 0 -11 -27 -28 -58 -30 -55 -31 -62 -26 -142 3 -55 11 -93 22 -110 9 -14 20 -60 24 -104 9 -89 34 -141 71 -150 23 -6 25 -10 22 -54 -4 -56 9 -76 49 -76 30 0 36 -9 20 -25 -20 -20 0 -61 37 -78 19 -9 39 -14 44 -11 17 11 7 52 -21 80 -28 28 -29 29 -9 43 16 11 19 20 13 45 -7 33 -11 78 -20 248 l-6 107 25 7 c43 10 56 35 63 122 6 77 4 84 -21 122 -14 22 -26 42 -26 45 0 2 33 3 73 2 l72 -3 -3 -85 c-1 -46 4 -111 11 -144 11 -53 16 -62 46 -75 l33 -15 -6 -110 c-4 -60 -7 -150 -8 -200 -1 -49 -5 -95 -10 -102 -5 -6 -8 -27 -6 -45 3 -32 4 -33 66 -41 50 -7 62 -12 62 -27 0 -23 -16 -29 -59 -19 -42 9 -47 7 -54 -27 -7 -39 23 -64 76 -64 41 0 80 -18 103 -49 13 -17 44 -8 44 14 0 18 11 19 43 4 19 -9 31 -7 56 6 21 10 50 15 83 13 40 -2 53 1 62 15 9 15 6 22 -16 42 -17 15 -35 21 -48 18 -11 -3 -27 0 -35 7 -11 9 -22 9 -46 1 -17 -6 -42 -8 -55 -5 -13 4 -30 1 -38 -5 -11 -9 -22 -7 -50 10 -41 24 -47 46 -13 51 18 2 23 10 25 41 3 29 7 37 22 37 22 0 43 -32 34 -53 -9 -24 15 -31 37 -11 16 15 24 16 39 6 24 -15 120 -4 120 14 0 7 12 19 28 26 15 7 27 20 27 28 0 22 67 27 394 34 237 4 286 7 300 20 22 20 109 21 135 1 10 -8 23 -12 28 -9 5 3 22 1 38 -6 24 -10 33 -9 51 3 19 14 24 14 45 1 17 -12 28 -13 42 -5 15 8 23 7 32 -4 15 -18 51 -20 68 -3 9 9 16 8 29 -4 14 -11 68 -18 238 -27 293 -15 340 -15 355 4 7 8 18 15 24 15 6 0 29 17 52 38 37 33 42 44 52 107 20 123 40 226 45 232 7 6 13 -30 27 -167 16 -147 16 -147 50 -158 18 -7 34 -22 41 -39 21 -54 26 -58 65 -60 226 -12 249 -15 269 -33 13 -12 44 -21 93 -26 62 -6 75 -4 92 11 19 17 20 17 37 -4 13 -15 35 -23 75 -27 55 -6 58 -6 67 20 9 22 16 26 51 26 27 0 40 -4 40 -14 0 -7 7 -20 16 -27 14 -12 20 -9 40 16 20 25 27 28 41 19 10 -6 17 -21 15 -32 -2 -11 1 -23 6 -26 10 -6 227 -34 318 -41 33 -2 92 -8 133 -14 44 -5 84 -5 98 0 56 21 7 45 -111 55 -48 4 -88 10 -91 13 -7 13 85 33 118 26 17 -3 46 -7 62 -7 17 0 60 -2 96 -5 62 -4 67 -6 67 -29 0 -20 -5 -24 -33 -24 -38 0 -62 -21 -43 -38 7 -6 76 -15 153 -20 77 -5 149 -10 160 -11 125 -10 152 -15 168 -29 13 -12 24 -13 45 -6 16 6 56 6 97 2 39 -5 124 -10 190 -13 66 -3 178 -10 249 -16 110 -10 130 -9 143 4 21 20 8 52 -25 65 -24 10 -194 28 -277 31 -16 0 -48 3 -70 5 -60 7 -241 24 -315 30 -133 9 -200 19 -200 29 0 6 38 7 108 3 337 -22 445 -29 512 -31 169 -4 306 -18 327 -31 26 -17 57 -18 83 -4 14 7 72 7 187 0 93 -6 245 -15 338 -20 94 -4 247 -13 340 -20 94 -6 307 -20 475 -30 385 -25 585 -39 633 -45 l37 -5 0 1060 0 1060 -8000 0 -8000 0 2 -672z"/>
 <path d="M11184 8608 c5 -26 2 -39 -9 -48 -19 -16 -19 -44 0 -60 9 -7 15 -22 13 -34 -2 -15 -11 -20 -33 -21 -29 0 -34 -6 -65 -74 -10 -22 -101 -45 -122 -32 -10 6 -27 11 -38 11 -26 0 -57 32 -62 62 -4 32 -41 36 -62 6 -16 -22 -15 -24 4 -40 24 -20 25 -31 4 -49 -12 -10 -14 -23 -10 -51 4 -23 2 -38 -4 -38 -5 0 -10 11 -10 25 0 16 -14 38 -40 62 -22 21 -40 41 -40 44 0 4 15 6 33 5 26 -1 33 3 35 21 2 15 -5 27 -23 39 l-26 17 23 11 c12 6 25 22 28 35 l5 23 19 -21 c24 -27 41 -27 60 1 20 28 20 52 1 72 -18 18 -117 15 -139 -4 -11 -8 -20 -8 -35 -1 -44 24 -141 3 -141 -30 0 -32 42 -51 94 -44 39 6 46 5 46 -9 0 -9 -5 -16 -11 -16 -8 0 -10 -13 -6 -37 5 -27 2 -39 -10 -48 -17 -13 -43 -78 -43 -112 0 -28 -27 -43 -78 -43 -49 0 -99 -17 -106 -36 -14 -37 22 -60 80 -49 25 4 39 2 51 -11 14 -13 32 -16 101 -12 73 4 87 8 101 27 16 21 18 21 32 5 8 -9 26 -22 42 -29 l27 -11 -45 -33 c-26 -18 -47 -32 -48 -30 -18 35 -27 45 -40 47 -24 5 -57 -34 -57 -67 0 -25 -4 -30 -27 -33 -22 -2 -28 -8 -28 -28 0 -23 4 -25 45 -25 43 0 45 1 42 28 -3 29 12 37 22 12 3 -8 12 -15 20 -15 8 0 19 -6 23 -14 6 -12 52 -16 216 -22 174 -6 207 -9 202 -21 -3 -8 -5 -21 -5 -29 0 -7 -11 -20 -23 -29 -22 -14 -29 -14 -75 1 -80 26 -99 16 -126 -68 -4 -14 -16 -18 -51 -18 -25 0 -45 5 -45 10 0 21 -39 10 -42 -12 -3 -22 -7 -23 -82 -20 -43 2 -105 9 -138 17 -69 16 -108 7 -108 -24 0 -26 -37 -48 -53 -32 -16 16 -37 14 -37 -4 0 -8 7 -15 15 -15 19 0 19 -10 -1 -35 -15 -20 -15 -20 -30 -1 -8 11 -14 23 -14 26 0 10 -48 30 -73 30 -13 0 -32 -7 -44 -15 -18 -13 -22 -12 -39 6 -13 15 -15 22 -6 31 20 20 14 63 -13 88 -35 33 -60 18 -61 -36 -1 -22 -4 -46 -8 -55 -4 -10 -3 -20 3 -24 7 -4 8 -12 2 -24 -6 -10 -7 -27 -4 -39 4 -19 13 -22 52 -22 25 0 63 -5 84 -11 30 -8 37 -14 32 -27 -12 -31 -10 -36 19 -50 26 -13 31 -12 57 7 29 21 29 21 29 1 0 -11 -7 -20 -15 -20 -9 0 -29 -7 -46 -15 -20 -11 -41 -14 -65 -9 -34 6 -36 8 -29 41 l6 34 -34 -6 c-24 -5 -37 -2 -46 9 -25 31 -41 19 -41 -30 0 -35 6 -54 25 -76 30 -36 31 -44 5 -51 -14 -3 -20 -14 -20 -31 0 -15 -7 -29 -15 -32 -8 -4 -16 -16 -16 -28 -1 -17 -2 -18 -6 -3 -3 10 0 31 6 47 6 20 6 32 0 36 -6 3 -7 19 -4 35 4 18 2 36 -5 44 -7 8 -8 20 -3 27 4 7 8 48 8 91 l1 79 -48 -6 c-46 -6 -48 -6 -48 19 0 14 9 30 20 37 44 28 11 58 -56 51 -32 -4 -44 -11 -53 -29 -15 -35 -14 -51 7 -63 15 -9 14 -10 -6 -11 -15 0 -42 -18 -71 -48 -45 -46 -48 -47 -57 -28 -5 11 -20 26 -34 33 -17 9 -20 13 -8 13 13 0 16 9 14 50 -1 27 -9 58 -18 67 -8 10 -18 25 -21 34 -7 20 -65 33 -83 18 -7 -6 -23 -8 -35 -4 -14 5 -25 2 -30 -6 -12 -19 -11 -66 1 -74 12 -8 13 -135 1 -135 -5 0 -11 9 -14 20 -3 12 -14 20 -26 20 -13 0 -26 11 -36 30 -16 30 -16 30 -98 29 -54 -1 -95 4 -120 14 -52 22 -46 26 15 11 68 -18 80 -18 118 4 22 12 29 22 26 36 -3 11 0 28 6 39 9 18 11 19 20 4 16 -30 38 -20 38 17 0 42 -15 54 -39 32 -10 -9 -26 -16 -37 -16 -25 0 -44 -18 -44 -41 0 -26 -50 -39 -78 -21 -19 12 -28 13 -43 4 -28 -18 -48 -15 -106 15 -50 25 -54 25 -71 10 -23 -21 -65 -22 -81 -3 -7 8 -21 12 -31 9 -11 -3 -34 0 -52 8 -28 12 -32 11 -49 -10 -11 -13 -19 -34 -19 -47 0 -13 -19 -63 -41 -111 -84 -178 -99 -216 -97 -241 3 -21 -2 -27 -32 -34 -19 -4 -43 -13 -52 -18 -12 -7 -26 -6 -42 1 -32 15 -108 3 -133 -21 -11 -10 -33 -20 -49 -22 -21 -2 -29 -8 -29 -23 0 -17 7 -20 50 -20 28 -1 65 5 84 12 18 7 35 13 36 13 9 0 10 -107 2 -130 -9 -23 -6 -35 16 -75 15 -26 26 -49 25 -49 -2 -1 -15 -7 -30 -14 -47 -20 -56 -47 -69 -211 -9 -107 -17 -155 -26 -158 -7 -3 -10 -9 -7 -14 3 -5 10 -6 16 -3 8 5 9 1 3 -12 -4 -10 -7 -28 -6 -39 1 -11 2 -64 1 -117 -1 -59 4 -111 12 -134 13 -36 13 -37 -26 -70 -27 -24 -43 -31 -55 -25 -9 4 -38 7 -66 7 -43 -1 -50 -4 -50 -21 0 -18 6 -20 55 -18 30 1 75 6 100 12 28 6 49 6 55 0 13 -13 35 -88 35 -124 0 -17 7 -40 15 -53 12 -16 13 -27 5 -41 -5 -11 -10 -47 -10 -81 0 -53 -3 -63 -20 -67 -24 -6 -26 -19 -4 -27 13 -5 15 -14 9 -44 -4 -20 -11 -43 -17 -49 -15 -19 -79 -16 -93 4 -14 19 -42 12 -51 -12 -4 -9 1 -24 11 -35 24 -26 13 -79 -24 -114 -24 -23 -31 -25 -55 -16 -15 5 -31 10 -36 10 -4 0 -9 -87 -9 -193 -2 -201 7 -256 46 -300 14 -15 15 -23 5 -49 -13 -34 -1 -68 37 -102 12 -11 21 -31 21 -45 0 -14 9 -39 19 -55 18 -27 18 -32 5 -57 -9 -19 -11 -35 -5 -51 7 -17 4 -32 -11 -56 -11 -18 -17 -39 -14 -48 10 -25 -53 -76 -84 -69 -59 14 -65 12 -65 -25 -1 -19 -4 -41 -8 -48 -13 -19 -35 -14 -42 11 -3 12 -10 31 -15 42 -4 11 -11 28 -14 38 -4 12 -14 17 -28 15 -17 -2 -24 -11 -26 -33 -2 -16 -8 -34 -12 -39 -12 -12 -40 12 -40 35 0 21 -26 49 -45 49 -23 0 -45 -30 -45 -61 0 -19 -5 -29 -15 -29 -16 0 -37 32 -33 51 2 7 -9 19 -24 28 -25 15 -29 14 -45 -2 -14 -14 -15 -21 -6 -36 7 -10 8 -23 3 -32 -8 -12 -14 -11 -39 4 -24 14 -35 16 -51 7 -12 -6 -34 -9 -49 -5 -19 4 -32 1 -40 -9 -17 -20 -8 -32 29 -39 24 -5 30 -12 30 -32 0 -14 -2 -25 -5 -25 -14 0 -105 101 -105 115 0 9 -6 18 -14 21 -20 8 -29 36 -15 45 9 5 3 18 -19 43 -28 32 -30 39 -21 66 9 24 8 35 -6 56 -15 23 -15 27 -1 49 9 14 16 40 16 58 0 19 6 40 13 46 9 7 14 33 14 71 1 50 5 65 28 92 19 22 25 39 22 57 -3 14 0 33 8 41 19 22 29 174 12 188 -18 15 -32 3 -51 -41 -18 -44 -31 -42 -40 7 -7 39 -65 165 -96 211 -27 41 -25 49 10 42 25 -5 30 -3 30 12 0 11 -6 21 -12 24 -10 3 -10 9 0 26 15 26 15 28 -4 35 -9 4 -27 0 -39 -8 -21 -14 -24 -14 -29 0 -4 9 -15 14 -28 12 -22 -3 -23 -8 -24 -93 -1 -103 -22 -183 -59 -226 -27 -33 -32 -58 -14 -76 16 -16 4 -43 -19 -43 -22 0 -72 -36 -72 -52 0 -6 7 -19 16 -29 15 -16 14 -19 -15 -34 -17 -8 -31 -22 -31 -31 0 -18 28 -64 49 -82 14 -11 13 -15 -3 -42 -9 -17 -16 -40 -14 -52 2 -15 -6 -26 -26 -38 -25 -13 -33 -28 -47 -86 -10 -38 -18 -84 -18 -102 -1 -18 -8 -61 -16 -95 -8 -34 -19 -116 -24 -183 -8 -93 -16 -134 -35 -179 -14 -31 -26 -74 -26 -95 0 -24 -7 -43 -20 -55 -16 -14 -20 -31 -20 -81 0 -61 26 -144 49 -158 24 -15 8 -35 -44 -56 -46 -19 -56 -27 -66 -58 -15 -48 -25 -58 -43 -43 -9 7 -37 11 -73 9 -50 -3 -58 -6 -58 -23 0 -18 8 -20 69 -23 l68 -3 -5 -32 c-3 -18 -15 -72 -27 -121 -18 -73 -28 -94 -54 -117 -23 -19 -37 -46 -50 -91 -9 -34 -22 -73 -27 -86 -5 -13 -9 -30 -9 -38 0 -9 -6 -30 -14 -47 -8 -18 -20 -61 -27 -96 -10 -47 -19 -65 -32 -69 -12 -3 -17 -11 -14 -23 3 -11 1 -22 -4 -25 -6 -3 -7 -15 -3 -26 3 -11 1 -32 -4 -46 -13 -34 -45 -172 -45 -192 0 -8 -3 -19 -7 -25 -5 -5 -8 -44 -8 -85 1 -57 5 -81 20 -99 24 -31 23 -67 -3 -116 -19 -34 -21 -51 -16 -122 5 -82 32 -185 68 -254 47 -92 31 -160 -61 -248 -32 -31 -72 -83 -91 -115 l-33 -59 -28 32 c-17 19 -28 43 -28 60 0 33 -23 56 -71 72 -45 16 -69 37 -69 64 0 11 -7 30 -15 41 -21 28 -18 53 15 119 16 33 30 68 30 78 0 10 6 28 14 40 18 28 36 124 36 194 0 39 -6 62 -21 82 -16 22 -20 39 -16 68 7 57 33 118 51 121 9 2 14 8 10 13 -3 5 -9 7 -14 4 -10 -6 -16 15 -23 81 -4 34 -2 41 12 40 26 -2 18 28 -9 34 -20 5 -28 16 -39 55 -7 28 -15 65 -18 83 -3 19 -11 36 -19 39 -9 3 -12 21 -10 63 2 36 -1 69 -10 84 -7 14 -16 47 -20 73 -9 66 -21 85 -45 78 -12 -4 -21 -1 -23 7 -2 7 -18 51 -35 96 -17 46 -31 86 -31 88 0 3 12 3 27 2 26 -3 27 -2 24 42 -4 64 -19 76 -78 63 -53 -13 -63 -7 -63 39 0 28 -17 73 -51 140 -10 20 -19 50 -19 66 0 38 -14 49 -78 63 -29 6 -55 15 -58 21 -3 5 5 22 18 36 40 45 58 97 58 171 0 54 -4 71 -19 85 -11 10 -23 37 -26 59 -4 23 -14 55 -22 71 -9 17 -18 66 -21 111 -4 80 -4 84 31 146 77 138 85 261 26 384 -19 39 -41 71 -50 73 -14 2 -15 -13 -12 -130 3 -159 -6 -218 -48 -305 -31 -62 -80 -115 -87 -95 -2 6 8 32 21 59 31 60 49 165 41 229 -8 55 -49 134 -70 134 -7 0 -25 -18 -39 -41 -22 -34 -26 -52 -25 -112 0 -40 -4 -92 -8 -117 -11 -58 -65 -185 -77 -184 -6 1 -18 12 -27 25 -13 20 -15 33 -8 74 14 78 11 172 -5 212 -8 19 -15 45 -15 58 0 22 -28 55 -47 55 -6 0 -29 -23 -50 -52 -38 -52 -38 -52 -46 -183 -10 -157 -9 -273 3 -380 4 -44 7 -82 4 -84 -10 -10 -33 71 -28 97 4 21 -3 51 -26 101 -34 78 -46 129 -61 261 -5 47 -16 101 -23 120 -8 19 -19 54 -26 78 -11 43 -33 63 -51 45 -15 -15 -49 -115 -49 -143 0 -14 -7 -36 -17 -49 -13 -19 -14 -28 -5 -42 7 -10 12 -30 12 -44 0 -39 47 -164 75 -201 14 -19 22 -34 17 -34 -17 0 -113 92 -139 133 -29 47 -63 173 -63 237 0 32 -5 52 -16 61 -13 11 -15 25 -10 71 6 61 -2 78 -26 50 -38 -45 -53 -105 -53 -208 0 -80 -3 -100 -12 -92 -22 18 -35 90 -31 177 1 48 0 88 -3 91 -3 3 -20 -8 -37 -25 -28 -26 -32 -37 -32 -80 0 -27 5 -68 10 -90 8 -36 6 -44 -24 -90 -58 -87 -117 -215 -128 -276 -18 -102 -56 -106 -76 -9 -15 70 -93 220 -151 288 -80 95 -99 126 -87 144 17 28 -7 45 -39 28 -23 -12 -28 -11 -51 11 -14 13 -34 38 -45 56 -12 18 -27 33 -35 33 -36 0 -118 89 -143 155 -45 119 -12 274 73 350 33 30 46 50 52 80 4 22 17 53 30 68 18 21 24 41 24 74 0 29 8 58 21 79 17 28 21 51 21 136 1 110 -11 216 -30 260 -10 24 -8 29 9 42 26 18 21 43 -13 69 l-28 21 -31 -23 c-20 -15 -34 -20 -41 -13 -16 16 -27 83 -21 132 5 39 2 50 -16 67 -17 16 -19 24 -12 49 36 115 40 191 12 225 l-19 24 -22 -20 c-24 -21 -60 -86 -60 -107 0 -7 -4 -19 -9 -27 -8 -12 -13 -12 -35 3 -14 9 -26 24 -26 34 0 10 -7 27 -15 38 -20 26 -19 46 3 43 42 -4 52 1 52 27 0 22 3 24 14 15 11 -10 20 -10 36 -1 12 6 28 9 37 6 8 -3 27 3 43 14 15 11 33 20 38 20 22 0 20 18 -5 53 -21 29 -33 37 -58 37 -19 0 -39 -8 -50 -20 -10 -11 -26 -20 -36 -20 -11 0 -21 -10 -25 -25 -3 -14 -7 -25 -9 -25 -18 0 -91 55 -106 79 -20 34 -57 48 -86 33 -10 -5 -32 -7 -49 -5 -18 3 -35 0 -38 -6 -9 -15 -42 3 -56 30 -6 11 -15 42 -19 69 -7 42 -4 56 18 102 19 38 33 54 49 56 31 5 40 31 17 48 -18 13 -17 16 17 52 35 36 36 39 33 100 -3 65 -22 102 -53 102 -8 0 -21 8 -28 18 -11 14 -16 15 -34 4 -21 -13 -40 -9 -40 9 0 5 9 9 19 9 29 0 79 32 85 53 2 11 9 16 15 13 14 -9 53 12 46 25 -4 5 -34 7 -67 5 -40 -3 -68 0 -82 8 -33 21 -290 14 -334 -8 -36 -19 -43 -46 -12 -46 24 0 27 -32 5 -50 -37 -31 -1 -69 59 -63 38 5 44 3 49 -16 7 -28 57 -30 57 -2 0 10 -6 21 -14 24 -22 9 -26 54 -6 72 15 14 27 15 76 6 32 -6 60 -11 62 -11 14 0 -49 -40 -71 -45 -34 -9 -34 -17 3 -53 17 -17 30 -37 30 -45 0 -8 9 -22 20 -32 33 -30 22 -38 -20 -14 -33 19 -44 21 -65 11 -37 -17 -58 -15 -73 8 -15 24 -35 26 -53 4 -11 -14 -15 -11 -31 21 -22 42 -51 44 -56 3 -2 -19 -10 -27 -30 -31 -15 -2 -34 -7 -43 -11 -24 -11 -33 23 -12 46 16 18 16 20 -4 40 -22 21 -43 18 -43 -8 0 -8 -6 -14 -14 -14 -29 0 -30 -64 -4 -133 9 -23 8 -31 -3 -38 -23 -15 -37 -10 -41 14 -2 17 -10 22 -33 22 -29 0 -30 -1 -28 -43 1 -24 7 -50 13 -57 15 -18 4 -52 -20 -60 -10 -3 -32 2 -48 12 -29 18 -30 20 -17 55 13 40 5 58 -26 58 -24 0 -30 -12 -31 -65 0 -42 -2 -45 -29 -45 -32 0 -56 -21 -76 -67 -7 -18 -20 -33 -28 -33 -9 0 -18 -6 -21 -14 -4 -9 -21 -14 -51 -14 -50 0 -65 -8 -37 -19 10 -4 29 -20 42 -35 14 -16 34 -28 47 -28 24 0 55 23 55 41 0 5 22 8 50 6 30 -1 50 -7 50 -14 0 -6 7 -18 15 -27 13 -13 19 -13 55 1 47 19 54 15 37 -20 -8 -16 -23 -28 -42 -31 -17 -4 -46 -20 -64 -36 -22 -21 -39 -29 -52 -25 -13 4 -19 2 -19 -9 0 -9 -8 -16 -19 -16 -10 0 -30 -9 -44 -20 -14 -11 -30 -20 -36 -20 -6 0 -15 -9 -21 -20 -9 -16 -8 -20 5 -20 9 0 24 4 34 9 26 14 77 -20 86 -58 3 -16 17 -37 31 -45 15 -11 24 -26 24 -43 0 -15 7 -34 16 -44 18 -20 11 -59 -10 -59 -7 0 -18 11 -24 25 -12 27 -19 30 -41 16 -9 -6 -12 -19 -7 -43 5 -30 3 -36 -19 -46 -43 -20 -55 -15 -55 21 0 36 -15 57 -40 57 -9 0 -37 -22 -62 -50 -26 -27 -49 -50 -52 -50 -3 0 -9 16 -15 35 -10 37 3 79 30 95 18 12 39 81 32 108 -3 12 -14 27 -24 33 -21 11 -25 39 -8 56 13 13 4 33 -16 33 -19 0 -29 -19 -17 -33 17 -20 -11 -47 -50 -47 -19 0 -39 -5 -46 -12 -16 -16 -15 -3 0 22 11 17 8 24 -17 50 -31 32 -62 39 -71 15 -4 -9 -19 -15 -36 -15 -21 0 -41 -11 -69 -40 -22 -22 -46 -40 -53 -40 -7 0 -30 -12 -51 -26 -34 -23 -41 -24 -62 -13 -20 11 -26 11 -33 -1 -6 -8 -10 -21 -10 -27 0 -15 -12 -17 -26 -3 -8 8 -108 -4 -174 -21 -9 -3 -14 4 -15 16 0 13 -7 20 -20 20 -15 0 -20 7 -20 30 -1 20 -6 31 -17 33 -10 2 -20 12 -23 23 -8 23 -41 32 -95 27 -39 -3 -40 -2 -35 22 4 22 -1 28 -53 52 -31 14 -69 29 -84 32 -31 7 -53 58 -42 100 5 23 3 26 -19 26 -29 0 -43 -14 -53 -55 -8 -36 -50 -74 -82 -75 -16 0 -26 -9 -33 -30 -7 -18 -18 -30 -29 -30 -23 0 -70 -38 -70 -57 0 -11 -13 -5 -44 21 -24 20 -51 36 -60 36 -17 0 -22 25 -6 35 11 7 2 94 -13 112 -5 7 -7 20 -3 28 8 22 54 19 68 -5 7 -11 20 -20 30 -20 21 0 68 56 68 81 0 15 5 18 24 13 38 -9 41 22 5 58 -27 27 -31 38 -33 95 -2 65 8 80 31 44 17 -27 79 -46 107 -33 11 6 32 12 46 14 14 2 26 10 27 18 3 17 -79 110 -96 110 -7 0 -22 -11 -35 -25 -29 -31 -46 -32 -74 -2 -27 29 -28 40 -2 32 28 -9 40 23 15 41 -26 19 -65 18 -65 -2 0 -11 -8 -14 -26 -12 -20 2 -30 12 -42 43 -9 22 -19 42 -24 43 -4 2 -8 11 -8 21 0 9 -5 22 -10 27 -6 6 -8 19 -4 28 6 15 15 17 51 12 44 -6 48 -3 44 37 -3 21 31 23 49 2 20 -24 50 -19 50 9 0 16 7 27 20 31 29 9 25 43 -6 57 -22 10 -28 10 -39 -6 -11 -14 -17 -15 -34 -6 -26 13 -57 -1 -66 -29 -7 -25 -38 -35 -62 -22 -10 5 -26 12 -35 15 -9 2 -18 15 -20 28 -2 12 -14 28 -28 35 -13 6 -34 29 -45 50 -21 37 -24 38 -80 41 -78 4 -104 -3 -115 -33 -12 -32 -52 -34 -73 -2 -14 21 -19 22 -158 20 -133 -2 -145 -4 -161 -23 -13 -17 -21 -19 -36 -11 -11 6 -31 7 -48 2 l-29 -7 -3 -149 -3 -148 88 6 c71 5 348 21 388 22 21 0 8 -25 -24 -50 -31 -22 -45 -25 -120 -25 -47 0 -102 -4 -121 -10 -43 -11 -104 -13 -147 -5 -31 7 -32 7 -36 -36 l-4 -44 -1 43 c-1 23 -6 42 -12 42 -6 0 -10 -1230 -10 -3570 l0 -3570 8000 0 8000 0 0 3925 0 3925 -32 0 c-18 -1 -46 -7 -63 -14 -27 -12 -33 -11 -60 8 -29 20 -41 23 -140 27 -97 4 -115 1 -115 -21 0 -15 7 -20 26 -20 35 0 26 -20 -16 -34 -27 -8 -40 -22 -57 -58 -26 -56 -60 -72 -81 -39 -19 28 -54 27 -92 -5 -25 -22 -28 -29 -18 -41 9 -11 24 -14 55 -9 33 4 43 2 43 -8 0 -11 -18 -13 -87 -9 -49 3 -95 9 -103 13 -8 5 -41 11 -73 15 -52 7 -61 5 -97 -19 -22 -14 -46 -26 -54 -26 -47 0 -86 -43 -86 -96 0 -14 -5 -34 -11 -45 -8 -16 -13 -18 -25 -8 -21 17 -18 73 6 94 18 16 19 20 6 40 -8 13 -12 32 -9 44 5 19 1 21 -31 21 -42 0 -46 10 -10 27 21 10 30 9 49 -3 31 -20 99 -15 103 8 2 9 -5 29 -15 44 -9 15 -17 36 -18 48 0 12 -8 22 -19 24 -16 3 -18 0 -12 -22 5 -22 2 -27 -20 -32 -14 -4 -30 -2 -36 4 -14 14 -1 50 23 62 23 13 25 36 3 44 -20 8 -122 8 -152 0 -16 -5 -22 -13 -20 -28 3 -19 8 -21 61 -18 60 4 67 -1 41 -29 -13 -14 -21 -16 -35 -8 -14 7 -25 5 -44 -7 -37 -24 -46 -69 -12 -69 20 0 17 -20 -5 -34 -23 -14 -136 -17 -150 -3 -4 4 -9 32 -11 62 -3 30 -12 72 -21 92 -9 20 -18 61 -20 90 -4 48 -7 53 -28 52 -12 0 -29 -3 -37 -5 -9 -3 -18 8 -24 28 -9 32 -11 33 -51 27 -23 -4 -44 -10 -49 -14 -4 -3 -13 -34 -20 -68 -16 -79 -33 -91 -155 -109 l-96 -14 -17 23 -18 23 52 10 c38 7 53 15 55 29 2 10 -2 22 -10 27 -15 10 -178 12 -202 3 -24 -9 -19 -31 10 -51 l26 -17 -44 -22 c-40 -21 -45 -21 -67 -7 -37 24 -206 14 -256 -15 -28 -17 -41 -20 -56 -12 -11 7 -50 8 -97 5 -42 -3 -90 -7 -107 -8 -57 -4 -144 -37 -155 -58 -14 -25 -4 -56 22 -70 13 -7 17 -14 10 -21 -7 -7 -17 -6 -31 1 -17 9 -24 8 -42 -10 -12 -12 -19 -29 -16 -40 5 -20 -13 -79 -24 -79 -11 0 -28 57 -22 78 5 21 -20 52 -42 52 -11 0 -13 11 -8 50 8 66 -5 80 -71 80 -28 0 -69 5 -91 10 -22 5 -240 12 -485 15 -245 3 -465 7 -490 10 -29 3 -51 -1 -63 -9 -23 -18 -55 -10 -89 22 -24 22 -37 25 -130 28 -57 2 -144 4 -194 3 -76 0 -96 3 -127 21 -41 24 -44 32 -23 49 11 10 17 8 25 -6 10 -17 10 -17 11 -1 0 10 13 24 30 33 41 21 92 19 121 -6 49 -43 95 -59 157 -56 65 4 82 11 82 34 0 9 7 24 15 33 13 14 13 19 0 44 -21 41 -19 46 19 46 74 0 68 57 -7 62 -38 2 -56 -11 -57 -39 0 -15 -6 -16 -80 -17 -49 -1 -55 -3 -58 -23 -5 -32 -38 -29 -54 5 -12 24 -19 27 -63 27 -47 0 -50 -2 -53 -28 l-3 -28 -77 3 -76 3 -9 44 c-5 26 -5 47 1 53 5 5 116 12 246 15 188 5 241 9 252 21 15 14 11 47 -7 67 -5 5 -68 10 -140 10 -113 0 -132 2 -143 18 -14 19 -36 23 -36 7 0 -5 -7 -10 -15 -10 -12 0 -15 13 -15 59 0 67 -15 87 -55 77 -27 -7 -65 8 -65 25 0 5 10 23 21 39 26 34 19 60 -15 60 -35 0 -37 10 -19 68 9 28 14 54 12 57 -3 3 -20 8 -39 11 l-33 7 7 -35z"/>
 </g>

</svg>