<!DOCTYPE svg PUBLIC "-//W3C//DTD SVG 20010904//EN" "http://www.w3.org/TR/2001/REC-SVG-20010904/DTD/svg10.dtd">
<svg version="1.0" xmlns="http://www.w3.org/2000/svg" width="1600px" height="1068px" viewBox="0 0 16000 10680" preserveAspectRatio="xMidYMid meet">
<g id="layer101" fill="#565656" stroke="none">
 <path d="M0 5340 l0 -5340 8000 0 8000 0 0 5340 0 5340 -8000 0 -8000 0 0 -5340z"/>
 </g>
<g id="layer102" fill="#a6a6a6" stroke="none">
 <path d="M0 5340 l0 -5340 8000 0 8000 0 0 5340 0 5340 -2130 0 c-1384 0 -2131 -4 -2135 -10 -3 -6 -13 -10 -21 -10 -8 0 -12 5 -9 11 7 10 -38 6 -87 -8 -10 -2 -18 0 -18 6 0 6 -9 11 -20 11 -11 0 -20 -4 -20 -10 0 -5 -7 -7 -16 -3 -9 3 -20 0 -24 -7 -6 -10 -14 -9 -37 5 -29 17 -31 17 -51 -1 -12 -9 -18 -22 -15 -27 3 -6 1 -7 -5 -4 -5 4 -8 16 -5 27 6 23 1 24 -66 8 -31 -7 -51 -17 -51 -25 0 -8 -5 -11 -10 -8 -6 4 -7 11 -4 17 16 25 -60 37 -112 18 -15 -6 -30 -7 -33 -3 -3 5 -35 9 -71 9 -61 0 -65 -1 -65 -21 1 -11 5 -27 10 -35 4 -7 -3 -5 -17 6 -14 10 -24 22 -21 27 2 4 -3 7 -12 7 -9 0 -14 -4 -11 -8 2 -4 -4 -9 -15 -9 -23 -2 -24 1 -3 21 14 15 12 16 -23 15 -21 0 -32 -3 -25 -6 10 -4 10 -8 1 -19 -13 -16 -44 -19 -34 -4 3 6 -2 10 -12 11 -17 0 -17 1 0 8 22 8 -147 13 -186 5 -15 -3 -25 -10 -21 -15 3 -5 -2 -9 -11 -9 -9 0 -14 4 -10 10 3 5 -7 9 -22 8 -15 0 -50 2 -78 5 -27 4 -42 4 -32 1 22 -7 22 -27 0 -45 -15 -12 -16 -12 -11 7 5 18 0 23 -24 28 -17 3 -35 3 -42 -1 -6 -4 -20 -9 -30 -10 -11 -2 -26 -9 -35 -16 -12 -10 -14 -9 -8 6 4 11 2 17 -8 17 -10 0 -12 -6 -8 -17 6 -15 4 -16 -9 -6 -8 7 -19 9 -24 5 -4 -4 -2 1 5 11 11 14 11 17 -1 17 -8 0 -19 -5 -25 -11 -9 -9 -16 -8 -28 5 -9 9 -24 16 -33 15 -11 0 -12 -2 -4 -6 17 -7 15 -20 -3 -20 -8 0 -15 4 -15 9 0 14 -39 9 -60 -9 -11 -10 -24 -17 -28 -16 -4 1 -12 -3 -18 -8 -8 -6 -14 -4 -18 7 -5 12 -10 13 -19 6 -7 -6 -19 -7 -26 -3 -9 6 -10 11 -2 15 6 4 11 11 11 17 0 13 -28 11 -32 -3 -3 -7 -24 -11 -59 -10 -47 2 -52 0 -36 -12 9 -7 17 -17 17 -21 0 -4 -6 -2 -14 4 -10 8 -16 9 -21 1 -4 -6 -12 -7 -24 0 -12 6 -22 5 -31 -3 -10 -10 -11 -9 -4 3 21 37 10 49 -27 29 -17 -9 -18 -13 -7 -27 7 -9 0 -6 -14 7 -28 24 -59 21 -38 -4 8 -10 8 -15 0 -20 -6 -4 -17 1 -25 11 -12 17 -14 17 -20 3 -4 -11 -19 -16 -50 -16 -24 0 -44 3 -43 6 3 17 -16 41 -33 41 -18 0 -18 -1 -4 -24 15 -23 15 -25 -4 -35 -13 -7 -18 -18 -15 -29 4 -12 0 -10 -13 6 -15 18 -21 20 -31 10 -11 -11 -13 -10 -10 2 2 8 -4 15 -12 15 -10 0 -15 -9 -14 -27 l0 -26 -25 19 c-24 19 -26 19 -38 3 -13 -17 -8 -38 6 -29 5 2 6 -7 3 -20 -4 -22 -24 -38 -21 -17 1 4 0 10 -1 15 -1 4 -3 12 -4 17 -1 13 -21 13 -21 1 0 -5 -3 -13 -7 -17 -4 -3 -6 3 -3 14 2 11 -3 26 -11 32 -11 10 -15 8 -22 -10 -7 -19 -10 -20 -15 -7 -3 8 -14 14 -24 13 -14 -2 -18 -12 -19 -45 0 -44 -16 -72 -29 -52 -3 6 -3 10 2 9 4 -2 8 2 8 7 0 6 -3 9 -8 7 -12 -4 -3 22 13 35 13 10 13 12 -2 18 -23 9 -39 -2 -31 -22 5 -12 2 -15 -9 -10 -23 8 -53 -16 -45 -37 7 -18 -13 -22 -30 -5 -8 8 -13 8 -17 0 -5 -7 -17 -3 -37 11 -22 17 -32 19 -41 10 -9 -9 -6 -14 13 -21 13 -5 27 -7 31 -5 3 2 1 -9 -5 -26 -11 -28 -22 -32 -22 -7 0 7 -6 12 -14 12 -8 0 -15 8 -17 19 -4 27 -22 42 -35 29 -19 -19 -92 12 -81 36 1 3 -2 6 -8 6 -5 0 -10 -4 -11 -10 0 -5 -6 -16 -11 -23 -9 -10 -6 -14 10 -19 12 -3 19 -10 16 -15 -3 -5 -17 1 -30 13 -13 12 -24 19 -24 14 0 -5 -6 0 -14 11 -9 12 -11 23 -5 30 5 6 5 14 1 18 -4 4 -7 13 -7 19 0 14 -44 15 -47 2 -2 -6 4 -10 12 -11 30 -2 32 -4 21 -17 -6 -8 -8 -17 -4 -20 3 -4 2 -7 -4 -7 -6 0 -14 8 -18 18 -6 15 -9 14 -31 -11 -24 -28 -57 -31 -52 -5 3 14 -31 17 -49 4 -7 -4 -13 -7 -14 -5 -7 37 -7 40 5 30 9 -8 17 -6 30 7 9 10 13 22 9 26 -5 4 -8 12 -8 17 0 5 -4 10 -10 12 -5 1 -10 -7 -10 -17 0 -11 -7 -22 -15 -24 -13 -5 -13 -3 -1 11 7 10 12 17 10 18 -25 5 -51 4 -55 -3 -3 -5 -15 -1 -25 8 -18 17 -21 16 -48 -4 -21 -15 -31 -18 -39 -10 -8 8 -7 15 5 23 15 11 14 14 -8 26 -27 15 -97 39 -116 39 -7 0 -13 -9 -13 -19 0 -23 -23 -34 -38 -19 -14 14 -27 -14 -18 -38 6 -15 4 -15 -16 -2 -13 9 -24 22 -24 29 -1 8 -2 18 -3 23 0 4 -12 1 -25 -7 -17 -12 -32 -14 -53 -8 -15 4 -34 6 -40 4 -7 -3 -16 2 -19 11 -7 17 -54 22 -54 6 0 -11 -60 -2 -74 11 -14 12 -173 11 -181 -1 -4 -7 -12 -7 -25 0 -12 7 -1333 10 -3889 10 l-3871 0 0 -5340z m8936 2643 c-3 -7 1 -16 9 -19 11 -4 12 -11 5 -24 -7 -13 -5 -21 5 -30 11 -9 12 -16 5 -25 -13 -15 3 -30 20 -20 6 4 10 -5 9 -22 -1 -15 4 -48 11 -73 15 -53 16 -314 1 -805 -9 -284 -8 -322 6 -337 20 -22 10 -48 -19 -49 -13 -1 -36 -2 -53 -3 -37 -1 -45 -20 -10 -24 31 -4 30 6 10 -336 -12 -197 -12 -252 -2 -264 10 -13 44 -14 229 -8 l218 7 0 -53 c0 -29 -4 -59 -9 -66 -6 -10 -51 -14 -179 -17 -94 -2 -176 -6 -182 -10 -6 -4 -9 -13 -7 -20 4 -9 -6 -11 -39 -7 -50 5 -51 4 -57 -77 -4 -43 -1 -57 14 -72 10 -10 19 -27 19 -38 0 -10 6 -23 13 -28 6 -6 102 -13 212 -17 109 -4 201 -9 204 -12 2 -2 9 -32 16 -67 11 -62 11 -62 53 -72 23 -6 46 -15 51 -20 10 -11 34 -116 27 -122 -2 -3 -39 5 -83 16 -101 26 -188 43 -238 47 -22 1 -56 5 -75 7 -19 3 -114 8 -211 12 -98 4 -215 9 -260 10 -138 6 -1425 5 -1539 -1 -58 -2 -127 -6 -155 -7 -27 -1 -56 -6 -63 -10 -7 -5 -32 -7 -55 -6 -24 2 -48 -1 -55 -5 -7 -4 -27 -6 -45 -5 -18 2 -37 1 -42 -3 -6 -3 -34 -6 -63 -6 -30 -1 -59 -5 -66 -11 -6 -5 -17 -6 -25 -2 -10 7 -10 17 -1 52 16 58 26 69 66 69 39 0 46 12 58 93 l7 47 62 1 c34 1 127 4 207 8 144 6 145 6 148 30 2 13 13 31 23 40 17 14 20 26 17 86 l-3 70 -41 -3 c-34 -2 -43 1 -47 18 -5 19 -13 20 -186 20 l-181 0 0 65 0 65 219 0 c131 0 222 4 226 10 7 11 -23 609 -31 622 -3 4 -12 8 -20 8 -19 0 -18 36 2 44 15 6 16 24 10 174 -11 279 -17 410 -26 576 -8 147 -7 162 9 185 16 22 45 95 55 136 2 6 6 19 10 30 5 11 12 32 18 48 6 15 16 27 22 28 6 0 19 2 28 4 49 9 52 -19 63 -695 4 -234 8 -427 10 -431 2 -3 7 -162 10 -353 3 -192 9 -356 15 -366 9 -17 49 -18 727 -22 408 -3 722 -1 728 4 6 5 15 146 22 336 12 346 13 339 -31 355 -8 3 -7 11 3 27 10 18 14 89 17 294 5 404 13 564 31 626 8 30 19 60 23 65 4 6 8 33 9 62 2 58 7 88 16 103 4 6 9 32 12 57 2 26 11 60 19 75 8 15 14 31 13 34 -2 12 23 22 43 16 11 -3 17 -10 14 -19z"/>
 </g>
<g id="layer103" fill="#f1f1f1" stroke="none">
 <path d="M26 10012 c-4 -7 -5 -16 -2 -21 3 -5 -1 -11 -9 -15 -13 -5 -15 -577 -15 -4991 l0 -4985 8000 0 8000 0 -2 3523 -3 3522 -80 -1 c-148 -2 -302 -11 -314 -18 -6 -4 -33 -3 -59 3 -53 11 -141 10 -159 -2 -7 -5 -18 -5 -23 -2 -6 4 -16 2 -23 -4 -8 -6 -18 -6 -27 -1 -10 6 -21 3 -34 -8 -11 -9 -16 -12 -13 -5 10 16 -11 27 -27 14 -9 -7 -16 -7 -23 0 -8 8 -13 7 -18 -1 -5 -8 -11 -6 -20 7 -11 15 -17 16 -32 6 -10 -6 -17 -16 -16 -22 2 -6 -10 -8 -29 -6 -17 2 -36 1 -42 -3 -6 -4 -24 -8 -41 -9 -16 -1 -50 -4 -75 -8 -31 -4 -40 -3 -31 4 27 18 18 73 -9 56 -8 -5 -7 -11 1 -21 10 -12 10 -15 -2 -12 -8 2 -13 -4 -13 -15 2 -14 -1 -15 -12 -6 -18 14 -48 4 -38 -13 6 -10 3 -9 -9 0 -9 8 -21 11 -27 7 -6 -3 -24 0 -41 9 -25 12 -31 13 -35 1 -4 -11 -12 -11 -36 -3 -23 8 -36 8 -49 -1 -25 -15 -40 -14 -37 3 2 8 -1 15 -7 15 -5 1 -10 -5 -10 -11 0 -9 -19 -13 -62 -13 -34 0 -65 -3 -69 -7 -4 -4 -12 -1 -18 8 -9 12 -17 13 -38 5 -15 -5 -45 -8 -68 -5 -23 3 -47 0 -54 -5 -6 -5 -33 -8 -59 -6 -25 2 -49 -1 -53 -6 -4 -6 -10 -6 -19 1 -13 10 -79 9 -90 -2 -4 -3 -22 -2 -42 3 -20 4 -42 5 -47 1 -12 -8 -189 -22 -311 -25 -44 -2 -85 -6 -92 -10 -6 -4 -15 -3 -18 3 -5 8 -11 8 -19 1 -16 -13 -142 -26 -226 -23 -19 1 -136 0 -260 -2 -123 -3 -231 -1 -239 4 -8 4 -22 3 -32 -3 -13 -8 -31 -7 -66 2 -26 7 -73 18 -103 25 -30 7 -55 18 -55 24 0 7 -4 12 -10 11 -5 -1 -9 -4 -8 -9 1 -4 -44 -10 -100 -13 -67 -4 -121 -13 -156 -27 -46 -18 -59 -19 -83 -9 -19 7 -49 9 -86 5 -31 -4 -102 -11 -157 -16 -55 -5 -125 -13 -155 -18 -30 -5 -59 -6 -65 -2 -32 22 -145 35 -325 37 -253 3 -402 9 -470 19 -30 5 -89 8 -132 7 -62 -2 -77 0 -82 13 -4 11 -10 13 -19 7 -12 -9 -78 -10 -107 -2 -8 2 -14 -2 -12 -8 1 -7 -1 -14 -5 -14 -39 -7 -60 -5 -73 6 -18 16 -63 13 -85 -5 -13 -11 -16 -11 -13 0 5 19 -101 23 -109 4 -4 -11 -9 -12 -19 -3 -7 6 -19 7 -26 3 -13 -9 -104 -7 -118 1 -4 3 -34 0 -65 -7 -48 -9 -79 -8 -174 6 -64 9 -150 22 -191 27 -41 6 -113 19 -160 29 -47 10 -137 21 -201 24 -107 6 -119 5 -170 -17 -30 -14 -67 -27 -84 -31 -16 -4 -41 -15 -55 -26 -24 -18 -25 -22 -28 -169 -3 -131 -2 -152 12 -157 9 -3 16 -16 16 -28 0 -16 -9 -24 -32 -31 -30 -9 -34 -14 -39 -60 -12 -90 -32 -543 -25 -554 5 -7 77 -11 227 -11 l219 0 0 -70 0 -70 -182 -2 c-178 -3 -183 -4 -186 -24 -3 -20 -6 -21 -38 -11 -46 14 -53 5 -61 -77 -6 -62 -5 -67 15 -73 15 -3 22 -14 24 -37 l3 -31 210 -6 c116 -3 211 -7 211 -8 1 0 5 -22 9 -48 11 -76 21 -93 53 -93 15 0 35 -6 44 -12 19 -15 49 -120 39 -136 -4 -7 -29 -4 -74 8 -82 23 -238 46 -407 61 -186 16 -1795 24 -1995 10 -192 -14 -378 -37 -459 -57 -32 -8 -61 -13 -64 -9 -3 3 3 36 14 73 18 65 20 67 54 70 48 5 57 15 65 70 11 80 1 76 227 82 l203 5 3 31 c2 22 9 34 23 37 15 4 19 14 19 50 0 25 -5 58 -10 73 -10 24 -14 26 -51 21 -32 -4 -39 -2 -35 9 3 7 0 16 -6 20 -5 4 -88 6 -184 5 l-174 -2 0 55 c0 30 -3 61 -6 70 -5 14 17 16 213 16 216 0 247 4 238 34 -2 6 -9 141 -16 300 -13 286 -13 288 -36 299 -26 12 -31 42 -8 51 13 5 15 22 13 93 l-3 88 -40 6 c-22 3 -78 22 -125 43 -77 34 -95 38 -189 42 -78 3 -124 -1 -185 -15 -81 -19 -122 -21 -163 -7 -14 4 -36 0 -62 -13 l-39 -20 -64 20 c-58 20 -70 20 -143 9 -45 -6 -92 -9 -105 -6 -14 3 -97 8 -185 11 -88 4 -173 8 -190 10 -16 3 -93 11 -170 19 -142 14 -231 32 -240 47 -3 4 -12 6 -20 3 -7 -3 -25 2 -40 12 -24 16 -32 16 -78 4 -29 -7 -72 -14 -97 -15 -25 -1 -89 -7 -143 -14 -54 -8 -139 -11 -190 -8 -57 3 -116 0 -157 -8 -36 -8 -105 -21 -155 -30 -49 -10 -110 -21 -135 -26 -51 -11 -134 -5 -176 12 -16 6 -56 13 -89 14 -99 5 -245 33 -310 60 -78 33 -92 34 -147 13 -41 -15 -84 -21 -193 -24 -147 -4 -162 -5 -235 -22 -34 -8 -70 -8 -142 2 -53 8 -117 11 -142 9 -27 -3 -59 0 -78 8 -38 16 -71 19 -263 23 -112 3 -152 8 -199 25 -33 11 -75 21 -95 21 -64 1 -231 34 -200 41 35 7 119 7 124 -1 8 -13 62 -13 71 1 6 10 105 10 702 -4 46 -1 86 1 88 5 7 11 1172 9 1179 -1 6 -12 94 -11 101 1 3 4 657 8 1454 8 1008 0 1451 3 1455 11 4 5 2 108 -5 227 -9 157 -16 223 -27 240 -8 13 -12 29 -10 37 10 25 -16 95 -51 135 -37 44 -102 90 -126 90 -9 0 -20 8 -25 19 -6 10 -22 22 -36 25 -13 3 -32 20 -40 36 -9 16 -21 29 -27 27 -7 -1 -14 7 -16 18 -2 11 -10 27 -17 35 -7 8 -15 24 -17 35 -2 12 -10 19 -20 17 -15 -2 -28 19 -33 53 -1 6 -3 13 -5 18 -1 4 -3 13 -4 20 -1 6 -6 12 -11 11 -6 0 -21 10 -35 24 -15 14 -19 23 -10 21 8 -2 16 1 18 6 1 6 -1 11 -5 11 -37 7 -53 17 -43 29 8 9 8 15 0 20 -6 3 -8 11 -5 16 4 5 -5 14 -19 21 -14 6 -26 15 -26 20 0 5 -15 22 -32 39 -18 16 -29 29 -25 29 4 0 3 9 -3 20 -7 13 -21 20 -39 20 -17 0 -31 7 -35 16 -3 8 -10 13 -15 9 -5 -3 -9 9 -8 27 2 31 0 33 -29 30 -28 -3 -33 1 -43 28 -6 18 -15 29 -21 25 -6 -4 -17 -1 -25 5 -8 6 -36 13 -62 14 -34 1 -48 6 -48 17 0 7 -4 14 -10 14 -5 0 -15 4 -22 8 -6 4 -15 3 -18 -3 -5 -8 -11 -8 -20 0 -7 6 -21 7 -31 4 -11 -4 -16 -4 -12 1 17 18 -12 33 -50 24 -20 -4 -38 -6 -41 -4 -2 3 -5 24 -7 47 -1 24 -3 45 -3 47 -1 3 -11 -5 -23 -17 -13 -11 -27 -22 -33 -24 -5 -2 -8 -10 -6 -18 1 -8 0 -12 -4 -8 -4 4 -16 3 -27 -3 -16 -9 -19 -7 -16 8 2 12 -3 18 -17 18 -11 0 -24 6 -28 13 -7 11 -12 10 -28 -4 -15 -14 -21 -15 -34 -4 -11 9 -19 10 -26 3 -8 -8 -7 -13 0 -17 6 -4 11 -12 11 -18 0 -7 -4 -7 -12 -1 -7 6 -26 9 -43 9 -23 -1 -29 -5 -27 -19 3 -16 0 -17 -17 -7 -21 11 -21 11 6 35 l28 23 -25 10 c-26 10 -69 8 -108 -3 -19 -6 -22 -4 -20 16 3 21 -1 23 -32 23 -32 0 -47 -17 -17 -20 31 -3 37 -5 37 -12 0 -5 -15 -8 -34 -8 -19 0 -32 4 -30 7 6 11 -34 41 -46 34 -14 -8 -2 -28 14 -22 7 3 13 -4 13 -15 1 -13 -2 -17 -10 -11 -23 17 -52 9 -51 -13 1 -16 -5 -21 -22 -21 -19 0 -22 3 -14 18 12 22 -2 33 -29 24 -11 -3 -22 -1 -26 5 -5 8 -11 8 -21 -1 -7 -6 -11 -15 -8 -20 3 -5 1 -9 -5 -9 -5 0 -12 4 -15 9 -3 5 -30 7 -60 5 -42 -3 -55 -1 -60 12 -9 23 -25 7 -18 -19 5 -19 4 -20 -11 -9 -9 8 -16 17 -15 20 2 21 -4 23 -21 8 -13 -12 -21 -14 -26 -6 -3 5 -11 8 -16 4 -5 -3 -8 -1 -7 4 2 6 -1 10 -7 11 -5 0 -9 -11 -9 -25 1 -21 -3 -25 -25 -22 -14 1 -32 7 -40 13 -8 5 -26 10 -40 10 -14 1 -27 6 -27 13 -3 26 -6 26 -29 -3 -13 -16 -27 -26 -31 -22 -4 3 -1 14 6 22 10 12 10 21 1 41 -12 28 -32 25 -24 -4 3 -12 -4 -24 -20 -35 -23 -15 -26 -15 -31 -1 -9 23 -8 25 11 22 19 -3 25 20 10 40 -8 10 -13 10 -25 0 -11 -9 -14 -9 -9 -1 4 6 3 14 -2 17 -5 4 -13 1 -16 -5 -4 -5 -13 -8 -21 -5 -21 8 -27 -11 -7 -23 15 -9 15 -10 2 -11 -8 0 -26 11 -39 25 -19 20 -20 25 -7 25 17 0 41 35 33 49 -9 14 -51 5 -48 -11 1 -9 -7 -18 -19 -21 -13 -4 -18 -10 -13 -18 5 -9 2 -10 -9 -6 -9 3 -19 2 -23 -4 -4 -7 -10 -7 -18 0 -7 6 -17 6 -26 1 -10 -6 -21 -4 -32 7 -10 9 -18 13 -18 8 0 -4 -7 -2 -15 5 -11 9 -12 16 -5 25 7 9 7 15 1 19 -5 4 -12 2 -16 -4 -3 -5 -3 -10 1 -10 4 0 -2 -10 -14 -23 -24 -25 -21 -39 6 -30 14 4 13 1 -2 -11 -10 -8 -24 -12 -30 -8 -16 10 -48 2 -70 -16 -11 -10 -16 -11 -12 -4 4 7 2 20 -6 29 -7 9 -12 19 -10 22 1 3 -4 6 -10 6 -7 0 -12 -5 -11 -11 3 -15 -35 -25 -43 -12 -3 5 -14 2 -25 -8 -10 -9 -19 -13 -19 -7 0 6 -10 22 -21 37 -20 26 -22 26 -40 10 -10 -9 -15 -22 -12 -28 19 -30 0 -57 -23 -33 -4 4 -19 0 -33 -9 -14 -9 -23 -13 -19 -9 4 5 3 14 -3 21 -9 11 -15 10 -35 -2 -13 -9 -21 -20 -18 -25 10 -16 -9 -9 -22 9 -13 16 -15 16 -29 -2 -8 -11 -15 -16 -15 -12 0 5 -7 3 -15 -4 -13 -11 -14 -10 -9 3 7 20 -26 39 -46 27 -10 -6 -21 -4 -32 6 -21 20 -45 9 -28 -11 10 -11 8 -13 -9 -10 -12 2 -25 6 -30 9 -5 3 -14 -1 -21 -9 -12 -14 -15 -14 -30 0 -9 8 -20 12 -24 8 -4 -5 -33 -8 -64 -8 -53 0 -58 1 -69 28 -7 16 -17 26 -22 23 -5 -4 -12 -2 -16 4 -4 6 -11 8 -16 4 -5 -3 -7 -10 -3 -15 3 -5 10 -7 15 -4 12 8 27 -34 21 -58 -4 -17 -6 -17 -14 -3 -5 9 -16 16 -24 16 -8 0 -13 4 -10 9 8 12 -25 36 -49 36 -13 0 -19 -6 -17 -18 2 -9 -2 -25 -7 -35 -9 -15 -10 -13 -8 8 1 13 -2 25 -8 25 -5 0 -20 6 -32 13 -27 15 -41 -1 -21 -26 11 -15 11 -15 -3 -5 -12 10 -18 8 -33 -8 -13 -15 -20 -18 -30 -10 -7 6 -16 8 -19 4 -4 -3 -7 -1 -7 5 0 6 5 14 10 17 8 5 7 11 -1 21 -9 12 -15 12 -27 2 -13 -11 -15 -10 -9 4 7 19 -17 43 -33 33 -8 -5 -8 -11 -1 -19 6 -7 8 -16 4 -19 -12 -12 -21 -7 -28 16 -6 20 -7 29 -2 62 1 6 -4 9 -10 7 -7 -1 -13 4 -13 12 0 20 -19 31 -33 17 -7 -7 -6 -15 5 -28 8 -10 18 -27 22 -37 5 -15 4 -17 -7 -8 -17 15 -38 -4 -30 -26 5 -10 2 -13 -6 -8 -7 5 -10 14 -7 22 8 20 -24 31 -38 13 -19 -24 -41 -21 -42 7 -2 20 1 23 12 13 10 -8 18 -9 25 -2 7 7 1 17 -20 32 -26 19 -32 20 -37 7 -3 -8 -2 -21 2 -28 6 -11 4 -11 -7 0 -8 7 -14 18 -14 24 0 13 -33 20 -40 8 -3 -5 -6 -19 -7 -33 -3 -33 -25 -23 -26 11 0 44 -1 45 -28 27 -15 -9 -24 -12 -20 -7 3 6 -2 17 -12 24 -11 7 -21 17 -23 22 -7 17 -59 17 -65 1 -4 -8 -10 -15 -16 -15 -5 0 -6 5 -3 10 3 6 -5 14 -19 20 -22 8 -25 13 -16 35 8 20 6 27 -11 35 -25 14 -44 4 -29 -15 8 -10 8 -15 -1 -21 -7 -4 -9 -3 -5 4 3 6 -2 16 -13 22 -13 7 -22 7 -26 0 -4 -6 -11 -8 -16 -4 -5 3 -7 9 -4 14 9 14 -15 23 -29 11 -7 -6 -16 -8 -19 -4 -11 11 -8 23 5 21 8 -2 12 10 12 31 0 25 -5 35 -17 37 -9 1 -19 -2 -23 -7 -3 -5 -10 -7 -15 -3 -5 3 -16 -10 -23 -28 l-14 -33 -11 28 c-12 30 -28 35 -37 12 -4 -8 -13 -15 -22 -15 -8 0 -12 3 -9 6 3 4 2 15 -3 25 -7 12 -7 20 0 24 15 9 2 25 -16 18 -12 -4 -13 -1 -5 21 6 15 7 28 1 31 -12 7 -31 -30 -25 -47 4 -10 -5 -13 -32 -13 -21 0 -38 5 -38 10 0 6 3 9 7 8 13 -5 29 35 18 42 -6 3 -13 -1 -16 -9 -3 -9 -11 -16 -16 -16 -6 0 -8 7 -5 15 4 8 2 17 -3 20 -15 9 -31 -5 -23 -18 11 -18 11 -48 0 -44 -10 3 -12 12 -21 77 -5 35 -5 35 -18 22 -15 -15 -29 -15 -26 0 2 6 -7 12 -19 12 -13 0 -23 -4 -22 -9 0 -6 7 -9 14 -7 10 2 13 -3 9 -13 -5 -12 -10 -11 -34 8 -31 24 -37 36 -17 33 6 0 13 4 14 9 2 6 -8 10 -21 10 -33 0 -45 14 -23 26 9 6 15 14 12 20 -9 14 -45 -9 -39 -25 3 -8 0 -17 -5 -21 -6 -3 -8 -11 -5 -17 4 -6 2 -8 -3 -5 -6 4 -8 18 -6 32 4 17 0 27 -10 31 -14 5 -15 8 -2 28 18 28 8 42 -15 21 -10 -9 -24 -15 -31 -13 -8 2 -13 -4 -11 -13 2 -12 -6 -16 -33 -14 -36 1 -50 9 -50 28 0 6 -11 11 -25 11 -18 0 -24 -5 -22 -16 2 -13 -5 -16 -27 -16 -32 1 -48 23 -32 42 10 12 9 41 -1 52 -9 9 -26 -28 -23 -49 3 -15 1 -16 -11 -6 -8 7 -13 17 -10 24 2 6 -4 22 -14 35 -16 21 -20 22 -34 11 -9 -8 -19 -11 -23 -8 -3 4 -12 2 -19 -4 -8 -7 -14 -7 -19 1 -5 8 -12 7 -23 -2 -15 -10 -15 -10 -4 2 7 8 18 15 25 15 7 0 12 6 12 14 0 24 -74 21 -91 -3 -8 -11 -14 -15 -14 -9 0 6 7 16 15 23 15 12 16 35 1 58 -6 11 -12 10 -27 -4 -20 -18 -21 -16 -23 28 -1 16 -6 27 -11 25 -6 -1 -9 -15 -8 -30 1 -24 -1 -26 -13 -16 -10 8 -18 9 -27 0 -8 -6 -17 -8 -20 -4 -4 3 -17 -2 -29 -13 -16 -14 -19 -14 -10 -2 11 14 10 18 -6 27 -15 8 -23 7 -32 -4 -15 -19 -23 -14 -14 9 3 9 10 14 14 11 12 -7 23 12 15 25 -4 6 -12 7 -18 3 -26 -16 -65 -11 -71 10 -4 16 -8 18 -19 9 -10 -8 -17 -8 -24 -1 -16 16 -33 2 -28 -22 4 -20 4 -20 -24 1 -16 11 -28 25 -27 32 0 7 -3 13 -9 13 -5 0 -9 -7 -8 -15 1 -8 -11 1 -27 20 -16 19 -32 32 -36 27 -4 -4 -15 0 -25 9 -10 9 -27 14 -37 12 -14 -4 -18 0 -17 16 2 24 -34 78 -47 70 -5 -3 -6 -14 -3 -23 4 -14 -1 -18 -24 -18 -24 0 -29 4 -28 23 1 13 -2 23 -8 23 -5 0 -9 -10 -8 -23 1 -19 -3 -23 -24 -20 -13 1 -28 6 -31 10 -4 4 1 4 10 1 23 -8 32 8 18 33 -11 21 -33 19 -24 -3 3 -8 -4 -13 -15 -13 -15 0 -17 3 -9 13 10 13 3 18 -17 13 -40 -10 -64 -8 -69 6 -3 8 -11 12 -16 9 -6 -4 -9 -1 -8 6 3 13 -40 20 -48 7 -9 -15 -43 -8 -53 10 -6 10 -8 28 -5 39 7 27 -12 39 -34 21 -15 -11 -15 -11 -5 3 19 23 3 32 -20 12 -10 -10 -22 -18 -26 -18 -3 0 -5 -4 -3 -8 1 -5 -3 -5 -9 -1 -7 4 -25 7 -40 6 -16 0 -29 4 -29 10 0 6 12 8 30 5 22 -5 32 -2 39 12 13 24 2 35 -17 18 -12 -9 -14 -9 -9 0 5 7 -1 16 -13 23 -11 6 -20 8 -20 4 0 -3 -7 -1 -15 6 -8 6 -19 9 -24 6 -5 -4 -13 -1 -16 5 -5 6 -20 8 -40 5 -23 -5 -36 -2 -45 9 -7 9 -19 14 -26 11 -7 -3 -16 0 -20 6 -4 6 -3 8 3 5 12 -8 36 17 26 26 -3 4 -12 2 -20 -4 -7 -6 -13 -7 -13 -2 0 19 -27 46 -34 35z"/>
 <path d="M14103 7839 c-9 -9 -75 -13 -108 -7 -13 2 -19 -2 -17 -12 3 -11 -1 -10 -16 3 -11 10 -22 15 -25 10 -7 -12 11 -53 23 -53 5 0 10 -4 10 -9 0 -4 -11 -6 -24 -4 -16 3 -23 10 -19 19 8 22 -6 37 -23 23 -12 -9 -12 -15 -2 -27 12 -13 10 -14 -8 -2 -12 7 -21 21 -19 29 4 25 -5 32 -26 20 -16 -8 -18 -14 -9 -24 9 -10 6 -15 -10 -20 -12 -4 -27 -2 -34 4 -15 13 -24 5 -50 -46 -9 -18 -21 -33 -27 -33 -8 0 -8 4 0 14 8 10 9 16 1 21 -17 10 -31 -5 -24 -27 4 -15 2 -19 -7 -16 -8 3 -22 1 -32 -4 -13 -7 -24 -5 -35 5 -9 8 -22 13 -28 10 -6 -2 -14 6 -18 19 -6 22 -7 22 -21 4 -12 -15 -17 -17 -29 -7 -16 14 -40 6 -30 -10 5 -9 -59 -4 -93 6 -7 2 -15 0 -18 -6 -4 -5 -10 -7 -15 -4 -5 3 -11 1 -15 -5 -9 -15 -25 -12 -19 4 3 8 1 17 -5 21 -6 3 -14 -1 -17 -9 -3 -9 -10 -14 -14 -11 -5 3 -11 1 -15 -5 -4 -6 -11 -8 -16 -4 -6 3 -19 -2 -30 -12 -18 -16 -34 -13 -34 7 0 20 -20 7 -21 -14 -2 -37 -3 -40 -17 -28 -11 8 -18 7 -31 -7 -9 -10 -14 -22 -11 -25 3 -4 -1 -3 -7 3 -9 7 -7 13 7 23 13 10 15 16 6 21 -14 9 -43 -12 -36 -24 3 -5 1 -12 -5 -15 -8 -5 -8 -11 0 -20 9 -11 5 -14 -22 -13 -18 0 -38 5 -45 10 -14 11 -36 1 -28 -13 4 -5 -1 -9 -9 -9 -8 0 -18 5 -21 10 -4 6 -12 7 -18 3 -22 -13 -39 -13 -28 1 6 7 8 16 4 20 -14 14 19 23 53 16 19 -4 34 -7 35 -6 0 0 2 10 3 21 2 11 5 27 7 35 2 8 -3 15 -11 15 -9 0 -15 -8 -14 -20 1 -16 -5 -20 -30 -19 -36 2 -69 -13 -61 -27 4 -5 -3 -9 -14 -9 -29 0 -37 -20 -11 -27 21 -6 20 -7 -11 -18 -27 -9 -37 -9 -51 2 -11 10 -18 11 -23 4 -4 -8 -13 -7 -28 1 -12 7 -27 11 -34 10 -6 -1 -15 2 -18 8 -5 8 -14 5 -27 -7 -14 -12 -36 -18 -76 -18 -39 -1 -56 -5 -55 -13 2 -7 -4 -12 -12 -12 -8 0 -14 3 -12 8 1 4 -3 7 -8 7 -5 0 -9 -4 -7 -9 2 -5 -3 -5 -10 1 -7 6 -24 10 -38 9 -19 -1 -24 -6 -22 -21 2 -18 1 -17 -16 4 -18 23 -50 22 -36 -1 4 -6 2 -8 -4 -4 -6 3 -13 2 -16 -3 -4 -5 -20 -9 -36 -9 -22 1 -29 6 -28 17 2 11 -5 16 -22 16 -14 0 -23 -5 -20 -10 3 -6 8 -9 12 -8 10 4 5 -23 -11 -62 -9 -21 -14 -26 -20 -17 -4 8 -21 20 -37 28 -26 14 -29 14 -45 -7 l-16 -22 -22 22 c-16 16 -28 20 -44 15 -19 -6 -20 -5 -9 9 9 10 10 17 2 22 -13 8 -32 -4 -25 -15 3 -5 1 -19 -5 -31 -11 -19 -13 -20 -30 -4 -21 19 -34 7 -23 -22 6 -17 5 -17 -13 -1 -14 12 -33 16 -64 14 -40 -3 -45 -6 -45 -27 0 -15 6 -24 15 -24 8 0 14 7 14 16 -1 11 5 16 15 14 9 -2 22 -4 30 -4 11 -1 11 -4 1 -16 -7 -8 -9 -22 -6 -31 11 -28 -12 -45 -55 -38 -21 4 -52 2 -68 -4 -27 -10 -32 -8 -42 9 -8 17 -13 18 -25 8 -8 -7 -14 -8 -12 -3 2 5 -1 9 -7 9 -5 0 -9 -2 -8 -5 4 -12 -73 -4 -80 8 -7 10 -12 10 -23 1 -8 -6 -14 -8 -14 -4 0 5 -10 0 -22 -11 -19 -17 -21 -17 -15 -2 9 25 -10 32 -22 9 -7 -13 -19 -18 -36 -16 -15 1 -29 -4 -34 -12 -7 -13 -9 -13 -15 2 -4 12 -13 15 -30 11 -15 -4 -28 0 -36 9 -7 8 -17 12 -24 8 -6 -4 -15 -8 -21 -8 -5 -1 -23 -7 -39 -13 -34 -15 -64 1 -46 23 8 10 7 15 -1 21 -8 4 -21 -3 -34 -19 -25 -32 -36 -34 -32 -8 1 11 -2 20 -8 20 -5 0 -9 -9 -8 -20 4 -26 -5 -24 -29 6 -11 15 -24 22 -31 18 -19 -12 -40 -13 -53 -2 -6 5 -19 7 -28 3 -10 -4 -16 -1 -16 9 0 8 8 18 18 22 15 6 13 10 -13 31 -16 14 -25 24 -20 23 21 -3 27 2 16 14 -8 11 -6 13 9 12 11 -1 22 -4 25 -7 11 -11 45 4 56 23 13 25 0 48 -15 27 -16 -21 -46 -31 -40 -13 3 8 9 13 12 12 4 -1 8 3 10 8 1 6 -1 10 -5 10 -5 0 -13 4 -19 8 -14 8 -38 -18 -29 -33 12 -20 -12 -10 -35 15 -21 22 -48 26 -34 4 3 -5 10 -6 16 -3 7 5 8 2 2 -7 -5 -8 -9 -18 -9 -23 0 -5 -10 -12 -22 -17 -29 -11 -30 6 -2 22 19 10 20 12 6 27 -12 12 -19 13 -30 4 -10 -8 -17 -8 -24 -1 -15 15 -36 1 -28 -19 5 -14 3 -14 -13 1 -10 9 -26 17 -35 17 -10 0 -14 6 -11 14 3 8 0 17 -6 21 -7 4 -14 -2 -17 -15 -4 -14 -11 -19 -21 -15 -8 3 -20 1 -26 -4 -7 -6 -17 -6 -26 -1 -8 6 -11 10 -6 10 5 0 1 9 -9 20 -10 11 -22 17 -27 14 -5 -3 -1 -15 9 -27 18 -20 17 -20 -4 -15 -13 4 -26 2 -29 -4 -7 -12 -82 -2 -99 12 -6 5 -23 7 -37 5 -17 -3 -28 0 -32 11 -3 8 -2 12 3 9 5 -3 12 -1 15 4 12 19 -12 20 -29 1 -12 -13 -30 -19 -59 -18 -37 1 -60 -4 -91 -20 -5 -3 -7 -2 -3 3 11 11 -12 36 -25 28 -5 -3 -7 -1 -3 5 3 6 2 13 -4 17 -6 3 -13 0 -16 -8 -3 -10 -23 -14 -69 -13 -35 0 -61 4 -59 8 8 13 -7 29 -19 21 -7 -4 -19 -8 -27 -8 -8 0 -14 -5 -13 -12 3 -13 -22 -7 -44 10 -9 6 -18 6 -26 -2 -11 -8 -18 -6 -32 9 -14 16 -21 18 -33 8 -24 -20 -45 -19 -39 3 8 32 -10 31 -30 -1 -12 -21 -22 -28 -33 -24 -8 4 -23 7 -32 8 -9 0 -16 5 -15 11 1 5 -5 10 -13 10 -8 0 -14 -6 -13 -12 4 -17 -9 -16 -33 3 -10 8 -14 13 -7 10 6 -4 14 -2 18 3 5 9 -25 32 -47 37 -5 1 -11 3 -15 4 -14 4 -68 -2 -78 -8 -16 -10 -34 -11 -40 -2 -6 9 -89 4 -131 -8 -17 -6 -54 -8 -82 -6 -28 2 -54 -1 -57 -7 -5 -6 -12 -6 -22 2 -12 10 -18 8 -36 -13 -23 -26 -53 -43 -74 -39 -21 3 -26 -20 -5 -26 24 -6 37 -43 15 -43 -22 0 -94 -62 -89 -76 3 -7 -3 -23 -14 -36 -18 -22 -19 -22 -33 -4 -8 10 -16 15 -20 10 -3 -5 -7 -91 -9 -192 l-3 -183 260 1 c302 1 772 7 1380 16 237 3 772 6 1190 5 418 -1 1249 -2 1847 -4 859 -2 1090 1 1099 11 17 16 90 16 86 0 -1 -8 16 -13 53 -14 65 -2 80 4 55 22 -16 12 -15 13 11 11 16 -1 29 -8 29 -14 0 -17 12 -26 25 -18 8 5 8 11 -1 21 -9 11 -8 14 5 14 9 0 15 -3 13 -7 -1 -5 3 -8 8 -8 6 0 9 3 8 7 -4 12 93 1 117 -13 28 -16 68 -19 60 -4 -3 5 -13 10 -22 10 -35 3 -27 12 10 12 20 0 48 3 61 6 13 4 32 2 42 -3 10 -6 20 -6 23 -1 6 9 72 9 81 -1 3 -2 27 -2 55 2 27 3 53 3 58 -2 10 -10 93 4 95 17 0 6 -12 13 -29 16 -31 7 -31 10 1 15 11 1 29 4 40 7 11 2 49 0 85 -4 36 -5 79 -10 95 -12 17 -2 41 -1 55 3 31 8 78 -9 84 -30 2 -8 4 21 3 65 0 44 -2 70 -4 58 -2 -13 -11 -23 -19 -23 -16 0 -19 16 -4 25 6 3 10 13 10 21 0 8 -4 13 -9 9 -5 -3 -12 -1 -16 4 -3 6 -15 7 -28 2 -18 -7 -23 -5 -23 9 0 11 5 16 11 12 5 -4 27 -8 48 -8 l37 -2 -2 82 c-1 44 -3 62 -5 39 -3 -25 -10 -44 -19 -47 -11 -4 -14 -1 -9 13 7 22 -38 63 -59 55 -8 -3 -16 2 -20 12 -5 14 -4 15 8 5 18 -15 34 5 16 22 -9 9 -17 5 -35 -15 -13 -16 -34 -28 -46 -28 -21 0 -21 1 -6 18 13 15 14 21 4 31 -10 11 -8 13 11 8 18 -4 25 0 31 16 10 26 4 41 -12 29 -21 -16 -45 -21 -43 -9 0 7 -3 12 -9 12 -5 0 -9 -7 -8 -16 4 -27 -43 -20 -69 10 -21 23 -21 24 -1 8 26 -23 43 -4 19 21 -21 24 -51 24 -72 1 -19 -21 -35 -25 -31 -8 1 6 -14 13 -33 15 -19 3 -46 7 -60 9 -14 2 -54 7 -90 11 -36 3 -69 11 -75 16 -7 8 -6 9 2 4 6 -3 14 -2 18 3 8 15 -28 31 -46 21 -7 -5 -15 -14 -15 -20 -3 -21 -4 -22 -16 -13 -7 5 -23 8 -36 7 -13 -1 -21 4 -20 12 2 7 -1 12 -7 11 -5 -1 -9 -5 -8 -9 3 -7 -21 -1 -40 10 -5 2 0 10 10 17 26 19 4 42 -25 26 -13 -7 -23 -7 -27 -1 -3 5 -12 7 -20 5 -48 -15 -47 -15 -36 -29 9 -10 8 -15 -3 -19 -14 -6 -40 15 -31 25 3 2 -6 15 -20 28 -24 22 -25 22 -32 4 -7 -17 -12 -18 -38 -9 -16 6 -31 16 -32 22 -2 7 4 10 12 7 17 -7 47 14 40 27 -3 4 -13 5 -23 2 -26 -9 -52 -35 -46 -44 3 -5 1 -9 -4 -9 -6 0 -12 7 -16 15 -3 9 -12 12 -23 8 -17 -6 -16 -5 1 15 18 21 15 28 -9 22 -5 -1 -24 -2 -42 -2 -22 1 -37 -5 -47 -19 -9 -14 -16 -17 -21 -9 -5 8 -11 7 -23 -2 -15 -12 -16 -11 -4 4 18 23 7 37 -26 34 -37 -5 -36 -4 -23 -20 7 -9 8 -17 3 -20 -9 -5 -24 16 -27 39 0 6 -6 9 -12 8 -6 -1 -10 4 -9 12 0 8 -3 14 -9 14 -5 0 -10 -8 -10 -18 0 -10 -6 -25 -13 -34 -11 -13 -17 -14 -32 -5 -10 7 -16 16 -14 20 9 15 -7 30 -20 19 -11 -10 -22 -10 -66 1 -10 2 -14 -4 -13 -18 1 -12 -4 -21 -12 -21 -8 0 -12 4 -10 8 7 10 -20 30 -29 22 -15 -15 -35 -11 -33 7 1 10 -2 19 -8 19 -5 0 -9 -9 -8 -20 3 -21 -12 -26 -23 -7 -5 8 -10 6 -19 -5 -10 -14 -15 -13 -49 10 -27 20 -39 24 -48 15 -8 -8 -7 -13 5 -18 28 -10 19 -21 -13 -16 -37 5 -47 19 -26 35 14 11 15 15 3 31 -15 20 -100 39 -114 25z"/>
 <path d="M8425 6858 c-27 -11 -58 -26 -67 -35 -9 -8 -60 -26 -114 -39 -75 -20 -112 -24 -168 -20 -116 8 -217 25 -289 48 -53 17 -73 19 -92 10 -15 -7 -35 -8 -56 -2 -17 5 -50 7 -74 4 -29 -4 -52 -1 -74 11 -58 30 -177 39 -205 16 -15 -12 -16 -46 -10 -335 3 -177 9 -375 12 -441 l7 -120 725 0 725 0 6 85 c4 47 8 198 10 335 l4 250 -22 3 c-26 4 -32 37 -8 46 12 4 15 25 15 100 0 52 -3 97 -7 99 -5 2 -36 -2 -71 -9 -53 -11 -71 -11 -118 2 -66 17 -66 17 -129 -8z"/>
 </g>

</svg>