<svg xmlns="http://www.w3.org/2000/svg" width="28" height="28" viewBox="0 0 28 28"><defs><style>.a{fill:#363636;}</style></defs><path class="a" d="M19.25,0H8.75A8.751,8.751,0,0,0,0,8.75v10.5A8.751,8.751,0,0,0,8.75,28h10.5A8.751,8.751,0,0,0,28,19.25V8.75A8.751,8.751,0,0,0,19.25,0Zm6.125,19.25a6.132,6.132,0,0,1-6.125,6.125H8.75A6.132,6.132,0,0,1,2.625,19.25V8.75A6.132,6.132,0,0,1,8.75,2.625h10.5A6.132,6.132,0,0,1,25.375,8.75Z"/><g transform="translate(7 7)"><path class="a" d="M135,128a7,7,0,1,0,7,7A7,7,0,0,0,135,128Zm0,11.375A4.375,4.375,0,1,1,139.375,135,4.381,4.381,0,0,1,135,139.375Z" transform="translate(-128 -128)"/></g><g transform="translate(20.592 5.542)"><circle class="a" cx="0.933" cy="0.933" r="0.933"/></g></svg>