<svg xmlns="http://www.w3.org/2000/svg" width="94.47" height="62.721" viewBox="0 0 94.47 62.721">
  <g id="car" transform="translate(0.01 -0.048)">
    <g id="_1" data-name="1">
      <path id="Path_59" data-name="Path 59" d="M44.89.12a14,14,0,0,0-6.83,2.64,14.19,14.19,0,0,0-3.53,3.51,8.54,8.54,0,0,0-.91,1.44C32.88,9,32.05,9,31.07,9.84c-5.83,5.14-6.14,13.43-1.74,18.5C33.19,32.8,40,34.17,44.75,31.09a5.33,5.33,0,0,1,4,0,12.08,12.08,0,0,0,7.42,1.62c8-.76,12.95-9.46,10.44-16.75a12.54,12.54,0,0,0-5-6.73c-2.11-1.43-.8.09-2.38-2.29-1.71-2.57-1.11-1.43-2.76-3.2a2.09,2.09,0,0,0-.68-.57c-.5-.35-.84-.65-1.38-1a14.83,14.83,0,0,0-9.54-2Zm7.24,29.63c.4-.3,1.69-.82,2.32-1.21a14.46,14.46,0,0,0,2-1.46,14.66,14.66,0,0,0,3.15-3.71c2.49-4.24,2.23-6.87,1.92-11.06,3,2.08,4.52,8.21,2.05,12.69s-8.43,6.34-11.4,4.75Zm-10.71,0c-2,.95-5,.39-6.9-.49A7.61,7.61,0,0,1,32,27.47c-6.13-6.35-1.85-14-.15-14.87-.42,4.74-.06,7.51,2.15,11.07a20.3,20.3,0,0,0,3.18,3.66,16.59,16.59,0,0,0,4.24,2.43Zm5.42-4.08-.51-.63c-2.35-4.2-.94-9.79.51-10.86,2.23,3,2.39,8.56,0,11.49ZM45,27.89c-1.67.44-4.59-1.27-5.82-2.23L37.8,24.38a12.52,12.52,0,0,1-3.4-11.95c.49-2.11.36-2.21,2.58-2.61a9.3,9.3,0,0,1,8.15,2.37c-1.35,1-2.58,5.39-2.57,7.83a13.45,13.45,0,0,0,1.63,6.25c.19.33.29.51.48.79.35.52.32.21.36.83Zm3.44-15.82c2.16-1.52,4.43-2.91,8.22-2.24.9.16,1.47.2,1.78.9,2,4.62.4,10.37-3,13.79C54,26.05,50.63,28.07,49,28c-.36,0-.25-.07-.42-.17,0-.46,4.2-5.43,1.68-12.27a16.42,16.42,0,0,0-1.81-3.45ZM37,7.26A10.82,10.82,0,0,1,40.88,4,12.21,12.21,0,0,1,52.47,4c1.07.55,3.47,2.28,3.93,3.27a13.43,13.43,0,0,0-5.79.7,18.27,18.27,0,0,0-3.91,2.32l-1.86-1.4A11.85,11.85,0,0,0,37,7.26Z" fill="#0196ff" fill-rule="evenodd"/>
      <path id="Path_60" data-name="Path 60" d="M23.69,62.57H26.3V58.38l.8,1.06c.27.4.51.68.77,1,1.69,2.28.85,2.14,3.15,2.12.83,0,.75,0,1.29-.41.33.51,0,.36.84.41a4.06,4.06,0,0,0,1.37-.13L35,60.82h3.56l.53,1.68,2.55.06-3.22-9.74H35.13l-3,9-.89-1c-.32-.41-.57-.73-.85-1.13s-.46-.63-.77-1a5.33,5.33,0,0,1-.8-1.18,12.361,12.361,0,0,1,.85-1.13l2.5-3.57h-3l-2.83,4.25-.06-4.24H23.72v9.77Zm11.86-3.69,1.25-4.23L38,58.91Z" fill="#0196ff" fill-rule="evenodd"/>
      <path id="Path_61" data-name="Path 61" d="M0,49.24c3.09.27,8.25.58,7.32-3.58-.26-1.18-.88-1.24-1.9-1.65.93-.39,1.48-.57,1.57-1.85.23-3.25-4.44-2.71-7-2.61v9.69Zm2.42-5.87V41.52C5.31,41.12,5.42,43.73,2.42,43.37Zm0,3.86.07-2c1.7-.08,2.7-.22,2.38,1.68a3.71,3.71,0,0,1-2.46.32Z" fill="#0196ff" fill-rule="evenodd"/>
      <path id="Path_62" data-name="Path 62" d="M31.52,49.28h2.54L34,42.8A19.581,19.581,0,0,0,36,46a27.55,27.55,0,0,1,2.19,3.23h2.62V39.47H38.34V45.9A44.23,44.23,0,0,0,34,39.53H31.58Z" fill="#0196ff" fill-rule="evenodd"/>
      <path id="Path_63" data-name="Path 63" d="M87,49.24h2.46V45.62a21.711,21.711,0,0,1,2,3.58h3L92,45.42c.52-.34,1.42-.4,1.86-1.78a3.66,3.66,0,0,0-.43-3c-1.18-1.45-4.31-1.22-6.38-1.07v9.69Zm2.42-5.18.09-2.44c1.17-.08,2.1.13,1.95,1.44-.09,1.04-1.06,1.17-2.01,1Z" fill="#0196ff" fill-rule="evenodd"/>
      <path id="Path_64" data-name="Path 64" d="M76.45,49.18l2.46.11.57-1.75h3.57l.5,1.76h2.59l-3.28-9.74H79.71l-3.26,9.65Zm3.6-3.54,1.26-4.32,1.23,4.32Z" fill="#0196ff" fill-rule="evenodd"/>
      <path id="Path_65" data-name="Path 65" d="M17.21,39.57H14.77c-.9,3.84,1.69,8.45-2.77,7.57-1.08-1.68-.38-5.2-.56-7.52H8.92a50.921,50.921,0,0,0,0,6.88c.3,2.25,1.6,3.07,4,3.14s3.88-.83,4.18-3a49.661,49.661,0,0,0,.11-7.07Z" fill="#0196ff" fill-rule="evenodd"/>
      <path id="Path_66" data-name="Path 66" d="M50.13,62.49h2.45V59.31c1.52.08,2.91.08,3.78-.77,1.24-1.21,1.45-5.25-1.81-5.67a26,26,0,0,0-4.41,0v9.62Zm2.44-5.32V54.92a3.33,3.33,0,0,1,2.09.41l-.09,1.43a3.16,3.16,0,0,1-2,.41Z" fill="#0196ff" fill-rule="evenodd"/>
      <path id="Path_67" data-name="Path 67" d="M42.74,49.2l5.81.09-.06-2.2-3.24-.01.01-1.62h3.09l-.01-2.13H45.33l-.08-1.62,3.29-.03-.05-2.16-5.71.01Z" fill="#0196ff" fill-rule="evenodd"/>
      <path id="Path_68" data-name="Path 68" d="M46.24,59.18c.33,2-1.57,1.74-2.45,1-.51-.43-.31-.44-1-.74l-1.07,2c1.32.69,1.35,1.42,3.66,1.32a3.2,3.2,0,0,0,3-1.88,3.331,3.331,0,0,0-.68-3.78c-1.04-.78-3.07-.43-3.08-2,1-1.2,1.85-.22,3,.15l.64-1.92c-2.18-1.33-5.09-1.09-5.86,1.14C41.12,58.29,44.61,57.89,46.24,59.18Z" fill="#0196ff" fill-rule="evenodd"/>
      <path id="Path_69" data-name="Path 69" d="M61.57,45.91v1c-1.38,1.11-2.56,0-3.4-.73-.38.6-1.06,1.4-1,2,.34.88,4.82,2.65,6.46-.42a3.63,3.63,0,0,0-.3-3.75c-.69-.72-2.49-.84-3.32-1.47-.21-2.21,2-.87,2.88-.55l.72-1.87c-2.06-1.25-5-1.28-5.86,1.06C56.38,44.81,59.93,44.7,61.57,45.91Z" fill="#0196ff" fill-rule="evenodd"/>
      <path id="Path_70" data-name="Path 70" d="M19.64,46.2l-.21.25a1.66,1.66,0,0,0-.17.24l-.77,1.43c2.53,2.3,5.77,1.7,6.66-.62,1.82-4.76-4.56-3.88-3.73-5.64.25-.53.71-.62,1.37-.49a3,3,0,0,1,.65.24l.81.43.7-1.83c-2.79-2.49-7.55.26-5.72,3.62.85,1.56,3.35,1.14,3.71,2.25s-1.21,2.05-2.72.57Z" fill="#0196ff" fill-rule="evenodd"/>
      <path id="Path_71" data-name="Path 71" d="M50.62,46.2l-.62.95a7.29,7.29,0,0,0-.5,1c1.64,1.53,3.92,1.93,5.44.9a4.21,4.21,0,0,0,1.16-1.38A3.18,3.18,0,0,0,55.51,44c-1.13-.87-2.66-.57-3.2-1.77.44-1.68,2-.49,2.82-.19L56,40.22c-1.22-1.16-4.88-1.66-5.86,1.09a3.48,3.48,0,0,0,.12,2.52c.9,1.56,3.38,1.16,3.72,2.23s-.41,1.44-1.33,1.35C51.5,47.3,51.22,46.55,50.62,46.2Z" fill="#0196ff" fill-rule="evenodd"/>
      <path id="Path_72" data-name="Path 72" d="M76.09,48.85l-.23-2.55-1,.65c-3.33,1.45-4.71-4.21-1.76-5.15,1.86-.6,2.2.67,3,.85V40a4.79,4.79,0,0,0-7.23,4.37,4.79,4.79,0,0,0,7.22,4.48Z" fill="#0196ff" fill-rule="evenodd"/>
      <path id="Path_73" data-name="Path 73" d="M64.86,62.51h2.49c.08-3.77-.44-3.88,1.36-6.62a28.61,28.61,0,0,0,1.88-3.08h-3L66.16,55.9c-.55-.89-1-2.16-1.6-3.07H61.62c.59,1.93,3.27,4,3.25,6.48C64.87,60.36,64.87,61.44,64.86,62.51Z" fill="#0196ff" fill-rule="evenodd"/>
      <path id="Path_74" data-name="Path 74" d="M26.88,49.23l2.63.03-.03-9.69-2.57-.04Z" fill="#0196ff" fill-rule="evenodd"/>
      <path id="Path_75" data-name="Path 75" d="M58.56,62.51l2.59.03V52.8l-2.58.03Z" fill="#0196ff" fill-rule="evenodd"/>
      <path id="Path_76" data-name="Path 76" d="M58.89,62.3l1.82.02.04-9.43-1.8-.02Z" fill="#0196ff" fill-rule="evenodd"/>
    </g>
  </g>
</svg>
