<svg xmlns="http://www.w3.org/2000/svg" width="117.658" height="63.545" viewBox="0 0 117.658 63.545"><defs><style>.a,.b{fill:#0196ff;}.a,.c{fill-rule:evenodd;}.c{fill:#212121;}</style></defs><g transform="translate(2123.356 1645)"><g transform="translate(-2123.356 -1645)"><path class="a" d="M53.637,21.474a30.339,30.339,0,0,1-.673,6.049,37.473,37.473,0,0,0-.718-8.6A36.239,36.239,0,0,0,48.8,9.638a38.714,38.714,0,0,0-3.372,9.282,43.072,43.072,0,0,0-.779,8.709,44.958,44.958,0,0,1-.556-8.42,38.008,38.008,0,0,1,1.23-7.646A43.272,43.272,0,0,1,48.8,3.15a36.611,36.611,0,0,1,3.573,8.269,36.472,36.472,0,0,1,1.269,10.056Zm-4.8,17.251a15.581,15.581,0,0,0,1.775-7.618A16.594,16.594,0,0,0,48.879,24.2a15.37,15.37,0,0,0-1.809,7.234,16.066,16.066,0,0,0,1.781,7.3Zm5.2-27.267A36.841,36.841,0,0,0,48.834,0a39.727,39.727,0,0,0-4.8,10.017,36.522,36.522,0,0,0-1.185,14.468,39.6,39.6,0,0,0,2.449,9.276,32.487,32.487,0,0,0,3.567,6.416,34.721,34.721,0,0,0,5.9-15.025,34.149,34.149,0,0,0-.735-13.689Z" transform="translate(-18.933)"/><path class="a" d="M32.271,57.142H22.021V64l.039-.028a6.178,6.178,0,0,1,8.72,8.753h0l-.028.028a12.343,12.343,0,0,1-18.92-15.648,12.894,12.894,0,0,1,1.491-1.836,12.393,12.393,0,0,1,8.748-3.617V35.15A21.992,21.992,0,1,0,38.125,72.172V57.148Z" transform="translate(-0.077 -15.59)"/><path class="a" d="M72.54,35.31h7.1V37.7H76.257V54.614H72.54Z" transform="translate(-32.216 -15.661)"/><path class="a" d="M85.44,54.614h3.65l.367-5.136h1.753l.328,5.136h3.639l-1.937-19.3H87.421Zm4.129-7.234L90.2,37.7h.211l.64,9.683Z" transform="translate(-37.937 -15.661)"/><path class="a" d="M109.582,47.837v3.628a.584.584,0,0,0,.556.651.618.618,0,0,0,.556-.651V46.98c0-.607-.1-1.269-1.486-1.269H107.7v-2.12h1.558c1.063,0,1.441-.25,1.441-1.425V38.322a.6.6,0,0,0-.556-.623.556.556,0,0,0-.556.623v3.155H105.87V38.756c0-1.369.15-3.456,2.749-3.456h3.094c2.6,0,2.749,2.087,2.749,3.456v3.088a2.31,2.31,0,0,1-2.521,2.61v.189a2.258,2.258,0,0,1,2.521,2.615v3.9c0,1.358-.15,3.456-2.749,3.456h-3.094c-2.6,0-2.749-2.1-2.749-3.456V47.815Z" transform="translate(-46.999 -15.656)"/><path class="a" d="M125.77,35.31h8.614v19.3h-3.745V37.7h-1.163V54.614H125.77Z" transform="translate(-55.825 -15.661)"/><path class="a" d="M145.65,54.614h3.717V48.048h2.126c2.61,0,2.782-2.1,2.782-3.456V38.76c0-1.369-.173-3.45-2.782-3.45H145.65Zm3.717-8.7V37.7h.473c.406,0,.69.367.69.952v6.288c0,.623-.284.974-.69.974Z" transform="translate(-64.642 -15.661)"/><path class="a" d="M165.522,51.154c0,1.358.161,3.456,2.782,3.456h3.038c2.615,0,2.782-2.1,2.782-3.456v-12.4c0-1.369-.156-3.456-2.782-3.456h-3.061c-2.6,0-2.782,2.087-2.782,3.456v12.4Zm4.886.312a.612.612,0,0,1-.556.651.556.556,0,0,1-.584-.651V38.322a.556.556,0,0,1,.584-.623.6.6,0,0,1,.556.623Z" transform="translate(-73.446 -15.656)"/><path class="a" d="M195.109,35.31h4.825v19.3h-3.717V42.5h-.122l-1.931,12.115h-2.983L189.272,42.5h-.117V54.614H185.41V35.31h4.852l2.432,13.55Z" transform="translate(-82.276 -15.661)"/><rect class="b" width="77.323" height="11.536" transform="translate(40.335 41.552)"/><path class="c" d="M79.226,85.784H77.5v-6.31H76.01V78.01H80.6v1.464H79.226Z" transform="translate(-33.755 -34.599)"/><path class="c" d="M95.16,81.339H95.5c.451,0,.9-.228.9-1.007s-.4-.952-.946-.952H95.16v1.959Zm0,4.418H93.29V78H96c1.113,0,2.276.4,2.276,2.371S97.1,82.747,96,82.747h-.84Z" transform="translate(-41.419 -34.595)"/><path class="c" d="M113.278,82.836l-.5-3.433-.484,3.433ZM113.934,78l1.7,7.791h-1.82l-.278-1.541h-1.447l-.228,1.541H110L111.669,78Z" transform="translate(-48.83 -34.595)"/><path class="c" d="M130.814,81.026h1.224V78.01h1.881v7.774h-1.881v-3.3h-1.224v3.3H128.95V78.01h1.864Z" transform="translate(-57.235 -34.599)"/><path class="c" d="M152.435,82.579v.729c0,1.764-.8,2.538-2.521,2.538s-2.554-.757-2.554-2.549V79.9c0-1.219.762-2.187,2.554-2.187s2.521,1,2.521,2.226v.556h-1.886v-.746a.64.64,0,0,0-.679-.612.6.6,0,0,0-.64.59v3.862c0,.556.267.824.64.824s.679-.206.679-.79V82.579Z" transform="translate(-65.4 -34.466)"/><path class="c" d="M170.332,78.01v1.464h-2.487v6.31H165.98V78.01Z" transform="translate(-73.659 -34.599)"/><path class="c" d="M184.392,82.836l-.5-3.433h-.033l-.49,3.433Zm.64-4.836,1.725,7.791h-1.809l-.289-1.541H183.24l-.273,1.541H181.12L182.789,78Z" transform="translate(-80.374 -34.595)"/><path class="c" d="M199.615,80.248a2.3,2.3,0,0,1,2.354-2.538,2.094,2.094,0,0,1,2.3,2.065,1.669,1.669,0,0,1-1.113,1.792h0c.8.289,1.347.612,1.347,2a2.165,2.165,0,0,1-2.471,2.282,2.251,2.251,0,0,1-2.465-2.51h1.714c0,.863.25,1.113.657,1.113.506,0,.684-.239.684-1.113,0-.735-.223-1.035-.812-1.035h-.278v-1.38h.5c.273,0,.556-.317.556-.868s-.178-.957-.612-.957-.64.356-.64,1.146Z" transform="translate(-88.557 -34.466)"/></g></g></svg>