<svg xmlns="http://www.w3.org/2000/svg" width="118.026" height="14.735" viewBox="0 0 118.026 14.735">
  <g id="kontrast" transform="translate(0 0.006)">
    <g id="_1" data-name="1" transform="translate(0 -0.006)">
      <path id="Path_48" data-name="Path 48" d="M8.371,5.719l4.935,6.2a8.079,8.079,0,0,0,1.806,1.787,2.2,2.2,0,0,0,1.162.333V14.4H8.959v-.361a1.9,1.9,0,0,0,.9-.222.463.463,0,0,0,.2-.389,3.874,3.874,0,0,0-.954-1.658L5.866,7.724l-.528.426V12a4.63,4.63,0,0,0,.12,1.389,1.088,1.088,0,0,0,.463.463,2.514,2.514,0,0,0,1.139.194v.361H0v-.361H.463a1.921,1.921,0,0,0,.986-.222.926.926,0,0,0,.4-.5A4.394,4.394,0,0,0,1.968,12V2.742a4.755,4.755,0,0,0-.116-1.384A1.023,1.023,0,0,0,1.389.895a1.815,1.815,0,0,0-.926-.2H0V.316H6.991V.677A2.315,2.315,0,0,0,5.9.886a1.023,1.023,0,0,0-.426.5,4.366,4.366,0,0,0-.12,1.343V7.122l5.236-4.213c.727-.6,1.088-1.083,1.088-1.44a.708.708,0,0,0-.463-.634A3.4,3.4,0,0,0,10.084.686V.316h5.5V.677a3.088,3.088,0,0,0-1.157.269A16.172,16.172,0,0,0,12.5,2.4L8.38,5.719ZM24.247.145a6.98,6.98,0,0,1,7.57,7.176,7.519,7.519,0,0,1-1.565,4.713,7.008,7.008,0,0,1-5.871,2.695A7.075,7.075,0,0,1,18.52,12.15a7.445,7.445,0,0,1-1.644-4.82,7,7,0,0,1,2.107-5.218A6.811,6.811,0,0,1,24.247.145ZM24.372.8a3.183,3.183,0,0,0-2.949,1.972A10.407,10.407,0,0,0,20.6,7.4a9.007,9.007,0,0,0,1.273,5.32,2.9,2.9,0,0,0,2.477,1.2,3,3,0,0,0,1.792-.5A4.227,4.227,0,0,0,27.567,11.3a11.644,11.644,0,0,0,.514-3.8,12.538,12.538,0,0,0-.523-4.167,4,4,0,0,0-1.329-1.954A3.144,3.144,0,0,0,24.377.811ZM37.859.339,44.8,9.067V2.992a2.879,2.879,0,0,0-.366-1.727A2,2,0,0,0,42.762.677V.316H47.42V.677a3.676,3.676,0,0,0-1.2.3,1.259,1.259,0,0,0-.463.6,4.1,4.1,0,0,0-.171,1.421V14.724h-.347L35.706,2.978V11.96a1.987,1.987,0,0,0,.556,1.653,2.037,2.037,0,0,0,1.278.431h.333V14.4h-5v-.361a2.273,2.273,0,0,0,1.625-.463,2.283,2.283,0,0,0,.463-1.6V2l-.292-.366a2.75,2.75,0,0,0-.815-.755,2.384,2.384,0,0,0-.982-.2V.316Zm23.478,0V4.117h-.361a6.056,6.056,0,0,0-.741-1.889A2.778,2.778,0,0,0,59.124,1.3a3.514,3.514,0,0,0-1.389-.19H56.67v10.88a4.519,4.519,0,0,0,.12,1.361,1.093,1.093,0,0,0,.463.463,1.852,1.852,0,0,0,.926.2h.463v.361H51.327v-.361h.463a1.884,1.884,0,0,0,.977-.222,1,1,0,0,0,.421-.5,4.394,4.394,0,0,0,.116-1.32V1.122H52.281a2.94,2.94,0,0,0-2.051.6,3.959,3.959,0,0,0-1.153,2.394h-.4V.316Zm6.417,7.672v3.972a4.371,4.371,0,0,0,.139,1.435,1.028,1.028,0,0,0,.5.463,3.371,3.371,0,0,0,1.32.176v.361H62.5v-.361a3.241,3.241,0,0,0,1.324-.181,1.06,1.06,0,0,0,.491-.463,4.333,4.333,0,0,0,.139-1.431V2.775a4.352,4.352,0,0,0-.139-1.435,1.009,1.009,0,0,0-.5-.463,3.371,3.371,0,0,0-1.32-.2V.316h6.547a14.246,14.246,0,0,1,3.736.352,3.746,3.746,0,0,1,1.931,1.31,3.491,3.491,0,0,1,.75,2.232,3.32,3.32,0,0,1-1.125,2.574,4.537,4.537,0,0,1-2,.968l3.375,4.773a7.5,7.5,0,0,0,.949,1.148,1.806,1.806,0,0,0,1,.347V14.4H73.222L68.676,7.988Zm0-6.885V7.242h.593a6.8,6.8,0,0,0,2.162-.259,2.195,2.195,0,0,0,1.125-.968,3.468,3.468,0,0,0,.412-1.792,3.257,3.257,0,0,0-.755-2.371,3.3,3.3,0,0,0-2.426-.764Zm18.52,9.283.769,1.759c.194.463.3.727.315.787a1.357,1.357,0,0,1,.06.394.546.546,0,0,1-.227.463,2.079,2.079,0,0,1-1.153.236H85.76v.361h6.806v-.361a1.625,1.625,0,0,1-1-.38,7.241,7.241,0,0,1-1.2-2.1L85.288.038h-.2L80.061,11.261a8.4,8.4,0,0,1-1.2,2.148,2.111,2.111,0,0,1-1.245.634V14.4h4.681v-.361a4.121,4.121,0,0,1-1.389-.25.972.972,0,0,1-.463-.889,3.107,3.107,0,0,1,.292-1.144l.611-1.389Zm-.333-.764H81.69l2.153-4.8ZM102.784,0l.106,4.695h-.426a4.787,4.787,0,0,0-1.482-2.843A3.736,3.736,0,0,0,98.428.774a2.361,2.361,0,0,0-1.662.574,1.7,1.7,0,0,0-.62,1.3,1.621,1.621,0,0,0,.218.833,3.588,3.588,0,0,0,.968.963,21.4,21.4,0,0,0,2.25,1.213,10.088,10.088,0,0,1,3.338,2.292,3.861,3.861,0,0,1,.852,2.468,3.986,3.986,0,0,1-1.389,3.033,4.954,4.954,0,0,1-3.5,1.273,5.769,5.769,0,0,1-1.259-.134,8.8,8.8,0,0,1-1.486-.514,2.315,2.315,0,0,0-.824-.2,1.019,1.019,0,0,0-.569.208,1.51,1.51,0,0,0-.463.644h-.361V9.409h.361a6.112,6.112,0,0,0,1.759,3.417A4.134,4.134,0,0,0,98.854,14a2.639,2.639,0,0,0,1.852-.634,1.931,1.931,0,0,0,.69-1.472,1.954,1.954,0,0,0-.264-.968,3.153,3.153,0,0,0-.806-.889,12.288,12.288,0,0,0-1.912-1.093A16.088,16.088,0,0,1,95.636,7.34a5.014,5.014,0,0,1-1.287-1.486,3.676,3.676,0,0,1-.463-1.806,3.806,3.806,0,0,1,1.236-2.866A4.3,4.3,0,0,1,98.247,0a5.5,5.5,0,0,1,1.329.162,6.945,6.945,0,0,1,1.19.463,2.81,2.81,0,0,0,.982.333.551.551,0,0,0,.426-.167A1.884,1.884,0,0,0,102.46,0Zm15.242.319v3.8h-.361a6.07,6.07,0,0,0-.736-1.889,2.833,2.833,0,0,0-1.111-.926,3.542,3.542,0,0,0-1.389-.19h-1.06v10.88a4.579,4.579,0,0,0,.116,1.361,1.093,1.093,0,0,0,.463.463,1.852,1.852,0,0,0,.926.2h.463v.361h-7.325v-.361h.463a1.852,1.852,0,0,0,.977-.222.977.977,0,0,0,.421-.5,4.236,4.236,0,0,0,.116-1.32V1.122H108.97a2.954,2.954,0,0,0-2.056.6,4.01,4.01,0,0,0-1.134,2.394h-.4V.316Z" transform="translate(0 0.006)" fill="#0196ff" fill-rule="evenodd"/>
    </g>
  </g>
</svg>
