<svg xmlns="http://www.w3.org/2000/svg" width="60.347" height="46.7" viewBox="0 0 60.347 46.7">
  <g id="sushi" transform="translate(0.019)">
    <g id="_1" data-name="1" transform="translate(-0.019 0)">
      <path id="Path_49" data-name="Path 49" d="M29.793,23.838a45.025,45.025,0,0,1-6.735-21.9A2.03,2.03,0,0,0,21.037,0H10a42.455,42.455,0,0,0,5.865,21.606c.073.129.153.25.234.379l.169.282.4.644.1.169c.524.806,1.071,1.611,1.651,2.417a42.535,42.535,0,0,0,4.463,5.116,1.764,1.764,0,0,0,.314.234,2.022,2.022,0,0,0,2.5-.266,42.938,42.938,0,0,0,3.955-4.423,2.014,2.014,0,0,0,.129-2.3Z" transform="translate(-1.928 0)" fill="#0196ff" fill-rule="evenodd"/>
      <path id="Path_50" data-name="Path 50" d="M49.223,23.838a45.033,45.033,0,0,1-6.767-21.9A2.014,2.014,0,0,0,40.434,0H31.451a2.03,2.03,0,0,0-2.022,2.127A42.535,42.535,0,0,0,42.271,30.564a2.038,2.038,0,0,0,2.844,0,42.938,42.938,0,0,0,3.955-4.423,2.03,2.03,0,0,0,.153-2.3Z" transform="translate(-5.705 0)" fill="#0196ff" fill-rule="evenodd"/>
      <path id="Path_51" data-name="Path 51" d="M52.771,46.953l-2.28,5.526L48.34,46.55l-2.256,5.929-2.151-5.526H42.58l3.512,8.8,2.215-5.865,2.127,5.857,3.7-8.789Z" transform="translate(-8.262 -9.05)" fill="#0196ff" fill-rule="evenodd"/>
      <path id="Path_52" data-name="Path 52" d="M60.242,46.85a4.2,4.2,0,0,0-3.061,1.257,4.27,4.27,0,0,0,.121,6.211,4.391,4.391,0,0,0,5.969-.1,4.084,4.084,0,0,0,1.273-3.029,4.334,4.334,0,0,0-4.3-4.3Zm2.183,6.509a3,3,0,0,1-2.2.9,2.948,2.948,0,0,1-2.143-.846,3.182,3.182,0,0,1,0-4.455,3.093,3.093,0,0,1,4.35,0,3.222,3.222,0,0,1,0,4.439Z" transform="translate(-10.852 -9.108)" fill="#0196ff" fill-rule="evenodd"/>
      <path id="Path_53" data-name="Path 53" d="M69.643,50.788l3.738-3.738h-1.66L68.5,50.345V47.05H67.25v8.265H68.5V51.892l.258-.258,2.973,3.682H73.4Z" transform="translate(-13.058 -9.147)" fill="#0196ff" fill-rule="evenodd"/>
      <path id="Path_54" data-name="Path 54" d="M61.791,0H50.851a2.022,2.022,0,0,0-2.022,2.127,42.519,42.519,0,0,0,4.64,17.353,2.03,2.03,0,0,0,3.617,0l.145-.29.073-.121A42.527,42.527,0,0,0,61.791,0Z" transform="translate(-9.477 0)" fill="#0196ff" fill-rule="evenodd"/>
      <path id="Path_55" data-name="Path 55" d="M28.353,54.139H25.525V47.05H24.276v7.089H21.441V47.05H20.2v8.265h9.4V47.05H28.353Z" transform="translate(-3.911 -9.147)" fill="#0196ff" fill-rule="evenodd"/>
      <path id="Path_56" data-name="Path 56" d="M34.169,52.658V46.914H32.92v8.765l6.034-6.292v5.792H40.2V46.35Z" transform="translate(-6.384 -9.011)" fill="#0196ff" fill-rule="evenodd"/>
      <path id="Path_57" data-name="Path 57" d="M13.345,51.827,10.582,47.05H9.14l3.48,6.026-1.289,2.24h1.442l.572-.991.717-1.249,3.48-6.026H16.108Z" transform="translate(-1.761 -9.147)" fill="#0196ff" fill-rule="evenodd"/>
      <path id="Path_58" data-name="Path 58" d="M6.489,53.363a3,3,0,0,1-2.2.9,2.948,2.948,0,0,1-2.111-.846,3.182,3.182,0,0,1,0-4.455,2.932,2.932,0,0,1,2.175-.894,2.932,2.932,0,0,1,2.175.894h0l.806-.846A4.141,4.141,0,0,0,4.322,46.87a4.2,4.2,0,0,0-3.061,1.257,4.266,4.266,0,0,0,3,7.315,4.254,4.254,0,0,0,3.1-1.216l-.846-.886h0Z" transform="translate(0.019 -9.112)" fill="#0196ff" fill-rule="evenodd"/>
    </g>
  </g>
</svg>
