<!DOCTYPE svg PUBLIC "-//W3C//DTD SVG 20010904//EN" "http://www.w3.org/TR/2001/REC-SVG-20010904/DTD/svg10.dtd">
<svg version="1.0" xmlns="http://www.w3.org/2000/svg" width="1600px" height="1067px" viewBox="0 0 16000 10670" preserveAspectRatio="xMidYMid meet">
<g id="layer101" fill="#304f40" stroke="none">
 <path d="M0 5335 l0 -5335 8000 0 8000 0 0 5335 0 5335 -8000 0 -8000 0 0 -5335z"/>
 </g>
<g id="layer102" fill="#779366" stroke="none">
 <path d="M3006 9211 c-4 -6 -4 -16 -1 -22 10 -16 117 -62 143 -60 26 1 29 -11 7 -29 -13 -10 -19 -10 -33 4 -10 8 -34 19 -53 22 -19 4 -42 11 -52 16 -26 13 -77 -9 -77 -33 0 -14 7 -19 25 -19 14 0 28 -6 31 -14 3 -8 18 -16 33 -19 29 -6 61 -31 61 -47 0 -5 -17 -8 -37 -7 -28 1 -39 7 -44 22 -7 26 -48 22 -112 -11 l-47 -24 -39 24 c-22 14 -42 30 -46 36 -4 6 -15 8 -26 5 -14 -5 -22 0 -30 19 -12 25 -45 41 -55 25 -3 -5 -14 -9 -25 -9 -14 0 -19 -7 -19 -28 0 -22 7 -32 34 -44 23 -11 35 -25 39 -45 7 -37 64 -93 94 -93 13 0 23 -5 23 -10 0 -6 12 -15 28 -21 26 -11 26 -11 6 -19 -12 -5 -25 -13 -28 -19 -4 -6 -13 -8 -21 -5 -18 7 -55 -13 -55 -31 0 -8 9 -19 19 -25 11 -5 21 -20 23 -32 2 -15 11 -24 27 -26 23 -4 24 -2 17 37 -5 35 -4 41 11 41 10 0 29 9 43 20 34 26 42 25 62 -10 13 -23 24 -30 47 -30 27 0 71 -37 71 -60 0 -4 -21 -5 -47 -3 -42 4 -51 2 -72 -21 -23 -24 -23 -27 -8 -44 10 -10 17 -26 17 -34 0 -9 8 -19 18 -22 9 -4 41 -19 70 -35 48 -27 51 -30 36 -45 -9 -9 -14 -25 -11 -36 6 -24 -22 -36 -41 -16 -13 12 -20 11 -61 -11 -25 -14 -47 -27 -49 -28 -2 -1 7 -19 19 -39 17 -29 29 -37 61 -42 43 -7 57 -26 38 -49 -17 -20 -7 -31 46 -49 34 -12 51 -13 66 -5 14 8 23 8 31 0 6 -6 9 -12 6 -13 -2 -2 -17 -11 -34 -20 -16 -9 -31 -26 -33 -37 -2 -12 -7 -21 -12 -21 -4 0 -10 -9 -13 -20 -4 -16 -11 -19 -30 -15 -28 7 -45 -9 -24 -22 18 -10 31 -79 17 -88 -17 -11 -11 -44 11 -56 17 -8 36 -8 81 1 32 7 61 17 64 21 6 11 64 12 64 2 0 -9 -49 -33 -67 -33 -7 0 -17 -9 -23 -19 -13 -25 -13 -31 3 -31 6 -1 23 -10 36 -20 l23 -20 -22 -18 c-20 -16 -21 -19 -6 -31 18 -15 22 -56 6 -66 -16 -10 -3 -22 31 -29 36 -7 54 0 41 17 -5 7 -11 24 -14 38 -4 24 -1 27 64 46 l69 20 14 -26 c22 -44 30 -102 14 -112 -10 -6 -20 -1 -31 14 -18 22 -18 22 -24 1 -8 -31 -66 -49 -101 -31 -31 16 -111 9 -136 -12 -8 -6 -21 -9 -30 -5 -8 3 -18 0 -22 -6 -4 -7 2 -14 14 -17 27 -7 26 -15 -4 -63 -19 -29 -33 -41 -60 -46 -25 -4 -35 -11 -35 -25 0 -22 28 -25 111 -9 58 11 88 -2 75 -35 -5 -14 -21 -16 -113 -13 l-108 3 3 -32 c2 -17 -1 -34 -7 -38 -16 -9 -13 -25 4 -25 8 0 15 6 15 14 0 19 18 24 58 19 19 -3 32 -11 32 -20 0 -8 -8 -13 -17 -11 -11 2 -22 -6 -28 -19 -5 -13 -19 -23 -30 -23 -12 0 -27 -6 -34 -12 -10 -10 -15 -10 -18 -1 -2 6 -17 30 -34 52 -25 35 -35 41 -65 41 -20 0 -34 3 -32 8 2 4 14 24 27 45 18 29 26 35 32 25 7 -11 11 -10 18 2 6 9 6 19 0 27 -14 16 -3 33 20 33 32 0 59 41 60 93 0 41 -2 47 -21 47 -17 0 -20 -4 -15 -29 7 -34 -20 -53 -39 -27 -16 22 -41 20 -49 -3 -3 -11 -15 -23 -26 -26 -27 -9 -24 -33 6 -47 33 -15 32 -30 -1 -26 -18 2 -30 -3 -38 -17 -17 -31 -28 -35 -83 -28 -48 5 -51 4 -55 -18 -3 -21 -7 -23 -44 -21 -46 4 -59 -7 -50 -42 5 -21 12 -23 62 -23 50 0 58 3 77 28 22 31 67 40 67 15 0 -8 -4 -18 -10 -21 -17 -11 -11 -37 11 -42 31 -8 3 -23 -43 -23 -33 0 -38 -3 -37 -22 1 -17 2 -19 6 -5 5 21 17 22 32 3 18 -21 3 -45 -26 -43 -20 2 -28 -4 -34 -25 -14 -51 44 -66 68 -18 12 23 13 23 13 4 0 -25 -39 -64 -65 -64 -10 0 -26 7 -34 15 -13 11 -25 12 -61 3 -25 -6 -50 -17 -56 -24 -17 -21 -33 -17 -27 7 3 12 19 26 34 31 l29 10 -22 18 c-21 17 -21 19 -5 43 15 23 15 26 -3 42 -12 11 -20 13 -20 7 0 -19 -57 -14 -64 4 -4 11 -13 14 -28 11 -24 -7 -48 8 -48 29 0 8 16 16 42 20 24 4 52 17 66 31 13 13 27 21 32 18 12 -8 23 13 16 32 -5 12 -9 13 -21 3 -11 -9 -15 -9 -15 -1 0 6 -12 16 -27 21 -16 6 -37 14 -48 19 -11 5 -32 13 -47 20 -18 6 -28 18 -28 30 0 25 -40 65 -53 52 -5 -5 -4 -18 3 -31 8 -15 8 -25 1 -34 -13 -16 -5 -43 22 -73 18 -20 18 -23 3 -38 -9 -9 -16 -22 -16 -28 0 -7 -11 1 -23 17 -17 20 -26 26 -31 17 -4 -6 -2 -19 5 -27 15 -18 25 -104 12 -104 -5 0 -14 5 -20 11 -15 15 -58 7 -58 -11 0 -9 11 -16 28 -18 34 -4 31 -26 -4 -30 -13 -2 -28 -8 -34 -13 -5 -5 -24 -9 -43 -9 -29 0 -33 3 -27 21 5 15 2 22 -14 26 -12 3 -21 9 -21 14 0 5 -7 9 -15 9 -18 0 -19 -12 -3 -28 9 -9 9 -15 0 -24 -9 -9 -15 -9 -24 0 -7 7 -20 12 -30 12 -10 0 -18 5 -18 10 0 6 -9 10 -20 10 -37 0 -22 -34 32 -69 39 -26 55 -31 67 -24 13 8 20 4 34 -20 13 -20 15 -32 8 -37 -8 -4 -5 -13 9 -25 21 -19 27 -45 10 -45 -5 0 -10 4 -10 9 0 13 -53 21 -67 9 -9 -7 -15 -5 -19 7 -4 10 -1 20 6 25 10 6 8 10 -7 18 -15 8 -23 8 -32 -1 -9 -9 -14 -9 -20 1 -4 7 -32 15 -62 18 -63 6 -74 13 -56 38 13 17 15 18 39 2 30 -19 38 -13 38 30 0 41 -14 50 -46 29 -43 -28 -55 -16 -32 33 21 44 19 63 -5 44 -15 -13 -49 -17 -117 -14 -48 2 -46 9 13 40 l39 20 -21 21 c-13 13 -34 21 -55 21 -39 0 -53 14 -36 35 9 11 17 12 31 4 16 -8 21 -5 31 16 13 30 21 31 39 6 15 -20 89 -39 89 -23 0 6 -7 12 -15 16 -8 3 -15 15 -15 26 0 12 -10 25 -24 31 -15 7 -22 17 -19 28 5 20 -43 43 -74 35 -29 -8 -30 10 -3 33 11 10 20 28 20 40 0 15 5 21 14 17 20 -8 56 13 56 32 0 21 -30 64 -45 64 -8 0 -15 -12 -17 -27 -2 -22 -8 -27 -23 -25 -11 2 -24 5 -29 5 -6 1 -9 -16 -7 -39 l2 -40 -50 -1 c-37 0 -51 3 -51 13 0 8 -3 14 -6 14 -11 0 -50 -23 -71 -43 -20 -18 -26 -19 -48 -7 -35 19 -41 7 -15 -29 14 -20 30 -31 46 -31 14 0 24 -6 24 -14 0 -27 -21 -28 -45 -2 -27 29 -47 33 -64 12 -17 -20 20 -56 57 -56 27 0 62 -26 62 -46 0 -5 20 -35 45 -66 32 -41 41 -59 32 -66 -19 -15 -79 -23 -111 -14 l-29 8 33 37 c25 29 30 41 21 50 -9 9 -16 8 -32 -1 -12 -8 -45 -13 -75 -13 -40 0 -54 -4 -54 -15 0 -8 -10 -14 -23 -14 -19 0 -25 -8 -33 -37 -7 -31 -14 -39 -39 -43 -33 -6 -127 -49 -107 -50 23 0 12 -31 -18 -48 -17 -9 -33 -25 -36 -35 -9 -27 -39 -39 -54 -22 -7 8 -19 15 -26 15 -19 0 -18 40 1 67 8 12 28 24 44 28 35 7 58 31 63 64 5 37 28 39 28 2 0 -23 4 -29 15 -25 18 7 20 31 4 36 -18 6 0 48 25 58 21 8 26 34 13 70 -3 8 -8 22 -11 30 -3 11 -6 9 -11 -7 -4 -13 -12 -23 -19 -23 -6 0 -22 -9 -35 -19 -25 -19 -48 -17 -66 6 -7 9 -21 11 -42 7 -26 -5 -40 -18 -68 -63 -35 -56 -39 -47 -12 31 16 45 61 98 84 98 10 0 26 7 36 14 16 12 16 14 1 20 -24 9 -72 7 -79 -4 -12 -20 -26 -9 -23 18 3 23 8 28 43 32 22 3 46 9 53 13 20 13 14 27 -13 27 -27 0 -32 9 -14 27 8 8 8 13 0 17 -16 10 -31 -2 -31 -23 0 -19 -52 -37 -71 -25 -19 11 -8 26 15 20 28 -7 42 7 23 22 -6 5 -29 15 -49 23 -21 7 -38 16 -38 21 0 4 11 18 25 32 14 14 25 32 25 41 0 8 4 15 9 15 17 0 32 61 20 77 -7 7 -9 16 -6 20 8 8 -12 33 -25 33 -6 0 -7 -11 -4 -25 7 -26 8 -26 -59 -29 -16 -1 -20 -7 -18 -33 2 -17 -2 -35 -7 -38 -6 -3 -10 -17 -10 -30 0 -13 -5 -27 -10 -30 -6 -3 -10 -23 -10 -44 0 -30 -4 -40 -19 -44 -26 -6 -33 1 -20 25 7 13 7 23 0 32 -6 7 -8 15 -5 18 3 3 -8 20 -24 37 -20 22 -41 34 -67 37 -20 2 -46 9 -56 15 -22 11 -39 4 -39 -16 0 -14 -29 -35 -49 -35 -17 0 -13 30 7 48 10 10 13 14 7 10 -5 -3 -21 -8 -35 -10 -19 -2 -26 -10 -28 -31 -2 -20 -8 -27 -17 -23 -24 9 -29 -16 -7 -33 12 -9 25 -31 28 -48 6 -29 4 -33 -14 -33 -23 0 -72 -40 -72 -59 0 -6 8 -11 18 -11 28 0 34 -11 15 -32 -13 -15 -14 -24 -6 -52 12 -39 8 -47 -29 -63 -17 -8 -28 -20 -28 -32 0 -18 -6 -19 -59 -15 -59 4 -59 4 -70 -27 -6 -18 -11 -54 -11 -80 0 -90 -33 -125 -74 -80 -10 11 -31 23 -47 26 -29 7 -37 19 -19 30 5 3 10 15 10 26 0 16 3 18 19 9 29 -15 91 -13 91 4 0 24 -27 38 -60 31 -25 -5 -29 -4 -24 9 8 21 -22 32 -41 16 -21 -18 -40 -2 -22 18 24 27 29 58 13 71 -21 18 -36 5 -36 -30 0 -16 -4 -37 -9 -47 -30 -58 -31 -171 -31 -3725 l0 -3587 8000 0 8000 0 0 2798 c0 1538 -3 2807 -6 2820 -8 30 -24 28 -24 -3 0 -18 -5 -25 -20 -25 -10 0 -24 -9 -30 -19 -6 -13 -17 -17 -30 -14 -28 8 -80 -16 -80 -37 0 -20 95 -84 115 -77 24 10 -3 -49 -28 -60 -62 -28 -91 -33 -100 -18 -4 8 -19 15 -32 15 -20 0 -25 -5 -25 -25 0 -14 3 -26 8 -26 4 -1 18 -3 32 -4 94 -11 150 -37 150 -72 0 -24 -2 -25 -37 -17 -49 10 -83 8 -95 -4 -14 -14 -1 -32 23 -32 25 0 24 -8 -3 -29 -26 -22 -15 -45 18 -38 16 3 24 0 24 -9 0 -8 -4 -14 -8 -14 -5 0 -18 -14 -31 -31 -17 -23 -20 -33 -11 -44 6 -8 10 -24 7 -37 l-4 -23 -8 23 c-10 32 -36 24 -52 -15 l-13 -33 45 -20 c49 -22 59 -40 22 -40 -30 0 -47 -18 -47 -49 0 -13 -8 -33 -17 -43 -19 -21 -27 -134 -11 -144 11 -7 -46 -64 -64 -64 -8 0 -20 6 -27 13 -10 10 -15 8 -27 -8 -8 -11 -13 -30 -11 -42 5 -29 -39 -51 -60 -30 -13 12 -10 15 15 20 30 6 30 7 21 48 -5 23 -16 51 -24 62 -12 17 -12 22 6 36 14 12 21 34 25 86 12 129 11 139 -10 143 -11 2 -25 -3 -31 -12 -9 -11 -21 -14 -41 -10 -26 5 -29 9 -28 45 1 22 9 47 18 57 23 26 20 57 -6 76 -23 15 -23 16 -3 31 20 16 19 17 -14 45 l-34 29 39 6 c68 11 84 24 84 66 0 43 -17 60 -35 36 -23 -32 -112 -21 -194 22 -26 13 -37 39 -23 53 10 10 17 10 32 0 24 -14 54 -15 78 -3 9 6 30 12 45 16 19 4 27 11 25 22 -5 25 -64 34 -126 21 -48 -10 -54 -10 -72 10 -11 11 -28 23 -40 27 -24 8 -27 28 -2 21 49 -13 81 -16 86 -7 4 5 -2 14 -12 20 -20 11 -26 49 -10 68 14 17 54 17 61 -1 6 -14 30 -22 116 -36 85 -14 114 14 72 70 -15 18 -22 21 -33 13 -13 -12 -61 -11 -135 2 -36 6 -43 11 -43 30 0 23 -24 40 -41 29 -5 -3 -9 -12 -9 -20 0 -8 -4 -14 -9 -14 -5 0 -16 -3 -25 -6 -13 -5 -15 -1 -10 24 5 25 2 33 -18 44 -37 20 -91 86 -84 103 8 21 20 19 55 -11 17 -14 38 -24 45 -21 8 3 20 -1 26 -8 7 -8 16 -13 20 -10 5 3 29 -2 54 -10 26 -9 51 -13 56 -10 17 10 11 51 -10 70 -26 23 -25 41 1 56 34 18 7 33 -66 34 -52 1 -68 6 -80 21 -17 23 -19 40 -4 50 16 9 -10 24 -43 24 -28 0 -39 22 -18 35 15 9 2 25 -21 25 -10 0 -19 4 -19 9 0 5 -8 17 -17 27 -28 28 -22 124 8 124 5 0 9 -6 9 -14 0 -17 25 -27 46 -19 11 4 14 14 10 34 -3 18 0 32 10 40 8 7 14 22 12 33 -3 21 -14 23 -70 12 -26 -5 -26 -4 -21 29 7 42 -4 44 -82 17 -46 -16 -50 -20 -53 -52 -2 -19 -10 -42 -18 -50 -13 -13 -15 -12 -20 8 -9 33 -31 27 -31 -10 0 -21 -7 -36 -21 -46 -28 -18 -28 -42 -1 -42 12 0 27 -7 34 -16 10 -15 13 -15 27 0 24 23 31 20 52 -24 l19 -40 -23 -25 c-20 -21 -21 -27 -9 -41 10 -12 23 -14 50 -10 23 4 40 2 44 -5 10 -15 3 -19 -46 -22 -34 -1 -46 -7 -54 -24 -10 -24 -41 -32 -119 -34 -28 -1 -62 -4 -76 -8 -15 -5 -33 -2 -45 5 -25 16 -51 3 -41 -21 5 -13 14 -16 36 -11 17 3 30 1 30 -4 0 -5 14 -24 30 -42 17 -18 30 -37 30 -42 0 -14 -33 -35 -56 -36 -26 0 -58 -34 -51 -54 9 -22 54 -31 84 -17 22 10 30 8 58 -14 19 -14 47 -25 64 -25 17 0 31 -3 31 -7 0 -17 -18 -34 -31 -31 -8 1 -29 -4 -48 -11 -27 -12 -39 -12 -68 -2 -23 9 -38 10 -45 3 -18 -18 -4 -46 28 -54 30 -8 72 -43 62 -53 -2 -3 -30 2 -62 10 -31 8 -68 15 -81 15 -30 0 -32 14 -4 33 39 28 7 90 -37 73 -26 -10 -28 -9 -29 16 0 29 -32 36 -51 11 -10 -13 -13 -14 -9 -2 8 21 -19 42 -58 44 -18 2 -40 6 -50 10 -22 9 -51 -13 -38 -29 5 -6 11 -29 13 -51 l3 -40 71 3 c46 3 74 0 79 -7 4 -7 15 -9 26 -6 15 5 19 1 19 -19 0 -22 -5 -26 -28 -26 -15 0 -33 5 -39 11 -7 7 -31 12 -55 12 -23 0 -53 7 -66 15 -18 12 -28 13 -48 3 -21 -9 -25 -17 -22 -44 2 -24 8 -33 24 -35 11 -2 26 4 33 12 10 12 16 12 41 -1 33 -16 39 -43 14 -63 -23 -20 -35 -47 -28 -64 7 -18 97 -46 149 -46 20 0 44 -7 53 -16 11 -11 27 -15 52 -11 20 2 49 -1 66 -8 l29 -12 -28 -14 c-20 -9 -34 -10 -45 -3 -9 6 -35 11 -57 13 -22 1 -43 7 -47 14 -4 7 -27 11 -54 9 -37 -1 -53 3 -71 20 -18 17 -25 19 -37 9 -8 -7 -20 -10 -26 -6 -5 3 -14 -5 -19 -19 -6 -13 -19 -27 -30 -31 -16 -5 -21 -15 -21 -41 0 -37 10 -41 56 -24 15 6 35 8 43 4 9 -4 33 -8 53 -8 29 -2 43 4 59 22 28 32 34 22 13 -22 -20 -40 -17 -39 -150 -36 -78 2 -92 -1 -98 -15 -3 -10 0 -28 9 -41 9 -14 11 -25 5 -29 -18 -11 -12 -55 8 -56 31 -1 77 -34 91 -66 9 -21 28 -36 64 -51 28 -12 48 -24 45 -27 -2 -3 -38 4 -79 14 -65 16 -75 22 -79 44 -3 14 -18 36 -35 48 -16 13 -36 32 -44 42 -16 22 -49 17 -93 -14 -36 -26 -35 -38 2 -46 17 -3 33 -10 36 -14 3 -5 23 -9 44 -9 41 0 59 -15 41 -33 -19 -19 -12 -36 25 -53 20 -9 38 -23 41 -31 3 -7 9 -10 15 -7 5 3 24 8 41 10 18 2 49 5 70 8 20 3 37 1 37 -3 0 -12 -22 -28 -40 -29 -90 -3 -102 -6 -112 -28 -9 -19 -16 -22 -39 -17 -24 4 -29 2 -29 -14 0 -10 5 -24 12 -31 9 -9 9 -15 0 -24 -8 -8 -15 -9 -22 -2 -6 6 -32 9 -59 6 -50 -4 -74 9 -52 31 7 7 16 6 29 -6 24 -22 35 -21 58 4 16 17 16 22 4 29 -28 18 -82 23 -90 10 -6 -10 -17 -6 -45 18 -21 19 -47 32 -63 32 -39 1 -98 51 -87 76 6 15 8 16 13 4 8 -23 35 -40 55 -34 10 3 20 -1 23 -10 7 -19 31 -21 37 -3 3 9 9 9 28 0 13 -7 35 -13 49 -15 16 -2 26 -11 30 -26 7 -33 23 -32 35 2 8 25 7 31 -13 44 -12 8 -22 20 -22 27 0 7 -20 24 -44 38 -38 21 -46 23 -58 10 -21 -20 -100 -7 -94 16 8 26 -20 64 -55 76 -19 7 -34 18 -34 26 0 21 83 12 118 -13 21 -15 34 -17 53 -11 l26 9 -50 52 c-28 29 -56 52 -63 52 -7 0 -4 8 9 20 26 24 94 27 112 5 17 -21 37 -19 50 5 8 15 6 24 -10 40 -20 20 -36 26 -110 38 -35 6 -46 12 -48 29 -2 14 4 23 17 28 28 9 38 52 18 72 -9 9 -33 17 -54 18 -32 2 -38 6 -38 26 0 18 -6 25 -25 27 -37 6 -50 21 -50 58 l0 33 25 -24 c26 -27 54 -32 73 -13 8 8 15 8 26 -2 13 -10 17 -9 22 4 8 20 34 21 34 1 0 -8 11 -25 24 -38 l24 -24 18 32 c24 45 13 89 -22 82 -16 -3 -28 1 -34 12 -5 10 -25 17 -52 19 -24 2 -65 5 -93 7 -27 3 -75 9 -105 15 -30 6 -70 13 -88 16 -37 6 -35 19 4 28 15 4 35 17 44 29 l18 22 12 -26 c10 -22 21 -27 63 -32 43 -6 53 -4 64 13 19 26 35 25 71 -5 26 -22 33 -24 61 -14 26 9 35 8 50 -5 14 -13 24 -14 45 -7 14 6 26 15 26 20 0 13 -47 41 -70 41 -32 0 -115 40 -129 63 -12 19 -11 20 22 14 26 -4 38 -1 50 14 9 10 24 19 32 19 8 0 15 8 15 18 0 34 -24 52 -85 62 -97 17 -105 20 -105 35 0 17 -17 20 -22 4 -7 -20 -178 -14 -178 6 0 22 13 25 32 9 14 -14 20 -14 33 -4 20 16 19 39 -2 62 -14 16 -14 22 -3 43 10 20 11 28 2 37 -7 7 -12 16 -12 20 0 16 28 7 69 -22 34 -25 45 -28 61 -20 26 14 25 24 -4 48 -14 10 -36 32 -50 49 -22 27 -24 34 -14 60 10 26 8 35 -12 62 -16 24 -20 35 -11 44 6 6 11 23 11 38 0 15 7 29 15 33 19 7 19 21 -1 41 -12 12 -13 19 -4 30 9 10 8 19 -5 39 -17 25 -16 26 20 60 32 30 35 37 25 56 -11 21 -11 21 -28 1 -23 -27 -72 -39 -72 -17 0 9 8 16 18 16 24 1 56 48 57 85 0 25 4 30 25 31 13 1 26 7 28 13 2 6 14 11 26 11 26 0 66 38 66 63 0 25 17 21 60 -13 42 -33 65 -37 96 -16 31 22 99 10 113 -20 8 -18 19 -24 41 -24 36 0 37 11 8 50 -13 18 -31 30 -45 30 -16 0 -23 6 -23 18 0 19 -39 62 -56 62 -5 0 -26 -12 -47 -26 -40 -27 -39 -27 -88 16 -10 8 -25 21 -34 29 -13 10 -15 22 -10 53 6 34 4 40 -14 45 -24 6 -29 23 -7 23 19 0 48 29 41 41 -9 14 -52 11 -69 -6 -25 -25 -57 -17 -99 26 -42 43 -88 59 -111 40 -10 -8 -16 -9 -21 -1 -12 19 -43 11 -49 -13 -5 -20 -10 -22 -47 -19 -22 3 -52 -1 -65 -9 -27 -14 -42 -6 -27 13 16 20 26 58 15 58 -5 0 -20 -8 -33 -19 -20 -16 -21 -21 -10 -35 23 -27 -4 -49 -52 -41 -33 6 -41 4 -54 -14 -11 -17 -18 -19 -28 -11 -9 8 -15 8 -20 0 -9 -15 3 -30 20 -23 8 3 15 0 15 -7 0 -7 13 -10 33 -8 27 2 33 -1 35 -20 2 -12 12 -27 22 -32 16 -9 19 -7 17 16 -3 39 18 40 37 3 11 -23 13 -35 5 -39 -6 -4 -10 -16 -9 -26 4 -38 0 -51 -29 -83 -28 -31 -31 -32 -46 -17 -22 21 -30 20 -73 -9 -20 -14 -42 -25 -48 -25 -6 0 -19 -9 -29 -20 -10 -11 -26 -20 -36 -20 -23 0 -34 -19 -20 -33 7 -7 16 -6 29 6 11 10 35 17 57 17 21 0 46 7 55 15 23 21 115 25 115 5 0 -9 -12 -16 -30 -18 -42 -5 -59 -20 -43 -39 10 -12 9 -17 -4 -24 -9 -5 -22 -28 -29 -52 -8 -30 -23 -51 -46 -67 -18 -12 -33 -31 -33 -41 0 -15 -5 -17 -30 -13 -18 4 -43 0 -65 -10 -25 -12 -48 -15 -82 -10 -41 5 -51 3 -67 -15 -20 -22 -46 -28 -46 -11 0 13 -43 30 -51 21 -4 -3 -9 -28 -13 -54 -5 -44 -4 -48 19 -59 19 -9 29 -8 49 5 23 16 25 15 40 -8 9 -14 26 -25 38 -25 11 0 26 -8 33 -17 11 -15 15 -14 37 10 l25 26 29 -41 c16 -22 39 -51 52 -63 l22 -23 -25 -16 c-28 -19 -51 -21 -61 -5 -3 6 -20 17 -37 24 -22 9 -32 20 -32 36 0 36 -31 35 -65 -1 -17 -18 -27 -36 -24 -41 3 -5 -2 -9 -10 -9 -18 0 -32 20 -14 20 7 1 0 8 -17 17 -16 9 -40 24 -53 34 -16 12 -30 16 -45 10 -12 -4 -43 -6 -69 -3 -39 3 -48 8 -48 23 0 15 -5 17 -31 12 -37 -7 -55 12 -33 35 8 8 14 24 12 36 -3 20 -8 21 -94 18 -72 -2 -94 1 -104 13 -20 24 -44 18 -83 -20 -32 -31 -35 -38 -24 -55 16 -27 31 -25 62 6 22 22 27 23 40 10 8 -8 12 -22 9 -30 -4 -10 1 -18 11 -22 12 -5 15 -14 10 -33 -8 -31 -21 -41 -56 -41 -42 0 -42 -25 -1 -61 21 -18 36 -40 34 -50 -2 -13 4 -16 28 -15 36 2 41 19 8 26 -22 6 -22 6 -3 14 12 4 21 3 23 -3 2 -6 19 -11 38 -11 30 0 34 3 34 25 0 20 5 25 26 25 14 0 23 -4 20 -8 -9 -16 37 -6 48 10 15 21 96 35 96 16 -1 -40 -13 -58 -35 -52 -17 4 -27 0 -36 -14 -10 -16 -17 -18 -36 -11 -32 12 -30 13 -47 -20 -13 -25 -23 -30 -73 -36 -32 -4 -65 -13 -73 -20 -24 -20 -67 -27 -73 -11 -3 8 -21 17 -39 21 -18 4 -42 16 -54 26 -28 26 -93 37 -105 18 -14 -22 -11 -37 13 -59 17 -15 30 -19 51 -14 29 6 57 -9 57 -32 0 -7 -10 -14 -22 -16 -16 -2 -24 -12 -30 -38 -11 -54 -2 -72 35 -68 24 2 32 8 32 23 0 25 38 38 71 23 15 -7 24 -20 24 -35 0 -25 10 -29 28 -11 10 10 16 9 29 -4 15 -16 14 -17 -11 -24 -15 -3 -32 -2 -38 4 -17 17 -48 2 -48 -24 0 -15 -6 -24 -15 -24 -23 0 -47 -45 -43 -82 2 -27 8 -34 28 -36 14 -2 39 -14 55 -27 l30 -23 -28 5 c-15 3 -30 9 -33 14 -3 5 -26 9 -51 9 -37 0 -46 -4 -50 -21 -5 -18 -11 -20 -38 -16 -26 4 -38 0 -56 -19 -14 -15 -31 -23 -41 -21 -9 3 -22 -1 -29 -9 -14 -17 -5 -44 15 -44 14 0 28 -34 18 -44 -3 -3 -14 -6 -24 -6 -13 0 -18 -6 -16 -17 2 -12 13 -18 33 -18 25 0 30 -4 28 -21 -3 -29 32 -58 72 -60 31 -1 135 -60 151 -86 10 -16 -87 0 -107 19 -24 20 -103 14 -107 -9 -2 -9 6 -26 18 -38 27 -27 21 -34 -25 -26 -29 6 -35 11 -35 32 0 13 -8 36 -17 50 -17 26 -13 34 22 48 14 5 -8 41 -26 42 -8 0 -22 4 -32 9 -10 4 -21 5 -24 2 -3 -4 -14 -2 -23 3 -14 7 -19 5 -23 -11 -3 -12 -10 -18 -17 -14 -18 11 -40 -15 -40 -46 0 -22 -5 -29 -19 -29 -44 0 -28 -55 18 -65 16 -3 36 -14 45 -24 16 -17 15 -19 -6 -25 -35 -9 -41 -7 -34 9 9 23 -1 18 -39 -20 l-34 -36 -16 30 c-8 17 -24 35 -35 41 -25 14 -25 31 1 64 19 24 19 46 -1 46 -5 0 -21 5 -37 11 l-28 11 23 18 c35 28 30 75 -10 100 -28 17 -32 25 -30 53 3 28 -1 35 -23 45 -26 12 -26 13 -11 37 19 29 10 37 -40 37 -22 0 -34 4 -31 12 5 16 77 50 107 51 41 0 28 24 -30 53 -41 20 -54 32 -52 45 2 11 -11 32 -33 53 -24 22 -32 35 -23 38 40 13 80 14 114 4 22 -6 49 -10 62 -9 18 2 22 -2 20 -21 -2 -18 3 -24 22 -26 25 -4 25 -4 6 17 -18 20 -18 21 3 39 32 25 20 69 -24 88 -39 16 -57 71 -30 90 14 10 12 15 -15 38 -18 14 -44 26 -59 26 -15 0 -32 5 -37 10 -7 7 -20 6 -40 -5 -16 -8 -45 -15 -64 -15 l-35 1 30 24 c17 14 37 25 45 24 28 -2 31 1 16 22 -9 13 -12 33 -9 53 4 29 1 35 -35 58 -44 29 -60 65 -34 75 9 4 18 1 20 -5 6 -19 47 -14 76 9 26 20 37 68 16 70 -5 1 -16 2 -22 3 -7 0 -22 18 -33 38 -17 32 -25 38 -55 39 -19 0 -29 3 -22 6 25 10 33 41 21 83 -10 34 -10 43 4 58 21 23 21 36 3 51 -20 17 -19 84 1 77 8 -3 18 -6 22 -6 4 0 13 -12 20 -26 10 -22 16 -25 39 -19 31 7 53 31 46 50 -9 22 -34 26 -65 11 -24 -12 -30 -12 -40 0 -6 8 -15 12 -19 9 -5 -3 -6 4 -3 15 4 15 -3 23 -36 36 -40 16 -41 17 -25 35 9 10 33 19 58 21 34 3 42 7 44 26 2 13 -4 33 -14 43 -15 16 -16 25 -8 48 6 15 7 37 3 49 -6 16 -5 22 7 22 8 0 17 -7 20 -15 4 -8 10 -15 15 -15 17 0 9 27 -20 67 -27 38 -28 40 -10 51 26 17 24 29 -11 62 -17 15 -30 32 -30 37 0 4 -14 16 -31 26 -21 12 -29 22 -25 33 3 9 6 23 6 33 0 25 21 49 51 56 21 5 27 2 32 -14 5 -21 37 -30 37 -11 0 6 12 15 26 20 32 13 27 28 -16 51 -30 17 -37 17 -56 4 -20 -13 -22 -12 -27 6 -3 11 -14 23 -25 26 -11 3 -23 12 -26 21 -3 10 -8 22 -11 28 -4 7 3 10 17 7 16 -3 34 6 56 26 51 47 39 80 -23 63 -25 -7 -33 -5 -47 14 -24 30 -23 41 7 48 14 4 25 10 25 15 0 5 20 -1 45 -15 42 -22 46 -22 51 -6 3 9 9 27 14 38 5 14 3 40 -6 72 -14 46 -14 53 2 76 9 15 20 26 25 26 13 0 11 44 -3 58 -10 10 -10 17 0 32 19 31 14 47 -19 59 -17 6 -34 9 -38 7 -4 -3 -13 -1 -21 4 -12 7 -11 12 4 29 15 17 17 25 7 52 -14 40 -14 49 -1 49 6 0 16 -11 22 -25 7 -16 19 -25 34 -25 30 0 49 33 34 59 -8 15 -5 28 11 56 15 26 19 43 13 63 -4 15 -8 33 -10 41 -4 23 -26 31 -82 31 l-54 0 7 30 c4 17 2 36 -3 43 -5 7 -13 27 -17 45 -3 17 -10 32 -13 32 -4 0 -22 9 -40 20 l-33 21 25 30 c14 17 26 35 26 40 0 16 -29 22 -44 10 -10 -9 -25 -7 -59 8 -38 16 -48 17 -57 6 -18 -22 -2 -65 25 -65 20 0 24 -5 23 -32 -1 -17 -9 -39 -20 -50 -12 -12 -18 -33 -18 -66 0 -40 -5 -53 -27 -73 -16 -13 -40 -29 -55 -36 -20 -8 -28 -19 -28 -37 0 -18 -7 -27 -27 -34 -27 -9 -28 -9 -5 -16 25 -8 30 -26 7 -26 -10 0 -15 -10 -16 -27 l0 -28 -16 23 c-8 12 -22 22 -29 22 -8 0 -14 8 -14 18 0 23 -30 52 -53 52 -17 0 -47 -47 -47 -73 0 -8 -11 -22 -24 -31 -14 -8 -28 -26 -31 -38 -4 -13 -18 -46 -32 -75 -14 -29 -26 -67 -26 -85 -2 -27 2 -34 21 -36 28 -4 52 14 52 40 0 16 6 18 37 16 31 -2 39 1 49 21 7 14 23 25 36 27 13 1 33 5 46 9 27 9 28 -4 2 -38 -11 -14 -20 -31 -20 -39 -1 -24 -55 -73 -104 -93 -52 -21 -84 -60 -85 -105 -1 -14 -13 -33 -28 -46 l-28 -22 34 -35 c32 -32 36 -33 60 -21 14 8 40 14 57 14 36 0 50 21 34 50 -8 16 -7 19 12 18 65 -4 98 3 118 25 20 21 22 21 35 4 12 -17 15 -17 51 8 25 17 41 22 47 16 13 -13 -7 -61 -24 -61 -25 0 -139 -61 -139 -74 0 -18 -47 -166 -61 -189 -7 -13 -7 -22 1 -32 8 -10 7 -15 -8 -19 -29 -10 -55 3 -41 20 12 15 3 37 -14 31 -15 -5 -18 -68 -5 -85 8 -9 6 -18 -6 -30 -9 -10 -16 -28 -16 -40 0 -12 -8 -23 -21 -27 -17 -6 -20 -13 -16 -38 2 -18 -2 -45 -10 -61 l-15 -29 58 7 c78 9 108 47 56 71 -50 22 -20 37 80 40 53 1 83 6 88 15 6 10 10 8 19 -8 12 -23 7 -29 -54 -60 -22 -11 -58 -34 -79 -51 -22 -18 -49 -31 -60 -30 -32 3 -98 -12 -123 -28 -19 -12 -20 -18 -11 -39 6 -13 15 -24 19 -24 4 0 11 -31 15 -69 6 -60 9 -70 31 -80 21 -10 27 -8 43 11 15 19 21 21 41 11 13 -6 33 -14 43 -17 10 -4 16 -9 13 -13 -11 -10 -111 -42 -119 -37 -16 10 -137 14 -143 4 -3 -5 -15 -10 -26 -10 -19 0 -28 -33 -11 -44 5 -3 7 -19 4 -36 -4 -25 -1 -30 17 -30 21 0 46 -34 36 -50 -3 -5 -12 -7 -20 -4 -7 3 -23 1 -34 -5 -17 -9 -22 -8 -31 8 -6 11 -26 23 -45 27 -19 3 -38 10 -41 15 -3 5 -18 2 -34 -6 -38 -19 -55 -19 -76 3 -10 9 -21 17 -25 17 -4 0 -24 22 -44 48 -30 40 -35 53 -30 78 l7 31 22 -21 c12 -11 30 -20 41 -20 11 0 48 -6 83 -14 64 -14 72 -13 72 10 0 8 7 21 15 29 21 22 19 41 -10 70 -46 46 -67 25 -49 -48 7 -31 -10 -37 -47 -17 -19 10 -20 12 -4 36 12 18 16 38 12 66 -4 28 -2 36 5 29 8 -8 17 -8 32 0 15 8 21 8 24 -1 2 -6 9 -11 15 -11 7 -1 22 -9 34 -19 18 -15 22 -26 17 -49 -3 -16 -1 -32 4 -36 16 -10 43 34 33 53 -5 9 -11 35 -14 59 -4 31 -2 42 8 42 8 0 17 -4 20 -10 3 -5 17 -10 31 -10 17 0 24 5 24 20 0 14 -7 20 -22 20 -12 0 -29 7 -39 16 -21 19 -54 11 -45 -11 6 -18 1 -19 -26 -4 -14 8 -23 8 -31 0 -16 -16 -25 -14 -32 8 -8 26 -51 71 -68 71 -16 0 -37 23 -57 63 -13 26 -13 30 3 38 12 7 17 23 17 50 0 32 -4 41 -22 48 -13 5 -38 25 -55 44 -36 38 -42 76 -21 123 11 23 10 28 -9 43 -15 13 -19 25 -16 44 3 15 0 33 -6 40 -6 8 -8 17 -4 20 3 4 12 -1 20 -11 13 -16 15 -16 29 6 20 27 81 31 91 7 5 -13 8 -12 20 5 13 19 13 23 -3 41 -12 14 -27 19 -43 16 -29 -6 -105 60 -115 98 -5 20 -13 25 -36 25 -36 0 -49 -19 -25 -36 13 -10 15 -17 8 -26 -15 -19 -23 -87 -12 -94 6 -3 2 -12 -10 -21 -12 -8 -21 -21 -21 -29 0 -8 -10 -14 -24 -14 -23 0 -24 2 -15 32 14 51 12 58 -20 58 -20 0 -32 -6 -35 -18 -3 -9 -16 -22 -28 -27 -25 -11 -37 -53 -18 -65 8 -5 8 -13 -1 -33 -7 -15 -8 -36 -4 -54 5 -15 7 -35 6 -45 -4 -29 19 -30 29 -1 22 58 22 59 29 33 4 -15 16 -27 31 -30 20 -5 25 -12 25 -37 0 -17 6 -37 12 -45 19 -22 -12 -60 -46 -57 -14 2 -35 -2 -46 -8 -11 -5 -33 -13 -48 -17 -29 -7 -29 -7 -11 -33 16 -26 16 -27 -10 -48 -31 -25 -33 -35 -6 -35 10 0 28 -10 39 -21 12 -13 27 -20 40 -16 16 4 20 -1 23 -31 7 -56 -9 -86 -56 -105 -29 -12 -45 -26 -53 -47 -14 -38 -33 -39 -33 -2 0 47 -11 70 -36 76 -34 9 -52 -3 -30 -19 15 -12 15 -13 -1 -19 -10 -4 -19 -2 -21 3 -2 6 -17 11 -33 11 -35 0 -50 -27 -26 -45 21 -15 21 -17 -3 -45 l-20 -23 -32 23 c-39 29 -62 17 -64 -31 -2 -55 -3 -59 -18 -59 -8 0 -16 6 -19 13 -2 6 -11 -3 -21 -20 -9 -18 -21 -33 -27 -33 -5 0 -17 -16 -25 -35 -15 -37 -40 -50 -29 -15 7 23 -10 60 -29 60 -7 0 -26 -12 -41 -26 -27 -25 -28 -27 -23 -123 3 -54 1 -107 -3 -118 -4 -12 -3 -35 4 -53 9 -25 17 -30 37 -28 18 2 28 12 36 37 6 18 18 38 27 43 10 5 17 21 17 36 0 26 15 62 22 52 2 -3 14 -26 28 -52 24 -47 43 -63 61 -52 11 7 12 51 0 58 -4 3 -6 17 -3 31 2 15 0 25 -7 25 -6 0 -11 7 -11 16 0 31 25 7 31 -30 3 -20 13 -42 22 -49 8 -7 17 -21 19 -32 2 -16 12 -21 48 -23 24 -2 50 -8 57 -14 9 -7 18 -1 33 24 11 18 20 38 20 43 0 6 5 3 10 -5 6 -10 4 -20 -5 -30 -8 -9 -11 -26 -8 -44 7 -32 -8 -46 -49 -46 -15 0 -31 -7 -36 -16 -5 -10 -24 -17 -44 -19 -20 -1 -51 -11 -69 -23 -19 -12 -53 -31 -76 -42 -29 -14 -43 -27 -43 -40 0 -11 4 -20 9 -20 10 0 25 -50 17 -58 -3 -2 -12 1 -21 8 -19 16 -45 6 -45 -18 0 -10 -9 -27 -20 -37 -11 -10 -20 -26 -20 -37 0 -10 -11 -24 -25 -30 -25 -11 -34 -41 -15 -53 6 -4 5 -16 -4 -33 -11 -21 -12 -45 -6 -101 9 -81 5 -105 -16 -97 -7 3 -18 -2 -23 -12 -8 -15 -11 -14 -29 8 -11 14 -23 37 -26 53 -4 22 -11 27 -35 27 -31 0 -45 -25 -30 -53 11 -19 -25 -57 -53 -57 -22 0 -23 13 -3 30 8 7 15 22 16 34 0 11 8 35 18 51 14 24 26 31 61 35 42 5 45 7 47 37 2 18 5 48 7 65 2 18 4 52 5 76 1 35 5 44 26 54 26 12 35 51 14 63 -6 4 -8 14 -5 21 3 8 11 55 16 104 10 75 9 93 -4 118 -19 37 -66 72 -96 72 -35 0 -60 19 -60 45 0 29 -14 33 -30 8 -9 -17 -11 -16 -29 5 -11 12 -21 26 -23 30 -6 16 -131 73 -149 69 -16 -4 -19 1 -19 32 0 33 3 37 23 37 19 -1 22 4 19 29 -2 22 4 37 21 53 l23 22 22 -25 c12 -14 33 -25 46 -25 14 0 28 -4 31 -10 3 -5 14 -10 23 -10 23 0 56 -38 62 -73 7 -37 22 -39 31 -3 5 17 15 34 24 38 22 13 18 27 -10 38 -19 7 -25 17 -25 39 0 26 -4 30 -31 33 -40 4 -57 28 -42 60 6 13 14 31 17 40 4 15 9 15 56 -2 51 -19 52 -19 57 0 3 11 11 20 18 20 8 0 11 8 8 19 -3 10 0 22 6 25 6 4 11 11 11 17 0 12 -37 12 -45 -1 -8 -13 -55 18 -55 36 0 7 11 21 25 30 32 21 78 97 73 121 -4 24 -88 38 -88 15 0 -12 -3 -12 -15 -2 -13 10 -19 10 -35 -5 -11 -10 -20 -25 -20 -32 0 -8 -9 -26 -20 -40 -11 -14 -20 -32 -20 -40 0 -8 9 -26 20 -40 11 -14 20 -35 20 -47 0 -19 -5 -21 -40 -18 -21 2 -44 10 -50 17 -6 8 -18 11 -26 8 -8 -3 -14 0 -14 6 0 6 -19 11 -45 11 -39 0 -45 -3 -51 -24 -3 -13 -1 -34 6 -45 10 -19 8 -21 -24 -21 -29 0 -46 -13 -46 -35 0 -12 55 -53 65 -49 13 5 28 -33 19 -48 -3 -4 -21 -8 -40 -8 -39 0 -51 -18 -34 -49 9 -18 8 -21 -8 -21 -26 0 -54 -34 -50 -61 4 -31 24 -35 33 -7 7 21 8 21 12 -9 5 -37 24 -55 61 -59 32 -4 62 -37 62 -70 0 -13 9 -28 21 -34 16 -9 19 -18 14 -37 -3 -14 -1 -31 6 -39 15 -18 -15 -31 -35 -15 -24 20 -31 -8 -7 -30 21 -20 27 -63 12 -87 -7 -11 -14 -8 -33 13 -22 24 -28 25 -46 14 -16 -10 -23 -10 -36 0 -13 11 -22 7 -56 -20 -36 -29 -40 -37 -36 -68 2 -20 0 -45 -4 -56 -6 -17 -7 -17 -14 8 -4 17 -13 27 -24 27 -10 0 -25 9 -35 20 -9 11 -26 20 -36 20 -28 0 -35 17 -11 25 11 3 20 13 20 21 0 11 6 13 20 9 20 -6 20 -6 3 29 -10 20 -23 36 -30 36 -18 0 -22 12 -12 37 10 28 37 20 50 -14 8 -21 12 -23 24 -13 9 8 13 21 9 37 -5 17 -1 28 12 39 18 14 18 15 -5 34 -25 22 -46 26 -56 10 -3 -5 -19 -10 -36 -10 -24 0 -29 -4 -29 -24 0 -13 -7 -29 -15 -36 -13 -11 -15 -8 -15 16 0 19 -9 36 -27 50 -23 18 -26 25 -15 35 21 22 15 49 -12 49 -30 0 -50 -23 -44 -54 3 -13 -1 -31 -9 -42 -12 -17 -15 -17 -53 5 -47 26 -72 21 -89 -16 l-12 -26 -32 39 c-18 21 -40 45 -49 53 -31 27 -22 41 26 41 24 0 51 3 59 6 9 3 16 -3 20 -15 8 -32 37 -26 37 7 0 15 5 33 11 39 8 8 8 21 -1 48 -10 31 -10 40 2 52 15 15 20 8 42 -60 5 -15 9 -16 26 -5 11 7 20 22 20 33 0 26 9 37 43 54 15 8 27 23 27 34 0 17 -5 19 -31 13 -18 -3 -49 -1 -69 5 -32 10 -42 9 -61 -5 -33 -22 -37 -21 -41 16 -2 25 -9 34 -28 38 -22 6 -25 11 -22 42 2 32 -1 37 -29 47 -30 10 -68 1 -70 -17 -6 -72 -10 -164 -9 -231 1 -46 -4 -105 -11 -130 -10 -36 -10 -46 0 -49 7 -2 26 -17 42 -33 16 -16 36 -29 45 -29 8 0 17 -7 20 -15 4 -10 20 -15 49 -15 78 0 64 -36 -15 -41 -25 -2 -64 3 -88 11 -59 19 -70 6 -76 -93 -4 -75 -15 -117 -17 -66 -1 40 1 201 4 239 4 69 -26 89 -75 50 -28 -21 -43 -73 -29 -97 9 -17 -8 -63 -24 -62 -5 0 -19 4 -30 9 -16 7 -17 9 -3 9 25 1 38 30 26 60 -5 15 -8 28 -6 30 5 7 -56 21 -70 16 -7 -3 -10 -10 -6 -16 4 -6 10 -27 14 -45 7 -31 6 -34 -15 -34 -30 0 -35 16 -29 93 4 53 2 66 -12 71 -9 3 -20 3 -25 0 -5 -3 -30 2 -55 12 -32 12 -42 20 -34 28 7 7 16 7 30 -2 49 -30 71 -5 36 41 -32 42 -32 51 -1 71 23 15 25 15 36 -6 l11 -21 19 24 c17 23 18 23 32 5 17 -24 24 -13 32 51 6 45 5 51 -13 55 -10 3 -37 -3 -58 -13 -51 -24 -51 -24 -66 9 -9 18 -22 28 -41 30 -31 4 -34 14 -11 33 15 12 40 16 114 19 32 1 64 25 57 43 -3 8 -26 20 -52 27 -38 11 -51 11 -67 1 -16 -10 -23 -9 -39 5 -12 10 -27 14 -42 10 -36 -9 -64 25 -49 59 14 30 36 34 27 5 -14 -43 68 -14 113 40 11 13 13 13 25 -2 17 -21 70 -26 92 -8 10 8 21 14 24 13 3 -2 6 3 6 10 0 6 -6 11 -13 9 -7 -1 -25 11 -40 28 -15 16 -35 30 -44 30 -10 0 -27 5 -38 12 -15 10 -24 9 -44 -2 -14 -7 -29 -10 -33 -7 -13 14 -11 56 3 61 8 3 14 12 14 19 0 21 -25 38 -44 31 -18 -7 -22 -39 -6 -49 6 -4 5 -13 -3 -26 -10 -16 -9 -21 3 -29 12 -8 9 -10 -12 -10 -19 0 -28 5 -28 16 0 11 -8 14 -32 12 -33 -3 -33 -3 -36 45 -3 42 0 49 17 54 26 7 27 33 2 40 -11 3 -22 11 -25 19 -3 8 -16 14 -29 14 -13 0 -38 5 -56 11 l-32 11 26 24 c33 30 29 56 -10 69 -22 7 -29 15 -27 31 2 11 -4 26 -12 33 -11 9 -12 18 -3 40 14 38 3 60 -33 67 -35 7 -36 11 -14 36 25 27 3 45 -62 54 -47 5 -54 9 -49 24 4 11 -2 26 -13 37 -23 22 -35 88 -21 115 6 10 21 23 34 28 21 8 24 15 23 59 -1 44 -4 50 -21 48 -15 -1 -22 6 -29 33 -16 65 -18 67 -32 48 -12 -16 -26 -15 -26 2 0 12 55 32 76 28 12 -2 20 4 22 17 2 11 13 27 24 36 21 16 17 39 -6 39 -7 0 -18 11 -24 24 -6 13 -20 27 -31 31 -20 6 -20 6 1 41 15 26 18 38 9 47 -19 19 -64 -5 -86 -45 -17 -32 -24 -36 -70 -41 -32 -3 -60 0 -79 9 -16 7 -32 11 -37 8 -5 -3 -25 -1 -45 5 -32 9 -37 8 -41 -10 -3 -12 -11 -18 -19 -15 -18 7 -27 -10 -20 -37 3 -15 20 -27 56 -40 47 -17 53 -17 69 -3 23 21 28 20 27 -6 -1 -22 3 -23 68 -22 55 0 65 -2 52 -11 -9 -7 -16 -22 -16 -34 0 -16 -6 -21 -24 -21 -13 0 -27 7 -30 16 -3 8 -10 13 -15 9 -6 -3 -14 2 -19 11 -5 9 -15 14 -23 12 -8 -3 -31 3 -51 13 -58 29 -112 -3 -92 -55 7 -19 45 -21 62 -4 9 9 17 9 35 -1 13 -7 37 -13 55 -13 27 -1 30 -3 21 -19 -7 -14 -17 -17 -39 -12 -17 3 -36 1 -42 -4 -7 -6 -35 -13 -63 -16 -42 -4 -54 -11 -80 -41 l-31 -37 -20 28 c-17 22 -29 27 -73 29 -64 3 -97 -8 -106 -36 -5 -15 -12 -19 -26 -15 -15 5 -19 2 -19 -14 0 -12 6 -21 15 -21 25 0 76 -42 66 -54 -5 -6 -11 -22 -13 -35 -3 -26 -28 -42 -28 -18 0 8 -7 21 -16 28 -14 11 -19 10 -35 -10 -23 -28 -24 -54 -4 -71 13 -11 18 -10 30 6 13 17 14 18 15 2 0 -10 3 -18 8 -18 16 0 34 -42 23 -53 -17 -17 -13 -44 7 -52 9 -3 35 -8 57 -10 37 -4 42 -1 65 36 24 39 43 49 56 28 3 -6 25 -19 48 -29 52 -24 76 -43 76 -61 0 -8 7 -25 16 -38 23 -32 5 -49 -32 -32 -15 6 -63 15 -107 18 -64 5 -81 10 -84 23 -6 22 -38 15 -71 -16 -20 -18 -22 -25 -13 -43 7 -12 21 -21 36 -21 35 0 40 -18 12 -44 -19 -17 -23 -30 -20 -50 8 -40 46 -60 115 -61 45 0 57 -3 53 -14 -3 -7 -1 -19 5 -26 15 -19 -4 -29 -38 -20 -15 4 -40 9 -55 11 -15 2 -36 8 -47 14 -10 5 -30 10 -44 10 -14 0 -28 5 -31 10 -4 7 -24 8 -51 4 -37 -5 -44 -4 -44 10 0 9 -16 24 -35 33 -39 19 -40 22 -22 46 11 16 15 16 42 3 36 -18 112 -36 120 -28 12 12 4 43 -12 49 -36 13 -43 23 -31 49 16 34 -3 74 -36 74 -46 0 -76 -18 -76 -45 0 -16 -7 -28 -17 -31 -40 -12 -48 -22 -49 -60 -1 -21 -5 -46 -9 -55 -3 -10 1 -24 12 -34 10 -10 23 -28 29 -39 6 -13 19 -20 31 -19 24 3 37 -20 28 -48 -5 -15 -16 -19 -50 -19 -41 0 -75 -18 -75 -40 0 -5 10 -29 21 -53 18 -37 25 -43 46 -39 22 4 54 -6 93 -29 8 -5 23 -12 33 -15 25 -9 21 -41 -5 -47 -28 -7 -93 6 -114 23 -11 10 -21 10 -38 2 -39 -17 -44 -142 -6 -142 6 0 10 -9 10 -19 0 -11 4 -23 10 -26 5 -3 -6 -22 -25 -41 -35 -34 -35 -34 -62 -17 -16 10 -32 23 -36 30 -9 15 -37 17 -37 3 0 -5 -7 -10 -15 -10 -20 0 -19 16 4 39 12 12 23 15 33 10 11 -6 24 -1 42 16 23 22 28 35 30 90 2 36 -1 68 -6 71 -5 3 -4 12 3 20 6 7 8 22 4 31 -6 17 -7 17 -20 0 -11 -15 -16 -16 -41 -5 -16 7 -33 19 -37 26 -5 7 -18 17 -30 22 -16 6 -17 9 -6 9 20 1 52 47 43 62 -3 6 -17 8 -30 5 -17 -5 -24 -2 -24 9 0 8 9 15 19 15 26 0 34 15 22 37 -5 10 -12 26 -15 36 -4 14 -14 18 -38 15 -38 -4 -53 26 -18 35 13 3 18 10 14 20 -4 12 3 16 27 19 26 2 37 11 55 43 13 22 23 50 24 61 0 17 5 20 24 17 26 -5 52 27 42 52 -3 8 -1 17 4 20 15 9 -11 55 -31 55 -9 0 -19 -7 -23 -15 -3 -8 -12 -15 -21 -15 -8 0 -20 -11 -25 -24 -9 -26 -35 -34 -83 -27 -24 3 -28 7 -23 27 7 27 -11 43 -21 19 -5 -14 -15 -16 -57 -10 -28 3 -61 13 -74 21 -22 14 -22 17 -8 39 22 34 20 54 -6 65 -13 5 -35 19 -49 31 -22 17 -30 19 -48 10 -22 -12 -28 -45 -10 -57 6 -3 9 -15 6 -25 -3 -12 2 -23 14 -29 36 -20 18 -120 -22 -120 -5 0 -9 -9 -9 -19 0 -24 32 -36 59 -22 30 17 36 13 16 -9 -10 -11 -24 -20 -32 -20 -21 0 -73 -55 -73 -78 0 -10 10 -24 23 -30 19 -10 17 -11 -14 -6 -22 3 -39 1 -43 -5 -4 -6 -16 -11 -26 -11 -11 0 -26 -11 -35 -23 -8 -13 -26 -29 -40 -35 -14 -6 -25 -18 -25 -26 0 -20 38 -27 56 -9 8 8 17 13 20 10 7 -7 -21 -73 -35 -81 -6 -4 -11 -16 -11 -27 0 -14 -7 -19 -30 -19 -29 0 -29 0 -23 49 5 48 5 49 -22 53 -16 2 -30 9 -33 16 -3 9 3 11 21 7 20 -5 27 -2 32 15 9 29 -9 48 -29 31 -17 -14 -36 -7 -36 14 0 8 -5 17 -10 20 -17 10 -30 -41 -22 -87 6 -34 12 -44 30 -46 18 -3 22 -10 22 -38 0 -24 -5 -37 -17 -41 -31 -11 -53 -35 -53 -60 0 -13 6 -23 14 -23 7 0 16 -10 20 -22 4 -18 8 -20 17 -11 9 9 9 16 0 27 -9 11 -10 20 -1 35 14 27 18 26 31 -5 7 -20 6 -31 -4 -43 -8 -9 -12 -22 -10 -28 3 -9 -6 -13 -26 -13 -16 0 -33 -5 -36 -10 -5 -8 -11 -7 -21 1 -21 17 -42 -4 -51 -54 -5 -22 -13 -42 -19 -44 -20 -7 -24 27 -8 60 9 17 18 44 19 60 1 15 15 41 31 58 23 24 26 33 17 47 -8 14 -6 23 9 42 15 18 18 32 12 55 -4 16 -7 44 -8 60 -1 33 -19 46 -25 19 -6 -31 -43 -55 -75 -49 -36 6 -66 32 -66 55 0 26 -26 43 -55 36 -27 -7 -32 -25 -14 -43 18 -18 4 -42 -20 -36 -17 4 -21 1 -21 -21 0 -22 4 -26 29 -26 31 0 45 -12 55 -47 6 -19 4 -23 -16 -23 -13 0 -28 4 -33 9 -6 4 -25 13 -44 20 -44 14 -62 1 -54 -40 3 -17 0 -35 -7 -44 -11 -13 -15 -12 -37 5 -14 11 -33 20 -41 20 -9 0 -47 11 -86 24 -39 13 -91 29 -116 36 -25 6 -53 16 -63 21 -10 6 -25 6 -35 1 -29 -15 -81 -22 -87 -12 -9 14 -43 12 -47 -1 -2 -7 -20 -12 -38 -13 -34 -1 -35 0 -34 34 1 23 6 34 15 32 26 -7 56 8 68 34 15 35 -3 59 -23 32 -14 -19 -61 -24 -71 -8 -4 6 -11 8 -16 4 -6 -3 -22 6 -36 20 -20 20 -36 26 -68 26 -42 0 -128 -31 -140 -50 -3 -6 -15 -10 -26 -10 -25 0 -24 -15 2 -34 20 -14 21 -16 5 -47 -21 -42 -22 -87 -2 -70 11 9 17 8 28 -3 8 -8 26 -16 39 -18 36 -5 24 -23 -16 -23 -19 -1 -37 -4 -41 -8 -4 -4 -15 0 -25 9 -10 9 -27 14 -37 12 -15 -4 -24 3 -36 28 -8 19 -20 34 -26 34 -6 0 -8 13 -4 33 4 17 7 44 8 59 0 14 11 38 23 52 12 14 19 28 14 30 -14 9 -21 106 -9 126 9 14 9 22 0 33 -7 8 -10 22 -6 31 4 11 1 16 -10 16 -9 0 -16 -8 -16 -19 0 -11 -3 -22 -8 -25 -12 -7 -43 20 -38 35 15 47 16 71 4 67 -7 -3 -13 -9 -14 -14 -1 -21 -40 -74 -51 -69 -20 7 -28 -17 -10 -30 24 -17 23 -50 0 -39 -10 5 -39 9 -65 9 -26 1 -50 4 -54 8 -4 4 -18 7 -31 7 -26 0 -31 21 -9 39 11 9 15 8 20 -5 10 -26 28 -11 31 26 4 39 -17 70 -47 70 -10 0 -18 -6 -18 -14 0 -7 -7 -19 -16 -26 -8 -7 -14 -23 -12 -34 1 -12 -1 -27 -6 -34 -6 -10 -11 -9 -21 5 -11 15 -15 15 -29 4 -9 -7 -16 -27 -16 -43 0 -25 3 -29 24 -26 33 4 57 -19 50 -47 -3 -13 -1 -32 5 -43 10 -19 7 -21 -44 -27 -30 -4 -61 -5 -70 -1 -10 3 -15 -1 -15 -12 0 -10 -5 -23 -11 -29 -13 -13 -3 -36 12 -28 5 4 13 3 19 0 11 -7 -15 -54 -37 -68 -19 -12 -16 -31 7 -52 16 -14 17 -20 8 -27 -19 -12 -28 -10 -28 6 0 8 -9 18 -20 21 -23 7 -25 17 -8 45 11 16 9 22 -7 35 -28 21 -58 14 -73 -17 -7 -16 -20 -28 -28 -28 -27 0 -14 31 31 75 28 27 43 49 39 58 -4 11 4 17 25 22 26 6 51 29 51 48 0 3 -13 0 -29 -6 -23 -8 -36 -8 -58 2 -24 11 -29 10 -40 -6 -31 -46 -41 -56 -51 -49 -9 5 -8 12 0 26 10 15 10 22 0 32 -21 21 -15 48 12 48 36 0 40 16 9 38 -37 26 -93 38 -93 20 0 -7 -9 -2 -20 12 -11 14 -18 33 -16 43 4 15 2 16 -10 6 -8 -6 -14 -17 -14 -24 0 -6 -10 -11 -21 -11 -12 1 -24 -5 -26 -11 -6 -17 27 -29 37 -13 5 9 9 9 15 1 3 -6 -4 -20 -17 -31 -21 -18 -34 -18 -74 -3 -15 5 -37 -48 -32 -79 2 -15 11 -24 26 -26 12 -2 22 1 22 6 0 6 14 15 30 21 17 5 30 17 30 25 0 9 8 16 18 15 10 0 12 -3 5 -6 -7 -2 -13 -13 -13 -23 0 -10 -4 -22 -10 -25 -15 -9 -12 -41 5 -55 12 -10 13 -16 4 -26 -16 -19 -40 -18 -33 1 9 23 -3 45 -21 39 -16 -6 -21 -44 -6 -44 4 0 6 -11 3 -26 l-5 -25 -19 20 c-20 22 -62 28 -73 11 -14 -23 -35 -9 -35 24 0 28 -4 35 -26 40 -20 5 -25 12 -21 27 3 12 -2 23 -14 30 -11 5 -17 14 -14 19 7 11 -12 23 -25 15 -6 -4 -7 -11 -4 -17 4 -6 8 -30 8 -52 1 -48 -16 -56 -65 -32 -34 17 -51 13 -43 -9 5 -12 0 -14 -27 -8 -19 3 -35 10 -37 15 -5 13 -62 10 -62 -4 0 -6 7 -20 16 -29 12 -14 21 -16 34 -9 14 7 19 5 23 -10 6 -24 31 -25 79 -6 41 18 121 19 115 2 -2 -6 -16 -10 -30 -8 -17 2 -30 -5 -40 -18 -12 -17 -23 -20 -63 -17 -27 2 -58 7 -69 11 -11 4 -33 13 -50 19 -16 6 -38 19 -49 28 -18 17 -18 18 7 43 28 28 56 33 89 15 16 -8 22 -8 29 2 4 7 5 17 2 22 -3 4 4 11 15 14 13 3 18 11 15 19 -7 19 24 29 42 14 22 -18 33 -4 26 32 -7 30 -10 33 -41 30 -18 -1 -40 -8 -48 -15 -12 -9 -16 -9 -20 1 -2 7 -10 19 -18 27 -13 12 -19 12 -47 -5 -18 -11 -40 -20 -51 -20 -17 0 -17 1 -2 25 9 13 16 38 16 55 0 34 6 37 32 13 16 -14 22 -15 36 -5 9 7 24 15 32 19 8 4 20 13 25 20 13 17 68 -2 102 -35 29 -29 64 -26 78 6 9 22 14 23 55 18 25 -4 52 -7 60 -7 8 0 25 -5 37 -11 24 -12 46 -2 26 10 -6 4 -14 21 -17 38 -6 27 -3 35 20 53 30 23 55 21 89 -9 11 -10 26 -19 33 -22 10 -3 9 -10 -7 -28 -13 -16 -20 -20 -21 -11 0 8 -3 12 -6 9 -8 -8 19 -48 32 -48 6 0 17 7 24 15 7 8 25 14 44 12 22 -1 30 2 28 12 -4 18 16 31 46 31 20 0 23 5 20 28 -2 20 -9 28 -28 30 -14 2 -44 12 -67 22 -28 13 -53 18 -73 14 -25 -6 -30 -3 -30 14 0 11 7 22 15 26 8 3 13 11 10 18 -3 7 11 24 32 37 l36 23 16 -21 c17 -22 18 -22 105 -7 48 9 92 18 97 22 5 3 16 22 25 42 14 34 14 38 -2 49 -10 7 -34 13 -53 13 -27 0 -32 3 -21 10 8 5 39 10 68 10 55 0 112 22 112 43 -1 48 -18 66 -74 73 -17 2 -33 10 -38 17 -6 9 -8 9 -8 0 0 -8 -13 -13 -30 -13 -16 0 -30 -4 -30 -10 0 -12 -40 -34 -48 -26 -3 4 9 20 26 36 18 16 32 33 32 39 0 15 41 24 53 12 6 -6 33 -11 60 -11 40 0 60 7 104 36 29 19 61 46 69 60 9 13 22 24 30 24 28 0 24 22 -13 65 -26 30 -43 42 -55 39 -12 -4 -18 0 -18 10 0 20 -14 20 -30 1 -10 -12 -8 -16 10 -23 20 -7 21 -10 7 -15 -10 -4 -17 -15 -17 -25 0 -11 -7 -25 -15 -32 -15 -12 -21 -3 -39 53 -7 23 -43 22 -58 -2 -9 -15 -19 -18 -40 -14 -17 3 -28 1 -28 -5 0 -6 -10 -20 -21 -31 -13 -12 -19 -26 -16 -35 11 -28 -4 -44 -44 -51 -21 -4 -41 -11 -45 -16 -3 -5 -16 -6 -30 -3 -16 4 -38 0 -59 -12 l-34 -18 -31 29 c-16 16 -30 32 -30 36 0 4 15 21 33 39 28 27 37 31 70 27 41 -6 61 13 38 36 -6 6 -11 14 -11 18 0 10 58 20 107 19 44 -1 62 13 44 34 -13 16 -4 26 22 26 15 0 17 -3 8 -13 -8 -11 -6 -18 9 -32 18 -16 22 -16 57 -2 36 14 38 17 40 62 l2 48 -58 -6 c-56 -5 -58 -4 -68 24 -11 27 -15 29 -70 29 -42 0 -65 6 -83 20 -34 26 -63 25 -97 -4 -25 -22 -26 -27 -15 -45 19 -32 15 -44 -9 -30 -17 9 -24 7 -40 -10 -11 -12 -23 -21 -27 -21 -4 0 -12 -10 -17 -22 -6 -12 -19 -26 -30 -32 -11 -6 -36 -21 -56 -33 -39 -26 -37 -26 -134 32 -51 31 -110 33 -125 5 -14 -26 -5 -40 25 -40 32 0 40 -16 14 -30 -34 -19 -67 -4 -84 37 -8 20 -26 46 -40 59 -14 13 -28 37 -31 54 -8 37 -23 48 -38 28 -6 -8 -21 -20 -33 -27 -13 -6 -23 -18 -23 -26 0 -12 -14 -13 -77 -9 -83 6 -96 10 -74 24 8 4 12 17 8 29 -8 30 33 56 75 47 22 -4 37 -1 49 10 10 9 29 18 41 19 13 1 26 3 31 4 4 0 7 12 7 25 0 21 -9 27 -71 46 -80 24 -99 21 -99 -13 0 -13 -3 -27 -7 -30 -11 -11 -33 14 -33 38 0 18 -7 24 -32 27 -18 3 -40 8 -49 12 -10 4 -23 0 -34 -11 -17 -17 -19 -16 -34 6 -9 13 -32 38 -51 57 -32 31 -33 34 -13 34 12 0 25 -5 28 -10 4 -6 24 -22 46 -36 32 -20 43 -22 60 -13 15 8 24 8 32 0 14 -14 74 -14 82 -1 11 18 -5 48 -30 54 -31 8 -33 23 -2 22 20 -1 22 3 21 57 l-1 58 28 -6 c31 -7 89 18 89 39 0 7 -9 21 -20 31 -11 10 -20 25 -20 33 0 10 -7 12 -24 8 -23 -6 -24 -5 -13 23 12 34 -3 61 -34 61 -10 0 -23 9 -29 20 -7 14 -21 20 -43 20 -18 0 -41 6 -52 14 -27 18 -170 32 -179 17z"/>
 </g>
<g id="layer103" fill="#a8b38f" stroke="none">
 <path d="M7675 7854 c-13 -20 -19 -23 -25 -14 -7 11 -13 10 -34 -4 -48 -31 -23 -98 25 -68 15 10 23 7 44 -12 14 -13 25 -26 25 -29 0 -3 -27 -9 -60 -13 -33 -4 -60 -10 -60 -14 0 -4 -30 -10 -67 -13 -43 -4 -72 -12 -79 -22 -6 -8 -26 -18 -45 -21 -19 -3 -43 -10 -54 -14 -11 -5 -29 -10 -40 -12 -16 -3 -20 -11 -20 -38 0 -39 -8 -37 113 -24 57 6 62 5 62 -12 0 -11 14 -33 32 -49 31 -29 31 -30 9 -33 -13 -2 -28 -16 -37 -35 -14 -29 -14 -36 1 -69 8 -21 21 -38 28 -38 6 0 34 -11 61 -25 27 -14 56 -25 63 -25 8 0 -2 -14 -21 -31 -20 -17 -35 -34 -35 -37 2 -13 -1 -27 -9 -40 -11 -16 -42 -5 -42 16 0 13 -3 13 -19 -2 -16 -15 -18 -22 -8 -37 6 -10 18 -20 27 -23 9 -2 6 -4 -7 -5 -24 -1 -33 -34 -13 -46 14 -9 2 -45 -22 -68 -10 -10 -21 -32 -25 -48 -5 -25 -7 -27 -17 -14 -6 8 -33 23 -60 34 -39 14 -58 16 -98 9 -71 -13 -103 -8 -103 17 0 12 -6 19 -14 17 -7 -1 -19 2 -26 8 -9 8 -15 8 -20 0 -10 -15 4 -30 22 -23 11 4 14 2 11 -8 -3 -10 -22 -14 -60 -14 -69 0 -92 -17 -84 -60 4 -20 1 -38 -9 -50 -8 -11 -15 -30 -15 -42 0 -18 -6 -23 -24 -23 -14 0 -28 -5 -31 -11 -4 -6 -13 -8 -21 -5 -19 7 -44 -3 -44 -19 0 -20 19 -28 35 -15 10 8 15 8 20 0 4 -7 18 -10 32 -7 16 3 27 -1 30 -10 4 -11 15 -13 35 -9 18 4 38 0 54 -10 36 -24 29 -32 -24 -26 -47 4 -50 3 -72 -32 -17 -29 -21 -46 -16 -77 7 -42 -9 -54 -30 -21 -7 9 -28 26 -48 36 -35 19 -36 19 -56 1 -13 -12 -20 -29 -18 -44 2 -20 13 -28 58 -44 60 -20 66 -24 58 -33 -3 -3 -33 0 -67 7 -53 10 -61 15 -61 34 0 12 -7 28 -15 35 -14 12 -14 15 0 30 8 9 15 24 15 33 0 12 9 17 28 17 16 0 37 9 46 19 16 18 16 21 -2 58 -28 53 -65 85 -108 92 -48 8 -47 23 2 37 49 14 56 38 14 53 -35 12 -39 43 -6 49 24 5 56 38 56 60 1 23 61 53 83 41 22 -13 29 2 31 75 2 56 0 63 -15 59 -10 -3 -20 -11 -23 -18 -7 -19 -66 -28 -99 -16 -22 8 -35 8 -56 -4 -16 -8 -31 -12 -34 -9 -3 3 -16 -2 -30 -11 -23 -15 -25 -15 -30 6 -4 16 -9 19 -23 11 -13 -7 -24 -6 -40 5 -13 8 -32 12 -43 8 -10 -3 -22 -1 -26 5 -3 5 -1 10 4 10 6 0 11 5 11 10 0 14 -53 12 -69 -2 -11 -10 -14 -10 -18 0 -6 14 -32 16 -34 2 -2 -14 -5 -22 -14 -43 -5 -11 -2 -24 9 -36 20 -22 21 -75 1 -91 -19 -16 -19 -29 2 -52 15 -17 14 -18 -25 -18 -39 0 -72 -19 -72 -41 0 -6 5 -19 11 -30 10 -19 10 -19 40 2 17 12 31 20 33 18 1 -2 8 -23 15 -46 15 -55 43 -58 67 -8 9 19 20 32 26 29 11 -7 78 24 78 36 0 6 7 10 15 10 9 0 15 -9 15 -24 0 -14 6 -28 12 -33 13 -7 -15 -17 -87 -30 -39 -7 -52 -18 -71 -59 -13 -28 -14 -37 -4 -49 9 -11 16 -13 24 -5 13 13 66 13 66 0 0 -5 -9 -14 -20 -20 -26 -14 -25 -34 3 -49 18 -9 8 -11 -55 -6 -93 6 -128 -5 -128 -39 0 -13 7 -29 15 -36 8 -7 15 -25 15 -40 0 -16 -7 -30 -15 -34 -8 -3 -15 -12 -15 -21 0 -21 -17 -19 -30 5 -14 27 -34 25 -54 -5 -9 -14 -23 -25 -31 -25 -17 0 -20 -31 -5 -46 16 -16 -1 -54 -26 -60 -33 -8 -30 -16 16 -47 l40 -26 15 30 c9 16 17 29 18 29 1 0 2 -26 2 -58 l0 -57 -45 -2 c-31 -1 -48 4 -57 15 -12 16 -14 15 -31 -7 -18 -22 -20 -23 -50 -7 -41 21 -59 20 -74 -3 -18 -29 -53 -8 -67 39 -13 44 -25 49 -101 46 -50 -3 -55 -5 -52 -24 2 -16 -2 -22 -17 -22 -11 0 -26 -9 -33 -19 -8 -10 -25 -21 -38 -23 -19 -2 -25 -9 -24 -25 0 -13 -5 -23 -13 -23 -7 0 -13 -7 -13 -15 0 -9 8 -14 21 -12 12 1 24 -3 26 -9 4 -13 -28 -24 -74 -24 -23 0 -33 -5 -33 -15 0 -8 -4 -15 -10 -15 -5 0 -10 6 -10 13 0 7 -13 12 -30 13 -17 1 -37 9 -44 19 -9 12 -21 16 -39 13 -20 -4 -35 4 -73 39 -63 59 -79 55 -80 -22 -2 -81 3 -95 32 -95 24 0 24 -1 9 -30 -9 -16 -20 -30 -25 -30 -6 0 -18 -13 -28 -29 -14 -24 -19 -26 -30 -15 -11 12 -10 18 3 36 9 14 15 44 15 80 0 46 -4 60 -20 71 -12 8 -18 21 -15 29 8 21 -22 45 -37 30 -15 -15 -51 -15 -65 -1 -21 21 -25 -11 -4 -37 28 -35 27 -40 -9 -47 -33 -7 -74 -43 -65 -57 10 -15 51 -12 66 6 12 14 61 44 74 44 3 0 10 -12 16 -27 8 -22 7 -30 -7 -40 -12 -9 -15 -20 -10 -44 7 -38 -4 -55 -52 -74 -30 -13 -37 -13 -55 0 -12 8 -33 15 -48 15 -17 0 -29 7 -32 18 -4 9 -16 29 -28 44 -19 23 -21 31 -11 53 6 14 18 25 26 25 24 0 86 70 86 97 0 14 -6 23 -15 23 -8 0 -15 9 -15 19 0 21 -29 82 -45 93 -13 10 -45 0 -67 -20 -20 -17 -23 -10 -8 19 6 10 19 19 29 19 10 0 24 6 30 14 9 11 20 12 47 5 40 -12 54 -6 54 22 0 12 7 19 20 19 11 0 20 4 20 10 0 5 17 27 38 49 31 33 41 38 60 30 43 -17 26 -48 -40 -73 -41 -15 -48 -21 -48 -45 0 -15 -9 -36 -20 -46 -24 -21 -26 -57 -5 -75 12 -10 20 -6 45 22 l31 33 17 -23 c22 -29 56 -21 48 12 -3 11 2 30 10 40 17 24 18 61 3 105 -9 24 -9 35 0 44 18 18 13 55 -8 62 -10 3 -31 0 -45 -6 -23 -11 -31 -9 -56 9 -38 29 -58 28 -70 -3 -11 -29 -18 -30 -48 -9 -13 9 -31 13 -42 9 -12 -4 -20 -2 -20 5 0 6 -16 18 -36 26 -25 11 -34 20 -30 30 3 9 6 18 6 20 0 2 13 4 29 4 18 0 34 -8 43 -22 19 -28 42 -15 33 19 -4 16 -2 23 7 22 27 -3 36 2 41 21 3 14 10 18 21 14 9 -4 24 0 34 8 20 18 70 29 78 17 3 -5 13 -5 22 0 9 5 24 12 34 15 9 2 19 19 23 36 5 24 0 40 -25 80 -34 52 -47 60 -56 35 -4 -10 -16 -14 -33 -13 -21 3 -25 -1 -23 -18 1 -12 -4 -26 -12 -33 -17 -15 -65 -4 -73 16 -4 10 -23 14 -67 13 -131 -1 -130 -1 -139 53 -7 46 -6 50 28 89 43 51 47 93 11 102 -25 6 -52 0 -74 -17 -9 -7 -9 -13 -1 -24 7 -7 9 -16 6 -20 -4 -3 -16 6 -28 20 -27 36 -72 38 -67 4 4 -31 -54 -91 -71 -74 -14 14 -15 57 0 57 13 0 8 31 -6 32 -5 0 -17 -12 -25 -27 -10 -18 -32 -33 -70 -46 -65 -23 -66 -23 -50 -4 10 12 10 19 2 27 -16 16 -42 2 -42 -22 0 -36 -47 -70 -96 -70 -23 0 -46 5 -50 12 -5 8 -11 6 -20 -7 -9 -12 -21 -16 -39 -13 -31 6 -39 -4 -30 -39 5 -22 10 -25 35 -20 23 5 30 2 35 -13 3 -11 1 -28 -5 -40 -8 -15 -7 -27 5 -49 19 -38 19 -51 0 -51 -10 0 -15 10 -15 33 0 44 -14 56 -54 47 -21 -5 -42 -3 -57 5 -27 15 -60 3 -94 -35 l-20 -22 23 -15 c12 -9 22 -24 22 -33 0 -24 51 -36 80 -18 18 11 23 10 35 -6 10 -13 21 -17 38 -12 19 4 27 0 37 -19 9 -17 17 -22 24 -15 14 14 46 12 46 -3 0 -7 -21 -35 -46 -62 -40 -44 -45 -47 -39 -23 10 39 -2 66 -37 84 -39 20 -54 7 -34 -32 18 -32 6 -55 -18 -35 -25 21 -31 -8 -6 -32 l23 -20 -23 -9 c-24 -9 -60 13 -60 37 0 7 -7 15 -15 19 -9 3 -15 18 -15 38 0 25 -8 41 -30 60 -25 22 -29 32 -24 53 5 20 2 30 -14 41 -16 11 -20 21 -15 48 4 28 2 35 -16 41 -14 4 -21 15 -21 30 0 25 -33 51 -50 40 -6 -3 -10 -16 -10 -29 0 -12 -5 -27 -12 -34 -9 -9 -9 -18 0 -37 15 -32 7 -52 -30 -71 -28 -14 -29 -18 -26 -72 3 -47 0 -57 -14 -60 -11 -2 -18 3 -18 12 0 22 -15 28 -77 32 -48 3 -53 1 -42 -12 11 -13 9 -19 -11 -35 -14 -10 -28 -19 -32 -19 -14 0 -13 55 2 67 12 10 13 14 2 25 -11 11 -16 10 -27 -6 -8 -11 -21 -16 -30 -13 -19 8 -20 51 0 67 14 12 14 15 0 31 -13 14 -14 24 -7 52 8 28 7 37 -4 41 -8 3 -14 14 -14 26 0 11 -9 25 -20 32 -11 7 -20 21 -20 30 0 9 -8 22 -17 27 -16 9 -14 14 20 46 31 31 35 39 26 56 -8 16 -16 19 -45 13 -28 -5 -40 -2 -60 17 -29 27 -30 52 -5 102 l19 37 -24 0 c-16 0 -24 6 -25 18 -1 9 -2 28 -2 42 -2 27 -33 38 -65 24 -9 -4 -21 -8 -27 -8 -5 -1 -11 -10 -13 -21 -6 -29 -22 -45 -44 -45 -15 0 -18 3 -10 13 13 16 13 98 0 115 -17 20 -53 14 -81 -16 -33 -34 -37 -82 -7 -82 10 0 24 8 29 18 6 9 11 12 11 5 0 -6 -5 -15 -10 -18 -12 -7 -12 -91 -1 -120 9 -24 -26 -78 -46 -71 -12 5 -17 -4 -28 -61 -3 -17 -13 -34 -21 -37 -8 -3 -14 -19 -14 -36 0 -37 -18 -46 -60 -31 -25 8 -32 7 -36 -4 -3 -8 1 -22 10 -30 9 -9 16 -23 16 -32 0 -8 8 -28 17 -44 13 -22 14 -32 6 -40 -9 -9 -16 -9 -27 1 -21 17 -46 6 -46 -21 0 -12 -8 -23 -20 -26 -24 -6 -38 -52 -47 -145 -5 -57 -9 -68 -30 -77 -21 -10 -25 -8 -33 15 -6 14 -10 32 -10 39 0 17 -46 65 -63 65 -7 1 -2 9 11 19 28 24 27 34 -7 96 -21 37 -36 52 -60 59 -49 14 -60 -5 -29 -52 l26 -38 -30 -12 c-34 -12 -70 -1 -63 21 2 6 6 35 9 62 5 41 3 47 -7 34 -7 -9 -22 -19 -35 -23 -28 -9 -29 -42 0 -66 l22 -17 -22 -12 c-26 -14 -28 -43 -5 -67 17 -17 17 -18 1 -11 -14 5 -18 1 -20 -16 -1 -12 -2 -31 -3 -42 -4 -41 -18 -76 -29 -72 -6 2 -10 20 -8 41 5 57 -37 89 -68 51 -7 -8 -16 -15 -21 -15 -12 0 25 72 45 89 23 19 20 45 -9 92 -14 22 -33 69 -43 104 -15 60 -18 64 -50 70 -40 7 -66 -10 -58 -39 3 -11 1 -25 -5 -32 -13 -16 7 -29 24 -16 8 7 19 5 34 -8 30 -24 29 -27 -7 -22 -16 2 -41 1 -56 -2 -21 -6 -25 -11 -20 -30 4 -16 -1 -29 -14 -41 -11 -10 -20 -25 -20 -33 0 -11 -8 -13 -29 -9 -36 7 -43 1 -29 -27 25 -48 26 -54 15 -65 -9 -10 -8 -15 6 -25 22 -17 22 -32 -3 -63 -11 -14 -23 -43 -26 -65 -8 -46 -15 -52 -48 -37 -20 9 -29 9 -41 -1 -24 -20 -13 -34 31 -41 l39 -5 -30 -13 c-29 -12 -87 -22 -130 -21 -11 0 -31 0 -45 1 -13 0 -28 5 -32 12 -6 9 -11 9 -25 -1 -32 -22 -59 -30 -94 -29 -39 2 -49 25 -23 52 14 14 28 16 85 10 l68 -7 11 42 c15 55 6 80 -28 80 -47 0 -58 16 -21 29 18 6 29 14 25 18 -14 14 -101 31 -133 26 -37 -6 -39 -3 -18 37 13 25 20 29 43 24 19 -4 32 0 41 10 8 9 22 16 32 16 32 0 24 43 -10 58 -17 7 -32 23 -35 37 -4 15 -14 25 -25 25 -10 0 -29 9 -42 19 -22 17 -28 17 -49 5 -35 -19 -41 -17 -31 9 5 13 4 31 -2 44 -5 12 -6 30 -3 40 7 17 8 17 20 1 14 -19 51 -24 61 -8 10 16 -6 60 -26 70 -10 6 -42 12 -71 14 -29 2 -66 9 -81 15 -16 6 -33 9 -38 6 -5 -3 -8 -33 -7 -67 1 -50 5 -62 20 -66 19 -5 24 -17 9 -26 -14 -9 -20 -58 -12 -96 7 -36 3 -34 110 -61 29 -7 40 -14 33 -21 -12 -12 -121 19 -138 39 -9 11 -16 10 -35 -6 -22 -18 -23 -20 -8 -38 20 -22 14 -50 -7 -33 -16 15 -36 4 -33 -18 3 -27 -19 -72 -36 -72 -26 0 -18 -39 9 -46 30 -7 45 -47 35 -89 -4 -16 -7 -49 -8 -71 -1 -43 -3 -45 -74 -68 -10 -3 -15 -11 -11 -17 4 -6 10 -27 14 -45 7 -29 4 -36 -18 -52 -18 -14 -25 -28 -24 -50 1 -33 -25 -57 -69 -64 -21 -3 -24 -8 -24 -43 0 -34 -4 -41 -24 -45 -21 -4 -24 -11 -26 -60 -2 -30 -3 -63 -4 -72 -1 -10 -7 -18 -15 -18 -8 0 -16 19 -22 52 -7 43 -14 55 -37 66 -29 14 -33 32 -16 81 8 23 8 35 -1 46 -8 10 -8 19 -1 34 16 28 14 76 -4 91 -19 16 -35 4 -35 -27 0 -21 -3 -24 -22 -19 -13 3 -26 6 -30 6 -13 0 -9 42 9 89 l17 44 -45 38 -44 37 24 26 c33 35 22 57 -23 49 -41 -6 -47 7 -21 44 13 18 13 26 4 42 -10 16 -9 24 6 47 17 26 17 28 -1 41 -10 7 -25 13 -34 13 -8 0 -21 9 -28 20 -10 17 -10 21 2 26 9 3 18 15 22 26 3 11 21 26 40 34 19 8 34 20 34 28 0 7 9 21 20 31 47 42 10 67 -90 61 -38 -3 -75 -8 -80 -11 -12 -7 -40 12 -40 26 0 5 7 9 15 9 8 0 26 5 40 12 28 13 35 52 10 62 -8 3 -15 12 -15 21 0 20 -39 20 -46 0 -9 -21 -21 -19 -27 6 -3 12 2 28 12 38 10 10 20 24 23 31 2 6 19 15 37 18 35 8 56 38 41 61 -5 10 -17 8 -48 -8 -22 -11 -43 -25 -47 -31 -3 -6 -19 -17 -35 -25 -24 -12 -34 -13 -57 -3 -15 7 -32 18 -38 25 -8 10 -18 9 -47 -4 -21 -9 -38 -21 -38 -25 0 -4 -7 -8 -15 -8 -8 0 -15 8 -15 19 0 26 -27 48 -42 33 -7 -7 -24 -12 -39 -12 -18 0 -30 -6 -34 -19 -3 -10 -18 -23 -33 -27 -40 -11 -115 -4 -134 13 -20 17 -48 11 -48 -11 0 -29 11 -44 31 -39 10 3 19 0 19 -6 0 -6 11 -16 25 -21 21 -8 24 -14 19 -35 -5 -20 -1 -27 20 -36 32 -15 32 -21 1 -36 -22 -10 -27 -8 -39 9 -21 29 -61 17 -74 -22 -13 -37 -17 -37 -18 -5 -2 25 -47 78 -58 68 -3 -3 -12 0 -21 7 -30 25 -94 -10 -95 -52 0 -21 -30 -31 -64 -22 -24 6 -26 4 -26 -29 0 -26 5 -36 19 -40 12 -3 22 1 25 10 4 9 13 12 26 8 12 -4 27 -2 34 4 9 8 24 6 54 -7 45 -19 49 -33 11 -42 -16 -4 -27 -16 -34 -38 -8 -27 -14 -32 -30 -28 -11 3 -25 6 -31 6 -7 0 -14 9 -17 20 -3 11 -10 20 -16 20 -20 0 -12 -50 19 -115 36 -78 37 -84 5 -77 -22 4 -25 1 -25 -25 0 -36 -9 -46 -27 -32 -11 10 -13 -511 -13 -3180 l0 -3191 7907 0 c7338 0 7908 1 7925 17 10 9 33 16 50 15 33 -1 54 9 96 46 l22 19 0 2677 c0 1472 -3 2676 -8 2676 -16 0 -52 -32 -52 -45 0 -8 9 -20 20 -27 24 -15 27 -63 5 -72 -9 -3 -15 -18 -15 -38 0 -30 -39 -99 -40 -70 0 22 -40 14 -40 -8 0 -13 7 -20 19 -20 14 0 21 -8 23 -27 2 -23 8 -28 31 -28 19 1 27 -4 27 -17 0 -11 -5 -15 -14 -12 -14 5 -41 -16 -48 -38 -4 -10 -10 -10 -30 1 -34 17 -48 8 -48 -33 0 -18 -6 -41 -14 -52 -13 -17 -12 -22 17 -51 l31 -33 -31 0 c-39 0 -45 -9 -50 -71 -3 -35 2 -61 17 -91 26 -54 26 -58 -10 -58 -23 0 -30 -5 -30 -19 0 -10 -8 -21 -19 -24 -12 -3 -21 -17 -25 -41 -4 -22 -14 -39 -24 -42 -9 -3 -25 -10 -34 -15 -10 -5 -24 -9 -32 -9 -8 0 -22 -7 -31 -16 -15 -15 -18 -14 -46 12 -34 33 -37 44 -9 44 24 0 42 32 33 57 -3 10 -15 30 -25 45 -20 29 -20 73 -1 90 34 28 -4 48 -95 50 -27 1 -32 5 -30 22 4 27 43 33 68 11 17 -16 19 -15 34 8 25 37 11 57 -38 58 -22 0 -60 4 -84 7 l-43 7 37 37 c20 21 34 43 32 50 -2 6 -20 17 -39 24 -19 6 -33 17 -31 23 1 7 -2 20 -8 30 -12 24 12 36 42 20 11 -6 31 -8 44 -5 19 5 24 13 24 36 0 38 -23 50 -97 50 -41 0 -65 6 -82 19 -24 18 -24 19 -4 30 16 8 24 7 32 -3 11 -13 57 -18 155 -17 45 1 87 29 63 43 -8 4 -41 10 -73 14 -33 3 -69 13 -81 20 -12 8 -30 14 -40 14 -10 0 -25 15 -35 34 -15 31 -15 35 0 50 15 14 14 18 -8 41 -13 14 -32 25 -42 25 -10 0 -35 15 -56 34 -31 29 -35 37 -24 48 12 11 17 9 29 -9 18 -27 31 -29 62 -6 l24 16 -25 21 c-31 26 -44 89 -21 107 23 20 -10 41 -44 28 -42 -16 -48 -11 -49 32 -1 26 -9 48 -21 61 -20 20 -20 20 -27 -12 -4 -20 -13 -34 -26 -37 -14 -4 -20 -14 -20 -33 0 -15 -7 -33 -16 -41 -9 -8 -14 -22 -11 -37 5 -26 -5 -33 -55 -35 -49 -3 -50 -36 -1 -62 28 -15 38 -27 40 -47 2 -26 -1 -28 -37 -28 -21 0 -41 -3 -43 -7 -2 -5 -2 -27 1 -51 5 -48 23 -62 55 -43 16 11 22 10 35 -3 22 -21 -1 -50 -28 -36 -29 16 -63 13 -56 -5 3 -8 9 -21 12 -29 9 -24 -126 -38 -224 -23 -51 8 -52 7 -62 -20 -6 -15 -15 -36 -20 -45 -6 -10 -10 -22 -10 -28 0 -11 56 -11 80 1 9 4 24 1 35 -7 29 -22 63 -17 92 14 l26 27 -7 -30 c-10 -43 -31 -55 -82 -48 -44 6 -44 5 -44 -24 0 -37 22 -57 54 -51 31 6 43 -18 17 -32 -20 -10 -188 -16 -197 -7 -3 3 -19 1 -35 -5 -46 -16 -53 -78 -8 -78 10 0 19 -4 19 -9 0 -5 11 -12 24 -15 15 -4 28 -17 34 -36 17 -46 -8 -69 -85 -76 -65 -7 -73 -14 -73 -73 0 -19 -4 -22 -21 -18 -30 8 -33 -15 -9 -56 12 -20 20 -49 19 -64 -2 -15 5 -41 15 -56 17 -24 21 -26 35 -13 11 9 23 11 39 5 29 -11 28 -29 -2 -29 -18 0 -25 -7 -30 -27 -3 -16 -17 -40 -30 -55 -28 -32 -53 -28 -67 8 -11 30 -49 33 -49 4 0 -10 -7 -23 -16 -28 -10 -6 -14 -20 -12 -43 3 -33 4 -34 49 -33 43 0 47 -2 68 -38 l22 -38 -33 2 c-31 3 -33 1 -32 -29 2 -24 -3 -34 -18 -39 -17 -5 -19 -12 -15 -43 3 -20 8 -43 12 -53 4 -11 0 -18 -12 -22 -27 -9 -49 -72 -32 -92 10 -12 10 -17 0 -27 -10 -9 -16 -8 -27 8 -12 15 -14 35 -9 81 l6 62 -30 10 c-37 13 -38 16 -6 58 14 18 25 37 25 42 0 5 -16 22 -35 37 -29 21 -42 25 -68 19 -30 -6 -31 -6 -17 12 23 29 33 34 57 27 47 -11 63 103 17 121 -8 3 -14 16 -14 29 0 35 -16 44 -70 39 -48 -4 -61 3 -40 24 7 7 0 20 -20 39 -16 16 -30 32 -30 37 0 13 44 9 66 -6 11 -8 33 -16 49 -18 23 -2 30 -8 30 -25 0 -31 15 -41 22 -15 6 24 23 28 40 11 14 -14 47 -4 38 11 -3 5 -15 10 -25 10 -12 0 -20 8 -22 23 -2 15 -11 23 -28 25 -13 2 -33 10 -44 18 -11 8 -28 14 -38 14 -11 0 -18 7 -18 18 0 37 -25 55 -77 58 -54 2 -97 19 -88 35 10 15 65 11 71 -6 8 -20 44 -19 73 1 21 15 24 15 51 -11 33 -31 64 -30 68 4 6 40 -33 71 -90 71 -41 0 -48 3 -48 19 0 12 -18 31 -44 49 l-45 29 27 20 c26 19 26 20 9 46 -13 20 -26 27 -48 27 -25 0 -32 6 -45 37 -9 20 -25 44 -36 53 -15 12 -19 22 -14 38 9 27 22 28 29 4 5 -20 53 -36 100 -32 15 1 35 -4 43 -10 7 -7 14 -9 14 -6 0 4 9 2 20 -4 16 -9 22 -8 27 6 6 16 -7 31 -46 54 -12 6 -9 14 15 37 26 26 35 29 82 26 50 -3 51 -2 40 17 -7 11 -24 20 -37 20 -13 0 -41 5 -62 12 -32 9 -39 16 -39 37 0 15 8 31 20 39 45 28 0 89 -48 63 -17 -9 -21 -7 -26 12 -3 12 -23 36 -45 52 -40 30 -40 31 -34 81 4 38 2 54 -8 60 -26 16 -94 29 -124 24 -24 -5 -30 -10 -28 -30 2 -33 -17 -81 -29 -74 -6 4 -8 22 -5 40 7 39 6 39 -36 17 -18 -9 -45 -19 -61 -22 -35 -8 -45 -26 -17 -34 18 -4 20 -12 16 -72 -2 -37 -6 -70 -9 -73 -3 -3 -6 -15 -6 -27 0 -23 -25 -63 -34 -54 -3 3 -6 29 -7 58 -2 45 -6 54 -26 62 -28 11 -29 22 -2 66 26 42 13 65 -32 56 -29 -5 -29 -5 -19 22 6 15 8 36 5 46 -4 11 -2 19 5 19 8 0 10 9 6 25 -6 22 -2 27 24 36 16 6 30 17 30 24 0 18 -17 28 -25 16 -9 -15 -59 -38 -73 -33 -7 2 -12 9 -12 16 0 19 -37 49 -50 41 -6 -4 -8 -15 -5 -25 4 -13 -1 -22 -15 -30 -14 -8 -20 -21 -20 -45 0 -24 -5 -35 -15 -35 -9 0 -15 9 -15 22 0 11 -11 36 -25 54 -14 18 -25 37 -25 43 0 15 -50 51 -71 51 -10 0 -27 9 -37 20 l-19 21 -15 -23 c-8 -13 -18 -33 -22 -45 -4 -14 -15 -23 -27 -23 -31 0 -26 -58 6 -70 32 -12 34 -51 3 -65 -19 -8 -23 -18 -22 -50 0 -23 8 -56 17 -74 9 -19 17 -35 17 -37 0 -1 -15 -4 -32 -6 -29 -3 -33 -7 -33 -33 -1 -16 5 -40 12 -52 7 -13 10 -35 7 -52 -6 -28 -10 -31 -45 -31 -27 0 -39 -4 -39 -14 0 -8 5 -18 10 -21 17 -11 11 -43 -12 -59 -23 -17 -48 -6 -48 20 0 8 -11 19 -25 24 -14 5 -30 21 -37 35 -10 22 -8 30 11 56 18 24 20 33 11 45 -7 8 -19 14 -27 14 -8 0 -11 5 -8 10 9 14 -35 60 -57 60 -10 0 -18 4 -18 9 0 18 71 71 95 71 18 0 25 5 25 19 0 16 -7 19 -47 19 -27 1 -59 -6 -71 -14 -38 -25 -37 -9 2 46 20 27 36 60 36 71 0 20 -4 21 -47 15 -91 -14 -97 -13 -98 11 0 13 -4 23 -10 23 -5 0 -10 -10 -10 -23 0 -15 -7 -23 -23 -25 -26 -4 -31 -42 -7 -62 8 -7 15 -16 15 -21 0 -14 -22 -10 -41 7 -12 11 -27 14 -44 10 -23 -6 -26 -11 -24 -44 4 -79 2 -84 -31 -77 -17 4 -30 2 -30 -3 0 -5 -11 -13 -25 -16 -19 -5 -25 -13 -25 -33 0 -24 2 -25 39 -20 35 4 40 2 43 -17 2 -17 9 -20 33 -18 17 2 35 8 40 12 6 5 19 -1 31 -15 20 -22 20 -24 2 -39 -10 -9 -18 -23 -18 -32 0 -18 -21 -17 -113 6 -62 15 -81 8 -74 -28 7 -36 -10 -67 -28 -52 -8 6 -16 7 -19 2 -13 -21 -74 -23 -108 -4 -32 19 -34 19 -68 1 -19 -10 -52 -21 -72 -24 -24 -4 -38 -11 -38 -20 0 -22 -28 -18 -35 5 -4 12 -15 20 -29 20 -12 0 -27 5 -34 12 -15 15 -16 54 -2 63 19 12 10 49 -17 72 -14 13 -30 23 -35 23 -12 0 -10 84 4 98 19 19 -10 44 -44 37 -23 -5 -27 -4 -22 10 4 8 -1 24 -10 33 -14 17 -14 19 4 35 21 18 25 43 11 66 -9 13 -21 13 -81 -5 -24 -7 -24 -6 8 28 17 18 32 39 32 46 0 7 11 17 25 22 15 6 25 17 25 29 0 27 -15 34 -41 21 -17 -10 -21 -8 -26 9 -3 12 -9 21 -14 21 -5 0 -9 7 -9 16 0 9 -13 29 -30 44 -34 32 -38 48 -12 57 9 3 23 11 31 17 21 16 72 16 98 -1 21 -14 25 -14 43 2 17 15 24 16 47 6 17 -8 29 -9 36 -2 15 15 0 41 -23 41 -13 0 -20 7 -20 19 0 11 -11 42 -25 69 -20 40 -31 51 -57 57 -48 10 -97 11 -145 2 -52 -9 -50 5 7 46 42 30 50 56 25 77 -8 7 -15 22 -15 34 0 13 -11 33 -24 45 -37 35 -38 58 -5 95 16 18 26 36 22 40 -3 3 0 17 7 31 18 34 -1 56 -41 48 -16 -3 -29 -1 -29 4 0 5 -14 17 -31 27 l-32 19 23 17 c25 19 22 50 -5 50 -18 0 -20 23 -3 50 18 28 2 36 -33 16 -23 -14 -33 -15 -44 -6 -20 16 -35 4 -35 -28 -1 -26 -1 -26 -16 -7 -8 11 -20 19 -26 17 -6 -2 -26 11 -44 29 -26 25 -36 30 -47 21 -7 -6 -22 -9 -33 -6 -10 2 -26 0 -34 -5 -12 -9 -11 -15 9 -41 12 -17 20 -38 17 -45 -3 -8 -1 -17 5 -21 14 -8 -9 -34 -29 -34 -20 0 -82 68 -82 90 0 9 5 21 11 27 13 13 4 33 -17 33 -8 0 -14 9 -14 21 0 17 -5 20 -38 16 -30 -2 -46 -12 -78 -48 -36 -39 -40 -48 -36 -85 2 -24 -1 -45 -7 -48 -17 -11 -13 -44 6 -54 15 -9 15 -14 -5 -62 -12 -29 -22 -59 -22 -67 0 -7 -7 -16 -15 -19 -8 -4 -15 -17 -15 -30 0 -14 -7 -27 -15 -30 -20 -8 -47 15 -42 36 3 11 -2 16 -17 16 -19 -1 -21 4 -18 41 3 55 -20 71 -73 49 -41 -18 -45 -9 -10 24 14 13 28 38 31 57 3 18 10 36 15 39 16 10 9 43 -11 54 -22 12 -17 35 5 26 8 -3 19 10 29 35 18 45 34 46 54 6 7 -15 17 -27 22 -27 17 0 22 21 8 37 -7 9 -12 24 -10 34 2 12 -6 23 -22 30 -34 16 -107 -8 -121 -38 -5 -13 -16 -23 -23 -23 -7 0 -15 -8 -19 -17 -13 -38 -25 -45 -44 -27 -11 10 -19 23 -19 30 0 7 -9 15 -19 19 -14 4 -21 17 -23 43 -3 33 -6 37 -31 37 -21 -1 -26 3 -22 16 4 11 -1 22 -12 28 -17 9 -17 10 0 16 36 14 13 65 -29 65 -17 0 -23 -7 -26 -27 -2 -18 -10 -29 -23 -32 -11 -2 -33 -14 -48 -27 -16 -13 -37 -24 -47 -24 -15 0 -19 -12 -25 -76 -7 -81 5 -120 23 -73 6 13 15 36 21 52 13 34 36 37 27 2 -5 -18 -1 -28 14 -37 11 -7 20 -23 20 -35 0 -13 9 -28 20 -35 11 -7 20 -17 20 -21 0 -15 -64 -62 -103 -75 -34 -12 -42 -11 -64 3 -20 14 -31 15 -49 6 -32 -14 -31 -48 3 -83 l27 -29 17 32 16 32 0 -55 c0 -49 -3 -57 -23 -67 -13 -6 -24 -15 -24 -21 0 -5 -14 -10 -30 -10 -26 0 -33 -6 -52 -44 -11 -24 -18 -51 -15 -60 7 -18 42 -22 52 -6 3 6 13 10 22 10 8 0 27 8 41 19 43 29 87 34 108 10 20 -22 19 -23 -38 -54 -15 -9 -39 -32 -52 -52 -25 -36 -27 -37 -81 -34 l-56 3 16 -26 c13 -20 21 -24 35 -16 13 7 22 5 34 -9 9 -9 16 -21 16 -26 0 -5 7 -17 16 -26 15 -17 15 -20 0 -44 -22 -33 -41 -40 -75 -29 -20 7 -25 15 -23 33 3 16 -1 22 -10 19 -7 -3 -13 -11 -13 -19 0 -19 -15 -29 -47 -29 -17 0 -39 -12 -58 -30 -26 -26 -38 -30 -83 -30 -31 0 -62 -6 -74 -15 -12 -9 -27 -14 -33 -13 -17 4 -34 -26 -26 -47 5 -15 9 -15 22 -4 14 12 20 9 45 -21 33 -39 32 -44 -5 -30 -39 14 -92 12 -126 -5 -36 -19 -37 -31 -6 -69 19 -22 26 -25 32 -15 13 20 84 19 84 -2 0 -28 12 -29 42 -4 36 30 48 31 48 6 0 -31 19 -35 30 -7 7 19 16 25 32 23 18 -2 23 3 23 23 0 21 -5 25 -27 25 -15 0 -29 4 -30 9 -4 13 40 18 47 6 19 -31 75 14 75 60 0 39 15 38 53 -5 23 -27 33 -32 44 -24 7 6 13 18 13 25 0 8 8 23 17 34 17 19 17 19 30 -11 18 -42 39 -33 57 25 5 15 9 16 21 6 16 -14 35 -5 35 16 0 17 12 18 27 3 21 -21 34 1 27 47 -6 40 -4 44 14 44 24 0 34 -23 26 -57 -7 -25 -5 -25 28 -19 42 8 84 -16 58 -34 -11 -7 -12 -10 -2 -10 9 0 12 -10 10 -27 -2 -19 -10 -29 -28 -33 -18 -4 -29 -18 -42 -54 -21 -55 -17 -69 19 -60 21 6 24 4 21 -12 -2 -11 -12 -19 -23 -19 -14 0 -19 -7 -18 -22 1 -11 -4 -27 -12 -33 -8 -7 -15 -25 -15 -39 0 -15 -6 -36 -14 -46 -12 -17 -16 -18 -32 -5 -11 7 -7 1 9 -14 33 -33 33 -34 2 -46 -15 -6 -25 -17 -25 -29 0 -10 -9 -21 -21 -24 -30 -8 -23 -61 9 -65 27 -4 31 -49 5 -60 -71 -30 -109 -71 -83 -87 14 -9 12 -25 -2 -22 -8 1 -13 -11 -13 -37 0 -22 -5 -41 -12 -43 -8 -3 -13 4 -13 16 0 24 -19 70 -38 93 -12 14 -18 15 -29 7 -10 -9 -17 -8 -28 1 -8 6 -19 9 -25 5 -14 -8 -13 -48 2 -63 9 -9 7 -13 -5 -18 -31 -11 -37 6 -34 94 2 70 6 93 23 116 20 27 22 28 45 13 16 -11 29 -13 39 -7 27 17 67 12 73 -10 5 -21 31 -27 42 -10 4 6 2 17 -4 23 -5 7 -8 22 -5 34 7 24 -13 42 -22 20 -4 -11 -22 -14 -70 -14 -62 1 -80 9 -49 21 8 3 15 16 15 30 0 23 -2 23 -37 15 -63 -14 -83 -12 -83 12 0 12 8 23 20 26 10 3 22 14 25 24 9 27 28 12 22 -17 -3 -20 0 -24 19 -24 15 0 24 6 24 15 0 8 6 15 14 15 20 0 47 45 34 58 -7 7 -3 15 13 26 21 13 24 22 22 75 -2 66 9 81 60 81 26 0 55 25 43 37 -4 4 -29 9 -56 11 -40 3 -52 0 -67 -17 -9 -12 -29 -21 -43 -21 -29 0 -110 -36 -110 -48 0 -5 5 -13 12 -20 21 -21 -6 -34 -76 -37 -36 -2 -70 -6 -76 -10 -20 -12 2 -25 44 -25 52 0 60 -6 41 -34 -21 -29 -19 -83 4 -115 27 -37 13 -59 -20 -32 -22 17 -26 18 -41 4 -13 -12 -24 -13 -50 -5 -18 6 -56 13 -84 16 -42 5 -55 3 -77 -15 -31 -23 -34 -53 -13 -114 18 -52 51 -57 51 -7 0 64 68 30 77 -39 2 -16 -7 -37 -24 -57 -24 -29 -30 -31 -75 -26 -46 5 -49 4 -65 -28 -25 -47 -28 -84 -6 -80 23 4 52 -51 39 -75 -5 -10 -12 -26 -15 -35 -3 -10 -9 -18 -15 -18 -14 0 -21 41 -10 62 8 14 6 20 -8 25 -25 9 -33 24 -27 49 3 12 -1 26 -10 33 -20 16 -20 48 -1 81 22 38 19 97 -5 105 -22 7 -58 -9 -80 -35 -14 -17 -19 -17 -54 -5 -57 20 -66 33 -28 41 18 4 35 11 38 15 3 5 31 9 63 9 57 0 57 0 74 38 19 44 22 78 7 87 -5 3 -10 21 -10 40 0 19 5 37 10 40 19 12 10 31 -21 42 -17 7 -37 9 -45 6 -7 -3 -16 2 -20 10 -3 9 -28 24 -55 33 -60 22 -80 41 -53 50 11 4 26 13 34 19 8 7 24 15 35 17 24 4 36 60 21 96 -8 20 -5 27 18 45 19 15 25 27 21 40 -9 21 -28 22 -45 2 -7 -8 -16 -13 -20 -10 -4 2 -16 -2 -26 -10 -18 -14 -18 -15 5 -33 20 -16 21 -20 7 -25 -10 -4 -20 1 -27 15 -10 18 -12 19 -26 5 -14 -14 -18 -14 -39 0 -19 12 -22 19 -14 33 7 13 7 21 0 25 -13 8 -32 -4 -24 -16 3 -5 2 -23 -1 -40 -6 -26 -11 -30 -29 -25 -12 3 -32 -1 -44 -10 -12 -8 -31 -13 -41 -9 -29 9 -75 -5 -62 -18 18 -18 12 -37 -12 -37 -13 0 -28 5 -35 12 -9 9 -15 9 -24 -1 -11 -10 -10 -15 5 -25 9 -7 17 -25 17 -40 0 -25 -2 -27 -35 -20 l-35 6 0 -41 c0 -43 23 -101 40 -101 6 0 10 -11 10 -25 0 -58 54 -35 67 28 7 36 19 42 48 23 35 -23 54 -20 61 9 8 33 17 32 34 -7 7 -18 15 -35 17 -38 1 -3 -12 -13 -29 -23 -32 -18 -33 -18 -47 2 -18 27 -48 27 -57 -1 -7 -24 16 -48 47 -48 10 0 20 -11 23 -26 11 -43 48 -86 70 -80 19 5 66 -20 66 -35 0 -5 -24 -9 -53 -9 -51 0 -53 1 -62 32 -9 29 -17 34 -108 62 -67 21 -99 37 -103 49 -8 25 -31 5 -39 -33 -12 -54 1 -70 54 -70 37 0 52 -5 70 -24 l23 -24 -21 -12 c-12 -6 -30 -8 -41 -5 -14 4 -30 -4 -55 -30 -41 -41 -43 -69 -4 -73 16 -2 31 -12 37 -28 7 -13 18 -24 26 -24 9 0 16 -12 18 -27 3 -25 7 -28 38 -28 28 0 35 -4 35 -20 0 -17 -8 -20 -53 -23 l-54 -3 7 31 c6 28 4 32 -30 46 -27 11 -41 12 -48 5 -12 -12 -90 -15 -100 -4 -4 3 -30 7 -58 8 -31 1 -54 7 -60 16 -12 19 -11 29 2 29 5 0 30 9 55 21 48 21 53 40 13 49 -36 9 -36 36 1 55 41 21 37 49 -8 53 -18 2 -57 -6 -88 -17 -47 -17 -58 -18 -80 -6 l-26 13 40 7 c28 4 43 13 50 30 9 18 8 25 -4 29 -8 3 -14 14 -14 25 0 25 -47 81 -69 81 -9 0 -24 9 -34 20 -9 11 -27 20 -40 20 -19 0 -24 8 -35 52 -12 54 -8 76 10 45 9 -17 11 -17 28 -2 20 18 44 11 70 -19 7 -9 20 -16 29 -16 10 0 28 -11 41 -25 29 -31 53 -32 73 -2 12 16 16 18 16 6 1 -27 22 -39 45 -27 15 8 21 8 24 -1 6 -19 22 -12 32 15 12 29 34 27 38 -3 2 -13 -8 -31 -25 -47 l-28 -26 30 -25 c39 -32 50 -27 50 21 1 21 4 63 9 92 7 49 6 54 -13 59 -14 3 -21 13 -21 29 0 19 -7 24 -45 30 -50 7 -70 22 -27 20 15 -1 34 4 42 10 8 7 24 14 35 16 27 5 46 45 43 93 -3 40 -3 40 -53 48 -27 4 -71 5 -97 2 -27 -3 -48 -3 -48 0 0 3 7 17 17 31 20 31 8 45 -54 63 -40 11 -42 12 -36 46 5 33 4 35 -22 35 -15 0 -53 7 -84 15 -31 8 -83 13 -116 11 -54 -3 -60 -5 -68 -30 -12 -36 -3 -54 29 -58 15 -2 29 -9 32 -15 2 -9 -5 -11 -27 -7 -68 14 -81 -43 -23 -98 30 -28 48 -37 91 -42 49 -6 56 -5 82 20 l27 26 17 -32 c13 -25 21 -31 38 -26 15 3 29 -3 46 -19 l23 -25 -23 -20 c-33 -27 -92 -26 -119 2 -22 24 -128 67 -148 60 -7 -2 -12 -17 -12 -33 0 -16 -4 -29 -9 -29 -5 0 -18 -16 -30 -35 -25 -43 -35 -44 -54 -2 -25 54 -31 97 -13 97 23 0 39 38 31 77 -7 40 -27 51 -60 33 -19 -10 -27 -10 -39 -1 -21 18 -41 4 -24 -17 12 -13 10 -14 -9 -3 -19 9 -21 17 -16 44 7 42 18 53 36 39 11 -10 20 -8 39 7 19 15 28 17 37 8 20 -20 45 15 37 56 -7 37 -35 53 -65 38 -9 -5 -49 -9 -88 -9 -67 -1 -75 1 -98 25 -20 22 -27 25 -37 15 -10 -10 -10 -15 2 -22 25 -16 7 -18 -60 -9 -132 17 -141 20 -150 44 -7 19 -19 25 -66 31 -36 4 -66 14 -78 26 -12 11 -31 27 -43 35 -28 18 -29 44 -5 66 27 24 40 21 44 -10 3 -32 36 -44 50 -19 9 17 50 13 74 -6 6 -4 31 -7 55 -6 24 1 52 -2 61 -6 13 -6 20 -3 24 10 12 34 37 54 65 54 15 0 31 5 34 10 4 7 14 5 28 -5 36 -25 74 -19 92 15 16 31 29 37 41 19 3 -6 16 -8 29 -5 40 10 40 -22 0 -62 -35 -35 -40 -48 -29 -75 5 -13 9 -13 35 0 18 9 28 21 25 28 -3 8 5 16 19 19 26 7 32 28 43 146 10 101 5 129 -24 140 -13 5 -31 7 -39 4 -19 -7 -20 -66 -2 -94 17 -28 -6 -43 -53 -34 -57 10 -159 16 -253 15 -65 -1 -94 -5 -114 -18 -20 -13 -28 -14 -31 -5 -2 7 -24 37 -49 67 -26 32 -47 70 -50 90 -3 21 -12 37 -24 40 -32 10 -10 35 31 35 41 0 64 18 54 43 -9 24 -28 27 -80 11 -52 -15 -67 -29 -58 -56 4 -13 1 -16 -11 -12 -24 9 -35 38 -35 87 0 43 1 45 33 50 17 2 37 1 43 -4 16 -13 127 1 147 18 15 15 17 15 17 0 0 -10 7 -17 15 -17 9 0 15 10 15 26 0 22 3 25 23 20 16 -4 28 1 40 14 9 11 25 20 36 20 10 0 21 6 24 14 3 8 16 16 29 18 15 2 23 10 23 22 0 17 -7 20 -43 21 -24 1 -55 -5 -69 -12 -14 -7 -40 -13 -58 -13 -18 0 -38 -7 -45 -15 -11 -13 -15 -12 -31 9 -12 15 -18 37 -17 57 2 26 -1 34 -16 37 -11 2 -26 11 -34 19 -10 10 -24 12 -41 8 -14 -3 -41 -9 -58 -12 -18 -3 -33 -9 -33 -15 0 -5 -12 -20 -26 -33 -24 -23 -25 -25 -9 -49 13 -20 14 -29 5 -46 -6 -12 -9 -28 -6 -36 7 -18 -35 -47 -48 -34 -6 6 -11 46 -12 89 -2 85 -9 108 -27 93 -7 -5 -27 -12 -44 -15 -25 -5 -33 -3 -33 8 0 8 6 15 14 15 10 0 14 11 12 41 -2 38 -6 43 -39 58 -36 15 -47 37 -28 57 5 5 11 29 13 54 2 37 0 46 -18 55 -19 10 -20 12 -6 33 9 14 10 22 3 22 -17 0 81 96 106 104 12 4 25 16 28 27 4 10 12 19 20 19 14 0 45 -42 45 -62 0 -8 7 -24 17 -37 15 -23 17 -23 30 -6 7 11 13 29 13 41 0 17 4 21 20 17 11 -3 20 0 20 6 0 20 -34 51 -57 51 -13 0 -23 5 -23 10 0 6 4 10 10 10 5 0 7 7 4 15 -4 9 3 16 20 21 30 7 47 -1 40 -20 -6 -15 21 -46 40 -46 14 0 42 28 35 34 -2 1 -15 10 -29 19 -15 10 -19 17 -10 17 8 0 -2 12 -23 27 -42 30 -49 66 -16 83 16 9 18 14 8 26 -9 12 -9 20 1 38 14 27 6 61 -15 70 -8 3 -27 1 -43 -3 l-29 -9 14 28 c7 15 20 31 28 34 22 8 18 44 -6 51 -12 4 -40 4 -64 0 -38 -5 -45 -3 -55 14 -12 24 -33 27 -49 7 -12 -14 -57 -10 -67 5 -10 17 -32 9 -49 -17z"/>
 </g>
<g id="layer104" fill="#e6e3ca" stroke="none">
 <path d="M3318 7015 c-7 -16 -22 -28 -41 -32 -25 -5 -28 -9 -22 -31 4 -15 15 -32 25 -39 18 -13 18 -14 -4 -38 -24 -26 -50 -32 -61 -15 -7 12 -25 4 -25 -11 0 -5 8 -13 18 -16 9 -4 32 -18 50 -32 33 -24 33 -25 14 -40 -11 -9 -22 -27 -24 -41 -2 -19 -10 -26 -31 -28 -23 -3 -28 -8 -24 -23 3 -10 1 -22 -4 -25 -5 -3 -9 -14 -9 -25 0 -23 -11 -24 -50 -4 -35 18 -36 23 -13 40 27 20 9 48 -26 40 -17 -3 -32 -2 -36 4 -11 19 -25 12 -25 -13 0 -17 -7 -26 -25 -30 -18 -5 -25 -13 -25 -31 0 -13 5 -27 10 -30 18 -11 11 -45 -8 -45 -26 0 -34 -11 -20 -28 10 -11 8 -16 -6 -24 -12 -7 -16 -19 -14 -41 3 -27 -1 -33 -21 -35 -29 -4 -51 20 -51 55 0 31 -39 65 -68 60 -17 -3 -22 -1 -18 10 3 8 6 21 6 29 0 8 9 14 20 14 23 0 25 17 8 55 -14 31 -45 33 -50 3 -2 -14 -18 -31 -43 -45 -35 -20 -41 -21 -51 -8 -10 13 -12 12 -17 -6 -3 -12 -2 -30 4 -40 14 -27 12 -29 -26 -29 -39 0 -40 -3 -25 -68 10 -43 -3 -122 -20 -122 -15 0 -30 28 -24 44 4 11 -3 21 -25 33 -21 12 -33 28 -37 51 -5 25 -11 32 -30 32 -13 0 -24 3 -24 7 0 3 15 34 34 68 30 54 33 66 22 86 -6 13 -22 26 -35 27 -13 2 -26 12 -28 23 -6 20 -45 35 -63 24 -6 -4 -10 -16 -8 -28 2 -15 -4 -23 -22 -27 -28 -7 -43 -52 -41 -126 1 -29 -4 -44 -15 -48 -10 -4 -13 -13 -9 -25 4 -14 0 -21 -14 -26 -21 -6 -34 -41 -46 -120 -6 -37 -10 -41 -53 -56 -42 -14 -47 -18 -44 -43 3 -25 1 -26 -18 -16 -28 15 -34 -4 -22 -68 l9 -50 -33 1 c-73 2 -87 -55 -24 -98 43 -30 57 -72 20 -62 -10 3 -27 -1 -37 -8 -16 -12 -16 -16 -3 -40 13 -24 13 -28 -3 -36 -9 -6 -17 -21 -17 -34 0 -13 -3 -31 -6 -39 -5 -14 -9 -13 -25 5 -11 12 -19 30 -19 40 0 10 -13 28 -30 40 l-29 22 19 25 c11 14 20 40 20 60 0 30 3 34 21 29 46 -12 36 56 -16 106 l-35 34 25 24 c13 13 25 34 25 46 0 12 5 25 10 28 15 9 12 25 -5 32 -9 3 -24 -2 -34 -11 -13 -12 -43 -19 -98 -22 -72 -5 -77 -4 -59 10 11 9 23 16 27 16 12 0 50 71 44 81 -4 5 -21 9 -39 9 -19 0 -39 7 -46 15 -11 13 -8 15 14 15 14 0 35 9 46 20 11 11 24 20 30 20 12 0 30 33 30 54 0 11 -10 16 -34 16 -39 0 -52 20 -34 50 17 26 5 35 -50 37 -26 1 -74 8 -107 16 -63 15 -87 9 -66 -17 16 -19 6 -53 -18 -61 -20 -6 -45 -51 -36 -65 3 -5 1 -11 -5 -15 -17 -11 -11 -25 11 -25 14 0 19 -5 16 -14 -7 -19 20 -55 50 -67 14 -5 21 -14 17 -20 -4 -8 -9 -8 -17 0 -6 6 -15 11 -19 11 -14 0 -47 -86 -42 -107 4 -14 -5 -22 -36 -36 -25 -11 -38 -22 -34 -29 19 -30 13 -68 -15 -96 -29 -28 -33 -53 -19 -112 3 -16 -22 -18 -74 -5 -27 7 -28 6 -28 -38 0 -35 -4 -46 -19 -50 -14 -3 -20 -17 -25 -53 -10 -80 -12 -88 -24 -109 -10 -18 -12 -17 -28 20 -9 22 -16 52 -15 68 1 21 -3 27 -19 27 -23 0 -35 36 -26 80 4 23 1 33 -13 42 -18 11 -18 13 6 59 20 41 22 52 12 71 -12 23 -13 23 -26 -9 -13 -34 -27 -41 -39 -22 -3 6 -15 8 -26 5 -18 -4 -20 -1 -14 33 3 21 13 51 21 67 8 16 15 32 15 36 0 13 -44 48 -61 48 -15 0 -29 19 -29 39 0 5 12 20 26 34 14 14 23 31 19 37 -5 9 -10 9 -18 1 -12 -12 -60 -15 -70 -5 -8 8 11 45 31 60 17 12 8 34 -14 34 -12 0 -12 4 1 31 18 33 14 59 -8 59 -8 0 -22 9 -32 20 -18 20 -18 21 6 47 29 33 66 73 96 105 25 26 30 54 11 60 -7 2 -43 3 -79 2 -65 -2 -109 -16 -109 -34 0 -6 -4 -10 -10 -10 -5 0 -10 8 -10 19 0 25 -25 45 -50 38 -15 -4 -20 0 -20 14 0 17 -60 89 -75 89 -3 0 -17 -7 -30 -16 -28 -18 -32 -39 -11 -51 7 -4 17 -22 20 -38 6 -27 2 -34 -25 -54 -30 -22 -33 -23 -45 -7 -20 28 -47 15 -59 -26 -13 -47 -17 -50 -46 -40 l-23 9 22 12 c29 15 28 32 -3 61 -16 15 -25 19 -25 10 0 -7 -7 -22 -17 -32 -13 -15 -14 -23 -5 -44 7 -13 12 -46 12 -72 0 -27 5 -53 12 -60 9 -9 9 -15 0 -24 -7 -7 -12 -19 -12 -28 0 -22 -36 -54 -49 -45 -6 3 -11 17 -11 30 0 22 -22 40 -34 28 -9 -9 -76 -11 -82 -1 -3 4 0 24 7 43 12 33 11 35 -22 67 -20 18 -55 42 -79 53 l-42 19 -19 -23 c-15 -18 -16 -27 -8 -43 10 -19 9 -20 -12 -14 -54 15 -89 18 -89 7 0 -6 13 -37 28 -69 46 -94 46 -95 16 -89 -18 3 -27 0 -31 -12 -3 -9 -16 -38 -29 -64 l-24 -49 0 -3144 0 -3144 7733 0 c7721 0 7732 0 7745 20 9 15 23 20 53 20 23 0 65 7 94 16 30 8 60 14 67 13 7 -1 33 3 57 10 23 7 45 10 48 7 3 -3 15 1 27 9 11 8 34 15 51 15 17 0 46 11 65 25 18 13 36 22 40 20 4 -3 10 5 14 18 9 34 5 5128 -4 5157 -7 23 -8 23 -9 4 -1 -12 -8 -24 -16 -28 -9 -3 -15 -18 -15 -39 0 -18 -4 -37 -9 -42 -5 -6 -11 -32 -13 -60 -3 -44 -1 -50 17 -50 20 0 35 -12 35 -28 0 -5 -8 -7 -17 -6 -33 3 -42 -1 -48 -21 -5 -15 -14 -19 -38 -17 -29 2 -32 -1 -35 -28 -1 -16 -8 -40 -14 -53 -10 -19 -8 -26 15 -50 34 -36 34 -43 -1 -36 -35 7 -48 -7 -56 -66 -5 -37 -2 -53 19 -89 33 -57 32 -71 -5 -71 -32 0 -36 -9 -19 -43 12 -22 12 -22 -9 -3 -30 26 -52 14 -54 -31 -1 -21 -2 -48 -3 -60 -1 -31 -15 -41 -26 -20 -8 14 -18 16 -47 11 -49 -8 -68 -31 -46 -55 15 -17 15 -19 0 -35 -14 -13 -19 -14 -32 -3 -10 8 -12 15 -4 23 19 19 10 44 -25 75 l-35 30 30 22 c40 30 44 46 21 84 -10 18 -19 50 -19 70 0 50 -21 69 -77 70 -48 0 -54 9 -34 46 9 17 19 20 57 17 36 -2 47 0 47 12 0 11 -24 18 -99 27 -54 7 -101 15 -104 18 -3 3 9 10 27 16 17 6 36 20 42 31 9 16 4 25 -30 58 -40 39 -71 60 -90 60 -5 0 -23 -14 -40 -30 -33 -34 -51 -24 -25 15 11 17 25 25 46 25 28 0 30 2 26 30 -6 37 4 38 35 4 20 -21 28 -24 44 -15 14 7 23 7 30 0 16 -16 57 -6 61 14 6 30 -17 47 -64 47 -23 0 -46 -5 -49 -10 -4 -6 -17 -3 -35 10 -15 11 -33 20 -39 20 -5 0 -14 8 -20 17 -8 14 -4 20 21 30 26 11 34 11 47 -1 10 -9 26 -13 40 -9 12 3 33 0 47 -8 20 -10 31 -10 58 -1 19 7 40 11 48 10 7 -2 13 3 13 11 0 9 -17 15 -55 18 -30 2 -75 13 -99 24 -29 13 -53 18 -72 14 -20 -5 -38 -1 -54 9 -50 33 -77 12 -50 -40 25 -48 14 -76 -22 -55 -13 7 -23 4 -39 -12 -43 -43 -54 -49 -67 -38 -7 5 -22 8 -32 6 -11 -2 -23 -4 -27 -4 -5 -1 -8 -10 -8 -20 0 -14 5 -18 20 -14 17 5 20 0 20 -26 0 -17 0 -34 1 -38 2 -18 -19 -11 -30 10 -16 30 -101 54 -101 29 0 -9 7 -23 16 -33 8 -9 16 -29 18 -44 2 -15 7 -30 12 -33 10 -7 34 -57 34 -70 0 -4 -11 -7 -24 -7 -22 0 -24 3 -19 29 l6 28 -44 -7 c-56 -9 -69 -21 -43 -40 10 -8 25 -15 32 -15 16 0 16 -30 -1 -30 -7 0 -22 7 -33 15 -10 8 -33 15 -51 15 -34 0 -60 20 -74 57 -7 19 -15 23 -46 22 -21 -1 -52 1 -68 5 -25 6 -35 3 -58 -20 -32 -32 -35 -48 -7 -41 11 3 23 1 26 -5 3 -5 17 -13 30 -18 14 -6 27 -18 31 -27 3 -10 13 -26 22 -36 14 -17 13 -20 -14 -42 -17 -13 -36 -24 -42 -25 -7 0 -13 -11 -13 -25 0 -14 -7 -37 -16 -50 -12 -19 -14 -28 -5 -38 22 -27 0 -24 -27 3 -22 22 -36 27 -67 25 -45 -3 -59 -27 -27 -44 14 -7 22 -26 27 -60 8 -60 29 -94 44 -71 8 12 13 12 23 2 6 -6 24 -12 40 -12 23 0 28 5 34 37 9 47 36 97 55 101 12 2 39 -38 39 -59 0 -4 -14 -12 -30 -19 -28 -12 -29 -14 -15 -30 19 -21 19 -40 0 -40 -9 0 -15 -9 -15 -22 0 -13 -5 -30 -10 -38 -8 -12 -13 -11 -33 8 -13 12 -33 22 -45 22 -18 0 -22 -6 -22 -30 0 -19 7 -34 20 -42 27 -17 25 -27 -5 -38 -39 -15 -125 6 -125 30 0 30 -15 31 -40 5 -18 -20 -21 -28 -12 -37 7 -7 12 -20 12 -31 0 -18 8 -18 57 0 6 2 14 -6 18 -19 4 -13 12 -26 18 -30 6 -3 12 -12 13 -20 1 -7 5 -20 8 -29 6 -12 0 -14 -30 -11 -34 4 -36 3 -32 -19 3 -13 9 -32 13 -43 7 -16 5 -17 -23 -11 -30 6 -32 5 -32 -23 0 -16 9 -41 20 -55 26 -32 25 -37 -4 -37 -34 0 -61 -43 -45 -72 10 -18 8 -24 -7 -35 -17 -12 -22 -11 -42 13 -17 20 -22 33 -17 55 5 20 3 29 -6 29 -7 0 -3 11 11 25 21 23 22 25 5 31 -10 4 -26 2 -37 -5 -15 -9 -23 -9 -34 0 -22 18 -17 37 15 53 77 40 42 121 -50 114 -23 -2 -43 2 -45 7 -4 12 42 47 65 49 31 4 71 29 71 46 0 26 -42 50 -65 38 -16 -10 -17 -8 -12 20 7 34 -16 62 -51 62 -26 0 -32 -10 -34 -55 -1 -30 -5 -35 -22 -33 -17 2 -20 -2 -18 -22 1 -14 -4 -30 -13 -37 -13 -9 -14 -16 -6 -31 11 -20 4 -62 -10 -62 -5 0 -9 9 -9 20 0 10 -9 24 -19 30 -20 10 -25 61 -8 87 7 11 -46 73 -63 73 -4 0 -11 15 -14 34 -6 29 -10 33 -31 28 -17 -3 -27 1 -31 13 -5 12 -9 13 -14 5 -6 -9 -13 -9 -29 1 -23 15 -25 26 -11 63 13 36 26 32 40 -9 13 -40 13 -40 41 -23 17 11 22 10 30 -4 5 -10 17 -14 29 -11 15 4 20 0 20 -15 0 -12 -7 -25 -17 -30 -10 -6 -14 -16 -9 -27 5 -14 9 -15 22 -5 8 7 13 19 10 26 -3 9 9 15 39 20 24 3 52 12 62 20 16 12 16 15 3 24 -8 5 -32 10 -53 10 -21 0 -47 5 -57 10 -18 10 -18 12 -2 40 13 23 14 32 4 42 -10 10 -15 9 -28 -4 -13 -13 -20 -14 -35 -5 -15 9 -23 9 -37 -1 -47 -34 -57 -28 -57 31 l0 42 -40 0 -40 0 0 43 c0 24 4 46 8 49 4 2 5 14 2 24 -4 11 -1 26 5 34 10 12 9 15 -8 15 -27 0 -44 -24 -40 -57 3 -24 -1 -28 -21 -28 -26 0 -39 -19 -22 -30 23 -13 10 -33 -23 -37 -34 -4 -35 -3 -42 36 -3 22 -13 50 -20 62 -12 18 -12 25 0 50 8 16 29 37 46 47 37 22 35 41 -6 42 -24 0 -31 6 -38 32 -6 21 -18 34 -33 38 -34 8 -28 22 12 29 37 7 53 22 38 37 -6 6 -26 6 -54 0 -57 -13 -79 4 -61 44 17 38 5 48 -28 24 -15 -12 -33 -20 -38 -18 -17 6 15 41 40 44 41 5 78 24 78 40 0 22 -24 29 -51 15 -18 -10 -24 -9 -31 4 -5 9 -17 16 -26 16 -15 1 -15 2 -2 13 16 13 24 52 15 74 -7 20 -50 -11 -65 -47 -13 -31 -7 -50 16 -50 22 0 17 -24 -11 -48 -14 -12 -25 -29 -25 -38 0 -8 -5 -12 -10 -9 -8 5 -7 11 0 20 12 15 6 35 -11 35 -5 0 -14 -10 -18 -22 -9 -22 -10 -21 -25 15 -9 21 -20 36 -25 33 -4 -3 -13 10 -19 29 -9 31 -8 35 7 35 30 0 51 33 51 78 0 37 3 42 23 42 21 1 21 1 4 15 -12 9 -18 23 -15 42 3 25 0 28 -26 25 l-28 -3 20 28 20 28 -26 13 c-32 15 -59 16 -67 2 -3 -6 -17 -7 -30 -4 -54 13 -81 -19 -51 -59 8 -10 12 -26 9 -36 -2 -9 3 -23 11 -30 9 -8 16 -22 16 -33 0 -16 -3 -17 -21 -8 -11 7 -27 9 -35 6 -23 -9 -17 -65 11 -98 14 -16 25 -33 25 -37 0 -18 -38 -40 -65 -38 -27 2 -30 -1 -28 -28 3 -48 -5 -72 -26 -78 -17 -4 -19 -11 -16 -43 4 -35 4 -36 -4 -8 -12 48 -40 87 -77 112 -39 26 -42 44 -14 90 21 35 19 52 -6 52 -11 0 -13 6 -9 20 4 14 1 22 -12 27 -10 4 -23 13 -29 21 -9 12 -15 12 -33 3 -19 -11 -26 -9 -47 14 -30 33 -31 42 -1 23 19 -13 25 -13 47 1 59 37 91 91 54 91 -19 0 -74 -31 -74 -42 0 -20 -18 -5 -23 18 -3 18 0 27 12 31 23 9 70 65 71 85 0 25 -32 30 -81 14 -24 -8 -57 -16 -73 -18 -41 -4 -43 -24 -7 -46 27 -16 29 -21 18 -37 -12 -15 -18 -16 -50 -6 -20 7 -41 10 -47 6 -17 -11 -11 -43 10 -50 21 -7 28 -25 10 -25 -5 0 -10 -9 -10 -19 0 -11 -4 -23 -10 -26 -18 -11 -10 -41 19 -69 25 -24 32 -26 51 -16 12 6 24 10 26 8 2 -3 -13 -13 -34 -24 -36 -20 -37 -21 -36 -77 l1 -57 -36 6 c-49 9 -52 12 -49 42 3 24 -1 27 -40 33 -47 6 -50 4 -69 -51 -15 -42 1 -83 34 -88 19 -3 22 -9 20 -43 -1 -30 -6 -40 -22 -45 -27 -9 -36 -24 -24 -46 12 -22 47 -23 70 -2 10 9 23 13 29 9 8 -5 2 -13 -17 -24 -41 -26 -59 -64 -45 -96 6 -14 19 -25 29 -25 12 0 14 -3 6 -11 -13 -13 -54 -2 -52 14 3 28 -3 35 -31 39 -20 3 -35 -1 -46 -13 -15 -16 -13 -19 16 -34 21 -11 30 -21 26 -31 -3 -9 -6 -18 -6 -20 0 -2 -9 0 -20 6 -69 35 -64 36 -75 -20 -4 -23 -1 -48 10 -72 12 -30 13 -42 4 -57 -10 -15 -6 -29 24 -84 21 -36 37 -68 37 -71 0 -3 -12 -1 -26 4 -34 13 -42 7 -36 -30 4 -26 1 -30 -18 -30 -20 0 -22 -4 -17 -35 3 -21 2 -33 -4 -30 -5 4 -9 15 -9 25 0 10 -4 22 -10 25 -5 3 -10 23 -10 44 0 20 -5 42 -12 49 -9 9 -9 17 2 36 7 15 10 39 7 60 -3 20 -1 38 4 41 12 8 12 142 0 150 -6 3 -15 -4 -21 -15 -15 -29 -27 -25 -80 24 -40 37 -54 44 -104 50 l-58 8 28 29 c15 16 36 29 45 29 10 0 26 12 37 27 16 22 23 25 34 15 14 -11 28 -7 28 9 0 5 -15 15 -34 24 -18 9 -43 26 -55 38 l-20 23 27 -1 c41 0 37 36 -6 47 -21 6 -36 18 -42 33 -7 18 -19 25 -53 30 l-44 7 23 44 c13 25 24 49 24 54 0 5 -13 18 -30 30 -46 33 -209 37 -196 5 2 -7 2 -16 -2 -20 -3 -3 -5 -20 -4 -38 2 -26 -6 -41 -40 -77 -32 -34 -47 -60 -58 -104 -20 -75 -36 -82 -46 -21 -4 29 -13 49 -23 53 -9 3 -27 14 -41 24 -18 13 -38 17 -70 14 -24 -2 -57 1 -72 6 l-28 10 25 30 c29 34 31 50 9 72 -21 21 -27 20 -61 -8 -15 -13 -36 -25 -46 -27 -24 -5 -21 -25 4 -22 13 2 19 -3 19 -17 0 -11 -6 -20 -12 -20 -24 -1 -51 -49 -44 -78 13 -54 12 -57 -17 -55 -21 1 -31 -4 -39 -23 -11 -24 -18 -26 -99 -27 -56 0 -68 8 -75 53 -6 37 -9 41 -33 38 -20 -2 -27 -9 -29 -29 -2 -14 4 -31 12 -39 29 -23 17 -31 -43 -25 -64 6 -88 -8 -56 -31 14 -10 16 -21 11 -49 -6 -31 -9 -34 -26 -25 -11 6 -20 21 -20 33 0 12 -9 28 -20 35 -12 7 -20 23 -20 41 0 35 -26 101 -40 101 -6 0 -10 -19 -10 -42 0 -35 -6 -49 -33 -74 -17 -18 -41 -33 -52 -36 -15 -2 -20 -11 -20 -33 0 -40 -23 -74 -47 -67 -10 2 -28 -4 -38 -13 -22 -19 -27 -45 -9 -45 6 0 9 -14 7 -32 -4 -44 -31 -49 -51 -9 -13 26 -13 32 -1 39 7 4 17 29 20 54 5 38 2 53 -15 81 -37 60 -113 76 -119 25 -2 -20 3 -30 20 -39 13 -6 25 -13 27 -15 2 -2 -9 -20 -25 -41 -16 -21 -29 -47 -29 -57 0 -11 -6 -21 -13 -24 -9 -3 -11 3 -6 22 5 22 3 26 -14 26 -26 0 -62 -57 -63 -101 -1 -19 -3 -26 -6 -17 -5 18 -52 53 -60 44 -12 -12 20 -66 38 -66 12 0 19 -7 19 -19 0 -11 3 -26 6 -34 4 -11 -2 -16 -18 -19 -15 -2 -24 -11 -26 -25 -4 -26 -14 -29 -31 -10 -6 8 -23 12 -43 9 -26 -4 -36 0 -54 24 l-23 28 -56 -30 c-48 -25 -58 -27 -65 -14 -21 37 -37 50 -66 56 -28 5 -32 3 -43 -26 -7 -21 -7 -38 -1 -50 5 -9 7 -34 3 -54 -5 -33 -9 -37 -32 -34 -20 2 -27 -3 -35 -24 -11 -32 -8 -37 25 -40 18 -2 23 1 21 14 -2 12 2 16 13 12 20 -8 19 -30 -2 -52 -17 -17 -20 -17 -60 12 -54 40 -58 50 -28 80 30 31 32 52 4 66 -20 11 -20 11 3 34 13 12 30 25 39 28 25 10 33 57 13 79 -23 26 -34 15 -34 -32 0 -37 -1 -39 -16 -25 -8 9 -19 16 -24 16 -5 0 -17 14 -25 31 -13 24 -14 37 -6 61 7 20 7 36 0 49 -12 24 -20 24 -52 -1 l-25 -20 -6 26 c-4 14 -4 29 0 35 9 15 -16 39 -42 39 -31 0 -30 17 0 49 21 22 23 32 17 61 -4 22 -15 39 -31 47 -21 10 -22 13 -7 19 23 8 21 26 -4 42 -16 11 -18 16 -9 27 10 12 9 16 -5 21 -9 4 -21 2 -28 -5 -16 -16 -38 -13 -66 8 -21 16 -21 19 -6 24 9 4 21 4 26 1 14 -8 69 19 69 34 0 31 -31 71 -65 82 -19 6 -35 16 -35 20 0 5 -6 7 -14 4 -15 -6 -32 29 -27 54 4 25 -21 43 -50 37 -19 -4 -30 -2 -36 8 -5 9 -26 17 -52 18 -38 3 -46 0 -54 -19 -14 -32 8 -55 45 -47 16 4 50 1 76 -6 43 -10 48 -15 50 -41 l2 -29 -54 2 c-50 2 -57 0 -86 -31 -35 -38 -36 -65 -1 -65 12 0 27 -8 32 -18 6 -9 17 -17 24 -17 8 0 15 -8 15 -19 0 -25 22 -41 47 -35 24 7 34 -6 37 -46 2 -28 2 -28 -62 -29 l-64 -1 4 35 c3 31 1 36 -25 45 -24 8 -32 7 -42 -7 -9 -11 -14 -13 -19 -4 -5 8 -29 10 -76 6 -54 -5 -70 -3 -77 8 -4 8 -17 16 -28 19 -31 5 -29 32 4 45 29 11 30 12 24 69 -5 50 -4 57 10 51 17 -7 42 17 33 32 -9 15 -65 24 -79 13 -16 -13 -72 -25 -122 -27 -22 0 -47 -3 -55 -5 -11 -4 -15 3 -16 20 0 32 -12 52 -25 44 -5 -3 -15 -2 -22 3 -22 17 -137 54 -148 48 -5 -4 -9 -14 -8 -23 3 -34 -1 -43 -26 -52 -15 -6 -25 -17 -25 -29 0 -25 15 -34 29 -18 8 10 23 11 58 6 47 -8 122 -28 155 -43 9 -4 22 -5 28 -1 28 18 167 -32 146 -53 -3 -2 -12 1 -20 7 -16 13 -152 11 -174 -3 -17 -10 -14 -46 7 -81 14 -24 28 -32 67 -39 28 -6 55 -18 63 -29 7 -10 24 -23 38 -28 21 -8 24 -14 20 -38 -5 -23 -1 -32 16 -44 12 -8 19 -18 15 -22 -7 -7 -74 13 -95 28 -7 5 -24 6 -39 3 -22 -6 -25 -4 -22 16 2 19 8 23 36 20 27 -3 32 0 32 17 0 17 -6 20 -32 19 -48 -1 -112 28 -104 48 8 21 -2 36 -17 27 -7 -5 -32 -8 -57 -8 l-45 0 2 -37 2 -37 -52 -5 c-167 -17 -173 -16 -197 16 -21 28 -25 30 -67 23 -53 -8 -72 8 -45 38 15 17 15 20 -3 53 -10 19 -32 49 -48 66 -30 31 -30 31 -9 39 12 5 22 14 23 21 1 7 2 21 3 30 1 23 21 23 21 1 0 -19 109 -101 135 -102 9 -1 21 4 27 10 18 18 63 0 63 -26 0 -37 -22 -47 -96 -43 -74 3 -86 -5 -56 -40 21 -23 47 -29 57 -12 4 7 11 8 18 2 7 -6 31 -13 54 -17 24 -4 45 -11 49 -16 10 -17 40 -9 64 16 19 20 21 27 10 40 -11 13 -5 15 53 15 56 0 68 3 77 20 6 12 9 28 6 38 -11 35 -98 68 -130 50 -12 -7 -24 -3 -43 11 -14 12 -36 21 -49 21 -28 0 -29 2 -9 41 17 32 13 49 -11 49 -13 0 -18 12 -15 33 1 4 -4 17 -10 28 l-11 21 -14 -21 c-20 -27 -29 -27 -98 8 -31 17 -67 31 -79 33 -17 2 -22 10 -22 33 0 35 -36 66 -66 58 -11 -3 -27 1 -37 10 -9 8 -28 17 -42 19 -18 2 -26 10 -28 28 -3 21 -2 22 12 11 13 -11 17 -11 22 2 8 21 -4 40 -21 33 -16 -6 -35 13 -35 36 0 13 -10 20 -30 25 -30 6 -42 35 -19 49 6 3 8 18 5 33 -5 21 -4 23 4 9 7 -11 23 -18 40 -18 17 0 30 -4 30 -10 0 -5 7 -10 15 -10 8 0 15 7 15 15 0 8 4 15 9 15 11 0 21 -25 21 -50 0 -23 28 -40 64 -40 24 0 26 4 26 43 0 56 9 87 26 87 23 0 64 -23 64 -36 0 -21 37 -35 74 -29 31 6 34 5 40 -25 5 -29 9 -32 35 -27 17 4 36 0 47 -8 19 -13 19 -14 0 -46 l-19 -32 24 -18 c28 -21 55 -24 65 -7 11 18 5 80 -9 98 -7 8 -14 29 -16 45 -1 17 -7 34 -12 39 -16 17 -10 35 14 38 19 3 22 10 25 51 3 52 -15 71 -46 46 -44 -36 -61 -40 -88 -23 -27 18 -27 34 -3 96 l11 27 17 -21 18 -21 22 24 c47 51 -1 83 -118 79 -42 -2 -85 -2 -96 -1 -64 5 -116 11 -160 20 -27 5 -56 10 -63 10 -7 1 -17 12 -22 26 -7 20 -17 25 -42 25 -33 0 -43 8 -145 101 -18 16 -33 36 -33 44 0 22 13 18 29 -7 l14 -22 17 22 c25 30 50 29 50 -2 0 -33 17 -42 39 -22 20 18 73 13 92 -10 6 -8 16 -11 23 -7 16 11 76 11 82 1 9 -15 24 -8 24 10 0 23 34 56 52 49 7 -2 25 3 40 11 25 14 29 14 45 0 31 -27 62 -32 70 -11 4 10 16 31 27 46 15 21 18 32 10 44 -8 14 -34 17 -160 18 l-149 2 -73 -43 c-40 -24 -77 -44 -82 -44 -16 0 -12 66 5 80 8 6 23 9 35 5 14 -4 20 -2 20 8 0 9 -3 17 -7 19 -16 6 -63 85 -63 104 0 33 -14 42 -67 50 -47 6 -53 9 -58 35 -9 39 -21 44 -29 13 -5 -18 -2 -32 9 -44 14 -16 14 -19 0 -33 -19 -19 -19 -43 -1 -54 7 -4 15 -20 18 -36 4 -22 0 -32 -22 -47 -29 -21 -40 -18 -40 12 0 10 -6 18 -14 18 -20 0 -48 48 -41 70 5 15 0 23 -22 31 -15 6 -38 16 -51 22 -16 8 -26 7 -34 -1 -13 -13 -58 -16 -58 -4 0 16 25 32 51 32 18 0 30 6 33 18 3 9 15 22 27 27 29 13 29 29 2 33 -13 2 -23 -1 -23 -7 0 -6 -9 -11 -21 -11 -11 0 -29 -4 -39 -10 -14 -8 -19 -5 -23 11 -5 17 -11 20 -31 15 -27 -7 -42 7 -29 26 4 7 8 30 9 50 2 32 -3 40 -35 62 -20 14 -44 26 -52 26 -8 0 -21 6 -28 13 -10 10 -15 9 -25 -5 -7 -10 -24 -18 -37 -18 -22 0 -22 0 -3 15 17 14 17 16 3 28 -9 6 -22 26 -30 42 -9 20 -23 31 -39 33 -14 2 -35 8 -47 14 -34 17 -46 5 -67 -62 l-19 -61 22 -15 c11 -8 21 -21 21 -28 0 -8 7 -19 15 -26 20 -17 19 -25 -10 -56 -14 -15 -25 -33 -25 -40 0 -8 -4 -14 -10 -14 -16 0 -12 -66 5 -80 41 -34 -10 -59 -71 -34 -85 33 -104 47 -98 70 8 32 -20 54 -71 54 -39 0 -46 -4 -65 -36 -19 -29 -21 -40 -11 -60 14 -31 28 -31 43 1 11 24 63 51 72 37 6 -9 -33 -46 -57 -55 -24 -9 -17 -31 11 -35 12 -2 22 -7 22 -12 0 -5 8 -16 18 -26 9 -10 18 -25 19 -33 12 -77 17 -87 46 -82 4 0 7 -10 7 -23 0 -13 12 -40 26 -61 28 -42 19 -61 -22 -43 -20 10 -22 13 -8 22 13 10 13 15 -1 44 -10 19 -24 32 -35 32 -10 0 -35 10 -55 21 -41 25 -50 20 -59 -32 -6 -32 -4 -37 15 -42 18 -5 20 -9 10 -20 -9 -12 -8 -16 5 -21 8 -3 23 -6 33 -6 10 0 28 -11 41 -25 l23 -24 -28 -11 c-22 -8 -31 -7 -45 5 -14 13 -19 13 -23 3 -4 -10 -7 -11 -18 0 -18 17 -48 15 -55 -3 -8 -20 -44 -19 -44 1 0 9 7 22 16 29 10 7 18 31 20 60 4 42 1 52 -21 72 -32 30 -34 66 -3 61 35 -5 32 20 -4 35 -60 26 -99 36 -114 30 -10 -4 -14 4 -14 29 0 19 -5 39 -11 45 -8 8 -8 13 0 17 6 4 11 21 11 38 0 26 3 30 22 25 25 -7 53 6 61 28 18 44 -63 128 -133 139 -45 7 -62 2 -58 -19 2 -8 -6 -21 -17 -29 -20 -14 -20 -15 3 -45 31 -43 29 -65 -5 -58 -42 8 -85 -3 -90 -24 -4 -15 -13 -17 -57 -13 -28 3 -60 7 -70 9 -20 4 -76 -20 -76 -33 0 -4 7 -27 16 -51 13 -40 13 -45 -2 -62 -11 -13 -15 -28 -11 -48 4 -20 2 -31 -8 -35 -8 -3 -15 -16 -15 -29 0 -12 -9 -48 -20 -80 -11 -31 -20 -68 -20 -83 0 -25 -2 -25 -40 -19 -39 7 -40 6 -40 -23 0 -30 0 -30 -36 -19 -20 6 -50 24 -65 40 -35 34 -72 34 -77 -1 -2 -13 2 -30 9 -39 14 -16 58 -37 73 -34 4 1 14 -3 21 -9 7 -6 25 -8 39 -4 18 4 33 1 45 -10 10 -9 29 -15 42 -14 32 4 35 -35 3 -40 -12 -2 -24 -12 -27 -24 -4 -15 -11 -19 -27 -15 -34 9 -88 -48 -96 -100 -5 -34 -3 -44 10 -49 10 -4 25 1 36 11 17 15 24 16 49 5 16 -6 34 -9 40 -6 20 13 19 -11 -1 -29 -18 -15 -28 -16 -58 -8 -42 11 -60 7 -60 -12 0 -21 52 -65 76 -65 12 0 27 -6 33 -14 10 -12 6 -15 -19 -20 -16 -3 -44 -9 -61 -12 -35 -7 -47 -27 -29 -49 11 -13 10 -24 -1 -58 -7 -23 -13 -72 -14 -109 0 -40 -5 -72 -13 -80 -9 -9 -12 -4 -13 28 -1 21 -1 45 0 52 5 32 -22 83 -52 98 -26 14 -28 18 -14 26 11 5 24 5 36 -1 10 -6 21 -7 25 -4 13 14 5 62 -17 94 -19 28 -29 34 -60 34 -20 0 -37 2 -37 4 0 12 40 30 68 31 34 0 76 32 69 53 -2 7 -19 16 -39 22 -19 5 -49 22 -67 38 -23 19 -45 27 -74 29 -37 1 -38 2 -9 5 17 2 32 8 32 14 0 15 32 10 51 -7 23 -21 46 -12 59 21 10 27 20 31 37 14 8 -8 13 -7 18 2 5 7 0 18 -11 26 -16 12 -17 15 -4 23 8 5 10 10 4 10 -7 0 -15 7 -18 16 -3 8 -2 13 3 10 13 -8 72 24 65 35 -3 5 -16 6 -30 3 -15 -4 -24 -2 -24 6 0 22 -44 6 -50 -19 -8 -33 -64 -65 -91 -51 -10 6 -19 15 -19 21 0 6 4 8 9 5 14 -9 0 38 -15 50 -12 10 -12 13 0 23 8 7 27 16 43 20 33 9 42 37 16 45 -12 4 -23 23 -31 50 -12 47 -32 62 -62 46 -10 -6 -30 -10 -44 -10 -15 0 -30 -8 -36 -20 -6 -12 -21 -20 -35 -20 -20 0 -25 -5 -25 -26 0 -22 -2 -24 -15 -14 -21 17 -45 5 -45 -22 0 -21 23 -65 40 -78 4 -3 12 -15 19 -27 7 -14 17 -20 26 -17 21 8 19 -10 -4 -30 -17 -16 -19 -15 -35 8 -9 14 -16 35 -16 47 0 19 -4 21 -31 15 -17 -3 -43 -6 -58 -7 -14 0 -20 -3 -13 -6 6 -2 12 -11 12 -19 0 -20 -20 -17 -50 6 -14 11 -35 20 -46 20 -14 0 -24 8 -27 21 -5 19 -11 21 -41 16 -28 -4 -37 -1 -48 15 -21 32 -64 17 -83 -28 -18 -44 -12 -56 28 -52 18 2 32 -2 34 -9 3 -7 -3 -13 -12 -13 -9 0 -19 -9 -22 -20 -3 -10 -14 -22 -25 -26 -11 -3 -28 -20 -39 -37 -10 -18 -19 -26 -19 -19 0 18 -37 15 -84 -9 -22 -12 -48 -25 -56 -29 -23 -11 -19 -44 6 -48 12 -2 30 -12 40 -23 11 -12 30 -19 56 -19 33 0 38 3 38 24 0 13 3 39 7 57 6 32 7 33 13 9 4 -16 14 -26 30 -28 13 -2 31 -13 40 -25 19 -23 40 -16 40 14 0 14 -7 19 -25 19 -30 0 -34 25 -5 33 14 3 24 -1 31 -15 6 -12 18 -18 28 -15 10 2 23 -3 28 -12 6 -10 29 -23 51 -29 41 -12 60 -28 48 -39 -3 -3 -12 0 -20 6 -17 14 -36 7 -36 -14 0 -19 38 -29 55 -15 13 10 16 7 21 -18 7 -34 33 -46 69 -32 17 7 27 4 39 -9 22 -24 22 -55 0 -43 -9 5 -25 7 -35 5 -11 -3 -26 0 -34 7 -23 19 -62 -5 -70 -42 -6 -24 -9 -27 -21 -17 -8 6 -14 26 -14 43 0 42 -25 76 -56 76 -19 0 -24 -5 -24 -25 0 -17 -5 -25 -18 -25 -10 0 -23 -5 -30 -12 -8 -8 -14 -5 -22 16 -9 25 -14 27 -43 21 -17 -4 -36 -14 -40 -21 -4 -8 -20 -14 -34 -14 -23 0 -25 -3 -20 -29 4 -21 2 -31 -9 -35 -25 -10 -26 -8 -19 38 5 29 3 46 -5 51 -13 8 -50 -22 -50 -41 0 -22 -20 -27 -40 -9 -12 11 -30 16 -48 13 -24 -3 -52 10 -52 26 0 3 14 19 32 35 18 17 29 33 26 36 -10 10 -48 -5 -48 -19 0 -7 -10 -12 -22 -12 -18 1 -23 -4 -22 -21 1 -30 -7 -29 -41 7 -22 23 -26 32 -16 43 12 15 5 47 -10 47 -5 0 -9 5 -9 10 0 6 7 10 15 10 8 0 22 12 32 28 31 48 63 58 55 17 -4 -23 -2 -25 36 -25 43 0 66 18 60 47 -2 13 -13 18 -36 18 -24 0 -32 4 -32 18 0 21 -71 59 -77 40 -2 -7 -11 -9 -19 -6 -13 5 -12 8 3 25 46 50 86 83 106 88 13 4 22 14 22 25 0 11 8 23 18 27 22 9 18 44 -5 40 -10 -1 -18 8 -22 28 -3 16 -9 43 -12 59 -3 16 -12 32 -20 35 -21 8 -61 -10 -74 -34 -6 -12 -14 -19 -17 -17 -10 10 23 56 57 80 29 19 41 22 64 14 21 -7 32 -6 43 6 25 24 9 50 -28 45 -22 -4 -33 0 -40 14 -5 10 -21 18 -34 18 -14 0 -25 5 -25 11 0 8 13 10 37 6 21 -4 42 -2 50 5 30 25 3 88 -32 74 -9 -3 -24 3 -35 14 -11 11 -27 20 -35 20 -9 0 -20 12 -25 26 -14 35 -12 44 4 38 11 -4 14 4 12 35 -2 44 -13 63 -21 37 -3 -9 -7 -23 -10 -32 -5 -15 -9 -14 -30 6 -14 13 -25 26 -25 30 0 4 18 13 40 20 28 9 39 18 35 28 -3 7 -5 18 -5 23 0 5 -11 9 -25 9 -33 0 -75 20 -75 37 0 18 -10 16 -36 -8 -21 -19 -24 -20 -46 -5 -27 18 -65 19 -116 4 -37 -11 -52 -33 -52 -76 0 -17 -6 -32 -15 -36 -8 -3 -15 -12 -15 -20 0 -18 -55 -25 -87 -12 -30 12 -29 36 0 36 29 0 62 34 54 55 -9 23 -45 18 -58 -7 -8 -15 -14 -19 -17 -10 -8 25 -42 -18 -36 -45 5 -18 3 -22 -9 -17 -8 3 -18 1 -22 -5 -3 -6 -17 -11 -29 -11 -29 0 -48 -21 -36 -39 5 -10 19 -12 44 -8 31 5 39 2 52 -18 9 -13 24 -27 35 -30 10 -4 18 -12 16 -18 -1 -7 5 -12 13 -12 8 0 14 7 13 15 -2 8 9 21 24 27 23 11 29 10 46 -4 18 -17 20 -17 33 1 11 16 16 17 29 6 24 -20 18 -30 -20 -30 -36 0 -55 -20 -55 -58 0 -11 -6 -22 -14 -25 -13 -5 -56 -79 -56 -98 0 -6 11 -25 25 -43 19 -25 22 -35 13 -44 -15 -15 -45 -16 -53 -2 -11 17 -25 11 -35 -14 -18 -47 -69 -42 -70 7 0 9 -13 35 -29 58 -25 34 -28 45 -20 66 13 35 2 63 -24 63 -12 0 -49 -8 -82 -18 -62 -19 -82 -44 -53 -66 8 -6 17 -19 21 -28 4 -11 17 -18 32 -18 14 0 25 -4 25 -10 0 -5 -4 -10 -10 -10 -15 0 -12 -28 4 -37 21 -13 31 -53 12 -53 -9 0 -16 7 -16 15 0 24 -41 36 -67 19 -15 -9 -23 -11 -23 -3 0 6 10 19 23 29 22 18 22 19 2 25 -11 4 -27 11 -35 16 -8 5 -25 13 -37 19 -14 6 -23 18 -23 32 0 13 -11 35 -25 50 -14 16 -22 33 -19 42 7 17 34 21 50 7 5 -5 28 -11 52 -15 45 -7 56 6 22 24 -17 9 -19 17 -14 49 6 35 3 43 -34 83 -29 32 -38 48 -32 58 6 10 2 23 -16 41 -16 17 -22 29 -15 33 6 4 11 16 11 27 0 14 -7 19 -29 19 -17 0 -33 5 -36 10 -14 23 -23 7 -20 -36 4 -64 -3 -84 -30 -84 -12 0 -28 -7 -35 -15 -13 -16 -11 -24 21 -87 12 -24 12 -25 -13 -24 -15 1 -24 -6 -28 -24 -5 -21 -12 -25 -41 -25 l-34 0 0 -74 c0 -50 -4 -76 -12 -78 -7 -3 -13 3 -13 14 0 10 -8 31 -19 46 -10 16 -16 38 -13 53 3 20 0 26 -17 31 -12 3 -33 25 -47 49 -14 24 -37 52 -50 63 -19 15 -22 24 -17 54 5 34 3 37 -40 64 -41 27 -43 31 -31 48 21 28 17 63 -6 70 -11 3 -20 15 -20 25 0 26 -15 33 -30 15 -16 -19 -33 -9 -21 12 4 9 6 24 4 34 -4 15 7 25 20 17 1 -1 12 4 25 11 26 14 27 56 2 57 -8 0 -28 7 -45 16 -16 9 -54 19 -82 23 -50 6 -53 6 -65 -20z"/>
 </g>

</svg>