<!DOCTYPE svg PUBLIC "-//W3C//DTD SVG 20010904//EN" "http://www.w3.org/TR/2001/REC-SVG-20010904/DTD/svg10.dtd">
<svg version="1.0" xmlns="http://www.w3.org/2000/svg" width="1600px" height="1067px" viewBox="0 0 16000 10670" preserveAspectRatio="xMidYMid meet">
<g id="layer101" fill="#272428" stroke="none">
 <path d="M0 5335 l0 -5335 8000 0 8000 0 0 5335 0 5335 -8000 0 -8000 0 0 -5335z"/>
 </g>
<g id="layer102" fill="#516072" stroke="none">
 <path d="M0 10106 c1 -310 5 -669 10 -797 5 -129 12 -361 15 -516 6 -251 5 -283 -8 -283 -14 0 -16 -29 -16 -226 0 -220 0 -225 19 -219 18 6 20 2 20 -44 0 -27 4 -52 9 -56 13 -7 40 21 47 51 3 13 10 24 14 24 17 0 40 32 40 56 0 21 4 24 28 22 23 -3 28 2 37 30 7 26 14 32 37 32 16 0 31 7 36 18 5 9 12 106 15 215 5 177 7 200 24 212 26 20 30 19 37 -16 5 -25 10 -30 28 -27 30 4 56 80 57 166 1 58 -1 63 -24 74 -22 10 -23 13 -10 20 21 12 19 34 -6 68 -20 26 -21 33 -10 74 6 25 11 58 11 74 0 33 25 99 46 123 43 48 52 204 14 237 -14 12 -16 19 -8 32 8 12 8 30 2 56 -6 24 -7 49 -1 64 8 21 4 33 -17 64 -32 47 -33 60 -3 52 12 -3 54 -6 92 -6 39 0 76 -4 83 -9 12 -7 11 -42 -2 -212 -50 -632 -51 -602 1 -615 30 -8 229 13 252 25 11 7 15 34 17 115 3 93 6 111 29 151 17 28 34 45 46 45 14 0 19 7 19 29 0 17 -4 33 -10 36 -15 10 -12 71 5 85 8 7 15 27 15 45 0 19 8 39 19 49 13 11 20 32 20 55 1 20 2 45 2 56 4 54 -6 122 -19 138 -14 16 -13 17 11 17 22 0 27 5 27 25 0 14 -6 25 -13 25 -7 0 -27 19 -45 43 -33 41 -33 42 -11 45 28 5 165 -15 245 -34 65 -16 68 -16 279 20 91 15 151 32 172 48 14 11 34 14 136 23 71 5 78 4 75 -11 -2 -13 -24 -22 -82 -35 -43 -9 -83 -23 -87 -31 -12 -17 -11 -319 1 -603 5 -126 12 -340 15 -475 4 -135 9 -248 11 -251 7 -11 84 -49 99 -49 8 0 20 10 26 22 l12 22 14 -27 c20 -39 58 -37 66 3 5 21 11 28 22 24 19 -8 32 23 18 45 -21 35 -46 150 -35 164 14 16 39 140 47 232 7 82 15 128 21 122 6 -5 38 -149 79 -352 18 -93 37 -178 41 -188 4 -10 1 -30 -7 -44 -12 -23 -11 -27 9 -43 17 -14 26 -42 41 -119 11 -56 23 -106 26 -111 3 -5 8 -128 11 -272 5 -255 7 -268 41 -423 37 -170 66 -253 121 -350 43 -77 87 -122 126 -131 60 -13 111 -44 155 -95 l45 -52 2 -823 c2 -571 6 -829 14 -844 9 -17 20 -20 80 -20 40 0 70 -4 70 -10 0 -10 -6 -12 -55 -14 -40 -1 -46 -35 -11 -73 33 -35 19 -53 -39 -53 -49 0 -55 8 -55 75 0 41 -12 65 -24 47 -3 -5 -7 -41 -8 -81 -2 -59 0 -75 14 -85 16 -11 17 -68 22 -702 3 -379 6 -812 7 -962 0 -258 1 -274 20 -290 10 -9 19 -27 19 -40 0 -29 24 -38 55 -22 21 11 28 10 57 -15 18 -15 35 -39 38 -54 4 -23 11 -26 48 -29 37 -3 43 0 52 22 9 24 30 36 30 18 0 -5 6 -17 14 -27 12 -17 16 -18 37 -4 13 9 38 19 55 22 l31 6 -9 -50 c-10 -57 7 -99 41 -99 15 0 20 13 30 74 13 93 38 166 62 189 21 20 24 39 9 68 -8 14 -5 29 11 61 20 39 21 56 20 234 -1 183 0 192 19 197 25 7 27 47 3 47 -16 0 -18 12 -19 105 l-1 105 28 -38 c31 -40 38 -62 14 -42 -23 19 -32 -16 -11 -39 12 -13 14 -21 6 -26 -22 -14 32 -110 57 -100 8 2 30 -11 51 -29 42 -39 56 -43 95 -33 18 5 35 2 52 -9 21 -14 30 -15 52 -5 24 11 29 8 84 -44 32 -31 63 -54 68 -51 10 7 111 -87 111 -103 0 -26 84 -42 225 -41 78 1 103 -3 131 -20 48 -30 124 -27 163 6 20 16 37 23 49 19 13 -4 35 7 68 35 27 22 53 40 57 40 5 0 20 -9 34 -20 30 -24 52 -25 79 -5 10 8 25 15 33 15 7 0 26 11 42 24 23 20 36 23 71 19 24 -2 55 -8 69 -13 18 -5 36 -4 54 6 15 8 36 14 47 14 25 0 94 74 102 109 3 14 19 41 36 60 26 31 35 34 87 36 61 3 121 23 142 49 12 14 111 66 127 66 4 0 35 24 70 53 35 28 78 63 95 76 17 13 36 35 42 48 7 15 16 22 25 18 20 -7 119 100 127 137 4 16 13 41 21 57 12 25 12 36 -2 92 -14 54 -24 71 -66 112 -28 26 -58 47 -69 47 -10 0 -21 5 -24 11 -15 23 -55 29 -96 15 l-41 -14 7 41 c5 23 8 69 7 102 -1 34 5 77 13 98 14 35 14 41 -2 68 -17 29 -17 31 5 69 28 49 29 80 2 80 -29 0 -26 42 5 88 33 49 33 82 0 82 -33 0 -33 23 0 66 33 43 33 74 0 74 -34 0 -34 38 1 79 31 37 29 75 -3 79 -28 4 -29 22 -3 64 26 43 26 75 0 83 -25 8 -25 12 5 60 30 50 32 85 5 92 -18 5 -20 14 -20 87 0 57 6 97 20 134 l20 52 -21 21 c-17 17 -19 25 -10 51 17 49 13 76 -13 93 -18 12 -30 13 -50 6 -14 -6 -32 -8 -40 -5 -23 9 -59 -34 -52 -62 3 -13 9 -35 12 -49 5 -21 3 -25 -15 -25 -19 0 -22 5 -20 38 3 47 -5 62 -37 62 -23 0 -24 2 -24 83 0 89 -3 98 -37 116 -13 6 -23 16 -23 21 0 5 10 10 23 12 24 3 36 43 19 60 -11 11 10 72 35 99 28 32 113 214 113 242 0 15 9 45 20 67 11 22 20 48 20 58 0 26 -43 142 -80 217 -17 33 -35 89 -41 125 -11 72 -14 81 -51 160 -14 30 -30 67 -36 83 -9 21 -18 27 -42 27 -29 0 -30 2 -30 43 0 23 -7 80 -15 127 -8 47 -15 91 -15 98 0 25 20 10 41 -30 12 -24 29 -52 39 -63 10 -11 23 -36 29 -55 21 -66 90 -170 172 -260 118 -129 142 -134 294 -61 l100 48 11 -55 c7 -30 17 -58 24 -62 9 -5 8 -18 -4 -54 -18 -53 -8 -92 22 -83 10 2 23 6 31 8 10 3 17 -11 25 -46 8 -35 16 -51 30 -53 10 -2 22 1 25 7 4 6 6 105 5 219 l-3 208 44 22 45 22 0 -29 c0 -16 7 -48 16 -72 41 -116 63 -218 53 -254 -7 -25 -6 -49 5 -87 8 -29 17 -78 21 -108 26 -231 45 -321 81 -391 13 -27 27 -80 33 -125 5 -44 22 -129 36 -189 15 -61 31 -141 36 -180 6 -48 22 -96 49 -152 22 -45 53 -117 70 -159 16 -42 47 -106 69 -143 54 -89 64 -117 67 -181 3 -62 3 -62 5 -220 1 -199 2 -210 22 -221 10 -6 35 -8 57 -4 32 5 40 3 49 -14 15 -27 0 -35 -55 -26 -30 4 -50 2 -60 -6 -19 -16 -18 -98 2 -127 14 -20 14 -24 -1 -39 -26 -25 -16 -131 13 -151 28 -18 29 -65 2 -92 -26 -26 -26 -77 -1 -138 11 -26 24 -60 29 -77 7 -24 15 -30 35 -30 l27 1 0 -98 c0 -91 -1 -98 -20 -98 -17 0 -20 -7 -20 -50 0 -43 3 -50 20 -50 16 0 20 -7 20 -35 0 -29 -4 -35 -21 -35 -27 0 -23 -43 6 -49 11 -2 25 -11 31 -19 10 -14 14 -14 28 -3 14 12 16 68 16 530 0 424 -3 521 -14 543 -12 23 -12 29 -1 38 10 8 15 41 17 103 l3 92 18 -37 c22 -48 175 -203 249 -252 80 -54 172 -78 270 -70 l78 7 6 -32 c11 -54 31 -49 43 12 5 25 15 32 65 49 50 17 61 18 83 7 33 -18 83 -82 99 -127 16 -46 18 -144 3 -159 -7 -7 -12 -29 -13 -50 -1 -34 -4 -38 -31 -43 -39 -7 -43 -32 -11 -71 14 -17 26 -34 26 -39 0 -5 8 -11 18 -14 15 -5 18 -17 18 -66 -1 -58 -2 -61 -36 -78 -41 -20 -65 -65 -75 -138 -6 -48 -5 -52 21 -69 27 -17 27 -17 45 6 16 22 19 22 44 9 18 -9 25 -20 22 -32 -3 -10 2 -24 12 -31 26 -19 48 -59 70 -126 19 -57 83 -161 99 -161 4 0 13 -9 20 -21 12 -18 10 -23 -12 -44 -14 -13 -26 -34 -26 -47 l0 -23 -18 23 c-11 15 -24 21 -34 17 -11 -4 -18 0 -23 14 -5 18 -14 21 -65 21 -32 0 -62 -5 -65 -10 -4 -6 -21 -8 -41 -4 -21 4 -40 2 -48 -5 -10 -8 -16 -9 -21 -1 -10 16 -43 12 -49 -7 -3 -10 -4 -69 -2 -130 2 -62 0 -113 -3 -113 -26 1 -33 23 -31 104 0 31 -4 52 -14 60 -8 6 -16 29 -18 51 -3 22 -7 46 -9 54 -2 8 5 19 16 25 50 27 50 28 9 63 l-39 33 29 23 30 24 -23 12 c-14 8 -21 20 -19 34 1 12 -1 28 -6 35 -5 8 -2 20 7 30 8 9 12 22 10 29 -2 6 8 18 24 26 15 8 37 25 47 36 19 21 19 25 5 79 -11 46 -18 57 -34 57 -17 0 -20 -8 -23 -47 -2 -25 -10 -52 -18 -58 -7 -7 -14 -19 -14 -26 0 -17 -42 -28 -78 -21 -23 5 -37 -2 -76 -36 -58 -49 -77 -88 -70 -148 3 -24 6 -84 8 -134 1 -50 8 -100 15 -114 7 -13 11 -40 9 -60 -5 -38 13 -124 31 -145 5 -6 10 -21 9 -31 0 -11 5 -40 12 -65 6 -25 14 -57 17 -72 3 -14 18 -39 34 -54 33 -31 37 -61 12 -79 -12 -9 -16 -26 -14 -66 1 -30 6 -56 12 -58 5 -1 15 -10 22 -18 35 -44 58 -63 84 -68 57 -13 91 -37 96 -69 17 -103 61 -166 139 -202 35 -16 39 -16 64 1 14 9 29 26 31 36 9 31 34 2 31 -35 -1 -18 2 -37 6 -44 10 -17 51 -32 99 -38 21 -3 49 -9 63 -14 45 -18 64 -13 64 16 l0 26 35 -20 c22 -14 59 -23 107 -26 49 -3 76 -10 84 -20 6 -9 22 -20 35 -25 19 -8 11 -10 -39 -8 -47 1 -65 -2 -72 -13 -5 -8 -10 -63 -10 -122 0 -83 3 -110 15 -122 14 -13 14 -18 2 -38 -8 -13 -13 -40 -11 -63 5 -54 5 -55 -2 -90 -4 -22 0 -38 14 -54 18 -24 18 -25 0 -43 -14 -14 -18 -33 -18 -92 0 -41 -3 -81 -6 -89 -10 -28 22 -44 103 -50 104 -8 106 -5 98 133 -4 58 -6 117 -6 132 2 37 -27 52 -62 33 -16 -8 -29 -10 -33 -4 -8 14 5 68 27 109 17 31 17 36 4 57 -9 13 -11 23 -5 23 5 0 10 -4 10 -9 0 -5 10 -13 22 -17 39 -12 48 17 48 151 0 95 -3 125 -16 144 -16 22 -15 24 5 44 18 18 24 20 41 9 11 -6 27 -12 35 -12 29 0 185 80 185 95 0 8 11 22 25 31 15 10 25 26 25 41 0 35 19 48 72 48 35 0 53 6 71 23 24 23 51 30 114 31 27 1 35 8 58 48 22 39 24 51 15 66 -17 28 -5 32 26 8 26 -21 35 -20 64 5 8 7 28 14 45 16 31 3 33 6 76 106 20 46 26 82 31 193 1 32 -31 78 -54 79 -10 0 -25 -11 -34 -25 -9 -13 -23 -27 -32 -30 -10 -3 -25 -18 -34 -34 -13 -24 -81 -71 -102 -71 -3 0 10 28 28 62 19 35 40 83 46 108 7 25 14 51 16 59 3 11 9 10 29 -3 13 -9 35 -16 47 -16 37 -1 112 -24 141 -43 15 -9 46 -20 69 -23 38 -5 47 -2 77 25 19 17 39 30 45 29 24 -4 93 24 122 50 17 15 36 41 43 57 7 19 23 35 41 42 24 9 30 17 30 42 0 16 -4 32 -9 36 -5 3 -7 20 -4 39 3 20 -1 45 -11 64 -22 42 -20 52 8 52 29 0 53 48 38 76 -6 11 -17 40 -26 65 -17 48 -45 69 -91 69 -14 0 -26 7 -29 18 -6 16 -65 52 -87 52 -6 0 -29 16 -52 35 -23 20 -48 33 -56 30 -28 -8 -45 10 -32 33 6 11 11 30 11 42 0 11 19 41 41 65 35 37 39 47 29 60 -7 8 -25 15 -41 15 -45 0 -43 16 7 70 39 42 45 52 34 65 -7 8 -28 15 -46 15 -24 0 -34 5 -34 15 0 26 28 72 56 93 37 26 27 52 -21 52 -32 0 -35 2 -35 29 0 17 11 42 25 59 33 39 32 58 -5 71 -38 13 -38 27 0 77 39 51 39 73 -1 81 -29 6 -31 8 -25 42 3 19 15 48 26 63 28 38 25 57 -10 65 -16 3 -30 7 -30 8 0 1 12 23 26 49 29 52 27 72 -11 82 -30 7 -32 28 -5 72 25 41 25 58 0 72 -20 11 -25 35 -14 64 3 9 34 35 68 60 33 24 102 86 153 139 81 84 94 102 108 153 30 113 59 199 72 214 7 9 24 46 38 83 33 88 32 153 -2 259 -32 99 -33 201 -2 286 10 29 19 64 19 78 0 22 4 25 31 22 l30 -3 3 -245 c20 -1477 26 -1791 37 -1812 11 -20 25 -25 109 -33 113 -11 105 -38 103 387 -1 200 -5 498 -8 663 -9 394 -12 945 -4 945 17 0 152 -53 204 -80 66 -34 94 -34 133 2 21 21 31 58 14 58 -4 0 -32 19 -62 41 -30 23 -86 57 -125 76 -101 50 -138 81 -131 106 3 11 -2 36 -11 54 -14 30 -14 35 0 51 36 42 28 92 -15 92 -16 0 -19 5 -13 29 8 36 -10 49 -27 21 -17 -26 -22 -25 -36 5 -11 24 -10 25 13 19 17 -4 33 1 51 15 15 12 39 21 54 21 21 0 31 -8 48 -44 26 -51 27 -60 7 -76 -20 -17 -8 -33 20 -26 16 4 25 1 29 -10 9 -24 7 -28 -9 -14 -8 6 -18 9 -23 6 -12 -7 -3 -57 13 -76 7 -8 15 -24 16 -34 3 -12 16 -23 34 -28 32 -8 105 -69 105 -87 0 -6 -7 -11 -15 -11 -22 0 -18 -27 7 -52 20 -20 23 -20 32 -5 9 15 24 4 106 -77 52 -52 124 -112 160 -134 63 -38 65 -41 72 -88 4 -27 10 -418 13 -869 4 -694 7 -828 20 -870 17 -59 19 -139 4 -198 -13 -52 0 -93 35 -108 31 -15 60 -82 47 -108 -7 -13 -5 -28 9 -54 11 -21 20 -55 20 -76 0 -58 19 -71 99 -71 47 0 78 6 106 20 l39 20 36 -29 c42 -33 49 -57 21 -66 -26 -8 -27 -28 -4 -66 17 -28 17 -30 -5 -45 -30 -21 -29 -73 4 -150 27 -65 57 -88 124 -98 62 -9 80 -18 96 -47 8 -16 18 -29 22 -30 69 -8 153 -5 163 7 16 19 21 18 59 -16 28 -25 42 -30 84 -30 28 -1 62 -7 76 -15 14 -8 35 -14 47 -15 14 0 24 -9 32 -30 13 -40 35 -47 79 -26 30 15 38 15 47 4 6 -9 51 -18 120 -26 61 -7 129 -19 152 -27 65 -23 77 -13 69 57 l-6 58 35 0 c22 0 39 -7 47 -19 7 -10 27 -25 44 -34 29 -15 39 -15 120 -1 54 9 97 23 109 34 11 10 29 20 40 22 41 7 64 158 37 245 -13 40 0 46 67 33 85 -16 251 16 251 50 0 5 15 16 33 24 35 14 77 62 120 136 25 43 25 48 12 74 -21 40 -19 46 14 46 41 0 52 35 54 178 2 97 -1 123 -14 138 -20 24 -33 53 -33 79 -1 18 -8 20 -61 22 -38 1 -68 -4 -83 -13 -19 -13 -26 -13 -51 0 -16 9 -31 22 -34 31 -4 8 -13 15 -21 15 -8 0 -18 5 -22 11 -4 7 0 9 14 5 32 -10 70 20 82 65 6 22 27 54 47 74 33 32 35 37 21 51 -8 8 -32 21 -52 28 l-38 13 61 69 c34 37 61 71 61 75 0 4 -7 12 -15 19 -13 11 -23 10 -56 0 -62 -21 -70 -1 -20 53 23 24 41 50 41 57 0 19 -32 39 -62 40 -41 0 -36 28 12 75 54 53 51 79 -7 83 -38 3 -43 6 -43 28 0 14 14 45 31 69 37 51 33 81 -12 92 l-30 8 36 50 c46 65 44 91 -8 88 -48 -3 -48 11 -1 72 46 61 43 89 -8 93 -21 2 -38 9 -38 15 0 7 16 35 36 64 45 65 42 89 -9 86 -31 -2 -37 1 -37 18 0 10 18 39 40 63 34 37 40 50 41 92 1 28 -4 59 -12 72 -13 20 -9 26 61 94 41 39 114 102 161 139 80 63 139 130 139 157 0 6 9 16 20 22 11 6 20 19 20 30 0 13 9 21 28 25 15 3 41 13 57 22 17 9 46 24 66 34 59 30 120 109 214 279 22 40 57 92 78 115 41 47 45 62 21 80 -13 9 -14 16 -5 33 6 11 11 34 11 51 0 16 16 60 36 98 60 114 82 183 81 252 0 56 -3 64 -24 72 -12 5 -23 16 -23 25 0 9 -11 29 -25 46 -14 16 -25 38 -25 47 0 10 -9 28 -20 41 -11 13 -30 49 -41 81 -26 71 -41 86 -62 64 -14 -13 -17 -12 -31 17 -9 17 -16 37 -16 44 0 14 48 31 99 36 l34 3 34 -100 c19 -55 41 -105 49 -111 8 -6 14 -18 14 -26 0 -28 25 -51 49 -43 34 11 81 91 74 126 -3 16 -1 35 5 42 10 11 14 72 13 167 0 14 1 63 2 110 2 47 -1 91 -7 98 -6 9 -5 25 2 46 7 19 9 41 6 50 -4 11 2 26 16 41 29 31 30 77 2 114 -16 22 -18 31 -9 40 9 10 8 15 -6 26 -18 13 -17 16 15 60 121 167 127 181 131 274 2 78 -12 107 -74 149 -19 13 -38 32 -43 43 -17 35 -40 20 -84 -56 -29 -51 -48 -75 -61 -75 -10 0 -24 -6 -30 -14 -6 -7 -31 -19 -56 -26 -24 -7 -52 -21 -61 -31 -24 -26 -37 -24 -30 6 5 18 -1 32 -24 57 -16 18 -36 41 -45 50 -12 14 -20 16 -42 7 -34 -13 -43 -26 -43 -65 0 -17 -7 -37 -14 -44 -23 -18 -60 -100 -50 -110 5 -5 23 -10 39 -12 24 -2 30 -8 29 -26 -1 -34 31 -51 115 -61 53 -7 83 -17 113 -37 l40 -28 -31 -28 c-32 -28 -65 -36 -76 -18 -3 6 1 10 9 10 19 0 31 19 19 31 -6 6 -16 2 -28 -11 -22 -24 -38 -25 -55 -5 -16 20 -39 19 -47 -1 -4 -11 8 -29 38 -56 34 -31 40 -41 29 -49 -8 -5 -22 -6 -30 -2 -8 3 -40 11 -70 18 -30 6 -62 14 -70 18 -26 10 -114 29 -138 29 -17 0 -28 10 -39 34 -16 33 -18 34 -70 32 -45 -2 -55 1 -69 21 -12 17 -23 22 -41 18 -19 -3 -27 0 -30 13 -5 20 -40 33 -57 22 -17 -10 -76 -12 -76 -2 0 14 55 40 85 40 14 0 25 4 25 9 0 5 42 9 93 9 89 0 160 16 193 43 21 17 49 158 37 189 -11 30 -7 50 12 50 19 0 58 58 51 75 -3 8 -14 15 -25 15 -10 0 -22 7 -25 16 -6 15 -8 15 -26 -1 -11 -10 -25 -36 -31 -59 -6 -22 -21 -53 -34 -68 l-24 -28 -3 28 c-5 45 11 113 41 177 16 33 32 84 35 114 4 38 11 58 26 68 11 8 20 20 20 27 0 7 12 35 26 62 23 43 24 53 15 84 -23 73 -71 104 -71 45 0 -13 -19 -60 -42 -105 -24 -47 -45 -103 -49 -135 -4 -29 -14 -68 -23 -86 -17 -37 -40 -120 -51 -187 l-7 -44 -18 29 c-21 35 -76 83 -95 83 -7 0 -26 11 -42 24 -30 25 -55 31 -206 46 -54 5 -108 17 -120 25 -13 8 -38 14 -57 14 -19 -1 -46 3 -60 9 -14 5 -68 8 -120 7 -135 -3 -208 -42 -180 -96 6 -11 8 -24 5 -29 -9 -15 -46 -12 -64 4 -22 20 -148 66 -180 66 -15 0 -32 -5 -38 -11 -8 -8 -23 -5 -57 11 l-45 23 24 23 c28 26 29 28 15 55 -6 11 -21 19 -35 19 -20 0 -25 -6 -31 -34 -3 -19 -2 -41 2 -48 5 -7 -10 2 -33 20 -23 18 -71 43 -107 56 -36 12 -74 29 -83 38 -10 8 -56 28 -103 43 -47 16 -122 44 -167 63 l-83 34 -25 86 c-15 48 -32 105 -40 127 -7 22 -15 58 -18 81 l-5 41 91 7 c49 3 120 6 156 6 67 0 67 0 76 -32 8 -26 16 -34 39 -36 28 -4 29 -2 23 32 l-6 36 93 0 93 0 -5 -29 c-4 -31 13 -50 31 -32 17 17 45 13 56 -7 6 -11 35 -25 70 -35 75 -21 71 -21 71 2 0 11 -12 23 -30 31 l-30 12 44 28 c24 16 47 33 50 39 4 6 23 11 41 11 27 0 44 9 79 43 42 41 44 45 48 114 3 40 10 78 16 85 5 7 10 33 10 58 1 36 -5 50 -31 77 -22 22 -42 33 -62 33 l-30 1 28 24 c38 34 69 40 136 27 119 -22 98 54 -22 78 -34 7 -69 19 -78 26 -10 9 -41 14 -86 14 -68 0 -73 -2 -119 -40 -55 -46 -76 -49 -98 -18 -23 32 -20 46 12 50 25 3 27 6 27 50 0 26 4 50 7 53 4 4 25 -3 48 -16 37 -21 43 -22 53 -9 8 10 30 16 60 16 29 1 54 7 65 17 15 14 32 16 95 11 72 -6 77 -6 77 13 0 10 -4 23 -9 28 -15 16 6 55 29 55 17 0 19 4 14 25 -5 20 0 31 22 50 16 14 34 25 39 26 6 1 21 2 35 2 20 2 26 8 28 30 3 24 -2 30 -27 40 -17 6 -31 15 -31 19 0 11 -1034 10 -1046 -1 -5 -5 -22 -11 -39 -13 -26 -3 -32 -9 -44 -48 -24 -78 -39 -108 -77 -150 -41 -45 -46 -43 -65 23 -8 27 -4 37 30 81 21 28 53 66 71 84 l34 32 -282 0 -281 0 20 -57 c11 -31 18 -72 17 -89 -1 -18 3 -39 10 -47 7 -8 12 -30 12 -48 -1 -71 8 -114 28 -129 11 -9 39 -54 62 -101 23 -46 48 -91 55 -99 7 -8 38 -62 69 -121 31 -58 67 -115 80 -126 14 -12 29 -39 35 -60 39 -145 62 -255 56 -273 -4 -12 -1 -27 5 -35 10 -12 6 -14 -26 -12 -34 2 -39 -1 -42 -21 -8 -51 -72 -48 -72 4 0 33 -47 35 -54 2 -16 -77 -15 -99 5 -117 17 -16 19 -23 9 -41 -24 -45 -8 -53 100 -48 55 2 100 3 100 3 0 -12 -44 -87 -53 -90 -7 -2 -93 -6 -193 -8 -132 -3 -188 -9 -210 -19 -16 -9 -47 -18 -68 -21 -43 -7 -106 -59 -132 -110 -12 -23 -18 -26 -29 -17 -8 7 -17 22 -21 33 -16 54 -94 216 -127 263 -12 18 -29 45 -38 61 -20 37 -99 102 -141 117 -38 13 -138 77 -138 89 0 4 14 7 30 7 21 0 30 -5 30 -16 0 -8 5 -12 11 -9 6 4 8 13 5 21 -10 27 34 14 63 -18 34 -38 64 -34 60 9 -3 46 0 63 14 63 8 0 22 9 31 19 17 19 17 21 -5 43 -21 21 -24 35 -26 102 -1 54 -7 84 -17 95 -14 15 -14 19 4 34 23 19 27 57 6 57 -8 0 -17 7 -20 16 -5 13 -30 17 -26 4 1 -3 -5 -18 -14 -34 -14 -28 -12 -56 5 -56 5 0 9 -13 9 -29 0 -23 -5 -30 -22 -33 -16 -2 -27 -15 -38 -43 -25 -66 -57 -110 -95 -131 -48 -25 -107 -101 -99 -127 5 -15 1 -18 -22 -15 -44 5 -50 48 -13 94 16 21 32 48 35 61 4 13 15 28 25 34 28 15 23 39 -11 50 -36 13 -37 21 -5 53 19 20 25 35 25 71 0 52 14 85 35 85 10 0 15 -10 15 -30 0 -32 27 -54 54 -44 17 6 29 32 20 45 -3 5 2 19 10 31 9 12 16 30 16 40 0 13 8 18 29 18 19 0 35 8 45 22 14 20 14 24 -5 44 -21 23 -21 24 -4 72 20 54 15 85 -12 80 -11 -2 -24 -26 -38 -73 -13 -44 -24 -65 -29 -57 -14 22 -77 43 -113 36 -23 -4 -47 -1 -72 11 -59 26 -109 9 -140 -48 -23 -42 -24 -49 -16 -143 11 -119 11 -155 0 -350 -6 -107 -5 -170 4 -212 11 -55 10 -63 -10 -96 -13 -23 -19 -45 -15 -60 5 -20 14 -25 60 -30 37 -5 61 -3 74 5 16 10 29 9 67 -6 26 -10 55 -25 65 -34 9 -9 30 -24 46 -33 16 -9 30 -26 32 -37 2 -12 7 -21 12 -21 5 0 20 -12 34 -27 19 -20 24 -34 19 -53 -9 -38 -18 -44 -54 -31 -28 10 -39 8 -78 -13 -55 -28 -64 -57 -27 -81 21 -14 24 -20 15 -37 -8 -15 -7 -24 5 -37 9 -10 16 -21 16 -26 0 -13 -80 2 -99 19 -19 18 -29 16 -98 -16 -57 -26 -62 -37 -28 -64 l28 -22 -23 -12 c-18 -9 -25 -9 -40 5 -15 13 -23 14 -39 5 -29 -15 -26 -31 9 -65 17 -16 30 -37 30 -48 0 -10 -24 -42 -53 -70 -29 -29 -59 -66 -66 -84 -12 -29 -16 -31 -48 -26 -40 7 -63 -13 -63 -52 0 -11 -10 -26 -21 -34 -21 -13 -22 -12 -15 25 15 85 26 214 27 309 0 55 1 111 1 125 0 14 0 72 -2 130 -1 58 1 117 5 131 4 16 2 30 -4 33 -15 10 -14 53 1 58 10 4 9 14 0 46 -7 24 -10 47 -7 53 16 25 12 84 -10 133 -15 35 -20 57 -14 67 14 23 11 95 -6 109 -23 19 -18 29 12 27 23 -2 28 3 34 33 7 28 5 38 -11 51 -18 16 -19 19 -5 61 14 40 14 47 -4 83 -17 35 -17 43 -5 66 13 27 33 39 60 39 8 0 31 7 51 15 33 14 35 17 21 33 -9 9 -14 22 -11 28 8 23 -22 34 -61 23 -39 -11 -66 -7 -66 9 0 5 23 20 52 32 61 26 109 60 102 71 -4 8 -33 6 -135 -6 -35 -5 -37 -3 -43 28 -4 17 -9 44 -13 60 -3 15 0 41 7 57 7 16 9 38 5 47 -5 10 -7 26 -6 35 1 9 -5 28 -14 42 -10 15 -14 33 -10 45 3 11 1 30 -6 42 -10 20 -8 25 16 43 l28 20 -29 23 c-27 21 -28 23 -10 36 14 11 16 18 9 32 -6 10 -8 26 -6 36 5 18 -8 19 -331 19 -264 0 -334 -3 -331 -12 6 -16 50 -312 65 -438 6 -52 18 -131 25 -175 7 -44 17 -125 20 -180 9 -129 75 -723 107 -955 5 -41 11 -97 12 -125 5 -87 17 -199 27 -230 4 -16 13 -89 19 -162 6 -72 16 -146 24 -165 20 -50 29 -135 16 -159 -10 -17 -7 -28 15 -61 l27 -40 -31 -29 c-17 -15 -31 -35 -31 -44 0 -18 52 -75 69 -75 6 0 28 15 48 33 64 56 89 67 146 67 53 0 55 1 70 38 l15 37 1 -46 c1 -25 7 -53 14 -63 19 -26 85 -7 115 34 23 31 21 56 -3 46 -13 -4 -22 29 -24 89 -3 61 -9 96 -21 109 -17 21 -50 21 -50 -1 0 -9 -2 -14 -5 -11 -4 3 -3 17 1 32 7 31 40 35 49 6 8 -26 44 -46 49 -28 13 41 16 141 5 154 -17 20 14 55 32 37 7 -7 24 -9 39 -6 15 3 31 0 34 -6 4 -6 18 -11 32 -11 33 0 31 -28 -2 -32 -43 -5 -45 -33 -8 -133 21 -55 34 -109 35 -140 1 -59 11 -90 30 -90 9 0 14 -12 15 -35 1 -51 15 -132 26 -152 10 -21 54 -24 61 -5 2 6 7 9 11 5 4 -3 3 -15 -2 -25 -12 -22 2 -53 23 -53 8 0 15 -9 15 -20 0 -11 11 -48 25 -81 19 -45 23 -64 15 -79 -6 -11 -7 -34 -2 -57 6 -31 13 -39 34 -41 20 -2 32 6 57 40 17 24 38 53 47 66 16 21 44 31 44 15 0 -10 -31 -56 -75 -113 -19 -25 -48 -69 -63 -99 l-29 -55 -7 40 c-11 60 -57 197 -72 215 -8 8 -14 20 -14 25 0 5 -12 46 -26 92 -27 85 -39 96 -76 68 -27 -20 -21 -86 8 -86 9 0 12 -11 10 -37 -5 -53 -29 -50 -37 4 -6 45 -38 89 -76 104 -15 6 -23 17 -23 33 0 58 -129 156 -205 156 -22 0 -56 -8 -75 -18 -30 -15 -35 -21 -32 -50 1 -21 -2 -32 -11 -32 -21 0 -47 -33 -47 -59 0 -27 -43 -77 -122 -141 -45 -38 -62 -81 -43 -107 23 -30 18 -44 -12 -37 -16 4 -36 13 -45 21 -15 14 -18 12 -32 -18 -8 -19 -29 -49 -45 -68 -25 -28 -31 -32 -37 -18 -4 11 7 31 31 59 70 83 121 224 92 261 -19 24 -51 26 -55 2 -4 -19 -19 -35 -34 -35 -3 0 -6 16 -5 35 1 36 -33 85 -60 85 -24 0 -92 -39 -103 -60 -11 -21 -111 -93 -118 -85 -3 3 7 22 22 43 28 41 33 71 14 90 -18 18 -52 14 -66 -8 -7 -12 -28 -22 -52 -26 -24 -4 -74 -29 -122 -60 -45 -30 -86 -54 -92 -54 -5 0 -20 -10 -33 -21 -18 -18 -25 -20 -38 -9 -20 16 -20 80 -1 80 16 0 46 37 46 57 0 7 -9 13 -19 13 -25 0 -37 18 -17 26 21 8 28 32 16 55 -10 18 -7 19 37 19 47 0 49 -2 77 -50 62 -103 80 -75 82 129 3 173 18 326 34 346 6 7 10 17 9 21 -6 37 5 68 35 97 36 34 56 66 56 91 0 9 -25 40 -55 69 l-54 54 9 57 c6 36 18 68 35 87 14 17 25 38 25 47 0 9 7 26 15 36 20 27 19 59 -5 108 -18 37 -18 43 -5 58 19 21 10 30 -27 30 -34 0 -35 12 -3 69 14 23 25 47 25 52 0 27 65 111 96 124 29 12 34 19 34 49 0 19 4 37 10 41 5 3 7 12 4 20 -3 8 10 40 29 72 69 115 60 150 -19 72 -84 -83 -84 -45 0 56 52 63 76 100 76 119 0 34 -25 25 -80 -29 -63 -63 -90 -68 -82 -17 2 16 -1 39 -8 51 -10 20 -7 26 26 56 31 29 36 38 29 62 -4 15 -8 39 -9 53 -2 14 -6 40 -10 58 -6 25 -4 38 9 52 15 17 55 130 55 158 0 6 -9 21 -21 33 -17 17 -19 25 -11 44 6 14 7 37 2 59 -6 26 -4 45 6 64 33 63 5 92 -38 41 -28 -33 -30 -33 -44 -15 -8 11 -14 36 -14 56 0 24 -6 39 -20 48 -11 7 -20 23 -20 36 0 14 -4 27 -9 30 -7 5 -22 108 -22 159 0 17 -50 17 -1045 17 -626 -1 -1044 -5 -1044 -10 0 -24 32 -177 41 -192 13 -24 11 -28 -6 -22 -9 4 -18 -3 -24 -18 -5 -14 -21 -32 -35 -41 -30 -20 -32 -33 -10 -58 16 -18 18 -18 46 -1 15 9 28 23 27 32 -1 8 2 24 6 34 6 15 14 0 32 -64 24 -82 24 -83 5 -102 -10 -11 -36 -25 -58 -33 -47 -16 -61 -2 -42 39 6 15 8 29 5 32 -10 11 -37 -17 -37 -37 0 -11 -6 -28 -12 -40 -11 -17 -10 -22 4 -33 12 -9 14 -16 7 -23 -10 -10 -23 -54 -33 -108 -3 -11 -13 -44 -24 -72 -18 -46 -21 -86 -26 -325 -9 -403 -7 -827 4 -849 9 -15 5 -21 -19 -33 -37 -19 -48 -54 -57 -171 -7 -96 7 -195 30 -214 9 -8 22 -4 46 14 19 14 57 34 86 44 28 11 67 29 85 40 19 12 42 21 53 21 10 0 34 10 54 22 33 20 35 21 48 3 7 -10 15 -23 17 -29 2 -7 25 -10 60 -8 65 4 76 -7 58 -58 -12 -35 -6 -56 17 -65 15 -6 157 40 176 57 12 9 89 10 162 2 38 -5 53 -11 60 -27 12 -29 67 -39 127 -25 43 11 49 10 67 -8 19 -19 18 -19 -118 -20 -202 -1 -591 -61 -732 -112 -30 -11 -73 -23 -95 -27 -43 -7 -123 -33 -141 -47 -6 -5 -36 -18 -65 -31 -66 -27 -148 -110 -183 -187 l-25 -54 4 134 c3 74 7 174 11 221 4 73 3 89 -12 103 -15 16 -15 18 2 37 25 28 6 45 -38 33 l-33 -10 -2 -78 c-3 -82 -12 -102 -50 -117 -27 -10 -29 -32 -8 -109 8 -30 14 -73 14 -95 l-1 -40 -10 45 c-6 28 -19 53 -36 66 -24 19 -25 24 -14 48 8 18 9 34 1 53 -5 14 -8 32 -5 39 2 6 -2 20 -9 31 -9 12 -10 24 -4 34 16 25 10 49 -16 59 -13 5 -32 24 -41 41 -15 30 -15 34 1 61 12 21 15 40 11 64 -6 27 -4 34 9 34 39 0 68 65 49 114 -15 40 -84 -9 -84 -60 0 -13 -4 -24 -8 -24 -17 0 -21 13 -11 33 16 28 -5 93 -35 112 -14 10 -34 13 -48 10 -23 -6 -24 -4 -20 23 3 23 -3 34 -33 60 -31 28 -39 31 -57 21 -18 -10 -24 -8 -39 12 -22 29 -24 39 -6 39 20 0 47 33 47 58 0 12 -9 26 -19 32 -16 8 -26 5 -49 -15 l-29 -24 -20 22 c-23 25 -87 149 -133 257 -18 41 -38 82 -45 90 -16 18 -59 114 -69 155 -4 17 -13 37 -21 45 -7 8 -25 42 -40 76 -20 45 -37 66 -62 79 -45 24 -63 10 -45 -37 6 -17 9 -35 6 -39 -3 -5 3 -25 12 -45 21 -44 11 -54 -57 -51 -36 2 -55 -4 -79 -21 -17 -13 -47 -26 -65 -29 -21 -3 -37 -13 -40 -23 -7 -22 -57 -44 -83 -36 -13 4 -33 -5 -63 -29 -24 -19 -56 -35 -70 -35 -29 0 -53 -17 -63 -43 -4 -13 3 -27 24 -47 26 -24 28 -29 15 -40 -9 -7 -32 -13 -53 -14 -27 -1 -38 -6 -40 -19 -5 -23 26 -58 47 -55 11 2 17 -9 23 -41 4 -24 5 -48 2 -52 -7 -12 -106 -11 -137 0 -19 7 -27 20 -32 51 -5 32 -13 45 -34 53 -14 7 -39 21 -54 31 -28 19 -28 19 -57 -3 -32 -23 -55 -27 -65 -11 -11 18 -47 11 -52 -10 -5 -21 -36 -36 -65 -31 -10 1 -18 -3 -18 -8 0 -6 5 -11 11 -11 19 0 39 -28 39 -54 0 -27 16 -47 60 -73 17 -9 30 -25 30 -34 0 -27 26 -47 53 -42 26 5 107 -39 107 -57 0 -6 6 -10 14 -10 7 0 25 -9 39 -20 14 -11 34 -20 45 -20 10 0 27 -9 37 -20 10 -11 30 -20 45 -20 21 0 34 -10 53 -39 16 -23 37 -41 54 -45 15 -4 37 -16 48 -27 11 -10 31 -28 45 -38 16 -13 22 -23 15 -29 -5 -6 -68 -18 -140 -27 -71 -9 -148 -23 -170 -31 -130 -45 -265 -56 -403 -34 -59 10 -67 9 -120 -16 -31 -15 -70 -37 -87 -49 -16 -13 -57 -29 -90 -37 -53 -13 -60 -18 -63 -41 -3 -22 2 -27 25 -33 57 -12 98 -27 211 -79 103 -46 170 -69 302 -104 57 -15 1 -13 -135 5 -193 26 -288 32 -315 22 -14 -5 -48 -27 -77 -49 -87 -65 -188 -99 -296 -99 -56 0 -92 -6 -142 -26 -38 -14 -80 -24 -94 -22 -23 3 -25 7 -26 53 -1 38 3 53 17 63 10 7 18 19 18 26 0 21 44 59 97 85 91 45 109 81 51 105 -41 18 -102 -1 -138 -42 -91 -103 -224 -248 -231 -250 -5 -2 -16 14 -26 35 -10 21 -33 57 -53 80 -83 99 -125 173 -116 207 7 27 -2 39 -39 52 -28 10 -33 8 -77 -39 l-47 -50 -22 27 c-18 23 -20 30 -8 37 8 5 20 9 27 9 10 0 10 5 2 20 -13 24 -60 28 -60 5 0 -9 -7 -18 -15 -21 -20 -8 -19 -44 1 -59 15 -11 14 -14 -7 -34 l-24 -22 27 -24 c25 -21 26 -24 11 -51 -8 -16 -12 -40 -10 -53 5 -25 -6 -52 -69 -172 -18 -37 -34 -77 -34 -89 0 -31 -17 -16 -45 40 -14 27 -81 110 -150 185 -130 141 -167 195 -150 219 46 62 44 52 47 286 2 242 -2 333 -19 365 -11 19 -36 108 -55 190 -5 22 -15 95 -22 163 l-13 123 -41 42 c-45 46 -115 180 -126 242 -4 22 -22 74 -41 115 -18 41 -36 98 -40 125 -10 70 -21 88 -45 75 -25 -14 -42 16 -34 59 5 26 3 32 -20 42 -33 15 -35 54 -3 79 26 22 17 47 -26 68 -27 13 -39 39 -13 29 7 -3 18 -1 23 4 6 6 14 5 22 -5 7 -8 19 -12 26 -9 9 3 16 -5 20 -24 4 -15 11 -39 16 -52 9 -22 12 -23 25 -9 16 16 35 75 37 118 2 22 -2 25 -30 23 -28 -3 -32 1 -38 27 -4 16 -4 34 0 40 9 14 -13 50 -30 50 -18 0 -19 11 -4 44 7 14 8 33 4 43 -4 10 -10 43 -12 73 -6 95 -7 97 -59 104 -26 3 -87 6 -137 6 l-89 0 6 -45 c5 -29 3 -45 -3 -45 -17 0 -44 49 -38 70 5 20 0 20 -939 20 l-944 0 0 -564z"/>
 <path d="M3226 10652 c16 -14 19 -21 10 -35 -14 -22 3 -51 32 -55 15 -2 25 6 37 28 11 21 21 29 33 26 9 -3 29 -8 45 -12 19 -4 27 -12 27 -29 0 -32 25 -51 45 -35 12 10 15 10 15 -3 0 -9 -13 -26 -29 -39 -18 -15 -37 -46 -51 -88 -12 -36 -29 -72 -36 -80 -9 -11 -13 -39 -10 -93 2 -64 6 -81 25 -101 13 -14 20 -29 17 -35 -11 -17 23 -71 44 -71 13 0 20 -7 20 -20 0 -14 5 -18 18 -13 15 6 15 5 3 -10 -10 -13 -17 -14 -27 -6 -16 13 -50 4 -58 -16 -3 -8 4 -21 16 -29 21 -15 21 -16 -14 -30 -43 -18 -69 -56 -68 -99 0 -17 -2 -46 -6 -64 -5 -25 -1 -35 15 -50 19 -16 21 -25 15 -70 -6 -48 -4 -51 17 -58 13 -3 38 -14 56 -23 38 -19 57 -8 67 38 4 22 11 30 27 30 18 0 20 -4 14 -22 -14 -43 -17 -96 -6 -102 6 -4 11 -20 11 -35 0 -41 22 -64 59 -63 40 1 63 8 138 44 34 16 67 27 73 23 17 -11 4 -20 -50 -35 -28 -8 -53 -18 -56 -22 -3 -4 -16 -8 -29 -8 -13 0 -36 -10 -52 -23 -15 -12 -62 -44 -103 -71 -41 -27 -86 -57 -100 -67 -14 -10 -54 -34 -90 -52 -36 -19 -83 -46 -105 -61 -22 -15 -73 -43 -112 -62 -85 -41 -88 -50 -40 -120 19 -27 62 -97 96 -155 94 -161 137 -191 125 -84 -6 49 -4 59 26 105 18 27 60 73 94 101 56 47 105 103 149 172 10 15 22 27 27 27 5 0 17 -26 26 -57 28 -96 48 -129 94 -147 41 -16 42 -16 85 11 39 25 44 32 47 71 l3 44 28 -22 c20 -16 31 -19 40 -12 19 16 185 97 239 117 59 22 73 38 70 79 -2 33 -1 33 54 44 36 8 78 26 115 52 32 22 62 40 65 40 4 0 22 14 41 30 18 17 38 30 43 30 5 0 18 17 29 38 31 60 118 134 221 187 57 29 117 70 150 101 30 29 75 68 100 86 56 42 64 76 24 107 -34 26 -49 26 -154 -4 -46 -13 -86 -23 -87 -21 -1 1 26 19 60 39 75 44 127 56 233 57 47 0 100 7 128 16 41 14 50 23 66 59 17 39 24 44 91 69 79 29 89 38 89 75 0 14 10 35 21 47 27 29 19 53 -21 60 -40 9 -44 17 -20 47 27 34 26 43 -16 145 -19 48 -43 108 -52 135 l-16 47 -1085 0 c-1027 -1 -1085 -2 -1065 -18z"/>
 <path d="M2 1388 l3 -251 145 -64 c137 -60 186 -83 266 -126 35 -19 47 -43 17 -34 -49 15 -162 62 -290 120 l-143 65 0 -108 0 -108 117 -7 c106 -7 122 -10 176 -40 l59 -33 -74 -7 c-40 -4 -119 -7 -176 -7 l-102 1 0 -394 0 -395 1503 1 c1424 2 1496 3 1392 18 -98 14 -104 16 -60 19 28 2 115 -1 195 -8 245 -19 425 -23 948 -22 276 0 521 1 545 2 23 0 62 0 85 0 49 -2 64 6 42 20 -9 6 -10 10 -3 10 6 0 15 -5 18 -11 4 -6 23 -10 44 -9 68 3 86 -3 26 -10 -45 -5 -22 -7 87 -8 132 -2 147 0 151 16 4 16 5 16 6 0 1 -23 49 -24 65 -2 8 11 20 13 39 9 15 -4 24 -11 21 -16 -8 -13 208 -11 226 2 11 8 12 12 3 15 -9 4 -8 14 4 39 21 45 6 64 -51 66 -22 1 -32 3 -21 5 11 2 63 0 115 -5 58 -5 77 -9 48 -10 -55 -1 -70 -17 -39 -42 16 -13 21 -25 16 -39 -5 -16 -2 -20 19 -20 14 0 26 -4 26 -10 0 -7 161 -9 468 -8 294 0 428 4 362 8 -176 12 -249 22 -220 31 20 6 21 7 5 8 -20 1 -286 30 -475 52 -57 7 -99 14 -92 17 12 4 259 -17 517 -43 274 -28 372 -35 476 -35 57 0 196 -9 309 -20 195 -19 276 -20 1605 -19 770 1 1393 3 1385 4 -8 2 -64 9 -125 17 -81 9 -102 14 -80 19 23 5 17 7 -27 8 -43 1 -59 -3 -66 -15 -8 -15 -22 -16 -118 -8 -82 6 -99 9 -69 14 37 5 34 6 -30 12 -259 26 -627 61 -775 73 -96 8 -227 19 -290 25 -141 13 -193 16 -435 30 -104 6 -251 15 -325 20 -74 6 -216 15 -315 20 -177 9 -506 35 -575 45 -19 3 -147 14 -284 26 -138 11 -253 22 -256 24 -4 2 -130 13 -280 25 -150 11 -366 29 -479 39 -113 10 -237 17 -276 16 -38 -2 -84 1 -102 7 -18 5 -90 11 -160 12 -70 2 -139 8 -153 13 -14 5 -45 11 -70 12 -82 5 -178 18 -138 20 20 0 43 4 52 7 20 8 21 38 1 54 -28 23 -118 61 -133 55 -8 -3 -16 3 -19 14 -7 27 -35 36 -49 17 -16 -23 -23 -20 -21 11 2 22 -7 33 -46 59 -40 26 -55 31 -88 27 -37 -5 -39 -4 -45 27 -4 17 -14 34 -23 37 -9 3 -24 13 -34 21 -10 9 -37 18 -60 22 -32 4 -41 9 -39 22 2 11 -18 31 -60 58 -34 22 -67 40 -73 40 -7 0 -25 11 -41 25 -16 14 -34 25 -40 25 -6 0 -17 7 -24 15 -6 8 -40 30 -73 50 -34 19 -105 62 -157 95 -64 40 -105 59 -125 59 -92 -3 -103 6 -65 54 11 14 20 32 20 40 0 22 26 41 33 24 3 -8 1 -20 -4 -28 -5 -8 -9 -20 -9 -26 0 -20 18 -15 25 7 3 10 28 41 54 67 56 56 114 154 105 177 -8 20 -36 28 -68 20 -16 -4 -32 -1 -41 6 -20 17 -90 -3 -104 -29 -6 -9 -13 -53 -17 -97 -4 -43 -11 -84 -16 -91 -17 -21 -150 -25 -512 -14 -315 10 -361 10 -374 -3 -21 -21 -1 -43 45 -52 19 -4 53 -17 76 -30 23 -13 69 -37 101 -54 33 -16 66 -36 75 -43 9 -8 50 -32 91 -54 42 -23 106 -61 142 -85 172 -111 270 -163 328 -173 33 -6 36 -9 32 -32 -5 -25 -4 -26 36 -19 37 5 44 3 75 -26 19 -18 42 -46 51 -63 9 -16 27 -43 41 -60 l25 -30 327 -5 328 -5 78 -52 78 -52 -93 4 c-95 5 -291 18 -548 35 -80 5 -155 10 -167 10 -15 0 -23 7 -25 22 -2 17 -23 33 -83 63 -88 45 -203 110 -280 160 -46 30 -407 243 -668 394 -61 36 -124 65 -146 68 -36 5 -39 8 -45 44 -4 24 -14 42 -27 49 -11 6 -82 13 -157 16 -75 2 -177 7 -227 10 -49 3 -105 5 -122 5 -32 -2 -44 11 -22 24 17 11 108 7 160 -6 38 -10 51 -10 63 0 11 9 24 10 56 1 40 -11 44 -10 69 14 15 14 35 26 44 26 10 0 27 16 38 35 29 49 41 44 37 -17 -3 -59 13 -72 35 -29 14 29 37 39 37 17 0 -22 29 -20 37 2 4 9 15 29 26 43 24 34 19 70 -14 88 -33 18 -64 9 -51 -16 5 -10 6 -27 2 -38 -7 -17 -9 -16 -16 13 -13 60 -18 61 -375 67 -178 3 -367 9 -419 13 -52 4 -104 6 -115 5 -11 -1 -105 3 -210 8 -104 5 -316 11 -470 15 -154 3 -314 10 -355 14 -41 5 -101 9 -133 9 l-57 1 2 -252z"/>
 </g>
<g id="layer103" fill="#ab3f48" stroke="none">
 <path d="M0 10385 c0 -249 2 -285 15 -285 17 0 36 -41 34 -74 -4 -42 1 -56 20 -56 10 0 21 -7 25 -15 7 -19 35 -19 42 0 8 19 24 9 24 -14 0 -10 7 -24 15 -31 13 -10 12 -15 -3 -36 -20 -27 -68 -34 -58 -8 10 27 -13 57 -39 50 -27 -7 -44 14 -46 56 -1 13 -6 3 -11 -22 -15 -66 -21 -309 -9 -324 13 -15 32 -608 30 -946 -1 -324 -3 -302 22 -298 17 2 27 18 45 73 21 63 23 82 18 190 -3 66 -7 128 -10 137 -4 13 8 20 53 35 l58 18 6 85 c4 47 12 119 18 160 7 44 11 180 11 330 -1 140 2 272 6 293 l6 38 137 -7 c85 -4 147 -12 164 -21 27 -14 181 -53 222 -56 26 -3 34 42 10 59 -20 15 -16 17 58 38 50 15 58 20 55 39 -2 17 -12 24 -43 29 -79 16 -109 17 -162 6 -40 -8 -57 -8 -65 0 -7 7 -10 14 -7 16 3 3 146 6 319 7 173 1 326 6 340 11 14 5 36 22 50 38 32 38 80 48 270 56 105 5 158 12 193 25 26 11 50 19 52 19 21 0 45 -236 35 -348 -1 -12 9 -46 23 -75 16 -32 36 -109 52 -197 14 -80 37 -190 50 -245 48 -200 136 -651 131 -675 -2 -14 2 -32 10 -41 8 -9 23 -62 34 -119 11 -56 24 -108 28 -114 4 -6 10 -132 13 -281 4 -151 12 -296 19 -330 54 -255 59 -275 112 -380 74 -148 94 -170 177 -195 56 -16 76 -29 113 -68 25 -27 51 -58 57 -70 8 -16 12 -236 12 -824 1 -442 3 -811 6 -820 5 -19 38 -24 48 -8 8 14 48 13 63 -2 10 -10 29 -13 107 -18 6 0 42 4 80 9 39 5 113 15 165 21 81 10 98 15 118 36 12 14 22 30 22 37 1 7 3 41 6 77 2 36 4 76 4 90 0 47 -16 255 -19 265 -3 6 -2 17 2 25 3 8 7 37 10 63 3 26 7 51 10 54 4 3 46 -30 95 -73 138 -123 205 -160 435 -240 38 -13 99 -29 135 -34 96 -16 106 -22 153 -92 41 -61 56 -78 71 -78 16 0 118 108 118 126 1 52 12 65 96 104 46 21 107 54 136 73 96 62 148 89 163 84 8 -4 23 -24 35 -46 13 -26 35 -49 61 -63 22 -13 55 -31 72 -40 52 -29 59 -7 27 87 -25 72 -25 106 -1 136 18 23 72 140 86 187 4 14 14 22 30 22 26 0 47 30 85 123 28 67 47 88 61 66 5 -8 9 -26 9 -41 0 -46 28 -34 99 41 134 142 187 212 210 282 6 20 22 50 35 67 15 21 22 41 19 56 -3 15 6 47 21 78 l27 54 -36 99 c-20 55 -45 115 -55 135 -10 19 -28 78 -40 130 -24 101 -39 139 -64 159 -9 8 -16 24 -16 36 0 40 -11 55 -39 55 -25 0 -28 4 -40 63 -6 34 -12 78 -11 98 0 22 -8 46 -20 62 -11 14 -20 30 -20 37 0 6 -13 37 -29 70 -16 32 -32 72 -36 89 -3 17 -17 38 -30 48 -23 18 -45 103 -26 103 10 0 85 -127 159 -270 30 -58 62 -114 72 -125 10 -11 32 -48 49 -82 17 -34 43 -80 58 -101 58 -82 176 -214 200 -223 36 -13 87 -11 109 6 10 8 25 15 33 15 7 0 45 16 82 35 79 40 95 43 104 15 6 -18 9 -18 38 -6 27 11 32 18 32 46 0 32 4 36 70 70 l70 36 11 -51 c6 -27 25 -97 42 -155 23 -76 31 -123 30 -170 -1 -36 6 -110 15 -165 9 -55 23 -146 31 -201 9 -65 27 -134 49 -190 20 -51 39 -123 46 -171 5 -44 26 -143 45 -220 18 -76 37 -158 41 -183 4 -25 20 -70 36 -100 16 -30 40 -86 54 -123 30 -80 55 -131 89 -182 14 -20 30 -53 37 -73 6 -20 24 -55 39 -77 36 -54 79 -152 84 -193 2 -18 5 -34 7 -35 49 -33 79 -63 98 -100 13 -26 64 -85 116 -134 133 -127 150 -138 271 -177 43 -14 64 -15 133 -7 86 11 193 36 224 53 27 14 79 -25 124 -90 33 -51 36 -62 50 -190 11 -110 12 -159 3 -247 -12 -116 -17 -130 -55 -139 -52 -13 -89 -131 -40 -131 14 0 27 15 44 49 l24 50 11 -39 c9 -29 18 -41 36 -45 19 -4 26 -13 27 -35 5 -55 24 -139 49 -217 27 -83 46 -105 132 -155 61 -35 135 -91 145 -110 12 -20 4 -25 -39 -29 -31 -2 -38 2 -52 27 -22 38 -67 41 -84 4 -10 -21 -8 -30 10 -54 11 -15 24 -46 28 -67 11 -63 46 -74 67 -22 l14 33 7 -47 c4 -26 16 -58 27 -71 23 -30 25 -89 4 -107 -12 -10 -53 -12 -173 -7 -176 7 -188 12 -178 76 6 36 16 53 23 35 2 -6 10 -19 17 -29 13 -18 14 -18 24 1 13 24 27 232 19 266 -6 23 -11 25 -67 25 -70 0 -66 6 -74 -122 -4 -83 -12 -115 -27 -115 -13 0 -11 86 3 131 15 51 -1 89 -37 89 -18 0 -26 -7 -31 -26 -7 -29 1 -227 11 -261 6 -18 3 -22 -22 -25 -24 -3 -28 -8 -31 -40 -2 -27 1 -39 15 -46 10 -5 80 -13 155 -17 l137 -7 6 -46 c21 -171 49 -244 141 -370 22 -30 13 -37 -30 -21 -32 12 -34 14 -21 30 17 18 9 29 -28 42 -11 4 -21 16 -24 27 -7 28 -58 53 -92 45 -20 -4 -32 0 -46 15 -25 28 -53 26 -61 -5 -7 -28 -8 -29 -34 -15 -14 7 -25 7 -38 -1 -24 -15 -72 -4 -72 17 0 8 5 25 11 36 8 16 8 24 -4 35 -12 13 -21 13 -51 3 -35 -11 -37 -10 -70 24 -50 54 -66 47 -72 -31 -2 -32 1 -46 12 -50 8 -3 21 -18 30 -34 16 -31 60 -59 94 -59 38 0 70 -30 76 -71 4 -22 11 -39 16 -39 6 0 8 -10 4 -23 -7 -31 13 -58 78 -101 68 -45 100 -47 124 -6 22 36 42 24 42 -25 0 -44 22 -60 115 -83 87 -21 101 -20 110 9 7 22 37 18 66 -7 10 -9 39 -13 84 -13 59 1 72 -2 86 -20 31 -38 63 -43 100 -15 30 22 35 23 45 9 14 -19 25 -19 61 -1 15 8 54 27 86 41 40 19 57 32 57 45 0 11 12 25 28 32 18 9 28 22 30 42 4 36 25 59 40 44 16 -16 73 -1 106 27 18 16 41 25 62 25 18 0 44 5 58 12 34 15 69 75 61 105 -6 27 15 32 35 8 17 -20 47 -19 59 3 6 11 22 17 42 17 29 0 34 4 47 40 8 22 22 60 32 85 27 66 36 183 15 204 -9 9 -21 16 -26 16 -16 0 -98 -83 -110 -112 -10 -24 -25 -33 -51 -29 -4 0 -19 -10 -32 -24 -50 -50 -83 -22 -37 31 47 53 85 135 105 227 l7 28 26 -21 c18 -14 35 -19 50 -15 13 3 33 0 45 -6 12 -7 35 -12 50 -11 15 0 28 -4 28 -9 0 -5 21 -19 48 -30 l47 -21 43 22 c23 13 42 27 42 31 0 5 9 9 20 9 11 0 28 4 38 9 112 55 132 72 132 115 0 8 11 17 25 20 38 10 50 40 29 76 -14 22 -15 32 -6 43 10 11 7 23 -13 58 -31 56 -31 59 5 59 63 0 64 72 2 158 -31 43 -41 52 -62 48 -18 -3 -33 5 -57 30 -23 25 -40 34 -63 34 -17 0 -45 7 -61 16 -28 14 -33 14 -54 0 -33 -22 -44 -20 -51 9 -9 36 -38 32 -52 -8 -7 -18 -12 -41 -12 -50 0 -9 -11 -24 -25 -33 -13 -9 -27 -23 -30 -32 -4 -16 -71 -87 -131 -140 -21 -18 -24 -28 -19 -56 6 -31 4 -34 -26 -45 -42 -15 -54 -14 -41 2 13 15 4 31 -21 40 -23 9 -57 -25 -57 -57 0 -13 -6 -29 -14 -35 -25 -21 -29 -69 -16 -185 11 -98 10 -119 -5 -176 -23 -87 -35 -109 -108 -186 -60 -65 -155 -124 -200 -124 -11 0 -25 -17 -39 -48 -13 -26 -24 -49 -25 -51 -2 -2 -11 3 -21 12 -21 20 -45 21 -73 6 -12 -6 -37 -8 -60 -4 -36 6 -42 12 -69 64 -42 84 -67 170 -89 306 -27 167 -33 235 -21 235 5 0 10 -11 10 -25 0 -14 10 -35 21 -46 17 -17 28 -20 58 -14 20 3 46 8 58 10 83 12 111 19 138 33 18 9 61 16 110 17 56 1 94 8 125 22 25 11 54 23 65 27 24 7 80 114 91 172 4 22 18 68 31 104 32 84 53 205 53 303 0 181 -71 489 -142 615 -31 54 -86 115 -196 215 l-63 58 38 29 c89 69 143 99 188 106 26 3 57 16 68 27 24 24 148 110 152 105 2 -2 6 -104 10 -228 7 -258 8 -266 35 -275 11 -3 20 -12 20 -19 0 -7 9 -25 20 -39 25 -32 25 -36 -3 -46 -20 -8 -23 -15 -19 -43 2 -18 20 -54 38 -81 41 -57 43 -77 9 -77 -14 0 -28 -6 -31 -14 -7 -18 20 -71 47 -89 20 -14 20 -15 -12 -39 -35 -28 -32 -43 14 -87 23 -21 29 -22 61 -11 20 6 40 9 45 6 5 -3 14 1 21 9 19 22 48 18 66 -10 16 -24 54 -35 54 -16 0 5 18 29 40 53 37 39 39 44 23 55 -9 7 -27 13 -40 13 -35 0 -28 29 18 76 49 50 48 74 -6 74 -33 0 -35 2 -35 32 0 24 10 42 37 70 30 31 34 40 23 53 -7 8 -25 15 -41 15 -38 0 -39 30 -3 82 22 31 24 40 14 53 -7 8 -19 15 -26 15 -24 0 -16 56 13 90 30 36 24 62 -16 68 -29 5 -27 33 5 93 29 52 27 79 -6 79 -25 0 -26 20 0 62 29 47 27 78 -5 78 -21 0 -25 5 -25 28 1 15 7 38 15 52 20 35 18 58 -5 65 -25 8 -26 52 -2 80 9 12 42 40 72 62 102 78 228 214 250 270 10 28 16 53 13 56 -3 3 2 26 10 50 8 24 13 55 10 69 -4 20 2 30 25 46 29 21 72 113 72 154 0 12 -26 47 -61 82 -34 33 -69 71 -77 84 -25 38 -4 38 32 -1 35 -39 54 -45 74 -25 20 20 14 52 -26 130 l-39 75 24 27 c12 15 23 35 23 44 0 10 9 36 20 57 12 23 20 55 18 75 -2 32 0 35 22 33 65 -6 107 -5 134 2 28 8 29 7 22 -21 -10 -40 -26 -56 -50 -50 -36 9 -46 -11 -46 -100 0 -62 4 -87 16 -98 18 -19 53 -20 89 -4 22 10 29 9 48 -10 l21 -22 -71 0 c-96 0 -103 -8 -103 -114 0 -52 5 -87 13 -95 6 -6 12 -24 12 -38 0 -54 61 -57 71 -3 5 21 12 30 25 30 12 0 19 7 19 20 0 24 -35 28 -44 5 -3 -8 -16 -15 -28 -15 -37 0 81 113 119 114 26 1 28 4 31 44 3 37 0 44 -18 49 l-21 6 21 19 c27 26 27 78 -1 85 -17 5 -19 10 -13 32 4 14 8 38 7 52 l0 25 116 -41 c64 -23 131 -50 150 -59 62 -33 138 3 112 52 -15 28 -108 96 -181 132 -85 42 -132 78 -128 98 5 33 -23 82 -51 88 -14 3 -39 12 -56 19 -16 7 -45 16 -64 20 -22 5 -56 30 -104 77 -73 71 -112 98 -144 98 -10 0 -34 10 -54 23 -20 12 -50 31 -68 42 -138 85 -151 95 -151 124 0 10 3 11 14 2 11 -9 16 -9 22 0 4 7 0 17 -9 24 -10 7 -17 22 -17 34 0 12 -7 24 -15 27 -8 4 -15 15 -15 25 0 25 -15 24 -34 -3 -13 -18 -18 -19 -30 -8 -13 10 -17 9 -22 -3 -7 -19 4 -40 16 -32 11 7 65 -43 57 -52 -9 -8 -70 25 -110 60 -26 22 -28 27 -12 25 14 -2 21 4 23 20 2 12 8 22 13 22 5 0 9 14 9 30 0 17 6 43 14 59 18 33 25 114 11 120 -9 3 -27 -21 -57 -79 -11 -20 -24 -26 -63 -31 -36 -5 -70 -20 -120 -53 -72 -47 -85 -53 -85 -36 0 15 59 78 79 85 10 3 23 15 29 28 6 12 35 50 66 85 35 40 56 72 56 88 0 24 -23 34 -35 14 -3 -5 -17 -10 -30 -10 -12 0 -25 -7 -29 -15 -3 -8 -13 -15 -21 -15 -24 0 -104 -48 -152 -92 -40 -36 -63 -47 -63 -30 1 14 36 49 86 85 67 48 172 160 180 193 9 34 -7 49 -35 35 -12 -7 -21 -15 -21 -20 0 -12 -91 -68 -123 -76 -16 -4 -51 -27 -80 -51 -67 -58 -106 -60 -153 -9 -26 29 -39 35 -73 35 -32 0 -44 -5 -57 -25 -20 -31 -28 -26 -59 39 -26 56 -35 146 -14 146 7 0 9 11 6 29 -4 21 -2 31 9 35 19 7 9 26 -15 26 -10 0 -25 8 -35 19 -16 17 -15 18 27 24 24 3 53 4 65 0 12 -3 42 -2 68 2 36 5 44 10 40 22 -4 9 2 24 14 35 11 10 20 28 20 39 0 11 4 28 10 38 5 10 12 60 15 110 3 51 12 120 20 154 61 264 62 266 8 305 -24 18 -25 22 -15 48 21 54 32 158 32 319 0 143 2 163 20 190 11 17 20 37 20 46 0 9 9 24 20 34 28 25 25 59 -5 79 -21 14 -23 20 -15 36 5 10 10 33 10 50 0 18 9 43 20 57 24 31 26 61 5 70 -18 6 -55 -23 -55 -44 0 -7 -6 -13 -13 -13 -10 0 -14 30 -15 128 l-3 127 42 20 c51 24 70 51 58 83 -7 18 -16 22 -48 22 -46 0 -61 18 -61 70 0 28 2 31 23 25 12 -4 32 -19 44 -34 20 -24 22 -25 29 -7 4 10 2 27 -4 36 -8 14 -8 21 2 29 7 6 17 33 20 59 13 88 12 96 -11 107 -28 12 -29 21 -5 27 14 4 18 15 18 49 -1 40 -3 44 -26 44 -14 0 -41 12 -59 27 l-32 28 3 82 c3 46 13 120 22 165 20 86 16 141 -9 167 -8 8 -15 19 -15 25 0 8 -205 11 -687 11 -448 0 -683 -4 -673 -10 12 -8 9 -10 -12 -10 -16 0 -28 5 -28 10 0 6 -49 10 -126 10 -69 0 -123 -4 -120 -8 3 -5 -8 -16 -25 -26 -37 -22 -36 -28 2 -61 l32 -26 -24 -25 c-23 -24 -23 -24 -31 -4 -12 31 -36 24 -53 -17 -8 -20 -13 -38 -10 -41 2 -2 -2 -14 -10 -26 -8 -11 -15 -28 -15 -36 0 -13 -7 -15 -30 -12 -47 7 -39 -30 20 -98 28 -32 50 -62 50 -67 0 -5 -12 -15 -26 -22 -25 -11 -31 -8 -75 29 -59 50 -84 53 -75 10 7 -39 55 -99 112 -139 24 -18 45 -38 46 -44 0 -7 2 -16 3 -22 2 -5 3 -14 4 -19 0 -5 7 -3 15 3 12 10 23 7 55 -14 46 -31 60 -55 31 -55 -11 0 -20 5 -20 10 0 16 -30 12 -36 -5 -10 -24 12 -42 46 -37 22 3 31 0 36 -14 4 -11 17 -28 30 -39 25 -22 35 -75 17 -96 -6 -8 -16 -30 -21 -49 -7 -23 -11 -28 -11 -14 -1 28 -24 46 -45 38 -12 -5 -19 0 -23 14 -3 12 -14 24 -24 27 -20 7 -26 25 -9 25 16 0 12 22 -7 35 -9 7 -22 28 -28 46 -15 42 -45 52 -45 15 0 -32 -27 -35 -32 -3 -4 28 -23 24 -23 -6 0 -15 -7 -23 -23 -25 -13 -2 -27 -13 -31 -25 -8 -22 -5 -113 6 -175 3 -22 0 -38 -10 -50 -8 -9 -21 -36 -28 -59 -7 -24 -17 -43 -22 -43 -5 0 -7 -19 -5 -45 6 -51 -15 -125 -39 -138 -10 -6 -13 -17 -9 -33 4 -14 3 -30 -1 -37 -4 -7 -9 -50 -10 -97 -1 -47 -2 -98 -3 -114 0 -16 -14 -49 -30 -73 -34 -50 -37 -74 -13 -94 9 -8 22 -29 30 -46 7 -18 19 -33 26 -33 6 0 1 -9 -12 -19 -26 -20 -25 -54 2 -59 20 -4 57 24 57 43 0 7 -7 18 -15 25 -8 7 -15 24 -15 39 0 25 3 27 34 23 30 -3 36 0 50 26 8 16 30 35 48 42 79 31 128 72 154 129 15 31 37 78 50 105 13 28 24 58 24 68 0 10 4 18 9 18 5 0 16 2 23 5 11 4 14 -6 13 -47 -3 -94 -16 -146 -51 -195 -18 -25 -30 -51 -27 -56 3 -5 -9 -22 -26 -37 -58 -54 -42 -63 144 -80 152 -14 226 -9 253 19 9 9 29 25 45 34 25 16 29 16 55 2 59 -34 132 -92 132 -106 0 -4 -32 -6 -71 -4 -51 2 -80 9 -98 22 -35 26 -58 34 -76 27 -29 -12 -14 -40 45 -84 33 -25 62 -53 66 -62 3 -10 17 -21 32 -24 15 -4 61 -18 102 -31 52 -17 88 -24 118 -20 44 5 87 34 97 68 3 9 16 20 28 23 20 6 21 7 5 19 -12 10 -16 28 -16 73 1 67 10 84 45 84 16 0 27 7 30 20 9 34 27 22 95 -60 105 -128 163 -169 239 -170 23 0 39 -6 42 -14 3 -8 26 -24 51 -35 50 -22 58 -36 25 -46 -15 -5 -29 1 -48 19 -16 15 -44 29 -64 33 -50 8 -58 -15 -23 -67 33 -50 101 -204 109 -247 5 -27 3 -35 -14 -44 -15 -8 -24 -8 -32 0 -15 15 -27 14 -27 -3 0 -22 -18 -29 -74 -30 -47 -1 -51 -3 -51 -26 0 -29 2 -29 -89 5 -54 20 -71 23 -83 14 -7 -7 -12 -18 -9 -25 7 -18 -17 -34 -41 -28 -12 3 -30 1 -41 -5 -15 -8 -33 -6 -73 6 -30 9 -59 17 -65 19 -34 6 -62 19 -89 39 -17 12 -54 33 -83 45 -45 19 -61 21 -115 15 -34 -4 -96 -9 -137 -11 -96 -5 -86 -4 -220 -21 -63 -8 -137 -16 -164 -19 -28 -3 -53 -7 -58 -10 -4 -3 -31 -9 -60 -14 -113 -21 -149 -30 -190 -50 -23 -11 -50 -20 -60 -20 -10 0 -41 -11 -68 -25 -27 -14 -56 -25 -65 -25 -8 0 -23 -9 -32 -20 -10 -11 -26 -20 -36 -20 -35 0 -99 -61 -124 -119 -30 -66 -31 -78 -14 -120 13 -29 17 -31 45 -25 17 3 36 11 43 16 15 12 6 69 -14 85 -9 7 -12 19 -8 32 9 28 54 81 69 81 7 0 17 5 24 12 14 14 83 38 93 32 9 -5 87 24 108 40 8 6 49 11 92 12 43 1 84 6 92 12 19 16 144 27 170 15 37 -17 109 -34 186 -44 41 -5 82 -16 91 -24 9 -8 25 -15 36 -15 28 0 74 -47 74 -75 0 -26 20 -50 49 -60 14 -4 19 -14 18 -32 -2 -22 2 -26 26 -27 25 -2 76 -46 77 -68 0 -5 16 -8 36 -8 28 0 43 -8 69 -35 18 -20 48 -46 66 -58 19 -13 34 -31 34 -42 0 -12 9 -21 25 -25 18 -4 25 -13 25 -30 0 -19 5 -25 22 -25 15 0 31 -13 48 -37 18 -27 33 -38 50 -38 15 0 25 -6 25 -14 0 -27 42 -86 60 -86 10 0 22 -9 25 -21 8 -25 10 -23 -39 -43 -36 -15 -41 -15 -63 -1 -13 9 -43 19 -66 23 -32 6 -42 13 -47 31 -7 32 -30 39 -37 12 -6 -24 -8 -25 -33 -11 -10 5 -24 26 -30 45 -6 19 -16 35 -21 35 -5 0 -19 11 -31 25 -12 14 -30 25 -41 25 -13 0 -17 5 -13 15 8 21 -24 32 -38 14 -15 -21 -80 -8 -110 20 l-24 23 -23 -26 c-15 -17 -29 -24 -40 -21 -10 3 -27 0 -38 -7 -18 -11 -31 -7 -105 31 -47 24 -87 49 -90 56 -2 7 -20 15 -38 18 -19 3 -72 24 -117 46 -46 23 -91 41 -101 41 -22 0 -97 59 -105 83 -4 9 -13 17 -21 17 -8 0 -26 7 -39 16 -28 18 -55 13 -55 -10 0 -9 -12 -19 -26 -22 -27 -7 -87 -80 -78 -95 3 -5 16 -9 30 -9 26 0 31 -9 13 -27 -13 -13 -4 -33 15 -33 7 0 25 -13 41 -30 16 -16 37 -30 48 -30 10 0 32 -13 47 -30 15 -16 32 -30 37 -30 5 0 26 -9 48 -20 22 -11 46 -20 54 -20 20 0 164 -47 219 -71 24 -11 47 -17 51 -15 5 3 17 -1 27 -9 18 -13 18 -14 -6 -19 -61 -12 -250 -13 -325 -1 -87 15 -288 57 -347 73 -20 5 -39 7 -42 4 -4 -3 -44 -7 -91 -8 l-86 -3 -73 -76 c-41 -41 -77 -75 -81 -75 -4 0 -4 22 0 49 7 55 2 62 -65 76 -40 9 -106 38 -138 61 -21 16 -22 15 -37 -20 -8 -20 -22 -36 -30 -36 -8 0 -23 -9 -34 -21 -18 -20 -20 -20 -45 -4 -24 16 -29 16 -66 1 -22 -9 -51 -16 -64 -16 -18 0 -23 -4 -19 -18 2 -10 -3 -24 -11 -31 -9 -8 -16 -20 -16 -27 0 -8 -6 -15 -12 -16 -7 0 -18 -2 -24 -2 -6 -1 -30 -21 -52 -46 -23 -24 -43 -42 -46 -39 -2 2 2 48 10 102 9 62 10 105 5 116 -7 13 -4 20 11 30 16 10 19 19 14 42 -3 16 -1 29 4 29 6 0 10 15 10 33 0 17 7 46 16 62 33 62 35 83 7 113 l-25 27 24 6 c12 4 54 7 91 8 38 1 76 5 86 10 11 6 33 4 65 -6 38 -13 52 -14 65 -4 9 6 24 14 33 17 14 5 37 79 26 88 -14 14 -87 44 -92 39 -3 -4 -6 -24 -6 -45 0 -36 -1 -37 -20 -26 -11 7 -23 21 -26 30 -8 27 -44 23 -44 -4 0 -20 -3 -19 -38 15 -21 20 -45 37 -54 37 -8 0 -22 10 -30 22 -14 21 -16 22 -41 5 -20 -13 -32 -15 -52 -7 -15 6 -42 10 -62 10 -27 0 -43 8 -67 34 -18 18 -48 38 -68 45 -45 15 -71 41 -40 41 11 0 27 3 36 6 11 4 19 -2 26 -20 11 -30 42 -45 77 -38 22 4 28 19 24 63 -1 12 10 18 41 23 24 4 75 15 113 26 195 51 258 59 227 28 -7 -7 -12 -20 -12 -29 0 -31 53 -38 100 -14 28 15 29 15 54 -30 20 -36 24 -57 22 -99 -1 -29 -6 -57 -10 -64 -3 -6 2 -16 14 -22 17 -9 18 -14 9 -31 -10 -19 -9 -20 12 -9 20 11 26 8 65 -35 30 -32 49 -45 60 -41 8 3 18 6 20 6 8 0 3 41 -12 97 -9 32 -21 82 -26 111 -8 42 -16 55 -38 67 -34 18 -45 70 -25 119 12 28 12 36 1 51 -7 10 -11 26 -9 35 3 10 -13 41 -36 71 -23 30 -41 63 -41 75 0 12 -11 36 -24 55 -22 31 -61 89 -122 183 -11 17 -25 45 -31 61 -6 17 -22 48 -37 70 -58 89 -92 137 -108 153 -10 10 -25 35 -34 57 -9 21 -27 55 -40 74 -13 20 -24 43 -24 52 0 16 -41 106 -101 219 -16 30 -33 72 -39 93 -6 20 -22 53 -35 73 -13 19 -31 54 -40 78 -20 53 -81 87 -100 56 -6 -10 -3 -22 25 -114 15 -48 5 -56 -61 -53 -36 2 -55 -4 -79 -21 -17 -13 -47 -26 -65 -29 -21 -3 -37 -13 -40 -23 -7 -22 -57 -44 -83 -36 -13 4 -33 -5 -63 -29 -24 -19 -56 -35 -70 -35 -29 0 -53 -17 -63 -43 -4 -13 3 -27 24 -47 26 -24 28 -29 15 -40 -9 -7 -32 -13 -53 -14 -27 -1 -38 -6 -40 -19 -5 -23 26 -58 47 -55 11 2 17 -9 23 -41 4 -24 5 -48 2 -52 -7 -12 -106 -11 -137 0 -19 7 -27 20 -32 51 -5 32 -13 45 -34 53 -14 7 -39 21 -54 31 -28 19 -28 19 -57 -3 -32 -23 -55 -27 -65 -11 -11 18 -47 11 -52 -10 -5 -21 -36 -36 -65 -31 -10 1 -18 -3 -18 -8 0 -6 5 -11 11 -11 19 0 39 -28 39 -54 0 -27 16 -47 60 -73 17 -9 30 -25 30 -34 0 -27 26 -47 53 -42 26 5 107 -39 107 -57 0 -6 6 -10 14 -10 7 0 25 -9 39 -20 14 -11 34 -20 45 -20 10 0 27 -9 37 -20 10 -11 30 -20 45 -20 21 0 34 -10 53 -39 16 -23 37 -41 54 -45 15 -4 37 -16 48 -27 11 -10 31 -28 45 -38 16 -13 22 -23 15 -29 -5 -6 -68 -18 -140 -27 -71 -9 -148 -23 -170 -31 -130 -45 -265 -56 -403 -34 -59 10 -67 9 -120 -16 -31 -15 -70 -37 -87 -49 -16 -13 -57 -29 -90 -37 -53 -13 -60 -18 -63 -41 -3 -22 2 -27 25 -33 57 -12 98 -27 211 -79 103 -46 170 -69 302 -104 57 -15 1 -13 -135 5 -193 26 -288 32 -315 22 -14 -5 -48 -27 -77 -49 -87 -65 -188 -99 -296 -99 -56 0 -92 -6 -142 -26 -38 -14 -80 -24 -94 -22 -23 3 -25 7 -26 53 -1 38 3 53 17 63 10 7 18 19 18 26 0 21 44 59 97 85 91 45 109 81 51 105 -41 18 -102 -1 -138 -42 -91 -103 -224 -248 -231 -250 -5 -2 -16 14 -26 35 -10 21 -33 57 -53 80 -83 99 -125 173 -116 207 7 27 -2 39 -39 52 -29 10 -33 7 -97 -59 -38 -38 -68 -74 -68 -80 0 -6 -9 -30 -21 -54 -12 -25 -19 -53 -16 -65 4 -12 0 -33 -7 -47 -79 -153 -97 -199 -104 -270 l-7 -74 -65 79 c-35 43 -90 107 -122 141 -65 71 -88 106 -63 97 8 -4 15 -10 15 -14 0 -5 22 -25 49 -45 28 -20 53 -46 57 -57 9 -29 92 -110 104 -103 34 21 -22 108 -162 250 -80 82 -127 140 -148 180 l-31 60 28 22 27 22 -24 9 c-14 5 -30 7 -37 5 -13 -5 -28 -135 -18 -155 13 -26 -66 68 -94 112 -37 58 -66 178 -85 360 -9 80 -20 183 -25 230 -12 102 -23 286 -23 398 0 57 -5 85 -14 93 -8 6 -14 22 -14 34 0 12 -8 33 -18 46 -23 30 -75 139 -95 199 -17 51 -60 160 -82 205 -26 55 -44 139 -55 255 -26 273 -50 547 -50 568 0 18 -6 22 -31 22 -30 0 -31 -2 -25 -32 3 -18 12 -114 21 -213 32 -379 51 -568 65 -640 17 -90 39 -239 44 -290 5 -59 23 -176 30 -196 8 -20 27 -221 22 -226 -10 -11 -58 193 -76 322 -5 33 -13 82 -19 109 -8 35 -8 53 0 62 8 10 7 19 -5 36 -17 24 -21 58 -7 58 19 0 20 31 0 51 -23 23 -36 74 -20 83 16 10 13 37 -5 50 -17 13 -27 53 -45 171 -6 39 -17 102 -25 140 -8 39 -16 90 -19 115 -9 96 -27 217 -37 260 -6 25 -13 66 -16 93 l-4 47 -914 0 -914 0 0 -285z"/>
 <path d="M3226 10651 c16 -13 19 -20 10 -34 -14 -22 3 -51 32 -55 15 -2 25 6 37 28 11 21 21 29 33 26 9 -3 29 -8 45 -12 19 -4 27 -12 27 -29 0 -32 25 -51 45 -35 12 10 15 10 15 -3 0 -9 -13 -26 -29 -39 -18 -15 -37 -46 -51 -88 -12 -36 -29 -72 -36 -80 -9 -11 -13 -39 -10 -93 2 -64 6 -81 25 -101 13 -14 20 -29 17 -35 -11 -17 23 -71 44 -71 13 0 20 -7 20 -20 0 -14 5 -18 18 -13 15 6 15 5 3 -10 -10 -13 -17 -14 -27 -6 -16 13 -50 4 -58 -16 -3 -8 4 -21 16 -29 21 -15 21 -16 -14 -30 -43 -18 -69 -56 -68 -99 0 -17 -2 -46 -6 -64 -5 -25 -1 -35 15 -50 19 -16 21 -25 15 -70 -6 -48 -4 -51 17 -58 13 -3 38 -14 56 -23 38 -19 57 -8 67 38 4 22 11 30 27 30 18 0 20 -4 14 -22 -14 -43 -17 -96 -6 -102 6 -4 11 -20 11 -35 0 -31 18 -58 40 -62 29 -5 95 13 158 43 43 21 67 27 74 20 11 -11 8 -14 -52 -32 -77 -24 -233 -112 -340 -191 -14 -10 -54 -34 -90 -52 -36 -19 -83 -46 -105 -61 -22 -15 -73 -43 -112 -62 -43 -21 -73 -42 -73 -50 0 -9 19 -46 43 -82 24 -37 66 -108 94 -157 84 -146 129 -173 117 -70 -6 49 -4 59 26 105 18 27 60 73 94 101 52 44 82 78 158 183 19 26 33 15 48 -39 7 -25 18 -45 25 -45 6 0 20 -9 31 -21 22 -24 69 -21 112 7 l26 17 -23 18 c-25 21 -66 25 -76 9 -3 -5 -14 -10 -24 -10 -14 0 -22 12 -30 44 -6 24 -13 50 -17 59 -3 10 5 21 24 33 17 9 41 34 53 55 28 44 37 48 43 17 2 -13 9 -50 15 -83 20 -112 62 -136 158 -90 31 14 70 29 87 32 17 3 45 16 62 29 19 14 39 21 51 18 12 -3 35 2 52 10 24 13 31 23 31 45 0 26 4 29 56 40 36 7 78 25 115 51 32 22 62 40 65 40 4 0 22 14 41 30 18 17 38 30 43 30 5 0 18 17 29 38 31 60 118 134 221 187 57 29 117 70 150 101 30 29 75 68 100 86 56 42 64 76 24 107 -34 26 -49 26 -154 -4 -46 -13 -86 -23 -87 -21 -1 1 26 19 60 39 75 44 127 56 233 57 47 0 100 7 128 16 41 14 50 23 66 59 17 39 24 44 91 69 79 29 89 38 89 75 0 14 10 35 21 47 27 29 19 53 -21 60 -40 9 -44 17 -20 47 27 34 26 43 -16 145 -19 48 -43 109 -52 135 l-16 48 -1085 -2 c-1021 -1 -1085 -2 -1065 -18z"/>
 <path d="M10680 9850 c0 -22 -5 -30 -17 -30 -12 0 -30 -23 -52 -66 -26 -51 -46 -74 -80 -96 -25 -15 -60 -49 -78 -75 -29 -43 -30 -50 -19 -77 8 -21 26 -38 54 -51 23 -12 50 -29 60 -38 9 -10 47 -27 85 -38 57 -17 72 -26 97 -61 17 -23 30 -47 30 -55 0 -8 18 -40 40 -71 37 -54 80 -156 80 -192 0 -20 81 -144 123 -188 17 -18 49 -38 70 -44 26 -8 34 -14 25 -20 -24 -15 -65 -8 -102 17 -44 30 -47 30 -68 8 -35 -37 -53 -47 -80 -44 -16 1 -28 -2 -28 -9 0 -6 -9 -23 -20 -38 -20 -27 -21 -27 -132 -25 -69 1 -114 6 -116 12 -4 12 -45 15 -55 5 -8 -8 13 -56 32 -71 8 -7 28 -13 44 -13 16 0 42 -11 59 -25 18 -16 42 -25 63 -25 24 0 34 -5 38 -20 6 -22 32 -27 43 -8 4 6 -1 17 -11 24 -10 8 -20 22 -22 33 -3 22 32 32 87 24 54 -8 154 -11 163 -6 5 3 -6 18 -25 34 -31 27 -32 28 -10 29 13 0 42 9 64 20 38 18 43 19 59 4 10 -9 26 -13 37 -10 11 4 24 0 32 -9 17 -21 43 -19 64 4 27 30 16 54 -33 72 l-44 16 48 12 c44 11 50 10 68 -7 16 -16 17 -25 9 -56 -6 -20 -22 -50 -36 -67 -14 -17 -26 -40 -26 -52 0 -12 -7 -54 -15 -92 -19 -88 -19 -120 -1 -138 13 -12 9 -19 -29 -50 -45 -38 -66 -94 -39 -110 16 -9 0 -63 -22 -71 -17 -6 -19 -42 -3 -52 6 -3 14 -2 18 4 4 6 12 7 19 3 9 -6 10 -15 3 -34 -7 -17 -7 -28 -1 -32 6 -4 7 -17 4 -30 -5 -19 0 -26 30 -40 38 -18 39 -35 2 -35 -31 0 -50 -22 -34 -38 7 -7 18 -12 25 -12 7 0 13 -4 13 -9 0 -5 7 -25 15 -46 13 -30 19 -35 30 -25 15 13 51 10 120 -9 72 -20 233 -15 585 18 58 6 156 13 218 17 l112 7 50 -47 c46 -44 109 -80 127 -74 5 2 22 -3 39 -10 32 -14 56 -11 399 44 50 8 106 17 125 20 19 3 114 16 210 30 96 14 187 31 202 39 21 10 36 11 62 3 30 -9 38 -8 68 16 19 14 40 26 46 26 7 0 17 9 24 20 20 32 63 25 111 -18 59 -54 102 -78 175 -98 l64 -18 49 -98 c37 -73 54 -98 69 -98 10 0 22 5 25 10 3 6 10 10 15 10 13 0 120 -334 120 -374 0 -9 -13 -46 -30 -83 l-30 -66 -21 27 c-25 31 -44 23 -54 -24 -9 -40 -27 -53 -58 -41 -14 5 -34 7 -46 4 -18 -5 -19 -2 -11 26 8 28 5 36 -29 75 -29 33 -44 65 -65 140 -29 102 -60 181 -76 191 -13 8 -37 -32 -51 -87 -10 -38 -10 -54 1 -89 14 -41 14 -42 -15 -65 -17 -13 -36 -24 -42 -24 -18 0 -16 59 2 103 13 32 13 37 -6 61 -11 14 -33 54 -49 90 -16 35 -34 67 -39 71 -18 10 -43 -43 -48 -102 -4 -46 2 -78 26 -157 17 -54 31 -106 31 -116 0 -10 7 -33 15 -52 8 -20 17 -64 20 -99 5 -53 2 -76 -19 -134 -49 -138 -106 -266 -137 -312 -20 -29 -34 -62 -36 -87 -5 -61 -76 -198 -119 -231 -20 -15 -44 -48 -55 -73 -20 -45 -20 -46 -32 -22 -17 33 -28 34 -71 5 -20 -14 -43 -25 -51 -25 -31 0 -391 374 -460 478 -31 46 -126 142 -141 142 -6 0 -25 18 -43 40 -17 22 -27 40 -21 40 5 0 10 7 10 15 0 18 -12 19 -28 3 -9 -9 -12 -6 -12 14 0 29 -23 53 -43 45 -18 -7 -19 -6 -118 103 -117 130 -271 323 -414 519 -127 175 -194 251 -219 251 -24 0 -27 -16 -8 -41 42 -55 42 -55 -111 -69 -78 -7 -183 -16 -234 -19 -100 -8 -133 -24 -133 -67 0 -43 39 -43 422 2 71 9 132 13 137 10 5 -4 33 -41 62 -84 28 -42 71 -99 94 -127 23 -27 63 -79 89 -115 75 -104 161 -206 316 -380 80 -89 146 -169 148 -179 3 -16 -46 -71 -120 -137 -13 -11 -40 -38 -60 -60 -52 -56 -84 -84 -96 -84 -6 0 -37 -26 -69 -57 -32 -32 -81 -76 -108 -99 -28 -22 -57 -53 -65 -68 -15 -30 -103 -122 -163 -171 -20 -16 -55 -47 -77 -67 -23 -21 -75 -54 -116 -74 -40 -20 -74 -42 -74 -48 0 -11 16 -22 115 -77 60 -35 104 -36 203 -9 39 11 74 20 77 20 13 0 33 -68 40 -130 7 -65 6 -67 -28 -108 -19 -23 -44 -57 -56 -75 -32 -51 -161 -392 -172 -455 -13 -69 -4 -200 21 -298 10 -38 28 -149 41 -245 19 -154 26 -182 56 -240 19 -39 48 -78 69 -94 36 -28 46 -31 164 -61 36 -9 90 -24 120 -34 80 -27 428 -43 468 -21 11 6 30 26 41 45 12 19 28 36 36 39 8 4 16 27 20 54 6 51 18 81 111 286 31 70 63 127 70 127 16 0 84 -76 84 -95 0 -11 -7 -13 -28 -9 -19 4 -32 1 -42 -11 -12 -14 -7 -23 41 -71 29 -29 58 -54 65 -54 6 0 19 9 29 20 10 11 23 20 29 20 6 0 22 24 36 52 14 28 30 53 37 55 7 3 27 -16 45 -41 32 -47 54 -56 77 -34 10 11 16 8 30 -11 10 -13 24 -22 32 -20 8 2 36 28 63 56 54 59 52 79 -7 85 -46 4 -45 30 2 81 23 24 41 49 41 55 0 13 -52 42 -75 42 -27 0 -16 32 26 71 27 25 39 44 35 54 -7 19 -50 37 -71 29 -15 -6 -19 5 -15 36 1 8 20 34 42 57 34 35 39 45 29 57 -7 8 -29 16 -49 18 -33 3 -37 6 -34 28 2 14 15 42 29 64 31 47 25 86 -12 86 -33 0 -32 18 5 66 16 21 30 49 30 62 0 19 -5 22 -35 22 -47 0 -46 22 2 85 42 56 37 82 -16 77 -27 -3 -31 0 -31 21 0 13 13 41 30 63 16 21 30 49 30 62 0 19 -5 22 -35 22 -31 0 -35 3 -35 25 0 14 15 41 35 64 48 52 46 71 -5 71 -50 0 -52 17 -10 70 16 20 38 58 49 83 21 48 32 59 66 63 40 4 285 214 285 244 0 4 -14 20 -30 34 -36 30 -60 25 -122 -25 -35 -28 -68 -38 -68 -21 0 4 4 12 10 18 14 14 60 141 60 167 0 12 10 35 23 51 22 27 28 29 128 36 85 5 117 12 173 37 104 46 122 31 56 -47 -43 -51 -51 -80 -22 -80 38 0 149 146 224 295 12 22 36 57 54 78 41 44 43 64 9 79 -14 6 -24 14 -22 17 2 3 16 33 31 66 15 33 45 96 66 140 21 44 44 96 50 116 14 40 8 71 -13 63 -10 -3 -30 46 -76 185 -35 104 -70 199 -78 211 -14 20 -16 20 -33 5 -18 -16 -20 -15 -39 24 -12 22 -21 44 -21 49 0 14 49 33 109 43 66 10 95 35 111 95 15 54 2 94 -31 94 -11 0 -35 10 -52 22 -20 14 -48 23 -76 24 -26 1 -73 8 -106 17 -33 8 -72 18 -87 21 -24 5 -26 9 -19 29 12 30 -5 63 -24 47 -9 -8 -14 -5 -18 10 -3 13 0 23 9 27 18 7 18 33 0 33 -8 0 -16 -7 -20 -15 -7 -20 -52 -19 -60 0 -6 16 -59 17 -84 1 -8 -5 -20 2 -33 19 -18 22 -23 24 -37 13 -11 -9 -16 -10 -19 -2 -2 6 -10 20 -18 30 -11 15 -18 17 -32 8 -14 -9 -21 -7 -34 10 -17 20 -18 20 -38 2 -19 -17 -21 -17 -27 -2 -3 9 -16 16 -28 16 -12 0 -28 6 -34 12 -10 10 -17 10 -31 1 -15 -10 -22 -9 -32 3 -8 10 -15 12 -22 5 -8 -8 -19 -1 -38 22 l-27 32 -13 -27 c-9 -21 -15 -25 -25 -17 -7 6 -22 8 -34 4 -14 -4 -20 -2 -20 9 0 8 -3 21 -6 30 -4 11 5 18 38 26 23 7 64 23 89 37 25 13 54 23 64 21 13 -2 21 5 25 22 5 20 21 31 85 57 44 18 97 33 118 33 51 0 96 21 133 61 33 37 52 114 53 218 0 60 13 104 48 172 14 28 24 65 25 94 0 37 6 52 24 68 13 11 24 25 24 30 0 6 12 34 26 64 22 47 24 59 14 89 -6 18 -21 41 -33 49 -20 14 -23 14 -31 -7 -4 -13 -28 -64 -52 -114 -27 -56 -44 -105 -44 -127 0 -20 -9 -60 -21 -89 -40 -99 -56 -169 -58 -250 -1 -25 -13 -23 -100 16 -138 62 -158 63 -301 26 -69 -17 -172 -40 -230 -49 -65 -11 -122 -27 -150 -42 -66 -35 -139 -31 -233 15 -126 61 -249 85 -276 52 -10 -12 -19 -11 -58 4 -26 10 -58 30 -71 46 -14 16 -41 36 -61 45 -20 9 -60 36 -90 60 -97 79 -136 106 -184 127 -38 17 -51 29 -66 64 -19 44 -43 70 -74 81 -26 10 -71 -37 -58 -60 5 -10 13 -34 19 -55 l10 -36 -34 14 c-45 19 -79 18 -100 -3 -9 -10 -29 -25 -45 -33 -163 -89 -180 -93 -259 -65 -23 8 -54 15 -67 15 -48 0 -198 -42 -219 -61 -11 -10 -23 -19 -26 -19 -3 0 -15 24 -27 53 -51 123 -76 172 -134 272 -57 97 -129 166 -190 183 -19 5 -58 27 -86 48 l-52 39 38 8 c58 13 85 11 95 -7 5 -9 22 -16 37 -16 25 0 30 5 35 34 4 22 13 36 26 39 23 6 27 39 7 59 -8 8 -13 42 -14 90 -2 81 -14 118 -38 118 -10 0 -15 -10 -15 -30z"/>
 <path d="M5606 6020 c-54 -10 -66 -29 -52 -82 9 -32 8 -42 -2 -46 -7 -2 -19 -11 -28 -19 -14 -14 -15 -10 -8 45 6 53 4 63 -11 68 -10 4 -30 0 -46 -10 -16 -9 -29 -14 -29 -11 0 3 -10 1 -21 -6 -18 -9 -20 -17 -15 -47 5 -33 2 -39 -24 -54 -22 -13 -30 -24 -30 -46 0 -15 5 -33 11 -39 8 -8 13 -79 15 -205 2 -106 6 -208 10 -226 4 -21 2 -43 -6 -58 -10 -19 -11 -32 -2 -63 20 -65 13 -78 -13 -25 -26 51 -202 264 -250 302 -29 23 -81 30 -87 11 -2 -5 -41 -12 -86 -15 -46 -2 -97 -10 -115 -18 -45 -19 -122 -90 -148 -135 -19 -34 -31 -42 -103 -67 -44 -15 -96 -27 -115 -26 -77 5 -114 -72 -126 -263 -2 -33 -11 -85 -19 -115 -14 -45 -15 -68 -6 -125 15 -97 55 -233 102 -340 22 -49 40 -106 40 -125 0 -19 4 -42 9 -51 6 -11 4 -21 -5 -28 -8 -7 -17 -28 -21 -47 -9 -49 14 -80 67 -95 24 -6 58 -20 76 -31 45 -28 202 -53 392 -63 90 -4 98 -3 157 26 59 28 133 99 133 127 0 6 9 16 21 22 25 14 71 108 94 195 14 49 21 62 30 55 17 -14 26 -1 74 111 42 100 48 124 31 134 -18 11 -11 49 16 88 21 31 28 36 40 26 19 -16 19 -85 -1 -93 -21 -8 -19 -35 5 -71 21 -32 27 -90 10 -100 -15 -9 -12 -41 5 -55 8 -7 15 -21 15 -32 0 -16 -5 -18 -32 -13 -25 4 -46 -2 -83 -22 -40 -23 -56 -40 -81 -88 -30 -57 -31 -61 -16 -87 15 -26 15 -28 -41 -88 -32 -34 -64 -76 -73 -93 -9 -18 -33 -50 -54 -72 -21 -22 -43 -58 -50 -80 -14 -44 -64 -139 -89 -169 -9 -10 -40 -36 -68 -58 -29 -21 -60 -52 -68 -68 -18 -35 -63 -50 -149 -50 -50 0 -57 2 -46 15 13 16 6 35 -14 35 -21 0 -37 -25 -25 -37 16 -16 -6 -26 -37 -19 -21 6 -23 10 -14 21 21 25 -5 51 -75 73 -36 12 -73 22 -83 22 -10 0 -26 6 -37 14 -11 8 -40 20 -64 27 -41 12 -45 12 -63 -10 -17 -22 -17 -25 -2 -42 10 -11 21 -19 26 -19 6 0 21 -9 35 -20 14 -11 36 -20 48 -20 30 0 52 -25 30 -34 -9 -3 -23 -2 -33 3 -9 5 -42 19 -72 32 -88 37 -90 40 -90 133 0 45 7 135 16 201 8 66 21 165 28 220 18 132 7 168 -49 173 -21 2 -42 -1 -48 -7 -6 -6 -21 -11 -34 -11 -28 0 -41 -26 -25 -50 16 -26 -6 -45 -29 -24 -24 22 -35 12 -50 -46 -10 -39 -15 -47 -26 -39 -9 8 -14 7 -19 -4 -8 -21 3 -37 21 -30 11 4 15 -2 15 -21 0 -18 -4 -24 -15 -20 -11 5 -13 2 -8 -11 6 -16 2 -17 -33 -12 -21 4 -52 7 -69 8 l-30 1 30 7 c17 3 30 13 30 21 0 10 -10 15 -30 15 -16 0 -35 4 -42 8 -15 9 -25 -6 -17 -27 4 -10 1 -16 -9 -16 -9 0 -17 10 -19 22 -4 28 -58 33 -66 6 -4 -17 -6 -17 -36 -1 -66 34 -66 34 -72 18 -4 -8 -13 -15 -21 -15 -12 0 -13 6 -8 23 5 12 10 77 12 145 4 99 7 121 18 112 9 -7 16 -6 25 5 16 19 6 47 -15 39 -11 -5 -15 0 -15 19 0 40 -10 57 -34 57 -15 0 -27 -9 -34 -25 -6 -14 -18 -25 -27 -25 -21 0 -28 -41 -22 -130 6 -90 12 -107 33 -89 12 9 14 5 14 -24 0 -44 -15 -55 -41 -31 -18 17 -24 17 -61 4 -32 -12 -47 -25 -65 -58 l-24 -42 21 -66 c11 -36 20 -75 20 -86 0 -11 9 -31 19 -44 20 -25 20 -25 -1 -60 -11 -19 -24 -37 -29 -40 -14 -8 -11 -98 3 -116 7 -9 35 -35 62 -58 41 -35 54 -41 79 -36 17 3 45 1 64 -6 26 -9 38 -10 52 -1 16 10 26 5 72 -43 30 -29 63 -54 74 -54 23 -1 82 -51 114 -97 28 -41 89 -60 140 -44 19 6 40 7 45 2 6 -4 42 -8 79 -8 45 0 73 -5 85 -15 9 -9 42 -18 73 -22 50 -5 61 -3 93 19 20 14 46 25 56 25 11 0 43 18 72 40 51 38 53 39 73 21 33 -29 53 -32 93 -11 20 11 41 20 46 20 5 0 19 9 30 19 19 18 28 19 94 11 41 -6 81 -6 90 -1 10 5 34 11 55 15 31 6 43 15 67 54 16 26 30 52 30 57 1 6 17 28 36 50 33 38 39 40 93 41 52 0 63 4 101 37 24 20 49 37 55 37 31 0 146 64 197 109 31 28 61 51 67 51 6 0 23 18 37 40 16 24 34 40 46 40 27 0 105 86 119 130 6 19 17 50 25 67 13 29 13 36 -1 62 -8 17 -15 41 -15 56 0 28 -31 65 -55 65 -8 0 -15 9 -15 20 0 13 -9 21 -27 25 -16 3 -47 10 -71 15 -24 6 -48 8 -53 4 -5 -3 -23 -3 -39 1 -26 6 -29 9 -24 38 3 18 10 44 14 59 5 17 4 38 -2 56 -9 24 -8 39 5 74 21 54 21 77 2 84 -22 9 -18 36 11 79 29 43 28 69 -4 73 -32 5 -28 40 9 91 32 46 32 71 -1 71 -28 0 -26 36 6 83 28 42 26 67 -6 67 -29 0 -27 51 5 88 14 17 25 37 25 46 0 10 -9 16 -25 16 -21 0 -25 5 -25 28 0 15 9 38 20 52 25 32 25 60 0 67 -25 7 -25 30 0 68 27 40 27 85 0 85 -19 0 -19 5 -14 93 3 50 12 109 20 130 18 49 18 53 -7 76 -21 19 -21 21 -5 55 21 44 20 52 -4 76 -21 21 -24 22 -84 10z"/>
 <path d="M11601 4358 c-16 -16 -25 -19 -28 -10 -7 17 -78 15 -97 -3 -17 -17 -14 -29 22 -100 14 -29 21 -69 26 -148 l6 -107 -24 6 c-17 4 -27 0 -35 -13 -10 -17 -12 -16 -33 9 -13 14 -34 29 -48 33 -14 4 -39 18 -56 31 -24 17 -34 20 -43 11 -9 -9 -16 -9 -30 0 -14 9 -21 9 -30 0 -8 -8 -17 -5 -34 11 -13 12 -27 22 -33 22 -5 0 -31 11 -59 25 -65 32 -72 31 -77 -6 -9 -57 13 -69 286 -164 55 -19 101 -35 103 -35 1 0 3 -33 3 -73 0 -53 5 -83 20 -112 11 -21 19 -39 17 -40 -1 -1 -12 -8 -24 -14 -13 -6 -23 -16 -23 -20 0 -17 53 -91 65 -91 7 0 20 -9 29 -19 13 -14 14 -21 5 -27 -7 -4 -19 3 -31 19 -33 46 -78 30 -78 -28 0 -16 7 -39 15 -49 8 -11 15 -28 15 -37 0 -53 59 -99 128 -99 40 0 80 -18 87 -41 3 -9 12 -23 21 -29 21 -18 123 -19 162 -2 32 14 34 14 61 -12 16 -16 39 -26 57 -26 16 0 47 -5 69 -11 22 -6 53 -14 70 -18 17 -4 35 -17 42 -31 21 -42 41 -51 74 -35 36 19 47 19 66 -1 12 -12 27 -14 54 -10 21 3 40 2 43 -2 3 -5 25 -9 48 -9 24 -1 69 -9 101 -18 46 -13 61 -14 72 -5 20 16 19 60 -1 88 -15 22 -15 22 35 22 38 0 51 -4 55 -17 10 -32 52 -43 138 -36 59 4 88 12 113 29 18 12 42 25 53 28 24 8 42 55 52 140 6 50 4 67 -11 96 -28 52 -25 59 20 49 98 -22 291 7 291 44 0 16 21 27 49 27 16 0 91 89 91 108 0 5 9 17 20 27 24 21 26 67 5 85 -8 7 -15 21 -15 32 0 15 3 17 19 8 48 -25 65 -2 62 85 0 27 3 64 7 80 10 35 -2 108 -24 148 -34 62 -86 97 -96 65 -6 -16 -89 -17 -115 0 -24 15 -40 9 -61 -20 -7 -10 -17 -18 -23 -18 -13 0 -11 44 2 57 6 6 9 15 6 20 -7 10 -48 10 -65 -1 -7 -4 -21 -5 -31 -1 -10 3 -24 -1 -31 -10 -22 -27 -43 -19 -37 15 4 16 3 32 -2 34 -4 3 -32 -4 -61 -17 l-52 -22 -24 28 c-24 28 -26 28 -75 18 -30 -7 -59 -20 -70 -34 -22 -25 -99 -176 -99 -193 0 -21 -88 -231 -113 -271 -14 -22 -43 -75 -66 -119 -60 -116 -91 -156 -129 -166 -17 -5 -32 -14 -32 -20 0 -7 -20 -9 -63 -6 -74 6 -219 -13 -241 -32 -14 -11 -19 -10 -35 4 -11 10 -22 30 -26 44 -10 40 -43 71 -84 78 -53 9 -119 50 -137 86 -13 24 -19 78 -25 218 -18 418 -37 511 -104 518 -20 2 -38 -4 -54 -20z"/>
 </g>
<g id="layer104" fill="#9fb5bc" stroke="none">
 <path d="M0 10385 c0 -249 2 -285 15 -285 17 0 36 -41 34 -74 -4 -42 1 -56 20 -56 10 0 21 -7 25 -15 7 -19 35 -19 42 0 8 19 24 9 24 -14 0 -10 7 -24 15 -31 13 -10 12 -15 -3 -36 -20 -27 -68 -34 -58 -8 10 27 -13 57 -39 50 -27 -7 -44 14 -46 56 -1 13 -6 3 -11 -22 -15 -66 -21 -309 -9 -324 13 -15 32 -608 30 -946 -1 -324 -3 -302 22 -298 17 2 27 18 45 73 21 63 23 82 18 190 -3 66 -7 128 -10 137 -4 13 8 20 53 35 l58 18 6 85 c4 47 12 119 18 160 7 44 11 180 11 330 -1 140 2 272 6 293 l6 38 137 -7 c85 -4 147 -12 164 -21 27 -14 181 -53 222 -56 26 -3 34 42 10 59 -20 15 -16 17 58 38 50 15 58 20 55 39 -2 17 -12 24 -43 29 -79 16 -109 17 -162 6 -40 -8 -57 -8 -65 0 -7 7 -10 14 -7 16 3 3 146 6 319 7 173 1 326 6 340 11 14 5 36 22 50 38 32 38 80 48 270 56 105 5 158 12 193 25 26 11 50 19 52 19 21 0 45 -236 35 -348 -1 -12 9 -46 23 -75 16 -32 36 -109 52 -197 14 -80 37 -190 50 -245 48 -200 136 -651 131 -675 -2 -14 2 -32 10 -41 8 -9 23 -62 34 -119 11 -56 24 -108 28 -114 4 -6 10 -132 13 -281 7 -265 17 -362 45 -418 8 -16 14 -40 14 -53 0 -14 5 -35 11 -46 6 -12 17 -50 25 -85 15 -71 73 -195 117 -248 21 -26 44 -39 96 -55 56 -16 76 -29 113 -68 25 -27 51 -58 57 -70 8 -16 12 -236 12 -824 1 -442 3 -811 6 -820 5 -19 38 -24 48 -8 8 14 48 13 63 -2 10 -10 29 -13 107 -18 6 0 42 4 80 9 39 5 113 15 165 21 81 10 98 15 118 36 12 14 22 30 22 37 1 7 3 41 6 77 2 36 4 76 4 90 0 47 -16 255 -19 265 -3 6 -2 17 2 25 3 8 7 37 10 63 3 26 7 51 10 54 4 3 46 -30 95 -73 138 -123 205 -160 435 -240 38 -13 99 -29 135 -34 96 -16 106 -22 153 -92 41 -61 56 -78 71 -78 16 0 118 108 118 126 1 52 12 65 96 104 46 21 107 54 136 73 96 62 148 89 163 84 8 -4 23 -24 35 -46 13 -26 35 -49 61 -63 22 -13 55 -31 72 -40 52 -29 59 -7 27 87 -25 72 -25 106 -1 136 39 51 98 207 112 299 25 166 27 184 17 206 -9 19 -7 33 6 63 15 31 16 43 6 61 l-12 22 -25 -24 c-14 -12 -48 -57 -76 -98 -106 -157 -252 -357 -298 -409 -117 -131 -453 -297 -608 -300 -53 -1 -53 -1 -46 26 5 21 1 31 -17 44 -18 14 -20 21 -11 30 7 7 9 24 6 41 -4 19 0 35 11 46 14 16 14 21 1 38 -13 17 -12 21 17 45 26 22 29 28 19 47 -6 11 -21 24 -33 28 -36 11 -127 77 -133 96 -4 10 -18 21 -33 24 -36 9 -59 30 -67 61 -5 22 -10 24 -35 20 -26 -6 -35 0 -82 56 -88 102 -86 97 -21 76 31 -11 64 -25 72 -33 26 -23 96 -37 189 -38 93 -2 132 10 132 41 0 24 -19 31 -83 31 -185 0 -392 97 -595 280 -92 82 -106 105 -114 180 -2 18 -16 32 -50 50 -61 33 -61 33 -47 62 9 20 8 32 -6 59 l-18 33 24 -15 c13 -9 30 -28 37 -42 22 -45 46 -51 82 -20 30 25 32 30 28 75 -4 33 -12 55 -26 69 -12 11 -29 33 -37 49 -8 16 -29 37 -46 45 -37 20 -34 33 16 61 60 33 69 53 49 103 -24 60 -100 123 -197 164 l-82 34 -7 44 c-3 24 -11 56 -16 70 -11 28 -125 171 -214 266 -65 71 -88 106 -63 97 8 -4 15 -10 15 -14 0 -5 22 -25 49 -45 28 -20 53 -46 57 -57 9 -29 92 -110 104 -103 34 21 -22 108 -162 250 -80 82 -127 140 -148 180 l-31 60 28 22 27 22 -24 9 c-14 5 -30 7 -37 5 -13 -5 -28 -135 -18 -155 13 -26 -66 68 -94 112 -37 58 -66 178 -85 360 -9 80 -20 183 -25 230 -12 102 -23 286 -23 398 0 57 -5 85 -14 93 -8 6 -14 22 -14 34 0 12 -8 33 -18 46 -23 30 -75 139 -95 199 -17 51 -60 160 -82 205 -26 55 -44 139 -55 255 -26 273 -50 547 -50 568 0 18 -6 22 -31 22 -30 0 -31 -2 -25 -32 3 -18 12 -114 21 -213 32 -379 51 -566 65 -635 12 -59 39 -243 44 -300 6 -57 24 -173 30 -191 8 -20 27 -221 22 -226 -12 -12 -67 237 -101 457 -28 180 -36 263 -27 272 6 6 2 24 -8 46 -22 44 -38 110 -46 189 -3 32 -12 85 -19 118 -7 33 -21 121 -30 195 -9 74 -21 155 -27 180 -6 25 -13 66 -16 93 l-4 47 -914 0 -914 0 0 -285z"/>
 <path d="M7703 10663 c40 -10 13 -23 -40 -19 -32 3 -48 3 -35 0 12 -3 20 -9 17 -14 -3 -4 6 -15 19 -24 21 -13 23 -20 16 -51 -5 -20 -11 -39 -14 -42 -9 -9 51 -53 73 -53 12 0 21 -4 21 -10 0 -5 -4 -10 -9 -10 -15 0 -42 -31 -36 -41 4 -5 15 -9 26 -9 18 0 20 -4 14 -39 -4 -26 -1 -51 9 -76 22 -51 20 -55 -13 -55 -27 0 -29 3 -35 53 -3 28 -6 67 -6 84 0 26 -5 34 -25 39 -22 5 -25 12 -25 51 0 37 -3 44 -17 41 -10 -2 -19 -12 -22 -23 -2 -11 -11 -25 -20 -32 -14 -12 -14 -14 -1 -25 9 -7 26 -26 39 -43 l23 -30 -28 -21 -27 -22 30 -16 31 -15 -17 -34 c-15 -31 -18 -33 -48 -24 -26 8 -36 6 -58 -12 -35 -26 -61 -27 -75 -1 -6 11 -17 20 -25 20 -14 0 -95 78 -95 91 0 5 18 9 40 11 41 3 53 23 14 23 -11 0 -27 5 -35 10 -26 20 -64 34 -106 40 -40 6 -43 5 -43 -15 0 -12 23 -48 50 -80 28 -32 50 -62 50 -67 0 -5 -12 -15 -26 -22 -25 -11 -31 -8 -75 29 -59 50 -84 53 -75 10 7 -39 55 -99 112 -139 24 -18 45 -38 46 -44 0 -7 2 -16 3 -22 2 -5 3 -14 4 -19 0 -5 7 -3 15 3 12 10 23 7 55 -14 46 -31 60 -55 31 -55 -11 0 -20 5 -20 10 0 16 -30 12 -36 -5 -10 -24 12 -42 46 -37 22 3 31 0 36 -14 4 -11 17 -28 30 -39 25 -22 35 -75 17 -96 -6 -8 -16 -30 -21 -49 -7 -23 -11 -28 -11 -14 -1 28 -24 46 -45 38 -12 -5 -19 0 -23 14 -3 12 -14 24 -24 27 -20 7 -26 25 -9 25 16 0 12 22 -7 35 -9 7 -22 28 -28 46 -15 42 -45 52 -45 15 0 -32 -27 -35 -32 -3 -4 28 -23 24 -23 -6 0 -15 -7 -23 -23 -25 -13 -2 -27 -13 -31 -25 -8 -22 -5 -113 6 -175 3 -22 0 -38 -10 -50 -8 -9 -21 -36 -28 -59 -7 -24 -17 -43 -22 -43 -5 0 -7 -19 -5 -45 6 -51 -15 -125 -39 -138 -10 -6 -13 -17 -9 -33 4 -14 3 -30 -1 -37 -4 -7 -9 -50 -10 -97 -1 -47 -2 -98 -3 -114 0 -16 -14 -49 -30 -73 -34 -50 -37 -74 -13 -94 9 -8 22 -29 30 -46 7 -18 19 -33 26 -33 6 0 1 -9 -12 -19 -26 -20 -25 -54 2 -59 20 -4 57 24 57 43 0 7 -7 18 -15 25 -8 7 -15 24 -15 39 0 25 3 27 34 23 30 -3 36 0 50 26 8 16 30 35 48 42 79 31 128 72 154 129 15 31 37 78 50 105 13 28 24 58 24 68 0 10 4 18 9 18 5 0 16 2 23 5 11 4 14 -6 13 -47 -3 -94 -16 -146 -51 -195 -18 -25 -30 -51 -27 -56 3 -5 -9 -22 -26 -37 -58 -54 -42 -63 144 -80 152 -14 226 -9 253 19 9 9 29 25 45 34 25 16 29 16 55 2 59 -34 132 -92 132 -106 0 -4 -32 -6 -71 -4 -51 2 -80 9 -98 22 -35 26 -58 34 -76 27 -29 -12 -14 -40 45 -84 33 -25 62 -53 66 -62 3 -10 17 -21 32 -24 15 -4 61 -18 102 -31 52 -17 88 -24 118 -20 44 5 87 34 97 68 3 9 16 20 28 23 20 6 21 7 5 19 -12 10 -16 28 -16 73 1 67 10 84 45 84 16 0 27 7 30 20 3 11 9 20 13 20 9 0 44 -35 95 -94 44 -51 69 -61 59 -22 -4 19 0 28 20 41 24 16 28 16 51 1 13 -9 33 -16 45 -16 17 0 20 6 20 45 0 49 -4 53 -26 30 -20 -20 -68 -19 -88 1 -20 20 -20 38 0 55 13 10 19 8 40 -14 14 -15 27 -27 29 -27 3 0 11 14 20 30 15 30 16 30 45 15 34 -18 37 -31 14 -56 -19 -22 -11 -39 20 -39 38 0 58 -22 50 -54 -7 -28 -10 -29 -64 -15 -11 3 -15 -6 -15 -36 0 -36 -3 -40 -25 -40 -19 0 -25 6 -31 33 -4 19 -11 38 -16 43 -12 12 -63 -58 -56 -76 7 -19 96 -55 136 -55 21 0 37 -6 40 -14 3 -8 26 -24 51 -35 50 -22 58 -36 25 -46 -15 -5 -29 1 -48 19 -16 15 -44 29 -64 33 -50 8 -58 -15 -23 -67 39 -60 103 -211 111 -261 6 -40 4 -46 -17 -57 -31 -16 -110 -23 -125 -11 -6 6 -22 9 -35 7 -17 -2 -23 -10 -23 -28 0 -29 2 -29 -89 5 -54 20 -71 23 -83 14 -7 -7 -12 -18 -9 -25 7 -18 -17 -34 -41 -28 -12 3 -30 1 -41 -5 -15 -8 -33 -6 -73 6 -30 9 -56 17 -59 18 -40 8 -70 21 -95 39 -17 13 -54 34 -83 46 -45 19 -61 21 -115 15 -34 -4 -96 -9 -137 -11 -96 -5 -86 -4 -220 -21 -63 -8 -137 -16 -164 -19 -28 -3 -53 -7 -58 -10 -4 -3 -31 -9 -60 -14 -113 -21 -149 -30 -190 -50 -23 -11 -50 -20 -60 -20 -30 0 -160 -70 -155 -83 9 -26 131 -8 176 27 8 6 49 11 92 12 43 1 84 6 92 12 19 16 144 27 170 15 37 -17 109 -34 186 -44 41 -5 82 -16 91 -24 9 -8 25 -15 36 -15 28 0 74 -47 74 -75 0 -26 20 -50 49 -60 14 -4 19 -14 18 -32 -2 -22 2 -26 26 -27 25 -2 76 -46 77 -68 0 -5 16 -8 36 -8 28 0 43 -8 69 -35 18 -20 48 -46 66 -58 19 -13 34 -31 34 -42 0 -12 9 -21 25 -25 18 -4 25 -13 25 -30 0 -19 5 -25 22 -25 15 0 31 -13 48 -37 18 -27 33 -38 50 -38 15 0 25 -6 25 -14 0 -27 42 -86 60 -86 10 0 22 -9 25 -21 8 -25 10 -23 -39 -43 -36 -15 -41 -15 -63 -1 -13 9 -43 19 -66 23 -32 6 -42 13 -47 31 -7 32 -30 39 -37 12 -6 -24 -8 -25 -33 -11 -10 5 -24 26 -30 45 -6 19 -16 35 -21 35 -5 0 -19 11 -31 25 -12 14 -30 25 -41 25 -13 0 -17 5 -13 15 8 21 -24 32 -38 14 -15 -21 -80 -8 -110 20 l-24 23 -23 -26 c-15 -17 -29 -24 -40 -21 -10 3 -27 0 -38 -7 -18 -11 -31 -7 -105 31 -47 24 -87 49 -90 56 -2 7 -20 15 -38 18 -19 3 -72 24 -117 46 -46 23 -91 41 -101 41 -22 0 -97 59 -105 83 -4 9 -13 17 -21 17 -8 0 -26 7 -39 16 -28 18 -55 13 -55 -10 0 -9 -12 -19 -26 -22 -27 -7 -87 -80 -78 -95 3 -5 16 -9 30 -9 26 0 31 -9 13 -27 -13 -13 -4 -33 15 -33 7 0 25 -13 41 -30 16 -16 37 -30 48 -30 10 0 32 -13 47 -30 15 -16 32 -30 37 -30 5 0 26 -9 48 -20 22 -11 46 -20 54 -20 20 0 164 -47 219 -71 24 -11 47 -17 51 -15 5 3 17 -1 27 -9 18 -13 18 -14 -6 -19 -61 -12 -250 -13 -325 -1 -87 15 -288 57 -347 73 -20 5 -39 7 -42 4 -4 -3 -44 -7 -91 -8 l-86 -3 -73 -76 c-41 -41 -77 -75 -81 -75 -4 0 -4 22 0 49 7 55 2 62 -65 76 -40 9 -106 38 -138 61 -21 16 -22 15 -37 -20 -8 -20 -22 -36 -30 -36 -8 0 -23 -9 -34 -21 -18 -20 -20 -20 -45 -4 -52 35 -130 -24 -98 -75 8 -13 6 -22 -11 -38 -20 -21 -20 -22 -2 -56 18 -33 20 -34 49 -22 26 11 31 18 31 46 0 32 4 36 70 70 l70 36 11 -51 c6 -27 25 -97 42 -155 23 -76 31 -123 30 -170 -1 -36 6 -110 15 -165 9 -55 23 -146 31 -201 9 -65 27 -134 49 -190 20 -51 39 -123 46 -171 5 -44 26 -143 45 -220 18 -76 37 -158 41 -183 4 -25 20 -70 36 -100 16 -30 40 -86 54 -123 30 -80 55 -131 89 -182 14 -20 30 -53 37 -73 6 -20 24 -55 39 -77 36 -54 79 -152 84 -193 2 -18 5 -34 7 -35 49 -33 79 -63 98 -100 13 -26 64 -85 116 -134 133 -127 150 -138 271 -177 43 -14 64 -15 133 -7 86 11 193 36 224 53 27 14 79 -25 124 -90 33 -51 36 -62 50 -190 11 -110 12 -159 3 -247 -12 -115 -17 -130 -53 -139 -48 -12 -89 -118 -52 -132 22 -9 45 14 45 46 0 15 7 33 15 40 18 15 19 15 31 -30 7 -24 17 -36 34 -40 19 -4 26 -13 27 -35 5 -55 24 -139 49 -217 27 -83 46 -105 132 -155 61 -35 135 -91 145 -110 12 -20 4 -25 -39 -29 -31 -2 -38 2 -52 27 -22 38 -67 41 -84 4 -10 -22 -8 -30 10 -55 12 -15 24 -47 28 -69 4 -27 13 -42 25 -46 27 -9 35 -1 49 50 18 65 40 60 40 -10 0 -31 7 -72 16 -93 15 -35 16 -36 30 -18 9 13 14 46 14 100 0 91 7 90 40 -2 13 -35 31 -67 42 -73 10 -5 18 -21 18 -34 0 -14 10 -35 21 -46 17 -17 28 -20 58 -14 20 3 46 8 58 10 83 12 111 19 138 33 18 9 61 16 110 17 56 1 94 8 125 22 25 11 54 23 65 27 24 7 80 114 91 172 4 22 18 68 31 104 32 84 53 205 53 303 0 181 -71 489 -142 615 -31 54 -86 115 -196 215 l-63 58 38 29 c108 83 188 125 218 114 7 -3 23 4 36 17 26 26 150 112 154 107 2 -2 6 -104 10 -228 7 -258 8 -266 35 -275 11 -3 20 -12 20 -19 0 -7 9 -25 20 -39 25 -32 25 -36 -3 -46 -20 -8 -23 -15 -19 -43 2 -18 20 -54 38 -81 41 -57 43 -77 9 -77 -14 0 -28 -6 -31 -14 -7 -18 20 -71 47 -89 20 -14 20 -15 -12 -39 -35 -28 -32 -43 14 -87 23 -21 29 -22 61 -11 20 6 40 9 45 6 5 -3 14 1 21 9 19 22 48 18 66 -10 16 -24 54 -35 54 -16 0 5 18 29 40 53 37 39 39 44 23 55 -9 7 -27 13 -40 13 -35 0 -28 29 18 76 49 50 48 74 -6 74 -33 0 -35 2 -35 32 0 24 10 42 37 70 30 31 34 40 23 53 -7 8 -25 15 -41 15 -38 0 -39 30 -3 82 22 31 24 40 14 53 -7 8 -19 15 -26 15 -24 0 -16 56 13 90 30 36 24 62 -16 68 -29 5 -27 33 5 93 29 52 27 79 -6 79 -25 0 -26 20 0 62 29 47 27 78 -5 78 -21 0 -25 5 -25 28 1 15 7 38 15 52 20 35 18 58 -5 65 -25 8 -26 52 -2 80 9 12 42 40 72 62 62 47 240 225 240 240 0 6 -5 25 -11 43 -11 29 -9 34 14 54 29 25 47 72 40 108 -4 20 2 30 25 46 29 21 72 113 72 154 0 12 -26 47 -61 82 -34 33 -69 71 -77 84 -25 38 -4 38 32 -1 35 -39 54 -45 74 -25 20 20 14 52 -26 130 l-39 75 24 27 c12 15 23 34 23 43 0 9 9 36 21 60 14 28 19 55 16 76 -3 25 1 37 20 55 28 26 21 46 -13 38 -17 -5 -24 -2 -24 7 0 10 8 13 26 9 19 -3 26 0 31 16 3 12 14 24 24 27 20 7 26 40 9 50 -5 3 -10 15 -10 25 0 23 -47 80 -66 80 -17 0 -18 -22 -3 -37 9 -9 9 -20 -1 -42 -10 -25 -10 -34 0 -46 10 -12 9 -15 -6 -15 -25 1 -61 31 -66 56 -6 32 -53 31 -74 -2 -18 -26 -17 -27 5 -45 13 -11 36 -19 52 -19 37 0 46 -17 22 -43 -35 -38 -36 -46 -9 -57 24 -9 26 -14 26 -71 0 -61 0 -62 -19 -45 -19 17 -20 17 -30 -3 -6 -11 -11 -32 -11 -48 l0 -28 -20 25 c-10 14 -31 50 -47 80 -15 30 -47 77 -71 105 l-44 49 22 18 c29 23 40 23 40 -2 0 -11 8 -28 18 -38 10 -10 21 -26 25 -35 3 -9 11 -17 16 -17 15 0 23 19 14 33 -4 6 -6 21 -5 33 2 12 -9 35 -24 53 -21 26 -24 34 -14 46 8 10 10 29 6 54 -5 35 -4 39 14 34 40 -11 70 6 86 47 14 34 21 40 46 40 35 0 34 23 -1 28 -13 2 -37 12 -55 23 -43 26 -56 24 -110 -16 -46 -36 -59 -68 -35 -92 15 -15 -14 -59 -44 -67 l-21 -5 23 -24 22 -25 -34 -21 c-40 -25 -55 -26 -81 -6 -11 8 -30 15 -43 15 -13 0 -34 11 -46 25 -23 27 -62 32 -125 19 -32 -6 -33 -5 -30 22 4 39 -14 46 -23 10 -6 -21 -3 -35 9 -52 19 -26 128 -74 170 -74 38 0 207 -119 207 -145 0 -15 -7 -20 -25 -21 -14 0 -31 -3 -38 -8 -6 -4 -22 0 -34 8 -28 20 -52 20 -72 1 -16 -17 -13 -35 15 -75 28 -41 33 -70 12 -70 -12 0 -26 18 -42 53 -13 28 -26 58 -30 66 -3 7 -27 20 -51 28 -25 8 -59 26 -77 39 -17 13 -35 24 -39 24 -4 0 -25 12 -46 26 -35 25 -37 28 -24 53 20 42 -2 103 -30 80 -10 -8 -22 -6 -49 10 -28 16 -41 19 -56 11 -13 -8 -31 -8 -57 0 -52 14 -102 12 -135 -5 -27 -14 -32 -12 -125 40 l-97 55 40 2 c22 0 48 0 58 0 12 -1 21 6 24 19 4 14 11 19 25 16 11 -3 21 0 25 9 6 17 49 19 59 3 3 -6 17 -9 30 -6 14 2 27 0 30 -5 6 -10 52 15 72 40 18 24 15 42 -10 52 -19 7 -15 9 22 10 81 1 235 27 271 45 l34 18 -19 -21 c-23 -27 -14 -55 16 -50 14 2 29 15 38 35 10 21 28 37 53 47 29 11 37 20 37 40 0 32 -22 42 -111 52 -57 6 -60 8 -43 21 10 8 30 12 42 10 13 -3 38 2 54 11 28 14 29 16 14 28 -18 13 -5 31 14 19 6 -3 13 2 16 12 3 10 10 26 15 36 6 10 7 27 4 38 -4 11 -1 27 6 35 49 59 -144 19 -252 -53 -61 -40 -71 -22 -16 30 27 25 52 49 58 54 18 16 56 68 62 86 5 13 -2 28 -23 48 l-30 30 -47 -27 c-27 -15 -67 -45 -90 -66 -40 -36 -63 -47 -63 -30 1 14 26 40 75 77 131 98 223 217 186 239 -15 9 -40 -4 -46 -25 -4 -10 -13 -19 -20 -19 -8 0 -22 -8 -32 -19 -10 -10 -41 -26 -68 -35 -36 -12 -71 -35 -124 -86 -71 -67 -99 -88 -71 -55 11 14 7 22 -25 55 -22 22 -47 43 -57 46 -27 8 -68 -22 -68 -49 0 -12 -9 -39 -20 -60 -17 -31 -19 -48 -14 -89 5 -38 4 -49 -5 -44 -6 4 -10 20 -9 36 2 21 -5 35 -25 50 -23 18 -26 27 -21 58 4 29 1 42 -15 59 -17 18 -18 23 -6 33 34 28 2 90 -47 90 -19 0 -25 34 -9 59 7 11 10 11 16 0 7 -10 10 -8 15 5 6 19 -19 105 -37 128 -19 22 -46 92 -44 111 2 11 -5 17 -17 17 -17 0 -18 4 -12 43 7 35 5 45 -11 60 -10 10 -19 22 -19 27 0 6 -9 10 -20 10 -11 0 -20 4 -20 10 0 5 10 9 23 7 18 -2 23 4 25 30 3 25 -2 35 -22 48 -34 22 -23 38 20 30 27 -5 34 -3 34 10 0 17 35 21 45 5 7 -11 -12 -51 -32 -65 -7 -6 -15 -24 -16 -40 -2 -25 2 -31 23 -33 14 -2 30 -7 35 -11 6 -4 37 -8 70 -8 58 -1 61 0 83 34 13 21 22 50 22 74 0 22 5 39 11 39 7 0 9 -14 5 -42 -4 -24 -6 -78 -5 -122 0 -59 -2 -77 -12 -74 -7 2 -16 17 -21 33 -4 15 -13 32 -20 36 -17 11 -65 -20 -72 -45 -6 -21 -7 -20 -27 4 -14 17 -22 21 -26 13 -2 -7 -11 -13 -19 -13 -17 0 -17 -5 -4 -30 6 -11 17 -17 24 -14 9 4 16 -2 18 -17 8 -56 70 -48 76 10 2 19 8 31 15 28 7 -2 11 -17 9 -35 -3 -28 2 -35 44 -62 54 -34 90 -40 80 -13 -4 10 1 23 14 35 11 10 20 28 20 39 0 11 4 28 10 38 5 10 12 60 15 110 3 51 12 120 20 154 61 264 62 266 8 305 -24 18 -25 22 -15 48 21 54 32 158 32 319 0 143 2 163 20 190 11 17 20 37 20 46 0 9 9 24 20 34 29 26 25 58 -10 83 -33 25 -46 27 -53 10 -3 -7 -5 79 -5 192 l-1 205 41 20 c51 25 69 52 57 83 -7 18 -16 22 -48 22 -46 0 -61 18 -61 70 0 28 2 31 23 25 12 -4 32 -19 44 -34 20 -24 22 -25 29 -7 4 10 2 27 -4 36 -8 14 -8 21 2 29 7 6 17 33 20 59 13 88 12 96 -11 107 -28 12 -29 21 -5 27 14 4 18 15 18 49 -1 40 -3 44 -26 44 -14 0 -41 12 -59 27 l-32 28 3 82 c3 46 13 120 22 165 20 86 16 141 -9 167 -8 8 -15 19 -15 25 0 8 -98 11 -315 11 -323 0 -340 -2 -372 -40 -11 -13 -14 -12 -19 7 -6 23 -58 41 -86 30 -7 -3 2 -6 20 -6 34 -1 46 -21 12 -21 -27 0 -25 -18 3 -30 17 -7 18 -9 5 -9 -10 -1 -18 -5 -18 -11 0 -16 -19 -11 -41 11 -14 14 -19 28 -15 45 6 24 6 24 -69 24 l-75 0 5 -30 c6 -34 -15 -50 -65 -50 l-32 0 20 34 c11 19 18 37 15 40 -13 12 -63 6 -63 -8 0 -18 -26 -40 -34 -27 -3 5 0 11 6 14 10 3 10 7 2 17 -14 14 -55 4 -53 -13 2 -23 -13 -57 -27 -57 -17 0 -39 39 -35 63 2 15 -7 17 -71 16 -40 -1 -65 -3 -55 -6z"/>
 <path d="M11763 9173 c-7 -2 -13 -18 -13 -34 0 -25 9 -36 68 -73 37 -24 124 -97 194 -163 107 -100 142 -127 229 -172 108 -56 141 -60 180 -25 15 14 23 12 85 -19 83 -42 222 -127 208 -127 -6 0 -35 7 -65 16 -58 18 -121 19 -150 3 -22 -11 -48 -59 -42 -75 2 -6 -5 -14 -17 -17 -23 -6 -26 -35 -6 -62 12 -17 16 -17 30 -6 10 8 14 21 11 32 -4 11 -2 19 3 19 24 0 78 -26 94 -44 13 -17 19 -19 29 -8 19 18 29 15 29 -8 0 -13 7 -20 20 -20 11 0 20 7 20 15 0 24 30 17 40 -10 10 -26 24 -32 35 -15 10 16 23 12 30 -10 7 -22 41 -27 48 -7 6 17 20 1 22 -26 2 -29 29 -29 33 1 4 23 16 29 27 11 4 -6 14 -8 23 -4 10 4 24 -4 38 -22 18 -22 25 -26 35 -16 10 10 17 9 34 -7 20 -18 23 -19 35 -5 11 13 15 12 32 -10 16 -20 23 -23 34 -14 11 9 18 6 33 -12 16 -20 21 -22 35 -10 14 12 19 11 30 -5 19 -25 11 -35 -18 -24 -13 5 -76 16 -141 25 -64 9 -138 24 -163 34 -26 10 -72 24 -102 30 -30 7 -64 16 -75 21 -11 5 -45 11 -75 14 -98 10 -164 23 -229 44 -39 13 -70 18 -79 13 -9 -5 -26 -2 -44 8 -28 15 -30 15 -47 -6 l-19 -22 -35 38 c-40 44 -61 52 -196 80 -103 22 -129 37 -113 67 6 11 8 31 5 45 -4 22 0 27 24 33 15 4 36 14 45 23 15 13 22 11 70 -28 43 -34 53 -47 53 -73 0 -21 5 -32 18 -34 11 -2 17 3 17 16 0 15 9 21 40 25 103 14 92 65 -28 126 -29 15 -43 29 -47 49 -10 44 -19 55 -78 94 -30 21 -75 60 -98 87 -24 27 -60 57 -80 66 -21 10 -51 37 -70 62 -20 29 -48 52 -76 65 -41 18 -46 18 -66 4 -82 -59 -133 -91 -165 -102 -50 -18 -132 -17 -169 1 -33 16 -106 9 -178 -18 -22 -9 -53 -18 -68 -21 -16 -4 -32 -17 -38 -30 -11 -23 -13 -23 -45 -10 -38 16 -48 7 -34 -31 9 -23 15 -27 40 -23 33 5 42 -8 26 -34 -8 -13 -6 -22 8 -37 11 -12 25 -21 33 -21 7 0 16 -6 19 -14 3 -8 12 -17 21 -20 22 -9 63 4 63 20 0 23 42 16 85 -14 25 -18 40 -36 40 -50 1 -28 11 -37 28 -24 10 9 29 2 78 -26 89 -52 86 -51 233 -63 96 -7 144 -6 183 2 29 7 55 10 58 8 2 -3 6 -21 7 -40 3 -29 0 -34 -21 -37 -13 -2 -47 3 -75 12 -29 9 -71 14 -96 12 -73 -7 -180 5 -180 20 0 17 -33 35 -74 39 -17 2 -50 9 -74 16 -40 11 -45 10 -64 -9 -14 -14 -21 -32 -20 -55 1 -23 -5 -41 -18 -52 -11 -10 -20 -29 -20 -43 0 -22 3 -24 34 -19 24 4 36 1 40 -8 3 -9 16 -12 38 -9 18 2 68 -6 113 -19 64 -18 80 -27 80 -42 0 -27 -25 -31 -32 -5 -5 19 -11 21 -40 17 -42 -7 -63 -23 -63 -48 0 -16 -5 -18 -27 -13 -16 3 -38 10 -49 16 -16 7 -31 6 -60 -7 -64 -27 -69 -31 -79 -53 -5 -12 -19 -22 -30 -24 -23 -3 -34 -46 -15 -58 19 -12 3 -78 -20 -90 -11 -6 -20 -19 -20 -30 0 -22 16 -35 25 -20 7 11 48 14 57 4 3 -3 -6 -17 -20 -31 l-26 -26 24 -11 c33 -14 40 -26 34 -53 -7 -27 19 -42 41 -23 22 18 48 5 36 -18 -6 -11 -6 -24 1 -37 8 -14 8 -20 0 -23 -7 -2 -12 -15 -12 -28 0 -13 -4 -24 -10 -24 -10 0 -14 23 -10 73 1 16 -4 27 -12 28 -33 3 -64 -4 -77 -16 -15 -15 -16 -14 33 -29 8 -3 17 -23 21 -45 8 -47 18 -57 35 -36 7 8 23 15 37 15 28 0 41 25 24 51 -19 32 11 23 39 -11 30 -37 47 -38 60 -5 5 14 17 25 27 25 13 0 14 -3 5 -12 -7 -7 -12 -20 -12 -30 0 -11 -7 -18 -20 -18 -12 0 -20 -7 -20 -17 0 -15 9 -18 55 -17 65 1 74 7 50 34 -15 16 -16 23 -6 33 10 9 15 8 25 -5 20 -27 56 -23 56 6 0 21 3 23 53 21 68 -3 67 -3 61 -19 -3 -8 -20 -16 -37 -18 -24 -2 -32 -8 -32 -23 0 -19 6 -20 80 -17 45 2 84 9 90 15 12 15 72 20 80 7 11 -18 64 -11 86 11 19 19 23 20 31 6 7 -13 24 -15 105 -11 53 2 109 10 123 18 31 15 48 7 123 -62 44 -40 107 -75 124 -70 5 2 22 -3 39 -10 32 -14 56 -11 399 44 50 8 106 17 125 20 19 3 114 16 210 30 96 14 187 31 202 39 21 10 36 11 62 3 30 -9 38 -8 68 16 19 14 40 26 46 26 7 0 17 9 24 20 20 32 63 25 111 -18 59 -54 102 -78 175 -98 l64 -18 49 -98 c37 -73 54 -98 69 -98 10 0 22 5 25 10 3 6 10 10 15 10 13 0 120 -334 120 -374 0 -9 -13 -46 -30 -83 l-30 -66 -21 27 c-25 31 -44 23 -54 -24 -9 -40 -27 -53 -58 -41 -14 5 -34 7 -46 4 -18 -5 -19 -2 -11 26 8 28 5 36 -29 75 -29 33 -44 65 -65 140 -29 102 -60 181 -76 191 -13 8 -37 -32 -51 -87 -10 -38 -10 -54 1 -89 14 -41 14 -42 -15 -65 -17 -13 -36 -24 -42 -24 -18 0 -16 59 2 103 13 32 13 37 -6 61 -11 14 -33 54 -49 90 -16 35 -34 67 -39 71 -18 10 -43 -43 -48 -102 -4 -46 2 -78 26 -157 17 -54 31 -106 31 -116 0 -10 7 -33 15 -52 8 -20 17 -64 20 -99 5 -53 2 -76 -19 -134 -49 -138 -106 -266 -137 -312 -20 -29 -34 -62 -36 -87 -5 -61 -76 -198 -119 -231 -20 -15 -44 -48 -55 -73 -20 -45 -20 -46 -32 -22 -18 35 -29 34 -85 -4 -48 -33 -51 -34 -57 -16 -4 13 -15 20 -31 20 -19 0 -24 5 -24 25 0 16 -7 28 -17 31 -52 16 -88 44 -93 71 -4 23 -11 28 -34 29 -30 1 -66 34 -66 59 0 7 -6 15 -14 18 -8 3 -16 16 -18 29 -2 18 -10 23 -31 24 -34 1 -47 17 -47 60 0 19 -6 34 -15 38 -8 3 -14 11 -13 18 2 7 -7 17 -19 23 -13 5 -23 17 -23 27 0 15 -12 31 -59 81 -42 45 -67 67 -77 67 -6 0 -25 18 -43 40 -17 22 -27 40 -21 40 5 0 10 7 10 15 0 18 -12 19 -28 3 -9 -9 -12 -6 -12 14 0 33 -22 51 -53 43 -20 -5 -28 -2 -37 16 -16 30 -90 109 -102 109 -5 0 -16 -7 -24 -15 -30 -30 3 -77 123 -176 17 -14 33 -37 35 -50 2 -15 15 -29 35 -39 19 -9 33 -23 33 -33 0 -24 -78 -107 -116 -123 -19 -8 -42 -31 -58 -59 -15 -25 -41 -52 -59 -61 -18 -9 -36 -23 -40 -30 -4 -8 -14 -14 -22 -14 -7 0 -40 -26 -72 -57 -32 -32 -82 -77 -110 -100 -30 -25 -57 -57 -64 -77 -7 -19 -21 -37 -31 -39 -10 -3 -25 -22 -33 -42 -12 -27 -27 -41 -59 -55 -26 -11 -45 -26 -49 -39 -3 -13 -13 -21 -26 -21 -14 0 -21 -6 -21 -18 0 -23 -19 -42 -42 -42 -10 0 -28 -10 -40 -22 -12 -13 -45 -30 -72 -38 -61 -19 -68 -38 -24 -64 148 -87 164 -90 286 -56 39 11 74 20 77 20 13 0 33 -68 40 -130 7 -65 6 -67 -28 -108 -19 -23 -44 -57 -56 -75 -31 -51 -161 -392 -172 -455 -13 -70 -5 -190 21 -297 11 -44 29 -151 40 -237 11 -87 25 -169 30 -183 32 -84 62 -134 95 -159 37 -29 47 -32 165 -62 36 -9 90 -24 120 -34 35 -12 99 -21 180 -25 215 -10 268 -8 294 8 28 19 66 93 66 129 0 14 7 31 15 38 8 7 15 17 15 22 0 23 165 358 176 358 16 0 84 -76 84 -95 0 -11 -7 -13 -28 -9 -19 4 -32 1 -42 -11 -12 -14 -7 -23 41 -71 29 -29 58 -54 65 -54 6 0 19 9 29 20 10 11 23 20 29 20 6 0 22 24 36 52 14 28 30 53 37 55 7 3 27 -16 45 -41 32 -47 54 -56 77 -33 10 10 16 7 30 -12 10 -13 24 -22 32 -20 8 2 36 28 63 56 54 59 52 79 -7 85 -46 4 -45 30 2 81 23 24 41 49 41 55 0 13 -52 42 -75 42 -27 0 -16 32 26 71 27 25 39 44 35 54 -7 19 -50 37 -71 29 -15 -6 -19 5 -15 36 1 8 20 34 42 57 34 35 39 45 29 57 -7 8 -29 16 -49 18 -33 3 -37 6 -34 28 2 14 15 42 29 64 31 47 25 86 -12 86 -33 0 -32 18 5 66 16 21 30 49 30 62 0 19 -5 22 -35 22 -47 0 -46 22 2 85 42 56 37 82 -16 77 -27 -3 -31 0 -31 21 0 13 13 41 30 63 16 21 30 49 30 62 0 19 -5 22 -35 22 -31 0 -35 3 -35 25 0 14 15 41 35 64 48 52 46 71 -5 71 -50 0 -52 17 -10 70 16 20 38 58 49 83 21 48 32 59 66 63 40 4 285 214 285 244 0 4 -14 20 -30 34 -36 30 -60 25 -122 -25 -35 -28 -68 -38 -68 -21 0 4 4 12 10 18 14 14 60 141 60 167 0 12 10 35 23 51 22 27 28 29 128 36 85 5 117 12 173 37 104 46 122 31 56 -47 -69 -83 -38 -115 36 -37 54 56 83 99 109 161 23 57 62 117 115 178 l34 40 -26 23 -27 23 19 39 c37 71 118 248 130 284 14 40 8 71 -13 63 -10 -3 -30 46 -76 185 -35 104 -70 199 -78 211 -14 20 -16 20 -33 5 -18 -16 -20 -15 -39 24 -12 22 -21 44 -21 49 0 13 44 31 112 47 72 17 92 33 107 88 15 53 2 97 -30 97 -11 0 -35 10 -52 22 -23 17 -47 22 -105 24 -81 4 -98 7 -154 31 -41 17 -43 20 -29 42 14 22 -6 56 -23 41 -10 -8 -15 -5 -19 10 -3 13 0 23 9 27 18 7 18 33 0 33 -8 0 -16 -7 -20 -15 -7 -20 -52 -19 -60 0 -6 16 -59 17 -84 1 -8 -5 -20 2 -33 19 -18 22 -23 24 -37 13 -11 -9 -16 -10 -19 -2 -16 48 -66 57 -63 12 3 -37 1 -48 -11 -48 -7 0 -9 12 -5 33 4 21 1 40 -8 52 -14 19 -15 19 -35 1 -19 -17 -21 -17 -27 -2 -3 9 -16 16 -28 16 -12 0 -27 5 -33 11 -18 18 -43 2 -44 -28 0 -25 -1 -26 -9 -8 -5 11 -11 28 -14 39 -6 18 -7 18 -26 1 -17 -15 -20 -16 -20 -3 0 9 -9 26 -19 39 l-20 24 -13 -32 c-13 -30 -15 -31 -31 -16 -13 13 -19 14 -31 3 -13 -10 -16 -10 -16 1 0 8 -3 24 -6 35 -5 19 1 24 48 39 29 10 72 28 95 41 26 15 44 20 48 14 9 -15 25 -2 25 20 0 30 136 90 202 90 18 0 38 9 52 25 13 14 30 23 38 20 8 -3 23 4 33 16 19 20 19 21 1 34 -14 11 -17 21 -12 49 12 65 1 81 -81 120 -42 20 -103 44 -137 52 -61 17 -61 17 -186 -16 -223 -57 -234 -60 -276 -60 -27 0 -63 -11 -99 -30 -87 -46 -155 -43 -271 12 -107 51 -168 57 -206 20 -26 -24 -44 -22 -125 14 -17 8 -36 14 -42 14 -6 0 -19 17 -30 38 -13 26 -43 54 -93 87 -40 27 -86 65 -103 83 -16 19 -55 47 -85 63 -30 17 -70 41 -89 54 -32 24 -61 30 -88 18z"/>
 <path d="M5606 6020 c-54 -10 -66 -29 -52 -82 9 -32 8 -42 -2 -46 -7 -2 -19 -11 -28 -19 -14 -14 -15 -10 -8 45 6 53 4 63 -11 68 -10 4 -30 0 -46 -10 -16 -9 -29 -14 -29 -11 0 3 -10 1 -21 -6 -18 -9 -20 -17 -15 -47 5 -33 2 -39 -24 -54 -22 -13 -30 -24 -30 -46 0 -15 5 -33 11 -39 8 -8 13 -79 15 -205 2 -106 6 -208 10 -226 4 -21 2 -43 -6 -58 -10 -19 -11 -32 -2 -63 20 -65 13 -78 -13 -25 -26 51 -202 264 -250 302 -29 23 -81 30 -87 11 -2 -5 -41 -12 -86 -15 -46 -2 -97 -10 -115 -18 -45 -19 -122 -90 -148 -135 -19 -34 -31 -42 -103 -67 -44 -15 -96 -27 -115 -26 -77 5 -114 -72 -126 -263 -2 -33 -11 -85 -19 -115 -14 -45 -15 -68 -6 -125 15 -97 55 -233 102 -340 22 -49 40 -106 40 -125 0 -19 4 -42 9 -51 6 -11 4 -21 -5 -28 -8 -7 -17 -28 -21 -47 -9 -49 14 -80 67 -95 24 -6 58 -20 76 -31 45 -28 202 -53 392 -63 90 -4 98 -3 157 26 59 28 133 99 133 127 0 6 9 16 21 22 25 14 71 108 94 195 14 49 21 62 30 55 17 -14 26 -1 74 111 42 100 48 124 31 134 -18 11 -11 49 16 88 21 31 28 36 40 26 19 -16 19 -85 -1 -93 -21 -8 -19 -35 5 -71 21 -32 27 -90 10 -100 -15 -9 -12 -41 5 -55 8 -7 15 -21 15 -32 0 -17 -5 -19 -26 -14 -35 9 -64 -2 -64 -24 0 -22 19 -30 70 -30 21 0 42 -5 46 -11 9 -15 -18 -31 -30 -19 -13 13 -62 13 -86 0 -16 -9 -19 -7 -17 17 1 19 -3 28 -16 31 -26 5 -44 -14 -77 -79 l-28 -58 23 -28 c47 -53 43 -89 -16 -164 -16 -20 -29 -42 -29 -48 0 -6 -5 -11 -11 -11 -22 0 -114 -68 -149 -110 -42 -50 -49 -67 -40 -100 5 -20 1 -28 -21 -42 -15 -9 -46 -45 -70 -80 -23 -35 -55 -78 -72 -95 -26 -28 -30 -40 -29 -80 3 -54 31 -88 67 -79 11 2 42 10 68 16 39 10 52 19 73 52 14 22 28 47 31 56 10 26 64 86 87 96 12 4 39 8 60 7 22 0 44 5 50 13 13 16 65 43 156 81 36 15 89 48 118 74 29 25 64 52 77 59 13 7 33 28 45 47 11 19 31 37 43 41 20 6 107 90 107 104 0 15 -14 19 -33 9 -20 -11 -37 1 -37 29 0 15 42 16 57 1 15 -15 53 45 53 84 0 23 -7 31 -37 44 -48 20 -53 27 -53 90 0 49 -2 53 -27 58 -16 3 -47 10 -71 15 -24 6 -48 8 -53 4 -5 -3 -23 -3 -39 1 -26 6 -29 9 -24 38 3 18 10 44 14 59 5 17 4 38 -2 56 -9 24 -8 39 5 74 21 54 21 77 2 84 -22 9 -18 36 11 79 29 43 28 69 -4 73 -32 5 -28 40 9 91 32 46 32 71 -1 71 -28 0 -26 36 6 83 28 42 26 67 -6 67 -29 0 -27 51 5 88 14 17 25 37 25 46 0 10 -9 16 -25 16 -21 0 -25 5 -25 28 0 15 9 38 20 52 25 32 25 60 0 67 -25 7 -25 30 0 68 27 40 27 85 0 85 -19 0 -19 5 -14 93 3 50 12 109 20 130 18 49 18 53 -7 76 -21 19 -21 21 -5 55 21 44 20 52 -4 76 -21 21 -24 22 -84 10z"/>
 </g>

</svg>