<!DOCTYPE svg PUBLIC "-//W3C//DTD SVG 20010904//EN" "http://www.w3.org/TR/2001/REC-SVG-20010904/DTD/svg10.dtd">
<svg version="1.0" xmlns="http://www.w3.org/2000/svg" width="1600px" height="948px" viewBox="0 0 16000 9480" preserveAspectRatio="xMidYMid meet">
<g id="layer101" fill="#352821" stroke="none">
 <path d="M0 4740 l0 -4740 8000 0 8000 0 0 4740 0 4740 -8000 0 -8000 0 0 -4740z"/>
 </g>
<g id="layer102" fill="#707559" stroke="none">
 <path d="M0 9459 c0 -15 5 -19 15 -15 8 3 15 1 15 -5 0 -6 4 -7 10 -4 5 3 10 1 10 -6 0 -7 -10 -9 -25 -7 l-25 5 1 -1066 c1 -586 4 -1052 6 -1036 10 70 53 46 53 -30 0 -34 -5 -45 -30 -63 l-30 -23 0 -390 c0 -353 2 -392 17 -417 10 -15 25 -32 33 -39 8 -6 11 -15 7 -20 -5 -4 -20 6 -33 22 l-24 30 0 -155 0 -155 30 -20 c16 -11 30 -29 30 -40 0 -18 -1 -18 -16 3 -8 12 -22 22 -30 22 -12 0 -14 -177 -14 -1324 0 -1050 3 -1325 13 -1329 9 -4 9 -6 0 -6 -10 -1 -13 -349 -13 -1696 l0 -1695 8000 0 8000 0 0 3515 c0 3102 -2 3515 -15 3515 -9 0 -15 10 -15 25 0 13 -5 36 -12 50 -9 21 -9 28 2 35 9 6 11 20 6 50 -4 28 -2 47 6 57 10 13 13 13 19 -4 5 -11 8 2 8 35 1 33 -3 51 -9 47 -5 -3 -10 3 -10 14 0 12 5 21 10 21 7 0 10 360 10 1060 l0 1060 -8000 0 -8000 0 0 -21z m5825 -2079 c12 -9 128 -30 165 -30 24 1 230 -16 340 -27 l54 -5 -27 -20 c-31 -23 -37 -67 -11 -92 17 -17 48 -8 56 16 7 19 167 25 165 7 -1 -8 3 -14 8 -14 6 0 10 7 10 15 0 8 10 16 23 18 18 3 22 -1 22 -22 0 -16 7 -27 20 -31 33 -10 60 4 60 31 0 19 5 24 25 24 19 0 28 -8 40 -37 16 -37 16 -38 -10 -60 -16 -14 -39 -23 -60 -23 -24 0 -38 -6 -45 -20 -6 -11 -19 -20 -28 -20 -10 0 -25 9 -35 20 -13 15 -28 20 -64 19 -59 -1 -95 -11 -92 -24 3 -17 82 -36 122 -29 l37 6 0 -61 c0 -37 -5 -63 -12 -68 -7 -4 -47 -10 -88 -13 -72 -5 -75 -6 -75 -30 0 -24 3 -25 80 -30 44 -3 86 -9 93 -13 17 -12 15 -82 -4 -101 -11 -11 -35 -16 -83 -16 -72 0 -99 -14 -87 -45 4 -12 23 -15 80 -15 91 0 108 -12 104 -74 l-3 -41 -84 -3 c-69 -2 -83 0 -78 12 3 8 -1 22 -8 33 -13 16 -16 16 -25 3 -5 -8 -7 -22 -3 -30 3 -8 5 -24 4 -35 -4 -49 0 -134 11 -185 15 -78 13 -98 -13 -126 -20 -21 -24 -39 -31 -147 -5 -76 -4 -158 3 -217 13 -122 27 -302 42 -567 7 -116 15 -215 20 -219 4 -4 7 -20 7 -36 0 -41 26 -87 56 -98 14 -6 45 -10 70 -10 41 0 43 -1 32 -19 -9 -15 -9 -23 1 -35 17 -20 39 -20 84 -1 26 11 73 15 161 15 110 0 126 2 138 18 8 12 32 21 62 25 42 6 53 4 72 -14 35 -33 84 -39 332 -39 l233 0 -4 -37 -4 -38 -579 1 c-318 0 -591 4 -606 8 -23 7 -28 5 -28 -8 0 -9 7 -27 15 -39 10 -15 18 -69 24 -156 5 -74 14 -138 19 -143 8 -8 101 -9 836 -9 245 0 354 -3 363 -11 10 -8 13 -31 11 -77 l-3 -66 -43 -13 c-54 -18 -122 -94 -105 -120 7 -11 24 -17 49 -17 32 0 39 4 44 25 4 18 13 25 30 25 20 0 26 -6 28 -30 2 -16 -3 -38 -11 -49 -12 -17 -17 -17 -50 -5 -33 11 -39 11 -54 -4 -14 -13 -15 -21 -5 -42 16 -34 2 -61 -36 -68 -22 -4 -33 -15 -40 -37 -13 -34 -18 -36 -44 -13 -26 23 -23 61 6 72 43 17 49 72 11 97 -18 12 -25 25 -25 49 0 30 3 33 38 40 60 11 119 95 77 111 -8 4 -25 0 -38 -8 -12 -9 -48 -18 -79 -22 -61 -8 -72 -16 -82 -58 l-6 -28 -680 -2 c-637 -3 -680 -4 -697 -21 -26 -26 -26 -208 0 -234 17 -17 62 -18 698 -23 l680 -5 2 -93 c1 -51 -2 -92 -7 -92 -5 0 -25 5 -43 12 -25 9 -41 9 -63 1 -24 -9 -36 -8 -67 8 -20 10 -46 19 -58 19 -11 0 -38 7 -60 15 -55 20 -1016 22 -1055 2 -30 -15 -37 -47 -16 -79 8 -13 18 -40 21 -61 4 -20 12 -40 17 -43 5 -3 76 -5 158 -5 82 1 187 -3 232 -8 115 -14 913 -22 949 -9 15 5 40 25 54 44 37 49 56 57 98 39 45 -18 51 -29 35 -55 -11 -17 -11 -22 2 -30 8 -5 22 -7 30 -4 37 16 104 24 114 14 20 -20 54 -10 88 28 29 32 36 49 41 101 4 36 3 70 -3 81 -14 26 -13 245 2 331 10 66 13 71 46 85 19 7 37 14 40 14 12 0 -11 -106 -29 -128 -24 -32 -24 -58 1 -79 25 -22 25 -40 0 -78 -26 -39 -26 -72 0 -80 17 -5 20 -15 20 -70 0 -35 -4 -75 -9 -88 -12 -31 18 -100 51 -119 39 -22 1482 -16 1518 7 6 3 10 16 10 28 0 12 9 39 20 60 11 20 20 45 20 56 0 45 -4 46 -544 53 -492 6 -513 6 -555 -13 -24 -10 -53 -19 -65 -19 -11 0 -34 -7 -50 -15 -23 -12 -35 -13 -61 -4 -27 10 -40 9 -74 -4 -52 -21 -54 -21 -46 2 8 26 -15 41 -73 48 l-50 6 -7 48 c-4 26 -3 53 1 60 5 9 183 11 750 8 686 -4 744 -3 760 13 20 20 37 188 23 225 -5 13 -20 28 -34 33 -16 6 -201 11 -453 11 -235 1 -566 4 -736 8 l-310 6 -7 27 c-6 25 -14 36 -47 73 -18 20 -24 19 -52 -5 -13 -11 -31 -20 -42 -20 -16 0 -18 9 -18 86 l0 85 584 -6 c462 -4 585 -3 593 7 6 7 14 76 18 154 8 164 3 177 -69 174 -64 -3 -66 1 -6 13 l55 12 -3 54 c-2 42 1 58 17 75 11 12 24 32 29 46 13 36 9 317 -5 331 -6 6 -46 16 -90 22 -43 6 -81 16 -85 22 -13 18 -8 73 8 89 10 11 34 16 73 16 67 0 87 15 78 59 -3 15 -1 33 5 39 22 22 28 111 11 153 -18 46 -14 54 22 45 16 -4 25 -13 25 -26 0 -10 4 -21 8 -24 5 -3 7 -302 5 -665 l-3 -660 38 -36 c45 -43 72 -42 92 4 14 32 16 33 62 28 53 -7 108 8 108 28 0 17 -77 30 -126 22 -33 -6 -34 -4 -35 26 -3 104 1 254 11 407 9 152 26 911 26 1175 0 156 15 640 22 711 6 60 10 69 28 72 11 2 27 -4 34 -13 16 -19 44 -19 60 0 9 10 9 19 2 28 -5 6 -12 23 -14 36 -2 19 -14 28 -53 41 -50 17 -50 17 -53 63 -3 38 0 48 15 53 39 12 48 22 48 55 0 27 -6 36 -26 46 -19 9 -29 24 -34 51 -9 51 -21 62 -64 62 -48 0 -67 -16 -80 -65 -13 -52 -29 -401 -41 -929 -5 -230 -11 -421 -13 -423 -2 -2 -22 23 -43 54 -39 57 -40 58 -83 55 -36 -3 -48 1 -72 24 -16 15 -29 36 -29 46 0 25 11 23 36 -9 l21 -27 53 45 c80 68 83 76 87 287 1 108 -1 191 -7 202 -10 19 -85 40 -144 40 -36 0 -46 13 -46 58 0 48 13 57 97 62 75 5 78 6 78 30 0 24 -3 25 -78 30 -85 5 -97 13 -97 65 0 52 12 60 97 65 75 5 78 6 78 30 0 24 -3 25 -78 30 -89 6 -97 12 -97 81 0 46 17 68 42 53 5 -3 29 -3 54 1 51 7 71 32 54 65 -22 40 -61 50 -227 54 -144 4 -233 18 -233 37 0 4 7 12 15 19 36 30 10 70 -46 70 -48 0 -67 -21 -52 -59 7 -21 7 -32 -3 -46 -8 -10 -14 -30 -14 -44 0 -35 -15 -55 -34 -48 -29 11 -31 38 -6 57 l24 18 -40 11 c-21 6 -59 11 -84 12 -25 0 -63 4 -85 8 -36 7 -38 8 -15 14 14 4 66 8 115 10 l90 2 -2 30 c-1 22 6 36 28 53 48 39 79 43 150 18 70 -24 83 -40 45 -57 -55 -25 -16 -58 73 -61 25 -1 110 1 188 4 152 7 197 20 212 61 7 19 16 22 62 23 30 0 68 6 86 14 26 12 43 12 95 1 55 -10 69 -10 108 5 25 9 65 18 90 20 25 1 74 6 110 9 36 4 83 6 105 6 226 -4 245 -6 245 -21 0 -8 3 -25 6 -37 8 -29 -16 -31 -34 -3 -9 14 -23 20 -51 20 -47 0 -71 -20 -71 -61 0 -30 -10 -42 -105 -122 -29 -24 -29 -25 -15 -67 11 -32 11 -46 2 -60 -10 -16 -7 -22 17 -39 16 -11 40 -25 55 -31 38 -14 32 -28 -19 -50 -25 -11 -45 -26 -45 -35 0 -8 15 -32 34 -52 36 -41 50 -72 38 -89 -10 -16 -48 -34 -70 -34 -16 0 -24 -13 -37 -57 -29 -99 -46 -113 -56 -43 -7 53 -61 93 -104 76 -16 -6 -20 -43 -6 -65 5 -7 4 -26 -3 -43 -9 -26 -8 -32 8 -44 11 -8 34 -14 52 -14 28 0 33 -4 36 -27 2 -19 10 -29 28 -33 37 -9 35 -54 -2 -58 -31 -4 -68 -44 -68 -75 0 -11 18 -37 40 -57 22 -20 40 -42 40 -48 0 -6 11 -23 24 -39 36 -43 39 -66 15 -97 -19 -24 -21 -36 -16 -96 5 -61 -13 -270 -26 -310 -3 -8 -8 -27 -11 -42 -4 -16 -13 -28 -21 -28 -9 0 -15 -10 -15 -25 0 -29 24 -34 38 -8 8 14 12 12 27 -16 13 -27 21 -32 40 -27 20 5 24 1 30 -25 4 -16 6 -51 5 -77 -3 -91 0 -143 11 -164 7 -13 8 -44 3 -92 -5 -39 -10 -120 -11 -181 -1 -60 -5 -148 -9 -195 -3 -47 -5 -145 -4 -217 2 -114 0 -134 -14 -139 -19 -7 -22 -28 -3 -21 6 2 27 -2 45 -10 26 -11 149 -13 630 -13 328 0 753 -1 944 -2 311 -3 349 -1 364 13 13 13 20 64 34 250 37 470 39 481 54 498 10 11 12 21 6 31 -15 24 -12 49 11 79 28 39 39 170 16 205 -14 21 -15 43 -8 165 4 78 10 143 12 144 2 1 19 8 36 14 31 10 33 10 48 -20 21 -42 19 -61 -10 -108 l-26 -40 26 -30 c14 -17 25 -35 25 -40 0 -5 4 -9 9 -9 20 0 31 65 25 140 -4 50 -3 84 5 98 6 11 8 28 5 36 -7 19 -45 21 -62 4 -8 -8 -12 -9 -12 -1 0 6 -11 25 -25 41 -15 19 -21 33 -15 37 15 9 12 55 -4 55 -8 0 -16 -6 -19 -14 -5 -12 -13 -13 -44 -4 -51 14 -236 6 -256 -10 -39 -32 -95 -282 -131 -577 -25 -201 -23 -195 -51 -195 -13 0 -27 -4 -30 -10 -15 -25 -24 -5 -24 49 1 33 -2 65 -6 71 -4 6 0 21 8 34 8 12 17 33 19 46 2 16 11 26 28 30 33 8 43 60 11 60 -23 0 -26 22 -15 117 6 43 10 52 28 55 34 5 65 81 61 151 -1 31 1 60 6 63 5 3 9 19 9 35 0 36 -27 50 -46 25 -18 -25 -36 -10 -29 24 8 39 -10 43 -159 39 -67 -2 -170 -2 -230 -1 l-108 2 6 25 c8 30 -12 42 -42 26 -14 -7 -18 -17 -15 -32 6 -20 4 -20 -158 -16 -90 3 -234 5 -319 5 -167 1 -190 -5 -212 -54 -17 -36 -38 -31 -38 10 l0 33 -67 6 c-38 4 -99 7 -137 7 l-68 0 6 31 c3 17 6 53 6 80 l0 48 103 -6 c56 -3 108 -10 114 -16 9 -6 23 -5 42 3 19 7 50 10 83 6 65 -7 78 -7 150 0 42 4 62 2 80 -10 21 -14 27 -14 44 -1 22 16 134 21 134 5 0 -18 39 -50 55 -44 8 4 15 17 15 30 0 22 4 24 45 24 43 0 45 -1 40 -23 -6 -23 -4 -24 55 -24 59 0 61 1 55 24 -5 21 -2 23 36 23 l41 0 -23 -19 -23 -18 23 -12 c12 -7 37 -11 54 -10 18 1 42 -1 55 -5 28 -9 92 11 92 29 0 8 -8 19 -17 24 -16 9 -16 10 5 11 12 0 31 -6 42 -12 15 -10 24 -10 39 -1 29 18 308 15 336 -3 20 -13 24 -13 35 2 11 12 31 15 99 13 47 -1 98 3 113 9 44 18 48 40 71 500 4 78 6 85 31 97 23 12 27 12 37 -7 8 -14 8 -27 -1 -48 -8 -20 -9 -34 -1 -48 15 -29 16 -94 1 -118 -18 -29 -6 -56 22 -52 18 2 24 11 26 35 2 24 9 33 25 35 20 3 22 8 19 60 -3 46 1 65 18 93 16 25 21 45 16 66 -4 22 -2 29 9 29 9 0 15 -10 15 -24 0 -14 4 -28 10 -31 6 -4 8 -42 5 -98 -3 -51 -5 -102 -5 -115 0 -18 -4 -22 -19 -17 -26 8 -39 -15 -18 -30 13 -10 17 -29 17 -93 0 -44 4 -91 9 -104 10 -27 -6 -315 -18 -339 -5 -8 -9 -63 -9 -122 -1 -59 -4 -113 -9 -119 -4 -7 -7 -61 -8 -120 0 -72 -4 -111 -12 -119 -11 -11 -13 -10 -13 4 0 32 -69 46 -71 13 -6 -100 4 -116 46 -76 19 18 26 20 30 9 3 -8 0 -84 -6 -169 -6 -85 -13 -182 -15 -215 -18 -286 -34 -391 -75 -493 -9 -22 -7 -23 28 -20 32 2 40 8 52 35 18 41 44 47 76 17 14 -13 30 -24 36 -24 5 0 9 -4 9 -9 0 -5 -28 -19 -63 -30 -70 -24 -134 -78 -124 -105 4 -9 11 -16 16 -16 12 0 41 28 41 40 0 9 83 36 184 59 44 11 51 10 70 -8 11 -10 32 -21 46 -23 21 -2 24 -8 22 -32 l-4 -29 49 5 c46 4 51 3 66 -24 13 -23 23 -28 54 -28 30 0 40 -5 48 -22 7 -16 21 -24 48 -28 77 -10 32 -41 -113 -80 -114 -29 -175 -59 -175 -85 0 -32 48 -30 159 8 129 44 265 87 277 87 5 0 9 -6 9 -13 0 -27 36 -48 76 -45 35 3 39 1 39 -21 0 -25 1 -25 -170 -75 -114 -34 -162 -55 -169 -73 -18 -45 32 -43 185 7 68 22 127 40 132 40 5 0 31 11 59 25 67 34 90 33 86 -2 -3 -30 12 -24 -233 -95 -93 -27 -125 -44 -125 -68 0 -26 44 -37 84 -21 17 6 90 32 161 56 72 24 154 53 183 65 44 17 53 18 58 6 15 -39 0 -49 -141 -93 -77 -24 -162 -50 -190 -57 -38 -10 -51 -18 -53 -34 -2 -15 4 -25 22 -33 21 -10 40 -7 113 16 161 52 378 112 386 108 13 -7 7 -46 -10 -65 -24 -27 -4 -45 34 -29 36 15 93 67 93 84 0 7 -16 27 -36 45 -30 27 -34 34 -24 52 6 11 15 20 21 20 5 0 14 12 19 26 17 44 35 23 35 -42 0 -57 1 -59 25 -56 58 8 137 -3 198 -27 55 -22 38 -36 -40 -31 -19 1 -28 -5 -33 -19 -8 -27 -39 -27 -72 -1 -20 15 -29 17 -45 9 -16 -9 -18 -17 -12 -54 6 -43 5 -44 -35 -69 -22 -14 -54 -26 -70 -26 -41 0 -186 -47 -201 -65 -10 -12 -10 -18 0 -30 19 -22 80 -18 157 10 61 23 236 74 256 75 4 0 7 -13 7 -30 0 -37 -19 -48 -112 -60 -100 -12 -333 -87 -489 -155 -64 -28 -213 -45 -245 -27 -17 10 -16 12 18 27 21 8 63 22 94 30 32 8 68 22 81 30 67 44 -41 60 -139 21 -35 -14 -76 -28 -93 -32 -16 -4 -61 -23 -99 -42 -38 -19 -90 -37 -115 -39 -52 -5 -121 -31 -121 -46 0 -5 7 -15 15 -21 8 -6 19 -36 25 -66 12 -64 29 -80 85 -80 54 0 65 13 65 76 l0 52 43 3 c23 2 70 3 103 1 l61 -4 7 -56 c4 -30 12 -62 18 -69 6 -7 31 -13 59 -13 58 0 73 19 72 93 0 28 4 47 11 48 28 3 173 -3 187 -7 12 -3 16 -18 15 -64 -1 -72 14 -92 73 -94 59 -1 76 20 75 94 l-1 60 66 0 c36 0 89 -3 116 -6 l50 -6 -3 -64 c-2 -40 1 -70 8 -79 17 -20 77 -30 105 -17 28 13 40 71 26 120 l-10 32 44 0 c83 0 124 32 90 70 -32 35 -16 52 82 84 108 35 126 30 104 -29 -9 -27 -9 -39 0 -57 10 -19 8 -24 -13 -42 -14 -12 -40 -29 -58 -39 -32 -17 -32 -18 -28 -81 2 -35 10 -71 17 -80 17 -20 104 -22 119 -3 6 7 12 40 14 72 l3 60 50 -3 c28 -2 64 -10 81 -17 29 -12 31 -16 41 -94 6 -44 16 -88 23 -96 9 -11 35 -15 105 -15 l93 0 27 -36 c15 -20 42 -42 59 -49 17 -7 40 -23 50 -34 11 -12 27 -21 37 -21 10 0 23 -9 29 -20 6 -11 27 -28 48 -39 37 -19 79 -57 71 -65 -8 -8 -93 15 -109 29 -15 13 -27 15 -108 14 -36 0 -44 4 -52 26 -6 15 -17 25 -30 25 -11 0 -29 9 -41 21 -14 14 -30 19 -57 17 -32 -3 -37 -6 -35 -25 3 -25 -12 -28 -97 -15 -38 6 -45 10 -42 28 5 38 -22 46 -166 55 -76 5 -195 15 -266 24 -71 8 -132 12 -137 9 -5 -3 -9 -16 -9 -30 0 -22 -4 -25 -27 -22 -22 2 -27 8 -25 23 2 17 -6 23 -39 32 -23 6 -48 9 -56 6 -16 -6 -17 -29 -2 -39 7 -4 7 -10 1 -16 -6 -6 -23 -6 -48 2 -22 6 -106 13 -189 16 -82 2 -165 10 -184 16 -19 6 -118 13 -220 15 -102 2 -195 4 -206 5 -11 0 -67 0 -125 -2 -58 -1 -125 3 -150 8 -25 6 -90 8 -145 5 -70 -4 -122 -1 -174 10 -58 12 -86 14 -130 5 -32 -6 -92 -7 -141 -3 -47 4 -146 9 -220 11 -74 2 -164 7 -200 11 -36 5 -174 8 -307 8 -134 0 -243 4 -243 8 0 4 7 18 15 31 13 20 13 25 1 35 -11 9 -165 29 -238 31 -12 0 -18 8 -18 23 0 31 -34 84 -60 92 -23 7 -50 -9 -50 -31 0 -11 -19 -14 -85 -14 -80 0 -85 1 -85 21 0 20 -4 21 -60 16 -72 -6 -90 6 -90 63 0 45 -12 60 -75 90 -78 38 -132 -1 -119 -85 8 -55 35 -80 86 -80 24 0 43 -5 45 -12 4 -10 -17 -13 -81 -13 -82 0 -86 1 -74 19 16 26 -5 51 -42 51 -38 0 -55 -22 -40 -50 l12 -22 -225 6 c-123 3 -287 6 -363 6 -99 1 -134 4 -121 11 21 12 22 35 1 43 -9 3 -40 6 -70 6 -61 0 -83 -21 -49 -46 16 -12 2 -14 -103 -14 -118 0 -122 1 -110 19 20 33 -5 51 -71 51 -72 0 -89 -15 -58 -48 l22 -25 -55 7 c-30 3 -160 6 -289 6 -197 0 -232 2 -222 14 6 7 32 16 57 19 62 7 79 26 78 88 -1 63 -18 82 -75 82 -53 0 -69 -20 -69 -85 l0 -48 -95 0 c-79 0 -97 -3 -102 -16 -3 -9 -1 -25 6 -36 11 -18 5 -18 -201 -12 -117 4 -214 7 -215 8 0 0 6 28 14 61 13 49 14 68 4 104 l-12 43 -46 -5 c-59 -6 -73 -22 -80 -89 l-6 -56 -70 4 c-53 2 -78 -1 -95 -12 -23 -15 -23 -16 -5 -36 l18 -21 -139 7 c-77 3 -182 6 -234 6 l-94 0 18 28 c22 33 25 131 5 156 -9 10 -29 16 -57 16 -36 0 -47 -5 -60 -25 -21 -32 -14 -111 13 -151 l17 -27 -159 6 c-88 4 -197 7 -243 7 -77 0 -82 1 -73 18 15 28 -5 42 -58 42 -57 0 -75 -11 -66 -39 6 -20 4 -21 -84 -21 -76 0 -92 3 -103 19 -9 13 -32 20 -80 25 -59 7 -69 5 -87 -13 -19 -19 -51 -29 -51 -15 0 3 7 12 15 20 18 19 18 34 2 99 -13 49 -14 50 -56 53 -63 5 -75 -10 -67 -82 3 -33 13 -67 23 -78 15 -17 14 -18 -24 -18 l-41 0 -12 98 c-10 76 -10 103 -1 120 10 19 8 29 -10 62 -21 37 -21 40 -6 64 16 24 20 25 152 28 l136 3 44 50 c67 75 71 120 14 136 -13 4 -97 7 -186 8 l-163 1 0 60 0 60 154 0 c166 0 202 7 215 42 14 37 -3 196 -23 216 -14 15 -43 17 -199 19 l-182 2 -8 38 c-4 21 -6 60 -5 86 l3 48 151 2 c117 2 155 5 169 17 17 14 17 31 11 245 -4 126 -11 307 -16 400 -36 673 -36 705 10 705 25 0 26 17 2 24 -29 9 -55 62 -42 85 15 28 12 87 -5 121 -10 20 -17 72 -20 162 -3 73 -7 178 -10 233 -2 55 -5 129 -5 165 1 36 -4 81 -10 100 -6 20 -7 68 -4 112 6 63 10 79 25 83 25 8 24 36 -1 42 -23 6 -33 45 -28 123 2 39 7 55 17 55 14 0 71 -98 71 -123 0 -21 28 -69 45 -75 45 -18 62 23 37 90 -19 51 -19 73 1 73 14 0 67 47 67 59 0 29 -94 48 -147 30 -31 -10 -37 -9 -58 11 -44 41 -48 77 -17 142 35 74 98 120 152 112 19 -3 40 -9 45 -14z m-2157 -685 c2 -2 -1 -19 -7 -37 -8 -25 -8 -49 -1 -89 6 -29 13 -92 15 -139 12 -264 19 -298 65 -311 14 -4 51 -7 83 -8 31 -1 66 -7 77 -13 16 -10 24 -10 40 0 38 24 69 17 385 -85 77 -25 144 -49 150 -54 5 -5 -68 -9 -179 -9 -174 0 -191 -2 -222 -21 -38 -23 -46 -59 -14 -59 11 0 23 7 26 15 9 23 54 19 54 -5 0 -10 5 -31 12 -45 9 -21 9 -31 0 -46 -18 -28 -15 -47 12 -74 24 -24 24 -28 14 -82 -6 -32 -10 -87 -9 -122 2 -58 1 -63 -13 -52 -27 22 -46 6 -46 -39 0 -54 30 -161 48 -167 26 -10 32 11 21 76 -5 36 -6 68 -1 73 5 5 25 2 46 -7 47 -20 64 -14 77 25 l11 30 20 -25 c13 -17 28 -25 42 -23 19 3 21 10 23 68 1 36 5 93 9 128 6 58 9 62 33 64 14 1 35 2 46 3 11 1 30 3 43 4 30 1 41 30 18 47 -17 12 -16 13 3 24 30 16 26 39 -9 51 -34 12 -41 34 -8 26 36 -10 60 10 56 46 -2 23 1 32 12 32 10 0 14 -8 13 -23 -2 -13 4 -36 12 -52 8 -16 12 -35 9 -43 -3 -8 0 -18 6 -22 14 -9 79 22 87 41 4 12 11 11 40 -6 35 -20 53 -19 53 3 0 19 13 34 37 41 18 6 23 1 31 -26 6 -18 13 -52 16 -75 l6 -41 -52 -9 c-48 -8 -52 -10 -65 -47 -7 -22 -20 -47 -28 -56 -19 -21 -19 -44 0 -60 8 -7 15 -29 15 -49 1 -20 7 -47 15 -61 8 -14 14 -40 15 -57 0 -24 7 -37 25 -49 32 -21 39 -14 37 35 -2 52 31 76 92 67 35 -6 46 -3 61 14 25 28 36 25 68 -14 24 -31 27 -43 27 -108 0 -52 -5 -80 -16 -97 -14 -20 -18 -21 -25 -8 -15 25 -67 32 -90 11 -15 -13 -22 -15 -31 -6 -16 16 -63 15 -77 -2 -9 -11 -18 -12 -42 -2 -27 10 -33 9 -50 -12 -15 -20 -18 -34 -12 -85 8 -86 17 -101 58 -94 31 5 33 4 41 -36 11 -52 42 -62 68 -23 21 33 40 33 54 1 15 -33 50 -32 78 3 21 26 23 26 30 7 4 -11 13 -27 19 -35 19 -23 28 -100 14 -116 -9 -11 -9 -21 -1 -38 6 -14 14 -51 18 -84 6 -58 6 -60 -22 -78 -16 -9 -45 -28 -65 -41 -22 -14 -73 -31 -137 -43 -56 -10 -111 -24 -122 -30 -16 -9 -31 -8 -63 4 -23 8 -82 22 -132 31 -49 9 -101 24 -115 34 -15 10 -51 31 -80 46 -67 33 -96 59 -120 106 -10 20 -35 48 -56 64 -70 53 -90 128 -148 560 -39 287 -101 555 -137 590 -18 18 -33 20 -159 20 l-138 -1 -6 41 c-4 22 -7 51 -7 65 -1 46 -20 265 -25 288 -6 30 -41 30 -46 0 -2 -13 -11 -24 -20 -26 -23 -4 -23 12 -1 34 25 25 28 122 5 147 -16 18 -16 20 3 33 50 34 55 52 34 112 -15 44 3 76 39 67 15 -4 29 -8 30 -10z m-178 -975 c11 -5 29 -14 40 -20 11 -5 35 -10 54 -10 32 0 34 -2 39 -37 2 -21 12 -63 21 -93 10 -31 18 -95 19 -147 2 -79 5 -95 24 -115 25 -26 30 -64 64 -438 30 -336 36 -393 44 -412 15 -37 55 -39 720 -45 358 -3 652 -7 654 -9 2 -2 6 -40 9 -84 l5 -80 -661 -2 c-770 -3 -699 8 -694 -116 4 -105 15 -138 54 -151 21 -8 240 -11 674 -11 l644 0 0 -55 0 -55 -655 -2 c-602 -3 -656 -4 -671 -20 -15 -15 -16 -22 -5 -56 7 -22 10 -49 6 -61 -6 -19 -13 -21 -85 -21 -43 0 -81 4 -85 10 -3 5 11 25 32 43 l37 35 -14 42 c-13 39 -12 44 10 86 23 42 24 45 7 61 -19 19 -98 25 -149 10 -23 -6 -27 -4 -30 15 -4 27 -44 35 -98 20 -23 -7 -51 -7 -80 -1 -112 23 -112 23 -109 4 3 -10 23 -24 48 -34 60 -22 70 -40 41 -78 -17 -24 -20 -35 -11 -51 19 -35 61 -36 74 0 4 10 13 15 25 11 11 -2 23 1 27 7 9 15 -13 30 -32 23 -7 -3 -13 0 -13 5 0 8 97 52 115 52 2 0 -5 -19 -15 -42 -36 -78 -22 -188 23 -188 8 0 8 -3 -1 -12 -9 -9 -16 -8 -30 5 -16 15 -26 15 -68 6 -142 -31 -204 -24 -379 43 -106 40 -150 46 -159 22 -7 -19 11 -41 60 -71 15 -9 -16 -11 -146 -10 -91 0 -171 -1 -179 -4 -8 -2 -16 4 -19 13 -2 12 8 22 32 32 20 8 36 22 36 30 0 22 -27 20 -57 -4 -14 -11 -32 -20 -40 -20 -8 0 -28 -9 -44 -20 -44 -32 -134 -30 -239 5 -47 15 -125 38 -174 51 -49 13 -91 26 -94 29 -2 2 -2 11 1 19 10 24 107 31 182 12 106 -27 150 -16 106 25 -22 21 -18 49 7 49 19 0 117 -30 275 -83 100 -34 121 -38 143 -28 61 27 8 60 -193 121 l-103 31 0 34 c0 41 2 41 45 15 18 -11 67 -29 109 -40 41 -10 84 -24 94 -29 32 -17 174 -52 189 -47 7 3 13 14 13 25 0 21 -80 58 -191 86 -77 20 -111 40 -107 63 3 13 15 17 58 17 54 0 55 1 74 38 16 34 21 38 45 31 14 -4 39 -8 56 -8 26 -1 30 3 30 26 1 15 4 30 7 34 4 3 44 -6 90 -20 238 -72 252 -74 246 -32 -2 16 -23 28 -103 57 -64 22 -101 41 -103 51 -3 13 6 16 45 15 42 -2 49 1 61 26 10 21 20 27 47 27 23 0 42 8 57 24 15 16 36 26 62 28 26 2 43 9 50 23 14 26 26 34 42 28 20 -7 54 16 54 37 0 10 4 21 8 24 15 9 52 -24 52 -45 0 -31 19 -59 39 -59 24 0 49 29 52 60 5 38 -11 140 -28 185 -9 24 -18 103 -24 205 -5 91 -13 199 -18 240 -6 41 -10 94 -10 118 -1 38 1 42 24 42 36 0 49 32 42 107 -7 72 -49 152 -80 153 -26 0 -57 74 -57 137 0 28 -4 55 -10 58 -10 6 -14 45 -5 45 3 0 14 -4 25 -10z m-1523 -1850 c7 -14 14 -37 17 -51 5 -21 20 -32 88 -61 46 -20 138 -55 206 -78 110 -37 129 -41 181 -35 74 8 198 9 231 1 14 -3 224 -7 467 -8 243 -2 445 -6 449 -10 4 -4 -3 -15 -15 -25 -19 -16 -22 -30 -25 -105 -2 -62 1 -91 9 -98 9 -8 101 -28 131 -30 1 0 4 -16 7 -36 8 -51 23 -64 72 -64 56 0 70 18 69 87 -2 60 -13 79 -53 88 -27 6 -29 10 -34 73 -4 53 -10 70 -27 84 -13 10 -20 21 -16 25 8 8 668 6 1106 -4 190 -4 322 -10 294 -13 -59 -6 -86 -24 -82 -54 4 -29 44 -46 111 -46 56 0 57 0 57 -29 0 -23 -6 -31 -30 -39 -49 -17 -54 -109 -8 -152 l22 -20 -45 0 c-36 0 -46 4 -54 23 -9 20 -16 22 -91 20 l-82 -1 -4 54 c-3 33 -11 62 -21 71 -19 19 -80 21 -101 4 -19 -16 -28 -73 -20 -117 8 -43 32 -55 88 -42 37 8 42 7 59 -16 10 -15 25 -26 33 -26 15 0 41 -46 32 -55 -3 -3 -79 -7 -169 -10 -91 -2 -172 -7 -182 -11 -30 -11 -18 -33 26 -44 23 -6 62 -17 87 -25 l45 -13 -75 0 c-41 0 -120 -2 -175 -4 -55 -3 -122 -1 -150 3 -33 6 -71 4 -110 -4 -44 -9 -93 -10 -185 -4 -70 5 -143 5 -169 0 -25 -5 -98 -6 -161 -2 -67 4 -136 2 -165 -4 -27 -5 -86 -8 -130 -6 -44 2 -114 3 -155 2 -312 -5 -397 -9 -415 -20 -15 -8 -52 -9 -125 -4 -97 6 -142 4 -227 -15 -29 -6 -33 -4 -39 19 -8 35 -29 40 -130 32 -77 -7 -85 -9 -90 -31 -9 -35 -55 -46 -199 -50 -81 -1 -147 -8 -175 -17 -27 -9 -86 -16 -146 -16 -109 -1 -199 -14 -220 -32 -8 -6 -26 -9 -41 -6 -49 10 -243 -12 -288 -32 -23 -10 -54 -17 -67 -14 -23 4 -141 -7 -243 -24 -39 -6 -39 -5 -23 13 9 10 21 31 27 46 8 21 19 28 48 33 58 9 83 25 202 121 27 23 47 29 104 33 53 5 73 10 81 24 9 16 7 22 -12 34 l-22 16 40 37 c33 30 40 44 40 73 0 42 2 43 117 51 l71 5 -1 -65 c-2 -55 1 -68 18 -80 23 -17 81 -11 103 10 13 12 17 78 10 140 -3 29 -3 29 57 32 33 2 65 3 70 4 6 0 30 -3 54 -7 l45 -8 -3 -63 c-3 -75 8 -92 58 -92 58 0 72 17 78 92 l6 66 91 4 c50 2 97 0 104 -5 7 -5 12 -31 12 -61 0 -29 5 -57 12 -64 16 -16 100 -16 116 0 7 7 12 38 12 70 0 32 1 58 3 59 1 0 41 3 89 6 110 6 128 -2 128 -61 0 -52 17 -70 66 -70 45 0 65 22 71 78 4 33 10 46 22 47 9 0 41 3 71 6 30 2 70 2 88 -2 28 -5 32 -10 32 -36 0 -39 39 -79 79 -79 40 0 57 20 65 74 8 49 17 56 81 56 52 0 75 8 75 25 0 15 -22 25 -58 25 -30 0 -110 23 -143 41 -52 27 -405 139 -441 139 -42 0 -59 -20 -38 -45 7 -8 64 -31 127 -51 62 -19 131 -43 151 -52 l37 -17 -110 -6 c-110 -5 -132 -1 -170 30 -25 22 -183 74 -290 97 -119 25 -287 78 -344 110 -39 21 -50 32 -46 45 6 19 -26 124 -44 142 -16 16 -13 29 6 25 10 -2 23 -14 30 -28z"/>
 </g>
<g id="layer103" fill="#9eb1c3" stroke="none">
 <path d="M2735 9475 c6 -2 46 -7 90 -11 44 -4 72 -9 63 -11 -29 -7 -20 -23 13 -23 17 0 28 4 24 10 -10 16 31 12 45 -4 9 -12 7 -18 -9 -33 -12 -9 -21 -23 -21 -30 0 -7 -25 -25 -57 -38 -49 -22 -58 -24 -72 -11 -12 11 -21 12 -35 4 -11 -6 -42 -11 -70 -12 -45 -1 -52 -4 -64 -28 -13 -28 -28 -33 -70 -22 -14 4 -21 12 -18 20 3 8 -1 14 -10 14 -10 0 -14 -6 -11 -14 11 -28 -111 -36 -170 -11 -64 27 -129 16 -121 -21 7 -38 48 -48 308 -74 58 -6 128 -18 156 -26 28 -7 60 -14 72 -14 12 0 54 -11 94 -25 69 -23 89 -24 343 -29 211 -4 280 -8 314 -20 24 -9 69 -19 100 -22 80 -8 194 -35 209 -49 11 -9 10 -16 -5 -33 -17 -21 -28 -22 -323 -28 -265 -6 -313 -4 -370 10 -170 43 -372 58 -400 30 -11 -11 -21 -234 -13 -276 4 -19 16 -37 34 -47 30 -17 30 -17 44 -154 l6 -57 -88 6 c-99 7 -262 35 -341 58 -37 11 -60 12 -78 6 -35 -14 -104 -12 -133 3 -15 7 -28 26 -34 47 -11 48 -35 65 -58 44 -10 -9 -23 -32 -29 -50 -12 -36 -36 -48 -86 -42 l-29 3 0 75 c0 117 -35 158 -148 175 -39 5 -53 3 -68 -11 -34 -30 -48 -76 -51 -159 l-3 -80 -145 0 -145 0 -6 60 c-3 40 0 76 10 108 13 40 13 53 2 80 -18 45 -38 124 -44 173 l-5 42 49 -2 c64 -1 84 18 83 80 -1 36 -7 52 -31 77 -17 18 -33 48 -37 67 -11 65 -30 81 -94 80 -32 -1 -90 4 -130 10 -55 10 -80 10 -98 1 -14 -6 -45 -11 -69 -11 -31 0 -47 -5 -53 -17 -13 -22 5 -61 30 -69 15 -4 17 -12 12 -40 -5 -25 -2 -40 10 -53 35 -39 -25 -36 -122 5 -18 8 -44 14 -57 14 -13 0 -48 6 -77 13 -76 19 -206 8 -243 -21 -34 -27 -105 -29 -179 -7 -27 8 -63 15 -79 15 -17 0 -38 7 -48 16 -13 12 -28 15 -53 10 -28 -5 -40 -16 -60 -53 -14 -25 -26 -57 -26 -72 l-1 -26 -29 35 -29 35 -1 -315 c0 -366 -11 -333 121 -354 112 -18 139 -1 115 71 -7 21 -5 21 24 10 23 -9 33 -21 42 -52 15 -54 27 -67 55 -62 33 6 41 -16 35 -90 -4 -54 -7 -63 -24 -63 -25 0 -34 -28 -15 -48 13 -12 21 -13 41 -4 26 12 90 0 101 -18 4 -6 17 -10 31 -10 34 0 81 -26 88 -47 3 -10 27 -29 53 -43 52 -28 118 -30 263 -9 96 14 113 28 105 89 l-6 45 255 1 255 1 10 -29 c6 -15 7 -51 4 -78 -6 -49 -5 -51 36 -90 22 -21 41 -42 41 -45 0 -3 -60 -6 -132 -6 -73 -1 -146 -4 -163 -8 -37 -8 -44 -36 -16 -62 27 -25 27 -70 1 -94 -11 -10 -23 -15 -27 -12 -3 4 -5 35 -4 69 1 72 -3 83 -42 97 -31 12 -297 13 -437 3 -74 -6 -85 -10 -89 -27 -2 -11 -16 -35 -32 -53 -23 -25 -29 -42 -29 -77 0 -24 5 -55 11 -69 9 -19 9 -29 0 -40 -10 -12 -10 -20 0 -38 7 -13 12 -36 10 -51 -3 -35 14 -57 46 -57 22 0 23 3 17 38 -4 20 -11 45 -15 54 -15 29 -11 31 65 23 65 -6 77 -4 93 12 19 19 19 19 36 -3 9 -12 30 -25 46 -29 17 -4 33 -15 36 -26 11 -33 40 -41 68 -19 27 21 82 26 107 10 13 -9 13 -12 -2 -21 -25 -14 -22 -28 7 -39 14 -5 25 -14 25 -20 0 -5 9 -10 20 -10 21 0 27 19 10 36 -7 7 -5 16 7 27 21 19 153 24 218 8 22 -5 79 -14 127 -21 75 -10 88 -15 94 -33 3 -12 15 -32 26 -44 13 -14 18 -28 13 -43 -4 -11 -1 -27 5 -35 14 -17 -2 -51 -29 -60 -28 -8 -34 -35 -14 -57 16 -18 16 -20 -10 -41 -28 -23 -54 -94 -64 -173 l-5 -41 67 -43 c64 -42 68 -43 81 -25 8 10 14 25 14 32 0 11 4 11 23 -1 24 -16 96 -24 114 -13 7 5 16 -7 23 -30 7 -21 21 -52 31 -69 11 -17 19 -43 19 -57 0 -14 5 -38 11 -54 7 -15 13 -45 14 -66 4 -46 30 -80 58 -71 11 4 27 -2 40 -14 12 -11 34 -22 50 -26 22 -5 26 -11 22 -29 -13 -49 60 -77 200 -77 50 0 100 -3 113 -6 23 -7 23 -7 -9 -40 -29 -30 -31 -36 -23 -66 8 -26 15 -33 36 -33 29 -1 61 -23 52 -36 -3 -5 -23 -9 -44 -9 -21 0 -51 -5 -67 -11 -23 -8 -29 -7 -40 8 -31 46 -27 45 -218 41 -179 -3 -184 -4 -210 -28 -34 -32 -30 -62 13 -74 41 -11 40 -25 -3 -54 -44 -28 -49 -68 -9 -78 14 -4 36 -1 49 6 16 8 50 10 111 6 96 -6 101 -6 186 -6 32 1 66 -4 76 -9 17 -9 18 -15 9 -51 -8 -27 -8 -45 -2 -54 73 -98 86 -154 48 -200 -29 -35 -26 -76 9 -113 20 -21 30 -23 123 -23 108 0 124 6 139 56 21 69 -48 171 -106 160 -25 -5 -28 -3 -28 24 0 29 -30 57 -50 45 -5 -3 -11 -1 -14 4 -3 5 1 12 10 15 13 5 14 9 4 21 -7 8 -10 22 -6 31 7 19 39 11 67 -17 24 -24 40 -17 63 26 32 58 21 65 -101 65 -96 0 -106 2 -92 15 17 17 89 26 193 25 38 -1 80 4 95 10 27 11 48 53 58 118 8 50 -9 62 -86 62 l-66 1 34 14 c18 8 42 15 52 15 32 0 32 25 -2 74 -41 62 -64 72 -113 52 -36 -15 -86 -13 -86 4 0 4 9 15 20 25 28 25 24 76 -7 90 -28 12 -29 35 -3 65 28 32 26 85 -4 129 -19 28 -27 57 -34 126 -5 50 -5 100 -1 112 17 45 -7 63 -86 63 -22 0 -56 5 -76 10 -30 8 -38 16 -43 41 -3 17 -3 35 0 40 3 6 0 16 -6 24 -20 24 -89 18 -147 -12 -47 -25 -54 -26 -78 -13 -38 20 -51 48 -32 67 18 18 118 20 192 3 51 -11 120 -5 143 12 15 13 16 64 1 74 -6 3 -8 17 -5 29 9 34 -9 71 -41 87 -21 10 -31 24 -39 58 -11 48 -32 61 -54 35 -20 -24 -49 -19 -55 10 -3 14 -7 35 -10 48 -6 30 45 58 100 55 30 -2 40 1 43 14 4 21 -66 68 -101 68 -31 0 -67 -39 -67 -73 0 -38 -28 -67 -66 -67 -27 0 -34 5 -43 30 -6 19 -17 30 -28 30 -12 0 -25 14 -36 37 -9 20 -15 37 -14 37 26 7 44 32 57 80 20 72 34 81 109 68 31 -6 106 -9 168 -7 l111 2 4 -107 c2 -91 6 -111 23 -130 l20 -22 1041 5 c766 4 1047 8 1063 17 33 17 38 44 32 182 -5 104 -9 131 -24 145 -16 17 -46 18 -375 18 -196 0 -613 -3 -927 -6 -315 -3 -578 -2 -587 3 -21 10 -23 31 -4 47 8 7 16 43 20 91 7 76 9 80 34 87 42 12 473 7 622 -7 159 -14 823 -16 1043 -2 112 7 152 13 164 25 13 13 15 41 14 169 -1 84 -4 173 -7 197 -5 34 -4 43 7 39 8 -2 16 -18 17 -34 5 -40 21 -56 49 -49 17 4 23 1 24 -12 0 -10 1 -77 2 -149 1 -94 6 -136 16 -147 12 -15 33 -17 152 -14 159 3 168 7 176 79 l5 45 42 -1 c35 -1 41 2 44 22 5 30 -24 40 -59 19 -16 -9 -30 -13 -33 -9 -2 4 -7 39 -10 77 -4 39 -12 85 -18 103 -7 24 -7 37 1 45 18 18 13 61 -14 111 -14 26 -25 51 -25 55 0 5 14 23 30 41 28 30 32 32 60 20 22 -9 37 -9 61 -1 l32 11 -6 -48 c-4 -26 -13 -85 -22 -131 -18 -100 -8 -137 37 -134 l25 1 5 -129 c7 -184 7 -184 235 -170 89 5 148 13 158 21 10 9 15 31 15 72 l0 59 39 -21 38 -22 7 -119 c9 -165 12 -177 57 -208 21 -14 40 -31 43 -37 2 -6 2 -58 -1 -117 l-6 -107 -51 5 c-28 3 -81 7 -118 11 l-66 5 -4 94 c-4 130 -4 130 -167 130 -173 0 -165 10 -159 -178 4 -122 8 -151 22 -165 15 -15 49 -17 354 -15 432 3 549 10 561 31 8 14 19 15 98 5 63 -9 480 -12 1493 -11 773 0 1645 0 1938 -1 376 -2 537 1 547 9 10 8 15 4 23 -20 6 -17 22 -34 36 -40 22 -8 201 -11 827 -14 102 -1 120 1 138 18 12 11 21 29 19 40 -6 44 -36 48 -461 53 -221 2 -420 7 -442 10 -23 3 -58 0 -78 -5 l-37 -10 0 72 c0 40 -5 77 -11 83 -13 13 26 44 47 36 22 -8 64 6 64 22 0 15 -35 29 -61 24 -25 -4 -88 13 -100 27 -18 22 -29 16 -29 -16 0 -40 -23 -39 -35 2 -16 53 -38 58 -251 58 l-192 0 14 38 c7 20 13 47 14 58 0 17 8 23 35 28 41 8 55 33 55 98 0 39 1 40 28 34 65 -14 261 -19 290 -7 24 10 34 10 50 0 16 -10 26 -10 47 -1 20 9 31 10 41 2 49 -41 108 53 153 245 50 210 53 236 34 257 -9 10 -23 18 -32 19 -9 0 0 5 19 11 49 14 60 26 60 63 0 33 -20 48 -75 57 -29 5 -25 24 12 51 l32 24 283 -4 c156 -2 360 -8 453 -14 210 -13 205 -13 222 3 10 11 33 12 106 6 50 -5 106 -13 122 -19 17 -5 67 -13 113 -16 l82 -6 -16 -24 c-9 -15 -13 -34 -10 -49 4 -13 2 -24 -4 -24 -13 0 -43 -62 -64 -135 -10 -33 -38 -121 -61 -196 -61 -191 -63 -204 -34 -236 39 -42 79 -53 191 -53 57 -1 163 -5 236 -9 73 -5 145 -6 160 -2 32 9 51 53 51 120 l1 44 23 -21 c22 -21 34 -22 246 -34 l33 -1 -7 -126 c-6 -119 -5 -128 15 -153 l21 -27 -503 -5 c-277 -3 -545 -5 -596 -5 -97 1 -122 -8 -122 -42 0 -14 -7 -19 -29 -19 -39 0 -61 -9 -61 -25 0 -16 22 -25 59 -25 33 0 51 -17 51 -48 0 -20 4 -23 28 -20 20 2 32 13 45 41 22 44 71 76 81 52 6 -17 -10 -116 -22 -126 -4 -4 -60 -9 -125 -11 -111 -3 -120 -5 -138 -27 -23 -28 -24 -41 -5 -66 13 -17 34 -21 178 -28 89 -5 435 -11 767 -13 l604 -4 -7 -103 c-9 -123 -14 -147 -32 -147 -18 0 -18 -19 0 -26 19 -7 29 -95 15 -130 -7 -16 -13 -69 -14 -119 -1 -49 -12 -166 -24 -260 -23 -174 -22 -216 4 -246 13 -13 14 -21 4 -42 -29 -64 11 -79 219 -79 221 1 266 7 304 44 19 18 27 35 24 45 -4 9 0 34 9 57 18 50 43 244 49 386 3 58 7 135 11 172 6 66 8 68 31 62 21 -5 26 -1 40 31 8 21 13 44 10 52 -5 13 -9 13 -31 -1 -13 -9 -26 -12 -29 -8 -3 5 -1 37 4 73 12 87 14 166 5 213 -8 38 -7 39 16 33 13 -4 67 -7 119 -8 89 -1 93 -2 65 -14 -16 -8 -43 -14 -58 -15 -39 0 -97 -26 -97 -44 0 -23 62 -39 94 -25 29 14 50 3 23 -12 -26 -15 -21 -48 9 -59 54 -21 74 -1 34 35 -27 25 -26 29 18 49 24 12 79 22 157 28 66 5 134 13 151 17 23 6 38 4 58 -8 27 -15 29 -15 43 7 20 28 59 32 44 3 -8 -14 -5 -27 12 -52 32 -47 53 -48 74 -5 13 28 14 40 5 60 -6 14 -8 27 -3 30 19 12 145 26 238 26 56 0 113 4 128 10 14 5 83 17 153 26 140 17 158 26 167 83 3 20 11 64 16 97 12 70 3 99 -36 114 -12 5 -273 10 -579 11 -306 2 -556 7 -556 11 0 5 9 22 21 37 20 27 20 30 5 59 -9 17 -16 40 -16 50 0 18 4 19 38 11 20 -5 186 -13 367 -17 l330 -7 6 -43 c6 -47 18 -59 64 -66 59 -9 230 -26 253 -26 32 0 72 43 72 77 0 15 4 34 9 42 10 16 67 29 176 41 44 4 104 14 133 21 29 6 55 9 59 6 14 -15 -28 -56 -59 -59 -41 -4 -50 -34 -18 -58 l22 -17 -26 -40 c-30 -45 -76 -82 -115 -92 -35 -10 -43 -51 -9 -51 81 0 180 81 217 178 12 29 29 65 40 80 10 15 26 39 35 55 11 18 25 27 42 27 24 0 25 -3 19 -27 -10 -44 -60 -125 -99 -162 -20 -19 -36 -40 -36 -47 0 -16 34 -27 60 -19 32 10 99 94 136 171 19 40 42 75 52 79 9 3 54 10 99 15 45 5 96 16 114 26 28 14 38 15 66 5 19 -7 53 -11 78 -10 24 2 47 1 50 -2 5 -6 -21 -143 -34 -174 -17 -40 -31 -92 -31 -113 0 -13 -15 -31 -42 -49 -38 -26 -43 -33 -43 -69 0 -55 -12 -70 -36 -48 -16 14 -24 15 -44 6 -20 -9 -25 -19 -25 -47 0 -29 -8 -43 -40 -74 -23 -22 -43 -51 -46 -70 -6 -29 -9 -31 -34 -26 -33 7 -60 -15 -60 -50 0 -25 -107 -145 -129 -145 -6 0 -22 -17 -35 -37 -13 -21 -47 -63 -75 -93 -28 -30 -54 -66 -57 -80 -15 -65 -65 -196 -79 -206 -8 -6 -15 -19 -15 -28 0 -9 -24 -39 -54 -67 -45 -41 -56 -60 -71 -111 -11 -42 -28 -73 -50 -95 -44 -44 -68 -82 -61 -99 3 -7 1 -51 -5 -96 -19 -142 17 -207 60 -109 11 27 21 61 21 75 0 14 5 28 10 31 5 3 10 21 10 39 0 33 33 76 59 76 9 0 11 6 5 18 -4 9 -7 39 -6 65 3 57 31 100 112 172 73 64 76 69 120 194 20 59 56 136 79 171 22 35 41 67 41 72 0 9 85 68 100 68 7 0 8 -6 1 -18 -15 -27 -33 -141 -26 -162 15 -48 67 -8 78 60 3 19 19 73 37 120 17 47 35 104 39 127 8 43 37 87 51 78 18 -11 31 -143 23 -233 -5 -60 -7 -63 -39 -77 -25 -10 -35 -22 -43 -52 -6 -21 -11 -47 -11 -59 0 -36 -51 -123 -91 -155 -36 -28 -39 -29 -39 -10 0 11 -10 25 -21 32 -29 15 -49 -7 -84 -96 -19 -49 -24 -74 -18 -85 20 -30 44 -16 71 40 27 54 44 68 50 39 4 -21 -12 -56 -48 -104 -34 -47 -38 -75 -11 -75 11 0 23 5 26 10 11 19 25 -1 25 -35 0 -19 4 -36 9 -39 5 -3 12 -17 15 -31 4 -14 20 -48 37 -74 28 -47 29 -51 18 -98 -7 -26 -21 -61 -31 -78 -28 -47 -24 -90 12 -115 18 -13 38 -19 49 -15 15 4 22 -5 40 -55 12 -33 32 -72 45 -87 38 -46 76 -111 76 -132 0 -10 -7 -24 -15 -31 -8 -7 -15 -23 -15 -35 0 -14 -7 -25 -20 -28 -29 -8 -26 -37 5 -37 19 0 25 5 25 23 0 12 9 28 20 35 24 15 27 10 34 -55 2 -23 8 -48 12 -55 4 -7 9 -44 10 -83 1 -38 3 -81 5 -94 3 -21 -1 -26 -27 -31 -49 -11 -56 -18 -48 -53 3 -18 10 -37 16 -44 8 -10 5 -40 -8 -82 -7 -21 -45 33 -42 59 3 24 -1 27 -74 60 -40 18 -51 19 -70 9 -32 -18 -157 -19 -190 -3 -42 21 -65 18 -70 -11 -5 -23 -2 -25 30 -25 34 0 35 -1 18 -19 -23 -25 -17 -65 9 -69 11 -2 30 -8 42 -14 28 -14 53 -4 53 22 0 27 66 55 95 41 11 -6 38 -12 60 -13 40 -3 42 -6 31 -43 -8 -29 49 -73 103 -78 28 -2 46 -10 57 -25 16 -23 58 -30 69 -12 11 17 31 11 70 -20 21 -16 42 -30 46 -30 5 0 9 16 9 35 0 26 -7 43 -26 60 -15 14 -31 25 -35 25 -5 0 -9 13 -9 29 0 17 -5 33 -10 36 -6 4 -4 12 5 21 20 20 19 30 -6 53 -13 12 -19 26 -15 36 4 11 -4 29 -19 47 -23 27 -24 33 -12 52 8 11 28 25 45 31 26 7 32 15 32 36 0 32 -22 53 -48 45 -17 -6 -20 0 -25 56 -3 35 -2 67 3 71 4 5 20 1 34 -8 17 -11 36 -15 55 -12 16 4 36 0 47 -8 11 -7 31 -15 44 -16 22 -4 26 1 34 39 6 27 6 46 0 50 -5 4 -10 35 -11 70 -1 34 -3 72 -4 85 -1 12 2 39 6 60 5 25 4 37 -4 37 -6 0 -11 -6 -11 -12 0 -21 -47 -37 -90 -31 -35 5 -41 3 -51 -21 -11 -22 -9 -30 16 -66 24 -34 27 -45 19 -73 -9 -28 -14 -32 -50 -35 -37 -3 -41 0 -62 36 -12 22 -22 50 -22 62 0 12 -9 33 -20 47 -11 14 -20 32 -20 39 0 7 -6 19 -13 26 -7 7 -25 35 -40 62 -24 44 -26 53 -16 85 21 67 29 81 42 81 22 0 47 34 47 63 0 20 6 28 24 33 14 3 30 3 36 -1 18 -11 40 15 40 46 0 23 -6 32 -27 40 -36 14 -55 5 -48 -23 5 -19 -1 -26 -32 -40 -21 -9 -56 -19 -78 -22 l-41 -6 -12 45 c-7 25 -12 54 -12 64 0 10 -9 40 -21 66 -23 51 -21 68 13 153 17 39 27 52 42 52 25 -1 76 -43 76 -63 0 -27 28 -41 56 -28 31 14 29 45 -4 49 -13 2 -26 11 -29 20 -3 9 -15 27 -26 39 -10 12 -16 27 -12 33 4 6 1 18 -7 27 -7 9 -13 30 -14 47 -1 17 -5 54 -9 83 -7 50 -6 54 31 104 33 45 40 64 50 138 16 117 38 191 62 210 11 9 22 27 24 41 2 15 13 30 31 38 15 7 27 16 28 20 1 4 3 24 4 45 3 22 15 51 30 69 29 35 43 65 55 118 5 19 16 55 25 80 12 31 15 63 12 102 -4 42 -1 60 9 69 12 10 14 126 14 730 l0 719 -5040 0 c-3289 0 -5039 -4 -5035 -10 3 -6 26 -10 50 -10 29 0 45 -5 49 -15 7 -19 -24 -20 -91 -4 -82 20 -79 19 -63 29 9 6 -586 9 -1565 9 -869 0 -1575 -2 -1570 -4z"/>
 <path d="M9983 7283 c-23 -2 -47 -11 -54 -20 -31 -37 -29 -494 1 -555 7 -12 3 -18 -18 -23 -15 -4 -33 -11 -39 -17 -20 -17 -15 -48 10 -57 29 -11 53 -104 37 -145 -12 -33 -13 -116 -1 -135 6 -8 3 -27 -6 -50 -17 -41 -13 -116 8 -136 16 -15 312 -35 489 -32 58 0 328 1 600 1 272 0 522 1 555 2 33 0 108 2 166 3 132 1 141 7 147 90 4 49 1 66 -13 81 -17 19 -17 21 -1 39 29 32 39 95 21 138 -9 22 -12 39 -6 42 31 20 42 139 15 162 -9 7 -43 15 -77 17 -57 4 -62 3 -82 -22 -18 -22 -30 -27 -71 -29 -102 -3 -368 13 -378 23 -13 13 -69 13 -83 -1 -8 -8 -21 -8 -46 2 -29 10 -43 10 -76 -1 -24 -8 -50 -10 -68 -5 -34 10 -123 15 -353 22 -96 2 -179 9 -185 14 -7 7 74 9 240 8 195 -3 255 0 274 10 l25 14 -27 21 c-33 27 -39 77 -8 69 25 -6 50 34 26 43 -21 9 -19 41 4 54 11 5 69 10 130 10 127 0 127 0 86 -78 -14 -26 -25 -52 -25 -58 0 -6 -7 -17 -15 -24 -8 -7 -15 -22 -15 -34 1 -18 5 -16 31 17 17 20 35 37 39 37 15 0 22 -40 10 -55 -7 -9 -8 -15 0 -20 5 -3 13 0 16 9 9 24 112 29 299 14 241 -18 370 -17 390 3 17 16 23 68 45 346 11 147 5 178 -35 193 -16 6 -169 10 -369 10 -268 0 -346 -3 -360 -13 -30 -22 -44 -219 -20 -280 3 -9 -23 -12 -97 -11 -103 1 -145 15 -99 32 l24 9 -26 6 c-15 4 -80 6 -146 6 -66 -1 -124 1 -130 5 -17 10 -52 -12 -46 -28 8 -21 -73 -28 -261 -22 -88 2 -164 5 -170 6 -16 1 38 29 60 31 12 1 4 6 -20 13 -50 16 -78 10 -72 -15 4 -15 -3 -19 -37 -24 -24 -4 -54 -5 -67 -3 -23 3 -24 6 -19 63 10 116 6 193 -10 209 -18 18 -59 25 -117 19z"/>
 <path d="M9912 5930 c-12 -5 -26 -20 -31 -32 -10 -27 -32 -751 -30 -978 1 -85 -4 -220 -11 -300 -14 -162 -8 -194 37 -211 17 -6 190 -10 477 -9 248 1 485 -1 526 -5 99 -8 445 20 537 44 56 14 186 24 220 17 19 -4 35 -17 42 -32 10 -22 17 -25 53 -22 55 4 69 26 44 72 -15 29 -16 39 -6 70 6 20 16 38 21 41 5 4 9 23 9 43 0 20 4 51 9 68 5 17 14 105 20 195 19 263 30 398 40 499 11 98 24 336 25 450 1 85 -11 92 -150 88 -124 -4 -133 -10 -163 -111 -42 -145 -61 -257 -126 -769 -23 -178 -39 -222 -114 -304 -25 -28 -60 -69 -78 -91 -51 -64 -199 -139 -310 -156 -48 -8 -105 -22 -126 -30 -35 -15 -40 -15 -80 3 -23 11 -58 20 -77 20 -60 0 -137 27 -202 69 -98 63 -117 80 -139 125 -12 22 -36 57 -55 76 -63 67 -66 82 -75 435 -4 176 -11 364 -14 417 -8 129 -38 285 -59 306 -19 20 -175 28 -214 12z"/>
 <path d="M14652 5408 c-7 -7 -12 -22 -12 -34 0 -12 -11 -29 -25 -38 -14 -9 -25 -23 -25 -31 0 -25 -32 -34 -87 -23 -70 14 -100 5 -120 -36 -11 -24 -25 -36 -46 -40 -57 -12 -87 -6 -113 19 -34 34 -60 32 -73 -7 -6 -17 -23 -47 -37 -65 -23 -31 -28 -33 -43 -19 -9 8 -32 18 -51 23 -23 6 -39 18 -48 36 -17 35 -38 34 -56 -1 -8 -15 -23 -36 -35 -46 -25 -23 -27 -43 -5 -67 16 -17 15 -19 -10 -29 -18 -6 -34 -7 -45 0 -13 6 -25 4 -40 -7 -20 -13 -28 -14 -62 -3 -36 12 -41 12 -64 -10 -13 -12 -35 -28 -47 -34 -18 -9 -24 -21 -26 -54 -4 -47 -15 -56 -80 -65 -24 -3 -52 -13 -63 -23 -14 -13 -33 -17 -63 -15 -39 2 -44 0 -50 -23 -4 -16 -17 -28 -40 -36 -19 -6 -42 -23 -51 -37 -12 -18 -20 -22 -28 -14 -15 15 -62 14 -75 -2 -7 -7 -16 -37 -23 -66 -13 -61 -27 -70 -66 -43 -15 11 -41 23 -58 26 l-30 6 -1 -71 c-2 -86 -18 -110 -59 -91 -14 7 -38 9 -52 6 -20 -5 -30 -1 -47 21 -24 30 -46 33 -123 20 -66 -12 -72 -2 -66 114 l6 99 -54 25 c-56 28 -79 23 -79 -14 0 -21 -20 -25 -37 -8 -21 21 -45 2 -41 -33 2 -25 10 -36 33 -47 35 -17 64 -50 65 -73 0 -27 -72 -60 -105 -48 -29 11 -44 38 -26 50 7 4 11 18 9 31 -5 37 -40 35 -93 -6 -34 -26 -53 -34 -69 -29 -28 9 -75 55 -76 75 0 18 30 35 75 43 17 3 43 8 59 12 19 5 31 2 37 -7 4 -7 12 -10 16 -5 4 5 2 11 -4 13 -22 8 -14 31 22 72 25 28 46 40 75 45 31 5 41 11 46 30 8 34 -21 86 -48 86 -36 0 -108 40 -108 60 0 38 -24 43 -94 19 l-65 -22 -19 23 c-19 23 -20 23 -46 7 -40 -26 -37 -83 7 -125 38 -36 51 -38 107 -16 39 16 42 16 55 -2 32 -42 6 -77 -48 -67 -21 4 -32 0 -43 -16 -8 -11 -24 -21 -36 -21 -11 0 -38 -17 -59 -39 -34 -33 -39 -45 -39 -84 0 -64 24 -117 53 -117 13 0 34 -11 47 -25 13 -14 33 -25 45 -25 12 0 30 -9 40 -20 10 -11 31 -20 46 -20 19 0 34 -8 45 -25 10 -15 26 -25 40 -25 14 0 30 -10 40 -25 12 -18 25 -25 48 -25 26 0 34 -5 43 -31 12 -30 15 -31 51 -25 36 5 39 4 53 -27 12 -28 18 -32 50 -29 31 2 37 -1 50 -30 13 -31 17 -33 56 -30 38 2 44 -1 58 -29 13 -25 22 -30 48 -29 18 1 50 2 71 1 36 -1 38 -2 22 -14 -10 -7 -17 -22 -14 -33 4 -23 43 -31 64 -13 19 15 29 3 44 -52 20 -73 66 -76 133 -9 54 55 48 72 -32 98 -24 8 -38 8 -47 1 -16 -13 -86 -8 -91 7 -3 8 29 13 104 16 102 3 111 5 153 35 25 17 54 40 64 52 11 12 31 21 48 21 22 0 33 7 46 31 16 29 19 30 72 25 30 -3 66 -6 80 -5 14 0 75 1 135 3 61 1 118 5 127 10 10 4 30 4 45 -1 17 -6 40 -6 59 0 25 7 37 6 54 -6 21 -15 26 -15 53 0 27 14 33 14 56 0 23 -13 30 -13 51 -1 28 15 88 18 109 5 18 -12 5 -48 -20 -56 -10 -4 -24 -15 -29 -26 -12 -22 -9 -23 54 -34 22 -4 47 -16 57 -28 l17 -22 476 -1 c262 -1 480 -4 483 -8 21 -21 -51 -25 -527 -29 -162 -2 -301 -6 -307 -10 -7 -5 -21 -4 -30 1 -29 14 -118 8 -147 -11 -18 -12 -28 -30 -32 -58 -4 -23 -14 -44 -25 -49 -10 -6 -57 -10 -106 -10 -110 0 -137 -12 -141 -62 -4 -45 22 -66 95 -77 l48 -8 -65 -6 c-36 -4 -105 -10 -155 -14 -89 -8 -90 -8 -93 -35 -2 -16 -7 -28 -12 -28 -13 0 -30 -68 -30 -118 0 -35 6 -49 29 -73 18 -17 40 -29 55 -29 15 0 43 -5 64 -12 36 -11 38 -14 37 -52 -1 -23 -5 -49 -9 -59 -16 -34 13 -49 73 -37 82 15 88 14 101 -24 6 -19 18 -40 26 -47 11 -9 236 -36 327 -39 15 0 17 -10 17 -73 0 -43 -5 -78 -12 -85 -7 -7 -33 -12 -59 -12 -56 0 -79 -7 -79 -25 0 -15 22 -25 54 -25 13 0 44 -23 81 -60 38 -38 68 -60 82 -60 26 0 63 -32 63 -55 0 -8 18 -26 39 -40 22 -13 54 -43 72 -65 26 -32 45 -44 88 -56 59 -16 91 -43 91 -75 0 -25 -17 -24 -65 6 -23 14 -55 25 -75 25 -20 0 -45 7 -58 15 -18 14 -20 19 -9 36 20 33 -10 45 -123 52 -111 7 -126 4 -135 -24 -10 -29 -39 -19 -43 14 -6 48 -39 60 -191 69 -96 6 -146 13 -171 26 -22 11 -64 18 -115 20 -44 2 -101 6 -127 9 -34 3 -53 0 -70 -11 -29 -20 -35 -20 -40 2 -9 32 -117 54 -158 32 -13 -7 -26 -5 -47 5 -36 19 -48 19 -68 -1 -15 -15 -15 -18 1 -35 9 -11 24 -19 33 -19 9 0 22 -4 30 -9 12 -8 12 -12 2 -25 -30 -36 -85 -3 -105 62 -16 48 -47 57 -215 59 -86 1 -172 6 -191 12 -47 15 -102 14 -124 -2 -15 -11 -24 -11 -55 5 -31 15 -43 16 -69 7 -18 -6 -43 -8 -56 -5 -15 4 -34 -2 -56 -19 -42 -31 -95 -33 -110 -6 -13 26 -63 41 -130 40 -30 -1 -79 4 -108 10 -37 9 -63 9 -85 2 -35 -11 -151 -7 -213 7 -48 11 -64 6 -64 -19 0 -25 -27 -25 -35 0 -8 28 -20 30 -120 20 -53 -4 -96 -4 -106 2 -17 8 -129 13 -194 8 -16 -2 -41 1 -55 5 -19 5 -35 1 -63 -18 -21 -15 -50 -26 -64 -26 -15 0 -36 -9 -48 -20 -20 -19 -26 -20 -67 -9 -44 12 -47 12 -84 -19 -47 -39 -56 -40 -72 -4 -26 56 -37 72 -50 72 -8 0 -25 9 -39 20 -29 23 -63 26 -63 7 0 -8 10 -18 22 -24 23 -10 22 -10 -9 -26 -53 -28 -113 -20 -113 14 0 28 -64 57 -90 41 -24 -14 -55 -15 -79 -2 -14 7 -23 5 -36 -10 -9 -10 -37 -22 -61 -26 -39 -5 -46 -3 -67 22 -29 34 -68 36 -126 6 -54 -28 -101 -29 -108 -2 -3 13 -14 20 -29 20 -19 0 -24 -5 -24 -25 0 -33 -29 -33 -60 0 -29 31 -68 32 -112 5 -24 -14 -51 -20 -94 -20 -52 0 -64 3 -77 23 l-16 22 -7 -22 -6 -23 -30 25 c-38 32 -84 32 -128 0 -33 -24 -74 -33 -83 -17 -9 14 12 50 32 57 28 9 26 31 -3 39 -30 7 -56 -2 -56 -19 0 -7 -12 -22 -27 -33 -23 -16 -25 -22 -15 -35 10 -12 10 -16 -3 -21 -20 -7 -42 2 -49 20 -3 8 -21 21 -41 29 -25 11 -33 19 -28 31 9 25 -16 34 -99 34 -84 0 -108 -6 -108 -25 0 -20 36 -29 113 -28 37 1 67 -2 67 -5 0 -11 -77 -72 -90 -72 -6 0 -21 7 -34 15 -18 12 -29 13 -55 4 -24 -8 -36 -8 -43 -1 -8 8 -7 13 5 18 9 3 17 12 17 18 0 9 -28 13 -92 14 -51 1 -116 7 -144 13 -28 6 -70 8 -95 5 -24 -4 -56 -7 -71 -6 -16 0 -45 1 -65 1 -21 1 -47 0 -58 -2 -16 -3 -19 1 -17 20 1 14 -3 28 -10 33 -15 9 -70 11 -92 2 -24 -9 -19 -33 9 -40 29 -7 35 -43 8 -45 -32 -2 -47 3 -59 19 -10 14 -14 14 -28 3 -14 -12 -22 -11 -51 5 -31 16 -39 17 -67 5 -18 -7 -42 -14 -54 -15 -11 -1 -25 -5 -31 -9 -6 -4 -35 -12 -65 -17 -51 -10 -83 -33 -72 -52 3 -4 -4 -23 -15 -42 -12 -18 -21 -40 -22 -47 0 -17 -57 -64 -66 -55 -3 3 2 15 12 26 13 14 19 38 20 82 2 58 0 61 -26 71 -15 6 -30 19 -32 29 -3 10 -17 23 -31 29 -22 10 -29 9 -45 -5 -26 -24 -41 -13 -41 30 0 29 -3 34 -24 34 -20 0 -25 -6 -30 -45 -8 -51 -20 -63 -44 -43 -48 40 -113 48 -152 21 -17 -12 -54 -20 -115 -24 -86 -6 -91 -6 -112 17 -28 31 -56 30 -81 -1 -23 -29 -32 -32 -32 -10 0 18 -12 19 -28 3 -7 -7 -45 -12 -92 -13 -68 -1 -83 2 -98 18 -33 37 -61 40 -116 14 -31 -15 -78 -27 -120 -31 -57 -5 -74 -10 -98 -33 -29 -28 -31 -26 -28 19 3 44 -71 66 -114 33 -12 -9 -42 -15 -77 -15 -31 0 -76 -7 -100 -15 l-43 -16 -23 29 c-12 16 -36 35 -53 42 -28 11 -34 11 -59 -8 -46 -34 -131 -35 -131 -2 0 14 -7 20 -21 20 -16 0 -20 -5 -16 -20 7 -26 -7 -34 -24 -14 -7 8 -24 21 -39 29 -36 19 -149 8 -170 -16 -10 -12 -33 -19 -72 -21 -51 -3 -60 0 -87 26 -28 27 -32 28 -95 21 -50 -5 -69 -11 -76 -26 -15 -27 -73 -26 -99 2 -18 20 -40 11 -26 -10 12 -20 -18 -23 -34 -4 -23 30 -75 44 -110 32 -21 -7 -36 -7 -50 1 -22 11 -61 -1 -61 -19 0 -11 -40 -2 -57 12 -18 14 -50 0 -35 -15 18 -18 15 -24 -18 -38 -17 -7 -35 -21 -41 -31 -21 -41 -73 -11 -85 49 -8 39 -17 47 -72 62 -61 16 -114 -1 -110 -37 2 -19 -4 -27 -32 -39 -24 -10 -31 -11 -23 -3 18 18 16 44 -3 60 -23 19 -251 21 -281 3 -14 -9 -20 -20 -17 -29 9 -22 -4 -18 -39 11 -28 24 -37 26 -86 21 -34 -4 -58 -12 -63 -21 -13 -22 -38 -20 -38 3 0 28 -31 34 -92 18 -43 -11 -59 -11 -83 -1 -37 16 -73 8 -106 -22 -19 -18 -37 -24 -72 -24 -26 0 -68 -6 -94 -12 -38 -11 -47 -11 -51 1 -9 26 -42 51 -67 51 -15 0 -36 -11 -49 -24 -20 -23 -28 -24 -79 -19 -39 4 -57 10 -57 19 0 8 -9 14 -21 14 -18 0 -20 -4 -15 -25 5 -18 2 -25 -8 -25 -8 0 -19 6 -23 14 -14 23 -50 36 -102 36 -40 0 -54 -4 -63 -20 -13 -21 -78 -29 -78 -10 0 19 -39 31 -61 20 -16 -9 -19 -17 -14 -38 l6 -25 -29 30 c-28 31 -29 31 -138 32 -122 0 -161 -11 -157 -47 4 -29 -3 -28 -44 8 -39 35 -66 37 -107 11 -26 -17 -32 -18 -50 -5 -24 16 -69 18 -97 4 -21 -12 -26 -40 -6 -40 22 -1 -26 -30 -49 -30 -12 0 -29 -11 -39 -26 -14 -22 -22 -25 -47 -20 -36 7 -60 33 -54 59 5 23 -22 37 -73 37 -59 0 -93 -16 -89 -41 2 -12 -5 -26 -14 -33 -14 -8 -24 -4 -51 22 -43 42 -69 41 -103 -3 -22 -30 -32 -35 -66 -35 -32 0 -41 4 -45 21 -4 16 -12 19 -37 17 -27 -3 -31 -7 -31 -31 0 -39 -30 -55 -46 -25 -16 31 -28 38 -66 38 -19 0 -43 -10 -61 -25 -34 -29 -96 -35 -106 -10 -8 23 -62 19 -85 -6 -18 -20 -23 -21 -51 -9 -42 18 -133 -3 -154 -35 -9 -14 -30 -25 -53 -30 -20 -4 -49 -15 -63 -24 -55 -39 -217 -119 -252 -124 -25 -4 -48 0 -74 14 -42 21 -70 24 -79 9 -10 -16 -36 -11 -53 10 -10 11 -31 24 -49 29 -28 8 -38 5 -78 -25 -25 -19 -45 -41 -45 -49 0 -8 -13 -21 -30 -30 -16 -9 -30 -21 -30 -27 0 -29 24 -144 33 -155 14 -19 87 -17 87 2 0 8 4 15 9 15 5 0 17 7 25 16 13 12 14 20 5 36 -9 18 -8 24 7 35 23 17 29 16 44 -2 18 -22 35 -19 65 11 21 21 32 25 53 19 15 -4 50 -9 79 -12 45 -4 57 -1 95 25 62 43 133 76 216 103 83 27 103 20 84 -28 -7 -17 -8 -53 -4 -93 6 -58 9 -65 32 -70 19 -4 26 -13 28 -38 2 -19 12 -38 23 -45 10 -6 19 -16 19 -21 0 -14 -51 -86 -61 -86 -5 0 -15 13 -24 30 -22 42 -60 66 -80 50 -20 -17 -19 -49 5 -113 25 -66 60 -102 89 -92 12 3 36 30 55 58 62 95 184 192 303 240 50 20 254 61 378 76 50 6 153 19 230 28 163 21 659 23 678 4 8 -8 3 -19 -17 -40 -39 -40 -32 -65 19 -68 22 -1 60 -5 85 -8 139 -18 143 -18 157 1 20 28 16 42 -21 59 -18 9 -44 27 -57 41 l-22 24 29 0 c16 0 52 -3 80 -6 l51 -6 0 -60 c0 -52 -4 -62 -24 -75 -32 -21 -31 -61 3 -73 14 -6 34 -10 45 -10 14 0 85 -45 118 -76 2 -2 -2 -11 -9 -19 -9 -11 -22 -14 -41 -10 -43 10 -68 -3 -84 -41 -13 -33 -15 -34 -58 -28 -36 5 -48 2 -71 -17 -33 -29 -27 -57 15 -66 33 -6 36 -15 13 -34 -11 -9 -14 -22 -9 -43 9 -45 7 -86 -5 -102 -7 -7 -10 -23 -8 -36 3 -21 7 -23 52 -20 53 4 106 -13 106 -33 0 -17 -48 -37 -72 -29 -17 5 -19 2 -16 -23 3 -27 4 -28 56 -25 44 2 52 0 52 -15 0 -10 -9 -24 -21 -31 -15 -10 -19 -19 -14 -40 5 -23 0 -32 -23 -49 -16 -12 -48 -26 -71 -33 -44 -12 -50 -20 -26 -40 8 -7 15 -23 15 -35 0 -12 7 -28 15 -35 24 -20 18 -27 -50 -54 -82 -33 -100 -33 -122 0 -16 26 -16 27 6 45 30 25 48 24 56 -2 9 -28 56 -22 71 10 15 29 9 48 -17 56 -10 4 -19 15 -19 25 0 10 -9 22 -20 25 -11 3 -20 10 -20 14 0 18 -80 41 -155 43 -76 3 -80 2 -90 -20 -9 -22 -14 -23 -60 -17 -27 3 -54 10 -59 16 -18 17 -46 9 -56 -15 -13 -35 -28 -41 -52 -19 -20 18 -21 17 -32 -2 -6 -10 -23 -30 -39 -44 -31 -29 -35 -65 -11 -99 19 -28 45 -28 69 -2 26 28 56 22 80 -17 20 -33 58 -50 120 -55 24 -2 34 -11 49 -41 24 -51 89 -81 153 -71 41 6 43 5 43 -19 0 -13 7 -30 15 -37 13 -11 12 -15 -5 -37 -11 -14 -20 -41 -20 -59 l0 -34 -58 0 c-53 0 -61 -3 -91 -34 -18 -19 -44 -37 -57 -40 -32 -8 -50 -42 -33 -62 10 -12 29 -15 75 -12 46 2 67 -1 81 -13 10 -9 26 -19 36 -22 9 -4 17 -14 17 -23 0 -9 5 -13 13 -10 6 2 37 12 67 22 59 18 97 45 111 81 9 25 29 31 30 11 0 -7 1 -33 2 -57 2 -32 7 -47 22 -55 48 -26 49 -66 3 -66 -18 0 -39 -4 -47 -9 -18 -11 -24 -100 -8 -119 18 -23 -3 -26 -26 -4 -13 12 -30 22 -38 22 -8 0 -44 7 -80 17 -65 16 -66 16 -102 -6 -20 -12 -41 -20 -46 -17 -18 12 -122 -44 -139 -74 -9 -16 -20 -30 -24 -30 -5 0 -8 -15 -8 -34 0 -25 -6 -38 -26 -51 -21 -13 -24 -21 -19 -46 5 -24 3 -29 -12 -29 -10 0 -24 4 -32 9 -12 8 -13 12 -1 26 11 13 9 20 -16 46 -23 24 -35 29 -57 25 -16 -3 -40 -3 -53 0 -21 6 -22 8 -9 28 13 19 13 25 1 42 -22 28 -50 7 -54 -40 -4 -45 -22 -46 -42 -3 -17 37 -44 46 -69 23 -15 -13 -20 -14 -36 -2 -11 8 -16 20 -12 29 4 10 -1 24 -12 34 -10 10 -24 35 -30 55 -7 20 -17 38 -24 41 -7 2 -17 35 -22 73 -10 65 -12 69 -35 66 -13 -1 -38 -9 -54 -18 -17 -9 -44 -17 -60 -20 -16 -2 -34 -8 -40 -14 -7 -7 -16 -4 -28 12 -16 22 -18 22 -34 6 -14 -13 -15 -20 -5 -31 6 -8 19 -13 29 -11 11 3 21 -4 29 -22 11 -23 10 -29 -5 -40 -21 -16 -39 -18 -47 -4 -4 6 -10 8 -15 5 -16 -10 -40 7 -40 29 0 27 -18 46 -42 46 -30 0 -21 30 12 37 17 3 30 12 30 19 0 16 -35 39 -72 48 -21 5 -28 12 -28 31 0 15 -10 31 -25 41 -14 9 -25 21 -25 27 0 6 -10 21 -21 33 -45 48 11 84 99 63 41 -10 54 -17 58 -36 4 -14 14 -23 25 -23 26 0 35 27 19 53 -11 18 -9 23 14 42 18 15 26 30 26 53 0 32 15 42 36 23 5 -4 23 -13 41 -19 27 -9 36 -8 58 9 16 14 25 30 25 49 0 16 5 32 11 36 6 3 9 19 5 34 -3 15 -2 44 1 63 4 29 10 36 31 39 53 6 87 105 47 134 -11 8 -36 14 -57 14 -35 0 -39 -3 -44 -30 -4 -16 -13 -35 -20 -41 -8 -6 -14 -17 -14 -24 0 -15 -22 -25 -57 -25 -20 0 -24 4 -18 17 3 10 9 30 12 46 3 15 10 30 14 33 17 10 9 43 -12 55 -30 15 -52 -9 -54 -58 0 -21 -3 -38 -5 -37 -37 5 -50 15 -50 36 0 33 -18 48 -57 48 -46 0 -55 -26 -20 -56 l26 -23 -24 -43 c-36 -65 -92 -126 -136 -149 -22 -11 -49 -34 -59 -52 l-20 -32 -6 33 c-14 69 -76 78 -143 20 -121 -102 -132 -116 -125 -153 6 -33 3 -39 -32 -70 -46 -41 -51 -42 -60 -12 -11 36 -55 87 -75 87 -32 0 -99 -32 -110 -52 -9 -17 -5 -28 19 -62 29 -39 33 -41 85 -41 29 0 60 -5 68 -11 8 -6 37 -15 64 -19 58 -8 75 -19 75 -50 0 -31 -6 -33 -49 -22 -35 10 -41 8 -80 -23 -39 -31 -42 -32 -54 -16 -7 10 -34 24 -60 30 -41 10 -50 18 -70 56 -20 42 -25 45 -58 43 -43 -2 -108 -41 -109 -65 0 -9 -7 -24 -16 -33 -15 -14 -18 -14 -40 10 -37 41 -104 30 -104 -17 0 -12 -7 -18 -21 -18 -18 0 -20 5 -17 42 3 36 0 44 -22 55 -14 7 -43 13 -64 13 l-40 0 22 20 c26 24 27 33 8 49 -10 8 -31 9 -77 2 -112 -17 -139 -23 -145 -32 -3 -5 -12 -9 -20 -9 -23 0 -16 30 11 52 14 11 25 25 25 32 0 7 11 25 25 40 25 27 25 28 8 57 -17 28 -17 30 3 50 20 20 21 20 52 2 37 -21 47 -14 56 44 5 38 4 43 -24 63 -29 21 -30 23 -15 48 24 44 44 100 37 106 -13 13 -84 5 -114 -14 -18 -11 -42 -20 -54 -20 -36 0 -66 -35 -71 -84 -3 -26 -10 -44 -17 -43 -8 1 -12 -175 -14 -655 l-2 -658 8000 0 8000 0 0 1658 c0 1489 -2 1660 -16 1680 -8 12 -20 20 -25 17 -5 -4 -9 2 -9 12 0 12 -8 19 -20 20 -12 1 -34 13 -51 27 -45 38 -69 33 -88 -17 -7 -19 -17 -27 -29 -25 -13 2 -18 17 -23 58 -3 31 -1 62 5 72 7 12 6 22 -5 35 -9 10 -19 26 -22 36 -11 29 -26 19 -29 -20 l-3 -38 -60 -8 c-97 -12 -107 3 -34 49 21 13 39 30 39 38 0 7 7 19 15 26 26 22 17 48 -30 80 -30 21 -51 45 -61 70 -17 43 -39 55 -83 45 -32 -7 -51 9 -32 28 15 15 14 44 -1 50 -10 3 -10 10 1 30 12 23 12 31 1 52 -22 40 -3 77 45 91 37 10 40 14 40 45 0 19 4 40 8 47 5 7 2 18 -7 28 -23 23 -20 35 23 82 35 38 42 42 61 32 24 -13 52 -6 70 16 10 12 9 18 -5 34 -10 11 -26 20 -35 20 -9 0 -22 11 -28 25 -13 28 -43 33 -62 10 -14 -16 -102 -15 -135 2 -28 14 -45 6 -45 -23 0 -13 -3 -24 -6 -24 -16 0 -46 24 -58 48 -12 22 -12 31 -1 45 7 10 12 41 11 70 -1 47 -3 52 -25 55 -13 2 -27 -2 -32 -9 -6 -11 -14 -11 -42 -1 -18 7 -43 12 -54 12 -11 0 -28 12 -38 26 -9 14 -39 36 -67 49 -28 13 -54 29 -58 35 -5 9 -17 9 -48 -1 -43 -13 -72 -2 -72 26 0 29 -25 34 -60 12 -19 -12 -52 -22 -72 -23 -37 0 -38 0 -38 37 0 26 7 45 22 59 l22 20 -27 0 c-35 0 -61 15 -114 64 -40 37 -44 38 -91 32 l-49 -6 -11 42 c-6 24 -13 55 -17 71 -3 15 -10 27 -15 27 -14 0 -12 28 5 75 10 27 11 43 4 52 -25 30 23 45 64 19 12 -7 43 -16 69 -20 37 -4 51 -1 70 13 21 17 21 21 8 45 -12 24 -12 29 3 43 16 16 18 16 32 -2 8 -11 15 -26 15 -32 0 -20 13 -15 33 13 22 30 19 55 -8 69 -17 8 -19 14 -11 37 16 44 -30 78 -62 46z"/>
 </g>
<g id="layer104" fill="#d4d2c9" stroke="none">
 <path d="M2903 9465 c48 -7 100 -18 117 -25 34 -14 47 -44 29 -66 -18 -22 -76 -44 -114 -44 -18 0 -38 -7 -46 -16 -10 -12 -29 -15 -92 -12 -71 3 -81 1 -91 -17 -18 -32 -26 -35 -116 -36 -91 -1 -131 -8 -137 -25 -5 -15 113 -39 180 -36 37 1 69 -3 88 -14 17 -8 45 -14 62 -13 18 2 44 -5 58 -14 18 -12 36 -16 53 -11 19 4 28 2 32 -10 7 -18 35 -21 51 -5 8 8 13 8 17 0 9 -13 165 -15 185 -2 9 6 23 4 38 -6 18 -12 35 -14 81 -7 31 5 66 8 77 6 11 -1 47 -2 79 -3 42 0 66 -6 83 -19 31 -25 92 -34 139 -21 30 8 43 7 61 -4 12 -8 33 -15 45 -15 26 0 103 -41 100 -52 -1 -5 -2 -17 -2 -28 0 -42 -48 -52 -270 -57 -113 -2 -259 -5 -325 -7 -90 -3 -126 0 -142 10 -29 18 -100 34 -165 36 -29 1 -61 6 -72 11 -31 15 -119 16 -143 1 -21 -13 -23 -23 -23 -90 0 -41 5 -85 11 -97 7 -11 12 -39 13 -61 1 -42 20 -60 31 -27 11 36 48 50 138 52 64 1 92 6 113 20 27 18 29 18 62 -3 31 -19 39 -20 79 -10 24 7 62 12 85 12 25 0 49 7 60 17 19 17 20 16 38 -6 16 -23 24 -24 120 -25 69 -1 109 3 121 12 13 9 24 10 37 3 10 -5 47 -12 82 -14 36 -3 74 -7 85 -9 17 -2 20 3 21 31 0 28 5 36 26 43 26 9 78 -5 78 -21 0 -9 103 -33 155 -35 22 -1 33 5 40 21 18 43 91 59 97 21 5 -35 45 -50 81 -32 26 14 36 14 97 -1 76 -19 102 -14 136 22 12 13 39 27 60 30 33 5 40 3 60 -22 17 -21 35 -30 75 -36 46 -7 60 -15 95 -54 47 -50 70 -56 84 -21 9 26 -4 90 -26 116 -6 8 -15 25 -19 38 -3 12 -25 35 -48 50 l-40 27 -259 3 -258 3 -6 24 c-3 13 -1 32 5 43 16 30 13 76 -6 118 -17 35 -17 36 2 50 11 9 29 12 40 9 49 -16 111 -22 128 -13 29 15 119 19 154 6 23 -8 35 -9 45 -1 14 12 134 2 178 -14 14 -6 48 -9 76 -8 43 1 52 -2 60 -19 11 -25 77 -34 100 -15 19 15 18 45 -2 53 -8 3 -12 11 -8 17 5 9 10 8 18 -3 6 -7 27 -18 46 -24 26 -7 36 -16 38 -34 7 -46 59 -80 77 -50 8 14 58 13 91 -2 23 -11 28 -10 44 10 10 12 25 22 33 22 9 0 17 10 19 23 2 18 8 21 34 19 19 -2 36 3 44 13 20 25 -6 68 -45 75 -20 3 -31 12 -33 25 -2 11 -10 25 -18 31 -11 9 -10 15 10 33 13 12 36 26 52 30 22 6 28 13 26 28 -2 11 4 23 12 26 10 4 18 -5 26 -28 14 -42 6 -57 -24 -49 -35 8 -50 -17 -36 -60 14 -44 48 -58 68 -27 10 14 25 21 46 21 51 0 60 -13 31 -44 -14 -15 -25 -33 -25 -41 0 -20 38 -44 61 -38 10 3 26 -1 35 -8 14 -11 19 -10 34 8 10 12 20 19 24 16 3 -4 -1 -14 -10 -24 -28 -32 -14 -54 37 -57 55 -4 77 14 59 47 -6 12 -15 21 -20 21 -6 0 -10 10 -10 21 0 18 4 20 23 14 33 -11 137 -14 143 -4 3 5 17 0 32 -10 48 -34 273 -46 316 -18 32 21 69 21 112 1 31 -15 35 -15 63 5 33 24 64 78 50 87 -5 3 -14 2 -19 -1 -6 -4 -17 -1 -25 5 -12 10 -22 10 -45 0 -33 -13 -60 -2 -60 26 0 8 -7 14 -15 14 -8 0 -15 -7 -15 -16 0 -11 -9 -14 -38 -11 -20 1 -43 6 -50 11 -20 12 -13 36 14 46 23 9 25 14 20 44 -6 29 -2 37 24 57 16 13 30 27 30 31 0 4 -17 8 -37 10 -21 2 37 3 128 3 113 0 170 4 180 12 8 6 35 13 59 16 25 2 -39 4 -142 5 -134 1 -188 -1 -188 -9 0 -8 -14 -9 -42 -5 -24 4 -61 10 -82 13 -28 4 -37 3 -32 -5 5 -8 -1 -12 -16 -13 -13 -1 1 -6 30 -11 50 -9 72 -28 33 -28 -10 0 -40 -3 -66 -7 -46 -6 -48 -5 -43 15 6 20 2 22 -38 22 -43 0 -44 -1 -27 -19 10 -10 26 -22 35 -27 12 -6 14 -14 8 -24 -8 -12 -18 -12 -72 -1 -77 16 -106 30 -88 41 15 9 -12 15 -110 24 -32 3 -60 12 -66 21 -9 12 -56 14 -307 15 -183 0 -297 -4 -297 -10 0 -13 44 -23 69 -15 13 4 21 2 21 -6 0 -8 14 -10 45 -7 25 3 47 2 50 -2 3 -4 -27 -11 -65 -14 -61 -6 -75 -4 -103 13 -58 35 -282 50 -322 21 -5 -4 -30 -10 -55 -13 -25 -2 -53 -8 -62 -12 -10 -4 -18 -3 -18 3 0 6 22 13 50 17 27 4 52 11 55 16 3 4 -315 8 -720 8 -463 0 -724 -3 -720 -9 4 -6 -1 -10 -9 -10 -9 0 -16 5 -16 10 0 6 -97 10 -272 9 -262 -1 -270 -2 -185 -14z"/>
 <path d="M9228 9468 c-8 -21 2 -38 21 -38 14 0 18 -8 17 -32 -1 -26 -6 -33 -36 -43 -27 -9 -35 -17 -35 -36 0 -29 27 -37 61 -18 27 14 48 3 21 -12 -9 -6 -17 -16 -17 -24 0 -8 -11 -25 -25 -37 l-24 -23 36 -25 c33 -23 43 -24 147 -22 61 1 134 -1 163 -4 l52 -5 -6 -37 c-3 -20 -8 -39 -10 -42 -3 -3 -43 -9 -91 -15 l-87 -11 0 -64 c0 -57 -4 -69 -28 -95 l-29 -30 -716 3 c-696 3 -716 4 -729 23 -19 26 -53 25 -53 -1 0 -17 -7 -20 -42 -21 -829 -6 -2383 -8 -2389 -2 -4 4 -10 32 -13 61 -7 68 -11 74 -51 71 -18 -2 -40 3 -49 10 -21 17 -46 7 -46 -19 0 -16 -6 -20 -35 -20 -36 0 -43 8 -23 28 8 8 5 14 -15 23 -32 15 -61 -3 -52 -32 5 -16 1 -19 -29 -19 -30 0 -36 4 -36 21 0 15 -5 20 -22 17 -16 -2 -22 -9 -20 -20 2 -15 -5 -18 -42 -18 -57 0 -93 -14 -100 -38 -17 -52 27 -72 157 -72 l90 0 -7 -42 c-19 -118 -19 -122 2 -142 25 -22 35 -16 68 35 13 21 31 39 40 39 25 0 74 29 74 44 0 8 -12 23 -27 35 -26 18 -27 21 -12 36 15 16 21 13 80 -39 122 -107 129 -110 253 -118 61 -3 333 -10 604 -14 446 -6 492 -9 486 -23 -4 -9 -8 -29 -8 -46 -1 -24 4 -31 22 -33 19 -3 22 1 22 28 0 23 6 33 24 40 13 5 27 14 31 19 4 7 62 11 159 11 l154 0 12 -29 c6 -17 9 -35 5 -40 -11 -19 -83 -13 -105 9 -35 35 -65 21 -72 -35 -5 -46 -32 -44 -51 3 -24 59 -68 66 -88 15 -13 -36 -12 -42 16 -55 14 -6 24 -17 21 -24 -7 -18 16 -33 39 -24 13 5 34 0 58 -12 37 -18 38 -20 22 -38 -16 -18 -37 -19 -342 -19 -257 0 -334 3 -367 14 -53 19 -82 19 -90 0 -4 -12 -33 -15 -168 -15 -248 -1 -416 -14 -436 -33 -14 -15 -14 -18 4 -38 32 -35 98 -69 149 -76 47 -6 48 -7 27 -21 -26 -17 -27 -33 -7 -72 18 -34 27 -37 50 -14 12 12 26 14 58 10 80 -13 166 -16 172 -6 8 13 72 13 80 0 11 -18 74 -11 95 10 22 22 25 41 9 57 -28 28 30 46 60 19 30 -26 59 -29 71 -6 9 17 20 20 78 19 37 0 76 -4 86 -8 11 -4 44 -3 74 2 44 8 64 6 108 -9 52 -17 54 -17 74 1 17 15 24 16 46 7 18 -9 31 -9 45 -1 13 6 61 8 132 5 62 -3 131 -6 154 -6 23 -1 47 -7 53 -16 18 -20 51 -17 57 6 5 18 14 19 116 19 91 -1 113 -4 123 -17 12 -16 14 -16 27 2 12 16 28 19 105 20 85 1 93 -1 108 -23 l17 -23 25 27 c24 26 29 27 96 23 46 -3 82 -11 99 -23 27 -17 28 -17 48 1 16 14 22 15 28 6 8 -14 57 -7 67 9 3 5 260 6 582 3 504 -5 579 -8 595 -21 9 -9 17 -23 17 -32 0 -9 10 -35 22 -59 24 -45 54 -60 85 -43 14 7 32 6 63 -5 30 -11 51 -12 70 -6 21 8 34 6 59 -10 26 -17 37 -19 57 -10 21 10 24 18 24 71 0 33 -3 66 -6 75 -7 19 -35 21 -53 4 -11 -11 -13 -10 -9 2 3 8 26 26 52 39 64 33 103 83 90 117 l-9 26 -269 -1 c-231 0 -273 2 -297 16 -25 15 -30 15 -62 0 -39 -19 -131 -22 -171 -7 -23 8 -24 12 -15 40 8 21 18 30 32 30 12 0 28 4 36 9 9 6 22 4 37 -6 19 -12 30 -13 57 -4 19 7 40 9 48 6 8 -3 36 -1 63 4 38 7 59 5 102 -10 29 -10 65 -19 79 -19 34 0 125 66 125 91 0 10 5 19 10 19 6 0 10 -11 10 -24 0 -13 8 -34 19 -47 17 -21 21 -22 60 -11 22 7 41 16 41 20 -1 4 -15 16 -33 27 -18 11 -32 27 -32 35 0 20 63 60 94 60 38 0 51 -17 51 -68 0 -30 4 -42 13 -40 7 3 13 28 15 67 3 57 6 67 39 100 64 65 73 87 73 181 0 47 -4 90 -8 95 -13 18 -71 55 -87 55 -17 0 -95 72 -95 89 0 8 48 11 158 11 86 0 167 3 180 6 18 5 24 2 29 -15 3 -11 13 -21 21 -21 9 0 36 -7 59 -16 48 -19 63 -13 45 16 -7 11 -12 24 -12 29 0 17 37 22 86 10 27 -6 110 -11 184 -10 74 0 155 -3 180 -7 40 -6 45 -10 48 -36 3 -23 0 -27 -12 -23 -12 5 -17 -3 -22 -34 -8 -47 -20 -58 -38 -33 -16 21 -49 12 -44 -13 2 -12 13 -18 31 -18 15 1 27 -3 27 -7 0 -5 17 -8 38 -7 20 0 75 -2 122 -4 69 -5 88 -2 103 10 9 9 17 22 17 29 0 19 -65 34 -121 27 -38 -4 -49 -3 -50 8 -5 65 27 99 93 99 27 0 64 -6 83 -14 28 -12 36 -12 52 0 26 20 52 17 72 -7 14 -18 21 -20 39 -10 31 16 34 14 30 -20 -3 -27 2 -35 30 -51 41 -23 52 -17 45 25 -3 23 1 39 15 56 18 24 21 24 77 13 32 -7 82 -12 112 -12 51 0 67 -11 39 -27 -7 -4 -19 -18 -25 -31 -18 -35 2 -54 53 -50 l41 3 -3 42 c-3 38 -1 43 23 49 14 3 43 4 63 1 20 -3 46 -2 57 2 11 5 32 4 48 -1 20 -8 27 -16 27 -36 l-1 -27 -22 28 c-29 35 -43 34 -63 -5 -16 -31 -16 -33 1 -43 11 -5 29 -20 41 -32 26 -28 32 -28 60 -2 22 21 44 19 44 -4 0 -7 17 -17 38 -24 58 -18 178 11 211 51 9 11 8 17 -4 30 -9 9 -20 16 -25 16 -4 0 -10 9 -13 21 -9 32 -29 12 -22 -21 8 -36 -9 -47 -29 -18 -9 12 -27 27 -41 32 -23 10 -25 13 -12 30 16 22 47 23 132 8 46 -9 65 -18 82 -39 20 -24 25 -26 40 -15 33 22 44 25 70 13 16 -7 23 -17 19 -26 -9 -24 5 -75 20 -75 8 0 19 12 25 27 8 22 7 30 -7 40 -20 14 -20 14 19 31 19 8 27 19 27 37 0 27 -23 37 -75 33 -22 -2 -30 2 -33 16 -4 17 1 19 57 13 54 -4 61 -3 61 13 0 10 -7 23 -15 30 -22 19 -18 39 11 50 35 14 36 13 29 -10 -4 -13 1 -30 14 -46 25 -32 26 -47 6 -64 -22 -18 -19 -57 5 -65 31 -10 25 -35 -9 -35 -68 0 -72 -13 -39 -120 20 -65 24 -71 48 -68 22 3 25 7 24 41 -1 30 2 37 17 37 10 0 23 -9 29 -20 15 -28 48 -25 62 5 8 19 8 28 -2 40 -10 12 -9 19 4 40 9 13 16 29 16 35 0 19 -39 10 -54 -12 l-16 -22 -22 21 -21 22 24 20 c22 18 26 18 42 4 15 -14 19 -14 35 -1 9 8 25 18 35 21 21 8 23 50 2 67 -20 17 -43 6 -51 -24 -8 -34 -32 -40 -55 -14 -10 13 -18 25 -18 28 0 3 17 17 39 32 37 26 40 26 69 12 48 -24 91 -21 112 7 16 22 20 23 51 11 44 -15 81 -15 97 1 6 6 35 12 62 12 41 0 53 4 68 24 17 22 23 24 79 18 55 -6 64 -4 82 15 13 14 34 23 58 24 65 3 103 16 119 40 12 19 13 27 3 39 -10 12 -9 15 8 15 15 0 22 -9 27 -32 10 -44 23 -59 49 -53 11 2 118 7 236 11 325 10 337 11 370 24 26 11 37 10 68 -3 20 -8 73 -22 117 -29 l80 -14 -3 -58 -2 -58 29 7 c17 3 32 2 36 -4 3 -6 28 -11 54 -11 53 0 89 26 77 55 -4 12 -1 16 12 13 10 -2 18 -14 20 -31 2 -15 14 -34 27 -43 13 -8 25 -29 28 -47 3 -18 9 -44 12 -59 8 -30 -14 -47 -75 -58 -31 -5 -35 -9 -33 -33 1 -15 -2 -27 -8 -27 -5 0 -9 4 -9 9 0 13 -63 51 -84 51 -9 0 -26 -12 -39 -26 -84 -98 -82 -97 -77 -32 1 18 -5 28 -18 32 -21 7 -121 -34 -141 -58 -18 -21 -7 -46 17 -39 15 3 24 -5 39 -34 l20 -38 81 0 c60 0 84 4 98 17 16 14 27 15 74 6 30 -5 65 -11 77 -11 12 -1 28 -8 35 -14 14 -15 124 -17 133 -3 8 13 71 13 95 0 15 -8 31 -4 70 17 l51 28 28 -34 c24 -29 32 -33 57 -27 16 4 37 15 47 24 16 14 21 14 40 2 12 -7 45 -14 74 -15 59 -1 67 -5 58 -35 -6 -17 -12 -20 -41 -14 -40 7 -64 -8 -64 -41 0 -26 47 -51 81 -42 11 3 43 -2 71 -11 41 -13 54 -13 70 -3 15 9 23 10 31 2 14 -14 64 -14 73 0 4 8 25 9 63 5 31 -4 117 -8 191 -10 74 -2 148 -9 164 -15 34 -13 79 -6 97 15 16 19 48 18 56 -3 8 -21 54 -62 70 -63 6 0 14 15 16 33 l4 32 1 -32 c1 -22 7 -33 17 -33 9 0 15 -9 15 -23 0 -19 -8 -25 -50 -36 -28 -7 -56 -21 -64 -32 -11 -16 -32 -20 -134 -27 -95 -7 -126 -12 -141 -26 -14 -13 -28 -16 -46 -12 -18 5 -37 0 -58 -13 -18 -10 -53 -22 -80 -26 -26 -4 -58 -16 -71 -26 -28 -22 -42 -24 -49 -6 -9 24 -76 8 -99 -24 -26 -35 -68 -40 -68 -9 0 25 -10 25 -58 0 -30 -16 -60 -21 -127 -22 -107 -2 -128 -15 -123 -80 3 -40 4 -41 52 -53 53 -14 68 -10 156 35 27 14 60 18 136 19 55 1 115 6 134 12 69 21 100 27 105 19 9 -14 -41 -133 -89 -217 -38 -64 -43 -79 -30 -81 9 -2 28 5 43 15 31 23 118 186 135 252 9 39 15 46 38 49 15 2 34 12 42 23 10 15 30 21 80 26 70 6 81 -1 46 -32 -45 -41 -3 -68 61 -39 35 15 44 16 82 3 23 -7 52 -12 63 -11 31 3 37 -32 19 -102 -19 -72 -19 -175 0 -200 10 -13 11 -25 4 -43 -5 -13 -9 -35 -9 -48 0 -31 -44 -65 -86 -65 -54 0 -85 -50 -49 -80 19 -16 19 -39 0 -64 -8 -11 -15 -41 -15 -67 0 -41 -4 -51 -32 -74 -43 -36 -57 -62 -58 -107 0 -43 26 -66 52 -45 17 14 68 127 68 150 0 19 21 36 57 46 24 6 28 12 29 47 0 27 10 53 32 84 38 54 92 205 92 259 0 23 -6 44 -16 52 -25 21 -14 170 16 211 16 21 21 44 22 86 0 31 2 315 4 630 3 460 1 572 -9 572 -10 0 -12 -16 -9 -60 2 -34 -1 -66 -7 -73 -17 -22 -25 -144 -12 -185 12 -34 10 -42 -9 -75 l-22 -37 -83 0 c-67 0 -87 4 -107 20 -25 19 -26 19 -43 0 -10 -11 -27 -20 -37 -20 -23 0 -42 46 -32 80 4 14 8 55 8 92 1 45 6 72 17 85 9 10 19 26 23 37 6 18 7 18 25 1 24 -21 57 -12 66 17 9 27 -7 41 -63 54 -32 8 -39 12 -21 13 34 1 40 9 26 32 -11 18 -39 19 -852 19 -539 0 -835 -4 -825 -10 13 -8 12 -10 -2 -10 -10 0 -18 5 -18 10 0 6 -27 10 -62 10 -47 0 -59 -3 -48 -11 11 -8 8 -9 -15 -4 -47 11 -629 15 -635 4 -4 -5 -37 -11 -76 -13 -38 -2 -80 -8 -93 -12 -17 -5 -22 -4 -17 4 4 7 18 12 32 12 13 0 24 5 24 10 0 16 -402 13 -419 -2 -8 -7 -11 -8 -8 -2 7 13 -474 12 -557 -1 -36 -6 -47 -5 -42 4 5 8 -11 11 -55 11 -53 0 -60 -2 -49 -15 11 -13 7 -15 -26 -14 -22 1 -31 3 -21 6 9 2 17 9 17 14 0 5 -45 9 -100 9 -84 0 -98 -2 -94 -15 5 -12 -3 -15 -36 -15 -25 0 -39 -4 -35 -10 3 -5 1 -10 -4 -10 -6 0 -11 7 -11 15 0 8 7 15 15 15 8 0 15 5 15 11 0 9 -35 10 -127 5 -146 -8 -149 -8 -263 -2 -53 3 -108 0 -145 -9 -33 -7 -76 -16 -95 -18 -19 -3 -44 -8 -55 -12 -16 -6 -17 -5 -5 4 13 9 13 11 -2 11 -9 0 -18 6 -21 13 -3 9 -84 12 -363 12 -197 0 -339 -1 -314 -3 61 -4 79 -10 60 -22 -8 -5 -21 -5 -31 1 -10 5 -34 9 -53 9 -20 0 -36 5 -36 10 0 13 -107 13 -112 0 -2 -7 -15 -7 -38 0 -45 13 -170 13 -170 0 0 -6 27 -10 61 -10 43 0 58 -3 53 -12 -5 -8 19 -10 97 -6 57 3 118 2 134 -2 l30 -8 -35 -1 c-35 -1 -35 -1 -10 -14 14 -7 26 -22 28 -34 3 -20 0 -21 -35 -17 -60 9 -68 13 -55 26 19 19 14 38 -11 38 -33 0 -62 -23 -54 -44 7 -17 -17 -24 -27 -7 -3 4 -16 6 -30 4 -13 -3 -27 0 -30 6 -11 16 -47 13 -68 -6 -25 -22 -45 -5 -29 25 6 11 11 23 11 26 0 3 -28 7 -62 7 -35 1 -53 4 -40 6 12 2 22 9 22 15 0 7 -25 9 -77 5 -47 -3 -70 -2 -58 3 14 6 0 8 -45 8 -36 0 -55 -3 -42 -5 12 -2 22 -8 22 -13 0 -5 24 -11 53 -13 28 -2 12 -3 -38 -2 -49 1 -82 0 -72 -2 35 -9 16 -24 -25 -20 -24 2 -35 2 -25 0 18 -4 18 -6 1 -24 -17 -19 -68 -26 -78 -11 -3 5 4 15 15 22 32 24 22 33 -27 25 -32 -4 -44 -3 -39 4 3 6 39 11 78 12 l72 1 -44 14 c-43 13 -114 13 -223 -1 -41 -6 -58 -4 -58 4 0 15 -47 14 -52 -1z"/>
 <path d="M1055 9130 c-4 -6 -1 -18 6 -26 13 -16 10 -20 -31 -43 -48 -27 -150 -18 -150 13 0 37 -38 45 -226 49 -79 2 -95 -1 -114 -18 -30 -28 -141 -33 -221 -10 -33 9 -73 14 -88 10 -19 -4 -32 -1 -41 10 -7 8 -25 15 -41 15 -38 0 -59 -33 -65 -102 -5 -48 -1 -61 43 -148 41 -82 51 -95 73 -95 23 0 25 4 28 54 l3 54 39 -54 c22 -30 40 -59 40 -66 0 -6 22 -31 50 -54 52 -44 56 -59 14 -59 -15 0 -24 6 -24 16 0 10 -7 14 -22 12 -31 -4 -31 -42 0 -46 13 -2 22 -10 22 -21 0 -27 26 -44 54 -37 47 12 42 -20 -6 -41 -16 -7 -28 -17 -28 -23 0 -5 -13 -7 -30 -3 -29 5 -30 4 -30 -29 0 -19 7 -43 15 -54 15 -19 15 -19 30 0 8 11 15 18 16 15 0 -2 6 -24 12 -49 12 -43 14 -46 69 -63 54 -17 57 -20 63 -58 9 -50 -8 -75 -31 -45 -8 11 -14 28 -14 38 0 23 -31 39 -53 27 -12 -7 -17 -23 -17 -55 0 -40 -2 -45 -19 -39 -10 3 -24 -1 -31 -10 -11 -13 -11 -19 3 -32 13 -14 21 -15 39 -5 27 13 74 10 105 -6 12 -7 42 -12 68 -12 42 0 47 -3 56 -29 6 -17 26 -41 44 -55 30 -23 42 -26 117 -25 126 1 219 20 231 47 7 16 5 28 -8 49 -13 19 -18 43 -16 77 3 71 17 90 26 38 11 -67 26 -72 200 -72 165 0 321 15 342 32 16 13 16 69 -1 123 -11 37 -16 41 -76 62 -36 13 -78 23 -94 23 l-29 0 28 26 c26 24 26 26 10 44 -9 10 -27 20 -39 22 -16 2 -23 13 -29 43 -5 22 -15 67 -23 100 -22 88 -22 99 1 103 57 11 57 27 3 244 -10 44 -42 78 -67 71 -11 -3 -21 4 -29 21 -17 37 -58 62 -77 46 -8 -7 -15 -19 -15 -26 0 -8 -7 -14 -15 -14 -9 0 -14 8 -12 22 2 24 -26 37 -38 18z"/>
 <path d="M12965 8788 c-40 -14 -61 -33 -76 -71 -16 -40 -26 -47 -67 -47 -28 0 -33 4 -39 30 -6 34 -34 54 -61 46 -9 -3 -28 -27 -42 -53 -25 -47 -26 -48 -75 -49 -27 0 -77 -6 -109 -12 -33 -7 -61 -12 -62 -12 -1 0 -4 9 -7 20 -5 18 -14 20 -81 20 -59 0 -78 -3 -82 -15 -11 -28 16 -45 72 -45 29 0 55 -4 58 -8 2 -4 0 -42 -6 -84 -8 -59 -8 -84 1 -107 16 -36 102 -95 154 -105 l39 -7 -3 -143 c-4 -156 -8 -142 66 -221 22 -23 50 -54 63 -68 30 -34 120 -56 157 -39 34 16 60 15 74 -1 9 -11 -1 -20 -49 -45 l-60 -32 -611 0 c-564 0 -610 1 -607 17 2 9 19 22 38 28 43 15 49 37 15 55 -15 8 -33 27 -41 43 -9 15 -20 27 -26 25 -17 -6 -35 -79 -30 -119 5 -47 -2 -49 -153 -56 -131 -6 -165 -18 -165 -57 0 -44 21 -50 163 -49 73 1 152 -2 177 -7 48 -10 1145 -19 1219 -10 40 4 45 8 56 40 8 25 22 40 48 53 20 9 37 22 37 27 0 16 20 12 51 -11 34 -24 31 -34 -10 -42 -16 -3 -49 -23 -73 -44 -25 -21 -54 -43 -64 -49 -17 -10 -19 -24 -20 -125 0 -94 -4 -122 -21 -159 -21 -45 -21 -91 -1 -117 7 -8 3 -24 -12 -48 -19 -30 -20 -39 -10 -69 8 -25 8 -41 1 -55 -6 -11 -11 -36 -11 -56 0 -48 53 -105 97 -105 41 0 109 51 141 107 15 25 46 69 69 98 23 30 45 67 49 82 9 35 20 43 62 43 26 0 35 6 45 27 6 15 20 36 31 46 14 15 16 26 10 51 -7 31 -8 56 -5 151 4 122 1 137 -31 181 -31 44 -71 64 -125 64 -13 0 -23 5 -23 10 0 6 10 10 23 10 12 0 32 7 45 15 19 14 24 14 46 0 19 -13 29 -14 45 -5 23 12 40 62 24 67 -6 2 -18 10 -28 17 -37 27 -7 35 128 33 148 -1 173 6 224 66 15 19 38 39 50 46 23 12 53 63 53 91 0 9 -11 27 -24 39 -23 22 -30 23 -123 17 -54 -3 -109 -6 -123 -5 -14 0 -72 1 -130 2 -290 6 -309 7 -304 20 2 6 19 19 37 27 30 14 32 19 43 99 10 73 16 88 38 104 41 30 34 53 -16 48 -9 -1 -29 6 -44 15 -24 16 -25 19 -8 25 11 4 165 8 343 8 l323 1 32 -34 c47 -52 78 -60 159 -45 60 11 67 15 67 36 0 36 -48 123 -73 132 -12 5 -198 7 -412 4 -339 -4 -393 -3 -410 10 -20 15 -20 15 2 54 13 24 33 42 53 49 17 6 30 15 28 20 -2 5 -7 8 -11 6 -4 -1 -21 5 -37 13 -23 12 -30 24 -36 60 l-6 45 -42 -1 c-22 0 -54 -5 -71 -11z"/>
 <path d="M14174 5237 c-10 -26 0 -51 24 -62 29 -13 28 -31 -8 -85 -16 -25 -30 -55 -30 -68 0 -13 -4 -20 -10 -17 -6 4 -8 10 -5 15 10 16 -7 40 -28 40 -11 0 -29 -7 -39 -16 -14 -14 -18 -14 -22 -3 -2 8 -8 25 -13 39 -4 14 -29 45 -55 69 l-47 42 -26 -41 c-20 -32 -24 -48 -19 -75 6 -33 5 -34 -33 -40 -21 -3 -45 -10 -53 -16 -56 -35 -110 -34 -110 1 0 28 -14 25 -48 -10 -17 -16 -38 -30 -46 -30 -18 0 -21 -21 -5 -37 6 -6 9 -23 7 -39 -3 -28 -6 -29 -65 -34 -47 -4 -68 -11 -87 -29 -23 -21 -29 -23 -52 -12 -20 9 -30 9 -40 0 -18 -15 -18 -43 1 -59 20 -17 19 -25 -7 -37 -15 -6 -32 -6 -51 1 -23 9 -35 7 -67 -12 -35 -20 -40 -20 -48 -6 -22 39 -75 -19 -87 -96 -3 -19 -10 -42 -16 -50 -8 -13 -12 -12 -26 8 -17 25 -55 29 -72 9 -6 -8 -14 -29 -17 -48 -12 -73 -19 -78 -98 -76 -68 1 -72 3 -92 32 -21 32 -29 33 -120 19 -31 -4 -49 -1 -67 11 -15 10 -34 14 -46 10 -11 -3 -28 -1 -39 6 -16 10 -26 8 -55 -10 l-36 -22 -60 41 c-52 36 -68 42 -119 43 -52 2 -63 6 -95 37 -20 19 -37 39 -37 45 0 5 16 22 35 38 29 23 40 26 75 21 38 -6 43 -4 78 33 52 57 122 114 132 108 17 -10 21 15 6 31 -9 8 -16 19 -16 24 0 11 -67 50 -85 50 -23 0 -48 -46 -41 -76 6 -21 0 -32 -29 -60 -20 -19 -44 -34 -54 -34 -9 0 -26 -7 -37 -15 -10 -8 -31 -15 -46 -15 -30 0 -84 -41 -93 -70 -8 -24 22 -132 38 -142 7 -4 22 -8 35 -8 12 0 31 -9 42 -20 11 -11 28 -20 38 -20 9 0 23 -9 30 -20 8 -13 23 -20 42 -20 20 0 33 -7 41 -22 16 -31 30 -39 55 -33 13 3 28 -3 39 -15 10 -11 31 -20 46 -20 22 0 32 -7 44 -30 13 -25 22 -30 50 -30 30 0 37 -5 50 -36 14 -35 16 -36 54 -29 34 6 40 4 46 -14 11 -37 33 -50 69 -44 31 5 36 2 51 -27 12 -23 22 -31 35 -27 11 3 47 2 82 -3 35 -4 72 -4 83 0 11 4 45 4 75 1 86 -10 122 4 210 80 44 38 84 69 89 69 13 0 22 29 15 54 -5 19 -1 21 36 21 28 0 42 -4 45 -15 3 -9 23 -24 46 -34 34 -15 45 -16 70 -6 24 10 35 10 55 -1 20 -10 29 -11 42 -1 33 24 43 24 67 2 29 -27 58 -15 74 31 13 37 35 34 39 -5 6 -50 62 -41 62 10 0 33 10 30 46 -13 27 -33 34 -36 48 -24 9 7 16 21 16 31 0 18 19 30 46 30 11 0 14 -9 12 -32 -3 -29 0 -33 22 -33 20 0 26 6 30 30 l5 30 79 0 c50 0 81 -4 83 -11 3 -8 15 -9 36 -5 38 9 129 2 125 -9 -2 -4 -35 -35 -75 -70 -74 -64 -93 -94 -74 -113 7 -7 161 -11 486 -12 428 -1 476 -3 493 -18 10 -9 24 -17 30 -17 42 0 163 104 189 162 8 18 21 28 40 30 37 4 40 41 3 46 -13 2 -33 10 -44 18 -25 17 -50 18 -77 2 -17 -11 -22 -10 -33 5 -20 26 -34 21 -38 -15 -4 -42 -17 -44 -55 -9 -39 36 -51 75 -30 99 16 19 18 93 2 99 -6 2 -30 -15 -52 -37 -23 -22 -45 -40 -48 -40 -4 0 -5 19 -3 43 3 42 3 42 -28 39 -26 -2 -36 3 -54 28 -23 33 -106 80 -140 80 -18 0 -21 -4 -16 -27 7 -34 -6 -58 -28 -50 -10 4 -16 18 -16 36 0 35 -8 41 -59 47 -24 3 -53 -3 -82 -15 l-44 -20 -17 22 c-10 12 -18 32 -18 45 0 49 -24 100 -58 123 -19 12 -38 33 -43 46 -10 28 -49 38 -90 24 -38 -13 -45 -10 -54 26 -3 16 -20 58 -36 94 -27 63 -28 69 -14 102 12 29 12 37 1 53 -12 16 -19 16 -52 7 -22 -6 -59 -8 -84 -5 -36 6 -46 11 -48 29 -4 30 -30 50 -38 30z"/>
 <path d="M3290 2987 c-45 -23 -32 -42 28 -40 59 3 71 -15 22 -34 -16 -6 -33 -20 -36 -30 -4 -10 -13 -25 -21 -35 -9 -10 -11 -18 -4 -22 5 -4 12 -2 16 4 10 16 91 12 105 -5 8 -10 26 -15 48 -13 29 2 40 -4 63 -31 18 -22 33 -32 43 -28 22 9 20 24 -4 37 -28 15 -25 40 4 40 14 0 28 5 31 10 3 6 15 10 27 10 11 0 38 10 59 22 34 19 44 20 72 10 19 -7 41 -12 51 -12 9 0 30 -7 46 -15 27 -14 31 -13 78 19 33 22 55 30 64 25 20 -13 62 -11 84 6 28 21 30 20 53 -30 20 -43 23 -45 64 -45 23 0 48 -4 56 -9 19 -12 41 -3 42 18 0 9 6 1 12 -17 16 -43 32 -52 73 -39 25 8 37 7 49 -3 10 -8 35 -13 60 -11 35 2 46 -1 55 -18 6 -12 21 -21 34 -21 13 0 29 -7 36 -15 12 -14 15 -14 36 0 29 19 53 19 79 -1 17 -13 18 -16 5 -24 -8 -5 -19 -11 -24 -13 -5 -2 -6 -9 -2 -15 10 -17 48 -15 72 3 10 8 28 15 39 15 48 0 60 47 15 56 -36 8 -31 18 23 45 23 11 52 32 64 47 12 14 25 24 28 20 9 -9 -13 -58 -27 -58 -24 0 -41 -57 -30 -101 11 -45 12 -44 -45 -54 -65 -10 -58 -36 18 -66 39 -15 69 -36 85 -56 17 -22 34 -33 50 -33 15 0 43 -15 66 -34 22 -19 57 -42 77 -51 20 -9 44 -20 53 -25 26 -15 58 -12 58 4 0 8 -4 18 -10 21 -13 8 -13 45 0 45 24 0 79 -30 89 -48 23 -43 132 -57 139 -19 5 25 -26 57 -54 57 -32 0 -54 10 -54 25 0 13 -62 65 -77 65 -13 0 -73 82 -67 92 6 10 100 -37 127 -64 10 -10 31 -18 47 -18 31 0 56 -19 86 -65 10 -15 28 -31 41 -36 31 -12 40 -37 18 -53 -12 -8 -14 -15 -7 -20 6 -3 15 1 20 10 8 14 12 14 47 0 52 -22 84 -20 112 6 19 18 26 20 32 9 7 -11 13 -11 32 3 33 22 40 20 37 -11 -3 -27 -1 -28 37 -25 22 1 61 3 88 3 51 1 55 7 31 44 -14 22 -15 25 -1 25 9 0 29 -11 45 -25 43 -36 85 -49 111 -35 25 13 26 20 6 46 -8 10 -15 26 -15 36 0 9 -14 25 -32 36 -18 11 -36 35 -42 54 -10 27 -16 33 -38 31 -19 -1 -35 7 -53 28 -14 17 -25 35 -25 40 0 20 31 20 63 0 19 -12 42 -21 51 -21 9 0 24 -13 34 -29 10 -16 30 -42 45 -58 56 -57 107 -121 107 -132 0 -8 -8 -10 -20 -6 -23 7 -27 -7 -6 -24 11 -10 16 -9 24 5 9 15 13 16 53 2 28 -10 52 -12 67 -7 24 9 29 38 10 57 -14 14 -11 17 25 26 29 7 37 -10 16 -31 -20 -20 1 -35 40 -28 28 5 41 2 51 -9 21 -26 51 -18 87 20 18 20 33 41 33 46 0 5 -13 14 -30 19 -29 11 -34 19 -31 47 2 14 -7 18 -60 26 l-35 6 10 50 c11 54 20 59 57 33 13 -10 33 -23 44 -29 11 -6 21 -22 23 -35 2 -13 16 -37 32 -54 15 -16 31 -47 34 -68 5 -27 14 -41 32 -49 13 -6 24 -15 24 -19 0 -4 26 -5 59 -2 38 4 61 2 65 -6 9 -14 73 -15 81 -1 4 6 13 7 23 1 9 -4 44 -6 78 -4 58 5 61 7 70 37 12 41 44 42 63 1 8 -16 19 -33 25 -37 13 -9 59 -10 80 -2 18 7 21 41 6 64 -6 10 -3 21 12 37 l21 23 -22 23 c-19 21 -20 25 -6 37 22 18 19 50 -4 50 -28 0 -101 51 -101 70 0 19 19 40 36 40 7 0 14 -15 16 -32 3 -28 7 -33 26 -30 16 1 25 -4 29 -17 3 -11 14 -22 25 -24 18 -5 20 -12 16 -56 -4 -40 -2 -51 9 -51 18 0 9 -52 -14 -88 -18 -28 -11 -52 16 -52 20 0 31 18 31 51 0 25 12 24 36 -2 15 -17 27 -20 63 -16 37 4 47 1 62 -16 16 -21 18 -21 51 -5 32 15 35 15 45 0 9 -15 13 -15 37 -3 21 12 34 12 59 4 18 -6 86 -14 152 -18 66 -4 126 -12 132 -17 7 -6 20 -7 29 -4 14 5 15 16 9 64 -4 31 -11 65 -17 75 -6 13 -6 23 3 33 10 12 9 21 -5 45 -16 28 -17 32 -2 48 17 18 22 51 8 51 -5 0 -16 6 -26 13 -16 12 -17 16 -5 35 11 18 10 24 -6 43 -37 41 -119 62 -155 39 -12 -8 -13 -13 -2 -30 16 -27 17 -26 -23 -65 -40 -41 -60 -43 -92 -13 -13 12 -42 24 -66 27 -46 7 -60 34 -19 39 52 8 26 72 -28 72 -16 0 -30 6 -33 14 -4 10 -17 13 -46 9 -45 -6 -50 1 -23 33 13 15 34 22 82 27 35 4 68 11 73 16 15 15 -2 31 -33 31 -27 0 -35 5 -68 45 -15 18 -45 19 -73 4 -16 -8 -18 -13 -8 -25 6 -8 21 -14 34 -14 28 0 38 -10 24 -26 -7 -8 -21 -11 -34 -8 -27 7 -47 -21 -64 -90 -14 -58 -4 -74 30 -48 45 35 111 38 68 3 -46 -37 -6 -141 53 -141 l29 0 -27 -23 c-22 -19 -25 -27 -16 -42 14 -26 -12 -78 -36 -73 -25 5 -27 38 -3 54 27 20 27 34 -2 34 -49 0 -97 86 -65 118 19 19 0 27 -20 9 -24 -22 -114 -23 -132 -2 -10 12 -8 16 15 25 14 5 31 10 36 10 16 0 10 19 -11 30 -11 6 -20 19 -20 30 0 32 -60 70 -113 70 -25 0 -49 5 -52 10 -11 18 -23 11 -30 -17 -3 -16 -16 -36 -28 -45 -19 -15 -20 -20 -9 -35 22 -33 35 -63 29 -69 -3 -4 -18 -4 -32 0 -18 5 -25 13 -25 31 0 16 -9 28 -27 37 -21 10 -28 21 -29 44 -1 45 -11 54 -57 54 -32 0 -46 6 -62 25 -18 23 -25 24 -76 19 -47 -6 -59 -11 -68 -31 -16 -36 -14 -49 14 -61 29 -13 36 -49 8 -37 -10 4 -30 10 -45 13 -21 3 -28 10 -28 27 0 24 -17 35 -54 35 -12 0 -26 4 -31 9 -6 5 -27 14 -48 21 -21 6 -51 23 -67 36 -22 19 -42 26 -85 27 -52 2 -58 0 -83 -31 -40 -48 -100 -42 -147 15 -17 21 -32 25 -97 30 -88 7 -113 -4 -103 -44 5 -21 3 -23 -22 -18 -79 17 -121 31 -153 50 -61 38 -190 21 -190 -25 0 -23 -10 -24 -59 -9 -77 25 -91 32 -91 46 0 9 -11 13 -32 13 -18 0 -46 2 -63 5 -18 4 -37 1 -49 -8 -16 -12 -17 -16 -5 -35 12 -20 10 -24 -25 -56 -43 -40 -40 -56 9 -56 42 0 132 -44 140 -69 7 -22 53 -41 100 -41 21 0 40 -9 55 -25 27 -29 48 -31 76 -10 18 14 18 16 -16 44 -25 21 -38 26 -47 19 -17 -14 -30 -3 -38 32 -4 16 -11 32 -16 35 -5 4 -9 13 -9 21 0 21 75 7 122 -22 20 -13 48 -26 63 -30 32 -8 42 -30 27 -55 -7 -10 -12 -25 -12 -33 0 -8 -8 -19 -17 -25 -14 -7 -15 -12 -5 -24 7 -8 23 -18 36 -21 13 -3 41 -28 62 -56 21 -27 43 -50 49 -50 14 0 75 -62 75 -77 0 -40 -74 -39 -90 1 -11 29 -56 66 -82 66 -12 0 -23 11 -30 30 -8 24 -24 37 -73 59 -34 16 -65 34 -69 40 -10 16 -61 13 -76 -4 -11 -13 -8 -22 13 -52 19 -27 23 -40 16 -49 -8 -10 -21 -6 -57 19 -53 37 -116 67 -137 67 -8 0 -20 9 -27 20 -8 12 -24 20 -41 20 -37 0 -87 27 -87 47 0 12 -7 14 -36 10 -25 -4 -37 -2 -40 8 -3 8 -19 17 -35 20 -16 4 -29 13 -29 20 0 11 6 12 23 6 13 -5 39 -3 66 5 43 13 44 13 75 -21 24 -25 38 -33 54 -28 12 3 22 8 22 10 0 17 -44 73 -56 73 -9 0 -12 5 -9 10 4 6 -14 30 -38 55 -25 25 -47 50 -49 57 -2 6 -12 9 -21 5 -13 -5 -16 -13 -11 -33 6 -22 4 -25 -12 -22 -15 3 -19 12 -17 41 2 33 0 37 -21 37 -13 0 -40 -16 -60 -35 -43 -40 -56 -43 -63 -15 -3 11 -9 20 -14 20 -16 0 -22 -29 -9 -45 6 -8 9 -19 5 -25 -8 -13 -72 -13 -80 0 -3 6 -21 10 -40 10 -43 0 -53 25 -24 56 19 20 20 26 8 40 -19 23 -75 12 -104 -21 -18 -19 -34 -25 -65 -25 -34 0 -41 -3 -38 -17 3 -14 13 -18 45 -17 34 0 43 -4 52 -23 6 -13 19 -23 30 -23 24 0 45 -25 37 -45 -7 -20 -50 -19 -81 1 -13 9 -29 13 -35 9 -10 -6 -70 24 -70 36 0 4 -7 14 -15 23 -12 12 -22 13 -42 5 -30 -11 -59 -4 -67 16 -3 9 -19 15 -39 15 -19 0 -40 7 -47 15 -21 25 -80 19 -112 -12 -24 -23 -32 -25 -46 -15 -9 7 -27 16 -39 22 -15 6 -23 18 -23 35 0 14 -6 26 -12 27 -118 14 -138 12 -210 -21 -82 -38 -93 -38 -115 -5 -14 22 -22 25 -49 21 -22 -4 -37 -1 -45 9 -15 19 -44 18 -64 -2 -12 -13 -13 -19 -4 -30 20 -24 -3 -37 -36 -20 -29 15 -57 10 -98 -19 -29 -20 -35 -19 -39 6 -2 12 -12 27 -23 33 -11 6 -31 19 -44 29 -28 20 -47 21 -81 4z"/>
 </g>

</svg>