<svg xmlns="http://www.w3.org/2000/svg" width="28.716" height="16.384" viewBox="0 0 28.716 16.384"><defs><style>.a{fill:#363636;}</style></defs><g transform="translate(0 -109.924)"><g transform="translate(0 109.924)"><path class="a" d="M28.46,124.538a12.8,12.8,0,0,0-2.852-3.3c-2.405-2.233-2.082-1.87.815-5.731,1.764-2.351,2.47-3.787,2.249-4.4-.21-.585-1.508-.431-1.508-.431l-4.315.025a.987.987,0,0,0-.558.1,1.215,1.215,0,0,0-.381.463,25,25,0,0,1-1.6,3.367c-1.922,3.265-2.692,3.437-3.006,3.234-.731-.472-.547-1.9-.547-2.911,0-3.164.479-4.484-.935-4.825a7.407,7.407,0,0,0-2.016-.2,9.322,9.322,0,0,0-3.583.366c-.492.241-.871.777-.639.808a1.935,1.935,0,0,1,1.274.641,4.157,4.157,0,0,1,.427,1.955s.255,3.724-.594,4.187c-.583.318-1.382-.33-3.1-3.294A27.624,27.624,0,0,1,6.058,111.4a1.275,1.275,0,0,0-.355-.479,1.789,1.789,0,0,0-.664-.267l-4.1.025s-.616.018-.842.285c-.2.239-.016.731-.016.731s3.213,7.515,6.849,11.3a9.856,9.856,0,0,0,7.124,3.245h1.716a1.447,1.447,0,0,0,.783-.343,1.25,1.25,0,0,0,.235-.754s-.034-2.3,1.036-2.642c1.054-.334,2.407,2.226,3.841,3.211a2.717,2.717,0,0,0,1.908.582l3.836-.054S29.411,126.116,28.46,124.538Z" transform="translate(0 -109.924)"/></g></g></svg>