<svg xmlns="http://www.w3.org/2000/svg" width="75" height="71.17" viewBox="0 0 75 71.17">
  <g id="ano" opacity="0.3">
    <g id="_1" data-name="1">
      <path id="Path_92" data-name="Path 92" d="M5.79,67.61H2.3l-.92,1.83H0l4-8.06,4.05,8.06H6.7Zm-.54-1.09L4,64,2.83,66.52Zm4.67-1.7h3.53V61.88h1.28v7.56H13.45V65.93H9.92v3.51H8.64V61.88H9.92v2.94Zm12.63-2.34a4.49,4.49,0,0,1,.94.85,3.78,3.78,0,0,1,.62,1.08,3.84,3.84,0,0,1,.23,1.25h0a4,4,0,0,1-.23,1.27A3.62,3.62,0,0,1,23.5,68a4.24,4.24,0,0,1-.94.85,5.12,5.12,0,0,1-1.19.54h0a4.92,4.92,0,0,1-1.37.19h0a4.82,4.82,0,0,1-1.37-.19h0a4.77,4.77,0,0,1-1.19-.54A4,4,0,0,1,16.5,68a3.65,3.65,0,0,1-.62-1.08,3.69,3.69,0,0,1-.22-1.27h0a3.83,3.83,0,0,1,.22-1.25,4.07,4.07,0,0,1,.63-1.08,4.26,4.26,0,0,1,.94-.85A4.594,4.594,0,0,1,20,61.71h0a4.59,4.59,0,0,1,2.55.76Zm-2.55,6a3.83,3.83,0,0,0,.95-.14,3.6,3.6,0,0,0,.84-.4,2.79,2.79,0,0,0,.67-.61,2.672,2.672,0,0,0,.45-2.57A2.65,2.65,0,0,0,22.5,64a2.91,2.91,0,0,0-.65-.61A3.12,3.12,0,0,0,21,63a3.47,3.47,0,0,0-1-.14A3.38,3.38,0,0,0,19,63a3,3,0,0,0-.84.41,2.91,2.91,0,0,0-.65.61,2.65,2.65,0,0,0-.41.78,2.73,2.73,0,0,0-.15.89,2.51,2.51,0,0,0,.16.9,2.74,2.74,0,0,0,.44.78,2.79,2.79,0,0,0,.67.61,3.26,3.26,0,0,0,.84.4,3.7,3.7,0,0,0,.95.14Zm9.68-2.28,1.61,1.88-.82.55L28.38,66.2l2.08-2.51.83.55-1.61,2Zm-2,0,1.61-2-.82-.55-2.09,2.51,2.09,2.43.82-.55-1.61-1.88ZM38.5,69.43H32.63V61.88H33.9v6.45h3.54V61.88h1.28v6.45h1v2.84H38.46V69.44ZM45.26,63H41.72v6.45H40.44V61.88h6.1v7.56H45.26Zm3.6,2.68a2.67,2.67,0,0,0,.15.88,2.94,2.94,0,0,0,.42.78,3.14,3.14,0,0,0,.64.62,3.06,3.06,0,0,0,.83.41,3.51,3.51,0,0,0,1,.15,3.61,3.61,0,0,0,1.1-.2,3.35,3.35,0,0,0,1-.54l.23-.19V69h-.07a3.48,3.48,0,0,1-.69.29,4.7,4.7,0,0,1-.74.18h0a4.52,4.52,0,0,1-.74.06,4.8,4.8,0,0,1-1.36-.19,4.54,4.54,0,0,1-1.18-.55,4,4,0,0,1-.94-.84,3.7,3.7,0,0,1-.62-1.07,3.53,3.53,0,0,1-.22-1.24h0a3.69,3.69,0,0,1,.22-1.27,4,4,0,0,1,.63-1.09h0a4.33,4.33,0,0,1,1-.86,4.74,4.74,0,0,1,1.21-.55,4.67,4.67,0,0,1,1.39-.2,4.83,4.83,0,0,1,1.08.12,4.23,4.23,0,0,1,1,.39h.07v1.41l-.23-.19a3.42,3.42,0,0,0-.61-.37,3.29,3.29,0,0,0-.69-.23,3.53,3.53,0,0,0-.72-.08,3.24,3.24,0,0,0-1,.15,2.8,2.8,0,0,0-.83.41,2.74,2.74,0,0,0-.65.62,2.94,2.94,0,0,0-.42.78,2.74,2.74,0,0,0-.15.9Zm8.42,2.84a3.68,3.68,0,0,0,.94-.14h0A2.87,2.87,0,0,0,59,68a3,3,0,0,0,.64-.59,2.84,2.84,0,0,0,.44-.75,2.94,2.94,0,0,0,.17-.71H56V64.82h4.18a2.67,2.67,0,0,0-.34-.7,3.08,3.08,0,0,0-.66-.69h0a3.1,3.1,0,0,0-.86-.46,3.26,3.26,0,0,0-1-.16,3.45,3.45,0,0,0-.72.08,3.29,3.29,0,0,0-.69.23,3.1,3.1,0,0,0-.61.37l-.23.19V62.27h.06a4.48,4.48,0,0,1,1-.39,4.83,4.83,0,0,1,1.08-.12,4.67,4.67,0,0,1,1.39.2,4.74,4.74,0,0,1,1.21.55,4.33,4.33,0,0,1,.95.86,3.7,3.7,0,0,1,.62,1.09,4,4,0,0,1,.23,1.27h0a3.78,3.78,0,0,1-.23,1.24A3.67,3.67,0,0,1,60.73,68a4,4,0,0,1-.94.84,4.54,4.54,0,0,1-1.18.55,4.8,4.8,0,0,1-1.36.19,4.52,4.52,0,0,1-.74-.06h0a5,5,0,0,1-.74-.18,3.39,3.39,0,0,1-.68-.29L55,69V67.59l.23.19a3.3,3.3,0,0,0,.95.54,3.67,3.67,0,0,0,1.09.19Zm10.19-4L62.62,70V61.9H63.9v4.85l4.85-5.43v8.14H67.47v-5Zm4.21,1.73-1.6-2,.82-.55L73,66.21l-2.09,2.43-.82-.55,1.61-1.88Zm2,0-1.61,1.88.82.55L75,66.21,72.94,63.7l-.82.55Z" fill="#fff" fill-rule="evenodd"/>
      <path id="Path_93" data-name="Path 93" d="M30.85,9.24l3.3,4.46V32.11c-1.25-.2-2-.32-3.29-.5L30.78,9Z" fill="#fff" fill-rule="evenodd"/>
      <path id="Path_94" data-name="Path 94" d="M20.63,31.06V9.93l1.24-2,2,6.28L28.25,0l2.34,8.57v23l-1.93-.25a48.57,48.57,0,0,0-8.03-.26Z" fill="#fff" fill-rule="evenodd"/>
      <path id="Path_95" data-name="Path 95" d="M10.63,29.56v-1.2h0c2.22-.65,2.57-4.26,2.55-5.66A6.1,6.1,0,0,0,10.59,24v-.66c1-1.22.94-3.68.5-5.22l2.55-2.46,4-.87,3-4.94V31.06q-1.23.06-2.4.18a30,30,0,0,0-5.68,1,7.89,7.89,0,0,0,1.14-4.55,6.57,6.57,0,0,0-3.07,1.87Z" fill="#fff" fill-rule="evenodd"/>
      <path id="Path_96" data-name="Path 96" d="M34.36,17.14v15l1.74.28c2,.32,3.9.65,5.86,1V16.18Z" fill="#fff" fill-rule="evenodd"/>
      <path id="Path_97" data-name="Path 97" d="M34.36,12.22v3.43l7.6-.95V10.83Z" fill="#fff" fill-rule="evenodd"/>
      <path id="Path_98" data-name="Path 98" d="M41.96,5.95l-7.6,1.67v3.26l7.6-1.39Z" fill="#fff" fill-rule="evenodd"/>
      <path id="Path_99" data-name="Path 99" d="M50.75,11.7l5.17,1.61V34.65c-1.72,0-3.45-.09-5.17-.2Z" fill="#fff" fill-rule="evenodd"/>
      <path id="Path_100" data-name="Path 100" d="M56.73,18.27l4.72,1.17a5.07,5.07,0,0,0,.45,3.41v.88a5.91,5.91,0,0,0-2.46-1.25c0,1.9.5,5.27,2.46,6v.87A7.47,7.47,0,0,0,59,27.66c-.17,2.16,1.07,6.18,2.9,5.73v1l-.47.06a8.22,8.22,0,0,0-2.72-2.85,11.61,11.61,0,0,0-.34,3H56.73Z" fill="#fff" fill-rule="evenodd"/>
      <path id="Path_101" data-name="Path 101" d="M42.26,6l7.6,1.8V34.39h-.54c-2-.15-4-.45-6-.75l-1.05-.17Z" fill="#fff" fill-rule="evenodd"/>
      <path id="Path_102" data-name="Path 102" d="M36.73,48l.73,2.1h2.38l-1.93,1.29.74,2.1-1.92-1.3-1.93,1.3.74-2.1L33.61,50.1h2.38Z" fill="#fff" fill-rule="evenodd"/>
      <path id="Path_103" data-name="Path 103" d="M55.57,36.28a24.63,24.63,0,0,1-2.64,2.19c-10.2,1.59-16-2.43-25.6-3.23a24.09,24.09,0,0,0-9.67.66l-1.18-1.61a26.9,26.9,0,0,1,11.57-.86c8.43.84,16.83,4,24.41,3.17C52.81,36.56,55.23,36.34,55.57,36.28Z" fill="#fff" fill-rule="evenodd"/>
      <path id="Path_104" data-name="Path 104" d="M51.17,40.16,48.65,42c-6.1.08-12.75-1.86-18.77-3-3.5-.65-6.8-1.19-10.18-.3l-1.15-1.6a28.59,28.59,0,0,1,7.71-.46C34.54,37.66,43.31,40.93,51.17,40.16Z" fill="#fff" fill-rule="evenodd"/>
      <path id="Path_105" data-name="Path 105" d="M47.52,43.13,45.15,45c-4.84,0-10.24-1.81-15-2.92-2.78-.64-5.52-1.09-8.21-.26l-1.06-1.48a20.32,20.32,0,0,1,6.39-.53C33.82,40.75,41.27,43.82,47.52,43.13Z" fill="#fff" fill-rule="evenodd"/>
      <path id="Path_106" data-name="Path 106" d="M8.44,23.2c-1.35-1.46.08-4.39,2.09-6,.52,1.43,1.14,5.34-.58,6.21a1.67,1.67,0,0,1-1.51-.21Z" fill="#fff" fill-rule="evenodd"/>
      <path id="Path_107" data-name="Path 107" d="M9.38,27.44c-.74-1.68,1.4-3.79,3.63-4.55,0,1.4-.62,5-2.39,5.23a1.5,1.5,0,0,1-1.24-.68Z" fill="#fff" fill-rule="evenodd"/>
      <path id="Path_108" data-name="Path 108" d="M9.23,32.66C10,31,7.82,28.86,5.59,28.11c0,1.4.63,5,2.4,5.23a1.52,1.52,0,0,0,1.24-.68Z" fill="#fff" fill-rule="evenodd"/>
      <path id="Path_109" data-name="Path 109" d="M10.9,37.68c.4-1.79-2.1-3.46-4.44-3.78C6.7,35.28,8,38.69,9.81,38.58a1.51,1.51,0,0,0,1.09-.9Z" fill="#fff" fill-rule="evenodd"/>
      <path id="Path_110" data-name="Path 110" d="M13.31,41.7c-.12-1.83-3-2.74-5.31-2.39.61,1.26,2.83,4.16,4.51,3.56a1.5,1.5,0,0,0,.8-1.17Z" fill="#fff" fill-rule="evenodd"/>
      <path id="Path_111" data-name="Path 111" d="M14.13,41.64c-1.43-1.15-.53-4,1.09-5.72.68,1.22,1.78,4.71.32,5.74a1.5,1.5,0,0,1-1.41-.02Z" fill="#fff" fill-rule="evenodd"/>
      <path id="Path_112" data-name="Path 112" d="M16.88,44.9c-1.43-1.15-.53-4,1.09-5.72.68,1.22,1.78,4.71.33,5.74a1.52,1.52,0,0,1-1.42-.02Z" fill="#fff" fill-rule="evenodd"/>
      <path id="Path_113" data-name="Path 113" d="M21.45,47.47c-1.74-.57-1.9-3.57-1-5.74,1.07.91,3.32,3.79,2.32,5.26A1.5,1.5,0,0,1,21.45,47.47Z" fill="#fff" fill-rule="evenodd"/>
      <path id="Path_114" data-name="Path 114" d="M25.9,49.33C24.09,49,23.54,46,24.16,43.77c1.17.76,3.79,3.32,3,4.91A1.48,1.48,0,0,1,25.9,49.33Z" fill="#fff" fill-rule="evenodd"/>
      <path id="Path_115" data-name="Path 115" d="M31.73,50.6c-1.79.42-3.48-2.07-3.82-4.4,1.39.23,4.81,1.52,4.71,3.3a1.49,1.49,0,0,1-.89,1.1Z" fill="#fff" fill-rule="evenodd"/>
      <path id="Path_116" data-name="Path 116" d="M31.61,52.07c-1.3-1.3-4.05-.07-5.56,1.73,1.29.54,4.88,1.23,5.74-.33a1.52,1.52,0,0,0-.18-1.4Z" fill="#fff" fill-rule="evenodd"/>
      <path id="Path_117" data-name="Path 117" d="M16.21,46.86c-1.55,1-4-.77-5.08-2.85,1.37-.25,5-.19,5.54,1.52a1.5,1.5,0,0,1-.46,1.33Z" fill="#fff" fill-rule="evenodd"/>
      <path id="Path_118" data-name="Path 118" d="M21.59,50.15c-1.36,1.51-4.46.32-6.24-1.57,1.39-.67,5.31-1.66,6.35,0a1.67,1.67,0,0,1-.11,1.57Z" fill="#fff" fill-rule="evenodd"/>
      <path id="Path_119" data-name="Path 119" d="M26.43,52.1c-.95,1.54-3.86,1-5.72-.38,1.12-.81,4.39-2.3,5.57-1a1.45,1.45,0,0,1,.15,1.38Z" fill="#fff" fill-rule="evenodd"/>
      <path id="Path_120" data-name="Path 120" d="M11.42,37.26c-1.1-1.47.49-4,2.49-5.26.35,1.35.54,5-1.13,5.63A1.47,1.47,0,0,1,11.42,37.26Z" fill="#fff" fill-rule="evenodd"/>
      <path id="Path_121" data-name="Path 121" d="M9.87,32.47c-.71-1.7,1.45-3.79,3.69-4.52,0,1.4-.68,5-2.45,5.21a1.56,1.56,0,0,1-1.24-.69Z" fill="#fff" fill-rule="evenodd"/>
      <path id="Path_122" data-name="Path 122" d="M8.77,27.47c.73-1.68-1.41-3.79-3.64-4.55,0,1.4.63,5,2.4,5.23a1.5,1.5,0,0,0,1.24-.68Z" fill="#fff" fill-rule="evenodd"/>
      <path id="Path_123" data-name="Path 123" d="M64.28,23.17c1.36-1.46-.08-4.38-2.08-6-.53,1.42-1.15,5.33.57,6.2a1.67,1.67,0,0,0,1.51-.2Z" fill="#fff" fill-rule="evenodd"/>
      <path id="Path_124" data-name="Path 124" d="M63.34,27.42c.74-1.69-1.4-3.8-3.63-4.56,0,1.4.62,5,2.39,5.23a1.51,1.51,0,0,0,1.24-.67Z" fill="#fff" fill-rule="evenodd"/>
      <path id="Path_125" data-name="Path 125" d="M63.5,32.63c-.74-1.68,1.4-3.8,3.63-4.55,0,1.4-.63,5-2.39,5.23a1.51,1.51,0,0,1-1.24-.68Z" fill="#fff" fill-rule="evenodd"/>
      <path id="Path_126" data-name="Path 126" d="M61.82,37.65c-.4-1.79,2.1-3.46,4.44-3.78-.24,1.38-1.56,4.79-3.35,4.68a1.51,1.51,0,0,1-1.09-.9Z" fill="#fff" fill-rule="evenodd"/>
      <path id="Path_127" data-name="Path 127" d="M59.41,41.67c.12-1.83,3-2.73,5.31-2.39-.61,1.26-2.83,4.16-4.51,3.56a1.52,1.52,0,0,1-.8-1.17Z" fill="#fff" fill-rule="evenodd"/>
      <path id="Path_128" data-name="Path 128" d="M58.59,41.61c1.44-1.15.53-4-1.09-5.72-.68,1.22-1.78,4.71-.32,5.74a1.5,1.5,0,0,0,1.41-.02Z" fill="#fff" fill-rule="evenodd"/>
      <path id="Path_129" data-name="Path 129" d="M55.84,44.87c1.43-1.15.53-4-1.09-5.72-.68,1.22-1.78,4.71-.32,5.74a1.5,1.5,0,0,0,1.41-.02Z" fill="#fff" fill-rule="evenodd"/>
      <path id="Path_130" data-name="Path 130" d="M51.27,47.44c1.75-.56,1.91-3.57,1-5.74-1.06.91-3.32,3.79-2.32,5.27a1.5,1.5,0,0,0,1.32.47Z" fill="#fff" fill-rule="evenodd"/>
      <path id="Path_131" data-name="Path 131" d="M46.82,49.3c1.81-.33,2.36-3.29,1.74-5.56-1.17.76-3.79,3.32-3,4.91a1.46,1.46,0,0,0,1.26.65Z" fill="#fff" fill-rule="evenodd"/>
      <path id="Path_132" data-name="Path 132" d="M41,50.57c1.79.42,3.48-2.07,3.82-4.4-1.38.23-4.8,1.52-4.71,3.3a1.49,1.49,0,0,0,.89,1.1Z" fill="#fff" fill-rule="evenodd"/>
      <path id="Path_133" data-name="Path 133" d="M41.11,52c1.31-1.3,4-.07,5.56,1.73-1.29.54-4.88,1.24-5.74-.33A1.52,1.52,0,0,1,41.11,52Z" fill="#fff" fill-rule="evenodd"/>
      <path id="Path_134" data-name="Path 134" d="M56.52,46.83c1.54,1,4-.77,5.08-2.85-1.38-.25-5-.19-5.55,1.52a1.48,1.48,0,0,0,.47,1.33Z" fill="#fff" fill-rule="evenodd"/>
      <path id="Path_135" data-name="Path 135" d="M51.14,50.12c1.35,1.51,4.46.33,6.23-1.57-1.39-.67-5.31-1.66-6.35,0a1.64,1.64,0,0,0,.12,1.57Z" fill="#fff" fill-rule="evenodd"/>
      <path id="Path_136" data-name="Path 136" d="M46.29,52.07c1,1.54,3.86,1,5.72-.38-1.11-.81-4.39-2.3-5.57-1A1.5,1.5,0,0,0,46.29,52.07Z" fill="#fff" fill-rule="evenodd"/>
      <path id="Path_137" data-name="Path 137" d="M61.3,37.23c1.11-1.47-.49-4-2.49-5.26-.35,1.35-.54,5,1.13,5.64a1.51,1.51,0,0,0,1.36-.38Z" fill="#fff" fill-rule="evenodd"/>
      <path id="Path_138" data-name="Path 138" d="M62.85,32.44c.71-1.69-1.45-3.78-3.68-4.52,0,1.4.67,5,2.44,5.21a1.56,1.56,0,0,0,1.24-.69Z" fill="#fff" fill-rule="evenodd"/>
      <path id="Path_139" data-name="Path 139" d="M64,27.45c-.73-1.69,1.41-3.8,3.64-4.56,0,1.4-.63,5-2.4,5.23A1.51,1.51,0,0,1,64,27.45Z" fill="#fff" fill-rule="evenodd"/>
    </g>
  </g>
</svg>
