<svg xmlns="http://www.w3.org/2000/svg" width="168.556" height="35.851" viewBox="0 0 168.556 35.851">
  <g id="centr" transform="translate(0 0.001)" opacity="0.3">
    <g id="_1" data-name="1" transform="translate(0 -0.001)">
      <path id="Path_140" data-name="Path 140" d="M67.12,25.295v5.438H64.095V28.2h-8.4V14.98h3.02V25.295h3.972V14.98H65.7V25.295Z" transform="translate(-23.163 -6.23)" fill="#fff" fill-rule="evenodd"/>
      <path id="Path_141" data-name="Path 141" d="M87.131,25.295V28.2H78.82V14.98h8.218v2.909h-5.2v2.19h4.725v2.874H81.84v2.342Z" transform="translate(-32.784 -6.23)" fill="#fff" fill-rule="evenodd"/>
      <path id="Path_142" data-name="Path 142" d="M106.974,14.98V28.2h-3.025V22.953H99.79V28.2H96.77V14.98h3.02v5.058h4.159V14.98Z" transform="translate(-40.25 -6.23)" fill="#fff" fill-rule="evenodd"/>
      <path id="Path_143" data-name="Path 143" d="M127.134,17.889h-3.4V28.2h-3.025V17.889h-3.4V14.98h9.824Z" transform="translate(-48.793 -6.23)" fill="#fff" fill-rule="evenodd"/>
      <path id="Path_144" data-name="Path 144" d="M143.822,19.52a1.618,1.618,0,0,0-1.606-1.7H140.23v3.4h1.986a1.618,1.618,0,0,0,1.606-1.7Zm3.02,0a4.544,4.544,0,0,1-4.626,4.532H140.23v4.159h-3.02V15h5.005a4.544,4.544,0,0,1,4.626,4.521Z" transform="translate(-57.07 -6.238)" fill="#fff" fill-rule="evenodd"/>
      <path id="Path_145" data-name="Path 145" d="M160.863,23.3l-1.548-4.854L157.767,23.3Zm.911,2.833h-4.912l-.66,2.079H152.89L157.387,15h3.855l4.5,13.223h-3.306Z" transform="translate(-63.592 -6.238)" fill="#fff" fill-rule="evenodd"/>
      <path id="Path_146" data-name="Path 146" d="M176.35,25.379c1.361.2,2.19-.21,2.19-2.418V15h9.146V28.212h-3.025V17.92h-3.1v4.947c0,4.725-2.78,5.63-5.216,5.368Z" transform="translate(-73.35 -6.238)" fill="#fff" fill-rule="evenodd"/>
      <path id="Path_147" data-name="Path 147" d="M207.053,23.673a1.618,1.618,0,0,0-1.618-1.7H203.45v3.405h1.986a1.624,1.624,0,0,0,1.606-1.705Zm3.02,0a4.544,4.544,0,0,1-4.638,4.538H200.43V15h3.02v4.153h1.986a4.544,4.544,0,0,1,4.638,4.521Z" transform="translate(-83.365 -6.238)" fill="#fff" fill-rule="evenodd"/>
      <path id="Path_148" data-name="Path 148" d="M230.544,14.98V28.2h-3.025V22.953H223.36V28.2h-3.02V14.98h3.02v5.058h4.159V14.98Z" transform="translate(-91.646 -6.23)" fill="#fff" fill-rule="evenodd"/>
      <path id="Path_149" data-name="Path 149" d="M253.27,15h3.02V28.212h-3.02Zm-5.765,10.391a1.7,1.7,0,0,0,0-3.405H245.52v3.405ZM242.5,15h3.02v4.153h1.986a4.538,4.538,0,1,1,0,9.071H242.5Z" transform="translate(-100.864 -6.238)" fill="#fff" fill-rule="evenodd"/>
      <path id="Path_150" data-name="Path 150" d="M273.165,8.86h5.665v2.459h-5.665Zm5.005,9.62-5.1,7.178H270.8V12.446h3.037v7.167l5.087-7.167h2.266V25.658h-3.02Z" transform="translate(-112.634 -3.685)" fill="#fff" fill-rule="evenodd"/>
      <path id="Path_151" data-name="Path 151" d="M61.2,51.385l-2.144-2.412v2.412h-.374V48.973l-2.144,2.412H56.1l2.214-2.506L56.17,46.52h.438l2.073,2.272V46.52h.374v2.272l2.073-2.272h.438l-2.144,2.36,2.214,2.506Z" transform="translate(-23.334 -19.349)" fill="#fff" fill-rule="evenodd"/>
      <path id="Path_152" data-name="Path 152" d="M56.171,51.174h.146l2.12-2.395h0L56.4,46.543h-.14L58.3,48.791l-2.114,2.395Zm2.447,0h.169V46.531h-.152v4.643Zm2.459,0h.14L59.1,48.78l2.021-2.249h-.117L58.951,48.78h0l2.114,2.377Zm.631.2h-.73l-1.986-2.231v2.231h-.584V49.165l-1.992,2.208H55.68l2.336-2.611L55.773,46.28h.736l1.916,2.1v-2.1h.584v2.1l1.916-2.1h.736l-2.243,2.482Z" transform="translate(-23.159 -19.249)" fill="#fff" fill-rule="evenodd"/>
      <path id="Path_153" data-name="Path 153" d="M71.261,47.193l-2.879,4.188H68.06V46.51h.368V50.7L71.3,46.51h.327v4.871h-.368Z" transform="translate(-28.308 -19.345)" fill="#fff" fill-rule="evenodd"/>
      <path id="Path_154" data-name="Path 154" d="M71.293,51.191h.158V46.548h-.158l-3.055,4.433V46.548h-.146v4.643h.152l3.049-4.433Zm.368.222h-.584V47.471L68.361,51.39H67.87V46.32h.584v3.942l2.7-3.942h.5Z" transform="translate(-28.229 -19.265)" fill="#fff" fill-rule="evenodd"/>
      <path id="Path_155" data-name="Path 155" d="M76.62,51.054c.642.076,1.051-.321,1.051-1.752V46.51h3.084v4.871h-.38V46.86H78.039v2.465c0,1.618-.52,2.132-1.419,2.056Z" transform="translate(-31.869 -19.345)" fill="#fff" fill-rule="evenodd"/>
      <path id="Path_156" data-name="Path 156" d="M76.652,51.176a1.016,1.016,0,0,0,.736-.228,2.387,2.387,0,0,0,.461-1.752V46.65h2.558V51.17h.158V46.5H77.7v2.7a2.193,2.193,0,0,1-.45,1.653.788.788,0,0,1-.584.2v.1Zm.058.222h-.28v-.584h.123a.66.66,0,0,0,.584-.134,2.091,2.091,0,0,0,.374-1.489V46.27h3.306v5.1h-.584v-4.5H78.071v2.336a2.536,2.536,0,0,1-.532,1.887,1.168,1.168,0,0,1-.829.3Z" transform="translate(-31.79 -19.245)" fill="#fff" fill-rule="evenodd"/>
      <path id="Path_157" data-name="Path 157" d="M91.123,48.891a2.132,2.132,0,1,0-.618,1.531A2.144,2.144,0,0,0,91.123,48.891Zm-4.673,0a1.039,1.039,0,1,0,.018,0Z" transform="translate(-35.957 -19.29)" fill="#fff" fill-rule="evenodd"/>
      <path id="Path_158" data-name="Path 158" d="M88.912,46.768a2.05,2.05,0,1,0,2.033,2.044,2.021,2.021,0,0,0-2.033-2.044Zm0,4.316a2.272,2.272,0,1,1,2.255-2.272,2.243,2.243,0,0,1-2.255,2.272Zm0-4.673a2.377,2.377,0,1,1-1.7.7A2.4,2.4,0,0,1,88.912,46.412Zm0,5.023a2.6,2.6,0,1,1,1.861-.761,2.622,2.622,0,0,1-1.861.761Z" transform="translate(-35.891 -19.211)" fill="#fff" fill-rule="evenodd"/>
      <path id="Path_159" data-name="Path 159" d="M98.779,45h1.752v.31H98.779Zm2.3,1.595L98.2,50.782H97.88v-4.9h.368v4.194l2.874-4.194h.333v4.871h-.368Z" transform="translate(-40.711 -18.716)" fill="#fff" fill-rule="evenodd"/>
      <path id="Path_160" data-name="Path 160" d="M98.811,45.07h1.536v-.088H98.811Zm1.752.222H98.589V44.76h1.98v.532Zm.543,5.257h.146V45.876H101.1l-3.043,4.439V45.893h-.146v4.673h.152l3.049-4.433v4.433Zm.368.222h-.584V46.822l-2.71,3.919H97.69v-5.07h.584v3.942l2.7-3.942h.5Z" transform="translate(-40.632 -18.617)" fill="#fff" fill-rule="evenodd"/>
      <path id="Path_161" data-name="Path 161" d="M114.449,51.385l-2.441-2.4v2.4h-.368V46.52h.368v2.266l2.371-2.266h.5l-2.465,2.36,2.535,2.506Z" transform="translate(-46.435 -19.349)" fill="#fff" fill-rule="evenodd"/>
      <path id="Path_162" data-name="Path 162" d="M111.676,51.191h.146V46.519h-.146Zm2.745,0h.181L112.178,48.8l2.336-2.255h-.175L112,48.8l2.43,2.389Zm.718.222h-.806l-2.29-2.243V51.39h-.584V46.32h.584v2.149l2.219-2.12h.812L112.5,48.831Z" transform="translate(-46.36 -19.265)" fill="#fff" fill-rule="evenodd"/>
      <path id="Path_163" data-name="Path 163" d="M122.716,50.059a.97.97,0,0,0-.964-.981H120v1.962h1.752a.97.97,0,0,0,.964-.981Zm-2.693-3.195v1.863h1.583a.935.935,0,0,0,0-1.863Zm3.061,3.195a1.32,1.32,0,0,1-1.332,1.326h-2.1V46.52h1.957a1.279,1.279,0,0,1,1.279,1.279,1.168,1.168,0,0,1-.625,1.063,1.285,1.285,0,0,1,.824,1.2Z" transform="translate(-49.766 -19.349)" fill="#fff" fill-rule="evenodd"/>
      <path id="Path_164" data-name="Path 164" d="M120.056,48.534h1.472a.824.824,0,0,0,0-1.641h-1.46v1.641Zm1.46.222h-1.682V46.67h1.694a1.045,1.045,0,0,1,0,2.085Zm-1.46,2.091h1.618a.876.876,0,1,0,0-1.752h-1.618Zm1.618.222h-1.84V48.884h1.84a1.092,1.092,0,0,1,0,2.184Zm-1.992.123V46.548h1.846a1.168,1.168,0,0,1,1.168,1.168,1.063,1.063,0,0,1-.584.964l-.216.117.228.088a1.168,1.168,0,0,1,.765,1.092,1.221,1.221,0,0,1-1.221,1.215Zm1.992.222H119.46V46.32h2.068a1.4,1.4,0,0,1,1.39,1.4,1.3,1.3,0,0,1-.508,1.045,1.4,1.4,0,0,1,.718,1.215,1.443,1.443,0,0,1-1.454,1.413Z" transform="translate(-49.687 -19.265)" fill="#fff" fill-rule="evenodd"/>
      <path id="Path_165" data-name="Path 165" d="M130.591,49.8l-1.081-2.833L128.425,49.8Zm.128.345h-2.441l-.473,1.238h-.385l1.892-4.871h.385l1.887,4.871H131.2Z" transform="translate(-52.998 -19.345)" fill="#fff" fill-rule="evenodd"/>
      <path id="Path_166" data-name="Path 166" d="M128.466,49.621h1.846l-.917-2.441Zm2.167.222h-2.488l1.25-3.282,1.244,3.253Zm.526,1.361-.473-1.238h-2.6l-.444,1.209h-.152l1.811-4.643h.234l1.8,4.643Zm.473.222H131l-.473-1.238h-2.3l-.461,1.186h-.625l1.98-5.093h.537Z" transform="translate(-52.882 -19.249)" fill="#fff" fill-rule="evenodd"/>
      <path id="Path_167" data-name="Path 167" d="M139.786,48.023a1.116,1.116,0,0,0-1.168-1.168h-1.285v2.336h1.285a1.116,1.116,0,0,0,1.168-1.168Zm.368,0a1.472,1.472,0,0,1-1.519,1.5H137.35v1.857H137V46.51h1.653a1.478,1.478,0,0,1,1.5,1.513Z" transform="translate(-56.983 -19.344)" fill="#fff" fill-rule="evenodd"/>
      <path id="Path_168" data-name="Path 168" d="M137.37,48.989h1.168a1.051,1.051,0,0,0,0-2.1H137.37Zm1.168.222h-1.4V46.67h1.4a1.273,1.273,0,0,1,0,2.541ZM137,51.191V46.548h1.542a1.4,1.4,0,1,1,0,2.786h-1.4v1.857Zm.368.222h-.584V46.32h1.752a1.618,1.618,0,0,1,0,3.236h-1.168Z" transform="translate(-56.891 -19.265)" fill="#fff" fill-rule="evenodd"/>
      <path id="Path_169" data-name="Path 169" d="M147.594,46.865h-1.53v4.521h-.374V46.865h-1.53V46.52h3.434Z" transform="translate(-59.961 -19.349)" fill="#fff" fill-rule="evenodd"/>
      <path id="Path_170" data-name="Path 170" d="M145.752,51.183h.152V46.662h1.53v-.123h-3.212v.123h1.53Zm.374.222h-.584V46.884H144V46.3h3.656v.584h-1.53Z" transform="translate(-59.894 -19.257)" fill="#fff" fill-rule="evenodd"/>
      <path id="Path_171" data-name="Path 171" d="M154.271,49.8l-1.086-2.833L152.1,49.8Zm.134.345h-2.441l-.473,1.238H151.1l1.892-4.871h.385l1.887,4.871h-.385Z" transform="translate(-62.847 -19.345)" fill="#fff" fill-rule="evenodd"/>
      <path id="Path_172" data-name="Path 172" d="M152.146,49.621h1.846l-.923-2.412Zm2.173.222h-2.494l1.244-3.253Zm.52,1.361-.473-1.238h-2.6l-.473,1.238h-.146l1.8-4.643h.234l1.828,4.614Zm.473.222h-.625l-.479-1.238h-2.284l-.473,1.186h-.631l1.98-5.093h.537Z" transform="translate(-62.731 -19.249)" fill="#fff" fill-rule="evenodd"/>
      <path id="Path_173" data-name="Path 173" d="M159.83,51.054c.637.076,1.051-.321,1.051-1.752V46.51h3.078v4.871h-.374V46.86h-2.336v2.465c0,1.618-.526,2.132-1.419,2.056Z" transform="translate(-66.478 -19.345)" fill="#fff" fill-rule="evenodd"/>
      <path id="Path_174" data-name="Path 174" d="M159.842,51.176a1.01,1.01,0,0,0,.73-.228,2.357,2.357,0,0,0,.467-1.752V46.65H163.6V51.17h.152V46.5h-2.856v2.7a2.218,2.218,0,0,1-.45,1.653.806.806,0,0,1-.584.2v.1Zm.053.222h-.275v-.584h.123a.666.666,0,0,0,.584-.134,2.091,2.091,0,0,0,.374-1.489V46.27H164v5.1h-.584v-4.5H161.3v2.336a2.509,2.509,0,0,1-.537,1.887,1.168,1.168,0,0,1-.859.3Z" transform="translate(-66.391 -19.245)" fill="#fff" fill-rule="evenodd"/>
      <path id="Path_175" data-name="Path 175" d="M16.21,18.234H20.3V9.146h3.125v9.088h1.466v6.121c2.587-4.959,4.953-10.25,4.953-13.077A11.442,11.442,0,0,0,18.3,0,11.681,11.681,0,0,0,16.21.192Z" transform="translate(-6.742 0.001)" fill="#fff" fill-rule="evenodd"/>
      <path id="Path_176" data-name="Path 176" d="M15.028,21.681H6.349V2.08A11.226,11.226,0,0,0,0,12.143c0,6.244,11.553,24.572,11.553,24.572s1.53-2.43,3.475-5.841Z" transform="translate(0 -0.865)" fill="#fff" fill-rule="evenodd"/>
    </g>
  </g>
</svg>
