<svg xmlns="http://www.w3.org/2000/svg" width="276.434" height="50.122" viewBox="0 0 276.434 50.122">
  <g id="dpo" transform="translate(-0.001 -0.031)" opacity="0.3">
    <g id="_1" data-name="1" transform="translate(0.001 0.03)">
      <path id="Path_219" data-name="Path 219" d="M71.562,28.3l2.007,6.374H71.93l-.388-1.338H69.489l-.4,1.338H67.75L69.8,28.3ZM69.85,32.155h1.338l-.669-2.234Zm9.3-3.879V34.65H77.682v-2.6H75.676v2.629H74.231V28.3H75.7v2.515H77.7V28.3Zm3.679,6.474a2.314,2.314,0,0,1-2.007-.97,3.873,3.873,0,0,1-.669-2.341,3.725,3.725,0,0,1,.709-2.328,2.428,2.428,0,0,1,2.04-.936,2.287,2.287,0,0,1,2.006,1,4.013,4.013,0,0,1,.669,2.287,3.859,3.859,0,0,1-.669,2.334,2.388,2.388,0,0,1-2.047.956Zm.04-5.351c-.776,0-1.17.669-1.17,2.067s.395,2.073,1.17,2.073S84,32.871,84,31.473,83.621,29.4,82.866,29.4Zm5.919,4.093,1.338-5.17h2.3l1.338,5.17h.609v2.548h-.963L93.253,34.7H89.28l-.154,1.338h-.963V33.493Zm1.3,0h2.053l-.91-4.013h-.247Zm4.749,1.2V28.3h4.735v6.374H98.1v-5.2H96.3v5.21Zm8.4.1a2.321,2.321,0,0,1-2.006-.97,3.872,3.872,0,0,1-.669-2.341,3.725,3.725,0,0,1,.716-2.328,2.408,2.408,0,0,1,2.006-.936,2.274,2.274,0,0,1,2.006,1,3.973,3.973,0,0,1,.669,2.287,3.819,3.819,0,0,1-.669,2.334,2.381,2.381,0,0,1-2.047.956Zm.047-5.351c-.783,0-1.17.669-1.17,2.067s.388,2.073,1.17,2.073,1.13-.669,1.13-2.067S104.034,29.446,103.278,29.446ZM113.485,33.6l-.8-1.338.8-1.338h.488l-.488,1.338.488,1.338Zm-1.271,0h.468l-.468-1.338.468-1.338h-.468l-.8,1.338Zm4.113-.8-2.334-4.468h1.6l1.4,2.829,1.15-2.829h1.338l-1.946,4.722a3.224,3.224,0,0,1-.789,1.244,1.879,1.879,0,0,1-1.264.381h-.669V33.493h.515a1.271,1.271,0,0,0,.6-.12,1.11,1.11,0,0,0,.415-.575ZM123.35,34.7V32.229a2.174,2.174,0,0,1-1.525.555,2.073,2.073,0,0,1-1.037-.261,1.478,1.478,0,0,1-.669-.669,2.742,2.742,0,0,1-.2-1.144V28.3h1.5v2.414a.876.876,0,0,0,.187.669.9.9,0,0,0,.629.174,2.007,2.007,0,0,0,1.137-.341V28.3h1.465v6.374Zm7.3-5.163h-3.03v1.338H130v1.144h-2.381v1.4h3.03v1.257h-4.541V28.3h4.548v1.211Zm.9,5.163V28.3h4.267V29.48h-2.8v1.338h1.077a4.4,4.4,0,0,1,1.338.161,1.552,1.552,0,0,1,.8.615,1.953,1.953,0,0,1,.3,1.11,1.859,1.859,0,0,1-.562,1.438,2.241,2.241,0,0,1-1.565.508Zm1.465-1.2h1.124a.863.863,0,0,0,.622-.207.749.749,0,0,0,.221-.562c0-.495-.328-.742-.97-.742h-1.023v1.5Zm9.364-5.17V34.7h-1.465V32.048H138.9v2.629h-1.425V28.3h1.465v2.515h2.006V28.3ZM146.05,34.8a2.314,2.314,0,0,1-2.006-.97,3.873,3.873,0,0,1-.7-2.341,3.685,3.685,0,0,1,.716-2.328,2.408,2.408,0,0,1,2.007-.936,2.287,2.287,0,0,1,2.006,1,3.966,3.966,0,0,1,.669,2.287,3.819,3.819,0,0,1-.669,2.334,2.388,2.388,0,0,1-2.047.956Zm.04-5.351c-.776,0-1.17.669-1.17,2.067s.395,2.073,1.17,2.073,1.137-.669,1.137-2.067S146.846,29.453,146.09,29.453Zm3.157,2.328h2.227v.976h-2.227v-1.01Zm6.822-3.444h-4.682v1.257h1.585V34.71h1.512V29.56h1.578V28.3Zm2.16,4.013v2.368h-1.518V28.3h2.515a3.592,3.592,0,0,1,1.284.181,1.926,1.926,0,0,1,.8.669,1.806,1.806,0,0,1,.348,1.13,2.348,2.348,0,0,1-.187.923,1.572,1.572,0,0,1-.528.7,1.766,1.766,0,0,1-.669.341,4.073,4.073,0,0,1-1,.087Zm-.02-1.2h.97a.976.976,0,0,0,.776-.261.843.843,0,0,0,.227-.589.823.823,0,0,0-.247-.615,1.1,1.1,0,0,0-.789-.207h-.936Zm8.855-1.639h-3.036v1.338h2.381v1.17h-2.381v1.4h3.036v1.257H162.51V28.3h4.555Zm5.812-1.211v6.374h-1.492V32.048h-2.006v2.629h-1.458V28.3h1.458v2.515h2.006V28.3Zm4.428,0,2.007,6.374h-1.605l-.388-1.338h-2.06l-.4,1.338h-1.338l2.04-6.374Zm-1.746,3.852H176.9l-.669-2.234Zm10.032-1.13,1.833-2.749h-1.338L184.434,30.9l-.241.06V28.289h-1.378v2.675l-.234-.067-1.645-2.622H179.4l2.006,3.157-2.2,3.217h1.4l1.859-2.809.341.087V34.65h1.378v-2.7l.334-.087,1.853,2.809h1.578L185.6,31.052Zm7.183-1.538h-3.03v1.338h2.381v1.2h-2.381v1.4h3.03v1.257H188.22V28.3h4.555v1.211Zm2.421,2.8V34.65h-1.538V28.3h2.515a3.565,3.565,0,0,1,1.284.181,1.926,1.926,0,0,1,.8.669,1.806,1.806,0,0,1,.348,1.13,2.468,2.468,0,0,1-.181.923,1.672,1.672,0,0,1-.528.7,1.846,1.846,0,0,1-.669.341,4.073,4.073,0,0,1-1,.087Zm-.053-1.157h.97a.99.99,0,0,0,.783-.261.869.869,0,0,0,.221-.589.8.8,0,0,0-.247-.615,1.083,1.083,0,0,0-.756-.227h-.97v1.719Zm9.216-2.822v6.374h-1.465V32.048h-2.007v2.629h-1.465V28.3h1.465v2.515h2.007V28.3Zm1.338,6.374V28.3h1.458v2.341h1.1a4.086,4.086,0,0,1,1.291.167,1.518,1.518,0,0,1,.809.669,2.16,2.16,0,0,1,.314,1.157,2.006,2.006,0,0,1-.555,1.465,2.267,2.267,0,0,1-1.712.582Zm1.458-1.2h1.1c.6,0,.9-.274.9-.836s-.294-.836-.876-.836h-1.124v1.692Zm4.16,1.2V28.3h1.465v6.374Zm4.26-.629v.629H214.11V28.3h1.465v2.709c0,.468,0,.936-.04,1.411a8.128,8.128,0,0,1,.716-1.338l1.485-2.127v-.669h1.458v6.374h-1.458V31.774c0-.482,0-.883.033-1.191a7.076,7.076,0,0,1-.716,1.338l-1.492,2.147Zm-.983-7.638h.736a.669.669,0,0,0,.742.609c.455,0,.709-.2.756-.609h.736a1.532,1.532,0,0,1-.475.983,1.5,1.5,0,0,1-1.03.354,1.585,1.585,0,0,1-1-.328A1.338,1.338,0,0,1,214.592,26.41Zm8.334,8.267V28.3h1.5v5.117h1.859V28.3h1.458v5.117h.789v2.6H227.5l-.127-1.338Zm10.7-5.163H230.6v1.338h2.381v1.17H230.6v1.4h3.03v1.257h-4.521V28.3h4.548v1.211Zm5.812-1.211v6.374h-1.458V32.048h-2.006v2.629h-1.458V28.3h1.458v2.515h2.006V28.3Zm5.351,0V29.56h-1.578v5.117H241.7V29.56h-1.585V28.3Zm2.167,4.013v2.368h-1.525V28.3h2.515a3.538,3.538,0,0,1,1.284.181,1.886,1.886,0,0,1,.8.669,1.812,1.812,0,0,1,.354,1.13,2.475,2.475,0,0,1-.187.923,1.672,1.672,0,0,1-.528.7,1.846,1.846,0,0,1-.669.341,4.013,4.013,0,0,1-1,.087Zm-.047-1.157h.923a.99.99,0,0,0,.783-.261.869.869,0,0,0,.221-.589.8.8,0,0,0-.247-.615,1.084,1.084,0,0,0-.756-.214H246.9v1.672ZM68.419,47.418V41.037h4.735v6.381H71.689v-5.23H69.884V47.4Zm8.407.12a2.307,2.307,0,0,1-2.006-.97,3.826,3.826,0,0,1-.7-2.374,3.732,3.732,0,0,1,.716-2.334,2.414,2.414,0,0,1,2.04-.93,2.261,2.261,0,0,1,2.006,1,3.933,3.933,0,0,1,.669,2.281,3.806,3.806,0,0,1-.669,2.334A2.368,2.368,0,0,1,76.826,47.538Zm.04-5.351c-.783,0-1.17.669-1.17,2.067s.388,2.073,1.17,2.073S78,45.659,78,44.261,77.622,42.188,76.866,42.188Zm8.441,5.351a2.314,2.314,0,0,1-2.006-.97,3.866,3.866,0,0,1-.669-2.374,3.692,3.692,0,0,1,.716-2.334,2.4,2.4,0,0,1,2.006-.93,2.267,2.267,0,0,1,2.006,1,3.933,3.933,0,0,1,.669,2.281,3.806,3.806,0,0,1-.669,2.334,2.388,2.388,0,0,1-2.053,1Zm.04-5.351c-.776,0-1.17.669-1.17,2.067s.395,2.073,1.17,2.073,1.137-.669,1.137-2.067S86.1,42.188,85.347,42.188Zm3.679,5.264V41.037h4.307v1.15h-2.8v1.4h1.077a4.4,4.4,0,0,1,1.338.161,1.552,1.552,0,0,1,.8.615,2.007,2.007,0,0,1,.308,1.117,1.846,1.846,0,0,1-.569,1.431,2.241,2.241,0,0,1-1.565.515ZM90.51,46.2h1.15a.863.863,0,0,0,.622-.207.742.742,0,0,0,.221-.562c0-.495-.328-.736-.97-.736H90.51v1.5Zm9-3.959h-3.03v1.338h2.381v1.2H96.483v1.4h3.03v1.264H94.958v-6.4h4.555v1.211Zm6.019,1.164-1.572.1c0-.9-.368-1.338-1.05-1.338s-1.164.669-1.164,2.08a2.909,2.909,0,0,0,.314,1.632,1.043,1.043,0,0,0,.89.428c.615,0,.99-.4,1.13-1.2l1.451.087a2.588,2.588,0,0,1-.849,1.739,2.849,2.849,0,0,1-3.8-.281,3.458,3.458,0,0,1-.783-2.455,3.558,3.558,0,0,1,.769-2.361,2.555,2.555,0,0,1,2.087-.916,2.409,2.409,0,0,1,2.588,2.468Zm.863,4.013V41.037h4.735v6.381h-1.465v-5.23H107.86V47.4Zm10.568-5.17h-3.03v1.338h2.381v1.2h-2.381v1.4h3.03v1.264h-4.555V41.037h4.555v1.211Zm4.167,5.17V44.937a2.147,2.147,0,0,1-1.525.555,2.053,2.053,0,0,1-1.03-.261,1.465,1.465,0,0,1-.669-.669,2.863,2.863,0,0,1-.194-1.144V41.037h1.465v2.414a.91.91,0,0,0,.181.669.9.9,0,0,0,.629.181,2.04,2.04,0,0,0,1.137-.341V41.037h1.465v6.381Zm7.3-5.17h-3v1.338h2.381v1.2h-2.381v1.4h3.036v1.264h-4.555V41.037h4.555v1.211Zm5.812-1.211v6.381h-1.451V44.783h-2.007v2.635h-1.465V41.037h1.465v2.488h2.007V41.037Zm2.749,5.745v.669h-1.465V41.037h1.465v2.675c0,.468,0,.936-.04,1.411a7.906,7.906,0,0,1,.716-1.338l1.491-2.147V40.97h1.465v6.381h-1.465V44.515a10.241,10.241,0,0,1,.04-1.2,7.076,7.076,0,0,1-.716,1.338L136.994,46.8Zm7.4-2.073h-1.023v2.675H141.91V41.037h1.465v2.488h1.03a3.231,3.231,0,0,1,.956-1.906,2.609,2.609,0,0,1,1.839-.669,2.675,2.675,0,0,1,2.087.9,3.438,3.438,0,0,1,.8,2.388,3.612,3.612,0,0,1-.762,2.314,2.481,2.481,0,0,1-2.067.99,2.555,2.555,0,0,1-2.006-.843,3.123,3.123,0,0,1-.809-1.96Zm2.829-2.521a1.057,1.057,0,0,0-.976.589,2.9,2.9,0,0,0-.341,1.485,2.762,2.762,0,0,0,.361,1.532,1.077,1.077,0,0,0,1.9-.067,2.923,2.923,0,0,0,.361-1.525,2.675,2.675,0,0,0-.354-1.471A1.084,1.084,0,0,0,147.227,42.188Zm6.24,5.264V41.037h4.26v1.15h-2.8v1.4H156a4.4,4.4,0,0,1,1.338.161,1.552,1.552,0,0,1,.8.615,2.006,2.006,0,0,1,.308,1.117,1.846,1.846,0,0,1-.562,1.431,2.261,2.261,0,0,1-1.572.515Zm1.458-1.251h1.15a.863.863,0,0,0,.622-.207.742.742,0,0,0,.221-.562c0-.495-.321-.736-.963-.736h-1.03Zm9-3.959h-3.043v1.338h2.381v1.2h-2.381v1.4h3.03v1.264H159.36v-6.4h4.555v1.211Zm.375,3.224,1.338-.181a1.09,1.09,0,0,0,1.2,1c.722,0,1.083-.281,1.083-.849s-.3-.809-.9-.809h-.515v-.983h.461a.843.843,0,0,0,.609-.207.756.756,0,0,0,.214-.555.615.615,0,0,0-.268-.535,1.211,1.211,0,0,0-.669-.194,1.338,1.338,0,0,0-.776.194.956.956,0,0,0-.354.669l-1.217-.2a2.09,2.09,0,0,1,2.4-1.879,2.956,2.956,0,0,1,1.779.468,1.458,1.458,0,0,1,.669,1.237,1.378,1.378,0,0,1-1.09,1.338,1.491,1.491,0,0,1,1.284,1.478,1.806,1.806,0,0,1-.669,1.451,2.809,2.809,0,0,1-1.846.569,2.883,2.883,0,0,1-1.953-.569,1.96,1.96,0,0,1-.669-1.471Zm8.521,2.073a2.321,2.321,0,0,1-2.007-.97,3.866,3.866,0,0,1-.689-2.374,3.732,3.732,0,0,1,.716-2.334,2.4,2.4,0,0,1,2.007-.93,2.267,2.267,0,0,1,2.006,1,3.933,3.933,0,0,1,.742,2.267,3.806,3.806,0,0,1-.7,2.334,2.388,2.388,0,0,1-2.073,1.01Zm.047-5.351c-.783,0-1.17.669-1.17,2.067s.388,2.073,1.17,2.073,1.13-.669,1.13-2.067S173.626,42.188,172.87,42.188Zm3.679,5.264V41.037h4.735v6.381h-1.465v-5.23h-1.806V47.4Zm9.156-6.381,2.007,6.381h-1.605l-.395-1.338h-2.087l-.4,1.338h-1.338l2.04-6.381Zm-1.719,3.879h1.338l-.669-2.234Zm9.31-1.5-1.565.1c0-.9-.375-1.338-1.05-1.338-.783,0-1.17.669-1.17,2.08a2.9,2.9,0,0,0,.321,1.632,1.023,1.023,0,0,0,.883.428c.615,0,1-.4,1.13-1.2l1.451.087a2.562,2.562,0,0,1-.849,1.739,2.849,2.849,0,0,1-3.8-.281,3.458,3.458,0,0,1-.789-2.495,3.585,3.585,0,0,1,.762-2.361,2.568,2.568,0,0,1,2.093-.916,2.406,2.406,0,0,1,2.582,2.468Zm5.785-2.374v6.381h-1.465V44.783H195.61v2.635h-1.465V41.037h1.518v2.488h2.006V41.037Zm3.672,6.468a2.3,2.3,0,0,1-2.006-.97,3.826,3.826,0,0,1-.689-2.374,3.732,3.732,0,0,1,.716-2.334,2.408,2.408,0,0,1,2.007-.93,2.261,2.261,0,0,1,2.006,1,3.933,3.933,0,0,1,.669,2.281,3.806,3.806,0,0,1-.669,2.334A2.381,2.381,0,0,1,202.754,47.538Zm.047-5.351c-.783,0-1.17.669-1.17,2.067s.388,2.073,1.17,2.073,1.13-.669,1.13-2.067S203.556,42.188,202.8,42.188Zm8.815,1.257-1.572.08c0-.9-.368-1.338-1.05-1.338s-1.164.669-1.164,2.08a2.91,2.91,0,0,0,.314,1.632,1.037,1.037,0,0,0,.883.428c.622,0,1-.4,1.13-1.2l1.458.087a2.568,2.568,0,0,1-.856,1.739,2.849,2.849,0,0,1-3.8-.281,3.458,3.458,0,0,1-.789-2.475,3.558,3.558,0,0,1,.769-2.361,2.555,2.555,0,0,1,2.1-.89,2.414,2.414,0,0,1,2.588,2.468Zm5-2.374v1.264H215.06v5.117h-1.538V42.3H211.93V41.037Zm2.107,5.745v.669h-1.465V41.037h1.465v2.675c0,.468,0,.936-.04,1.411a8.46,8.46,0,0,1,.709-1.338l1.5-2.147V40.97h1.465v6.381h-1.465V44.515a10.241,10.241,0,0,1,.04-1.2,7.076,7.076,0,0,1-.716,1.338L218.719,46.8Zm12.22-5.745v6.381h-1.465V44.783h-2.006v2.635H226V41.037h1.465v2.488h2.006V41.037Zm4.428,0,2.006,6.381h-1.605l-.395-1.338h-2.06l-.4,1.338h-1.338l2.047-6.381Zm-1.712,3.879h1.338l-.669-2.234Zm10.835-3.913V42.3h-1.605v5.117h-1.512V42.3h-1.565V41.037Zm2.167,4.013v2.374h-1.525V41.037h2.515a3.538,3.538,0,0,1,1.284.181,1.886,1.886,0,0,1,.8.669,1.812,1.812,0,0,1,.354,1.137,2.468,2.468,0,0,1-.187.916,1.632,1.632,0,0,1-.528.7,1.846,1.846,0,0,1-.669.341,4.013,4.013,0,0,1-1,.087Zm-.047-1.157h.97a1.01,1.01,0,0,0,.776-.254.889.889,0,0,0,.221-.6.8.8,0,0,0-.247-.615,1.084,1.084,0,0,0-.756-.227h-.963Zm7.056-2.849h-1.739l-2.087,6.374h1.338l.4-1.338h2.06l.395,1.338h1.605l-2.006-6.381Zm-1.712,3.879.669-2.234.669,2.234Zm9.3-3.879v6.381h-1.465V44.783h-2.007v2.635h-1.465V41.037h1.465v2.488h2.007V41.037Zm6.421,2.374-1.565.1c0-.9-.375-1.338-1.05-1.338-.783,0-1.17.669-1.17,2.08a2.9,2.9,0,0,0,.321,1.632,1.023,1.023,0,0,0,.883.428c.615,0,1-.4,1.13-1.2l1.451.087a2.562,2.562,0,0,1-.849,1.739,2.849,2.849,0,0,1-3.8-.281,3.458,3.458,0,0,1-.816-2.468,3.585,3.585,0,0,1,.762-2.361,2.568,2.568,0,0,1,2.093-.916,2.4,2.4,0,0,1,2.582,2.468Zm.869,4.013V41.037h4.709v6.381h-1.465v-5.23h-1.806V47.4Zm8.4.094a2.321,2.321,0,0,1-2.007-.97,3.866,3.866,0,0,1-.716-2.361,3.732,3.732,0,0,1,.716-2.334,2.4,2.4,0,0,1,2.007-.93,2.261,2.261,0,0,1,2.006,1,3.933,3.933,0,0,1,.669,2.281,3.806,3.806,0,0,1-.669,2.334,2.381,2.381,0,0,1-2.033,1Zm.047-5.351c-.783,0-1.17.669-1.17,2.067s.388,2.073,1.17,2.073,1.13-.669,1.13-2.067S277.743,42.174,276.987,42.174Zm5.2,2.889v2.374h-1.518v-6.4h2.508a3.605,3.605,0,0,1,1.291.181,1.926,1.926,0,0,1,.8.669,1.812,1.812,0,0,1,.348,1.137,2.341,2.341,0,0,1-.187.916,1.579,1.579,0,0,1-.528.7,1.819,1.819,0,0,1-.669.341,4.073,4.073,0,0,1-1,.087Zm-.047-1.157h.97a1,1,0,0,0,.776-.254.9.9,0,0,0,.227-.6.8.8,0,0,0-.254-.615,1.077,1.077,0,0,0-.756-.227h-.963Zm8.334-2.849v1.264h-1.578v5.117h-1.512V42.3H285.8V41.037Zm5.2,1.211h-3.023v1.338h2.381v1.2h-2.381v1.4h3.03v1.264H291.12V41.037h4.555v1.211Zm1.124,4.06h-.482l.482-1.338-.482-1.338h.482l.809,1.338Zm1.277,0,.8-1.338-.8-1.338H297.6l.468,1.338-.468,1.338Z" transform="translate(-22.438 -8.767)" fill="#fff" fill-rule="evenodd"/>
      <path id="Path_220" data-name="Path 220" d="M26.638,17.358,25.474,27.27,17.234,19.4l1.2.863A9.19,9.19,0,0,1,26.638,17.358ZM27.681,29.4l2.521-.054h0l-2.521.06Zm6.361-5.4,3.625-5.043-3.933,4.107h0l-3.939,4.127L27.681,29.39,29.888,31.5h0l-.207,1.8h0l.8.582,7.645,5.5-6.621-6.334L29.888,31.5h0l1.792-.288,1.458-.234,9.263-1.5a3.344,3.344,0,0,0,.067-.415h0l-14.754.314h0l2.114-2.207h0l4.281.522c.274.033.254-1.023.254-1.3a9.263,9.263,0,0,0-.321-2.388Zm-6.414,2.876.054,2.515Zm.054,2.515,2.107-2.2h0l-.294-1.792,3.919-3.083a9.19,9.19,0,0,0-5.143-4.541L27.3,11.86l.341,15.009m.054,2.515.06,2.515h0Zm.368,17.523L26.21,35.49a9.711,9.711,0,0,1-.99.054,8.929,8.929,0,0,1-1.839-.181l2.488-2.006-.294-1.786L17.7,39.831l3.679-5.137a9.2,9.2,0,0,1-4.3-4.107l8.487,1,2.107-2.207m-.6.622.6-.622m2.8,4.488a8.5,8.5,0,0,1-.943.582l.14-1.164m.207-1.8,1.619,1.545h0m1.632-2.067a9.685,9.685,0,0,1-.762,1.117l-.669-.883M25.18,29.43l-7.016-8.855A9.156,9.156,0,0,0,16.612,29.5l.047.127Z" transform="translate(-5.323 -3.948)" fill="#fff" fill-rule="evenodd"/>
      <path id="Path_221" data-name="Path 221" d="M22.292,17.18A10.982,10.982,0,1,1,12.039,32.108l1.645.187a9.544,9.544,0,1,0-.943-4.14,9.417,9.417,0,0,0,.314,2.435l9.491-1.558,2.207,2.114L7.23,31.54l4.408-.722a10.869,10.869,0,0,1-.328-2.675A10.982,10.982,0,0,1,22.292,17.18Z" transform="translate(-2.395 -5.71)" fill="#fff" fill-rule="evenodd"/>
      <path id="Path_222" data-name="Path 222" d="M41.187,9.835c-.1,7.906.482,20.018-3.311,27.014A24.794,24.794,0,0,1,29.944,45.2a79.625,79.625,0,0,1-8.929,4.869l-.174.087-.181-.08a74.659,74.659,0,0,1-9.023-4.682,25.77,25.77,0,0,1-8.026-7.926h0C-.2,29.88-.481,18.309.449,10.043l.04-.361H.857A7.625,7.625,0,0,0,8.7,2.09c0-.127,0-.254,0-.388V1.348l.334-.074A58.342,58.342,0,0,1,18.059.057,61.94,61.94,0,0,1,32.285,1.288l.341.06V1.93a7.6,7.6,0,0,0,8.173,7.5h.428v.428Zm-1.217.809a8.8,8.8,0,0,1-8.534-8.287,59.466,59.466,0,0,0-13.316-1.09,54.945,54.945,0,0,0-8.227,1.07,8.822,8.822,0,0,1-8.32,8.528c-.8,7.912-.488,18.834,3.11,25.971A24.613,24.613,0,0,0,12.294,44.4a69.386,69.386,0,0,0,8.521,4.434,78.923,78.923,0,0,0,8.454-4.615,23.663,23.663,0,0,0,7.551-7.959C40.358,29.74,39.916,18.169,39.97,10.644Z" transform="translate(-0.001 -0.03)" fill="#fff" fill-rule="evenodd"/>
      <path id="Path_223" data-name="Path 223" d="M39.555,14.342c0,6.555.3,16.768-2.849,22.573a21.235,21.235,0,0,1-6.782,7.116,66.065,66.065,0,0,1-7.357,4.013l-.174.094-.181-.087A60.5,60.5,0,0,1,14.788,44.2a22.312,22.312,0,0,1-6.862-6.755h0c-3.19-6.4-3.485-15.958-2.843-22.948v-.321l.321-.04a8.387,8.387,0,0,0,7.3-7.491v-.3l.3-.054a48.825,48.825,0,0,1,6.929-.863,53.132,53.132,0,0,1,11.511.89l.3.053v.3a8.36,8.36,0,0,0,7.444,7.27l.361.04v.361Zm-.408,0a8.768,8.768,0,0,1-7.765-7.625A52.4,52.4,0,0,0,19.958,5.8a48.156,48.156,0,0,0-6.849.883A8.782,8.782,0,0,1,5.484,14.53c-.642,6.983-.328,16.46,2.8,22.707a21.944,21.944,0,0,0,6.742,6.688,60.563,60.563,0,0,0,7.357,3.826,67.054,67.054,0,0,0,7.357-4.013,20.734,20.734,0,0,0,6.635-7.023C39.421,31.07,39.133,20.977,39.147,14.342Z" transform="translate(-1.593 -1.809)" fill="#fff" fill-rule="evenodd"/>
    </g>
  </g>
</svg>
