<svg xmlns="http://www.w3.org/2000/svg" width="168.14" height="37.571" viewBox="0 0 168.14 37.571">
  <g id="fabrikant" opacity="0.3">
    <g id="_1" data-name="1">
      <path id="Path_37" data-name="Path 37" d="M7.141,0,20.184,3.384,12.942,5.571a2.615,2.615,0,0,1,.521.074,17.93,17.93,0,0,0,6.769,0,18.018,18.018,0,0,1,3.188-.129l-.311.805a14.763,14.763,0,0,0-2.125.257,8.847,8.847,0,0,0-1.875.575v3.066a63.677,63.677,0,0,1,7.114.487A10.444,10.444,0,0,1,28.76,11.73L26.73,5.077l7.946,2.064L31.292,20.184l-.934-3.08c-.054.156-.122.318-.19.481-2.356,5.341-9.842,6.092-10.478,6.22s-.677.068-.677.636.278,3.175.278,3.175l4.373.521.041.379h0l5.868-1.773L27.542,34.69l-13.05-3.384,6.647-2.031a26.249,26.249,0,0,0-8.881.054,2.768,2.768,0,0,1-2.315-.846l.041-.379,4.373-.521s.278-2.606.278-3.175,0-.528-.677-.636c-.528-.088-5.929-.677-9.023-4.021l2.978,9.835L0,27.562,3.872,12.61a7.85,7.85,0,0,1,3.628-1.9,63.572,63.572,0,0,1,7.107-.487V7.155a8.691,8.691,0,0,0-1.868-.575,14.762,14.762,0,0,0-2.152-.257V6.288L5.077,7.953Zm7.446,11.446s-7.141-1.157-7.141,4.3c0,6.187,7.168,6.965,7.168,6.965V11.446Zm4.542,0v11.27s7.175-.778,7.175-6.965c0-5.462-7.175-4.3-7.175-4.3Z" fill="#fff" fill-rule="evenodd"/>
      <path id="Path_38" data-name="Path 38" d="M50.5,32.461l1.55.2v1.069H46.2s.156-.968.785-1.069,1.2,0,1.679-1.293,4.271-11.635,4.271-11.635l-1.408-.3-.088-1.1a12.678,12.678,0,0,0,2.789.25A25.105,25.105,0,0,0,57.9,18.26l.054,1.178-1.354.223,4.555,12.793h1.036v1.354H55.541l.372-1.171,1.787-.223-1.909-5.374H51.845l-1.354,5.415Zm3.486-12.008L52.1,25.706h3.384Z" transform="translate(-14.928 -5.9)" fill="#fff" fill-rule="evenodd"/>
      <path id="Path_39" data-name="Path 39" d="M70.45,18.064l.406,1.124,1.435.081V31.906H70.937v1.354h7.188s4.826-.2,4.826-4.271-7.5-5.476-7.5-5.476V19.39a21.669,21.669,0,0,1,4.251.284c1,.338,1.618,2.315,1.618,2.315l1.259.413a33.121,33.121,0,0,1-.054-4.258c.176-.778.291-1.645.291-1.645l-1.273.521-.311.907-10.783.135Zm5,7.006s4.406,1.245,4.406,3.953-4.406,2.938-4.406,2.938Z" transform="translate(-22.764 -5.332)" fill="#fff" fill-rule="evenodd"/>
      <path id="Path_40" data-name="Path 40" d="M89.731,19.45,89.42,18.3h6.769s4.968-.176,4.968,3.926-7.276,5.415-7.276,5.415v4.528l1.2.284.142,1.11H89.6L90,32.372h.934V19.579Zm4.251.156v6.863s3.811-1.354,3.811-4.014-3.811-2.843-3.811-2.843Z" transform="translate(-28.894 -5.913)" fill="#fff" fill-rule="evenodd"/>
      <path id="Path_41" data-name="Path 41" d="M105.176,18.3l.3,1.11h1.672V32.069l-1.746.223-.4,1.178h7.161V32.421l-1.956-.19V30.709l7.263-8.989V32.1l-1.665.156-.582,1.137h7.012V32.313l-1.679-.122a41.117,41.117,0,0,1-.4-6.41,50.09,50.09,0,0,1,.3-6.288h1.855V18.227H115.3l.562,1.076,1.428.237v.338l-7.229,8.407.068-8.881,1.618-.054.494-.406V18.18Z" transform="translate(-33.928 -5.874)" fill="#fff" fill-rule="evenodd"/>
      <path id="Path_42" data-name="Path 42" d="M131.47,18.292l.291,1.11h1.672V32.06l-1.74.2-.433,1.178h7.168V32.412l-2.193-.19V26.509l.853-.785,8.847,8.468,1.015-.968-7.534-9.557,4.961-4.156s.291-.068.941-.169.866-1.191.866-1.191h-5.693v.968h.575a2.944,2.944,0,0,1,.589.413l-5.449,5.009V19.382l1.848-.054.494-.406V18.17Z" transform="translate(-42.414 -5.865)" fill="#fff" fill-rule="evenodd"/>
      <path id="Path_43" data-name="Path 43" d="M159.188,32.474l1.55.2v1.069H154.89s.149-.968.778-1.069a1.6,1.6,0,0,0,1.685-1.293c.474-1.273,4.271-11.635,4.271-11.635l-1.415-.271-.081-1.1a12.678,12.678,0,0,0,2.789.25,25.1,25.1,0,0,0,3.675-.325l.047,1.191-1.354.223,4.569,12.759h1.036v1.354H164.2l.379-1.171,1.78-.223-1.9-5.374h-3.946l-1.354,5.415Zm3.493-12.008-1.888,5.253h3.384Z" transform="translate(-50.049 -5.913)" fill="#fff" fill-rule="evenodd"/>
      <path id="Path_44" data-name="Path 44" d="M179.456,18.3l.311,1.11h1.618V32.069l-1.692.223-.413,1.178h6.911V32.421l-2.227-.2V26.756l7.31-.785.054,6.132-1.6.156-.562,1.137h6.769V32.313l-1.624-.122a42.534,42.534,0,0,1-.386-6.41,51.22,51.22,0,0,1,.3-6.288h1.787V18.227h-6.762l.541,1.076,1.354.237v.338l.047,4.738h-7.27V19.412l1.9-.034.474-.406V18.18Z" transform="translate(-57.93 -5.874)" fill="#fff" fill-rule="evenodd"/>
      <path id="Path_45" data-name="Path 45" d="M204.64,16.84v4.643l.887-.2a2.538,2.538,0,0,1,.711-1.266,9.523,9.523,0,0,1,2.836-.582V31.616L206.616,32l-.325,1.124h8.914L214.881,32l-2.457-.379V19.432a9.523,9.523,0,0,1,2.836.582,2.6,2.6,0,0,1,.751,1.266l.887.2V16.84l-1.185.223-.115.873-4.819.081-4.813-.081-.115-.873Z" transform="translate(-66.125 -5.441)" fill="#fff" fill-rule="evenodd"/>
      <path id="Path_46" data-name="Path 46" d="M223.72,9.21v9.334l1.5-1.164L225.087,14a2.146,2.146,0,0,1,1.2-.616c.575,0,1.293.21,1.293,1.164V29.137l-2.836.3-.318,1.2h9.206s6.22-.318,6.22-5.029-8.8-6.457-8.8-6.457V13.129l3.384-.541V11.538h-9.476l-.135-1.922-1.076-.406ZM231,20.487s4.738.961,4.738,4.989-4.738,3.7-4.738,3.7Z" transform="translate(-72.29 -2.976)" fill="#fff" fill-rule="evenodd"/>
      <path id="Path_47" data-name="Path 47" d="M50.36,53.584c1.354,0,2.207-.6,2.207-1.773s-1-1.767-2.207-1.767c-1.036,0-2.2.372-2.2,1.767C48.16,52.907,48.891,53.584,50.36,53.584Zm0-3.384a2.031,2.031,0,0,1,1.225.359,1.482,1.482,0,0,1,.494,1.239,1.6,1.6,0,0,1-.494,1.239,2.237,2.237,0,0,1-2.43,0,1.584,1.584,0,0,1-.494-1.239,1.482,1.482,0,0,1,.487-1.239A1.963,1.963,0,0,1,50.36,50.2Zm9.828,1.239,1.218-.981a.758.758,0,0,1,.623-.223V50.1H60.79v.135c.217,0,.325,0,.325.074s-.108.149-.3.311l-1.482,1.2h0V50.6c0-.332,0-.352.5-.352v-.135h-1.53v.135c.5,0,.542,0,.542.352v2.423c0,.332-.041.359-.542.359v.129h1.537v-.129c-.494,0-.528,0-.528-.359v-.88l.555-.454,1.591,1.821h.921v-.129a.819.819,0,0,1-.792-.345l-1.394-1.584Zm9.95,2.132c1.354,0,2.207-.6,2.207-1.773s-1-1.767-2.207-1.767c-1.042,0-2.2.372-2.2,1.767C67.938,52.894,68.669,53.571,70.138,53.571Zm0-3.384a2.031,2.031,0,0,1,1.225.359,1.482,1.482,0,0,1,.494,1.239,1.6,1.6,0,0,1-.494,1.239,2.247,2.247,0,0,1-2.437,0,1.6,1.6,0,0,1-.487-1.239,1.482,1.482,0,0,1,.487-1.239A1.949,1.949,0,0,1,70.138,50.186Zm11.656.386c0-.332,0-.352.541-.352v-.135H80.826v.135c.454,0,.487,0,.487.345v1.063H78.7V50.592c0-.325,0-.345.487-.345v-.135h-1.5v.135c.508,0,.541,0,.541.352v2.43c0,.325,0,.352-.541.352v.129h1.5v-.129c-.454,0-.487,0-.487-.352v-1.2h2.613v1.2c0,.325,0,.352-.487.352v.129h1.5v-.129c-.508,0-.541,0-.541-.352V50.6Zm9.889,0c0-.332,0-.352.535-.352v-.135H90.695v.135c.453,0,.487,0,.487.345v1.063H88.563V50.592c0-.325.034-.345.487-.345v-.135H87.561v.135c.508,0,.542,0,.542.352v2.43c0,.325,0,.352-.542.352v.129H89.05v-.129c-.454,0-.487,0-.487-.352v-1.2h2.619v1.2c0,.325,0,.352-.487.352v.129h1.489v-.129c-.5,0-.535,0-.535-.352V50.6Zm6.336,1.049V50.606c0-.332.047-.359.582-.359v-.135H97.01v.135c.494,0,.542,0,.542.325v2.45c0,.332-.041.359-.542.359v.129h1.983c1.388,0,1.618-.6,1.618-.961,0-.474-.541-.9-1.949-.9Zm3.506,1.354c0,.325,0,.352-.6.352v.129h1.658v-.074c-.562,0-.6,0-.6-.352V50.6c0-.332,0-.352.6-.352v-.135h-1.652v.135c.562,0,.589,0,.589.352v2.43Zm-3.506-1.212h.724c1.1,0,1.354.393,1.354.731,0,.541-.4.792-1.171.792h-.677c-.21,0-.25,0-.25-.23V51.818ZM111.2,53.456l.244-.717H111.2c-.19.514-.257.548-.677.548h-1.408c-.142,0-.2,0-.2-.2V51.824h1.069c.311,0,.352,0,.352.474h.237V51.181h-.257c0,.433-.041.474-.345.474H108.9V50.511c0-.2,0-.23.257-.23h1.164c.372,0,.44,0,.623.542h.237l-.217-.677h-3.059v.135c.494,0,.541,0,.541.352v2.423c0,.332-.047.359-.541.359v.129Zm11.778-.893a1.469,1.469,0,0,1-1.354.778,1.516,1.516,0,0,1-1.611-1.625,1.489,1.489,0,0,1,1.685-1.557c.9,0,.968.23,1.137.772l.23-.034a6.291,6.291,0,0,1-.176-.745,4.664,4.664,0,0,0-1.191-.162c-1.354,0-2.166.609-2.166,1.733a2.012,2.012,0,0,0,3.655.941l-.237-.047Zm10.153-2.031c0-.332.041-.352.541-.352v-.135H132.16v.135c.5,0,.5,0,.5.426l-2.619,2.031V50.592c0-.325,0-.345.494-.345v-.135h-1.509v.135c.508,0,.548,0,.548.352v2.43c0,.325-.041.352-.548.352v.129h1.509v-.129c-.494,0-.494,0-.494-.406l2.619-2.031v2.078c0,.325,0,.352-.5.352V53.5h1.509v-.122c-.5,0-.541,0-.541-.352v-2.5Zm9.612,2.031a1.449,1.449,0,0,1-1.354.778,1.516,1.516,0,0,1-1.611-1.625,1.489,1.489,0,0,1,1.685-1.557c.9,0,.968.23,1.13.772l.237-.034a5.19,5.19,0,0,1-.176-.745,4.664,4.664,0,0,0-1.191-.162c-1.354,0-2.166.609-2.166,1.733a1.786,1.786,0,0,0,2.031,1.807A1.76,1.76,0,0,0,143,52.609l-.237-.047Zm8.617-2.335h.934c.4,0,.44,0,.589.569h.223l-.135-.684h-3.7l-.156.738h.223c.135-.542.183-.569.582-.569h.961v2.748c0,.325,0,.352-.643.352v.129h1.767v-.129c-.623,0-.677,0-.677-.352V50.281Zm11.155,3.229.244-.717h-.237c-.19.514-.257.548-.677.548h-1.408c-.142,0-.2,0-.2-.2V51.824h1.069c.311,0,.352,0,.352.474h.237V51.181h-.237c0,.433-.041.474-.345.474h-1.076V50.511c0-.2,0-.23.257-.23h1.151c.372,0,.44,0,.616.542h.237l-.217-.677h-3.059v.135c.5,0,.548,0,.548.352v2.423c0,.332-.047.359-.548.359v.129Zm10.072-3.384L170.9,53.043h0l-1.74-2.931h-.981v.135c.494,0,.528,0,.528.338v2.437c0,.332,0,.359-.528.359v.129h1.279v-.129c-.46,0-.487,0-.487-.359V50.552h0l1.753,2.985h.183l1.679-2.978h0v2.464c0,.332,0,.359-.487.359v.129h1.489v-.129c-.5,0-.535,0-.535-.359V50.6c0-.332,0-.352.535-.352v-.135Zm6.41,1.536v-1c0-.332.047-.359.582-.359v-.135h-1.564v.135c.494,0,.535,0,.535.325v2.45c0,.332-.041.359-.535.359v.129h1.976c1.394,0,1.625-.6,1.625-.961,0-.474-.542-.9-1.956-.9Zm3.506,1.354c0,.325,0,.352-.6.352v.129h1.658v-.061c-.562,0-.6,0-.6-.352V50.6c0-.332,0-.352.6-.352v-.135h-1.645v.135c.555,0,.582,0,.582.352v2.362Zm-3.506-1.212h.724c1.1,0,1.388.393,1.388.731,0,.541-.4.792-1.171.792h-.677c-.21,0-.25,0-.25-.23Z" transform="translate(-15.562 -16.153)" fill="#fff" stroke="#fff" stroke-miterlimit="22.93" stroke-width="0.28" fill-rule="evenodd"/>
    </g>
  </g>
</svg>
