<svg xmlns="http://www.w3.org/2000/svg" width="56.048" height="46.382" viewBox="0 0 56.048 46.382">
  <g id="fitness" transform="translate(0.004 0.007)" opacity="0.3">
    <g id="_1" data-name="1" transform="translate(-0.004 -0.007)">
      <path id="Path_77" data-name="Path 77" d="M12.075,8.107a6.054,6.054,0,0,0-.55-2.039Q10.163,3.01,8.116,3.01c-.741,0-1.091.478-1.067,1.434l.064,21.634a1.1,1.1,0,0,0,.1.51A.677.677,0,0,0,7.9,27a3.051,3.051,0,0,0,1.394-.51,5.369,5.369,0,0,0,2.8-4.779V8.171ZM25.807,23.345q0,2.549-3,4.779a9.965,9.965,0,0,1-6.078,2.143,4.078,4.078,0,0,1-3.911-2.732,4.557,4.557,0,0,1-.175-.438c-.048-.143-.088-.287-.127-.438q-2.087,3.608-7.464,3.608A4.469,4.469,0,0,1,.628,27.415a7.057,7.057,0,0,1-.589-2.963L0,5.973a5.162,5.162,0,0,1,2.39-4.54A8.762,8.762,0,0,1,7.511,0a8.665,8.665,0,0,1,6.372,2.27V.182H18.75l.056,25.434a.5.5,0,0,0,.056.231.6.6,0,0,0,.605.319A4.158,4.158,0,0,0,22.3,24.691a4.644,4.644,0,0,0,1.474-3.011l2,1.673Zm18.918,0-2-1.673a4.166,4.166,0,0,1-1.4,2.876,3.823,3.823,0,0,1-2.716,1.482.972.972,0,0,1-.964-.605,1.537,1.537,0,0,1-.143-.741V20.055a.908.908,0,0,0-.112-.558,3.983,3.983,0,0,0-2-1.975L22.963,11.947V27.28a4.062,4.062,0,0,0,2.2-1A8.873,8.873,0,0,0,29.033,18.6c-.04-.8.143-1.163.542-1.163a1.952,1.952,0,0,1,.86.255,1.37,1.37,0,0,1,.629.629c.056.119.072.2.056.231v7.225a4.779,4.779,0,0,0,.414,1.856,4.158,4.158,0,0,0,4.1,2.637,9.981,9.981,0,0,0,6.086-2.127c1.991-1.482,2.987-3.075,3-4.779Zm11.319,0c0,1.76-1.012,3.345-3,4.779A9.981,9.981,0,0,1,47,30.267a4.373,4.373,0,0,1-2.533-.8,4.827,4.827,0,0,1-1.681-1.991,4.6,4.6,0,0,1-.414-1.848V17.108H40.543V13.54h1.713V3.121L48.994.182l.048,13.358H50.9v3.568H49.026v8.523a.629.629,0,0,0,.056.231.589.589,0,0,0,.605.319,4.309,4.309,0,0,0,2.931-1.49,4.437,4.437,0,0,0,1.426-3.011Z" transform="translate(0.004 0.007)" fill="#fff" fill-rule="evenodd"/>
      <path id="Path_78" data-name="Path 78" d="M.2,47.035H1.371V46.43a3.983,3.983,0,0,1,.215-1.505,1.744,1.744,0,0,1,.8-.8,3.035,3.035,0,0,1,1.474-.319,5.91,5.91,0,0,1,1.76.255l-.247,1.49a4.461,4.461,0,0,0-1-.119.9.9,0,0,0-.677.215,1.251,1.251,0,0,0-.207.8v.566H5.083V48.74H3.49v6.372H1.371V48.74H.2Z" transform="translate(-0.037 -8.908)" fill="#fff" fill-rule="evenodd"/>
      <path id="Path_79" data-name="Path 79" d="M9.51,46V44h2.119v1.967Zm0,9.1V47.075h2.119V55.1Z" transform="translate(-1.932 -8.947)" fill="#fff" fill-rule="evenodd"/>
      <path id="Path_80" data-name="Path 80" d="M19.72,47.134v1.7h-1.45V52.08a9.089,9.089,0,0,0,.04,1.155.5.5,0,0,0,.191.271.581.581,0,0,0,.358.1,2.668,2.668,0,0,0,.852-.2l.183,1.649a4.285,4.285,0,0,1-1.673.311,2.628,2.628,0,0,1-1.028-.191,1.466,1.466,0,0,1-.677-.5,1.983,1.983,0,0,1-.295-.8,9.861,9.861,0,0,1-.072-1.505V48.838H15.18v-1.7h.972V45.541l2.119-1.251v2.836Z" transform="translate(-3.085 -9.006)" fill="#fff" fill-rule="evenodd"/>
      <path id="Path_81" data-name="Path 81" d="M31.07,55.843H28.959V51.757a5.894,5.894,0,0,0-.143-1.673,1.2,1.2,0,0,0-.438-.6,1.33,1.33,0,0,0-.749-.207,1.689,1.689,0,0,0-1,.3,1.505,1.505,0,0,0-.605.8,6.786,6.786,0,0,0-.159,1.84v3.624H23.75V47.822h1.959V49a3.314,3.314,0,0,1,3.943-1.067,2.127,2.127,0,0,1,.884.645,2.254,2.254,0,0,1,.414.884,6.532,6.532,0,0,1,.119,1.426Z" transform="translate(-4.829 -9.694)" fill="#fff" fill-rule="evenodd"/>
      <path id="Path_82" data-name="Path 82" d="M41.155,53.3l2.119.358a3.457,3.457,0,0,1-1.29,1.768,3.768,3.768,0,0,1-2.2.605,3.584,3.584,0,0,1-3.091-1.362,4.636,4.636,0,0,1-.8-2.772,4.429,4.429,0,0,1,1.043-3.122,3.409,3.409,0,0,1,2.629-1.131,3.545,3.545,0,0,1,2.82,1.187,5.177,5.177,0,0,1,.988,3.616h-5.3a2.167,2.167,0,0,0,.51,1.474,1.593,1.593,0,0,0,1.219.526,1.306,1.306,0,0,0,.8-.271,1.7,1.7,0,0,0,.518-.876Zm.119-2.151a2.047,2.047,0,0,0-.47-1.4,1.458,1.458,0,0,0-1.1-.478,1.482,1.482,0,0,0-1.147.5,1.967,1.967,0,0,0-.438,1.378Z" transform="translate(-7.299 -9.688)" fill="#fff" fill-rule="evenodd"/>
      <path id="Path_83" data-name="Path 83" d="M47.56,53.577l2.135-.327a1.49,1.49,0,0,0,.55.932,1.84,1.84,0,0,0,1.163.319,2.063,2.063,0,0,0,1.235-.3.669.669,0,0,0,.279-.566.542.542,0,0,0-.151-.4,1.593,1.593,0,0,0-.709-.279A11.725,11.725,0,0,1,48.8,51.9a2.1,2.1,0,0,1-.948-1.808,2.23,2.23,0,0,1,.8-1.76,3.863,3.863,0,0,1,2.549-.709,4.429,4.429,0,0,1,2.445.542,2.756,2.756,0,0,1,1.107,1.593l-1.991.366a1.266,1.266,0,0,0-.494-.717,1.721,1.721,0,0,0-1.028-.255,2.27,2.27,0,0,0-1.2.239.486.486,0,0,0-.247.43.462.462,0,0,0,.215.382,7.75,7.75,0,0,0,1.983.6,5.863,5.863,0,0,1,2.39.948,1.944,1.944,0,0,1,.669,1.593,2.437,2.437,0,0,1-.924,1.9,4.086,4.086,0,0,1-2.724.8,4.524,4.524,0,0,1-2.6-.661,3.043,3.043,0,0,1-1.243-1.8Z" transform="translate(-9.673 -9.682)" fill="#fff" fill-rule="evenodd"/>
      <path id="Path_84" data-name="Path 84" d="M59.39,53.577l2.135-.327a1.49,1.49,0,0,0,.55.932,1.84,1.84,0,0,0,1.163.319,2.047,2.047,0,0,0,1.235-.3.669.669,0,0,0,.279-.566.542.542,0,0,0-.151-.4,1.593,1.593,0,0,0-.709-.279A11.725,11.725,0,0,1,60.672,51.9a2.1,2.1,0,0,1-.948-1.808,2.23,2.23,0,0,1,.8-1.76,3.863,3.863,0,0,1,2.549-.709,4.413,4.413,0,0,1,2.445.542,2.756,2.756,0,0,1,1.107,1.593l-1.991.366a1.266,1.266,0,0,0-.494-.717,1.721,1.721,0,0,0-1.075-.239,2.27,2.27,0,0,0-1.2.239.486.486,0,0,0-.247.43.462.462,0,0,0,.215.382,7.75,7.75,0,0,0,1.983.6,5.863,5.863,0,0,1,2.39.948,1.944,1.944,0,0,1,.669,1.593,2.437,2.437,0,0,1-.924,1.9,4.086,4.086,0,0,1-2.724.8,4.524,4.524,0,0,1-2.549-.685,3.043,3.043,0,0,1-1.282-1.792Z" transform="translate(-12.08 -9.682)" fill="#fff" fill-rule="evenodd"/>
      <rect id="Rectangle_32" data-name="Rectangle 32" width="27.672" height="1.713" transform="translate(26.568 32.751)" fill="#fff"/>
    </g>
  </g>
</svg>
