<svg xmlns="http://www.w3.org/2000/svg" width="106.334" height="49.876" viewBox="0 0 106.334 49.876">
  <g id="gos" opacity="0.3">
    <g id="_1" data-name="1">
      <path id="Path_177" data-name="Path 177" d="M75.884,33.727a1.5,1.5,0,0,0-.705-.456,2.684,2.684,0,0,0-.782-.124,1.564,1.564,0,0,0-1.007.32,1.777,1.777,0,0,0-.557,1.013L72.34,36.6a1.23,1.23,0,0,0,0,.13.89.89,0,0,0,0,.118.824.824,0,0,0,.077.438.883.883,0,0,0,.255.3,1.043,1.043,0,0,0,.361.154,1.606,1.606,0,0,0,.409.047,2.53,2.53,0,0,0,.4-.036,2.636,2.636,0,0,0,.444-.1,3.425,3.425,0,0,0,.444-.172,2.062,2.062,0,0,0,.4-.237l.687,1.493a3.715,3.715,0,0,1-.723.385,4.5,4.5,0,0,1-.729.231,4.924,4.924,0,0,1-.693.107h-.646a3.111,3.111,0,0,1-.912-.142,2.6,2.6,0,0,1-.877-.427,2.1,2.1,0,0,1-.8-1.837,3.626,3.626,0,0,1,.1-.628l.592-2.417a3.259,3.259,0,0,1,1.185-1.926,3.591,3.591,0,0,1,2.163-.622,4.775,4.775,0,0,1,.7.059,4.236,4.236,0,0,1,.693.172,3.591,3.591,0,0,1,.592.273,1.778,1.778,0,0,1,.456.367Z" transform="translate(-28.704 -12.818)" fill="#fff" fill-rule="evenodd"/>
      <path id="Path_178" data-name="Path 178" d="M84.635,33.263,84.2,35.136c-.154.592-.314,1.185-.474,1.718a4.965,4.965,0,0,1-.711,1.392,3.176,3.176,0,0,1-1.078.96,4.147,4.147,0,0,1-1.718.438l-.095-1.487a2.826,2.826,0,0,0,.948-.373,2.133,2.133,0,0,0,.592-.592,3.123,3.123,0,0,0,.373-.841c.095-.32.2-.687.3-1.108l.883-3.6h5.332L86.667,39.5H84.83l1.54-6.233Z" transform="translate(-32.65 -12.894)" fill="#fff" fill-rule="evenodd"/>
      <path id="Path_179" data-name="Path 179" d="M94.943,38.024h.693a1.185,1.185,0,0,0,.278-.053.847.847,0,0,0,.278-.13.889.889,0,0,0,.243-.249l.172-.249-.972-5.729h1.777l.213,2,.19,2.038h.059l1.072-2.014,1.1-2.044h1.926l-3.383,5.682a11.128,11.128,0,0,1-.824,1.185,3.49,3.49,0,0,1-.741.7,2.24,2.24,0,0,1-.794.32,5.214,5.214,0,0,1-.972.083H94.67Z" transform="translate(-38.579 -12.873)" fill="#fff" fill-rule="evenodd"/>
      <path id="Path_180" data-name="Path 180" d="M109,39.484l.741-3.2h-.332a2.69,2.69,0,0,0-.456.036,1.28,1.28,0,0,0-.391.136,1.369,1.369,0,0,0-.338.284,2.5,2.5,0,0,0-.29.48l-1.043,2.263H105l1.185-2.53a3.661,3.661,0,0,1,.634-.966,2.163,2.163,0,0,1,.912-.592.972.972,0,0,1-.51-.51,2.891,2.891,0,0,1-.231-.972l-.154-2.3h1.849l.16,2.127a1.049,1.049,0,0,0,.29.752,1.185,1.185,0,0,0,.735.19h.273l.723-3.069h1.777l-.717,3.069h.284a1.949,1.949,0,0,0,.433-.041A.96.96,0,0,0,113,34.5a1.392,1.392,0,0,0,.29-.29,2.772,2.772,0,0,0,.284-.474l1.049-2.127h1.908l-1.126,2.3a3.916,3.916,0,0,1-.675.972,1.932,1.932,0,0,1-.776.51.989.989,0,0,1,.592.592,3.229,3.229,0,0,1,.207.989l.136,2.53h-1.872l-.083-2.263a.918.918,0,0,0-.237-.776,1.351,1.351,0,0,0-.764-.178h-.421l-.752,3.2Z" transform="translate(-42.789 -12.881)" fill="#fff" fill-rule="evenodd"/>
      <path id="Path_181" data-name="Path 181" d="M125.79,31.63h4.971l-.391,1.617h-3.164l-.284,1.268H128.4a2.737,2.737,0,0,1,.972.16,1.89,1.89,0,0,1,.705.444,1.706,1.706,0,0,1,.415.681,2.287,2.287,0,0,1,.107.871,3.282,3.282,0,0,1-.184.907,2.607,2.607,0,0,1-.527.918,2.879,2.879,0,0,1-.954.705,3.419,3.419,0,0,1-1.481.29H123.9l1.937-7.862Zm.273,6.239h1.452a1.256,1.256,0,0,0,.942-.314,1.1,1.1,0,0,0,.338-.723.67.67,0,0,0-.184-.51.883.883,0,0,0-.646-.207h-1.44Z" transform="translate(-50.491 -12.89)" fill="#fff" fill-rule="evenodd"/>
      <path id="Path_182" data-name="Path 182" d="M140.412,37.94h-2.536l-.841,1.552H135.05l4.71-7.862h1.872l.788,7.862h-1.9l-.1-1.552ZM138.7,36.453h1.617V35.6l-.1-1.849h-.041l-.918,1.653Z" transform="translate(-55.034 -12.89)" fill="#fff" fill-rule="evenodd"/>
      <path id="Path_183" data-name="Path 183" d="M72.574,51a3.46,3.46,0,0,1,.895.113,2.4,2.4,0,0,1,.758.35,1.777,1.777,0,0,1,.527.592,1.41,1.41,0,0,1,.166.782,2.518,2.518,0,0,1-.4,1.25,2.287,2.287,0,0,1-1.185.871,1.588,1.588,0,0,1,.456.261,1.345,1.345,0,0,1,.29.355,1.3,1.3,0,0,1,.148.4,1.351,1.351,0,0,1,.036.367,2.429,2.429,0,0,1-.391,1.232,3.075,3.075,0,0,1-.865.841,3.946,3.946,0,0,1-1.114.474,5.06,5.06,0,0,1-1.149.148,5.226,5.226,0,0,1-1.369-.178,2.962,2.962,0,0,1-1.185-.628l1.12-1.3a2.044,2.044,0,0,0,.835.409,3.709,3.709,0,0,0,.847.118,1.849,1.849,0,0,0,.5-.071,1.516,1.516,0,0,0,.456-.2,1.22,1.22,0,0,0,.332-.32.735.735,0,0,0,.142-.427.557.557,0,0,0-.273-.545,1.274,1.274,0,0,0-.67-.178h-1.12l.35-1.41H71.8a1.967,1.967,0,0,0,.492-.065,1.321,1.321,0,0,0,.415-.184.918.918,0,0,0,.3-.3.794.794,0,0,0,.13-.433.438.438,0,0,0-.089-.32.711.711,0,0,0-.231-.225.972.972,0,0,0-.326-.113,2,2,0,0,0-.3-.03,3.68,3.68,0,0,0-.415.03,3.1,3.1,0,0,0-.474.1,4.083,4.083,0,0,0-.5.166,2.37,2.37,0,0,0-.444.255l-.592-1.38a5.006,5.006,0,0,1,1.422-.592A5.972,5.972,0,0,1,72.574,51Z" transform="translate(-27.788 -20.783)" fill="#fff" fill-rule="evenodd"/>
      <path id="Path_184" data-name="Path 184" d="M84.3,57.454H81.742l-.847,1.552H78.91l4.7-7.856h1.866l.788,7.856h-1.9Zm-1.712-1.481h1.594V55.12l-.1-1.849h-.041L83.111,54.9Z" transform="translate(-32.157 -20.844)" fill="#fff" fill-rule="evenodd"/>
      <path id="Path_185" data-name="Path 185" d="M97.189,59.006l.8-3.182H95.465l-.782,3.182H92.87l1.943-7.856h1.813L95.874,54.2H98.38l.758-3.045h1.837l-1.949,7.856Z" transform="translate(-37.846 -20.844)" fill="#fff" fill-rule="evenodd"/>
      <path id="Path_186" data-name="Path 186" d="M109.517,56.031a3.282,3.282,0,0,0-.444,0,1.061,1.061,0,0,0-.361.136,1.185,1.185,0,0,0-.308.29,2.281,2.281,0,0,0-.273.474l-.93,2.044h-2.05l1.025-2.1.19-.4a3.462,3.462,0,0,1,.225-.385,1.92,1.92,0,0,1,.278-.332.918.918,0,0,1,.344-.219,1.511,1.511,0,0,1-.64-.741,2.317,2.317,0,0,1-.154-1,3.247,3.247,0,0,1,.207-.948,2.66,2.66,0,0,1,.539-.859,2.731,2.731,0,0,1,.859-.6,2.927,2.927,0,0,1,1.25-.243h3.762l-1.884,7.856h-1.825l.758-2.962Zm1.381-3.265h-1.469a1.144,1.144,0,0,0-.77.249.9.9,0,0,0-.314.681.782.782,0,0,0,.142.527.735.735,0,0,0,.592.207h1.392Z" transform="translate(-42.85 -20.843)" fill="#fff" fill-rule="evenodd"/>
      <path id="Path_187" data-name="Path 187" d="M123.38,52.779l-1.54,6.227h-1.813l1.54-6.227h-2l.4-1.629h5.795l-.4,1.629Z" transform="translate(-48.726 -20.844)" fill="#fff" fill-rule="evenodd"/>
      <path id="Path_188" data-name="Path 188" d="M134.926,56.508a3.223,3.223,0,0,1-1.143,1.9A3.662,3.662,0,0,1,131.6,59a3.555,3.555,0,0,1-1.019-.154,2.9,2.9,0,0,1-.9-.468,2.37,2.37,0,0,1-.64-.788,2.258,2.258,0,0,1-.2-1.126,3.756,3.756,0,0,1,.1-.64l.592-2.334a3.324,3.324,0,0,1,.486-1.12,3.034,3.034,0,0,1,.741-.788,3.081,3.081,0,0,1,.954-.456,3.821,3.821,0,0,1,1.078-.148,3.7,3.7,0,0,1,1.043.154,2.82,2.82,0,0,1,.924.462,2.329,2.329,0,0,1,.646.77,2.109,2.109,0,0,1,.213,1.078.768.768,0,0,1-.03.255c-.03.089-.036.184-.059.278l-.592,2.512Zm-1.185-2.53h0a.408.408,0,0,0,0-.142v-.124a.96.96,0,0,0-.089-.468.99.99,0,0,0-.255-.326,1.108,1.108,0,0,0-.361-.19,1.4,1.4,0,0,0-.409-.065,1.487,1.487,0,0,0-.883.278,1.594,1.594,0,0,0-.545.954l-.492,2.133a1.138,1.138,0,0,0-.047.3.954.954,0,0,0,.083.486.918.918,0,0,0,.278.32,1.185,1.185,0,0,0,.385.172,1.671,1.671,0,0,0,.409.047,1.375,1.375,0,0,0,.865-.278,1.659,1.659,0,0,0,.533-.948Z" transform="translate(-52.499 -20.775)" fill="#fff" fill-rule="evenodd"/>
      <path id="Path_189" data-name="Path 189" d="M147.057,53.249a1.517,1.517,0,0,0-.7-.456,2.725,2.725,0,0,0-.788-.124,1.552,1.552,0,0,0-1,.326A1.778,1.778,0,0,0,143.976,54l-.492,2.127v.249a.841.841,0,0,0,.083.438.788.788,0,0,0,.249.29,1,1,0,0,0,.361.16,1.926,1.926,0,0,0,.409.047,2.531,2.531,0,0,0,.4-.036,3.993,3.993,0,0,0,.444-.1,4.664,4.664,0,0,0,.45-.172,2.033,2.033,0,0,0,.4-.243l.687,1.5a4.492,4.492,0,0,1-.723.385,4.437,4.437,0,0,1-.723.231,5.137,5.137,0,0,1-.7.107h-.646a3.14,3.14,0,0,1-.912-.142,2.654,2.654,0,0,1-.841-.438,2.257,2.257,0,0,1-.592-.758,2.21,2.21,0,0,1-.2-1.078,3.1,3.1,0,0,1,.107-.628l.592-2.423a3.241,3.241,0,0,1,1.185-1.92,3.6,3.6,0,0,1,2.163-.6,4.194,4.194,0,0,1,.705.059,3.952,3.952,0,0,1,.693.172,3.122,3.122,0,0,1,.592.273,1.925,1.925,0,0,1,.462.361Z" transform="translate(-57.716 -20.78)" fill="#fff" fill-rule="evenodd"/>
      <path id="Path_190" data-name="Path 190" d="M157.73,52.779l-1.54,6.227h-1.813l1.54-6.227h-2l.391-1.629h5.8l-.4,1.629Z" transform="translate(-62.724 -20.844)" fill="#fff" fill-rule="evenodd"/>
      <path id="Path_191" data-name="Path 191" d="M168.465,54.373l-4.147,4.633H162.7l1.932-7.856h1.807L165.3,55.777h.036L169.5,51.15h1.635L169.2,59.006h-1.813l1.138-4.633Z" transform="translate(-66.302 -20.844)" fill="#fff" fill-rule="evenodd"/>
      <path id="Path_192" data-name="Path 192" d="M71.489,78.522l.8-3.182H69.765l-.782,3.182H67.17l1.943-7.862h1.813l-.752,3.045H72.68l.758-3.045h1.837l-1.949,7.862Z" transform="translate(-27.373 -28.795)" fill="#fff" fill-rule="evenodd"/>
      <path id="Path_193" data-name="Path 193" d="M84.38,76.97H81.844L81,78.522H79l4.74-7.862h1.872l.788,7.862h-1.92l-.1-1.552Zm-1.712-1.487h1.617V74.63l-.095-1.849h-.041l-.924,1.635Z" transform="translate(-32.193 -28.795)" fill="#fff" fill-rule="evenodd"/>
      <path id="Path_194" data-name="Path 194" d="M98.589,72.805a1.487,1.487,0,0,0-.7-.456,2.684,2.684,0,0,0-.782-.124,1.535,1.535,0,0,0-1.007.326,1.777,1.777,0,0,0-.563,1.007l-.486,2.121a1.23,1.23,0,0,0,0,.13.893.893,0,0,0,0,.118.824.824,0,0,0,.077.438.883.883,0,0,0,.255.3,1.185,1.185,0,0,0,.361.16,1.914,1.914,0,0,0,.409.041,3.493,3.493,0,0,0,.4,0,3.141,3.141,0,0,0,.438-.107,3.2,3.2,0,0,0,.45-.172,2.062,2.062,0,0,0,.4-.237l.681,1.493a3.673,3.673,0,0,1-.717.385,4.687,4.687,0,0,1-.729.231,4.925,4.925,0,0,1-.693.107,6.169,6.169,0,0,1-.646.03,3.111,3.111,0,0,1-.912-.142,2.535,2.535,0,0,1-.841-.438,2.1,2.1,0,0,1-.835-1.843,3.135,3.135,0,0,1,.1-.628l.592-2.417A3.259,3.259,0,0,1,95.034,71.2a3.614,3.614,0,0,1,2.157-.592,4.829,4.829,0,0,1,.705.053,4.235,4.235,0,0,1,.693.172,3.809,3.809,0,0,1,.592.273,1.778,1.778,0,0,1,.456.367Z" transform="translate(-37.959 -28.772)" fill="#fff" fill-rule="evenodd"/>
      <path id="Path_195" data-name="Path 195" d="M105.679,70.66h5.368l-.391,1.617h-3.573l-.361,1.487h3.134l-.391,1.594h-3.14l-.391,1.564h3.8l-.409,1.6h-5.6Z" transform="translate(-42.271 -28.795)" fill="#fff" fill-rule="evenodd"/>
      <path id="Path_196" data-name="Path 196" d="M119.087,72.277l-.468,1.872c-.154.592-.314,1.185-.474,1.718a4.959,4.959,0,0,1-.658,1.392,3.235,3.235,0,0,1-1.078.96,4.035,4.035,0,0,1-1.724.438l-.095-1.487a2.862,2.862,0,0,0,.954-.4,2.109,2.109,0,0,0,.592-.592,3.128,3.128,0,0,0,.379-.841c.089-.32.19-.687.3-1.108l.889-3.6h5.332l-1.92,7.88h-1.837l1.54-6.233Z" transform="translate(-46.697 -28.782)" fill="#fff" fill-rule="evenodd"/>
      <path id="Path_197" data-name="Path 197" d="M130.493,70.66h5.374l-.391,1.617H131.9l-.361,1.487h3.134l-.391,1.594h-3.14l-.391,1.564h3.8l-.4,1.6h-5.6Z" transform="translate(-52.386 -28.795)" fill="#fff" fill-rule="evenodd"/>
      <path id="Path_198" data-name="Path 198" d="M144.465,78.522l.794-3.182h-2.524l-.782,3.182H140.14l1.943-7.862H143.9l-.752,3.045h2.506l.758-3.045h1.837L146.3,78.522Z" transform="translate(-57.109 -28.795)" fill="#fff" fill-rule="evenodd"/>
      <path id="Path_199" data-name="Path 199" d="M158.751,73.889,154.6,78.522H152.98l1.937-7.862h1.8l-1.138,4.633h.036l4.171-4.633h1.629l-1.932,7.862h-1.819l1.138-4.633Z" transform="translate(-62.341 -28.795)" fill="#fff" fill-rule="evenodd"/>
      <path id="Path_200" data-name="Path 200" d="M170.457,75.542a2.5,2.5,0,0,0-.444.036.989.989,0,0,0-.361.136,1.257,1.257,0,0,0-.308.284,2.525,2.525,0,0,0-.267.48l-.93,2.044H166.09l1.025-2.1c.059-.13.124-.261.19-.4a3.551,3.551,0,0,1,.231-.391,2.079,2.079,0,0,1,.273-.332.824.824,0,0,1,.35-.213,1.493,1.493,0,0,1-.646-.741,2.37,2.37,0,0,1-.154-1.007,3.045,3.045,0,0,1,.213-.942,2.672,2.672,0,0,1,.533-.865A2.8,2.8,0,0,1,169,70.9a3.016,3.016,0,0,1,1.25-.243h3.768l-1.89,7.862h-1.849l.764-2.962Zm1.386-3.265h-1.475a1.12,1.12,0,0,0-.77.255.9.9,0,0,0-.314.675.764.764,0,0,0,.142.527.717.717,0,0,0,.592.213h1.392Z" transform="translate(-67.683 -28.794)" fill="#fff" fill-rule="evenodd"/>
      <path id="Path_201" data-name="Path 201" d="M77.315,19.979l.136-.539H75.1l-.859,3.466h.628l.723-2.927Z" transform="translate(-30.254 -7.922)" fill="#fff" fill-rule="evenodd"/>
      <path id="Path_202" data-name="Path 202" d="M82.5,20.519a.671.671,0,0,0,0-.107.9.9,0,0,0-.089-.45.966.966,0,0,0-.273-.326,1.244,1.244,0,0,0-.4-.2,1.558,1.558,0,0,0-.456-.071,1.837,1.837,0,0,0-.48.065,1.493,1.493,0,0,0-.415.2,1.369,1.369,0,0,0-.326.338,1.463,1.463,0,0,0-.207.486l-.273,1.1a1.826,1.826,0,0,0-.047.278.984.984,0,0,0,.083.474,1,1,0,0,0,.273.332,1.256,1.256,0,0,0,.385.2,1.689,1.689,0,0,0,.45.065,1.629,1.629,0,0,0,.96-.261,1.422,1.422,0,0,0,.492-.829l.3-1.3Zm-.64.083h0a.266.266,0,0,1,0,.095l-.273,1a.871.871,0,0,1-.29.5.764.764,0,0,1-.468.154.971.971,0,0,1-.219,0,.652.652,0,0,1-.219-.095.557.557,0,0,1-.16-.19.533.533,0,0,1-.053-.284.592.592,0,0,1,0-.16l.243-1a.847.847,0,0,1,.3-.51.788.788,0,0,1,.7-.118.545.545,0,0,1,.207.113.516.516,0,0,1,.148.19.5.5,0,0,1,.053.273Z" transform="translate(-32.412 -7.893)" fill="#fff" fill-rule="evenodd"/>
      <path id="Path_203" data-name="Path 203" d="M88.236,19.589a1.884,1.884,0,0,0-.267-.118,1.606,1.606,0,0,0-.3-.071,2,2,0,0,0-.314-.03,1.6,1.6,0,0,0-.948.273,1.446,1.446,0,0,0-.521.841L85.6,21.615a1.185,1.185,0,0,0-.047.273.912.912,0,0,0,.077.456.889.889,0,0,0,.255.314,1.185,1.185,0,0,0,.361.19,1.777,1.777,0,0,0,.687.047,2.014,2.014,0,0,0,.314-.047,2.471,2.471,0,0,0,.32-.1,1.878,1.878,0,0,0,.243-.124l-.219-.51-.095.047a1.778,1.778,0,0,1-.225.089l-.225.047a1.072,1.072,0,0,1-.415,0,.675.675,0,0,1-.213-.089.539.539,0,0,1-.148-.178.456.456,0,0,1-.047-.261.2.2,0,0,1,0-.065.3.3,0,0,1,0-.077l.231-.989a.936.936,0,0,1,.3-.533,1.019,1.019,0,0,1,.942-.113.829.829,0,0,1,.284.154l.373-.474Z" transform="translate(-34.864 -7.893)" fill="#fff" fill-rule="evenodd"/>
      <path id="Path_204" data-name="Path 204" d="M92.059,22.474a4.568,4.568,0,0,0,.373-.539L93.9,19.44h-.592l-1.025,1.9h-.19l-.184-1.9h-.592l.444,2.6-.107.154a.486.486,0,0,1-.148.142.539.539,0,0,1-.154.077l-.154.03h-.261l-.089.51h.142a2.316,2.316,0,0,0,.433-.036.96.96,0,0,0,.332-.136,1.547,1.547,0,0,0,.3-.3Z" transform="translate(-37.022 -7.922)" fill="#fff" fill-rule="evenodd"/>
      <path id="Path_205" data-name="Path 205" d="M98.222,22.373l.723-2.933h-2.37l-.433,1.452c-.053.19-.113.361-.172.515a2.552,2.552,0,0,1-.19.4,1.777,1.777,0,0,1-.219.308,1.185,1.185,0,0,1-.284.237h-.219L94.72,23.73h.539l.219-.824h2.435l-.213.841h.533l.344-1.375Zm-.592,0H95.952l.166-.184a1.232,1.232,0,0,0,.219-.3,2.323,2.323,0,0,0,.172-.344c.047-.118.095-.237.13-.355l.367-1.221h1.185Z" transform="translate(-38.599 -7.922)" fill="#fff" fill-rule="evenodd"/>
      <path id="Path_206" data-name="Path 206" d="M104.523,22.177l.047.729h.675l-.35-3.466h-.717l-2.08,3.466h.675l.4-.729Zm-.705-1.138h0l.45-.824h.142l.065,1.481h-1.049Z" transform="translate(-41.607 -7.922)" fill="#fff" fill-rule="evenodd"/>
      <path id="Path_207" data-name="Path 207" d="M111.566,20.755a1.659,1.659,0,0,0,.095-.415,1.1,1.1,0,0,0-.036-.338,1,1,0,0,0-.136-.29.782.782,0,0,0-.237-.2.747.747,0,0,0-.338-.071h-1.5l-.859,3.466h.628l.332-1.345h.877a1.244,1.244,0,0,0,1.185-.806Zm-.7.077h0a.64.64,0,0,1-.486.19h-.735l.255-1.043h.693a.48.48,0,0,1,.361.124.409.409,0,0,1,.1.308.634.634,0,0,1-.19.421Z" transform="translate(-44.235 -7.922)" fill="#fff" fill-rule="evenodd"/>
      <path id="Path_208" data-name="Path 208" d="M117.085,19.589a2.774,2.774,0,0,0-.267-.118,1.606,1.606,0,0,0-.3-.071,2.009,2.009,0,0,0-.32-.03,1.6,1.6,0,0,0-.948.273,1.44,1.44,0,0,0-.515.841l-.284,1.132a1.186,1.186,0,0,0-.041.273.853.853,0,0,0,.077.456.889.889,0,0,0,.255.314,1.144,1.144,0,0,0,.355.19,1.825,1.825,0,0,0,.693.047,1.943,1.943,0,0,0,.308-.047,2.548,2.548,0,0,0,.326-.1,2.371,2.371,0,0,0,.243-.124l-.231-.5-.1.047a1.7,1.7,0,0,1-.219.089l-.225.047a1.108,1.108,0,0,1-.421,0,.592.592,0,0,1-.207-.089.48.48,0,0,1-.148-.178.456.456,0,0,1-.053-.261.289.289,0,0,0,0-.065v-.077l.225-.989a.942.942,0,0,1,.3-.533,1.013,1.013,0,0,1,.936-.113.912.912,0,0,1,.29.154l.373-.474Z" transform="translate(-46.62 -7.893)" fill="#fff" fill-rule="evenodd"/>
      <path id="Path_209" data-name="Path 209" d="M122.714,19.985l.13-.545H120.35l-.13.545h.936l-.723,2.921h.628l.723-2.921Z" transform="translate(-48.991 -7.922)" fill="#fff" fill-rule="evenodd"/>
      <path id="Path_210" data-name="Path 210" d="M127.522,19.866a.592.592,0,0,0-.142-.219.8.8,0,0,0-.261-.154,1.232,1.232,0,0,0-.385-.053h-1.54l-.853,3.466h1.706a1.185,1.185,0,0,0,.468-.089,1.321,1.321,0,0,0,.367-.243,1.09,1.09,0,0,0,.243-.35,1,1,0,0,0,.107-.415v-.2a.646.646,0,0,0-.041-.178.492.492,0,0,0-.083-.154.444.444,0,0,0-.136-.113l-.19-.107.2-.083a.942.942,0,0,0,.421-.338.906.906,0,0,0,.16-.5.735.735,0,0,0-.036-.278Zm-1.185,2.34h0a.64.64,0,0,1-.456.166h-.806l.243-1.007h.752a.48.48,0,0,1,.35.118.415.415,0,0,1,.1.3A.592.592,0,0,1,126.337,22.207Zm.468-1.718h0a.622.622,0,0,1-.1.166.593.593,0,0,1-.19.148.752.752,0,0,1-.3.059h-.77l.219-.895h.711a.521.521,0,0,1,.35.1.356.356,0,0,1,.113.284.935.935,0,0,1-.012.136Z" transform="translate(-50.67 -7.922)" fill="#fff" fill-rule="evenodd"/>
      <path id="Path_211" data-name="Path 211" d="M131.159,19.44l-.859,3.466h2.406l.13-.533h-1.777l.237-.948h1.469l.13-.533h-1.469l.225-.912h1.671l.136-.539Z" transform="translate(-53.099 -7.922)" fill="#fff" fill-rule="evenodd"/>
      <path id="Path_212" data-name="Path 212" d="M138.615,19.44l-.355,1.422h-1.4l.355-1.422h-.628l-.859,3.466h.628l.367-1.493h1.4l-.373,1.493h.64l.859-3.466Z" transform="translate(-55.311 -7.922)" fill="#fff" fill-rule="evenodd"/>
      <path id="Path_213" data-name="Path 213" d="M144.6,19.44l-.355,1.422h-1.4l.355-1.422h-.628l-.859,3.466h.628l.367-1.493h1.4l-.373,1.493h.64l.853-3.466Z" transform="translate(-57.748 -7.922)" fill="#fff" fill-rule="evenodd"/>
      <path id="Path_214" data-name="Path 214" d="M149.779,22.177l.047.729h.67l-.35-3.466h-.717l-2.08,3.466h.681l.391-.729Zm-.741-1.138h0l.456-.824h.184l.065,1.481h-1.049Z" transform="translate(-60.047 -7.922)" fill="#fff" fill-rule="evenodd"/>
      <path id="Path_215" data-name="Path 215" d="M155.434,19.44a1.345,1.345,0,0,0-.539.1,1.185,1.185,0,0,0-.592.64,1.51,1.51,0,0,0-.095.409,1.114,1.114,0,0,0,.065.427.622.622,0,0,0,.261.3l.19.118-.213.071a.338.338,0,0,0-.124.077,1.49,1.49,0,0,0-.113.142,1.55,1.55,0,0,0-.1.166l-.089.19-.4.829h.723l.4-.895a1.546,1.546,0,0,1,.142-.249.527.527,0,0,1,.172-.154.492.492,0,0,1,.207-.083,1.31,1.31,0,0,1,.231,0h.4l-.355,1.4h.634l.835-3.466Zm.64,1.517h-.735a.456.456,0,0,1-.373-.136.486.486,0,0,1-.089-.32.557.557,0,0,1,.184-.4.658.658,0,0,1,.433-.142h.829Z" transform="translate(-62.626 -7.922)" fill="#fff" fill-rule="evenodd"/>
      <path id="Path_216" data-name="Path 216" d="M36.628,27.681l1.12-3.235h0l.16-.45a10.807,10.807,0,0,1,6.8-6.28C48.65,4.349,49.93,0,49.93,0a27.7,27.7,0,0,0-6.517,1.363A12.407,12.407,0,0,0,37,6.7h0a16.157,16.157,0,0,0-1.3,2.672c1.777-.338,4.787-.521,4.787-.521L34,27.811A20.056,20.056,0,0,1,32.54,31.1a18.4,18.4,0,0,0,3.235-1.226C36.065,29.139,36.367,28.4,36.628,27.681Z" transform="translate(-13.26 0)" fill="#fff" fill-rule="evenodd"/>
      <path id="Path_217" data-name="Path 217" d="M42.065,29.852a1.191,1.191,0,0,0-.32.071L41.473,30a10.848,10.848,0,0,0-7.2,6.4l-.154.456h0L33,40.09c-.592,1.564-1.244,3.194-1.926,4.775l-.32.741-.237.462c-3.016,6.192-6.873,8.621-8.378,9.367l5.5-.118h0c4.224-.231,10.665-1.961,13.372-9.895l5.51-16.193a25.021,25.021,0,0,0-4.456.622Z" transform="translate(-9.022 -11.912)" fill="#fff" fill-rule="evenodd"/>
      <path id="Path_218" data-name="Path 218" d="M21.655,16.909a14.048,14.048,0,0,0-10.262,8.6l-.267.776h0l-1.013,2.962c-1.232,3.241-2.66,6.707-4.147,9.711h0S3.122,45.437,0,47.12c3.371.385,15.4.829,19.623-11.613L26.141,16.34a31.165,31.165,0,0,0-4.485.569Z" transform="translate(0 -6.659)" fill="#fff" fill-rule="evenodd"/>
    </g>
  </g>
</svg>
