<svg xmlns="http://www.w3.org/2000/svg" width="40" height="40" viewBox="0 0 40 40"><defs><style>.a{fill:#2b2a29;}</style></defs><g transform="translate(-6629.458 -11089.6)"><path class="a" d="M20169.479,19939.4a1.208,1.208,0,1,1-1.266,1.207A1.238,1.238,0,0,1,20169.479,19939.4Z" transform="translate(-13509.984 -8830.994)"/><path class="a" d="M10713.8,19946.2a1.209,1.209,0,1,1-1.267,1.209A1.24,1.24,0,0,1,10713.8,19946.2Z" transform="translate(-4074.396 -8837.779)"/><path class="a" d="M14359.371,17848.039l.007,9.027h1.742a4.773,4.773,0,0,0,3.455-1.172,4.554,4.554,0,0,0,1.2-3.41,4.294,4.294,0,0,0-1.271-3.32,4.776,4.776,0,0,0-3.386-1.125Zm-1.433,10.156-.008-11.285h3.261a5.932,5.932,0,0,1,4.232,1.453,5.4,5.4,0,0,1,1.617,4.152,5.524,5.524,0,0,1-1.549,4.191,5.914,5.914,0,0,1-4.262,1.484Z" transform="translate(-7712.049 -6742.951)"/><path class="a" d="M6649.458,11089.6a20,20,0,1,1-14.142,5.857A19.939,19.939,0,0,1,6649.458,11089.6Zm13.224,6.775a18.7,18.7,0,1,0,5.478,13.224A18.641,18.641,0,0,0,6662.682,11096.376Z" transform="translate(0 -0.001)"/></g></svg>