<svg xmlns="http://www.w3.org/2000/svg" width="26.596" height="36.12" viewBox="0 0 26.596 36.12"><defs><style>.a{fill:#fff;}</style></defs><g transform="translate(-5.883 -30)"><path d="M26.18,0a13.313,13.313,0,0,0-13.3,13.3,12.971,12.971,0,0,0,1.163,5.428C17.371,26,23.745,33.682,25.62,35.863a.74.74,0,0,0,1.122,0C28.616,33.683,34.99,26,38.316,18.726A12.966,12.966,0,0,0,39.479,13.3,13.314,13.314,0,0,0,26.18,0Z" transform="translate(-7 30)"/><g transform="translate(9.949 33.697)"><path class="a" d="M20168.8,19939.4a.56.56,0,1,1-.586.561A.57.57,0,0,1,20168.8,19939.4Z" transform="translate(-20154.924 -19930.713)"/><path class="a" d="M10713.119,19946.2a.561.561,0,1,1-.588.561A.574.574,0,0,1,10713.119,19946.2Z" transform="translate(-10708.523 -19937.506)"/><path class="a" d="M14358.6,17847.432l0,4.189h.811a2.205,2.205,0,0,0,1.6-.543,2.115,2.115,0,0,0,.555-1.582,2,2,0,0,0-.59-1.543,2.235,2.235,0,0,0-1.57-.521Zm-.666,4.715,0-5.234,1.512,0a2.752,2.752,0,0,1,1.965.676,2.515,2.515,0,0,1,.75,1.926,2.559,2.559,0,0,1-.719,1.945,2.743,2.743,0,0,1-1.977.689Z" transform="translate(-14350.352 -17840.285)"/><path class="a" d="M6638.7,11089.6a9.24,9.24,0,1,1-6.535,2.706A9.214,9.214,0,0,1,6638.7,11089.6Zm6.11,3.131a8.642,8.642,0,1,0,2.531,6.11A8.615,8.615,0,0,0,6644.81,11092.73Z" transform="translate(-6629.458 -11089.6)"/></g></g></svg>