<svg xmlns="http://www.w3.org/2000/svg" width="22.156" height="31.672" viewBox="0 0 22.156 31.672"><defs><style>.a{fill:#363636;}</style></defs><g transform="translate(3.16)"><g transform="translate(0)"><path class="a" d="M135.92,0a7.918,7.918,0,1,0,7.918,7.918A7.926,7.926,0,0,0,135.92,0Zm0,11.877a3.959,3.959,0,1,1,3.959-3.959A3.963,3.963,0,0,1,135.92,11.877Z" transform="translate(-128.002)"/></g></g><g transform="translate(0 15.036)"><g transform="translate(0)"><path class="a" d="M98.5,243.644a1.977,1.977,0,0,0-2.8,0,10.9,10.9,0,0,1-15.4,0,1.98,1.98,0,0,0-2.8,2.8,14.756,14.756,0,0,0,8.8,4.232l-5.643,5.643a1.979,1.979,0,0,0,2.8,2.8L88,254.581l4.539,4.539a1.979,1.979,0,0,0,2.8-2.8l-5.643-5.643a14.756,14.756,0,0,0,8.8-4.232A1.981,1.981,0,0,0,98.5,243.644Z" transform="translate(-76.922 -243.064)"/></g></g></svg>