<svg xmlns="http://www.w3.org/2000/svg" width="119.872" height="23.831" viewBox="0 0 119.872 23.831">
  <g id="sub" transform="translate(-8 -1.594)" opacity="0.3">
    <g id="_1" data-name="1" transform="translate(8 1.594)">
      <path id="Path_85" data-name="Path 85" d="M94.384,21.608a8.6,8.6,0,0,0,2.749,1.237c3.118.71,7.071-.27,8.341-3.473.658-1.723.434-5.407.434-7.558V3.75h-5.545V15.643c0,1.559.237,2.592-1.533,2.631s-1.6-.888-1.6-2.427V3.789h-5.5L91.687,11.8v3.947c0,1.493.178,2.513-1.572,2.513s-1.579-.947-1.579-2.427V3.77H82.965v8.012c0,4.821-1.026,9.939,4.92,11.129a8.637,8.637,0,0,0,5.262-.493C93.588,22.148,93.956,21.826,94.384,21.608Z" transform="translate(-28.37 -1.283)" fill="#fff" fill-rule="evenodd"/>
      <path id="Path_86" data-name="Path 86" d="M62.805,18.432V14.873h3.1c1.783.191,1.776,3.355,0,3.552a23.384,23.384,0,0,1-3.111,0Zm0-10.524H65.64c1.572.191,1.526,3.124,0,3.348H62.805ZM57.26,22.694c2.282.112,4.8,0,7.064,0,2.4,0,4.368.138,6.091-.941a5.285,5.285,0,0,0,2.467-4.6c.145-2.7-1.316-3.5-2.519-4.5.263-.493,2.3-1.316,1.973-4.5a4.743,4.743,0,0,0-2.717-3.8c-1.783-.835-3.578-.691-5.828-.691H57.286Z" transform="translate(-19.596 -1.251)" fill="#fff" fill-rule="evenodd"/>
      <path id="Path_87" data-name="Path 87" d="M126.075,12.542a28.449,28.449,0,0,1,0-3.512c.158-1.94,4.026-1.973,4.2,0a32.94,32.94,0,0,1,0,3.512Zm-5.538,9.867h5.479l.039-5.5h4.2V22.4h5.532c.092-4.466.072-9.209,0-13.642-.066-4.019-3.67-5.92-7.709-5.92s-7.545,1.973-7.591,6c-.013.881-.079,12.938.033,13.57Z" transform="translate(-41.222 -0.972)" fill="#fff" fill-rule="evenodd"/>
      <path id="Path_88" data-name="Path 88" d="M164.1,2.282l-3.762.039a5.387,5.387,0,0,0-3.072.809c-3.414,2.434.23,7.854-3.2,8.288s-2.7-2.21-2.7-5.039V2.434h-5.506c0,1.473-.105,8.1.092,9.064a6.032,6.032,0,0,0,4.749,4.433v5.506h5.6l.033-5.519c2.822-.658,4.769-2.631,4.8-5.479,0-.572-.151-2.953.184-3.249l2.749-.072V9.393l5.709-4.7L164.1,0Z" transform="translate(-49.906)" fill="#fff" fill-rule="evenodd"/>
      <path id="Path_89" data-name="Path 89" d="M36.758,3.766H31.2V17.276c.132,7.952,15.267,7.689,15.385,0,.033-2.263,0-4.545,0-6.8V3.7H41.04V16.132c0,1.269-.191,2.2-2.019,2.23-1.533,0-2.23-.48-2.223-1.973Z" transform="translate(-10.678 -1.266)" fill="#fff" fill-rule="evenodd"/>
      <path id="Path_90" data-name="Path 90" d="M5.683,25.069V22.53c4.736-.21,11.721,1.493,13.451-3.164a6.144,6.144,0,0,0-.2-4.749c-1.184-2.1-4.525-3.289-6.749-4.374-.5-.257-1.473-.618-1.467-1.316,0-.987,1.316-.743,2.151-.737l5.644.033-.046-4.539-5.512-.066C9.814,3.586,6.736,3.9,5.5,7.289a5.479,5.479,0,0,0,.612,4.6c1.454,2.092,4.6,3.026,6.933,4.276.48.257,1.434.868.816,1.625-.375.454-1.9.263-2.585.257l-5.525-.138v-2.3L0,20.247Z" transform="translate(0 -1.238)" fill="#fff" fill-rule="evenodd"/>
      <path id="Path_91" data-name="Path 91" d="M165.228,28a1.618,1.618,0,1,0,1.618,1.618A1.618,1.618,0,0,0,165.228,28Zm-.493,2.217V28.842h.579a.921.921,0,0,1,.316.039.3.3,0,0,1,.158.125.415.415,0,0,1,.059.217.349.349,0,0,1-.086.25.421.421,0,0,1-.27.132.658.658,0,0,1,.145.112,1.317,1.317,0,0,1,.158.217l.164.27h-.329l-.2-.3a2.029,2.029,0,0,0-.145-.2.184.184,0,0,0-.079-.053.382.382,0,0,0-.138,0h-.059v.572Zm.276-.783v-.349h.414a.178.178,0,0,1,.105.053.19.19,0,0,1,.033.112.158.158,0,0,1,0,.1.177.177,0,0,1-.079.059.862.862,0,0,1-.243,0Zm-.849.408a1.107,1.107,0,1,1,1.3.868A1.107,1.107,0,0,1,164.163,29.842Zm.658-1.46a1.212,1.212,0,1,1-.007-.013Z" transform="translate(-55.992 -9.582)" fill="#fff" fill-rule="evenodd"/>
    </g>
  </g>
</svg>
