<svg xmlns="http://www.w3.org/2000/svg" version="1.1" xmlns:xlink="http://www.w3.org/1999/xlink" xmlns:svgjs="http://svgjs.com/svgjs" height="72.4324324324324" width="339.1199951171875"><defs id="SvgjsDefs1776"></defs><g id="SvgjsG1777" rel="mainfill" name="main_text" xmlns:name="main_text" transform="translate(80.2699999809265,-200.12879263388146)" fill="#000000"><path d="M19.92 202.64L19.69 202.53C18.53 202.36 17.21 202.24 15.89 202.24L13.87 202.24C13.24 202.41 12.66 202.41 12.15 202.59C11.17 202.76 10.30 203.05 9.44 203.33C8.52 203.68 7.77 204.02 7.14 204.43C6.27 204.89 5.76 205.29 5.12 205.92C4.89 206.15 2.88 208.46 2.71 209.15L2.01 210.99C1.84 211.62 1.78 212.26 1.73 212.95C1.73 213.58 1.90 214.21 1.96 214.85L2.59 216.69C3.17 217.90 3.86 218.99 4.72 219.97C5.58 221.06 6.45 221.75 7.31 222.62C7.60 222.90 8.17 223.42 8.81 223.88L9.84 224.75C10.02 225.09 12.43 227.16 13.30 228.03C14.16 228.95 14.85 229.87 15.48 230.79C16.17 231.71 16.63 232.57 16.81 233.32C16.87 233.73 16.92 233.96 16.92 234.24L16.92 234.53C16.92 234.93 16.87 235.22 16.69 235.40L16.29 235.86L14.85 236.60C14.39 236.83 13.64 236.83 12.95 237.01C12.26 237.18 11.45 237.29 10.59 237.47C9.73 237.47 8.98 237.52 8.12 237.58L5.58 237.58C5.76 237.70 5.81 237.81 5.81 237.93L5.76 238.10C5.76 238.16 5.76 238.50 5.93 238.68C6.16 238.91 6.62 239.08 7.02 239.31C7.31 239.48 7.60 239.71 7.60 239.88L7.31 240.12C7.08 240.29 6.91 240.35 6.85 240.35L6.04 240.69C5.93 240.81 5.87 240.92 5.87 241.09C5.87 241.21 5.93 241.38 6.10 241.61C6.10 241.73 6.27 241.84 6.62 242.01C6.79 242.24 7.31 242.59 7.37 242.76C7.54 243.28 6.22 242.94 6.22 243.74L9.09 243.74C10.30 243.57 11.28 243.57 12.38 243.40C13.47 243.22 14.51 243.11 15.66 242.88C16.75 242.71 17.90 242.48 19.11 241.84C19.57 241.78 20.03 241.55 20.49 241.32C20.72 241.27 20.84 241.15 21.07 240.98C21.24 240.98 21.24 240.86 21.41 240.81C21.59 240.81 21.70 240.63 21.76 240.58C22.51 240.06 23.08 239.54 23.71 238.85C24.35 238.22 24.58 237.52 24.98 236.89L25.04 236.72C25.21 235.86 25.33 235.05 25.33 234.36C25.33 233.67 25.21 232.98 25.04 232.29C24.75 231.71 24.52 231.08 24.29 230.44C23.66 229.29 22.97 228.14 22.22 227.05C21.35 225.96 20.38 225.03 19.46 223.94L16.92 221.52L15.14 219.85C14.74 219.45 14.27 219.05 13.76 218.70C12.89 217.78 12.26 217.03 11.63 216.29C11.05 215.42 10.71 214.73 10.59 214.21C10.42 213.87 10.36 213.46 10.36 212.95C10.36 212.66 10.36 212.43 10.42 212.31C10.59 211.62 11.97 209.67 12.15 209.49L12.89 208.97C13.35 208.80 13.76 208.63 14.27 208.57C14.68 208.40 15.20 208.28 15.83 208.23L16.63 208.23C17.73 208.23 18.82 208.28 20.03 208.57L19.80 208.34C18.65 207.94 17.50 207.88 16.87 207.88L15.48 207.88C14.97 207.94 14.39 207.88 13.99 208.05C14.16 207.88 14.22 207.82 14.27 207.65C14.45 207.42 14.56 207.19 15.20 207.13L16.23 207.08L17.44 207.13C18.30 207.19 19.17 207.31 19.80 207.31L20.55 207.42C20.55 207.36 20.49 207.31 20.32 207.19C20.09 207.02 19.46 206.85 19.23 206.67C18.71 206.50 18.65 206.21 18.65 206.04L18.94 205.41C18.94 205.12 19.17 205.00 19.34 204.77L19.86 204.08C20.03 203.85 20.15 203.62 20.20 203.39C20.20 203.16 20.15 202.82 19.92 202.64ZM52.26 233.50C51.86 233.04 51.52 232.52 51.23 232.00C51.23 231.71 51.29 231.31 51.40 230.73C51.46 230.21 51.46 229.75 51.40 229.29L51.34 229.06C50.83 229.01 50.31 229.01 49.85 228.95L49.16 227.34C48.87 226.47 48.70 225.73 48.35 224.86L47.03 221.64C46.16 219.57 45.99 218.07 45.36 215.36C44.95 213.81 44.49 212.66 44.21 211.28C43.80 211.91 44.15 212.83 44.38 214.16C44.09 213.98 43.52 214.27 43.29 213.75L42.42 211.74C42.36 211.57 42.31 211.45 42.19 211.45C42.02 211.45 42.13 211.97 41.96 212.14C41.79 212.66 41.33 212.49 40.93 212.66L39.37 212.72C39.37 212.26 39.37 211.97 39.31 211.57C39.31 211.39 39.26 211.28 39.14 211.28C39.08 211.28 38.97 211.80 38.74 212.03C38.57 212.20 38.39 212.26 38.22 212.26L37.07 212.31C36.67 212.31 36.21 212.14 35.74 212.08C35.46 212.03 35.28 211.97 35.05 211.97C34.82 211.97 33.33 212.03 33.10 212.14C33.04 214.39 32.92 216.23 32.52 218.47C32.23 220.37 31.83 222.27 31.43 224.29C31.43 224.52 31.43 224.69 31.37 224.86C30.85 227.57 30.22 230.21 29.70 232.92C29.47 234.53 29.24 236.14 28.95 237.81C28.72 239.42 28.55 241.04 29.76 242.82C29.82 242.76 29.87 242.71 29.99 242.71L30.51 242.82C30.56 242.82 30.68 242.76 30.74 242.71C31.14 242.48 31.49 242.13 31.89 242.13L32.12 242.19C32.35 242.24 32.46 242.65 32.69 242.88C32.81 242.94 32.92 242.94 33.10 242.94L33.56 242.94C33.73 242.94 34.13 242.65 34.65 242.48L35.00 242.42C35.34 242.42 35.51 242.65 35.51 243.05C35.69 241.50 35.74 240 35.92 238.33L36.26 235.91L38.05 235.68C38.57 235.63 39.08 235.63 39.60 235.63C41.73 235.28 42.94 235.40 44.72 235.28C44.90 235.28 45.07 235.22 45.24 235.22C45.65 235.74 46.11 236.32 46.45 236.83C47.31 238.22 47.95 240 50.48 241.73C50.48 241.55 51.00 240.52 51.06 240.35C51.29 240.17 51.40 240.06 51.46 239.88C51.46 239.71 51.52 239.48 51.57 239.08C51.57 238.91 51.69 238.68 51.86 238.50C51.92 238.45 51.98 238.45 52.09 238.45L52.61 238.50C53.07 238.50 53.19 238.10 53.36 237.93C53.36 237.76 53.42 237.64 53.53 237.52C53.53 237.35 53.70 237.06 53.88 236.83C54.05 236.60 54.22 236.49 54.28 236.43C54.34 236.37 54.39 236.37 54.51 236.37C54.62 236.37 54.74 236.43 54.85 236.55C53.93 235.63 53.13 234.65 52.26 233.50ZM39.03 229.64L37.24 229.87L37.59 227.85C38.05 225.78 38.28 223.65 39.14 218.65C39.95 221.75 40.12 222.56 42.08 227.62L42.65 229.24C41.33 229.35 40.46 229.47 39.03 229.64ZM79.26 210.01L78.97 210.07C78.57 210.24 78.11 210.41 77.71 210.41C77.53 210.41 77.42 210.36 77.25 210.30C77.07 210.13 77.02 209.49 76.73 209.26C76.56 208.97 76.09 208.97 75.81 208.97C75.52 208.97 75.00 209.15 74.37 209.15C73.68 209.09 73.62 208.00 73.50 208.11C72.87 209.95 72.35 211.80 71.72 213.69C70.51 217.26 69.13 220.37 67.63 224.52C67.40 225.15 67.23 225.67 67.06 226.30C66.37 223.83 65.22 218.53 64.41 215.65C64.01 213.98 63.37 212.54 62.91 210.93C62.45 211.74 63.26 213.18 63.55 214.62C63.26 214.44 62.91 214.56 62.51 213.93C62.11 213.29 62.11 212.14 61.70 211.51C61.59 211.33 61.53 211.28 61.47 211.28C61.30 211.28 61.36 211.85 61.19 212.14C60.90 212.77 60.32 212.66 59.92 212.72C58.83 213.00 57.50 212.72 56.58 213.46C59.52 225.44 60.38 228.95 61.19 231.48C62.11 234.76 63.14 238.10 64.35 241.38L65.33 240.86C65.73 240.40 66.02 239.77 66.65 239.71L67.69 240.12C68.09 240.12 68.38 239.94 68.67 239.77C68.73 239.77 68.90 239.48 69.19 239.31C69.59 239.37 69.82 239.48 70.22 239.48C70.40 239.48 70.57 239.48 70.68 239.42C70.74 239.14 70.80 238.91 70.80 238.79C71.32 236.37 71.95 234.19 72.70 231.94C73.56 229.47 74.43 227.05 75.35 224.57C76.50 221.52 79.15 213.69 80.24 210.24C79.84 210.24 79.66 210.01 79.26 210.01ZM100.15 233.73C96.47 233.21 92.38 232.75 91.06 232.75L91.12 230.91L91.18 229.87C92.15 229.81 93.19 229.75 94.11 229.58L100.33 229.06L100.27 227.91C100.10 227.45 99.87 226.99 99.87 226.47C99.87 225.96 100.10 225.84 100.15 225.44L100.15 225.15C100.15 224.92 100.15 224.63 100.10 224.40C100.10 224.23 99.75 223.08 99.75 222.39C99.75 222.10 99.81 221.93 99.92 221.93C99.23 221.98 98.49 222.04 97.62 222.21L92.44 222.44L91.64 222.50L91.87 219.05C92.38 219.05 92.90 219.11 93.42 219.16C95.67 219.16 98.72 219.57 100.15 219.74L102.51 219.85C102.40 219.34 101.48 219.45 100.79 219.28C100.96 218.99 100.96 218.59 101.36 218.53L102.23 218.59C102.40 218.59 102.51 218.59 102.57 218.53C102.69 218.47 102.75 218.41 102.75 218.36C102.75 218.18 102.51 218.07 102.46 217.90C102.40 217.78 102.40 217.61 102.40 217.44C102.40 217.15 102.46 216.86 102.51 216.46C102.69 215.94 102.75 215.42 102.92 214.79C103.03 214.33 103.09 213.87 103.09 213.41L103.09 213.12C101.77 212.83 100.56 212.66 99.23 212.43C97.62 212.20 95.55 212.03 93.65 212.03L90.37 212.03C90.37 211.51 90.37 210.93 90.20 210.53C90.14 210.30 90.02 210.18 89.97 210.18C89.79 210.18 89.79 210.76 89.56 211.05C89.39 211.28 89.22 211.39 88.99 211.39L88.36 211.33L88.12 211.33C87.66 211.33 87.26 211.22 86.74 211.16L86.23 211.10C85.82 211.10 85.48 211.16 85.19 211.33C85.25 212.89 85.30 214.27 85.30 215.82L85.30 218.99C85.30 221.47 85.19 220.20 85.07 222.73L84.56 234.53C84.56 236.60 84.61 238.68 84.67 240.75C84.73 240.69 84.84 240.69 84.96 240.69L85.42 240.75C85.48 240.75 85.59 240.69 85.76 240.63C86.23 240.23 86.57 239.77 87.09 239.77L88.07 240.58C88.24 240.63 88.36 240.69 88.41 240.69C88.59 240.69 88.82 240.58 88.99 240.52C89.16 240.52 89.62 240.17 90.25 240L90.72 239.88L91.29 239.77L91.81 239.77C92.67 239.77 96.01 240.29 100.56 241.09C101.54 241.38 102.40 241.38 103.32 241.61C103.38 241.09 102.17 240.98 101.31 240.69C101.59 240.46 101.71 240.17 102.11 240C102.51 240 102.86 240.29 103.26 240.29C103.38 240.29 103.44 240.29 103.49 240.23C103.67 240.17 103.72 240.12 103.72 240.06C103.72 239.88 103.55 239.77 103.38 239.54L103.32 239.25C103.32 238.85 103.49 238.50 103.55 238.22C103.72 237.58 103.95 237.12 104.18 236.49C104.36 236.03 104.41 235.57 104.41 235.05L104.41 234.82C102.98 234.42 101.59 234.13 100.15 233.73ZM99.92 221.93C99.98 221.93 99.98 221.93 99.98 221.93ZM139.58 207.19C139.64 207.19 139.35 207.59 139.12 207.59C138.72 207.59 138.66 207.02 138.66 206.27L138.66 203.85C138.66 203.62 138.61 203.51 138.55 203.51C138.09 203.51 133.94 204.20 133.83 204.20C133.42 204.20 133.42 204.26 133.25 204.31L133.25 205.23C132.39 206.79 131.70 208.17 130.83 209.61C130.20 210.82 129.51 211.97 128.65 213.06C128.24 213.69 127.84 214.10 127.38 214.62C127.21 214.90 126.98 215.19 126.81 215.36L126.46 215.71L126.34 215.88L126.17 215.94C126.17 215.88 126.11 215.94 126.11 215.77L125.83 215.36C125.42 215.08 125.31 214.79 124.91 214.39C123.01 212.26 121.05 210.30 119.26 208.05L117.65 206.04L117.02 205.23C116.96 204.26 116.85 203.22 116.85 202.13C116.33 202.47 116.62 203.79 116.62 204.66L116.04 203.91C116.04 204.43 116.39 204.89 116.56 205.18L116.56 206.21C116.27 205.92 115.87 205.87 115.70 205.18C115.64 204.89 115.58 204.66 115.58 204.26L115.58 203.51C115.58 202.99 115.52 202.64 115.47 202.47C115.41 202.24 115.35 202.13 115.29 202.13C115.12 202.13 115.06 202.64 114.83 202.93C114.66 203.16 114.49 203.28 114.20 203.28L113.51 203.22C113.05 203.22 112.53 203.10 111.90 202.93L111.03 202.87C110.75 202.87 110.46 202.93 110.23 203.05C110.29 208.57 110.57 213.87 111.03 219.11C111.32 222.33 111.61 225.61 111.84 228.83C112.13 232.52 112.24 236.14 112.42 239.83C112.47 239.77 112.59 239.77 112.70 239.77L113.16 239.83C113.22 239.83 113.34 239.77 113.51 239.71C113.97 239.42 114.43 238.91 114.89 238.91C115.01 238.91 115.06 238.91 115.12 238.96C115.41 239.02 115.64 239.54 115.93 239.71C116.10 239.77 116.21 239.83 116.33 239.83C116.44 239.83 116.67 239.77 116.96 239.71C117.02 239.65 117.60 239.31 118.23 239.14C118.34 239.08 118.52 239.08 118.69 239.08C119.09 239.08 118.92 239.77 119.38 239.77L118.46 225.09C118.29 222.39 118.17 219.85 117.94 217.15L118.75 218.13C119.15 218.65 119.61 219.11 120.07 219.57L121.91 221.52L123.81 223.71L125.71 225.78L130.72 221.35L131.41 220.54L131.53 220.37L132.27 219.51C132.68 219.05 132.91 218.65 133.31 218.18L133.83 231.54C134.00 235.45 134.12 239.48 134.17 243.40L135.32 243.28C135.78 242.88 136.25 242.36 136.71 242.36L136.88 242.42C137.28 242.48 137.34 243.05 137.74 243.28C137.91 243.34 138.03 243.40 138.09 243.40C138.20 243.40 138.43 243.45 138.72 243.28C139.01 243.11 139.35 242.82 139.99 242.65C140.22 242.59 140.39 242.53 140.50 242.53C140.91 242.53 140.85 243.17 141.14 243.34C141.14 240.81 140.04 207.36 139.58 207.19ZM117.14 207.31C117.14 206.79 117.14 206.50 117.08 205.98C117.42 206.38 117.60 206.73 118.11 207.42C117.71 207.36 117.54 207.48 117.14 207.31ZM139.58 207.19C139.58 207.19 139.58 207.19 139.58 207.19ZM175.10 227.51C175.16 226.70 175.39 225.09 175.39 223.77C175.39 223.25 175.33 222.85 175.27 222.50C175.10 221.52 174.64 220.37 174.29 219.34C173.83 218.07 173.14 216.86 172.45 215.82C171.99 215.25 171.59 214.90 171.01 214.39L170.26 213.58L169.40 213.00C168.82 212.54 168.13 212.03 167.33 211.80C166.69 211.57 166.00 211.33 165.26 211.28L162.84 211.05L160.88 211.33C159.79 211.51 158.92 211.57 158.18 211.68C158.29 211.74 158.35 211.85 158.35 211.91L158.35 212.49C158.29 212.72 158.35 212.83 158.46 212.95L159.61 213.64C159.90 213.81 160.13 213.98 160.13 214.16L160.08 214.56C160.08 214.73 159.73 214.85 159.44 214.96C158.98 215.25 158.75 215.31 158.52 215.48C158.46 215.54 158.41 215.71 158.41 215.88L158.35 216.11C158.52 216.29 158.52 216.40 158.58 216.57C158.58 216.69 158.75 216.92 159.21 217.09C159.56 217.44 159.79 217.55 159.96 217.95C160.02 218.07 160.13 218.18 160.13 218.36C160.13 218.59 160.13 218.70 160.08 218.76C160.02 218.93 159.38 219.16 160.36 219.16L161.74 218.88C162.32 218.82 162.72 218.82 163.07 218.82C163.47 218.82 163.64 218.76 163.87 218.76L164.45 218.88L165.14 219.28L165.43 219.62C165.60 219.68 165.72 219.80 165.83 220.03L166.52 220.83C167.04 221.75 167.56 222.62 167.85 223.77C167.96 224.40 167.73 226.30 167.73 226.53C167.27 230.04 165.08 232.34 161.86 232.57C161.51 232.63 160.65 232.57 160.25 232.57C159.85 232.52 159.04 232.46 158.69 232.40C154.95 231.83 154.20 227.97 154.49 225.67C154.72 223.42 155.82 222.10 156.22 221.52C157.31 220.31 158.41 219.28 159.67 218.82C159.04 218.59 157.89 219.51 156.79 220.43C156.45 220.83 156.05 221.24 155.59 221.64C155.13 222.16 154.66 222.67 154.32 223.25C154.26 222.96 154.26 222.67 154.26 222.44L154.32 222.21C154.38 221.81 154.49 221.52 154.72 221.18C155.13 220.49 155.70 219.85 156.51 219.28C156.97 219.05 157.25 218.70 157.60 218.47C158.06 218.30 158.29 218.07 158.52 217.78C158.92 217.55 158.98 217.49 159.04 217.32C159.04 217.26 158.98 217.26 158.87 217.26C158.46 217.21 157.60 217.61 157.43 217.67C157.25 217.61 157.14 217.67 156.97 217.67C156.79 217.67 156.62 217.55 156.45 217.38L156.28 216.69C156.05 216.40 155.99 216.05 155.99 215.82L155.82 214.85L155.82 214.39C155.76 214.16 155.70 213.93 155.59 213.87C155.41 213.58 155.18 213.46 154.72 213.41L154.38 213.52C152.88 214.50 151.50 215.82 150.41 217.09C149.25 218.53 147.41 221.29 146.95 225.03L146.95 225.09C146.95 225.49 146.89 225.90 146.89 226.24C146.89 228.37 147.24 230.21 147.41 230.96C147.58 231.83 147.87 232.69 148.39 233.61C148.79 234.47 149.37 235.34 149.94 236.14C150.69 236.95 151.44 237.70 152.30 238.22C153.17 238.96 154.32 239.42 155.41 239.83C156.56 240.17 157.60 240.35 158.75 240.40L159.33 240.46L159.90 240.52C161.00 240.63 162.03 240.63 163.30 240.52C164.39 240.35 165.66 240.06 166.69 239.48C168.54 238.79 170.55 237.24 171.64 235.63C172.34 234.82 172.85 234.07 173.26 233.21C173.66 232.40 174.70 230.10 175.10 227.51ZM203.94 214.39C203.71 213.98 203.25 213.93 203.07 213.18C203.02 213.00 203.02 212.77 203.02 212.43L203.07 211.10C203.07 210.70 203.02 210.47 202.96 210.18C202.90 209.95 202.79 209.84 202.73 209.84C202.55 209.84 202.50 210.36 202.21 210.76C202.04 210.99 201.75 211.10 201.40 211.10C200.14 211.05 199.73 210.93 199.10 210.76L198.93 210.70C198.64 210.64 198.35 210.59 198.18 210.59C197.89 210.59 197.78 210.70 197.37 210.87C197.37 213.64 197.14 216.29 197.09 218.99C196.74 226.99 196.51 225.78 196.40 230.68C195.71 229.06 194.50 226.70 193.81 225.38C192.65 223.08 191.79 220.20 190.81 217.95L189.09 213.69C189.09 214.56 189.26 215.77 189.89 217.09C189.49 216.92 189.20 217.09 188.97 216.86L188.97 216.40C188.97 214.33 188.63 212.54 188.63 210.64C187.82 211.57 188.34 213.23 188.28 214.90C187.88 214.67 187.53 214.62 187.36 213.87L187.24 211.05C187.13 210.76 187.07 210.64 187.01 210.64C186.84 210.64 186.78 211.22 186.38 211.51C186.21 211.74 185.92 211.85 185.63 211.85L184.88 211.80C184.02 211.80 183.10 211.39 182.12 211.39C181.83 211.39 181.49 211.45 181.14 211.57L180.57 242.76C180.80 242.76 180.74 242.65 180.91 242.65L181.55 242.71C181.66 242.71 181.78 242.71 181.83 242.65C182.35 242.24 182.81 241.78 183.33 241.78L183.56 241.84C183.96 241.90 184.14 242.42 184.54 242.65C184.60 242.71 184.77 242.71 184.94 242.71C185.23 242.71 185.46 242.71 185.63 242.65C185.80 242.59 186.32 241.96 187.19 241.96C187.59 241.96 187.59 242.71 187.99 242.71C187.99 241.96 188.11 239.31 188.28 233.44C188.28 232.75 188.34 228.83 188.39 228.14L191.45 234.07C192.14 235.40 194.32 239.48 194.67 240.63L195.99 240.52C196.51 240.23 196.91 239.65 197.55 239.65L197.78 239.65C198.18 239.83 198.30 240.29 198.70 240.52C198.81 240.58 198.99 240.58 199.22 240.58C200.02 240.58 199.91 240.40 201.29 240C201.46 239.94 201.63 239.88 201.86 239.88C202.32 239.88 202.04 240.63 202.55 240.63C203.07 232.57 204.17 221.12 204.57 215.88C204.68 214.10 204.45 212.72 204.28 212.72C204.17 212.72 204.05 213.29 203.94 214.39ZM227.13 233.73C223.45 233.21 219.36 232.75 218.04 232.75L218.10 230.91L218.15 229.87C219.13 229.81 220.17 229.75 221.09 229.58L227.31 229.06L227.25 227.91C227.08 227.45 226.85 226.99 226.85 226.47C226.85 225.96 227.08 225.84 227.13 225.44L227.13 225.15C227.13 224.92 227.13 224.63 227.08 224.40C227.08 224.23 226.73 223.08 226.73 222.39C226.73 222.10 226.79 221.93 226.90 221.93C226.21 221.98 225.46 222.04 224.60 222.21L219.42 222.44L218.61 222.50L218.84 219.05C219.36 219.05 219.88 219.11 220.40 219.16C222.64 219.16 225.69 219.57 227.13 219.74L229.49 219.85C229.38 219.34 228.46 219.45 227.77 219.28C227.94 218.99 227.94 218.59 228.34 218.53L229.21 218.59C229.38 218.59 229.49 218.59 229.55 218.53C229.67 218.47 229.72 218.41 229.72 218.36C229.72 218.18 229.49 218.07 229.44 217.90C229.38 217.78 229.38 217.61 229.38 217.44C229.38 217.15 229.44 216.86 229.49 216.46C229.67 215.94 229.72 215.42 229.90 214.79C230.01 214.33 230.07 213.87 230.07 213.41L230.07 213.12C228.74 212.83 227.54 212.66 226.21 212.43C224.60 212.20 222.53 212.03 220.63 212.03L217.35 212.03C217.35 211.51 217.35 210.93 217.18 210.53C217.12 210.30 217.00 210.18 216.94 210.18C216.77 210.18 216.77 210.76 216.54 211.05C216.37 211.28 216.20 211.39 215.97 211.39L215.33 211.33L215.10 211.33C214.64 211.33 214.24 211.22 213.72 211.16L213.20 211.10C212.80 211.10 212.46 211.16 212.17 211.33C212.22 212.89 212.28 214.27 212.28 215.82L212.28 218.99C212.28 221.47 212.17 220.20 212.05 222.73L211.53 234.53C211.53 236.60 211.59 238.68 211.65 240.75C211.71 240.69 211.82 240.69 211.94 240.69L212.40 240.75C212.46 240.75 212.57 240.69 212.74 240.63C213.20 240.23 213.55 239.77 214.07 239.77L215.05 240.58C215.22 240.63 215.33 240.69 215.39 240.69C215.56 240.69 215.79 240.58 215.97 240.52C216.14 240.52 216.60 240.17 217.23 240L217.69 239.88L218.27 239.77L218.79 239.77C219.65 239.77 222.99 240.29 227.54 241.09C228.51 241.38 229.38 241.38 230.30 241.61C230.36 241.09 229.15 240.98 228.28 240.69C228.57 240.46 228.69 240.17 229.09 240C229.49 240 229.84 240.29 230.24 240.29C230.36 240.29 230.41 240.29 230.47 240.23C230.64 240.17 230.70 240.12 230.70 240.06C230.70 239.88 230.53 239.77 230.36 239.54L230.30 239.25C230.30 238.85 230.47 238.50 230.53 238.22C230.70 237.58 230.93 237.12 231.16 236.49C231.33 236.03 231.39 235.57 231.39 235.05L231.39 234.82C229.95 234.42 228.57 234.13 227.13 233.73ZM226.90 221.93C226.96 221.93 226.96 221.93 226.96 221.93ZM257.29 215.54C257.12 215.13 256.83 215.08 256.83 214.67C256.89 214.04 257.52 213.64 257.52 213.12C257.52 212.95 257.47 212.89 257.41 212.89C257.24 212.89 257.01 213.00 256.78 213.06C256.14 213.06 255.86 212.72 255.45 212.54C254.99 212.14 254.47 211.91 254.01 211.45C253.55 211.22 253.04 210.93 252.40 210.76C249.12 215.88 248.32 215.82 246.13 219.80C246.01 219.74 245.90 219.57 245.84 219.39C243.88 216.00 244.17 216.11 241.87 212.95L239.97 210.70C239.91 211.10 240.14 211.68 241.01 212.60L240.31 212.77C240.14 212.77 239.97 212.72 239.91 212.60C239.51 212.43 239.39 211.80 238.99 211.62C238.93 211.57 238.88 211.57 238.76 211.57C238.53 211.57 238.59 211.80 238.53 212.20C238.30 212.49 237.84 212.72 237.44 212.95C236.34 213.58 235.19 213.93 234.33 214.79C237.21 218.53 240.03 224.29 242.67 227.62L242.73 227.91C242.67 232.52 242.62 229.87 242.62 233.84C242.62 234.76 242.62 235.74 242.67 236.66C242.73 238.04 242.56 239.37 242.73 240.69L243.94 240.58C244.63 240.17 245.03 239.94 245.49 239.88C246.01 239.88 246.13 240.29 246.53 240.46C246.59 240.52 246.70 240.52 246.82 240.52C246.93 240.52 246.99 240.52 247.05 240.46L247.39 240.46C247.51 240.46 247.57 240.46 247.62 240.40C247.85 240.23 249.01 239.94 249.52 239.94C249.93 239.94 249.87 240.46 250.27 240.46L250.10 236.49C249.93 235.86 250.16 235.34 250.10 234.82C250.10 231.77 250.21 229.98 250.21 227.28C250.27 227.22 252.63 221.64 257.35 216.34C258.10 215.54 258.50 214.44 258.85 213.69C258.22 213.81 257.76 214.67 257.29 215.54Z" fill="#000000" style="fill: rgb(0, 0, 0);"></path></g><g id="SvgjsG1778" rel="mainfill" name="slogan_text" xmlns:name="slogan_text" transform="translate(155.32500052452087,-173.19878469931115)" fill="#000000"><path d="M9.93 240C7.57 234.57 6.15 233.70 3.27 233.51L3.27 240L1.91 240L1.91 226.81L3.27 226.81L3.27 233.23C4.50 232.32 7.06 229.86 9.52 226.81L11.31 226.81C8.40 230.22 6.28 232.21 5.47 232.75C7.34 233.25 8.68 233.81 11.56 240ZM17.20 240.26C14.23 240.26 12.87 239.09 12.87 235.18C12.87 231.28 14.25 230.18 17.20 230.18C20.17 230.18 21.55 231.28 21.55 235.18C21.55 239.09 20.19 240.26 17.20 240.26ZM17.20 231.35C14.97 231.35 14.23 231.96 14.23 235.21C14.23 238.32 14.97 239.09 17.20 239.09C19.45 239.09 20.19 238.32 20.19 235.21C20.19 231.96 19.45 231.35 17.20 231.35ZM30.57 231.58L30.57 240L31.80 240L31.80 230.45L24.18 230.45L24.18 240L25.41 240L25.41 231.58ZM41.07 240L42.30 240L42.30 230.45L41.07 230.45C39.43 233.21 37.71 235.88 35.91 238.22L35.91 230.45L34.68 230.45L34.68 240L35.91 240C37.69 237.71 39.60 235.06 41.07 232.49ZM57.29 238.60C56.61 238.90 55.78 239.09 54.96 239.09C52.73 239.09 51.71 238.32 51.71 235.21C51.71 231.96 52.73 231.35 54.96 231.35C55.76 231.35 56.61 231.49 57.29 231.81L57.69 230.65C57.01 230.39 55.76 230.18 54.96 230.18C52.01 230.18 50.35 231.28 50.35 235.18C50.35 239.09 51.99 240.26 54.96 240.26C55.78 240.26 56.97 240.06 57.69 239.74ZM67.37 240.45C66.41 237.05 65.12 233.06 63.85 230.45L65.24 230.45C66.26 232.75 67.37 236.06 68.19 238.90C69.34 236.12 70.44 233.19 71.20 230.45L72.54 230.45C71.57 233.64 70.33 236.82 68.98 240C68.49 241.19 67.79 242.65 67.26 243.63L65.82 243.63C66.31 242.72 66.90 241.49 67.37 240.45ZM79.56 237.54C78.61 235.16 77.59 232.83 76.51 230.45L74.45 230.45L74.45 240L75.68 240L75.68 231.54C76.80 234.00 77.93 236.84 78.90 239.32L80.05 239.32C80.94 236.90 82.13 234.06 83.30 231.54L83.30 240L84.53 240L84.53 230.45L82.55 230.45C81.45 232.81 80.47 235.10 79.56 237.54ZM91.50 240.26C88.53 240.26 87.16 239.09 87.16 235.18C87.16 231.28 88.54 230.18 91.50 230.18C94.47 230.18 95.85 231.28 95.85 235.18C95.85 239.09 94.49 240.26 91.50 240.26ZM91.50 231.35C89.26 231.35 88.53 231.96 88.53 235.21C88.53 238.32 89.26 239.09 91.50 239.09C93.75 239.09 94.49 238.32 94.49 235.21C94.49 231.96 93.75 231.35 91.50 231.35ZM103.59 237.54C102.64 235.16 101.62 232.83 100.54 230.45L98.48 230.45L98.48 240L99.71 240L99.71 231.54C100.82 234.00 101.96 236.84 102.92 239.32L104.08 239.32C104.97 236.90 106.16 234.06 107.33 231.54L107.33 240L108.56 240L108.56 230.45L106.58 230.45C105.48 232.81 104.49 235.10 103.59 237.54Z" fill="#000000" style="fill: rgb(0, 0, 0);"></path></g><g id="SvgjsG1779" rel="mainfill" name="symbol" xmlns:name="symbol_mainfill" transform="translate(-13.581081081081061,-9.05405405405405) scale(0.905405405405405)" fill="#000000"><path d="M70,31.3H39c-1.1,0-2-0.9-2-2s0.9-2,2-2h31c1.1,0,2,0.9,2,2S71.1,31.3,70,31.3z" fill="#000000" style="fill: rgb(0, 0, 0);"></path><path d="M42.9,18h-3.8c-0.6,0-1.1,0.5-1.1,1.1v3.8c0,0.6,0.5,1.1,1.1,1.1h3.8c0.6,0,1.1-0.5,1.1-1.1v-3.8C44,18.5,43.5,18,42.9,18  L42.9,18z" fill="#000000" style="fill: rgb(0, 0, 0);"></path><path d="M70,22h-6c-1.1,0-2-0.9-2-2s0.9-2,2-2h6c1.1,0,2,0.9,2,2S71.1,22,70,22z" fill="#000000" style="fill: rgb(0, 0, 0);"></path><path d="M78,37c-1.1,0-2-0.9-2-2V15.6c0-0.9-0.7-1.6-1.6-1.6H33.6c-0.9,0-1.6,0.7-1.6,1.6V35c0,1.1-0.9,2-2,2s-2-0.9-2-2V15.6  c0-3.1,2.5-5.6,5.6-5.6h40.8c3.1,0,5.6,2.5,5.6,5.6V35C80,36.1,79.1,37,78,37z" fill="#000000" style="fill: rgb(0, 0, 0);"></path><path d="M83,90H24c-5,0-9-4-9-9V36c0-1.1,0.9-2,2-2s2,0.9,2,2v45c0,2.8,2.2,5,5,5h57V74.8c0-1.1,0.9-2,2-2s2,0.9,2,2V88  C85,89.1,84.1,90,83,90z" fill="#000000" style="fill: rgb(0, 0, 0);"></path><path d="M87,76H68c-6.1,0-11-4.9-11-11s4.9-11,11-11h19c1.1,0,2,0.9,2,2v18C89,75.1,88.1,76,87,76z M68,58c-3.9,0-7,3.1-7,7  s3.1,7,7,7h17V58H68z" fill="#000000" style="fill: rgb(0, 0, 0);"></path><path d="M83,45H24c-5,0-9-4-9-9s4-9,9-9h6c1.1,0,2,0.9,2,2s-0.9,2-2,2h-6c-2.8,0-5,2.2-5,5s2.2,5,5,5h59c1.1,0,2,0.9,2,2  S84.1,45,83,45z" fill="#000000" style="fill: rgb(0, 0, 0);"></path><path d="M83,57.8c-1.1,0-2-0.9-2-2V38H25c-1.1,0-2-0.9-2-2s0.9-2,2-2h58c1.1,0,2,0.9,2,2v19.8C85,56.9,84.1,57.8,83,57.8z" fill="#000000" style="fill: rgb(0, 0, 0);"></path><circle cx="69" cy="65" r="2"></circle></g></svg>